<svg id="check" xmlns="http://www.w3.org/2000/svg" width="512" height="512" viewBox="0 0 512 512">
  <g id="Group_8646" data-name="Group 8646">
    <g id="Group_8645" data-name="Group 8645">
      <path id="Path_11144" data-name="Path 11144" d="M437.019,74.98A256,256,0,0,0,74.98,437.019,256,256,0,1,0,437.019,74.98ZM256,482C131.383,482,30,380.617,30,256S131.383,30,256,30,482,131.383,482,256,380.617,482,256,482Z" fill="#fff"/>
    </g>
  </g>
  <g id="Group_8648" data-name="Group 8648">
    <g id="Group_8647" data-name="Group 8647">
      <path id="Path_11145" data-name="Path 11145" d="M378.3,173.859a15,15,0,0,0-21.212,0L224.634,306.319l-69.727-69.727a15,15,0,1,0-21.213,21.213l80.333,80.333a15,15,0,0,0,21.212,0L378.3,195.072A15,15,0,0,0,378.3,173.859Z" fill="#fff"/>
    </g>
  </g>
</svg>
