<svg id="information" xmlns="http://www.w3.org/2000/svg" width="512" height="512" viewBox="0 0 512 512">
  <g id="Group_8640" data-name="Group 8640">
    <g id="Group_8639" data-name="Group 8639">
      <path id="Path_11142" data-name="Path 11142" d="M256,0C114.5,0,0,114.507,0,256S114.507,512,256,512,512,397.493,512,256,397.492,0,256,0Zm0,472A216,216,0,1,1,472,256,215.878,215.878,0,0,1,256,472Z" fill="#03a9f4"/>
    </g>
  </g>
  <g id="Group_8642" data-name="Group 8642">
    <g id="Group_8641" data-name="Group 8641">
      <path id="Path_11143" data-name="Path 11143" d="M256,214.33a20,20,0,0,0-20,20V363.123a20,20,0,1,0,40,0V234.33A20,20,0,0,0,256,214.33Z" fill="#03a9f4"/>
    </g>
  </g>
  <g id="Group_8644" data-name="Group 8644">
    <g id="Group_8643" data-name="Group 8643">
      <circle id="Ellipse_346" data-name="Ellipse 346" cx="27" cy="27" r="27" transform="translate(229 135.84)" fill="#03a9f4"/>
    </g>
  </g>
</svg>
