<svg xmlns="http://www.w3.org/2000/svg" width="163.47" height="101.66" viewBox="0 0 163.47 101.66">
  <g id="Group_8305" data-name="Group 8305" transform="translate(-722 -477)">
    <g id="freepik--background-complete--inject-135" transform="translate(722 477)" opacity="0.2">
      <rect id="Rectangle_5802" data-name="Rectangle 5802" width="163.47" height="0.073" transform="translate(0 96.067)" fill="#ebebeb"/>
      <rect id="Rectangle_5803" data-name="Rectangle 5803" width="6.224" height="0.073" transform="translate(15.393 98.861)" fill="#ebebeb"/>
      <rect id="Rectangle_5804" data-name="Rectangle 5804" width="24.932" height="0.073" transform="translate(57.127 98.065)" fill="#ebebeb"/>
      <rect id="Rectangle_5805" data-name="Rectangle 5805" width="11.182" height="0.073" transform="translate(19.856 101.587)" fill="#ebebeb"/>
      <rect id="Rectangle_5806" data-name="Rectangle 5806" width="12.673" height="0.073" transform="translate(136.096 101.094)" fill="#ebebeb"/>
      <rect id="Rectangle_5807" data-name="Rectangle 5807" width="3.512" height="0.073" transform="translate(128.309 101.094)" fill="#ebebeb"/>
      <rect id="Rectangle_5808" data-name="Rectangle 5808" width="6.749" height="0.073" transform="translate(114.301 99.855)" fill="#ebebeb"/>
      <rect id="Rectangle_5809" data-name="Rectangle 5809" width="14.213" height="0.073" transform="translate(95.158 99.855)" fill="#ebebeb"/>
      <path id="Path_14409" data-name="Path 14409" d="M96.54,137.98H39.883a1.675,1.675,0,0,1-1.673-1.675V56.661A1.675,1.675,0,0,1,39.883,55H96.54a1.675,1.675,0,0,1,1.675,1.675v79.63A1.675,1.675,0,0,1,96.54,137.98ZM39.883,55.059a1.6,1.6,0,0,0-1.6,1.6v79.644a1.6,1.6,0,0,0,1.6,1.6H96.54a1.605,1.605,0,0,0,1.6-1.6V56.661a1.605,1.605,0,0,0-1.6-1.6Z" transform="translate(-26.998 -55)" fill="#ebebeb"/>
      <path id="Path_14410" data-name="Path 14410" d="M312.836,137.98h-56.66a1.678,1.678,0,0,1-1.675-1.675V56.661A1.678,1.678,0,0,1,256.175,55h56.66a1.675,1.675,0,0,1,1.67,1.661v79.644A1.675,1.675,0,0,1,312.836,137.98Zm-56.66-82.922a1.605,1.605,0,0,0-1.6,1.6v79.644a1.605,1.605,0,0,0,1.6,1.6h56.66a1.605,1.605,0,0,0,1.6-1.6V56.661a1.605,1.605,0,0,0-1.6-1.6Z" transform="translate(-163.066 -55)" fill="#ebebeb"/>
      <rect id="Rectangle_5810" data-name="Rectangle 5810" width="9.906" height="41.367" transform="translate(25.639 96.067) rotate(180)" fill="#e6e6e6"/>
      <path id="Path_14411" data-name="Path 14411" d="M55.259,373.434H53.61V369.71h3.377Z" transform="translate(-37.88 -277.366)" fill="#f0f0f0"/>
      <rect id="Rectangle_5811" data-name="Rectangle 5811" width="9.906" height="41.367" transform="translate(101.203 96.067) rotate(180)" fill="#e6e6e6"/>
      <rect id="Rectangle_5812" data-name="Rectangle 5812" width="67.039" height="39.938" transform="translate(82.772 94.638) rotate(180)" fill="#f0f0f0"/>
      <rect id="Rectangle_5813" data-name="Rectangle 5813" width="64.48" height="10.954" transform="translate(81.493 67.423) rotate(180)" fill="#e6e6e6"/>
      <rect id="Rectangle_5814" data-name="Rectangle 5814" width="64.48" height="1.491" transform="translate(81.493 57.963) rotate(180)" fill="#e0e0e0"/>
      <path id="Path_14412" data-name="Path 14412" d="M272.3,373.434h1.649V369.71h-3.38Z" transform="translate(-181.896 -277.366)" fill="#f0f0f0"/>
      <rect id="Rectangle_5815" data-name="Rectangle 5815" width="64.48" height="10.954" transform="translate(81.493 80.146) rotate(180)" fill="#e6e6e6"/>
      <rect id="Rectangle_5816" data-name="Rectangle 5816" width="64.48" height="1.491" transform="translate(81.493 70.686) rotate(180)" fill="#e0e0e0"/>
      <rect id="Rectangle_5817" data-name="Rectangle 5817" width="64.48" height="10.954" transform="translate(81.493 92.866) rotate(180)" fill="#e6e6e6"/>
      <rect id="Rectangle_5818" data-name="Rectangle 5818" width="64.48" height="1.491" transform="translate(81.493 83.406) rotate(180)" fill="#e0e0e0"/>
      <path id="Path_14413" data-name="Path 14413" d="M358.02,208.667h22.969l2.039-72.147H360.059Z" transform="translate(-236.211 -112.6)" fill="#e6e6e6"/>
      <path id="Path_14414" data-name="Path 14414" d="M355.63,208.667H378.6l2.039-72.147H357.669Z" transform="translate(-234.522 -112.6)" fill="#f0f0f0"/>
      <path id="Path_14415" data-name="Path 14415" d="M380.82,211.555l1.922-68.045h-20.1l-1.922,68.045Z" transform="translate(-238.119 -117.539)" fill="#fafafa"/>
      <rect id="Rectangle_5819" data-name="Rectangle 5819" width="66.249" height="36.948" transform="translate(95.023 43.471) rotate(180)" fill="#f0f0f0"/>
      <rect id="Rectangle_5820" data-name="Rectangle 5820" width="67.52" height="36.948" transform="translate(88.952 43.471) rotate(180)" fill="#f5f5f5"/>
      <rect id="Rectangle_5821" data-name="Rectangle 5821" width="30.804" height="60.839" transform="translate(90.44 9.592) rotate(90)" fill="#fff"/>
      <circle id="Ellipse_1314" data-name="Ellipse 1314" cx="2.283" cy="2.283" r="2.283" transform="translate(22.333 48.48)" fill="#f0f0f0"/>
      <circle id="Ellipse_1315" data-name="Ellipse 1315" cx="2.283" cy="2.283" r="2.283" transform="translate(28.584 53.509) rotate(-76.72)" fill="#e6e6e6"/>
      <circle id="Ellipse_1316" data-name="Ellipse 1316" cx="2.283" cy="2.283" r="2.283" transform="translate(32.157 51.928) rotate(-76.72)" fill="#f0f0f0"/>
      <path id="Path_14416" data-name="Path 14416" d="M82.385,230.9s-.2,3.087-7.922,3.087S66.54,230.9,66.54,230.9Z" transform="translate(-47.016 -179.287)" fill="#e6e6e6"/>
    </g>
    <g id="Group_8304" data-name="Group 8304" transform="translate(747.822 483.162)">
      <g id="undraw_Post_re_mtr4" transform="translate(0 13.671)">
        <g id="Group_8303" data-name="Group 8303" transform="translate(13.011 0)">
          <path id="Path_13337" data-name="Path 13337" d="M515.851,327.491l-.573-5.015-2.249-19.668-.573-5.015a5.564,5.564,0,0,1,4.89-6.153l28.639-3.654a5.564,5.564,0,0,1,6.153,4.89v.011l3.393,29.675v.011a5.564,5.564,0,0,1-4.89,6.153L522,332.381A5.564,5.564,0,0,1,515.851,327.491Z" transform="translate(-512.42 -287.95)" fill="#fff" stroke="#eee" stroke-width="1"/>
        </g>
        <path id="Path_13345" data-name="Path 13345" d="M800.952,768.424h35.515a.162.162,0,0,0,0-.324H800.952a.162.162,0,0,0,0,.324Z" transform="translate(-800.79 -692.555)" fill="#3f3d56"/>
        <path id="Path_13346" data-name="Path 13346" d="M942.9,382.053a1.521,1.521,0,0,1-1.365,1.89l-1.1,3.3-2.166-.179,1.617-4.634a1.529,1.529,0,0,1,3.013-.374Z" transform="translate(-929.401 -368.139)" fill="#ffb8b8"/>
        <path id="Path_13347" data-name="Path 13347" d="M950.01,420.046h0a1.96,1.96,0,0,1-3.24-1.025l-1.716-7.861a7.763,7.763,0,0,1,.2-4.051l2.008-6.191a.649.649,0,0,1,.907-.38l1.311.656a.649.649,0,0,1,.332.761l-.132.454A21.845,21.845,0,0,0,949.514,414l1.067,4.108a1.96,1.96,0,0,1-.571,1.936Z" transform="translate(-938.171 -384.543)" fill="#407bff"/>
        <path id="Path_13348" data-name="Path 13348" d="M711.375,592.955h1.854l.882-7.151h-2.736Z" transform="translate(-692.671 -518.782)" fill="#ffb8b8"/>
        <path id="Path_13349" data-name="Path 13349" d="M698.338,626.633h-3.575v2.251h5.827A2.251,2.251,0,0,0,698.338,626.633Z" transform="translate(-676.455 -552.99)" fill="#2f2e41"/>
        <path id="Path_13350" data-name="Path 13350" d="M773,592.955h1.854l.882-7.151h-2.736Z" transform="translate(-764.285 -518.782)" fill="#ffb8b8"/>
        <path id="Path_13351" data-name="Path 13351" d="M759.96,626.633h-3.576v2.251h5.827A2.251,2.251,0,0,0,759.96,626.633Z" transform="translate(-748.07 -552.99)" fill="#2f2e41"/>
        <ellipse id="Ellipse_1171" data-name="Ellipse 1171" cx="3.983" cy="3.983" rx="3.983" ry="3.983" transform="translate(10.158 15.371)" fill="#ffb8b8"/>
        <path id="Path_13352" data-name="Path 13352" d="M856.667,561.48a1.521,1.521,0,0,0-1.961-1.262l-2.226-2.668-1.951.957,3.2,3.724a1.529,1.529,0,0,0,2.942-.751Z" transform="translate(-828.907 -516.15)" fill="#ffb8b8"/>
        <path id="Path_13353" data-name="Path 13353" d="M906.285,398.546a4.25,4.25,0,1,1,.8-8.4,4.885,4.885,0,0,1,2.915-.8,2.857,2.857,0,0,1,2.412,1.648,2.04,2.04,0,0,1-.977,2.591,3.685,3.685,0,0,1-1.945.028,2.9,2.9,0,0,0-1.923.17c-.565.335-.819,1.233-.313,1.652a1.741,1.741,0,0,1,.5,1.917A1.9,1.9,0,0,1,906.285,398.546Z" transform="translate(-893.114 -375.209)" fill="#2f2e41"/>
        <path id="Path_13354" data-name="Path 13354" d="M887.556,579.5l-.707,26.813a.649.649,0,0,0,.682.665l2.328-.119a.649.649,0,0,0,.608-.546l2.768-17.415a.324.324,0,0,1,.637-.02l3.747,16.768a.649.649,0,0,0,.85.47l2.31-.141a.649.649,0,0,0,.43-.657l-2.016-26.071Z" transform="translate(-879.327 -534.33)" fill="#2f2e41"/>
        <path id="Path_13355" data-name="Path 13355" d="M894.023,460.567a7.309,7.309,0,0,1,6.669-8.027c1.754-.125,4.478-.169,5.376,2.13,2.7,6.927-2.03,6.759-.4,12.76s3.072,6.345.834,6.779-12.3,2.992-11.89-1.232C894.867,470.379,894.412,464.62,894.023,460.567Z" transform="translate(-886.928 -428.13)" fill="#407bff"/>
        <path id="Path_13356" data-name="Path 13356" d="M870.975,460.891h0a1.96,1.96,0,0,0-2.643,2.137l1.271,7.945a7.763,7.763,0,0,0,1.665,3.7L875.4,479.7a.649.649,0,0,0,.983.023l.981-1.089a.648.648,0,0,0,.032-.83l-.289-.375a21.846,21.846,0,0,1-4.386-10.732l-.505-4.214A1.96,1.96,0,0,0,870.975,460.891Z" transform="translate(-852.638 -435.056)" fill="#407bff"/>
      </g>
      <g id="freepik--Smartphone--inject-134" transform="translate(16.526 0)">
        <path id="Path_14198" data-name="Path 14198" d="M263.661,113.75H221.534a4.133,4.133,0,0,0-4.064,3.857L213.1,198.7a3.629,3.629,0,0,0,3.65,3.857h42.128a4.13,4.13,0,0,0,4.064-3.857l4.367-81.085a3.629,3.629,0,0,0-3.65-3.863Z" transform="translate(-173.009 -112.7)" fill="#263238"/>
        <rect id="Rectangle_5748" data-name="Rectangle 5748" width="2.078" height="0.3" transform="translate(52.36 0)" fill="#407bff"/>
        <path id="Path_14199" data-name="Path 14199" d="M224.091,112.991l-.261-.15a5.167,5.167,0,0,1,4.433-2.591h3.275v.3h-3.275A4.864,4.864,0,0,0,224.091,112.991Z" transform="translate(-180.524 -110.25)" fill="#407bff"/>
        <path id="Path_14200" data-name="Path 14200" d="M261.048,113.75H218.92a4.133,4.133,0,0,0-4.064,3.857L210.493,198.7a3.626,3.626,0,0,0,3.647,3.857H256.27a4.13,4.13,0,0,0,4.061-3.857l4.367-81.085a3.629,3.629,0,0,0-3.65-3.863Z" transform="translate(-171.181 -112.7)" fill="#407bff"/>
        <path id="Path_14201" data-name="Path 14201" d="M215.677,203.412a3.017,3.017,0,0,1-3.041-3.209L217,119.112a3.437,3.437,0,0,1,3.386-3.212h42.14a3.017,3.017,0,0,1,3.041,3.212L261.19,200.2a3.437,3.437,0,0,1-3.386,3.215Z" transform="translate(-172.682 -114.205)" fill="#fff"/>
        <path id="Path_14202" data-name="Path 14202" d="M228.752,161.754l1.287-23.872a1.835,1.835,0,0,1,1.8-1.721h41.117a1.613,1.613,0,0,1,1.628,1.721L273.3,161.754a1.835,1.835,0,0,1-1.8,1.721H230.38a1.613,1.613,0,0,1-1.628-1.721Z" transform="translate(-183.967 -128.389)" fill="#407bff" opacity="0.2"/>
        <path id="Path_14203" data-name="Path 14203" d="M302.472,118.153h-2.4a1.389,1.389,0,0,1-1.371-1.089l-.492-2.2h6.319l-.552,2.1A1.586,1.586,0,0,1,302.472,118.153Z" transform="translate(-232.597 -113.477)" fill="#407bff"/>
        <path id="Path_14204" data-name="Path 14204" d="M307.438,118.516a.84.84,0,0,1-.828.786.738.738,0,0,1-.744-.786.84.84,0,0,1,.828-.786.735.735,0,0,1,.744.786Z" transform="translate(-237.956 -115.487)" fill="#fff" opacity="0.5"/>
        <path id="Path_14205" data-name="Path 14205" d="M282.831,283.861H262.51a.162.162,0,0,1-.162-.153l-.648-14.35a.165.165,0,0,1,.162-.168h23.162a.159.159,0,0,1,.123.057.153.153,0,0,1,.036.129l-2.192,14.35A.162.162,0,0,1,282.831,283.861Zm-20.169-.333h20.031l2.144-14.03H262.03Z" transform="translate(-207.036 -221.523)" fill="#407bff"/>
        <path id="Path_14206" data-name="Path 14206" d="M286.936,284.052H269.191a.162.162,0,1,1,0-.321h17.745a.543.543,0,0,0,.525-.462l2.684-17.811a.165.165,0,0,1,.159-.138h1.155a.162.162,0,1,1,0,.324h-1.017l-2.663,17.673A.858.858,0,0,1,286.936,284.052Z" transform="translate(-212.152 -218.814)" fill="#407bff"/>
        <path id="Path_14207" data-name="Path 14207" d="M270.395,330.054a1.581,1.581,0,0,1-1.592-1.682,1.778,1.778,0,0,1,1.754-1.661,1.578,1.578,0,0,1,1.589,1.679A1.778,1.778,0,0,1,270.395,330.054Zm.162-3.023a1.455,1.455,0,0,0-1.434,1.359,1.254,1.254,0,0,0,1.272,1.341,1.452,1.452,0,0,0,1.431-1.359,1.254,1.254,0,0,0-1.269-1.341Z" transform="translate(-212.006 -261.793)" fill="#407bff"/>
        <path id="Path_14208" data-name="Path 14208" d="M321.972,330.054a1.58,1.58,0,0,1-1.589-1.682,1.772,1.772,0,0,1,1.751-1.661,1.58,1.58,0,0,1,1.592,1.679h0A1.781,1.781,0,0,1,321.972,330.054Zm.162-3.023a1.449,1.449,0,0,0-1.431,1.359,1.254,1.254,0,0,0,1.269,1.341,1.455,1.455,0,0,0,1.434-1.359h0a1.254,1.254,0,0,0-1.272-1.341Z" transform="translate(-248.117 -261.793)" fill="#407bff"/>
        <path id="Path_14215" data-name="Path 14215" d="M248.359,229.15a.492.492,0,0,0,.408.6,81.216,81.216,0,0,0,11.129.867h18.717a.564.564,0,0,0,.555-.528l.1-1.919a.492.492,0,0,0-.537-.525,248.82,248.82,0,0,1-29.666.576.555.555,0,0,0-.54.348A3.752,3.752,0,0,0,248.359,229.15Z" transform="translate(-197.687 -192.436)" fill="#407bff"/>
        <g id="Group_8301" data-name="Group 8301" transform="translate(50.457 20.082)">
          <path id="Path_14209" data-name="Path 14209" d="M313.58,180.161a7.953,7.953,0,0,1,.693-2.951c1.155.984,2.255,2.147,2.255,2.147s6.766.513,7.926.96c-.246.828-.423,1.631-.423,1.631Z" transform="translate(-293.814 -177.21)" fill="#263238"/>
          <path id="Path_14210" data-name="Path 14210" d="M267.976,200.733a2.4,2.4,0,0,0-.192-.426,1.472,1.472,0,0,1-.246-.858,1.376,1.376,0,0,1,.6-.915,3.317,3.317,0,0,1,2.33-.636,3.509,3.509,0,0,1,1.563.567,1.766,1.766,0,0,1,.192-.981,1.694,1.694,0,0,1,1.67-.9,1.317,1.317,0,0,1,.639.282v-.144a1.562,1.562,0,0,1,.576-1.23,1.681,1.681,0,0,1,1.763.1l.147.075a4.742,4.742,0,0,1-.243-1.221,1.128,1.128,0,0,1,.432-1.023,2.043,2.043,0,0,1,1.736-.1,1.443,1.443,0,0,1,.192-.774,1.82,1.82,0,0,1,1.988-.786l-.081.3a1.5,1.5,0,0,0-1.629.639,1.119,1.119,0,0,0-.138.738,1,1,0,0,1,.639.927l-.018.216-.2-.081a1.2,1.2,0,0,1-.675-.75l-.027-.084h0a1.925,1.925,0,0,0-1.592,0,.816.816,0,0,0-.3.75,4.839,4.839,0,0,0,.255,1.227c.024.069.069.165.114.267s.084.177.12.264a.748.748,0,0,1,.084.378h-.321a.6.6,0,0,0-.057-.228,1.236,1.236,0,0,0-.561-.45c-.639-.318-1.107-.36-1.44-.129a1.314,1.314,0,0,0-.423,1,3.063,3.063,0,0,0,0,.525,1.23,1.23,0,0,1,.168.723l-.051.735-.258-.69a3.228,3.228,0,0,1-.168-.654,1.053,1.053,0,0,0-.72-.477,1.382,1.382,0,0,0-1.341.729,1.5,1.5,0,0,0-.093,1.122c.057.048.114.1.168.153a.36.36,0,0,1,.1.339.219.219,0,0,1-.171.159l-.1.021-.06-.084a1.759,1.759,0,0,1-.213-.4,3.233,3.233,0,0,0-1.7-.729,3.014,3.014,0,0,0-2.1.573,1.128,1.128,0,0,0-.486.693,1.248,1.248,0,0,0,.213.675,2.571,2.571,0,0,1,.216.489Z" transform="translate(-261.58 -187.362)" fill="#263238"/>
          <path id="Path_14211" data-name="Path 14211" d="M254,196.328c2.8-1.071,12.4-3.083,14-4.8a27.907,27.907,0,0,0,3.269-5.1.915.915,0,0,1,.96-.48l9.75,1.592a.918.918,0,0,1,.768.954l-.051.924.015,9.72-25.048.681Z" transform="translate(-252.102 -183.323)" fill="#407bff"/>
          <path id="Path_14212" data-name="Path 14212" d="M250.22,223.451a14.854,14.854,0,0,1,1.14-3.086c.429-.471,11.246.9,12.155,3.353A89.261,89.261,0,0,1,250.22,223.451Z" transform="translate(-249.457 -207.359)" fill="#263238"/>
          <path id="Path_14213" data-name="Path 14213" d="M279.42,206.1c-1.733-2.078-3.266-3.689-3.17-4.66s1.065-1.248,2.567-1.751,4.376-1.4,5.764-3.545,2.288-.771,2.7.2.936,3.494,9.057,1.14c-2.546,2.414-12.029,8.616-12.029,8.616Z" transform="translate(-267.676 -189.674)" fill="#263238"/>
          <path id="Path_14214" data-name="Path 14214" d="M300.58,208.642a7.369,7.369,0,0,1,3.212-5.212c2.912-1.8,11.031-3.1,11.666-4.31a10.547,10.547,0,0,1,.1,2.381s-7.5,3.017-7.477,7.477C304.065,208.981,300.58,208.642,300.58,208.642Z" transform="translate(-284.712 -192.55)" fill="#fff"/>
          <path id="Path_14216" data-name="Path 14216" d="M259.73,228.273c-3.065,0-6.232-.063-9.336-.228a.15.15,0,0,1-.144-.156.153.153,0,0,1,.159-.144,250.142,250.142,0,0,0,29.646-.576.15.15,0,1,1,.024.3C278.033,227.634,269.417,228.273,259.73,228.273Z" transform="translate(-249.477 -212.186)" fill="#fff"/>
          <path id="Path_14217" data-name="Path 14217" d="M278.143,234.217H259.426a82.447,82.447,0,0,1-11.159-.867.7.7,0,0,1-.468-.3.723.723,0,0,1-.108-.561l.393.084a.315.315,0,0,0,.045.246.3.3,0,0,0,.2.12,81.919,81.919,0,0,0,11.1.861H278.14a.36.36,0,0,0,.354-.333l.4.021A.768.768,0,0,1,278.143,234.217Z" transform="translate(-247.674 -215.913)" fill="#263238"/>
          <rect id="Rectangle_5749" data-name="Rectangle 5749" width="0.402" height="6.508" transform="translate(20.417 3.972) rotate(-64.69)" fill="#263238"/>
        </g>
        <g id="Group_8302" data-name="Group 8302" transform="matrix(0.921, -0.391, 0.391, 0.921, 0, 32.778)">
          <path id="Path_14209-2" data-name="Path 14209" d="M0,2.66A7.168,7.168,0,0,1,.624,0C1.665.887,2.657,1.935,2.657,1.935A62.224,62.224,0,0,1,9.8,2.8c-.222.746-.381,1.471-.381,1.471Z" transform="translate(17.816 0)" fill="#263238"/>
          <path id="Path_14210-2" data-name="Path 14210" d="M.4,8.134A2.166,2.166,0,0,0,.222,7.75,1.327,1.327,0,0,1,0,6.977a1.241,1.241,0,0,1,.541-.824,2.99,2.99,0,0,1,2.1-.573,3.163,3.163,0,0,1,1.408.511,1.592,1.592,0,0,1,.173-.884A1.527,1.527,0,0,1,5.728,4.4,1.187,1.187,0,0,1,6.3,4.65V4.52a1.408,1.408,0,0,1,.519-1.108,1.515,1.515,0,0,1,1.589.095l.132.068a4.274,4.274,0,0,1-.219-1.1,1.016,1.016,0,0,1,.389-.922,1.841,1.841,0,0,1,1.565-.095,1.3,1.3,0,0,1,.173-.7A1.641,1.641,0,0,1,12.246.052l-.073.27A1.352,1.352,0,0,0,10.705.9a1.009,1.009,0,0,0-.124.665.9.9,0,0,1,.576.835l-.016.195-.181-.073a1.081,1.081,0,0,1-.608-.676l-.024-.076h0a1.735,1.735,0,0,0-1.435,0,.735.735,0,0,0-.27.676,4.362,4.362,0,0,0,.23,1.106c.022.062.062.149.1.241s.076.159.108.238a.674.674,0,0,1,.076.341H8.848A.539.539,0,0,0,8.8,4.163a1.114,1.114,0,0,0-.506-.405c-.576-.287-1-.324-1.3-.116a1.184,1.184,0,0,0-.381.9,2.769,2.769,0,0,0,0,.473,1.108,1.108,0,0,1,.151.651l-.046.662L6.485,5.7a2.909,2.909,0,0,1-.151-.589.949.949,0,0,0-.649-.43,1.246,1.246,0,0,0-1.208.657,1.352,1.352,0,0,0-.084,1.011c.051.043.1.089.151.138a.324.324,0,0,1,.095.305.2.2,0,0,1-.154.143l-.092.019-.054-.076a1.587,1.587,0,0,1-.192-.36,2.914,2.914,0,0,0-1.535-.657A2.717,2.717,0,0,0,.72,6.382a1.017,1.017,0,0,0-.438.624,1.125,1.125,0,0,0,.192.608,2.318,2.318,0,0,1,.195.441Z" transform="translate(5.37 3.918)" fill="#263238"/>
          <path id="Path_14211-2" data-name="Path 14211" d="M0,9.364C2.527,8.4,11.177,6.585,12.621,5.039a25.152,25.152,0,0,0,2.946-4.6.825.825,0,0,1,.865-.432L25.22,1.446a.827.827,0,0,1,.692.86l-.046.833L25.88,11.9,3.3,12.513Z" transform="translate(1.711 2.358)" fill="#407bff"/>
          <path id="Path_14212-2" data-name="Path 14212" d="M0,2.864A13.388,13.388,0,0,1,1.027.083c.387-.424,10.137.811,10.956,3.022A80.457,80.457,0,0,1,0,2.864Z" transform="translate(0.688 11.64)" fill="#263238"/>
          <path id="Path_14213-2" data-name="Path 14213" d="M2.861,10C1.3,8.125-.083,6.674,0,5.8s.96-1.125,2.314-1.579,3.944-1.262,5.2-3.2,2.062-.695,2.433.181.843,3.149,8.163,1.027C15.815,4.408,7.267,10,7.267,10Z" transform="translate(7.724 4.811)" fill="#263238"/>
          <path id="Path_14214-2" data-name="Path 14214" d="M0,8.583a6.641,6.641,0,0,1,2.9-4.7C5.52,2.265,12.837,1.089,13.41,0A9.51,9.51,0,0,1,13.5,2.146S6.747,4.866,6.766,8.885C3.141,8.888,0,8.583,0,8.583Z" transform="translate(14.302 5.922)" fill="#fff"/>
          <path id="Path_14216-2" data-name="Path 14216" d="M8.545,1C5.782,1,2.928.938.13.79A.135.135,0,0,1,0,.649.138.138,0,0,1,.143.519,225.469,225.469,0,0,0,26.864,0a.136.136,0,0,1,.022.27C25.042.419,17.276,1,8.545,1Z" transform="translate(0.697 13.504)" fill="#fff"/>
          <path id="Path_14217-2" data-name="Path 14217" d="M27.463,1.557H10.593A74.311,74.311,0,0,1,.534.776.63.63,0,0,1,.112.506.652.652,0,0,1,.015,0L.369.076A.284.284,0,0,0,.41.3.27.27,0,0,0,.588.405a73.833,73.833,0,0,0,10,.776H27.46a.324.324,0,0,0,.319-.3L28.141.9A.692.692,0,0,1,27.463,1.557Z" transform="translate(0 14.942)" fill="#263238"/>
          <rect id="Rectangle_5749-2" data-name="Rectangle 5749" width="0.362" height="5.866" transform="translate(18.403 3.58) rotate(-64.69)" fill="#263238"/>
        </g>
        <path id="Path_14219" data-name="Path 14219" d="M280.79,366.721a10.991,10.991,0,0,1,3.6,3.392,18.181,18.181,0,0,1,5.329-5.893,10.8,10.8,0,0,0-5.227,3.983A6.868,6.868,0,0,0,280.79,366.721Z" transform="translate(-220.401 -288.053)" fill="#fff"/>
      </g>
    </g>
  </g>
</svg>
