<svg xmlns="http://www.w3.org/2000/svg" width="134.206" height="99.999" viewBox="0 0 134.206 99.999">
  <g id="Worried-rafiki" transform="translate(0 -55)">
    <g id="freepik--background-complete--inject-365" transform="translate(0 55)">
      <rect id="Rectangle_6077" data-name="Rectangle 6077" width="134.206" height="0.067" transform="translate(0 87.878)" fill="#ebebeb"/>
      <rect id="Rectangle_6078" data-name="Rectangle 6078" width="8.89" height="0.067" transform="translate(111.868 92.197)" fill="#ebebeb"/>
      <rect id="Rectangle_6079" data-name="Rectangle 6079" width="3.46" height="0.067" transform="translate(69.875 91.356)" fill="#ebebeb"/>
      <rect id="Rectangle_6080" data-name="Rectangle 6080" width="7.285" height="0.067" transform="translate(86.571 91.641)" fill="#ebebeb"/>
      <rect id="Rectangle_6081" data-name="Rectangle 6081" width="15.061" height="0.067" transform="translate(96.539 89.706)" fill="#ebebeb"/>
      <rect id="Rectangle_6082" data-name="Rectangle 6082" width="7.121" height="0.067" transform="translate(14.081 92.811)" fill="#ebebeb"/>
      <rect id="Rectangle_6083" data-name="Rectangle 6083" width="6.173" height="0.067" transform="translate(23.591 92.811)" fill="#ebebeb"/>
      <rect id="Rectangle_6084" data-name="Rectangle 6084" width="16.322" height="0.067" transform="translate(35.162 91.324)" fill="#ebebeb"/>
      <path id="Path_15770" data-name="Path 15770" d="M91.567,130.907H39.74a1.533,1.533,0,0,1-1.53-1.533V56.519A1.533,1.533,0,0,1,39.74,55H91.567A1.533,1.533,0,0,1,93.1,56.533v72.841A1.533,1.533,0,0,1,91.567,130.907ZM39.74,55.054a1.466,1.466,0,0,0-1.463,1.466v72.855a1.466,1.466,0,0,0,1.463,1.466H91.567a1.468,1.468,0,0,0,1.466-1.466V56.519a1.468,1.468,0,0,0-1.466-1.466Z" transform="translate(-27.954 -55)" fill="#ebebeb"/>
      <path id="Path_15771" data-name="Path 15771" d="M307.863,130.907h-51.83a1.535,1.535,0,0,1-1.533-1.533V56.519A1.535,1.535,0,0,1,256.033,55h51.83a1.533,1.533,0,0,1,1.527,1.519v72.855A1.533,1.533,0,0,1,307.863,130.907Zm-51.83-75.853a1.468,1.468,0,0,0-1.466,1.466v72.855a1.468,1.468,0,0,0,1.466,1.466h51.83a1.468,1.468,0,0,0,1.466-1.466V56.519a1.468,1.468,0,0,0-1.466-1.466Z" transform="translate(-186.189 -55)" fill="#ebebeb"/>
      <path id="Path_15772" data-name="Path 15772" d="M61.151,154.574h0a1.294,1.294,0,0,1-1.291-1.291V94.068a1.294,1.294,0,0,1,1.291-1.288h0a1.291,1.291,0,0,1,1.288,1.288v59.214A1.294,1.294,0,0,1,61.151,154.574Z" transform="translate(-43.793 -82.639)" fill="#f0f0f0"/>
      <path id="Path_15773" data-name="Path 15773" d="M81.151,154.574h0a1.294,1.294,0,0,1-1.291-1.291V94.068a1.294,1.294,0,0,1,1.291-1.288h0a1.291,1.291,0,0,1,1.288,1.288v59.214A1.294,1.294,0,0,1,81.151,154.574Z" transform="translate(-58.425 -82.639)" fill="#f0f0f0"/>
      <path id="Path_15774" data-name="Path 15774" d="M411.818,154.574h0a1.294,1.294,0,0,1-1.288-1.291V94.068a1.291,1.291,0,0,1,1.288-1.288h0a1.294,1.294,0,0,1,1.291,1.288v59.214A1.294,1.294,0,0,1,411.818,154.574Z" transform="translate(-300.339 -82.639)" fill="#f0f0f0"/>
      <path id="Path_15775" data-name="Path 15775" d="M431.818,154.574h0a1.294,1.294,0,0,1-1.288-1.291V94.068a1.291,1.291,0,0,1,1.288-1.288h0a1.294,1.294,0,0,1,1.291,1.288v59.214A1.294,1.294,0,0,1,431.818,154.574Z" transform="translate(-314.971 -82.639)" fill="#f0f0f0"/>
      <rect id="Rectangle_6085" data-name="Rectangle 6085" width="0.765" height="5.1" rx="0.382" transform="translate(21.435 80.808)" fill="#f0f0f0"/>
      <rect id="Rectangle_6086" data-name="Rectangle 6086" width="0.765" height="5.1" rx="0.382" transform="translate(22.748 80.808)" fill="#f0f0f0"/>
      <rect id="Rectangle_6087" data-name="Rectangle 6087" width="0.765" height="5.1" rx="0.382" transform="translate(24.058 80.808)" fill="#f0f0f0"/>
      <rect id="Rectangle_6088" data-name="Rectangle 6088" width="0.765" height="5.1" rx="0.382" transform="translate(25.37 80.808)" fill="#f0f0f0"/>
      <rect id="Rectangle_6089" data-name="Rectangle 6089" width="0.765" height="5.1" rx="0.382" transform="translate(26.683 80.808)" fill="#f0f0f0"/>
      <rect id="Rectangle_6090" data-name="Rectangle 6090" width="0.765" height="5.1" rx="0.382" transform="translate(27.993 80.808)" fill="#f0f0f0"/>
      <rect id="Rectangle_6091" data-name="Rectangle 6091" width="0.765" height="5.1" rx="0.382" transform="translate(29.305 80.808)" fill="#f0f0f0"/>
      <rect id="Rectangle_6092" data-name="Rectangle 6092" width="0.765" height="5.1" rx="0.382" transform="translate(57.314 80.808)" fill="#f0f0f0"/>
      <rect id="Rectangle_6093" data-name="Rectangle 6093" width="0.765" height="5.1" rx="0.382" transform="translate(58.626 80.808)" fill="#f0f0f0"/>
      <rect id="Rectangle_6094" data-name="Rectangle 6094" width="0.765" height="5.1" rx="0.382" transform="translate(59.939 80.808)" fill="#f0f0f0"/>
      <rect id="Rectangle_6095" data-name="Rectangle 6095" width="0.765" height="5.1" rx="0.382" transform="translate(61.249 80.808)" fill="#f0f0f0"/>
      <rect id="Rectangle_6096" data-name="Rectangle 6096" width="0.765" height="5.1" rx="0.382" transform="translate(62.561 80.808)" fill="#f0f0f0"/>
      <rect id="Rectangle_6097" data-name="Rectangle 6097" width="0.765" height="5.1" rx="0.382" transform="translate(63.874 80.808)" fill="#f0f0f0"/>
      <rect id="Rectangle_6098" data-name="Rectangle 6098" width="0.765" height="5.1" rx="0.382" transform="translate(65.184 80.808)" fill="#f0f0f0"/>
      <path id="Path_15776" data-name="Path 15776" d="M285.852,357.233c0-2.147-.617-3.9-1.38-3.9s-1.382,1.747-1.382,3.9.617,3.9,1.382,3.9S285.852,359.385,285.852,357.233Z" transform="translate(-207.105 -273.255)" fill="#ebebeb"/>
      <path id="Path_15777" data-name="Path 15777" d="M331.164,353.33H288.24c.762,0,1.38,1.747,1.38,3.9s-.617,3.9-1.38,3.9h42.924c.762,0,1.382-1.747,1.382-3.9S331.927,353.33,331.164,353.33Z" transform="translate(-210.873 -273.255)" fill="#f5f5f5"/>
    </g>
    <g id="freepik--Shadow--inject-365" transform="translate(15.061 148.922)">
      <ellipse id="freepik--path--inject-365" cx="52.042" cy="3.038" rx="52.042" ry="3.038" fill="#f5f5f5"/>
    </g>
    <g id="freepik--Window--inject-365" transform="translate(28.167 58.43)">
      <rect id="Rectangle_6102" data-name="Rectangle 6102" width="77.064" height="2.349" rx="1.174" transform="translate(0.805 42.296)" fill="#263238" opacity="0.17"/>
      <path id="Path_15778" data-name="Path 15778" d="M146.706,95.888a4.4,4.4,0,0,1,2.883-1.879,6.685,6.685,0,0,1,4.5-2.131,5.707,5.707,0,0,1,1.492.07,9.336,9.336,0,0,1,5.854-2.582c2.282-.177,4.01.521,4.611,1.683a7.6,7.6,0,0,1,1.178-.191c1.755-.137,3.071.435,3.449,1.364a5.659,5.659,0,0,1,1.879-.483c1.782-.137,2.971.684,2.652,1.836a2.072,2.072,0,0,1-.424.765c2.55.233,4.622.87,3.347,1.653h0l-35.46,2.762h0C141.719,97.093,144.4,96.307,146.706,95.888Z" transform="translate(-132.4 -83.552)" fill="#fff"/>
      <circle id="Ellipse_1468" data-name="Ellipse 1468" cx="3.216" cy="3.216" r="3.216" transform="translate(52.839 19.057) rotate(-80.78)" fill="#407bff" opacity="0.3"/>
      <path id="Path_15779" data-name="Path 15779" d="M300.21,131.669a.894.894,0,0,1,.024-.354,3.237,3.237,0,0,1,3.25-1.535,4.743,4.743,0,0,1,2.953-1.3,3.387,3.387,0,0,1,1.586.212,5.739,5.739,0,0,1,3.017-1.138c1.879-.145,3.114.717,2.778,1.924a.257.257,0,0,1-.024.073c-.008.024.056,0,.086,0,.9-.073,1.508.346,1.342.929a1.189,1.189,0,0,1-.352.537c.95.156,1.559.429,1.031.754h0l-17.984,1.4h0C297.413,132.262,299,131.87,300.21,131.669Z" transform="translate(-246.05 -111.5)" fill="#fff"/>
      <path id="Path_15780" data-name="Path 15780" d="M250.659,109.271H239.08L251.126,67.78h11.579Z" transform="translate(-203.075 -67.78)" fill="#fff" opacity="0.6"/>
      <path id="Path_15781" data-name="Path 15781" d="M220.12,109.271h-4.55L227.616,67.78h4.55Z" transform="translate(-185.876 -67.78)" fill="#fff" opacity="0.6"/>
      <path id="Path_15782" data-name="Path 15782" d="M139.79,109.271h-4.55L147.284,67.78h4.55Z" transform="translate(-127.107 -67.78)" fill="#fff" opacity="0.6"/>
      <path id="Path_15783" data-name="Path 15783" d="M186.4,167.515V177.3a2.416,2.416,0,0,1-2.416,2.416H113.356a2.416,2.416,0,0,1-2.416-2.416v-8.876c5.4-1.879,8.208,5.591,28.72,2.319,17.388-2.775,22.163-10.736,31.836-4.091C177,170.436,186.4,167.515,186.4,167.515Z" transform="translate(-109.33 -138.226)" fill="#407bff" opacity="0.2"/>
      <rect id="Rectangle_6106" data-name="Rectangle 6106" width="77.869" height="18.252" rx="9.126" transform="translate(0 56.366)" fill="#fff"/>
      <rect id="Rectangle_6107" data-name="Rectangle 6107" width="77.869" height="18.252" rx="9.126" transform="translate(0 56.366)" fill="#407bff" opacity="0.2"/>
    </g>
    <g id="freepik--Character--inject-365" transform="translate(45.786 76.816)">
      <path id="Path_15784" data-name="Path 15784" d="M328.613,348.411h-1.7L323.72,324.67h1.7Z" transform="translate(-282.616 -274.103)" fill="#407bff"/>
      <path id="Path_15785" data-name="Path 15785" d="M227.48,343.531h1.688L232.6,318h-1.688Z" transform="translate(-212.208 -269.224)" fill="#407bff"/>
      <path id="Path_15786" data-name="Path 15786" d="M234.7,230.194h0a3.048,3.048,0,0,0,1.7.628l20.992,1.1a5.712,5.712,0,0,0,6-5.462l1.049-25.113a5.6,5.6,0,0,0-5.6-5.838h-6.67a4.088,4.088,0,0,0-4.088,3.948l-.805,23.379-11.255,1.973a3.033,3.033,0,0,0-1.323,5.384Z" transform="translate(-216.632 -179.611)" fill="#407bff"/>
      <path id="Path_15787" data-name="Path 15787" d="M234.7,230.194h0a3.048,3.048,0,0,0,1.7.628l20.992,1.1a5.712,5.712,0,0,0,6-5.462l1.049-25.113a5.6,5.6,0,0,0-5.6-5.838h-6.67a4.088,4.088,0,0,0-4.088,3.948l-.805,23.379-11.255,1.973a3.033,3.033,0,0,0-1.323,5.384Z" transform="translate(-216.632 -179.611)" fill="#fff" opacity="0.4"/>
      <path id="Path_15788" data-name="Path 15788" d="M226.815,139.81a16.317,16.317,0,0,0-2.416,11.155c.537,4.227,5.451,6.208,9.684,5.1s7.129-3.774,6.828-7.532S237.4,143,237.366,140.2s-2.987-3.938-4.12-3.221C231.856,135.129,228.409,137.239,226.815,139.81Z" transform="translate(-209.831 -136.277)" fill="#263238"/>
      <path id="Path_15789" data-name="Path 15789" d="M263.981,166.72a.136.136,0,1,1-.043-.268c4.388-1.506,6.694-4.448,6.173-7.867a9.4,9.4,0,0,0-2.3-4.477,6.969,6.969,0,0,1-1.849-3.583.137.137,0,0,1,.123-.145.134.134,0,0,1,.145.123,6.762,6.762,0,0,0,1.79,3.438,9.766,9.766,0,0,1,2.357,4.6c.553,3.559-1.82,6.611-6.342,8.162Z" transform="translate(-238.797 -146.593)" fill="#263238"/>
      <path id="Path_15790" data-name="Path 15790" d="M230.777,191.626c-.456.161-.859.29-1.288.416s-.851.239-1.278.352c-.859.212-1.726.405-2.612.537a22.348,22.348,0,0,1-2.727.3,12.525,12.525,0,0,1-2.974-.169l-.123-.024a1.747,1.747,0,0,1-1.409-1.471,5.447,5.447,0,0,1,.054-1.828,10.377,10.377,0,0,1,.384-1.439,18.5,18.5,0,0,1,1.074-2.485c.405-.781.84-1.53,1.3-2.255s.948-1.425,1.492-2.118a1.028,1.028,0,0,1,1.764,1.009v.03c-.293.746-.6,1.516-.891,2.271s-.564,1.517-.805,2.271a20.579,20.579,0,0,0-.612,2.206,7.091,7.091,0,0,0-.145,1,2.1,2.1,0,0,0,.04.66l-1.535-1.5a10.714,10.714,0,0,0,2.078-.078c.746-.091,1.514-.231,2.287-.395s1.549-.352,2.324-.561l1.165-.319,1.13-.327.059-.019a2.056,2.056,0,1,1,1.253,3.916Z" transform="translate(-205.502 -169.039)" fill="#ffb573"/>
      <path id="Path_15791" data-name="Path 15791" d="M232.652,169.614l-.483.741a1.028,1.028,0,0,0-.1.937l.564,1.452a1.914,1.914,0,0,0,1.321,1.165l.373.094a6.542,6.542,0,0,0,.985-3.095l.089-.537a.851.851,0,0,0-.687-1l-1.074-.191A.993.993,0,0,0,232.652,169.614Z" transform="translate(-215.515 -160.337)" fill="#ffb573"/>
      <path id="Path_15792" data-name="Path 15792" d="M237.257,169.336l-1.074-.191a.953.953,0,0,0-.7.161,11.515,11.515,0,0,0,1.8,3.994,7.387,7.387,0,0,0,.585-2.416l.089-.537a.854.854,0,0,0-.693-1.012Z" transform="translate(-218.061 -160.314)" opacity="0.2"/>
      <path id="Path_15793" data-name="Path 15793" d="M171.4,402.618c2.5.25,4.077.37,5.489.462,1.208.078,1.482.268,2.451.333.805.064.856-.714.7-1.629-.081-.459-.18-1.423-.268-2.163l-3.65-.62c-.615.934-3.159,2.1-4.587,2.147C170.172,401.18,170.405,402.519,171.4,402.618Z" transform="translate(-170.583 -328.482)" fill="#263238"/>
      <path id="Path_15794" data-name="Path 15794" d="M194.824,270.994c5.1-4.007,18.81-5.078,18.81-5.078l5.468-.886s2.969,5.986,1.09,10.369c-1.61,3.736-11.33,2.577-19.422,2.147,1.213,4.482-6.232,23.918-6.232,23.918a5.631,5.631,0,0,1-3.567-.558c.373-6.375,2.069-14.959,2.075-25.572A5.292,5.292,0,0,1,194.824,270.994Z" transform="translate(-185.498 -230.471)" fill="#676767"/>
      <path id="Path_15795" data-name="Path 15795" d="M226.565,299.194l-1.879-4.754c-.77.454-2.757,5.69-.9,10.114a14.132,14.132,0,0,0,.435-5.5C224.987,299.1,225.774,299.153,226.565,299.194Z" transform="translate(-208.943 -251.987)"/>
      <path id="Path_15796" data-name="Path 15796" d="M188.651,388.279a17.509,17.509,0,0,1-.29,2.472c-.1.282-.075.69.123.679,1.436-.075,3.565.709,4.33.625a.475.475,0,0,0,.338-.384l.617-2.284c.083-.311-.032-.623-.242-.652l-4.442-.875C188.909,387.828,188.719,388.008,188.651,388.279Z" transform="translate(-183.547 -320.33)" fill="#407bff"/>
      <path id="Path_15797" data-name="Path 15797" d="M247.634,196.31c1.814,6.842,4.026,9.588-7.443,9.33-1.436-1.165-1.831-5.588-1.831-5.588C242.2,198.7,245.39,196.782,247.634,196.31Z" transform="translate(-220.168 -180.197)" fill="#0a53f6"/>
      <path id="Path_15798" data-name="Path 15798" d="M256.246,197.271a41.158,41.158,0,0,0,2.9,4.716c1.3,1.581.373,4.665.9,6.525,3.1.9,13.646-.523,14.177-2.171.684-.491-.094-8.788-2.8-17.313-1.1-3.473-3.637-4.831-6.112-3.967a10.274,10.274,0,0,0-1.508.786,43.167,43.167,0,0,0-5.237,3.25c-.537.405-1.074.843-1.611,1.27C255.1,191.916,255.054,195.2,256.246,197.271Z" transform="translate(-232.664 -171.782)" fill="#0a53f6"/>
      <path id="Path_15799" data-name="Path 15799" d="M281.62,231.17a15.241,15.241,0,0,0,6.681.805C285.78,233.073,283.775,232.558,281.62,231.17Z" transform="translate(-251.817 -205.7)" opacity="0.2"/>
      <path id="Path_15800" data-name="Path 15800" d="M266.9,167.55c.59,1.967,1.949,5.4,3.742,5.849,0,0-1.745.752-3.833,4.952-1.857-.805-1.406-1.7-1.406-1.7,1.635-1.635.824-3.063-.217-4.23Z" transform="translate(-239.789 -159.156)" fill="#ffb573"/>
      <path id="Path_15801" data-name="Path 15801" d="M272.91,192.287c1.213-.537,2.609.934,2.609.934s1.506-3.562,1.525-5.425a13.054,13.054,0,0,1-1.366-.016S273.16,191.237,272.91,192.287Z" transform="translate(-245.444 -173.956)" fill="#fff"/>
      <path id="Path_15802" data-name="Path 15802" d="M264.053,198.793a2.21,2.21,0,0,0-.9,2.147c-1.675-2.55,0-4.252,0-4.252a1.879,1.879,0,0,1,1.1-.668A7.559,7.559,0,0,0,264.053,198.793Z" transform="translate(-237.76 -179.984)" fill="#fff"/>
      <path id="Path_15803" data-name="Path 15803" d="M266.227,175l-1.017,2.88a6.237,6.237,0,0,1,.671.872,2.56,2.56,0,0,0,.346-3.752Z" transform="translate(-239.811 -164.606)" opacity="0.2"/>
      <path id="Path_15804" data-name="Path 15804" d="M243.687,146.965c1.637,2.816,2.389,3.97,2.013,6.329-.569,3.546-4.227,5.1-6.635,2.856-2.169-2.01-4.485-6.278-2.684-9.239A4.178,4.178,0,0,1,243.687,146.965Z" transform="translate(-218.248 -142.503)" fill="#ffb573"/>
      <path id="Path_15805" data-name="Path 15805" d="M238.958,142.49c2.1,2.281-3.409,4.053-5.188,6.173a.572.572,0,0,1-1.007-.354C232.672,145.5,235.241,142.036,238.958,142.49Z" transform="translate(-216.072 -140.793)" fill="#263238"/>
      <path id="Path_15806" data-name="Path 15806" d="M254.3,142.862c-1.178,1.9.309,4.4,3.725,4.563C258.962,143.908,256,141.834,254.3,142.862Z" transform="translate(-231.539 -140.902)" fill="#263238"/>
      <path id="Path_15807" data-name="Path 15807" d="M256.214,149.754a2.8,2.8,0,0,1-2.738-1.444,2.147,2.147,0,0,1,.362-2.51l.185.2a1.922,1.922,0,0,0-.309,2.2c.242.489,1.055,1.586,3.385,1.221l.043.268A5.931,5.931,0,0,1,256.214,149.754Z" transform="translate(-231.043 -143.244)" fill="#263238"/>
      <path id="Path_15808" data-name="Path 15808" d="M251.709,165.679c.148.231.156.5.016.607s-.373,0-.521-.231-.156-.5-.016-.6S251.561,165.448,251.709,165.679Z" transform="translate(-229.48 -157.591)" fill="#263238"/>
      <path id="Path_15809" data-name="Path 15809" d="M241.309,172.9c.148.231.156.5.016.607s-.373,0-.521-.231-.156-.5-.016-.6S241.172,172.668,241.309,172.9Z" transform="translate(-221.871 -162.873)" fill="#263238"/>
      <path id="Path_15810" data-name="Path 15810" d="M239.685,172.65l-.615.223S239.609,173.109,239.685,172.65Z" transform="translate(-220.687 -162.887)" fill="#263238"/>
      <path id="Path_15811" data-name="Path 15811" d="M247.34,173.22a8.053,8.053,0,0,1,.182,2.037,1.089,1.089,0,0,0,.862-.413Z" transform="translate(-226.738 -163.304)" fill="#ed893e"/>
      <path id="Path_15812" data-name="Path 15812" d="M254.141,173.931a2.541,2.541,0,0,1,.387-.234.07.07,0,0,1,.1.04.083.083,0,0,1-.04.107,2.263,2.263,0,0,0-1.219,1.546.076.076,0,1,1-.15-.024A2.386,2.386,0,0,1,254.141,173.931Z" transform="translate(-231.037 -163.648)" fill="#263238"/>
      <path id="Path_15813" data-name="Path 15813" d="M267.7,155.344a2.6,2.6,0,0,1-.574,1.914c-.574.674-1.363.193-1.624-.679-.233-.784-.217-2.08.564-2.416A1.234,1.234,0,0,1,267.7,155.344Z" transform="translate(-239.929 -149.296)" fill="#ffb573"/>
      <path id="Path_15814" data-name="Path 15814" d="M248.4,160.6a.137.137,0,0,1,.121-.019,1.181,1.181,0,0,0,1.074-.223.148.148,0,0,1,.217,0,.174.174,0,0,1-.016.231,1.457,1.457,0,0,1-1.372.3.161.161,0,0,1-.1-.2A.169.169,0,0,1,248.4,160.6Z" transform="translate(-227.449 -153.861)" fill="#263238"/>
      <path id="Path_15815" data-name="Path 15815" d="M237.542,168.936a.145.145,0,0,1,.115-.019.158.158,0,0,1,.1.2,1.675,1.675,0,0,1-.945,1.143.148.148,0,0,1-.193-.1.169.169,0,0,1,.1-.207,1.342,1.342,0,0,0,.741-.913A.158.158,0,0,1,237.542,168.936Z" transform="translate(-218.891 -160.153)" fill="#263238"/>
      <path id="Path_15816" data-name="Path 15816" d="M250.045,165.43l-.615.223S249.972,165.889,250.045,165.43Z" transform="translate(-228.267 -157.605)" fill="#263238"/>
      <path id="Path_15817" data-name="Path 15817" d="M261.178,266.47l.553-.848a1.184,1.184,0,0,1,.939-.537l1.78-.07a2.2,2.2,0,0,1,1.828.854l.268.349a7.481,7.481,0,0,1-2.8,2.448l-.537.341a.98.98,0,0,1-1.369-.268l-.687-1.044A1.127,1.127,0,0,1,261.178,266.47Z" transform="translate(-236.721 -230.459)" fill="#ffb573"/>
      <path id="Path_15818" data-name="Path 15818" d="M282.793,200.412c.054.268.091.459.132.684s.072.435.1.65c.067.435.115.867.164,1.3.089.867.145,1.737.161,2.609v1.313c0,.438-.027.878-.059,1.318a25.252,25.252,0,0,1-.3,2.641l-.016.113a1.433,1.433,0,0,1-.073.268,4.423,4.423,0,0,1-.644,1.13,6.865,6.865,0,0,1-.671.743,13.394,13.394,0,0,1-1.342,1.119,27.222,27.222,0,0,1-2.714,1.731c-.918.515-1.844.99-2.783,1.433s-1.879.856-2.864,1.229a1.025,1.025,0,0,1-.942-1.8h.016c.805-.561,1.656-1.13,2.472-1.7s1.629-1.149,2.416-1.739,1.543-1.2,2.23-1.812a10.129,10.129,0,0,0,.913-.926,4.342,4.342,0,0,0,.314-.416c.081-.121.107-.22.091-.2l-.089.384c.043-.765.072-1.53.062-2.306s-.038-1.551-.094-2.333-.121-1.559-.215-2.338c-.043-.389-.1-.778-.145-1.162l-.083-.574-.081-.537-.013-.083a2.056,2.056,0,1,1,4.048-.725Z" transform="translate(-243.683 -181.966)" fill="#ffb573"/>
      <path id="Path_15819" data-name="Path 15819" d="M296.229,184.83c3.379.166,4.442,2.464,5.924,7.024-3.122,3.25-5.328,3.64-5.328,3.64S294.19,187.648,296.229,184.83Z" transform="translate(-261.938 -171.798)" fill="#0a53f6"/>
      <path id="Path_15820" data-name="Path 15820" d="M234.422,404.313c2.515,0,4.093-.038,5.505-.086,1.211-.043,1.5.107,2.472.086.805-.016.784-.805.537-1.691-.123-.448-.317-1.4-.491-2.123l-3.685-.268c-.518.991-2.934,2.4-4.351,2.593C233.05,403,233.418,404.313,234.422,404.313Z" transform="translate(-216.63 -329.382)" fill="#263238"/>
      <path id="Path_15821" data-name="Path 15821" d="M227.108,270.994c3.291-2.483,13.818-4.488,17.474-4.705s7.126-.641,7.583-1.259c0,0,2.19,5.986.311,10.369-1.61,3.736-10.221,2.9-18.324,2.794a151.319,151.319,0,0,1,2.354,23.193c-1.16.362-3.3.6-3.884.268.376-6.375-5.98-15.788-7.29-26.318A4.684,4.684,0,0,1,227.108,270.994Z" transform="translate(-210.605 -230.471)" fill="#676767"/>
      <path id="Path_15822" data-name="Path 15822" d="M249.886,390.259a18.285,18.285,0,0,1,.207,2.483.537.537,0,0,0,.268.625,8.861,8.861,0,0,0,4.354-.231.475.475,0,0,0,.255-.446l.15-2.359c.021-.325-.153-.607-.362-.593l-4.531.027C250.05,389.766,249.9,389.983,249.886,390.259Z" transform="translate(-228.599 -321.707)" fill="#407bff"/>
    </g>
    <g id="freepik--Bag--inject-365" transform="translate(83.466 135.361)">
      <path id="Path_15823" data-name="Path 15823" d="M312.226,388.836c5.918,0,15.568.3,19.326-.239s-2.386-7.457-2.327-9.424-16.794-1.793-16.582.059C313,382.335,309.005,388.836,312.226,388.836Z" transform="translate(-310.963 -371.495)" fill="#263238"/>
      <path id="Path_15824" data-name="Path 15824" d="M335.438,362.073c-.016-.059-1.841-5.991-5.977-6.979a5.038,5.038,0,0,0-4.456,1.036,7.54,7.54,0,0,0-2.641,5.854l-.537.013a8.093,8.093,0,0,1,2.842-6.286,5.537,5.537,0,0,1,4.915-1.154c4.44,1.052,6.292,7.083,6.369,7.341Z" transform="translate(-318.91 -354.395)" fill="#263238"/>
      <path id="Path_15825" data-name="Path 15825" d="M348.2,384.81l-2.759.043a.83.83,0,0,1-.805-.7h0a.628.628,0,0,1,.628-.722l2.759-.04a.824.824,0,0,1,.805.7h0a.625.625,0,0,1-.628.722Z" transform="translate(-335.589 -375.608)" fill="#fff"/>
    </g>
  </g>
</svg>
