<svg xmlns="http://www.w3.org/2000/svg" width="142.186" height="98.523" viewBox="0 0 142.186 98.523">
  <g id="Group_8335" data-name="Group 8335" transform="translate(-808 -290)">
    <g id="Closed_Stores-rafiki" data-name="Closed Stores-rafiki" transform="translate(808 235)">
      <g id="freepik--background-complete--inject-52" transform="translate(0 55)" opacity="0.79">
        <rect id="Rectangle_5750" data-name="Rectangle 5750" width="142.186" height="0.071" transform="translate(0 93.103)" fill="#ebebeb"/>
        <rect id="Rectangle_5751" data-name="Rectangle 5751" width="2.471" height="0.071" transform="translate(91.718 98.452)" fill="#ebebeb"/>
        <rect id="Rectangle_5752" data-name="Rectangle 5752" width="6.592" height="0.071" transform="translate(42.667 94.917)" fill="#ebebeb"/>
        <rect id="Rectangle_5753" data-name="Rectangle 5753" width="16.115" height="0.071" transform="translate(114.346 96.442)" fill="#ebebeb"/>
        <rect id="Rectangle_5754" data-name="Rectangle 5754" width="16.115" height="0.071" transform="translate(12.148 96.442)" fill="#ebebeb"/>
        <path id="Path_14220" data-name="Path 14220" d="M94.74,135.42H39.831A1.624,1.624,0,0,1,38.21,133.8V56.61A1.624,1.624,0,0,1,39.831,55H94.74a1.624,1.624,0,0,1,1.624,1.624V133.8A1.624,1.624,0,0,1,94.74,135.42ZM39.831,55.057a1.553,1.553,0,0,0-1.55,1.553V133.8a1.553,1.553,0,0,0,1.55,1.553H94.74a1.556,1.556,0,0,0,1.553-1.553V56.61a1.556,1.556,0,0,0-1.553-1.553Z" transform="translate(-27.344 -55)" fill="#ebebeb"/>
        <path id="Path_14221" data-name="Path 14221" d="M311.036,135.42H256.124A1.627,1.627,0,0,1,254.5,133.8V56.61A1.627,1.627,0,0,1,256.124,55h54.912a1.624,1.624,0,0,1,1.618,1.61V133.8A1.624,1.624,0,0,1,311.036,135.42ZM256.124,55.057a1.556,1.556,0,0,0-1.553,1.553V133.8a1.556,1.556,0,0,0,1.553,1.553h54.912a1.556,1.556,0,0,0,1.553-1.553V56.61a1.556,1.556,0,0,0-1.553-1.553Z" transform="translate(-182.128 -55)" fill="#ebebeb"/>
        <path id="Path_14222" data-name="Path 14222" d="M360.339,69.951a3.3,3.3,0,0,0-2.844-3.569,3.181,3.181,0,0,0-2.733-1.322A6.136,6.136,0,0,0,349.829,68a5.54,5.54,0,0,0-3.72,2.275,1.88,1.88,0,0,0-.6-.091,3.04,3.04,0,0,0-2.724,2.138,2.011,2.011,0,0,0-.063.87h18.535a3.082,3.082,0,0,0,.409-.87A1.769,1.769,0,0,0,360.339,69.951Z" transform="translate(-245.249 -62.199)" fill="#f5f5f5"/>
        <path id="Path_14223" data-name="Path 14223" d="M66.58,89.3a2.844,2.844,0,0,0-2.465-3.088,2.75,2.75,0,0,0-2.363-1.137,5.285,5.285,0,0,0-4.266,2.559,4.8,4.8,0,0,0-3.216,1.991,1.661,1.661,0,0,0-.518-.08,2.633,2.633,0,0,0-2.366,1.84,1.72,1.72,0,0,0-.054.751H67.368a2.633,2.633,0,0,0,.355-.751A1.526,1.526,0,0,0,66.58,89.3Z" transform="translate(-36.721 -76.518)" fill="#f5f5f5"/>
        <path id="Path_14224" data-name="Path 14224" d="M185.44,86.461a6.407,6.407,0,0,0-1.934.31,7.092,7.092,0,0,0-4.493-1.652C178.04,82.053,175.268,80,171.429,80a14.508,14.508,0,0,0-10.152,4.732c-.216-.02-.435-.028-.663-.028-4.428,0-9.037,3.589-10.3,8.016a8.141,8.141,0,0,0-.3,1.723h38.333a7.419,7.419,0,0,0,1.137-2.306C190.388,89,188.576,86.461,185.44,86.461Z" transform="translate(-107.351 -72.891)" fill="#fafafa"/>
        <rect id="Rectangle_5755" data-name="Rectangle 5755" width="13.465" height="25.155" transform="translate(14.597 67.945)" fill="#e0e0e0"/>
        <rect id="Rectangle_5756" data-name="Rectangle 5756" width="10.337" height="5.821" transform="translate(16.161 62.471)" fill="#e0e0e0"/>
        <rect id="Rectangle_5757" data-name="Rectangle 5757" width="11.787" height="0.904" transform="translate(15.436 62.087)" fill="#e0e0e0"/>
        <path id="Path_14225" data-name="Path 14225" d="M378.7,242.58l16.894,5.727v34.034H378.7Z" transform="translate(-271.009 -189.238)" fill="#e0e0e0"/>
        <path id="Path_14226" data-name="Path 14226" d="M390.07,222.28l10.428,3.538v21.006H390.07Z" transform="translate(-279.145 -174.71)" fill="#e0e0e0"/>
        <rect id="Rectangle_5758" data-name="Rectangle 5758" width="43.381" height="48.289" transform="translate(73.754 44.851)" fill="#f5f5f5"/>
        <rect id="Rectangle_5759" data-name="Rectangle 5759" width="49.466" height="2.906" transform="translate(70.715 42.764)" fill="#f5f5f5"/>
        <rect id="Rectangle_5760" data-name="Rectangle 5760" width="45.514" height="2.906" transform="translate(72.688 58.43)" fill="#f5f5f5"/>
        <rect id="Rectangle_5761" data-name="Rectangle 5761" width="45.514" height="2.906" transform="translate(72.688 73.632)" fill="#f5f5f5"/>
        <path id="Path_14227" data-name="Path 14227" d="M196.92,149.96l23.554,9.524v56.576H196.92Z" transform="translate(-140.922 -122.956)" fill="#ebebeb"/>
        <path id="Path_14228" data-name="Path 14228" d="M212.77,116.22l14.54,5.878v34.924H212.77Z" transform="translate(-152.264 -98.811)" fill="#ebebeb"/>
        <path id="Path_14229" data-name="Path 14229" d="M227.34,95.76l1.055.427v12.441H227.34Z" transform="translate(-162.691 -84.169)" fill="#ebebeb"/>
        <path id="Path_14230" data-name="Path 14230" d="M102.333,212.11,71.57,219.086v41.45h30.763Z" transform="translate(-51.218 -167.432)" fill="#f0f0f0"/>
        <path id="Path_14231" data-name="Path 14231" d="M111.257,152.06,92.27,156.368V192h18.987Z" transform="translate(-66.031 -124.459)" fill="#f0f0f0"/>
        <path id="Path_14232" data-name="Path 14232" d="M137.706,114.11l-.916.529v25.474h.916Z" transform="translate(-97.891 -97.301)" fill="#f0f0f0"/>
        <path id="Path_14233" data-name="Path 14233" d="M107.256,126.39l-.916.529V152.4h.916Z" transform="translate(-76.1 -106.089)" fill="#f0f0f0"/>
        <rect id="Rectangle_5762" data-name="Rectangle 5762" width="27.678" height="34.921" transform="translate(36.59 58.182)" fill="#f5f5f5"/>
        <rect id="Rectangle_5763" data-name="Rectangle 5763" width="21.251" height="8.082" transform="translate(39.803 50.581)" fill="#f5f5f5"/>
        <rect id="Rectangle_5764" data-name="Rectangle 5764" width="24.231" height="1.257" transform="translate(38.313 50.049)" fill="#f5f5f5"/>
        <rect id="Rectangle_5765" data-name="Rectangle 5765" width="17.355" height="53.615" transform="translate(87.959 39.488)" fill="#f0f0f0"/>
        <rect id="Rectangle_5766" data-name="Rectangle 5766" width="13.326" height="12.407" transform="translate(89.972 27.823)" fill="#f0f0f0"/>
        <rect id="Rectangle_5767" data-name="Rectangle 5767" width="15.194" height="1.928" transform="translate(89.039 27.004)" fill="#f0f0f0"/>
      </g>
    </g>
    <g id="Free_shipping-bro" data-name="Free shipping-bro" transform="translate(807 229.123)">
      <g id="freepik--Map--inject-315" transform="translate(21.063 74.104)">
        <path id="Path_13261" data-name="Path 13261" d="M247.3,224.15c.115-.018.129-.614.063-.622C247.127,223.5,247.035,224.189,247.3,224.15Z" transform="translate(-193.035 -200.719)" fill="none"/>
        <path id="Path_13262" data-name="Path 13262" d="M150.171,257.008c.2-.073,1.459.192,1.459-.207,0-.262-1.312-.6-1.459-.475a.771.771,0,0,0,.2.459c0,.129-.546-.013-.593.118A.289.289,0,0,0,150.171,257.008Z" transform="translate(-121.219 -224.893)" fill="none"/>
        <path id="Path_13263" data-name="Path 13263" d="M81.316,196.56c-.525.029-1.049-.653-1.621-.735-.525-.071-.546-.126-1,.06.5-.207-.816-.819-.824-.819-.223-.06-.449.54-.648.457.039.016.239-.478.034-.666s-.561.262-.58.262c.031.018.564-1.33-.084-1.684-.624-.409-1.139-.331-1.705-.617s-.577-.921-1.312-.874c.3-.018-.585-.787-.338-.7-.4-.157-1.162.178-1.674.063-.2-.045-.333-.564-.624-.564-.449,0-.325.805-.4.963-.207.454-.289-1.191-.081-1.049-.15-.1-1.2.63-1.312.711-.234.173-.328.525-.572.588.409-.121-1.312-.312-.952-.176-1.089-.415-.59-.554-.887-1.516-.084-.262.2-.4-.031-.648a1.675,1.675,0,0,0-1.435-.1c-.2.11.026-.753.113-.842h0c.354-.362.467-1.2-.081-1.212-.913-.024-.462.787-1.028,1.065-1.708.85-1.781-1.551-1.729-2.561a.458.458,0,0,0-.068-.039.456.456,0,0,1,.068.039c.094-1.776,1.372-1.3,2.443-1.17-.281-.034-.045-.457.281-.488a2.479,2.479,0,0,1,.879.192c.525.16.4,0,.8.68.157.262.22.952.575,1.068a16.807,16.807,0,0,1,.181-2.784c.262-.378.868-.845,1.049-1.091.441-.564.016.071.071-.585,0-.068-.176-1,.123-1-.115,0,.1.876.092.884.3-.207.1-.512.118-.748,0-.189.973-.525,1.049-.682.034-.073-.464,0-.464-.016,0-.262.787-.21.9-.289a2.277,2.277,0,0,1,.331-.91c.352-.367,1.233-.283,1.5-.842-.034.068.118.346.307.291-.7.2-1.026.572-.194.449a3.944,3.944,0,0,0,1.385-.719c.018,0-.144-.218-.121-.362a1.44,1.44,0,0,1-.645.472c-.808-.15-.422-.7-.737-.905a.509.509,0,0,1-.262.052c-.087-.291.981-.525-.045-.645-.708-.092-1.063.937-1.548.937.236,0,1.312-1.312,1.821-1.427.207-.047,3.078-.262,2.836-.892a2.235,2.235,0,0,0-.2-.1c-.2-.184.525-.362-.262-.457a.9.9,0,0,1-.021-.262,4.07,4.07,0,0,0-.879.278c-.06-.294.742-.325.832-.478,0,0-1.718-.824-1.561-1.028.317-.409.315.047.108-.59-.055-.173-.821-1.246-.766-1.3-.373.336-.163,1.1-.811,1.1-.716,0-.645-.821-.645-1.291,0-.2-1.776-.735-1.91-.732-1,.029-.593.092-.656.887,0,.139-.16.7-.144.787.118.617.63.813.317,1.606-.094.241-.666.31-.708.449-.055.186.22.378.178.6a8,8,0,0,1,.037.916c-.378-.178-.213.173-.638-.207-.478-.428-.144-1.049-.422-1.367a16.535,16.535,0,0,0-1.8-.787,1.923,1.923,0,0,0-1.338-.213c.123-.018-.113-.7-.165-.787-.3-.512-.624.058-.443-.95a7.216,7.216,0,0,1,1.183-1.433c0-.05-.924-.4-.918-.412.129-.307.913.546,1.128-.1-.1.3,1.244-.291.908-.525-.142-.1-.926,0-.882-.37-.029.249,1.687.336,1-.262-.024-.021.624,0,.756,0,.092,0-.247-.315-.218-.344.1-.1.443.48.895-.024.346-.388-.184-.43-.2-.808,0-.042.525-.186.359-.457a1.532,1.532,0,0,0-1.086-.375c-.163.052.058.855-.386,1.112a.525.525,0,0,1-.136-.207c-.186,0,.171.7-.071.585s-.262-.6-.3-.632c-.094-.084-.22-.391-.383-.525-.123-.11-.31.525-.373.543-.226.042.031-.582.047-.611.11-.207-.58-.139-.567-.129-.218-.192.15-.3.189-.354-.05.076-.525-.787-.525-.787-.317-.722-.1,0-.184-.813.037.383,1.472-.63.973-.787s-1.228-.218-1.338.184c-.063.228-.026,1.144-.123,1.511-.029.115-.422.3-.283.769.052.181,1.1.417.606.813a.194.194,0,0,1,.2-.176c.013.029-.525,1.034-.478.992a7.109,7.109,0,0,1-.63-.645c-.029-.052.7-.163.735-.2.283-.262-.409-.262-.409-.312s.37-.029.241-.131a.819.819,0,0,0-1.173.2c-.131.168,1.021.609-.365.787-.632.081-.889-.234-1.438-.365-.16-.037-.152-.2-.441-.234-.1,0-.787.291-.577.386.152.068.719-.32.808-.22-.373-.409-.441,1.149-.682,1.021-.1-.055-.039-.43-.367-.525-.446-.15-1.464.312-1.8-.052-.163-.178.428-.22.383-.325-.165-.383-1.1-.409-1.44-.488s-.585-.262-.887-.3c-.365-.039-.5.223-.842.223-.05,0,.068-.454-.087-.475a1.926,1.926,0,0,1-.433.417c-.325-.026-.281-.821-.666-.763.262-.039-.551.58-.5.548a10.78,10.78,0,0,1-1.07.6c-.2,0,1.141-.837,1.139-.805,0-.163-1.162.336-1.3.407s0-.207-.228-.126c-.561.2-.163.378-.3.525.052-.058-3.479-.832-3.712-.853a14.341,14.341,0,0,1-2.624-.42c-.234-.262-.853.016-1.133.325-.226.247-1.9.617-1.983.984-.168.766,1.616.908,1.753,1.325,0,.031-2.01-.076-2.233.451.076-.181.564.58.614.6A6.925,6.925,0,0,0,43,169.277c.344.341-.4.8-.588.976s-.241-.126-.506.22a4.424,4.424,0,0,1-.5.409c.055-.052.407.727.415.735.213.186.866.184.787.108.2.2-.018.635.171.735.129.068.575.016.821.115-.22-.089.674-.388.622-.231-.123.37-1.574,2.154-1.8,1.918.262.283,2.9-1.5,2.9-1.923a.74.74,0,0,0-.244-.134c-.058-.15,1.43-1.391,1.377-.908,0-.05-.889.677-.682.866a6.24,6.24,0,0,0,1.2-.344c.152-.058-.359-.5,0-.567.118-.021.588.262.609.262a.165.165,0,0,0-.21.131c.045.142,2.1.05,2.23.165-.063-.055,1.312,1.139,1.312.805a.551.551,0,0,1-.045-.38c.659.48-.307.611-.307.582,0,.031.5.737.485.745.094-.05-.129-.638.021-.582a.451.451,0,0,1,.042.236c.165.213.194-.483.173-.43.037-.094.052.91-.052.9-.152-.021.876-.089.572.058.1-.047-.375-.325-.113-.346.4-.034.087.338-.184.362a3.673,3.673,0,0,0,.047.585c.084.058.449-.286.635-.262s.155.716.262.858c.073.1.588.619.656.7a5.468,5.468,0,0,0,1.081.874c-.037-.029,1.354,1.144.59,1.144-.029,0-.829-2.159-1.721-1.53.189-.134,1.2,1.312,1.262,1.5.373,1.068-.239,2.311.176,3.476a5.792,5.792,0,0,0,1.54,1.852,6.943,6.943,0,0,1,.8,1.217c.354.6.433.753.362,1.1,0,.016,1.6,1.692,1.54,1.737a29.031,29.031,0,0,0-1.537-3.259c.63-.063.685.918.8,1.1.323.5.908.965,1.262,1.419.6.774.682,1.574,1.22,2.141a4.763,4.763,0,0,0,1.677.842c.63.2,1.3.013,1.8.509h0c.228.22.6.228.758.394.446.409.63.2,1.049.632.283.291.365.556.525.714.262.262.716.761,1.118.787s.275-.443.478-.4c.9.21.735,1.414.375,2.149-.394.787-.895.937-.454,1.742.031.055-.436.816-.391,1.049a20.26,20.26,0,0,0,1.312,2.243c.446.882,1.018.973,1.653,1.695.58.656.4,1.181.3,2.1a37.124,37.124,0,0,1-.464,3.88c-.11.506-1.073,3.148-.722,3.657.163.236.231-.664.391-.711s-.1,1.973-.262,1.86c-.084-.058.092-.653-.129-.556.2-.089-.409.84-.412.85.024-.262.315.32.325.415.018.16.352-.108.333.126.026-.352-1,.407-.525.333a1.166,1.166,0,0,0,.22-.168c.071-.016-.506.6-.118.664.076,0,.115-.4.223-.289.226.226-.433.708-.278.9.031.037.354-.147.417-.018.018.042-.218.226-.181.239.129.047.422-.129.48.06s-.572.013-.357.317c.081.115.59-.37.687-.052-.029-.089-.572.289-.59.312a6.053,6.053,0,0,1,.672-.155c.047.1-.748.412-.769.323.024.1.48.383.554.312.123-.126-.163-.066-.063-.2s.685-.436.716-.525a.346.346,0,0,0-.168.315,1.215,1.215,0,0,0,.262.016c-.079-.087-.184.4-.155.383a.386.386,0,0,1-.129-.262c-.136-.06-.063.286-.084.262a.184.184,0,0,0-.22-.123c.113-.157-.142.483-.142.262,0-.121.388.354.378.349a.808.808,0,0,0,.11-.262,6.316,6.316,0,0,0,.64.443c.118.034-.087-.281-.018-.262a3.893,3.893,0,0,0,.924-.192c-.425-.155-.952-.921-1.031-.939h0c-.068-.016-.31.034-.262-.131s.262.06.325,0-.262-.564-.2-.716c.108-.239.3-.3.417-.525.163-.3.561-.525.588-.853.021-.262-.375-.262-.357-.338a4.25,4.25,0,0,1,.554-1.359c.113-.142.493-.525.491-.525-.092-.079-.821-.013-.438-.593-.121.181.871-.16.821-.131.136-.076-.021-.525.05-.609.338-.359,1.574.16,1.726-.8.031-.213-.554-.952-.567-.939.2-.2,1.12.236,1.629-.3.126-.134.758-1.251.756-1.217a2.083,2.083,0,0,1-.262.464c0-.223.745-.834.84-1.091.136-.37-.031-.847.16-1.183.386-.674,1.244-.543,1.721-.845a2.439,2.439,0,0,0,.979-1.671c.115-.446,0-1.574.226-1.931C80.406,199.147,82.828,196.482,81.316,196.56Z" transform="translate(-40.92 -156.575)" fill="none"/>
        <path id="Path_13264" data-name="Path 13264" d="M141.109,253.708c.349-.477-3.615-1.33-3.12-.606-.236-.346,1.574.115,1.666.163C139.962,253.435,140.684,254.288,141.109,253.708Z" transform="translate(-112.49 -222.328)" fill="none"/>
        <path id="Path_13265" data-name="Path 13265" d="M145.192,258.533c.055.1.567.249.622.118S145.14,258.4,145.192,258.533Z" transform="translate(-117.833 -226.499)" fill="none"/>
        <path id="Path_13266" data-name="Path 13266" d="M158.385,258.418c.121.207.47.084.5,0C158.939,258.269,158.275,258.208,158.385,258.418Z" transform="translate(-127.557 -226.356)" fill="none"/>
        <path id="Path_13267" data-name="Path 13267" d="M165.665,355c.163.089.5-.354.352-.383S165.513,354.914,165.665,355Z" transform="translate(-132.909 -297.413)" fill="none"/>
        <path id="Path_13268" data-name="Path 13268" d="M167.278,355.308c.108.06.551-.142.5-.249C167.668,354.836,167.17,355.258,167.278,355.308Z" transform="translate(-134.115 -297.694)" fill="none"/>
        <path id="Path_13269" data-name="Path 13269" d="M129.976,282.151c-.134.22.134.438.189.338S130.112,281.928,129.976,282.151Z" transform="translate(-106.583 -243.918)" fill="none"/>
        <path id="Path_13270" data-name="Path 13270" d="M173.661,173.618c.031-.525-.787-.262-.91-.262S173.624,174.263,173.661,173.618Z" transform="translate(-138.155 -163.662)" fill="none"/>
        <path id="Path_13271" data-name="Path 13271" d="M167.858,146.185a12.869,12.869,0,0,1-1.312-.108c.034-.081.438-.546.386-.564.262.1,1.026,1,1.049.165.021-.5-.677-.5-.787-.895-.034-.113.929.31.737-.286-.108-.336-1.049.241-1.015-.121,0,.123.325-.446.262-.38.3-.333,1.666.808.787-.336-.037-.047.787-.031.834-.2s-.826-.144-.63-.47c.247-.407.866.184.467-.645.013.026-1-.317-.845-.47s1.346-.013,1.312-.184c-.115-.433-.7.024-.75-.349-.026-.194.357,0,.412-.1.218-.341-.929-.068-.887-.037-.31-.239,1.267-1.711,1.312-1.648-.291-.386-.556.262-.761.055s1.141-.37,1.181-.394c.113-.073-.719-.247-.756-.184.144-.249,2.086-.218,2.086-.753,0-.722-1.837-.031-2.049.037-.16.05-.394-.16-.506-.118-.37.142-.708.742-1.107.8.388-.058.829-1,.2-1.11-.1-.016-1.173.787-1.238.525-.055-.192.645-.262.63-.436-.034-.331-2.283.189-2.285.139-.034-.457,3.127-.262,3.445-.7.178-.236-4.019-.916-4.4-.819-.094.024-.666.228-.727.236a3.218,3.218,0,0,0-.4-.021c-.714.081-1.412.034-2.123.171-.089.016.31.283.3.3s-.624.066-.54.178a6.435,6.435,0,0,1,.816.651c-.5.1-1.422-1.049-1.931-.672-.123.092.37.394.37.464,0,.278-1.01-.315-.981-.315-.076,0-.047.6-.189.693.436-.262-.538-.653-.69-.669a.808.808,0,0,0-.8.464c-.228.079-.561-.2-.855-.079-.21.087.184.438-.1.6-.079.042-2.117.092-1.837.727.207.48,1.312-.024.331.787-.262.218-1.049.129-1.375.357-1.561,1.065,1.443.362,1.414.958,0,.066-1.6.068-1.574.215.042.215,1.118.714,1.4.74.58.055,1.136-.378,1.91,0a3.007,3.007,0,0,1,1.574,1.753c.236.884-.325,1,.6,1a5.3,5.3,0,0,0,.787.85c-.031.029-1.034-.394-1.034-.142,0,.6,1.4.163,1.026,1.223-.058.16-.5-.063-.63.262a1.614,1.614,0,0,0-.157.682,7.009,7.009,0,0,0,1.1,2.566,2.153,2.153,0,0,0,1.147.845c.845.38.648.428,1.123-.278.186-.275-.1-.546-.024-.758.039-.113.4-.11.457-.349.071-.312.029-.824.068-.96a.648.648,0,0,1,.3.039c.042-.024.567-.729.63-.729a.226.226,0,0,1,.039.286c.1.32,1.312-.753,1.33-.771a3.143,3.143,0,0,1,.8-.538C166.094,146.962,167.118,146.623,167.858,146.185Z" transform="translate(-123.185 -136.594)" fill="none"/>
        <path id="Path_13272" data-name="Path 13272" d="M94,156.232c.262-.144.262,0,.459-.207a.91.91,0,0,0,.215.262c.312,0,.438-.669.635-.708s.058.6.509.16c.171-.165.131-.317.3-.5a4.218,4.218,0,0,0-1.086.029C94.661,155.4,94,156.24,94,156.232Z" transform="translate(-80.074 -150.33)" fill="none"/>
        <path id="Path_13273" data-name="Path 13273" d="M100.379,157.315c-.451.037.247.331.223.262a1.008,1.008,0,0,0-.525.152c-.081.115.454.073.394.094a.973.973,0,0,0-.54.194c.289.42.787.021,1.007-.123-.118.076.7.275.756.192-.079.121-.847.226-.834.352.042.4,1.537-.134,1.758-.228.742-.323.96-.063.611-.7.029.052-.8-.525-.931-.454-.388.2.228.6.144.742-.22.365-.971-.409-1.147-.457a1.955,1.955,0,0,0-.916-.024Z" transform="translate(-84.448 -151.681)" fill="none"/>
        <path id="Path_13274" data-name="Path 13274" d="M118.281,165.157c.546.409,1.181-1.123.84-1.144a.262.262,0,0,0-.066.323c.039-.081-.449-.247-.438-.228-.1-.165.693-.315.176-.666-.383-.262-.338.223-.333.22.068-.031-1.147-.139-.761.207a2.066,2.066,0,0,0,.4.079c.457.4-.787.184-.666.16C117.063,164.173,118.168,165.073,118.281,165.157Z" transform="translate(-97.302 -156.34)" fill="none"/>
        <path id="Path_13275" data-name="Path 13275" d="M90.522,164.347a6.4,6.4,0,0,1,.433.525c.328,0,.674-.478.837-.6.425-.317,1.026-.63,1.456-.984.16-.131-1.957-.74-2.233-.653-.889.278-.115.089-.4.577-.089.15-.567.937-.506,1.01A1.05,1.05,0,0,0,90.522,164.347Z" transform="translate(-77.197 -155.798)" fill="none"/>
        <path id="Path_13276" data-name="Path 13276" d="M97.844,158.912c.241.029.485-.207.472-.341S97.723,158.9,97.844,158.912Z" transform="translate(-82.897 -152.787)" fill="none"/>
        <path id="Path_13277" data-name="Path 13277" d="M137.323,166.027a.262.262,0,0,0,.262-.262c.06.194-1.015-.37-1.112-.4-.239-.081-.092-.3-.478-.388-.262-.06-.669.333-.656.336-.359-.126-.21.024-.614.024-.3,0,.207-1.629-1.091-.847-.787.47-.131.721-.1,1.217,0,.084-.582-.173-.559-.551s.451-.653.451-.868c0-.4-1.409.485-1.477.787-.094.42.512,1.259.758.931-.063.084-.659-.079-.643.079.087.861,3.188.323,3.253.5a.357.357,0,0,1-.157-.239c.042-.144,1.091.651,1.1.716a.892.892,0,0,0-.3.281c.2.171.422-.168.756.178.375.391.37.31.459.9.018.123,1.141-.239.937.281s-.5-.134-.648-.087-.525.06-.735.123c-.034,0,.1.386.121.378-.315.155-.832.018-1.073.226-.895.766.958.3,1.21.38s1.8,1.97,2.2,1.422c.1-.139-.68-.984-.824-.942.59-.171,1.459.808,1.149-.184-.139-.441-1.186-.787-.729-1.33.192-.231.986.742,1.12.74,0,0,.787-.821.787-.816,0-.548-2.159-.845-2.1-1.375a1.22,1.22,0,0,1,.417-.1.706.706,0,0,0-.349-.192c-.039-.325.344-.31-.2-.31.4,0-.551-.433-.585-.443C137.756,166.15,137.323,166.027,137.323,166.027Z" transform="translate(-108.061 -156.945)" fill="none"/>
        <path id="Path_13278" data-name="Path 13278" d="M81.564,205.52c-.249.147.315.837.464.732C82.075,206.22,81.934,205.307,81.564,205.52Z" transform="translate(-70.854 -187.413)" fill="none"/>
        <path id="Path_13279" data-name="Path 13279" d="M115.051,160.38c.094-.118-.2-.37-.283-.163S114.954,160.5,115.051,160.38Z" transform="translate(-95.381 -153.961)" fill="none"/>
        <path id="Path_13280" data-name="Path 13280" d="M143.3,190.249c.094,0,.283-.383.039-.37S143.156,190.273,143.3,190.249Z" transform="translate(-116.348 -175.899)" fill="none"/>
        <path id="Path_13281" data-name="Path 13281" d="M147.365,177.851c.737-.136-.711-.666-.47-.462C147.05,177.515,146.478,178.014,147.365,177.851Z" transform="translate(-119.061 -166.652)" fill="none"/>
        <path id="Path_13282" data-name="Path 13282" d="M138.979,188.946c.218.15.54-.262.525-.37S138.72,188.768,138.979,188.946Z" transform="translate(-113.213 -174.921)" fill="none"/>
        <path id="Path_13283" data-name="Path 13283" d="M125.358,157.627c.121.383,3.206.525,3.563.281,1.425-1.034-3.02-.525-2.959-.853a1.278,1.278,0,0,1,.247-.244c.11-.144-2.419-.656-2.227-.354C124.5,157.273,125,156.507,125.358,157.627Z" transform="translate(-102.181 -151.176)" fill="none"/>
        <path id="Path_13284" data-name="Path 13284" d="M103.286,166.9c.073-.094.42.192.433-.016,0-.144-1.028-.876-1.12-1.11a5.893,5.893,0,0,1-.068-.955c.123-.11.11-.226-.042-.346a.559.559,0,0,0-.593.147,1.81,1.81,0,0,1,.378.357c0-.068-.674-.315-.742-.178-.094.189.307.882.178.947-.024.013-.908-1-.96-.769a1.073,1.073,0,0,1,.228.281c0,.037-.491,0-.462.084-.357-.939-.648.186-.973-.118-.031-.031.554-.478-.136-.48a1.843,1.843,0,0,0-1.049.606c-.4.955.5.262.874.543.021.018-.787.228-.787.341,0,.5,1.928-.052,1.928.37,0,.1-1.737,0-1.674.281.178.787,2.388.624,2.834.561a3.531,3.531,0,0,1,.722-.1c.15,0,1.385.425,1.236-.079-.118-.394-.4.118-.5-.15A1.078,1.078,0,0,1,103.286,166.9Z" transform="translate(-83.212 -157.135)" fill="none"/>
        <path id="Path_13285" data-name="Path 13285" d="M161.659,212.543c.026.118.811.472.837.31S161.635,212.44,161.659,212.543Z" transform="translate(-129.981 -192.599)" fill="none"/>
        <path id="Path_13286" data-name="Path 13286" d="M130.782,154.421c-.241-.134-.548.15-.3.262S131.026,154.547,130.782,154.421Z" transform="translate(-106.917 -149.718)" fill="none"/>
        <path id="Path_13287" data-name="Path 13287" d="M122.7,151.728c1.574,0-.286-.884-.391-.711S122.515,151.728,122.7,151.728Z" transform="translate(-100.941 -147.216)" fill="none"/>
        <path id="Path_13288" data-name="Path 13288" d="M124.092,144.708s1.251.577,1.186.383c.034.1-.572.247-.54.281a1.65,1.65,0,0,0,1.574.564c.039,0,1.165-1.015,1.133-.845-.045.262-.832-.787-.876-.829s-1.713-.913-1.876-.787a.262.262,0,0,0,.2.176c0,.092-.412.018-.449.094.076.06.15.121.223.186-.084.157-.556-.076-.525.236a1.034,1.034,0,0,0,.367.281C124.519,144.614,123.617,144.446,124.092,144.708Z" transform="translate(-102.168 -141.661)" fill="none"/>
        <path id="Path_13289" data-name="Path 13289" d="M142.246,164.427c-.338.805,1.377.619,1.377.443C143.623,164.6,142.343,164.2,142.246,164.427Z" transform="translate(-115.629 -157.074)" fill="none"/>
        <path id="Path_13290" data-name="Path 13290" d="M125.452,153.99c-.026-.089-1.049.047-.889.178C124.838,154.388,125.486,154.079,125.452,153.99Z" transform="translate(-102.605 -149.405)" fill="none"/>
        <path id="Path_13291" data-name="Path 13291" d="M103.167,153.626c.068-.176-.446-.147-.4-.087C102.858,153.673,103.1,153.807,103.167,153.626Z" transform="translate(-86.536 -149.059)" fill="none"/>
        <path id="Path_13292" data-name="Path 13292" d="M124.7,160.041c-.218-.178-.858.262-.769.325C124.285,160.666,125.5,160.695,124.7,160.041Z" transform="translate(-102.149 -153.858)" fill="none"/>
        <path id="Path_13293" data-name="Path 13293" d="M113.7,154.364c.108-.147-.43-.622-.459-.4S113.592,154.521,113.7,154.364Z" transform="translate(-94.269 -149.364)" fill="none"/>
        <path id="Path_13294" data-name="Path 13294" d="M116.1,156.555c-.32-.136.136.485.087.472a1.238,1.238,0,0,0-.525-.239c-.115.092.165.373.071.42-.144.068-.5-.611-.7-.624-.433-.024.15.609.171.622.359.218.643.05,1,.147-.05-.013.4,1.144.821.121C117.345,156.728,116.458,156.71,116.1,156.555Z" transform="translate(-95.469 -151.303)" fill="none"/>
        <path id="Path_13295" data-name="Path 13295" d="M105.888,153.384c.234-.039-.958-.323-.958.134C104.93,154.29,105.893,153.384,105.888,153.384Z" transform="translate(-88.136 -148.889)" fill="none"/>
        <path id="Path_13296" data-name="Path 13296" d="M105.033,151.659c.11.047.879.039.879-.118,0-.572-1.272.063-1.244.089A1.312,1.312,0,0,0,105.033,151.659Z" transform="translate(-87.943 -147.444)" fill="none"/>
        <path id="Path_13297" data-name="Path 13297" d="M120.489,147.615c.094-.178-.569-.317-.4-.163C120.18,147.546,120.395,147.793,120.489,147.615Z" transform="translate(-99.296 -144.554)" fill="none"/>
        <path id="Path_13298" data-name="Path 13298" d="M114.346,150c.218-.071.352,0,.407.207-.029.066-.5.045-.488.089s2.6,1.049,1.283-.262a1.346,1.346,0,0,0-.622-.333C113.774,149.574,114.438,149.928,114.346,150Z" transform="translate(-95.002 -146.24)" fill="none"/>
        <path id="Path_13299" data-name="Path 13299" d="M137.014,184c.026-.155-1.312-1.076-1.391-1.065-.126.016-.756.858-.674,1.123S137.028,183.921,137.014,184Z" transform="translate(-110.274 -170.78)" fill="none"/>
        <path id="Path_13300" data-name="Path 13300" d="M129.771,139.581c.485-.341.084.144.089.15a1.513,1.513,0,0,1,.286.047c-.525.632,1,.525,1,.409.068.984,1.97-.328,2.2-.165.441.312-1.152.619-1.115.672,0,0,.512.433.449.438-.3.021-1.886-1.1-1.619-.1.063.234,1.312.711,1.312.934,0,0-1.574-.467-1.606.207-.024.428.866-.076.876-.05-.139-.307.136.96.136.716,0,.286-1.215-.745-1.165-.178a2.437,2.437,0,0,0,.359.278c0,.1-1.049.184-.8.433s3.455.375,3.615-.013-1.189-.281-1.254-.383c.192.3,1.2-.525,1.272-.572.5-.278.714.129.981-.659.079-.236-.874-.244-.866-.262.556-.394,1.288-.233,1.795-.488a15.554,15.554,0,0,0,2.149-1.233c.021-.139-.855-.037-.905-.058.42.184,1.913-.805,1.931-.787-.118-.037-1.837-.624-1.873-.181a.661.661,0,0,1,.281-.234,14.2,14.2,0,0,1-2.264.058,10.837,10.837,0,0,0-2.212.087,33.024,33.024,0,0,1-3.379.965A.3.3,0,0,0,129.771,139.581Z" transform="translate(-106.215 -138)" fill="none"/>
        <path id="Path_13301" data-name="Path 13301" d="M168.722,210.22a1.684,1.684,0,0,0-.648.75c-.031.071-.627.666-.386.808.546.323,1.049-.488,1.107.228-.021-.239.787.089.826.018-.016.031-.239-.619-.131-.572s-1.076-.787-1.049-.635A1.312,1.312,0,0,1,168.722,210.22Z" transform="translate(-134.387 -190.903)" fill="none"/>
        <path id="Path_13302" data-name="Path 13302" d="M41.514,205.849c.163-.073.228-.163.163-.262S41.388,205.907,41.514,205.849Z" transform="translate(-41.33 -187.474)" fill="none"/>
        <path id="Path_13303" data-name="Path 13303" d="M44.842,204.058c-.186-.073-.378.228-.4.223C44.352,204.267,45.021,204.131,44.842,204.058Z" transform="translate(-43.509 -186.349)" fill="none"/>
        <path id="Path_13304" data-name="Path 13304" d="M57.236,197.486c-.31.391-.564,1.141.1.475C57.431,197.861,57.572,197.063,57.236,197.486Z" transform="translate(-52.721 -181.419)" fill="none"/>
        <path id="Path_13305" data-name="Path 13305" d="M41.912,194.029c-.129-.076-.218-.042-.262.1a.42.42,0,0,0,.425.142C42.529,194.105,41.91,193.992,41.912,194.029Z" transform="translate(-41.458 -178.931)" fill="none"/>
        <path id="Path_13306" data-name="Path 13306" d="M240.135,228.394c-.024-.168-.331.05-.262.1C240,228.591,240.161,228.562,240.135,228.394Z" transform="translate(-187.667 -204.263)" fill="none"/>
        <path id="Path_13307" data-name="Path 13307" d="M264.572,234.866c0-.108-.874,0-.855,0C263.609,234.845,264.6,235.141,264.572,234.866Z" transform="translate(-205.257 -209.047)" fill="none"/>
        <path id="Path_13308" data-name="Path 13308" d="M274.343,234.633a3.405,3.405,0,0,1,.223-.283,2.791,2.791,0,0,0-.69.241C273.755,234.817,274.369,234.783,274.343,234.633Z" transform="translate(-212.745 -208.702)" fill="none"/>
        <path id="Path_13309" data-name="Path 13309" d="M211.593,182.349c.963-.052.058-1.509-.4-1.241a3.528,3.528,0,0,1-.9.4.262.262,0,0,0-.215-.165c-.6.706.024-.2-.8-.2-.173,0,.089.244.042.239-.165-.018-.42-.071-.459.244-.018.136.685.1.661.079s-.068.262-.047.239-.564.024-.525.123c.018.034.5.047.582.147.152.176-.165.4-.2.359C209.916,183.2,210.974,182.385,211.593,182.349Z" transform="translate(-164.797 -169.405)" fill="none"/>
        <path id="Path_13310" data-name="Path 13310" d="M225.533,204.95c.787,0,1.021-.577.942-1.186-.026-.21.4-.244-.079-.5a1.9,1.9,0,0,0-.63.134c-.016.43.031.05-.428.3C225.326,203.717,225.337,204.95,225.533,204.95Z" transform="translate(-176.951 -185.769)" fill="none"/>
        <path id="Path_13311" data-name="Path 13311" d="M235.362,193.383c.076-.084.165-.4.05-.37S235.328,193.42,235.362,193.383Z" transform="translate(-184.324 -178.209)" fill="none"/>
        <path id="Path_13312" data-name="Path 13312" d="M228.956,197.359c-.058-.063-.291.3-.2.3S229.016,197.425,228.956,197.359Z" transform="translate(-179.458 -181.411)" fill="none"/>
        <path id="Path_13313" data-name="Path 13313" d="M229.29,197.171c.294-.262.018.989.018.829,0-.223.386.11.344.118a.488.488,0,0,0,.173-.262c.136.021-.089.525-.084.567.024.2.525-.123.543-.073.32.559-.262.787-.239,1.162a.43.43,0,0,0-.328.341,4.018,4.018,0,0,0,.753.108c.013.092-1.049.315-.787.666a20.842,20.842,0,0,0,2.052-.543c.115-.118-.2-.039-.189-.123.05-.391.354-.207.189-.635a1.049,1.049,0,0,1-.378-.294c-.218-.367-.43-1.157-.958-1.118,0,0,.338-.564.3-.651-.147-.378-.428.052-.638-.2-.071-.087.433-.42.286-.559C230.232,196.4,229.314,197.152,229.29,197.171Z" transform="translate(-179.868 -180.779)" fill="none"/>
        <path id="Path_13314" data-name="Path 13314" d="M250.291,202.223c-.058-.016.766-.223.375-.488C250.33,201.509,250.259,202.215,250.291,202.223Z" transform="translate(-195.354 -184.611)" fill="none"/>
        <path id="Path_13315" data-name="Path 13315" d="M258,198.4c-.173,0-.262.373-.207.433S258.172,198.395,258,198.4Z" transform="translate(-200.882 -182.184)" fill="none"/>
        <path id="Path_13316" data-name="Path 13316" d="M262.046,197.181a.879.879,0,0,0,.315-.226C262.581,196.716,261.715,197.207,262.046,197.181Z" transform="translate(-203.974 -181.07)" fill="none"/>
        <path id="Path_13317" data-name="Path 13317" d="M262.666,196.248c.037-.076-.262-.042-.194.024a.126.126,0,0,0,.194-.024Z" transform="translate(-204.337 -180.565)" fill="none"/>
        <path id="Path_13318" data-name="Path 13318" d="M257.786,146.421c.262.22.756-.031,1.073.163-.016,0-.638.231-.635.239.152.4,2.388.2,2.233-.422-.018-.076-1.453-.275-1.4-.3a.262.262,0,0,0-.055.325c-.118.087-.7-.386-.824-.37a.937.937,0,0,0-.194.262c-.079-.058-.155-.118-.231-.178C257.492,146.148,257.749,146.392,257.786,146.421Z" transform="translate(-200.779 -143.575)" fill="none"/>
        <path id="Path_13319" data-name="Path 13319" d="M249.916,147.887c-.454-.1.241.708.352.771.21.121.378-.394.525-.454s-.063.283.084.262a1.207,1.207,0,0,1,.323-.136c.134.2-.96.6-.808.638.275.068.569-.108.855-.039a4.365,4.365,0,0,0-.837.262c-.029.262.483.262.6.3a.2.2,0,0,1-.15.126c-.068.094.38.139.451.1a6.669,6.669,0,0,0,.475-.724c.052-.068.488-1.107.758-.682-.073-.113.11.908.013.887.113.026,1.144.2,1.1-.281.021.247-1.068-.787-1.049-.787a2.517,2.517,0,0,0-1.084-.38c.139.034-.226-.454-.4-.512-.262-.081.055.9.073.821.231-1.01-.7-.218-.7-.22a1.968,1.968,0,0,0-.283-.247,1.144,1.144,0,0,1,.262-.1C250.422,147.549,248.754,147.617,249.916,147.887Z" transform="translate(-194.78 -144.441)" fill="none"/>
        <path id="Path_13320" data-name="Path 13320" d="M249.459,151.151a1.16,1.16,0,0,0,.215.163c-.1,0-.21-.525-.4-.459A.262.262,0,0,0,249.459,151.151Z" transform="translate(-194.603 -147.109)" fill="none"/>
        <path id="Path_13321" data-name="Path 13321" d="M455.418,187.737a.525.525,0,0,0-.378.129c.06.073.937.278.937.079A.85.85,0,0,0,455.418,187.737Z" transform="translate(-346.389 -174.318)" fill="none"/>
        <path id="Path_13322" data-name="Path 13322" d="M398.574,220.9c-.045-.3-.719.986-.38.8-.058.031.281-.192.262-.142-.058-.084-.118-.165-.181-.247,0,.073,1.941.058,1.837-.787.052.457-1.624-.3-1.425-.43C398.721,220.079,398.566,220.853,398.574,220.9Z" transform="translate(-304.388 -198.183)" fill="none"/>
        <path id="Path_13323" data-name="Path 13323" d="M386.092,238.188c.1.194.184-.262.236-.037,0,.034-.129.729.1.68.181-.039.525-.7.228-.824C386.594,237.975,385.848,237.694,386.092,238.188Z" transform="translate(-295.495 -211.32)" fill="none"/>
        <path id="Path_13324" data-name="Path 13324" d="M390.118,237.243c.066-.291.467.055.467-.4,0-.244-.485,0-.5.042C390.021,237.028,390.052,237.532,390.118,237.243Z" transform="translate(-298.45 -210.46)" fill="none"/>
        <path id="Path_13325" data-name="Path 13325" d="M388.979,228.813s-1.482.066-1.367.585a7.416,7.416,0,0,0,1.338-.136c-.278.066.262.2.328.192.21-.016.05-.3.089-.331.234-.142.945.131,1.189-.2.189-.262.622-2.046.286-2.241-.422-.241-.63,1.118-.829,1.393C389.858,228.291,389.021,228.351,388.979,228.813Z" transform="translate(-296.647 -203.023)" fill="none"/>
        <path id="Path_13326" data-name="Path 13326" d="M362.261,256.956a2.884,2.884,0,0,0,.16-.394c-.034-.136-.787-.034-.643.262C361.8,256.856,362.222,257.455,362.261,256.956Z" transform="translate(-277.583 -225.043)" fill="none"/>
        <path id="Path_13327" data-name="Path 13327" d="M375.31,250.467c.147-.11.5-.863.378-1.034C375.3,248.864,374.977,250.725,375.31,250.467Z" transform="translate(-287.475 -219.748)" fill="none"/>
        <path id="Path_13328" data-name="Path 13328" d="M374.6,259.429c-.207.687,2.01,1.606,1.551,2.13.737-.845-.845-1.189-1.008-1.574s.569-.939,0-1.27C374.761,258.484,374.609,259.4,374.6,259.429Z" transform="translate(-287.045 -226.647)" fill="none"/>
        <path id="Path_13329" data-name="Path 13329" d="M372.072,268.715a1.837,1.837,0,0,0-.386.551c-.037-.073.787-.59.63-.916A.525.525,0,0,0,372.072,268.715Z" transform="translate(-284.904 -233.782)" fill="none"/>
        <path id="Path_13330" data-name="Path 13330" d="M375.289,265.334c.026.136.089.422.289.354S375.27,265.234,375.289,265.334Z" transform="translate(-287.562 -231.545)" fill="none"/>
        <path id="Path_13331" data-name="Path 13331" d="M379.486,269.809c-.071-.1-.249.084-.223.157S379.559,269.908,379.486,269.809Z" transform="translate(-290.492 -234.836)" fill="none"/>
        <path id="Path_13332" data-name="Path 13332" d="M378.127,270.53s-1.312.85-1.089.829.312-.331.538-.171.089.672.525.672c-.323,0,.344-.693.315-.572A.721.721,0,0,0,378.127,270.53Z" transform="translate(-288.834 -235.39)" fill="none"/>
        <path id="Path_13333" data-name="Path 13333" d="M376.908,267.258a.328.328,0,0,0,.018.454c.564-.123-.2.433.234.525C377.538,268.333,377.564,267.116,376.908,267.258Z" transform="translate(-288.696 -232.968)" fill="none"/>
        <path id="Path_13334" data-name="Path 13334" d="M408.911,288.513c0,.391-1,.147-1.015.262-.055.567,1.543.018,1.215-.4C409,288.353,408.935,288.395,408.911,288.513Z" transform="translate(-311.613 -248.55)" fill="none"/>
        <path id="Path_13335" data-name="Path 13335" d="M412.572,287.543c.262-.076-.207-.42-.262-.433C412.389,287.128,412.491,287.569,412.572,287.543Z" transform="translate(-314.87 -247.62)" fill="none"/>
        <path id="Path_13336" data-name="Path 13336" d="M392.543,285.373c.244.016-.787-.845-1.01-.979a5.214,5.214,0,0,0-2.065-.727c-.152,0-.365.475-.551.441-.375-.068-.16-.467-.428-.577-.228-.094-.228-.352-.64-.289-.071,0-.462.32-.323.349.076.018.868.459.874.323,0,.063-.488.058-.525.066-.22.042.824.554.889.585.462.226.787.176,1.063.645s-.373.443-.262.656c.194.388,1.65.045,1.805.047a1.378,1.378,0,0,1,.947.262s1.312.659,1.165.425C393.417,286.493,392.278,285.357,392.543,285.373Z" transform="translate(-296.567 -244.76)" fill="none"/>
        <path id="Path_13337" data-name="Path 13337" d="M329.384,270.145c-.194.024-.2,1.162.026,1.254C330.043,271.654,329.89,270.085,329.384,270.145Z" transform="translate(-253.595 -235.105)" fill="none"/>
        <path id="Path_13338" data-name="Path 13338" d="M288.52,297.9s-.422.735-.493.808c-.189.192-.69.31-.842.483-.415.48-.134.7-.207,1.4-.052.5-.638,2.508.706,1.855.787-.378.617-2.592.905-3.322.039-.094.247.215.244-.186A4.123,4.123,0,0,0,288.52,297.9Z" transform="translate(-222.294 -255.579)" fill="none"/>
        <path id="Path_13339" data-name="Path 13339" d="M298.317,266.216c.1.115.3-.018.31-.063S298.2,266.088,298.317,266.216Z" transform="translate(-230.771 -232.136)" fill="none"/>
        <path id="Path_13340" data-name="Path 13340" d="M421.177,294.736c.029.15.231.239.312.186S421.15,294.584,421.177,294.736Z" transform="translate(-321.41 -253.213)" fill="none"/>
        <path id="Path_13341" data-name="Path 13341" d="M417.53,291.361c0,.037.21.262.262.231S417.543,291.3,417.53,291.361Z" transform="translate(-318.721 -250.748)" fill="none"/>
        <path id="Path_13342" data-name="Path 13342" d="M420.195,292.87c.073-.052-.417-.346-.425-.262S420.121,292.923,420.195,292.87Z" transform="translate(-320.373 -251.664)" fill="none"/>
        <path id="Path_13343" data-name="Path 13343" d="M415.338,289.778c-.018.089.262.559.378.485C415.912,290.124,415.356,289.692,415.338,289.778Z" transform="translate(-317.103 -249.58)" fill="none"/>
        <path id="Path_13344" data-name="Path 13344" d="M422.361,293.542c-.066.163.2.446.244.451S422.414,293.418,422.361,293.542Z" transform="translate(-322.277 -252.351)" fill="none"/>
        <path id="Path_13345" data-name="Path 13345" d="M423.287,296.057c0,.037.189.215.278.15S423.263,295.994,423.287,296.057Z" transform="translate(-322.967 -254.208)" fill="none"/>
        <path id="Path_13346" data-name="Path 13346" d="M386.5,297.52c.068.058.407-.016.394-.1S386.4,297.43,386.5,297.52Z" transform="translate(-295.821 -255.196)" fill="none"/>
        <path id="Path_13347" data-name="Path 13347" d="M378.887,302.494c-.013,0-.163-.976-.079-.937a7.33,7.33,0,0,1-1.837-2.1,9.993,9.993,0,0,1-.659-1.574c-.129-.31-.394-.079-.485-.278-.134-.294,0-.908-.291-1.175-.218-.2-.333,1.467-.336,1.472-.307.868-.126.884-.905.606-.226-.079-.9-.425-.963-.724-.05-.249.54-.672.462-.829a9.792,9.792,0,0,1-1.448-.407c-.037.1,0,.171.115.223-.407-.475-1.073,1.22-.874,1.191.094-.013-.6-.108-.409,0-.5-.289-.425-.58-1.023-.15-.388.281-.262.656-.48.908-.06.066-.1-.341-.194-.278-.323.215-.071.5-.365.735a3.7,3.7,0,0,1-.937.509,4.468,4.468,0,0,0-1.338.758.223.223,0,0,1-.034-.207c0,.108-.129.443-.142.622s.171.871.121.976a.349.349,0,0,1-.181-.171,1.233,1.233,0,0,1,.087.239l-.215-.178c-.087.215.561,1.356.624,1.611a5.521,5.521,0,0,1-.031,1.251c.417.853,1.015.262,1.7.068.561-.165.924-.286,1.469-.488a4.69,4.69,0,0,1,1.766-.4c.283.047,1.69,1.147,1.37,1.291.1-.042.674-.761.711-.727.178.168-.3.624-.317.732-.087.412.472-.325.323-.207.2-.16.108.5.089.451s.666.879.729.934c.386.331,1.346.024,1.335.016a.546.546,0,0,1,0,.226c-.087-.108.32.136.417.228-.2-.189,1.131-.6,1.091-.561a12.248,12.248,0,0,0,.48-1.624C378.371,304.265,378.772,302.6,378.887,302.494Z" transform="translate(-281.057 -254.483)" fill="none"/>
        <path id="Path_13348" data-name="Path 13348" d="M393.8,330.619c.076.073.325.052.365-.052S393.737,330.553,393.8,330.619Z" transform="translate(-301.214 -279.639)" fill="none"/>
        <path id="Path_13349" data-name="Path 13349" d="M403.975,338.281a2.491,2.491,0,0,1-.525-.163c.092-.029.016,1.4.787.994C404.618,338.911,404.764,338.184,403.975,338.281Z" transform="translate(-308.335 -285.245)" fill="none"/>
        <path id="Path_13350" data-name="Path 13350" d="M430.222,347.7c.047.016.2-.029.115-.147S430.11,347.669,430.222,347.7Z" transform="translate(-328.052 -292.183)" fill="none"/>
        <path id="Path_13351" data-name="Path 13351" d="M438.222,330.585c-.181.331-.577-.5-.614-.5a.171.171,0,0,0,0,.184,2.936,2.936,0,0,0-.729-.9c-.016,0,.451.924.493,1.049.139.409-.323.394-.3.619,0-.018.333.963.317.931C437.763,332.684,438.584,329.889,438.222,330.585Z" transform="translate(-332.993 -278.792)" fill="none"/>
        <path id="Path_13352" data-name="Path 13352" d="M431.87,338.407c-.378-.3-2.658,1.739-1.97,2.2S432.192,338.665,431.87,338.407Z" transform="translate(-327.75 -285.437)" fill="none"/>
        <path id="Path_13353" data-name="Path 13353" d="M443.427,304.172c.073.029.317-.06.317-.186S443.314,304.128,443.427,304.172Z" transform="translate(-337.809 -260.044)" fill="none"/>
        <path id="Path_13354" data-name="Path 13354" d="M441.848,305.732c.113.118.344.113.349-.1S441.746,305.627,441.848,305.732Z" transform="translate(-336.648 -261.212)" fill="none"/>
        <path id="Path_13355" data-name="Path 13355" d="M292.019,145.362a.506.506,0,0,0-.289.178c.126.275,1.293-.278,1.3-.359C293.047,144.816,292.084,145.257,292.019,145.362Z" transform="translate(-225.926 -142.823)" fill="none"/>
        <path id="Path_13356" data-name="Path 13356" d="M298.144,146.687c0-.157-.47.016-.378.05S298.144,146.844,298.144,146.687Z" transform="translate(-230.37 -143.991)" fill="none"/>
        <path id="Path_13357" data-name="Path 13357" d="M289.819,145.5a1.249,1.249,0,0,1,.525-.11c.058-.16-1.049,0-1.007.089a.328.328,0,0,0,.483.021Z" transform="translate(-224.16 -143.031)" fill="none"/>
        <path id="Path_13358" data-name="Path 13358" d="M292.611,175.159c.262.262.422-.121.559-.176C293.357,174.91,292.129,174.671,292.611,175.159Z" transform="translate(-226.493 -164.82)" fill="none"/>
        <path id="Path_13359" data-name="Path 13359" d="M297.416,158.586a11.92,11.92,0,0,0-1.026,1.144c0,.029.525.464.488.488-.047-.094-.029-.163.05-.2-.05-.013,1.312,1.128,1.362.477.016-.173-.6-.548-.619-.787s.239-.5.341-.719a3.759,3.759,0,0,1,.611-.808c.4-.37,3.3-1.587,3.175-1.7-.307-.262-2.886.582-3.319.845A11.2,11.2,0,0,0,297.416,158.586Z" transform="translate(-229.364 -151.226)" fill="none"/>
        <path id="Path_13360" data-name="Path 13360" d="M406.268,161.007a.816.816,0,0,0,.729-.16C407.061,160.167,404.062,160.847,406.268,161.007Z" transform="translate(-309.815 -154.265)" fill="none"/>
        <path id="Path_13361" data-name="Path 13361" d="M398.826,163.453c0-.147-.491.055-.286.129C398.647,163.621,398.826,163.6,398.826,163.453Z" transform="translate(-304.676 -156.368)" fill="none"/>
        <path id="Path_13362" data-name="Path 13362" d="M351.12,150.4c.178.113,1.8-.157,1.852-.475s-.937-.409-.905-.16C351.876,148.343,351.351,150.541,351.12,150.4Z" transform="translate(-269.734 -145.954)" fill="none"/>
        <path id="Path_13363" data-name="Path 13363" d="M345.217,147.767a.865.865,0,0,0-.207.3c.454.436,1.558.769,1.653,0C346.744,147.413,345.217,147.6,345.217,147.767Z" transform="translate(-265.227 -144.717)" fill="none"/>
        <path id="Path_13364" data-name="Path 13364" d="M343.113,145.082c.291.136-.262.152-.294.168-.157.079.585.037.719-.016s1.115-.344.937-.569C343.74,143.762,342.968,145.017,343.113,145.082Z" transform="translate(-263.595 -142.307)" fill="none"/>
        <path id="Path_13365" data-name="Path 13365" d="M365.8,162.748c-.207.457.365.136.37.06a.241.241,0,0,0-.37-.06Z" transform="translate(-280.532 -155.841)" fill="none"/>
        <path id="Path_13366" data-name="Path 13366" d="M300,144.556c.147.16,1.023.178,1.049-.108.013-.1-.729-.228-.774-.22C300.422,144.207,300.087,144.642,300,144.556Z" transform="translate(-232.027 -142.225)" fill="none"/>
        <path id="Path_13367" data-name="Path 13367" d="M341.88,144.264c.037-.147-.561-.084-.4.06C341.531,144.375,341.856,144.414,341.88,144.264Z" transform="translate(-262.601 -142.19)" fill="none"/>
        <path id="Path_13368" data-name="Path 13368" d="M444.425,170.688c.039.031.834-.024.677-.21-.37-.443-1.168.189-1.11.22C444.136,170.691,444.28,170.688,444.425,170.688Z" transform="translate(-338.238 -161.472)" fill="none"/>
        <path id="Path_13369" data-name="Path 13369" d="M394.849,159.518a1.4,1.4,0,0,0,.981.2c.233-.045.861-.409.622-.5.115.042.443.787.638.213.16-.485-.3-.37-.711-.506-.037,0-.787-.029-.787-.029C395.715,158.872,394.156,159.137,394.849,159.518Z" transform="translate(-301.859 -153.044)" fill="none"/>
        <path id="Path_13370" data-name="Path 13370" d="M399.863,165.014c.478-.115-1.233-.687-.9-.157C399.071,165.027,399.706,165.054,399.863,165.014Z" transform="translate(-304.995 -157.278)" fill="none"/>
        <path id="Path_13371" data-name="Path 13371" d="M279.412,161.846l.341.079c.087,0-.113-.118-.087-.134-.1.063.6-.181.443-.241,0,0-1.385-.832-1.4-.543.021-.32.142.525.094.365-.262-.85-2-1.781-2.973-1.991a3.961,3.961,0,0,0-1.8.052c.029,0,.223.417-.045.582-.123.076-.708-.443-.575-.506s.312.228.346-.05c.029-.223-1.141.089-1.312.115a6.76,6.76,0,0,1-.847-.068c-.367-.034-.173.291-.323.367.129-.063-.475-.588-.47-.582-.525-.451-.454-.525-1.443-.611-.3-.024-1.784,0-1.934-.451-.045-.131.449.029.317-.192-.289-.485-1.472.071-1.482.121.081-.05.163-.1.239-.163a1.559,1.559,0,0,0-.344-.115c-.1-.165.464,0,.478-.089.087-.509-2.464-.207-2.212.139a.262.262,0,0,0,.241,0c-.163-.089.031.617.013.4,0,.039-.58-.066-.674,0a.525.525,0,0,0,.173.115s-1.611-.3-1.718-.331-.294.672-.538.656c-.359-.021-.638-.884-.821-.871a.669.669,0,0,0,.328.066c.459-.262-1.149-1.225-1.49-1.152-.262.052-.3.588-.4.6-.134.024-1.422-.031-1.464-.181-.024-.081.173-.184.089-.2a3.612,3.612,0,0,0-1.606.178c-.11,0,.021-.388-.142-.417-.079-.013-1.165,0-1.068.123.06.021.121.037.184.052.016.144-1.362.365-1.391.441.3-.763,2.527-.965,2.343-1.758-.052-.236.094-.438-.4-.672-.63-.3-1.1.176-1.661.037a1.527,1.527,0,0,1,.22-.312c0,.063-.787-.15-.887-.113.068-.026.546-.108.438-.262-.359-.548-1.189.15-1.493.37.155-.113-.58.861-.6.4a1.332,1.332,0,0,0,.2.168c.031-.1-.845.089-.889.073.026-.063.055-.126.084-.189a6.1,6.1,0,0,0-.979.189.294.294,0,0,0,.184.136,7.005,7.005,0,0,0-1.574.438c-.344.16-.168.144-.315.344l-.262-.016c-.029.034.3.186.3.218a1.333,1.333,0,0,1-.228.013s.359.215.2.365c-.1.092-.661.042-.824.076-2.262.478,0,.63-.438,1.228-.173.239-1.312-.748-1.637-.417-.029.026.365.3.278.325-.173.05-.436-.2-.559.037-.1.192.8.493.729.577,0,0-.95-.2-.963-.213-.189-.213.325-.826-.076-.963s-.638,1.8-.475,2.02c.433.588,1.238.278,1.509,1.173.144.467-.826-.664-.4-.483-.289-.126-.194-.375-.577-.307-.543.092-.026.4-.228.661-.239.3-.561.74-.892.813-.092.021-.905-.021-.832-.231,0,.029,1.076-.108,1.257-.716.113-.383-.079-.69-.16-1.128-.024-.126.037-1.451.042-1.438-.638-1.049-1.708.147-1.763.895.016-.2-.024.787-.071.656,0,0,1.16.742.485.853-.472.081-2.39-1.6-2.973-1.267.155-.089,1.034,1.514.184,1.17-.333-.136.013-.168-.756-.1a6.4,6.4,0,0,1-1.133.129c.094-.079.262-.152.247-.346a11.63,11.63,0,0,1-1.837.745c-.31.136-.244.716-.816.331s.291-.365.359-.449c.262-.312-1.049-.651-1.01-.454-.013-.055.312.989.063.811.619.443-.1.4-.139.43-.714.572-.714-.045-.855.979-.024.173-.59-.173-.68-.1l-.346-.226c-.21.1-.241.223-.094.38.346-.2.459.75-.144.275-.15-.118-.968-1.915-1.3-1.75.231-.115,3.621,1.5,2.584-.362-.2-.357-2.306-1.249-2.487-1.026a.433.433,0,0,0,.226-.079c-.029-.247-.546,0-.6-.052-.139-.155-.478.194-.58-.189.018.073.548-.071.561-.142.115-.619-.971-.068-.837-.063-.108,0,.058-.333.047-.352-.22-.42-.407.359-.525.359-.045,0,.029-.37-.047-.32l-.433.467c-.157.034.3-.509.3-.525-.045-.281-.525.262-.525.262.15-.129-.606.43-.383.362-.291.089.076-.656.113-.525.016.063-.443.052-.436.163a.449.449,0,0,1,.126.228,1.007,1.007,0,0,0-.344-.013.4.4,0,0,0,.171.168,1.225,1.225,0,0,1-.4-.139c.016,0,.126.415,0,.333-.226-.147-.178-.386-.491-.249a3.13,3.13,0,0,0-.64.548c.01.071.307-.063.262.189a3.9,3.9,0,0,0-.525.024c.021-.092.045-.184.073-.275a10.725,10.725,0,0,1-.905.8c.233.013.771-.588,1.021-.354,0,0-.037.262-.042.262-.706.286-.916,1.448-1.574,1.737-.055.026.262.241.16.286-.375.147-.378.291-.69.548-.024.018-.234-.262-.262-.089-.037.375-.223.084-.409.365a.241.241,0,0,0,.16.134c-.2-.443-.711.716-.7.627-.115.7.341.467.378.588.1.359-.417.189-.394.171a1.909,1.909,0,0,0-.052.317c0,.129.281-.144.333,0,.034.094-.176.194-.2.236-.354.538,1.189.123,1.007.163.249-.055.378-.449.525-.525.084-.052.753,2.033.819,2.057.315.118.971-.84,1.076-.868q-.063.165-.165.079c.06-.561.729-1,.727-1.43,0-.559-.632-.294-.428-1.115.115-.47.483-.525.724-.853.194-.262.512-1.065.874-1.186,1.7-.559-.391,1.417-.446,1.516a2.351,2.351,0,0,0,.084,1.325c.47.472,1.37.123,1.889-.018a1.165,1.165,0,0,1,.144-.2,1.311,1.311,0,0,0-.144.2,1.215,1.215,0,0,1,.585.231c.113.136-1.454.307-1.385.262-1.007.483-.034.464-.289.753-.3.48-.362.115-.488.218-.042.034-.787.092-.512.648.262.606-.262.753-.6.876.029,0-.876.087-1.094.115-.472.058-.223.123-.454-.2-.1-.139-.651.38-.753.3a.438.438,0,0,1,0-.226c-.129-.034-.525,0-.485-.344,0-.063.346.181.373.029.052-.289-.163-.1-.247-.228-.039-.063.373-.758.157-.994-.144-.16-.386.383-.386.383-.155.155-.307-.123-.328.525,0,.207.4.68.3.882-.079.155-.945.315-1.1.42a7.569,7.569,0,0,0-.813.813,4.169,4.169,0,0,1-.554.548,4.625,4.625,0,0,1-.837.092c-.176.1.165.375,0,.509s-.635-.286-.745-.079c-.3.556.15.134.412.556.362.58.926,1.27.084,1.7-.391.2-1.349-.315-1.666-.142-.6.325-.131.3-.262.853-.262,1.131-.234,1.606.7,1.907a1.6,1.6,0,0,0,1.879-.648c.43-.577.687-1.574,1.343-1.986a5.569,5.569,0,0,0,1.246-.176c.651.031.244-.06.8.373-.018-.013,2.149,1.97,1.532,1.97.349,0,.228-.876.262-.9a.436.436,0,0,1,.388.129c-.231-.068-2.385-2.361-1.335-2.325.144,0,1.272,1.28,1.629,1.485a.44.44,0,0,1,.024-.084.44.44,0,0,0-.024.084c-.352-.207.942,1.973.942,1.464,0-.449-.582,1.112.181.69a.921.921,0,0,0-.055-.336.391.391,0,0,0,.213,0c.11-.139-.231-.121-.163-.192s.436.134.386-.157c-.063-.354-.262,0-.386-.142.042.047-.055-.7-.115-.677a1.971,1.971,0,0,0,.367.071c.2-.089,1.286-.081,1.548-.344-.068.068-.433-.58-.409-.706a4.268,4.268,0,0,1,.525-.819c.123-.176.181-.582.438-.7.163-.076.887-.047.926.173a1.59,1.59,0,0,1-.4.247c-.013-.076.328.42.32.409s.931-.247.945-.262c.055-.094-.85-.042-.415-.506.1-.108,1.118-.488,1.189-.331.016.034-.714.722-.69.842.1.457,1.493.7,1.446,1.2-.063.672-.863.436-1.333.428-.2,0-.359-.226-.554-.239a4.279,4.279,0,0,0-1.624.278c-.787.215-1.64.617-.74,1.537.425.43.837.249,1.312.262a6.443,6.443,0,0,1,1.244-.123c.129.084-.278,1.217-.328,1.338l.157.073h0v0l-.152-.071c-.47,1.118-1.385.889-2.563.669-.315-.06-.564-.21-.876-.262-.509-.068-.244-.483-.913-.131-.223.118-.16.564-.184.575a4.381,4.381,0,0,1-2.558-.882c-.443-.457.307-.845-.029-1.312-.2-.289-1.6-.031-2,.013a8.1,8.1,0,0,0-1.435.375c-.485.139-.884.1-1.338.218-.386.1-.231-.06-.572.121.359-.189-.769.84-.63.619-.171.262-.307.577-.464.853-.126.215-.092.5-.3.805-.134.2-.4.228-.556.388a5.449,5.449,0,0,0-.989,1.587c-.262.666-.1.771-.129,1.354-.021.54-.192,1.118-.173,1.653a2.284,2.284,0,0,0,.569,1.283,3.71,3.71,0,0,0,2.642,2.136,5.549,5.549,0,0,0,1.934-.262c.079-.021.908-.485.994-.375a7.659,7.659,0,0,0,.7.378c.108.052.066.317.207.38s.3-.15.415-.076c.656.415.4.055.737.811.063.168-.129.7-.126.787.013.68.262.787.664,1.469a4.694,4.694,0,0,1,.653,2.325c-.094.7-.6,1.293-.635,2.054-.05.512.677,1.713.787,2.246a17.461,17.461,0,0,0,.813,2.445c.436,1.23.063,1.5,1.443,1.328a3.107,3.107,0,0,0,2.781-1.9,6.664,6.664,0,0,0,.247-1.063c.467-.687.758-.312.889-1.207.092-.638-.3-.635.039-1.246.278-.491,1.049-.564,1.333-1.007.611-.916-.021-1.928-.2-2.862a2.756,2.756,0,0,1,1-2.451c.283-.307,3.652-3.857,2.605-4.245-.724-.262-1.524.763-2.348.239h0a6.716,6.716,0,0,0-.606-1.157,5.441,5.441,0,0,1-1.126-1.54c-.1-.262-1.461-4.009-1.506-3.993.079-.029.3.868.506.868a1.469,1.469,0,0,0,.186-.472,11.1,11.1,0,0,1,.979,1.837c.375.771.858,1.451,1.228,2.254.173.37.134,1.191.391,1.469.346.378,1.089,0,1.611-.228a8.707,8.707,0,0,0,2.655-1.611c.066-.071.821-.96.787-1.136s-1.181-1.522-1.034-1.509c-.294-.026-.661.861-1.241.805-.47-.042,0-.627-.281-.711-.126-.039-.22.333-.223.331-.262-.2-.952-1.624-.6-1.818.215-.115,1.5,1.068,1.936,1.265.089.042.525.016.656.05.047,0,.223.283.409.344a5.7,5.7,0,0,0,1.606.1,1.98,1.98,0,0,1,1.107.218c-.066-.031.989.968.989.69a.735.735,0,0,1-.422.157c-.226,1.107,1.33.2,1.049.06.249.126,1.472,7.871,2.33,3.324.239-1.27.661-1.514,1.621-2.466.173-.173,1.312-1.22,1.587-1.07.617.338.525,2.044.858,2.314.68.567.525-1.257.992.708.152.645-.016,1.4.134,1.973.087.331,1.212,2.658,1.763,2.377.394-.2-.682-1.621-.863-1.858-.228-.3-1.2-1.947-.323-2.246.262-.087.845.685.952.805.039.042.485.816.454.787.055.037.672-.556.706-.588.939-.895.582-1.128.042-2.159-.262-.525-.8-1.265.121-1.624.64-.262.417.063.7.359-.055-.058,2.485-1.312,2.747-1.64.163-.2.908-1.852.994-1.837-.084-.026-.336,0-.412-.055.147.1.485-.645-.131-.645,0,0,.525-.037.441.05.047-.052-.787-1.173-.771-1.21.073-.506.677-.525.984-.753.477-.37-1.254-.239-.879-.055a7.744,7.744,0,0,1-.627-.58c0-.11,1.236-.95,1.37-.834.031.026-.315.787-.244.787.971.055.451-.582,1.233-.079-.362-.234.129.609.055.462,0,0,.359.076.422.286.052.165-.262.714-.108.963.066.1.908-.325.934-.362.262-.428-.262-.787-.328-1.17-.118-.808-.2-.013.094-.742a3.605,3.605,0,0,1,.774-1.013h0c.375-.3.428.134.84-.042s.714-.666.96-.976a5.1,5.1,0,0,0,1.063-2.154c.11-.446.4-.986.152-1.372-.475-.756-.564-.063-1.015-.034-.052,0,0-.367,0-.391a1.246,1.246,0,0,0-.239.231c.283-.066-.475-.624-.5-.446.042-.262.84-.8,1.049-1,.666-.622,1-1.1,1.913-1.225a9.372,9.372,0,0,1,2.17.131.671.671,0,0,1-.223.071,3.112,3.112,0,0,0,1.2-.163c-.438-.491,1.049-1.64,1.59-1.267-.071-.047-.045.606-.06.577.06.131,1.574-1.207,1.548-.892-.047.459-1.328,1.527-1.763,1.9-.567.488-.845.42-1.091,1.194a3.9,3.9,0,0,0,.262,2.456c-.058-.066,1.981-2.427,2-2.443-.189.189-.045-.876,0-.722-.115-.344-.491-.278.039-.913a3.644,3.644,0,0,1,.808-.462.307.307,0,0,1,.063.291c-.123-.506,1.312-.042,1.27-.029.262-.068.622-.556.921-.729s1.443-.457,1.537-.548c.766-.729-.422-.685-.588-1.228.063.21,1.091-.194,1.241-.283.215-.126-.079-.344.3-.551-.215.118,1.553,1.391,1.889,1.065a.383.383,0,0,0-.134-.181C279.189,162.326,279.467,161.891,279.412,161.846Z" transform="translate(-170.895 -149.527)" fill="none"/>
        <path id="Path_13372" data-name="Path 13372" d="M306.956,145.079c.262-.388-1.2-.173-.866.118a.871.871,0,0,0,.866-.118Z" transform="translate(-236.482 -142.698)" fill="none"/>
        <path id="Path_13373" data-name="Path 13373" d="M302.43,146.3c-.136.058-.275.11-.417.155-.184.207.931.173,1-.066C303.059,146.249,302.417,146.264,302.43,146.3Z" transform="translate(-233.496 -143.736)" fill="none"/>
        <path id="Path_13374" data-name="Path 13374" d="M302.376,143.609a2.3,2.3,0,0,0,.559-.218c-.118-.16-.939.155-.955.1a.488.488,0,0,0,.4.118Z" transform="translate(-233.487 -141.574)" fill="none"/>
        <path id="Path_13375" data-name="Path 13375" d="M400.463,206.67c.192.472-.38,1.837-.081,2.22-.2-.262.454.029.459.029s-.262-.787-.247-.819c.236-.525.478-.281.556-.386.142-.194-.7-2.338-.58-2.414C400.24,205.515,400.361,206.423,400.463,206.67Z" transform="translate(-306.006 -187.274)" fill="none"/>
        <path id="Path_13376" data-name="Path 13376" d="M318.388,165.622a.735.735,0,0,0,.467-.118C319.049,165.131,317.981,165.553,318.388,165.622Z" transform="translate(-245.521 -157.807)" fill="none"/>
        <path id="Path_13377" data-name="Path 13377" d="M328.825,166.366c-.018-.157-.349.047-.233.11S328.843,166.526,328.825,166.366Z" transform="translate(-253.099 -158.512)" fill="none"/>
        <path id="Path_13378" data-name="Path 13378" d="M310.523,144.746l.262-.144c.087-.3-.811.071-.787.115A.708.708,0,0,0,310.523,144.746Z" transform="translate(-239.402 -142.414)" fill="none"/>
        <path id="Path_13379" data-name="Path 13379" d="M426.339,309.3c.018.118.787.75.882.672S426.321,309.177,426.339,309.3Z" transform="translate(-325.219 -263.978)" fill="none"/>
        <path id="Path_13380" data-name="Path 13380" d="M145.569,249.4c-.168-.317.037.632.115.454A3.474,3.474,0,0,1,145.569,249.4Z" transform="translate(-118.065 -219.752)" fill="none"/>
        <path id="Path_13381" data-name="Path 13381" d="M164.651,268.762c.226.05.3-.026.218-.226C164.709,268.39,164.578,268.686,164.651,268.762Z" transform="translate(-132.173 -233.89)" fill="none"/>
        <path id="Path_13382" data-name="Path 13382" d="M360.505,286.186c0-.089-.234-.047-.163.079S360.505,286.276,360.505,286.186Z" transform="translate(-276.527 -246.904)" fill="none"/>
        <path id="Path_13383" data-name="Path 13383" d="M360.714,291.4a.787.787,0,0,0,.359,0c.16-.131-.863-.307-.837-.294a.262.262,0,0,1,.307-.228c-.262.178-2.6-.606-2.445-.055A6.25,6.25,0,0,0,360.714,291.4Z" transform="translate(-274.877 -250.209)" fill="none"/>
        <path id="Path_13384" data-name="Path 13384" d="M375.515,293.337c.231,0,.262-.031.1-.1a5.841,5.841,0,0,0-1.215.147C374.557,293.7,375.313,293.35,375.515,293.337Z" transform="translate(-286.907 -252.142)" fill="none"/>
        <path id="Path_13385" data-name="Path 13385" d="M370.523,293.066c-.087.215-.3-.073-.407.071-.226.3.769.294.855.087C371.024,293.1,370.563,292.969,370.523,293.066Z" transform="translate(-283.723 -251.989)" fill="none"/>
        <path id="Path_13386" data-name="Path 13386" d="M361.374,276.38c.677.7.349,1.293,1.469,1.351.929.05.984-.693,1.59-1.451a3.292,3.292,0,0,1-.4-.882c.021-.362.451-.307.525-.548s-.866-.412-.916-.4c-.3.066-.15.6-.672.561-.016,0-.91,1.026-.916,1.034C362.125,275.884,360.9,275.9,361.374,276.38Z" transform="translate(-277.218 -238.28)" fill="none"/>
        <path id="Path_13387" data-name="Path 13387" d="M348.125,280.726c-.016.1.081.386.189.262S348.144,280.629,348.125,280.726Z" transform="translate(-267.524 -242.894)" fill="none"/>
        <path id="Path_13388" data-name="Path 13388" d="M349.805,283.877c-.016.047.081.247.144.186S349.855,283.727,349.805,283.877Z" transform="translate(-268.763 -245.202)" fill="none"/>
        <path id="Path_13389" data-name="Path 13389" d="M349.346,278.751c-.026-.415.207-.3.2-.572,0-.115-.378-.47-.386-.262a1.355,1.355,0,0,1,.191.234c-.079.2-1-1.207-1.049-1.259-.215-.244-2.078-1.679-2.162-1.482a21.155,21.155,0,0,0,1.627,2.555C347.966,278.234,349.43,280.068,349.346,278.751Z" transform="translate(-266.063 -238.975)" fill="none"/>
        <path id="Path_13390" data-name="Path 13390" d="M374.025,295.159c0-.262-.525-.123-.559-.168S374.025,295.406,374.025,295.159Z" transform="translate(-286.217 -253.431)" fill="none"/>
        <path id="Path_13391" data-name="Path 13391" d="M373.293,282.141c-.045.079.567.971.315,1.076.236-.1.026-1.086.262-.971.443.218-.047.829.546.367-.315.244.016-1.632.262-1.1.031.071-1.343.433-1-.129.375-.614,1.21.087,1.537-.593-.2.412-1.013-.089-1.286.094C373.5,281.17,373.53,281.724,373.293,282.141Z" transform="translate(-286.089 -242.958)" fill="none"/>
        <path id="Path_13392" data-name="Path 13392" d="M384.06,286.27a4.348,4.348,0,0,0,.787.218C385.2,286.488,383.9,285.735,384.06,286.27Z" transform="translate(-294.022 -246.859)" fill="none"/>
        <path id="Path_13393" data-name="Path 13393" d="M383.546,280.389c0-.661-.548.7-.045.6C383.845,280.925,383.546,280.376,383.546,280.389Z" transform="translate(-293.463 -242.529)" fill="none"/>
        <path id="Path_13394" data-name="Path 13394" d="M379.125,293.729c.157-.2.677-.231.745-.43.037-.115-.8.262-.876.262-.121.021-.467.278-.262.407A.412.412,0,0,0,379.125,293.729Z" transform="translate(-290.055 -252.168)" fill="none"/>
        <path id="Path_13395" data-name="Path 13395" d="M381.733,286.649c.034.157.3.247.367.11S381.691,286.468,381.733,286.649Z" transform="translate(-292.314 -247.219)" fill="none"/>
        <path id="Path_13396" data-name="Path 13396" d="M246.454,226.514c-.084.155.1,1.049.449.606C247.186,226.761,246.669,226.105,246.454,226.514Z" transform="translate(-192.515 -202.827)" fill="none"/>
        <path id="Path_13397" data-name="Path 13397" d="M252.232,230.835c.063-.016-.693-.068-.624.134a2.225,2.225,0,0,0,.661.422,4.647,4.647,0,0,1,.207-.525A.192.192,0,0,0,252.232,230.835Z" transform="translate(-196.327 -206.087)" fill="none"/>
        <path id="Path_13398" data-name="Path 13398" d="M370.841,161.88a2.941,2.941,0,0,0-2.941,2.941c0,1.469,2.713,4.927,2.713,4.927h.228s2.944-3.3,2.944-4.927A2.941,2.941,0,0,0,370.841,161.88Zm0,4.379a1.435,1.435,0,1,1,1.017-.42,1.438,1.438,0,0,1-1.017.42Z" transform="translate(-287.112 -108.246)" fill="#263238"/>
        <path id="Path_13399" data-name="Path 13399" d="M124.419,252.33a1.629,1.629,0,0,0-1.629,1.632c0,.813,1.5,2.731,1.5,2.731h.126s1.632-1.837,1.632-2.731a1.629,1.629,0,0,0-1.632-1.632Zm0,2.427a.787.787,0,1,1,.787-.787.787.787,0,0,1-.787.787Z" transform="translate(-101.31 -221.965)" fill="#263238"/>
        <path id="Path_13400" data-name="Path 13400" d="M312.377,167.54a1.787,1.787,0,0,0-1.787,1.787c0,.889,1.648,2.988,1.648,2.988h.139s1.784-2,1.784-2.988a1.784,1.784,0,0,0-1.784-1.787Zm0,2.658a.874.874,0,1,1,.871-.871A.874.874,0,0,1,312.377,170.2Z" transform="translate(-239.838 -159.421)" fill="#263238"/>
        <path id="Path_13401" data-name="Path 13401" d="M150.905,294.31a1.335,1.335,0,0,0-1.335,1.338c0,.664,1.23,2.235,1.23,2.235h.1s1.335-1.5,1.335-2.235a1.335,1.335,0,0,0-1.335-1.338Zm0,1.989a.653.653,0,1,1,.653-.651A.653.653,0,0,1,150.905,296.3Z" transform="translate(-121.064 -252.931)" fill="#263238"/>
        <path id="Path_13402" data-name="Path 13402" d="M360.477,223.84a1.784,1.784,0,0,0-1.787,1.784c0,.892,1.648,2.991,1.648,2.991h.139s1.784-2,1.784-2.991a1.784,1.784,0,0,0-1.784-1.784Zm0,2.658a.362.362,0,1,1,0,.008Z" transform="translate(-353.318 -188.95)" fill="#263238"/>
        <path id="Path_13403" data-name="Path 13403" d="M392.407,293.13a1.787,1.787,0,0,0-1.787,1.787c0,.892,1.648,2.991,1.648,2.991h.139s1.784-2,1.784-2.991a1.784,1.784,0,0,0-1.784-1.787Zm0,2.658a.871.871,0,1,1,.871-.871A.871.871,0,0,1,392.407,295.788Z" transform="translate(-298.871 -252.06)" fill="#263238"/>
        <path id="Path_13404" data-name="Path 13404" d="M121.324,213.62a1.787,1.787,0,0,0-1.784,1.787c0,.889,1.648,2.991,1.648,2.991h.136s1.787-2,1.787-2.991a1.787,1.787,0,0,0-1.787-1.787Zm0,2.658a.871.871,0,1,1,.618-.254.871.871,0,0,1-.618.254Z" transform="translate(-114.913 -152.411)" fill="#263238"/>
        <path id="Path_13405" data-name="Path 13405" d="M255.624,163.44a1.784,1.784,0,0,0-1.784,1.784c0,.892,1.648,2.991,1.648,2.991h.136s1.787-2,1.787-2.991a1.784,1.784,0,0,0-1.787-1.784Zm0,2.658a.874.874,0,1,1,.874-.874.874.874,0,0,1-.874.874Z" transform="translate(-159.977 -94.397)" fill="#263238"/>
        <path id="Path_13406" data-name="Path 13406" d="M73.247,168.24a1.787,1.787,0,0,0-1.787,1.787c0,.889,1.648,2.991,1.648,2.991h.139s1.784-2,1.784-2.991a1.784,1.784,0,0,0-1.784-1.787Zm0,2.658a.871.871,0,1,1,.871-.871A.871.871,0,0,1,73.247,170.9Z" transform="translate(-63.447 -159.937)" fill="#263238"/>
        <path id="Path_13407" data-name="Path 13407" d="M53,196.261c0-28.837,23.613-52.211,52.735-52.211s52.735,23.374,52.735,52.211" transform="translate(-49.831 -142.094)" fill="none"/>
      </g>
      <g id="package_2_" data-name="package (2)" transform="translate(60.595 94.69)">
        <path id="Path_11581" data-name="Path 11581" d="M80.305,15.3a15.3,15.3,0,0,0-3.677-9.951.556.556,0,0,0-.845.724,14.19,14.19,0,0,1,3.4,8.671H70.471A34.261,34.261,0,0,0,69.006,4.7a8.865,8.865,0,0,0-1.855-3.423,14.178,14.178,0,0,1,7.135,3.294l1.558,1.592.576-.124.209-.686L75.015,3.73A15.3,15.3,0,0,0,49.7,15.3a.555.555,0,0,0,.269.476l.007,0,13.3,7.565h1.6l1.634.267s8.814-4.337,13.514-7.832l.007,0A.556.556,0,0,0,80.305,15.3Zm-19.26.556H68.96L65,22.783Zm-1.281,0,3.725,6.519L52.314,15.859Zm10.477,0h7.45L66.516,22.378Zm-.883-1.113H60.647c.1-8.063,2.34-13.634,4.355-13.634S69.259,6.683,69.358,14.746Zm-6.5-13.471A8.86,8.86,0,0,0,61,4.7a34.26,34.26,0,0,0-1.464,10.047H50.823A14.215,14.215,0,0,1,62.856,1.275Z" transform="translate(-49.7 0)" fill="#0a53f6"/>
      </g>
      <g id="freepik--Box--inject-315" transform="translate(33.363 100.494)">
        <path id="Path_13450" data-name="Path 13450" d="M212.61,204.1s.732,2.311,4.04,2.311,2.91-2.248,9.393-2.778,10.321,6.218,10.321,6.218" transform="translate(-185.865 -193.415)" fill="none"/>
        <rect id="Rectangle_5579" data-name="Rectangle 5579" width="36.424" height="23.621" transform="translate(18.756 27.614)" fill="#407bff"/>
        <path id="Path_13451" data-name="Path 13451" d="M218.584,238.764H182.16l5.961-11.114h36.424Z" transform="translate(-163.404 -211.15)" fill="#407bff"/>
        <line id="Line_1320" data-name="Line 1320" x2="0.262" transform="translate(21.936 21.923)" fill="none"/>
        <line id="Line_1321" data-name="Line 1321" x2="35.018" transform="translate(22.716 21.923)" fill="none"/>
        <line id="Line_1322" data-name="Line 1322" x2="0.262" transform="translate(57.993 21.923)" fill="none"/>
        <path id="Path_13452" data-name="Path 13452" d="M326.951,227.65v23.24l-5.961,11.5V238.764Z" transform="translate(-265.809 -211.15)" fill="#90caf9"/>
        <g id="Group_8331" data-name="Group 8331" transform="translate(55.181 16.5)">
          <path id="Path_13453" data-name="Path 13453" d="M326.951,227.65v23.24l-5.961,11.5V238.764Z" transform="translate(-320.99 -227.65)" fill="#0a53f6"/>
        </g>
        <path id="Path_13455" data-name="Path 13455" d="M326.951,227.65v23.24l-5.961,11.5V238.764Z" transform="translate(-265.809 -211.15)" fill="none"/>
        <path id="Path_13456" data-name="Path 13456" d="M238.58,238.764h5.205l5.6-11.114h-5.2Z" transform="translate(-205.021 -211.15)" fill="#fff"/>
        <path id="Path_13457" data-name="Path 13457" d="M243.822,279.864l-2.555-1.844-2.687,1.844V270.01h5.242Z" transform="translate(-205.021 -242.396)" fill="#fff"/>
        <line id="Line_1323" data-name="Line 1323" x1="1.721" transform="translate(15.173 16.705)" fill="none"/>
        <line id="Line_1324" data-name="Line 1324" x1="5.161" transform="translate(18.216 16.705)" fill="none"/>
        <line id="Line_1325" data-name="Line 1325" x1="8.202" transform="translate(10.014 27.422)" fill="none"/>
        <line id="Line_1326" data-name="Line 1326" x1="1.189" transform="translate(10.014 38.006)" fill="none"/>
        <line id="Line_1327" data-name="Line 1327" x1="5.688" transform="translate(12.528 38.006)" fill="none"/>
        <line id="Line_1328" data-name="Line 1328" x1="3.97" transform="translate(14.246 32.053)" fill="none"/>
        <line id="Line_1329" data-name="Line 1329" x1="3.97" transform="translate(18.085 20.013)" fill="none"/>
        <line id="Line_1330" data-name="Line 1330" x1="3.97" transform="translate(14.246 46.738)" fill="none"/>
      </g>
      <g id="freepik--Floor--inject-315" transform="translate(14 148.604)">
        <line id="Line_1331" data-name="Line 1331" x2="123.049" transform="translate(0)" fill="none"/>
      </g>
    </g>
  </g>
</svg>
