<svg xmlns="http://www.w3.org/2000/svg" width="122.26" height="91.099" viewBox="0 0 122.26 91.099">
  <g id="Add_to_Cart-rafiki" data-name="Add to Cart-rafiki" transform="translate(0 -55)">
    <g id="freepik--background-complete--inject-134" transform="translate(0 55)">
      <rect id="Rectangle_5719" data-name="Rectangle 5719" width="122.26" height="0.061" transform="translate(0 80.056)" fill="#ebebeb"/>
      <rect id="Rectangle_5720" data-name="Rectangle 5720" width="8.099" height="0.061" transform="translate(25.562 81.721)" fill="#ebebeb"/>
      <rect id="Rectangle_5721" data-name="Rectangle 5721" width="9.964" height="0.061" transform="translate(41.847 83.961)" fill="#ebebeb"/>
      <rect id="Rectangle_5722" data-name="Rectangle 5722" width="12.49" height="0.061" transform="translate(12.828 83.196)" fill="#ebebeb"/>
      <rect id="Rectangle_5723" data-name="Rectangle 5723" width="22.775" height="0.061" transform="translate(87.235 82.132)" fill="#ebebeb"/>
      <rect id="Rectangle_5724" data-name="Rectangle 5724" width="1.548" height="0.061" transform="translate(83.511 82.132)" fill="#ebebeb"/>
      <rect id="Rectangle_5725" data-name="Rectangle 5725" width="10.326" height="0.061" transform="translate(67.784 83.164)" fill="#ebebeb"/>
      <path id="Path_14144" data-name="Path 14144" d="M86.818,124.151H39.6a1.4,1.4,0,0,1-1.394-1.4V56.384A1.4,1.4,0,0,1,39.6,55H86.818a1.4,1.4,0,0,1,1.4,1.4v66.358A1.4,1.4,0,0,1,86.818,124.151ZM39.6,55.049a1.335,1.335,0,0,0-1.333,1.335v66.37a1.335,1.335,0,0,0,1.333,1.335H86.818a1.338,1.338,0,0,0,1.335-1.335V56.384a1.338,1.338,0,0,0-1.335-1.335Z" transform="translate(-28.867 -55)" fill="#ebebeb"/>
      <path id="Path_14145" data-name="Path 14145" d="M303.113,124.151H255.9a1.4,1.4,0,0,1-1.4-1.4V56.384A1.4,1.4,0,0,1,255.9,55h47.217a1.4,1.4,0,0,1,1.391,1.384v66.37A1.4,1.4,0,0,1,303.113,124.151ZM255.9,55.049a1.338,1.338,0,0,0-1.335,1.335v66.37a1.338,1.338,0,0,0,1.335,1.335h47.217a1.338,1.338,0,0,0,1.335-1.335V56.384a1.338,1.338,0,0,0-1.335-1.335Z" transform="translate(-192.269 -55)" fill="#ebebeb"/>
      <rect id="Rectangle_5726" data-name="Rectangle 5726" width="15.713" height="24.997" transform="translate(88.871 17.811)" fill="#e0e0e0"/>
      <rect id="Rectangle_5727" data-name="Rectangle 5727" width="16.248" height="24.997" transform="translate(89.284 17.811)" fill="#f5f5f5"/>
      <rect id="Rectangle_5728" data-name="Rectangle 5728" width="21.352" height="13.524" transform="translate(90.646 40.987) rotate(-90)" fill="#fff"/>
      <rect id="Rectangle_5729" data-name="Rectangle 5729" width="4.529" height="25.195" transform="translate(86.365 54.132)" fill="#f0f0f0"/>
      <rect id="Rectangle_5730" data-name="Rectangle 5730" width="19.933" height="0.729" transform="translate(87.235 79.327)" fill="#f0f0f0"/>
      <rect id="Rectangle_5731" data-name="Rectangle 5731" width="17.146" height="25.195" transform="translate(108.037 79.327) rotate(180)" fill="#f5f5f5"/>
      <path id="Path_14146" data-name="Path 14146" d="M392.339,282.4v10.133H379.245V282.4h1.13a2.14,2.14,0,0,0,2.11,1.851H389.1a2.142,2.142,0,0,0,2.113-1.851h1.127m.245-.245h-1.6a1.883,1.883,0,0,1-1.885,1.851h-6.612a1.883,1.883,0,0,1-1.883-1.851H379v10.622h13.583Z" transform="translate(-286.327 -226.614)" fill="#ebebeb"/>
      <path id="Path_14147" data-name="Path 14147" d="M392.339,330.445v10.133H379.245V330.445h1.13a2.144,2.144,0,0,0,2.11,1.851H389.1a2.147,2.147,0,0,0,2.113-1.851h1.127m.245-.245h-1.6a1.885,1.885,0,0,1-1.885,1.851h-6.612A1.885,1.885,0,0,1,380.6,330.2H379v10.622h13.583Z" transform="translate(-286.327 -262.908)" fill="#ebebeb"/>
      <rect id="Rectangle_5732" data-name="Rectangle 5732" width="4.529" height="25.195" transform="translate(67.877 54.132)" fill="#f0f0f0"/>
      <rect id="Rectangle_5733" data-name="Rectangle 5733" width="19.933" height="0.729" transform="translate(68.747 79.327)" fill="#f0f0f0"/>
      <rect id="Rectangle_5734" data-name="Rectangle 5734" width="17.146" height="25.195" transform="translate(89.548 79.327) rotate(180)" fill="#f5f5f5"/>
      <path id="Path_14148" data-name="Path 14148" d="M316.729,282.4v10.133H303.635V282.4h1.127a2.142,2.142,0,0,0,2.113,1.851h6.614A2.142,2.142,0,0,0,315.6,282.4h1.127m.245-.245h-1.6a1.883,1.883,0,0,1-1.885,1.851h-6.614a1.883,1.883,0,0,1-1.885-1.851h-1.6v10.622h13.583Z" transform="translate(-229.205 -226.615)" fill="#ebebeb"/>
      <path id="Path_14149" data-name="Path 14149" d="M316.729,330.444v10.133H303.635V330.444h1.127a2.147,2.147,0,0,0,2.113,1.851h6.614a2.147,2.147,0,0,0,2.113-1.851h1.127m.245-.245h-1.6a1.885,1.885,0,0,1-1.885,1.851h-6.614a1.885,1.885,0,0,1-1.885-1.851h-1.6v10.622h13.583Z" transform="translate(-229.205 -262.907)" fill="#ebebeb"/>
      <rect id="Rectangle_5735" data-name="Rectangle 5735" width="2.35" height="26.159" transform="translate(53.005 53.895)" fill="#e6e6e6"/>
      <rect id="Rectangle_5736" data-name="Rectangle 5736" width="1.631" height="26.159" transform="translate(54.465 53.895)" fill="#f0f0f0"/>
      <rect id="Rectangle_5737" data-name="Rectangle 5737" width="22.745" height="2.888" transform="translate(56.096 56.785) rotate(180)" fill="#f0f0f0"/>
      <rect id="Rectangle_5738" data-name="Rectangle 5738" width="2.35" height="23.271" transform="translate(31.805 56.783)" fill="#e6e6e6"/>
      <rect id="Rectangle_5739" data-name="Rectangle 5739" width="1.631" height="23.271" transform="translate(33.265 56.783)" fill="#f0f0f0"/>
      <rect id="Rectangle_5740" data-name="Rectangle 5740" width="2.35" height="23.271" transform="translate(15.08 56.783)" fill="#e6e6e6"/>
      <rect id="Rectangle_5741" data-name="Rectangle 5741" width="1.631" height="23.271" transform="translate(16.539 56.783)" fill="#f0f0f0"/>
      <rect id="Rectangle_5742" data-name="Rectangle 5742" width="2.35" height="23.271" transform="translate(38.133 56.783)" fill="#e6e6e6"/>
      <rect id="Rectangle_5743" data-name="Rectangle 5743" width="1.631" height="23.271" transform="translate(39.593 56.783)" fill="#f0f0f0"/>
      <rect id="Rectangle_5744" data-name="Rectangle 5744" width="18.273" height="2.888" transform="translate(15.08 53.895)" fill="#e6e6e6"/>
      <rect id="Rectangle_5745" data-name="Rectangle 5745" width="57.299" height="31.9" transform="translate(18.209 5.969)" fill="#e0e0e0"/>
      <rect id="Rectangle_5746" data-name="Rectangle 5746" width="60.157" height="31.9" transform="translate(18.498 5.969)" fill="#f5f5f5"/>
      <rect id="Rectangle_5747" data-name="Rectangle 5747" width="29.934" height="58.191" transform="translate(77.672 6.952) rotate(90)" fill="#fff"/>
      <path id="Path_14150" data-name="Path 14150" d="M120.011,113.364,131,83.43H112.866L101.88,113.364Z" transform="translate(-76.968 -76.478)" fill="#f5f5f5"/>
      <path id="Path_14151" data-name="Path 14151" d="M205.146,113.364,216.132,83.43H202.456L191.47,113.364Z" transform="translate(-144.652 -76.478)" fill="#f5f5f5"/>
      <path id="Path_14152" data-name="Path 14152" d="M84.6,252.15v.643h.411l.34,5.044h5.013l.34-5.044h.411v-.643Z" transform="translate(-63.914 -203.943)" fill="#e6e6e6"/>
      <path id="Path_14153" data-name="Path 14153" d="M90.634,190.024c-.081-2.819,2.587-3.149,6.093-2.636,3.333.489,4.2-.978,4.2-.978s.831,6.7-3.685,8.275C92.95,196.181,90.723,192.848,90.634,190.024Z" transform="translate(-68.471 -154.278)" fill="#e6e6e6"/>
      <path id="Path_14154" data-name="Path 14154" d="M76.249,215.2c-.665-.978-2.709-1.91-4.328,1.257-1.171,2.289-2.651,1.433-2.651,1.433s2.69,4.013,5.79,2.756C78.007,219.452,77.42,216.933,76.249,215.2Z" transform="translate(-52.332 -175.328)" fill="#e6e6e6"/>
      <path id="Path_14155" data-name="Path 14155" d="M100.912,233.358c.164-.807,1.223-1.941,3.1-.355,1.355,1.147,2.071.208,2.071.208s-.648,3.277-2.956,3.3C100.929,236.535,100.618,234.772,100.912,233.358Z" transform="translate(-76.166 -188.875)" fill="#e6e6e6"/>
      <path id="Path_14156" data-name="Path 14156" d="M93.171,213.124a.183.183,0,0,1-.139-.064c-.345-.406-.064-1.382.325-2.729.489-1.731,1.125-3.885.6-5.448a21.943,21.943,0,0,0-1.022-2.416c-.734-1.575-1.389-2.934-.851-4.357a.181.181,0,0,1,.245-.108.186.186,0,0,1,.108.245c-.489,1.274.1,2.509.841,4.071a23.124,23.124,0,0,1,1.037,2.445c.562,1.673-.076,3.885-.592,5.666-.3,1.049-.616,2.135-.4,2.391a.183.183,0,0,1-.022.259A.176.176,0,0,1,93.171,213.124Z" transform="translate(-69.416 -163.024)" fill="#e6e6e6"/>
    </g>
    <g id="freepik--Shadow--inject-134" transform="translate(13.72 140.563)">
      <ellipse id="freepik--path--inject-134" cx="47.41" cy="2.768" rx="47.41" ry="2.768" fill="#f5f5f5"/>
    </g>
    <g id="freepik--Responsive--inject-223" transform="translate(45.672 56.313)">
      <path id="Path_14520" data-name="Path 14520" d="M296.54,103.8l.512,15.716-12.322-.852Z" transform="translate(-284.216 -101.829)" fill="#407bff" opacity="0.1"/>
      <path id="Path_14521" data-name="Path 14521" d="M86.408,250.345,86.09,238.72l46.157.626Z" transform="translate(-65.344 -200.027)" fill="#407bff" opacity="0.1"/>
      <path id="Path_14522" data-name="Path 14522" d="M139.1,108.95H83.3v35.111a.855.855,0,0,0,.855.855h54.088a.855.855,0,0,0,.855-.855Z" transform="translate(-71.436 -105.578)" fill="#407bff"/>
      <path id="Path_14523" data-name="Path 14523" d="M139.1,108.95H83.3v35.111a.855.855,0,0,0,.855.855h54.088a.855.855,0,0,0,.855-.855Z" transform="translate(-71.436 -105.578)" fill="#fff" opacity="0.7"/>
      <rect id="Rectangle_5854" data-name="Rectangle 5854" width="46.116" height="14.069" rx="2.83" transform="translate(16.709 5.718)" fill="#fff" opacity="0.9"/>
      <rect id="Rectangle_5855" data-name="Rectangle 5855" width="13.966" height="4.104" rx="2.052" transform="translate(48.86 21.943)" fill="#407bff" opacity="0.7"/>
      <rect id="Rectangle_5856" data-name="Rectangle 5856" width="13.966" height="4.104" rx="2.052" transform="translate(32.784 21.943)" fill="#407bff" opacity="0.7"/>
      <rect id="Rectangle_5857" data-name="Rectangle 5857" width="13.966" height="4.104" rx="2.052" transform="translate(16.712 21.943)" fill="#407bff" opacity="0.7"/>
      <path id="Path_14524" data-name="Path 14524" d="M114.265,198.36H101.84a.77.77,0,0,0-.77.77v10.835h13.966V199.13A.77.77,0,0,0,114.265,198.36Z" transform="translate(-52.21 -170.652)" fill="#407bff" opacity="0.3"/>
      <path id="Path_14525" data-name="Path 14525" d="M173.325,198.36H160.9a.77.77,0,0,0-.77.77v10.835h13.977V199.13a.77.77,0,0,0-.781-.77Z" transform="translate(-127.356 -170.652)" fill="#407bff" opacity="0.3"/>
      <path id="Path_14526" data-name="Path 14526" d="M232.375,198.36H219.95a.77.77,0,0,0-.77.77v10.835h13.963V199.13A.77.77,0,0,0,232.375,198.36Z" transform="translate(-202.465 -170.652)" fill="#407bff" opacity="0.3"/>
      <rect id="Rectangle_5858" data-name="Rectangle 5858" width="1.361" height="0.272" transform="translate(50.656 0)" fill="#407bff"/>
      <rect id="Rectangle_5859" data-name="Rectangle 5859" width="3.334" height="0.272" transform="translate(53.22 0)" fill="#407bff"/>
      <path id="Path_14527" data-name="Path 14527" d="M85.728,100.06h50.95a2.42,2.42,0,0,1,2.42,2.433H83.3a2.42,2.42,0,0,1,2.428-2.433Z" transform="translate(-71.435 -99.107)" fill="#407bff"/>
      <path id="Path_14528" data-name="Path 14528" d="M92.33,103.212a.484.484,0,1,0,.482-.482A.484.484,0,0,0,92.33,103.212Z" transform="translate(-28.095 -101.051)" fill="#fff"/>
      <path id="Path_14529" data-name="Path 14529" d="M98.07,103.122a.482.482,0,1,0,.482-.482.482.482,0,0,0-.482.482Z" transform="translate(-35.392 -100.985)" fill="#fff"/>
      <path id="Path_14530" data-name="Path 14530" d="M103.79,103.122a.482.482,0,1,0,.482-.482A.482.482,0,0,0,103.79,103.122Z" transform="translate(-42.669 -100.985)" fill="#fff"/>
      <path id="Path_14531" data-name="Path 14531" d="M274.343,168.38h-21.5v29.9a1.089,1.089,0,0,0,1.089,1.089h19.339a1.089,1.089,0,0,0,1.089-1.089v-29.9Z" transform="translate(-252.84 -148.832)" fill="#407bff"/>
      <path id="Path_14532" data-name="Path 14532" d="M274.343,168.38h-21.5v29.9a1.089,1.089,0,0,0,1.089,1.089h19.339a1.089,1.089,0,0,0,1.089-1.089v-29.9Z" transform="translate(-252.84 -148.832)" fill="#fff" opacity="0.8"/>
      <rect id="Rectangle_5860" data-name="Rectangle 5860" width="17.575" height="6.739" rx="1.96" transform="translate(1.968 21.165)" fill="#fff" opacity="0.9"/>
      <rect id="Rectangle_5861" data-name="Rectangle 5861" width="17.575" height="5.163" rx="2.582" transform="translate(1.968 29.238)" fill="#407bff" opacity="0.7"/>
      <rect id="Rectangle_5862" data-name="Rectangle 5862" width="17.575" height="5.163" rx="2.582" transform="translate(1.968 36.11)" fill="#407bff" opacity="0.7"/>
      <rect id="Rectangle_5863" data-name="Rectangle 5863" width="17.575" height="5.163" rx="2.582" transform="translate(1.968 42.983)" fill="#407bff" opacity="0.7"/>
      <path id="Path_14533" data-name="Path 14533" d="M272.942,157.2H254.275a1.415,1.415,0,0,0-1.415,1.415v1.633h21.5v-1.633a1.415,1.415,0,0,0-1.421-1.415Z" transform="translate(-252.852 -140.695)" fill="#407bff"/>
      <g id="Group_8333" data-name="Group 8333" transform="translate(16.796 0.197)">
        <path id="Path_14202" data-name="Path 14202" d="M228.749,145.78l.484-8.973a.69.69,0,0,1,.676-.647h15.455a.606.606,0,0,1,.612.647l-.484,8.973a.69.69,0,0,1-.676.647H229.361a.606.606,0,0,1-.612-.647Z" transform="translate(-224.282 -129.824)" fill="#407bff" opacity="0.2"/>
        <path id="Path_14209" data-name="Path 14209" d="M313.58,178.319a2.99,2.99,0,0,1,.26-1.109c.434.37.848.807.848.807a25.951,25.951,0,0,1,2.979.361c-.092.311-.159.613-.159.613Z" transform="translate(-299.552 -166.247)" fill="#263238"/>
        <path id="Path_14210" data-name="Path 14210" d="M267.7,195.1a.9.9,0,0,0-.072-.16.554.554,0,0,1-.092-.322.517.517,0,0,1,.225-.344,1.247,1.247,0,0,1,.876-.239,1.319,1.319,0,0,1,.587.213.664.664,0,0,1,.072-.369.637.637,0,0,1,.628-.338.5.5,0,0,1,.24.106v-.054a.587.587,0,0,1,.216-.462.632.632,0,0,1,.663.039l.055.028a1.781,1.781,0,0,1-.091-.459.424.424,0,0,1,.162-.384.768.768,0,0,1,.653-.039.542.542,0,0,1,.072-.291.684.684,0,0,1,.747-.3l-.03.113a.564.564,0,0,0-.612.24.42.42,0,0,0-.052.277.377.377,0,0,1,.24.348l-.007.081-.076-.03a.451.451,0,0,1-.254-.282l-.01-.032h0a.724.724,0,0,0-.6,0,.307.307,0,0,0-.113.282,1.818,1.818,0,0,0,.1.461c.009.026.026.062.043.1s.032.067.045.1a.281.281,0,0,1,.032.142h-.121a.225.225,0,0,0-.021-.086.465.465,0,0,0-.211-.169c-.24-.119-.416-.135-.541-.048a.494.494,0,0,0-.159.374,1.154,1.154,0,0,0,0,.2.462.462,0,0,1,.063.272l-.019.276-.1-.259a1.209,1.209,0,0,1-.063-.246.4.4,0,0,0-.271-.179.52.52,0,0,0-.5.274.564.564,0,0,0-.035.422c.021.018.043.037.063.057a.135.135,0,0,1,.039.127.082.082,0,0,1-.064.06l-.038.008-.023-.032a.662.662,0,0,1-.08-.15,1.215,1.215,0,0,0-.64-.274,1.133,1.133,0,0,0-.789.215.424.424,0,0,0-.183.26.469.469,0,0,0,.08.254.965.965,0,0,1,.081.184Z" transform="translate(-258.699 -179.112)" fill="#263238"/>
        <path id="Path_14211" data-name="Path 14211" d="M254,189.844c1.054-.4,4.661-1.159,5.263-1.8a10.49,10.49,0,0,0,1.229-1.916.344.344,0,0,1,.361-.18l3.665.6a.345.345,0,0,1,.289.358l-.019.347.006,3.653-9.415.256Z" transform="translate(-246.688 -173.992)" fill="#407bff"/>
        <path id="Path_14212" data-name="Path 14212" d="M250.22,221.468a5.584,5.584,0,0,1,.428-1.16c.161-.177,4.227.338,4.569,1.26a33.553,33.553,0,0,1-5-.1Z" transform="translate(-243.334 -204.456)" fill="#263238"/>
        <path id="Path_14213" data-name="Path 14213" d="M277.439,199.181c-.652-.781-1.228-1.387-1.192-1.752s.4-.469.965-.658a4.014,4.014,0,0,0,2.167-1.332c.522-.806.86-.29,1.015.076s.352,1.313,3.4.428a55.414,55.414,0,0,1-4.521,3.239Z" transform="translate(-266.426 -182.042)" fill="#263238"/>
        <path id="Path_14214" data-name="Path 14214" d="M300.58,202.7a2.77,2.77,0,0,1,1.207-1.959c1.095-.675,4.146-1.166,4.385-1.62a3.969,3.969,0,0,1,.039.9s-2.818,1.134-2.81,2.81C301.89,202.826,300.58,202.7,300.58,202.7Z" transform="translate(-288.017 -185.687)" fill="#fff"/>
        <path id="Path_14215" data-name="Path 14215" d="M248.351,228.209a.185.185,0,0,0,.153.225,30.528,30.528,0,0,0,4.183.326h7.035a.212.212,0,0,0,.209-.2l.038-.721a.185.185,0,0,0-.2-.2,93.528,93.528,0,0,1-11.151.216.209.209,0,0,0-.2.131,1.414,1.414,0,0,0-.063.219Z" transform="translate(-241.671 -210.995)" fill="#407bff"/>
        <path id="Path_14216" data-name="Path 14216" d="M253.813,227.583c-1.152,0-2.342-.024-3.509-.086a.056.056,0,0,1-.054-.059.058.058,0,0,1,.06-.054,94.023,94.023,0,0,0,11.143-.216.057.057,0,1,1,.009.113C260.693,227.343,257.454,227.583,253.813,227.583Z" transform="translate(-243.36 -210.574)" fill="#fff"/>
        <path id="Path_14217" data-name="Path 14217" d="M259.127,233.139h-7.035a30.992,30.992,0,0,1-4.195-.326.263.263,0,0,1-.176-.113.272.272,0,0,1-.041-.211l.148.032a.118.118,0,0,0,.017.092.113.113,0,0,0,.074.045,30.789,30.789,0,0,0,4.171.324h7.035a.135.135,0,0,0,.133-.125l.151.008A.289.289,0,0,1,259.127,233.139Z" transform="translate(-241.075 -215.296)" fill="#263238"/>
        <rect id="Rectangle_5749" data-name="Rectangle 5749" width="0.151" height="2.446" transform="translate(14.273 12.457) rotate(-64.69)" fill="#263238"/>
      </g>
      <g id="Group_8334" data-name="Group 8334" transform="translate(36.796 0.197)">
        <path id="Path_14202-2" data-name="Path 14202" d="M228.749,145.78l.484-8.973a.69.69,0,0,1,.676-.647h15.455a.606.606,0,0,1,.612.647l-.484,8.973a.69.69,0,0,1-.676.647H229.361a.606.606,0,0,1-.612-.647Z" transform="translate(-224.216 -129.824)" fill="#407bff" opacity="0.2"/>
        <path id="Path_14216-2" data-name="Path 14216" d="M253.813,227.583c-1.152,0-2.342-.024-3.509-.086a.056.056,0,0,1-.054-.059.058.058,0,0,1,.06-.054,94.023,94.023,0,0,0,11.143-.216.057.057,0,1,1,.009.113C260.693,227.343,257.454,227.583,253.813,227.583Z" transform="translate(-243.36 -210.574)" fill="#fff"/>
      </g>
    </g>
    <g id="freepik--Character--inject-134" transform="translate(24.273 62.846)">
      <path id="Path_14157" data-name="Path 14157" d="M157.1,407.313a.793.793,0,0,0,.6.044.179.179,0,0,0,.059-.2.245.245,0,0,0-.105-.152c-.284-.188-1.059-.037-1.091-.029a.046.046,0,0,0-.037.039.049.049,0,0,0,.022.047A3.392,3.392,0,0,0,157.1,407.313Zm.416-.264a.374.374,0,0,1,.083.039.142.142,0,0,1,.066.09c.012.066,0,.091-.024.1-.127.091-.6-.066-.929-.244a2.12,2.12,0,0,1,.8.012Z" transform="translate(-142.52 -328.711)" fill="#407bff"/>
      <path id="Path_14158" data-name="Path 14158" d="M156.542,405.357h.02c.257-.027.836-.281.873-.5a.168.168,0,0,0-.125-.179.342.342,0,0,0-.269,0c-.3.117-.518.6-.528.624a.051.051,0,0,0,0,.046A.057.057,0,0,0,156.542,405.357Zm.7-.6h.027c.076.034.071.068.068.078-.022.134-.428.35-.7.411a1.088,1.088,0,0,1,.435-.489A.244.244,0,0,1,157.246,404.753Z" transform="translate(-142.511 -326.997)" fill="#407bff"/>
      <path id="Path_14159" data-name="Path 14159" d="M148.15,407.08H146a.147.147,0,0,0-.152.134l-.171,1.751a.33.33,0,0,0,.328.35c.775-.012,1.89-.059,2.863-.059,1.139,0,1.223.064,2.56.064.807,0,.929-.817.582-.892a8.5,8.5,0,0,1-3.367-1.193A1.035,1.035,0,0,0,148.15,407.08Z" transform="translate(-134.33 -328.835)" fill="#263238"/>
      <path id="Path_14160" data-name="Path 14160" d="M113.958,407.532a.878.878,0,0,0,.6-.149.181.181,0,0,0,.027-.2.2.2,0,0,0-.132-.11c-.315-.088-1.059.3-1.091.32a.056.056,0,0,0-.032.046.042.042,0,0,0,.032.039A3.373,3.373,0,0,0,113.958,407.532Zm.367-.381a.34.34,0,0,1,.09,0,.108.108,0,0,1,.081.066.137.137,0,0,1,0,.1c-.11.127-.609.13-.978.078a2.427,2.427,0,0,1,.807-.242Z" transform="translate(-109.892 -328.818)" fill="#407bff"/>
      <path id="Path_14161" data-name="Path 14161" d="M113.361,406.051h.02c.245-.108.787-.533.782-.756,0-.051-.027-.117-.154-.13a.386.386,0,0,0-.269.078,1.56,1.56,0,0,0-.418.76.039.039,0,0,0,0,.042A.049.049,0,0,0,113.361,406.051Zm.6-.8h.029c.081,0,.083.042.083.051,0,.135-.367.469-.631.614a1.286,1.286,0,0,1,.347-.606A.281.281,0,0,1,113.957,405.253Z" transform="translate(-109.881 -327.387)" fill="#407bff"/>
      <path id="Path_14162" data-name="Path 14162" d="M102.33,407.08h-2.149a.179.179,0,0,0-.171.134l-.44,1.751a.276.276,0,0,0,.274.35c.775-.012,1.9-.059,2.873-.059,1.139,0,.69.064,2.027.064.807,0,1.056-.817.719-.893a5.408,5.408,0,0,1-2.66-1.193A.91.91,0,0,0,102.33,407.08Z" transform="translate(-99.488 -328.835)" fill="#263238"/>
      <path id="Path_14163" data-name="Path 14163" d="M111.635,203.2s-2.284,15.124-3.179,20.738c-.819,5.2-4.174,22.185-5.267,27.435a2.577,2.577,0,0,1-.286.978c.259.333.054,1.032.054,1.032l-3.423.347a1.222,1.222,0,0,1-.245-.978,6.387,6.387,0,0,0,.423-1.509c.438-5.3,2.384-19.806,2.878-26.851.465-6.614,2.254-21.19,2.254-21.19Z" transform="translate(-99.269 -174.808)" fill="#407bff"/>
      <path id="Path_14164" data-name="Path 14164" d="M136.735,232.48c-2.281,1.631-1.68,8.541-1.3,13.666.024-.161.051-.315.073-.462.489-3.064,1.382-8.971,2.1-13.693C137.5,231.947,136.852,232.4,136.735,232.48Z" transform="translate(-126.315 -196.556)" opacity="0.3"/>
      <path id="Path_14165" data-name="Path 14165" d="M143.732,203.2s-.147,14.72-.315,20.726c-.152,5.309-.166,22.648-1.25,27.584-.11.5.147.6.1.8a2.054,2.054,0,0,0-.039.21.66.66,0,0,1-.516.555l-2.509.567a.426.426,0,0,1-.5-.3,3.63,3.63,0,0,1-.093-1c0-.274.13-.848.112-1.179-.33-6.2-1.154-21.885-1.308-26.768-.21-6.685-.6-21.2-.6-21.2Z" transform="translate(-127.63 -174.808)" fill="#407bff"/>
      <path id="Path_14166" data-name="Path 14166" d="M106.393,138.528c-.357.66-.734,1.36-1.081,2.044s-.7,1.384-1.039,2.078q-.249.521-.489,1.044t-.46,1.044a21.813,21.813,0,0,0-.751,2.078l-1.135-1.653a5.04,5.04,0,0,0,.655.115,3.665,3.665,0,0,0,.677,0,3.581,3.581,0,0,0,.7-.112c.117-.029.245-.064.355-.1.056-.02.117-.039.171-.061l.086-.029.037-.015h.024a.739.739,0,0,1,1.066,1.025l-.105.142c-.032.042-.061.083-.093.12-.064.076-.127.144-.193.218a4.345,4.345,0,0,1-1.421.978,4.738,4.738,0,0,1-1.132.328,5.31,5.31,0,0,1-1.181.061,1.249,1.249,0,0,1-1.191-1.306,1.287,1.287,0,0,1,.027-.2l.032-.147a19.868,19.868,0,0,1,.712-2.462c.274-.79.587-1.55.915-2.3s.68-1.487,1.044-2.2.734-1.435,1.171-2.162a1.493,1.493,0,1,1,2.6,1.467Z" transform="translate(-99.742 -124.26)" fill="#ffc3bd"/>
      <path id="Path_14167" data-name="Path 14167" d="M116.08,169.763l1.154-.893.978,2.049a2.345,2.345,0,0,1-1.839.245Z" transform="translate(-111.969 -148.872)" fill="#ffc3bd"/>
      <path id="Path_14168" data-name="Path 14168" d="M122.49,164.2l.494,1.954-1.213,1.237-.971-2.049Z" transform="translate(-115.535 -145.344)" fill="#ffc3bd"/>
      <path id="Path_14169" data-name="Path 14169" d="M156.79,105.267c0,.159.061.3.164.306s.2-.112.21-.271-.059-.293-.164-.3S156.8,105.111,156.79,105.267Z" transform="translate(-142.725 -100.618)" fill="#263238"/>
      <path id="Path_14170" data-name="Path 14170" d="M156.615,107.3a5.7,5.7,0,0,0,.643,1.421.91.91,0,0,1-.768.073Z" transform="translate(-142.498 -102.358)" fill="#ed847e"/>
      <path id="Path_14171" data-name="Path 14171" d="M190.445,136.9l-.093-2.23-2.352.668a2.6,2.6,0,0,0,1.166,1.88Z" transform="translate(-166.303 -123.035)" fill="#ffc3bd"/>
      <path id="Path_14172" data-name="Path 14172" d="M188.13,128.06l-2.01,1.115.467,1.169,2.347-.668Z" transform="translate(-164.883 -118.041)" fill="#ffc3bd"/>
      <path id="Path_14177" data-name="Path 14177" d="M191.7,132.035a9.091,9.091,0,0,1-1.108-1.675.565.565,0,0,0-.3.687c.09.271.435.978.435.978a2.55,2.55,0,0,0,.147,1.44C191.181,134.057,191.7,132.035,191.7,132.035Z" transform="translate(-168.01 -121.246)" fill="#ffc3bd"/>
      <path id="Path_14178" data-name="Path 14178" d="M154.51,101.34a.1.1,0,0,1-.054-.042.09.09,0,0,1,.032-.127.914.914,0,0,1,.848-.068.09.09,0,0,1,.042.125.093.093,0,0,1-.122.042h0a.734.734,0,0,0-.672.061A.086.086,0,0,1,154.51,101.34Z" transform="translate(-140.951 -97.62)" fill="#263238"/>
      <path id="Path_14179" data-name="Path 14179" d="M133.943,113.38c.293,1.44.477,3.436-.523,4.4,0,0,.406,1.467,3.081,1.467,2.934,0,1.406-1.281,1.406-1.281-1.223-.381-1.223-1.775-.954-2.893Z" transform="translate(-125.069 -106.951)" fill="#ffc3bd"/>
      <path id="Path_14180" data-name="Path 14180" d="M130.591,129.1a1.964,1.964,0,0,1,.015-1.751c.45-.333,2.382-.411,4.988.188a1.858,1.858,0,0,0,.328,1.734Z" transform="translate(-122.783 -117.309)" fill="#407bff"/>
      <path id="Path_14181" data-name="Path 14181" d="M109.481,133.026c-1.844.423-3.081,5.345-3.081,5.345l3.477,2.611a7.988,7.988,0,0,0,1.939-3.638C112.437,134.874,111.369,132.593,109.481,133.026Z" transform="translate(-104.656 -121.753)" fill="#263238"/>
      <path id="Path_14182" data-name="Path 14182" d="M109.481,133.026c-1.844.423-3.081,5.345-3.081,5.345l3.477,2.611a7.988,7.988,0,0,0,1.939-3.638C112.437,134.874,111.369,132.593,109.481,133.026Z" transform="translate(-104.656 -121.753)" fill="#fff" opacity="0.1"/>
      <path id="Path_14183" data-name="Path 14183" d="M156.449,139c1.012,1.127,1.976,2.269,2.934,3.379.489.555.978,1.1,1.467,1.621a13.738,13.738,0,0,0,1.455,1.386,3.345,3.345,0,0,0,.308.22c.081.054.154.073.076.064a.734.734,0,0,0-.276.029.865.865,0,0,0-.218.1.644.644,0,0,0-.132.105c-.022.039.032,0,.081-.093a3.424,3.424,0,0,0,.32-.765,10.021,10.021,0,0,0,.245-.978c.291-1.369.489-2.854.66-4.306l1.479-.034a22.472,22.472,0,0,1,.2,4.67,11.229,11.229,0,0,1-.154,1.223,6.041,6.041,0,0,1-.4,1.36,2.934,2.934,0,0,1-.555.829,1.7,1.7,0,0,1-.35.281,1.817,1.817,0,0,1-.474.21,2.008,2.008,0,0,1-.834.049,3.122,3.122,0,0,1-.978-.323,6.193,6.193,0,0,1-.638-.384,15.681,15.681,0,0,1-1.89-1.614c-.562-.55-1.091-1.11-1.609-1.67-1.029-1.127-2.008-2.272-2.971-3.4Z" transform="translate(-140.761 -126.306)" fill="#ffc3bd"/>
      <path id="Path_14184" data-name="Path 14184" d="M121.344,147.35c-1,.993-1.308,2.8-1.374,4.37l.164.125a8.008,8.008,0,0,0,1.939-3.638c.037-.147.068-.3.1-.44Z" transform="translate(-114.908 -132.614)" fill="#263238" opacity="0.4"/>
      <path id="Path_14185" data-name="Path 14185" d="M105.613,153.45l-.071.188a.269.269,0,0,0,.1.3l3.326,2.516a.267.267,0,0,0,.367-.044v-.017a.264.264,0,0,0-.039-.372l-3.267-2.69a.264.264,0,0,0-.418.117Z" transform="translate(-103.999 -137.088)" fill="#407bff"/>
      <path id="Path_14186" data-name="Path 14186" d="M130.7,133.579c.418,2.127.785,9.627-.32,18.278H119.167c-.083-1.616,1.467-12.634-.147-20.251a27.209,27.209,0,0,1,3.521-.447,38.471,38.471,0,0,1,4.477,0c.489.044.978.115,1.411.191A2.817,2.817,0,0,1,130.7,133.579Z" transform="translate(-114.191 -120.333)" fill="#263238"/>
      <path id="Path_14187" data-name="Path 14187" d="M130.7,133.579c.418,2.127.785,9.627-.32,18.278H119.167c-.083-1.616,1.467-12.634-.147-20.251a27.209,27.209,0,0,1,3.521-.447,38.471,38.471,0,0,1,4.477,0c.489.044.978.115,1.411.191A2.817,2.817,0,0,1,130.7,133.579Z" transform="translate(-114.191 -120.333)" fill="#fff" opacity="0.1"/>
      <path id="Path_14188" data-name="Path 14188" d="M162.645,153l-1.726.413c-.1,1.3.963,2.81,1.834,3.807C162.76,155.6,162.718,154.169,162.645,153Z" transform="translate(-145.839 -136.883)" fill="#263238" opacity="0.4"/>
      <path id="Path_14189" data-name="Path 14189" d="M135.227,94.683c-.042,1.956-.166,3.093.734,4.179a2.587,2.587,0,0,0,4.448-.939c.562-1.712.538-4.614-1.3-5.558a2.646,2.646,0,0,0-3.881,2.318Z" transform="translate(-126.412 -90.843)" fill="#ffc3bd"/>
      <path id="Path_14190" data-name="Path 14190" d="M136.7,95s.775.624.79-.357a5.507,5.507,0,0,0-.105-1.4s.5-.032.457-.866-1.318-2.088-3.306-1.78-1.853,1.3-1.853,1.3-1.841.117-.8,3.105c.753,2.174.868,2.57.868,2.57s1.836.389,2.245-.034S135.929,94.728,136.7,95Z" transform="translate(-123.668 -89.7)" fill="#263238"/>
      <path id="Path_14191" data-name="Path 14191" d="M127.716,99.693c-1.91.978-3.47,2.516.46,2.511s4.93-2.934,4.93-2.934Z" transform="translate(-119.266 -96.291)" fill="#407bff"/>
      <path id="Path_14192" data-name="Path 14192" d="M127.716,99.693c-1.91.978-3.47,2.516.46,2.511s4.93-2.934,4.93-2.934Z" transform="translate(-119.266 -96.291)" fill="#fff" opacity="0.2"/>
      <path id="Path_14193" data-name="Path 14193" d="M137.281,89.7a6.7,6.7,0,0,1-1.971,1.712,6.453,6.453,0,0,1-2.651.513c-.54-.02-1.682-.147-1.827-.513a7.7,7.7,0,0,1-.083-2.176c.046-.709,1.993-1.956,2.768-2.12a4.8,4.8,0,0,1,2.934.76A4.864,4.864,0,0,1,137.281,89.7Z" transform="translate(-123.028 -87.087)" fill="#407bff"/>
      <path id="Path_14194" data-name="Path 14194" d="M148.14,104.627a2.223,2.223,0,0,0,.447,1.347c.391.506.863.245.978-.313.11-.511.039-1.389-.465-1.695S148.15,104.045,148.14,104.627Z" transform="translate(-136.19 -99.758)" fill="#ffc3bd"/>
      <path id="Path_14195" data-name="Path 14195" d="M149.6,135.068c-.927,2.545,4.82,5.624,4.82,5.624l2.2-3.179a15.511,15.511,0,0,0-3.6-4.621C150.576,131.122,150.3,133.136,149.6,135.068Z" transform="translate(-137.215 -121.176)" fill="#263238"/>
      <path id="Path_14196" data-name="Path 14196" d="M149.6,135.068c-.927,2.545,4.82,5.624,4.82,5.624l2.2-3.179a15.511,15.511,0,0,0-3.6-4.621C150.576,131.122,150.3,133.136,149.6,135.068Z" transform="translate(-137.215 -121.176)" fill="#fff" opacity="0.1"/>
      <path id="Path_14197" data-name="Path 14197" d="M170.732,152.45l.125.164a.269.269,0,0,1,0,.318l-2.218,3.01a.264.264,0,0,1-.34.076l-.034-.02a.264.264,0,0,1-.1-.381l2.127-3.154a.267.267,0,0,1,.435-.012Z" transform="translate(-151.288 -136.387)" fill="#407bff"/>
    </g>
    <g id="freepik--Plant--inject-294" transform="translate(93.669 64.43)">
      <path id="Path_14677" data-name="Path 14677" d="M589.643,323.158a1.091,1.091,0,0,0-.468-.162.315.315,0,0,0-.222.041.047.047,0,0,0-.023.04.051.051,0,0,0,.022.028.67.67,0,0,0,.692.053" transform="translate(-588.904 -319.53)" fill="#407bff"/>
      <path id="Path_14678" data-name="Path 14678" d="M595.248,306.865a2.281,2.281,0,0,1-.3-.266.76.76,0,0,1-.19-.351.141.141,0,0,1,.015-.118,1.176,1.176,0,0,1,.478.735" transform="translate(-594.522 -303.251)" fill="#407bff"/>
      <path id="Path_14679" data-name="Path 14679" d="M609.014,307.465a1.088,1.088,0,0,1,.005-.4.537.537,0,0,1,.212-.328.47.47,0,0,1-.005.311,1.512,1.512,0,0,1-.21.442" transform="translate(-608.277 -303.839)" fill="#407bff"/>
      <path id="Path_14680" data-name="Path 14680" d="M599.8,340a.7.7,0,0,0-.376.19.711.711,0,0,0-.215.369.5.5,0,0,0,.346-.219c.086-.111.147-.234.242-.338" transform="translate(-598.828 -335.948)" fill="#407bff"/>
      <path id="Path_14681" data-name="Path 14681" d="M615.973,317.447a.928.928,0,0,1,.107-.877,1.116,1.116,0,0,1-.107.877" transform="translate(-614.948 -313.329)" fill="#407bff"/>
      <path id="Path_14682" data-name="Path 14682" d="M608.663,352.635a.671.671,0,0,0-.641.369.05.05,0,0,0,0,.05.048.048,0,0,0,.042.012.559.559,0,0,0,.331-.171,3.159,3.159,0,0,1,.275-.262" transform="translate(-607.326 -348.145)" fill="#407bff"/>
      <path id="Path_14683" data-name="Path 14683" d="M625.017,327.308a1.192,1.192,0,0,1-.012-.667.326.326,0,0,1,.142-.217.029.029,0,0,1,.022,0,.03.03,0,0,1,.014.016.4.4,0,0,1,.035.191,1.188,1.188,0,0,1-.03.194,1.028,1.028,0,0,1-.1.348.684.684,0,0,0-.041.076c-.013.026-.013.035-.024.056" transform="translate(-623.69 -322.839)" fill="#407bff"/>
      <path id="Path_14684" data-name="Path 14684" d="M649.79,335.151a.861.861,0,0,1,.151-.707c.011-.014.025-.029.042-.027s.035.038.035.066a1.277,1.277,0,0,1-.226.669" transform="translate(-647.635 -330.558)" fill="#407bff"/>
      <path id="Path_14685" data-name="Path 14685" d="M652.59,350.265a1.029,1.029,0,0,0,.844-.173.685.685,0,0,0-.457-.056.652.652,0,0,0-.387.228" transform="translate(-650.361 -345.621)" fill="#407bff"/>
      <path id="Path_14686" data-name="Path 14686" d="M654.4,340.273a.977.977,0,0,1,.766-.443.468.468,0,0,1-.25.277,1.4,1.4,0,0,1-.368.11.259.259,0,0,0-.148.058" transform="translate(-652.108 -335.784)" fill="#407bff"/>
      <path id="Path_14687" data-name="Path 14687" d="M647.816,305.924a2.228,2.228,0,0,0,.1-.45.747.747,0,0,0-.09-.444.977.977,0,0,0-.013.908" transform="translate(-645.646 -302.189)" fill="#407bff"/>
      <path id="Path_14688" data-name="Path 14688" d="M665.31,306.782a1.2,1.2,0,0,1,.885-.6.986.986,0,0,1-.885.6" transform="translate(-662.641 -303.299)" fill="#407bff"/>
      <path id="Path_14689" data-name="Path 14689" d="M662.15,323.911a3.258,3.258,0,0,1,.72.3.322.322,0,0,0,.163.031.127.127,0,0,0,.08-.226.346.346,0,0,0-.118-.072,1.313,1.313,0,0,0-.823-.046" transform="translate(-659.59 -320.366)" fill="#407bff"/>
      <path id="Path_14690" data-name="Path 14690" d="M657.83,330.243a.3.3,0,0,1,.125.086,1.346,1.346,0,0,0,.546.281c.021.005.048.007.059-.012s0-.036-.014-.051a.756.756,0,0,0-.33-.224.84.84,0,0,0-.386-.091" transform="translate(-655.42 -326.516)" fill="#407bff"/>
      <path id="Path_14691" data-name="Path 14691" d="M652.961,298.219a1.034,1.034,0,0,0,.793.27.053.053,0,0,0,.034-.013c.02-.022,0-.055-.027-.073a.913.913,0,0,0-.8-.183" transform="translate(-650.718 -295.586)" fill="#407bff"/>
      <path id="Path_14692" data-name="Path 14692" d="M658.7,290.837a1.105,1.105,0,0,1,.989-.163.787.787,0,0,1-.471.208,1.494,1.494,0,0,1-.519-.044" transform="translate(-656.26 -288.28)" fill="#407bff"/>
      <path id="Path_14693" data-name="Path 14693" d="M652.716,262.779c-.023-.233-.008-.415-.024-.65,0-.019-.005-.041-.023-.048s-.045.02-.053.045a.745.745,0,0,0,.1.647" transform="translate(-650.354 -260.724)" fill="#407bff"/>
      <path id="Path_14694" data-name="Path 14694" d="M656,262.611a1.364,1.364,0,0,0,.385-.374.519.519,0,0,0,.123-.356.369.369,0,0,0-.277.138.774.774,0,0,0-.142.285c-.031.1-.052.208-.089.308" transform="translate(-653.653 -260.532)" fill="#407bff"/>
      <path id="Path_14695" data-name="Path 14695" d="M666.755,263.744a3.105,3.105,0,0,0,.948-.559.484.484,0,0,0-.356.027,1.123,1.123,0,0,0-.6.529" transform="translate(-664.031 -261.769)" fill="#407bff"/>
      <path id="Path_14696" data-name="Path 14696" d="M659,279.062a1.942,1.942,0,0,0,.526,0,2.245,2.245,0,0,0,.492-.163.057.057,0,0,0,.035-.026.038.038,0,0,0-.012-.042.1.1,0,0,0-.042-.02.911.911,0,0,0-.531.032,2.466,2.466,0,0,0-.468.216" transform="translate(-656.549 -276.855)" fill="#407bff"/>
      <path id="Path_14697" data-name="Path 14697" d="M627.7,277.681a.931.931,0,0,1-.009-.771.593.593,0,0,1,.069.383c-.013.132-.053.267-.056.4" transform="translate(-626.249 -275.042)" fill="#407bff"/>
      <path id="Path_14698" data-name="Path 14698" d="M594.079,292.227a1.073,1.073,0,0,0-.8.34.745.745,0,0,0,.437-.081,2.22,2.22,0,0,0,.375-.251" transform="translate(-593.103 -289.829)" fill="#407bff"/>
      <path id="Path_14699" data-name="Path 14699" d="M586.132,288.736a1.112,1.112,0,0,0-.427.013.511.511,0,0,0-.325.277.771.771,0,0,0,.4-.075,2.326,2.326,0,0,0,.352-.213" transform="translate(-585.477 -286.445)" fill="#407bff"/>
      <path id="Path_14700" data-name="Path 14700" d="M596.965,283.076a1.317,1.317,0,0,0-.419-.208.463.463,0,0,0-.436.1.812.812,0,0,0,.415.081,1.451,1.451,0,0,1,.454.046" transform="translate(-595.835 -280.78)" fill="#407bff"/>
      <path id="Path_14701" data-name="Path 14701" d="M613.738,263.887a.974.974,0,0,1-.219-.917,1.4,1.4,0,0,1,.219.917" transform="translate(-612.608 -261.584)" fill="#407bff"/>
      <path id="Path_14702" data-name="Path 14702" d="M638.67,251.282c.042-.1.072-.2.11-.3a.872.872,0,0,1,.157-.277.413.413,0,0,1,.277-.144,1.12,1.12,0,0,1-.54.727" transform="translate(-636.923 -249.604)" fill="#407bff"/>
      <path id="Path_14703" data-name="Path 14703" d="M619.25,264.162a1.426,1.426,0,0,0-.246-.3.411.411,0,0,0-.335-.088.779.779,0,0,0,.58.387" transform="translate(-617.615 -262.353)" fill="#407bff"/>
      <path id="Path_14704" data-name="Path 14704" d="M632.739,251.5a1.648,1.648,0,0,1-.111-.359.559.559,0,0,1,.056-.364.83.83,0,0,1,.061.727" transform="translate(-631.08 -249.816)" fill="#407bff"/>
      <path id="Path_14705" data-name="Path 14705" d="M638.7,237.032a.78.78,0,0,1,.509-.479.194.194,0,0,1,.089-.014.078.078,0,0,1,.066.055c.008.039-.024.074-.055.1a1.732,1.732,0,0,1-.609.337" transform="translate(-636.951 -236.068)" fill="#407bff"/>
      <path id="Path_14706" data-name="Path 14706" d="M638.654,223.7a1.671,1.671,0,0,1,.066-.441.556.556,0,0,1,.277-.335.651.651,0,0,1-.123.429,1.958,1.958,0,0,0-.224.4" transform="translate(-636.903 -222.92)" fill="#407bff"/>
      <path id="Path_14707" data-name="Path 14707" d="M626.656,225.719a2.181,2.181,0,0,0-.164-.528c-.069-.1-.183-.173-.242-.281a.429.429,0,0,0,.014.319.923.923,0,0,0,.186.266c.074.08.139.138.208.224" transform="translate(-624.908 -224.841)" fill="#407bff"/>
      <path id="Path_14708" data-name="Path 14708" d="M638.458,251.6s-.008-1.122-.009-2.505,0-2.506.008-2.506.008,1.122.009,2.506S638.463,251.6,638.458,251.6Z" transform="translate(-636.71 -245.771)" fill="#263238"/>
      <path id="Path_14709" data-name="Path 14709" d="M639.6,294.29a.255.255,0,0,1-.042.016l-.116.039c-.1.035-.232.082-.378.141a1.415,1.415,0,0,0-.358.18.263.263,0,0,0-.072.1c-.011.026-.013.042-.015.042s0,0,0-.012a.181.181,0,0,1,.008-.033.251.251,0,0,1,.069-.1.625.625,0,0,1,.155-.1c.062-.029.131-.059.2-.089.146-.06.282-.107.381-.138l.118-.035a.242.242,0,0,1,.045-.008Z" transform="translate(-636.876 -291.82)" fill="#263238"/>
      <path id="Path_14710" data-name="Path 14710" d="M642.154,271.48a.059.059,0,0,1-.012.012l-.035.035-.134.122-.447.4c-.173.155-.325.3-.43.415-.053.056-.094.1-.122.134l-.033.037-.012.012a.119.119,0,0,1,.01-.014l.03-.039c.027-.035.067-.081.118-.138a5.7,5.7,0,0,1,.428-.42c.175-.155.335-.294.45-.395l.138-.118.038-.032Z" transform="translate(-639.104 -269.8)" fill="#263238"/>
      <path id="Path_14711" data-name="Path 14711" d="M652.668,281.588s.032-.086.069-.193.054-.2.059-.2a.664.664,0,0,1-.043.2,1.3,1.3,0,0,1-.054.135A.221.221,0,0,1,652.668,281.588Z" transform="translate(-650.436 -279.183)" fill="#263238"/>
      <path id="Path_14712" data-name="Path 14712" d="M620.619,289.16a.2.2,0,0,1-.027-.031l-.069-.088c-.058-.075-.138-.178-.228-.291s-.173-.214-.232-.288l-.069-.087a.235.235,0,0,1-.024-.035.2.2,0,0,1,.029.029l.074.084c.062.072.146.173.236.285s.169.218.224.294c.028.038.05.069.065.092A.211.211,0,0,1,620.619,289.16Z" transform="translate(-618.87 -286.076)" fill="#263238"/>
      <path id="Path_14713" data-name="Path 14713" d="M629.409,294.59a.392.392,0,0,1-.09-.169.488.488,0,0,1-.02-.17h.007c0,.013-.006.02-.007.019s0-.007,0-.021h.007a.8.8,0,0,0,.029.165A1.225,1.225,0,0,0,629.409,294.59Z" transform="translate(-627.875 -291.782)" fill="#263238"/>
      <path id="Path_14714" data-name="Path 14714" d="M610.994,292.024a.316.316,0,0,0-.063-.036.421.421,0,0,0-.173-.014,1.059,1.059,0,0,0-.176.028.575.575,0,0,1-.072.017.239.239,0,0,1,.069-.028.8.8,0,0,1,.177-.035.381.381,0,0,1,.18.019A.112.112,0,0,1,610.994,292.024Z" transform="translate(-609.737 -289.564)" fill="#263238"/>
      <path id="Path_14715" data-name="Path 14715" d="M603.582,288.672s-.037-.015-.1-.035A.969.969,0,0,0,603,288.6c-.062.011-.1.022-.1.02a.1.1,0,0,1,.026-.011.635.635,0,0,1,.073-.02.86.86,0,0,1,.492.037.584.584,0,0,1,.069.031A.09.09,0,0,1,603.582,288.672Z" transform="translate(-602.391 -286.297)" fill="#263238"/>
      <path id="Path_14716" data-name="Path 14716" d="M635.214,267.472a4.25,4.25,0,0,1-.124-.492,4.263,4.263,0,0,1,.124.492Z" transform="translate(-633.466 -265.455)" fill="#263238"/>
      <path id="Path_14717" data-name="Path 14717" d="M633.423,273.824a1.244,1.244,0,0,0-.078-.146.652.652,0,0,0-.115-.118.109.109,0,0,1,.044.023.356.356,0,0,1,.084.086A.328.328,0,0,1,633.423,273.824Z" transform="translate(-631.671 -271.808)" fill="#263238"/>
      <path id="Path_14718" data-name="Path 14718" d="M610.028,328.437s-.005-.027-.018-.074a1.051,1.051,0,0,0-.075-.194,2.691,2.691,0,0,0-.4-.56c-.089-.1-.175-.2-.248-.289a2.03,2.03,0,0,1-.177-.256,1.257,1.257,0,0,1-.09-.19c-.008-.023-.014-.042-.017-.054a.105.105,0,0,1,0-.019s.01.026.028.071a1.429,1.429,0,0,0,.094.187,2.182,2.182,0,0,0,.179.252c.074.091.16.186.249.287a2.553,2.553,0,0,1,.4.566.953.953,0,0,1,.069.2.491.491,0,0,1,.01.056A.1.1,0,0,1,610.028,328.437Z" transform="translate(-608.279 -323.205)" fill="#263238"/>
      <path id="Path_14719" data-name="Path 14719" d="M639.624,345.2a.521.521,0,0,1-.045.028,1.031,1.031,0,0,0-.12.08,1.367,1.367,0,0,0-.158.144c-.056.059-.113.127-.171.2-.117.146-.226.277-.291.381a1.223,1.223,0,0,0-.073.125.371.371,0,0,1-.026.047.034.034,0,0,1,0-.013c0-.009.008-.021.016-.036a1.19,1.19,0,0,1,.069-.128,4.115,4.115,0,0,1,.288-.383c.058-.073.116-.142.173-.2a1.289,1.289,0,0,1,.162-.143.863.863,0,0,1,.124-.076l.035-.016Z" transform="translate(-636.99 -340.967)" fill="#263238"/>
      <path id="Path_14720" data-name="Path 14720" d="M647.78,354.554a.664.664,0,0,1-.1.015,1.3,1.3,0,0,0-.233.046.686.686,0,0,0-.208.109c-.048.037-.071.069-.073.066a.08.08,0,0,1,.015-.023.354.354,0,0,1,.051-.052.63.63,0,0,1,.21-.116,1.038,1.038,0,0,1,.237-.042A.537.537,0,0,1,647.78,354.554Z" transform="translate(-645.129 -349.998)" fill="#263238"/>
      <path id="Path_14721" data-name="Path 14721" d="M647.928,351.081c-.005,0,.039-.069.073-.161s.04-.173.045-.171a.155.155,0,0,1,0,.053.586.586,0,0,1-.029.124.61.61,0,0,1-.057.114C647.943,351.067,647.93,351.083,647.928,351.081Z" transform="translate(-645.86 -346.325)" fill="#263238"/>
      <path id="Path_14722" data-name="Path 14722" d="M639.844,320l-.016.008-.046.021c-.02.009-.045.02-.072.035s-.06.029-.094.049l-.054.03-.056.035c-.039.024-.079.054-.121.084a2.262,2.262,0,0,0-.253.223,2.307,2.307,0,0,0-.214.26c-.029.043-.057.084-.079.124l-.035.057c-.011.019-.019.037-.029.055-.019.035-.032.067-.046.1s-.024.053-.032.073-.014.035-.019.047a.075.075,0,0,1-.008.016.063.063,0,0,1,0-.017l.016-.048c.007-.02.017-.046.029-.075s.026-.062.044-.1l.028-.055c.01-.019.022-.038.035-.058.022-.041.05-.082.079-.126a2.184,2.184,0,0,1,.214-.263,2.246,2.246,0,0,1,.256-.223c.043-.03.083-.059.123-.083.02-.012.039-.025.057-.035l.054-.03c.035-.019.067-.035.1-.047a.749.749,0,0,1,.074-.032l.047-.018A.05.05,0,0,1,639.844,320Z" transform="translate(-636.923 -316.641)" fill="#263238"/>
      <path id="Path_14723" data-name="Path 14723" d="M652.33,330.327a.112.112,0,0,1,.038-.057.244.244,0,0,1,.155-.06.428.428,0,0,1,.163.032.238.238,0,0,1,.062.03.355.355,0,0,1-.065-.019.488.488,0,0,0-.159-.027.251.251,0,0,0-.148.052A.446.446,0,0,0,652.33,330.327Z" transform="translate(-650.11 -326.497)" fill="#263238"/>
      <path id="Path_14724" data-name="Path 14724" d="M649.3,328.533a.416.416,0,0,0,.035-.293.1.1,0,0,1,.018.042.3.3,0,0,1,.008.11.293.293,0,0,1-.033.1C649.313,328.522,649.3,328.534,649.3,328.533Z" transform="translate(-647.185 -324.595)" fill="#263238"/>
      <path id="Path_14725" data-name="Path 14725" d="M616.31,378.76a12.269,12.269,0,0,0,1.163,4.315h2.86a12.4,12.4,0,0,0,1.095-4.315Z" transform="translate(-616.979 -373.567)" fill="#455a64"/>
      <path id="Path_14726" data-name="Path 14726" d="M621.541,398.578s-.285.008-.636.008-.635,0-.635-.008.284-.008.635-.008S621.541,398.574,621.541,398.578Z" transform="translate(-619.159 -392.492)" fill="#fafafa"/>
      <path id="Path_14727" data-name="Path 14727" d="M623.181,403.068s-.267.008-.6.008-.6,0-.6-.008.267-.008.6-.008S623.181,403.063,623.181,403.068Z" transform="translate(-620.82 -396.826)" fill="#fafafa"/>
    </g>
  </g>
</svg>
