<svg xmlns="http://www.w3.org/2000/svg" width="146.098" height="91.607" viewBox="0 0 146.098 91.607">
  <g id="Group_8300" data-name="Group 8300" transform="translate(-510 -482.199)">
    <g id="freepik--background-complete--inject-243" transform="translate(510 488)">
      <rect id="Rectangle_5864" data-name="Rectangle 5864" width="146.098" height="0.062" transform="translate(0 81.727)" fill="#ebebeb"/>
      <rect id="Rectangle_5865" data-name="Rectangle 5865" width="8.268" height="0.062" transform="translate(125.324 85.743)" fill="#ebebeb"/>
      <rect id="Rectangle_5866" data-name="Rectangle 5866" width="7.544" height="0.062" transform="translate(70.678 84.982)" fill="#ebebeb"/>
      <rect id="Rectangle_5867" data-name="Rectangle 5867" width="17.446" height="0.062" transform="translate(103.46 83.427)" fill="#ebebeb"/>
      <rect id="Rectangle_5868" data-name="Rectangle 5868" width="41.722" height="0.062" transform="translate(13.095 83.846)" fill="#ebebeb"/>
      <rect id="Rectangle_5869" data-name="Rectangle 5869" width="1.58" height="0.062" transform="translate(66.891 83.846)" fill="#ebebeb"/>
      <path id="Path_14573" data-name="Path 14573" d="M87.833,125.594h-48.2a1.425,1.425,0,0,1-1.423-1.425V56.413A1.425,1.425,0,0,1,39.633,55h48.2a1.425,1.425,0,0,1,1.425,1.425v67.743A1.425,1.425,0,0,1,87.833,125.594ZM39.633,55.05a1.363,1.363,0,0,0-1.36,1.363v67.755a1.363,1.363,0,0,0,1.36,1.363h48.2a1.365,1.365,0,0,0,1.363-1.363V56.413a1.365,1.365,0,0,0-1.363-1.363Z" transform="translate(-28.672 -55)" fill="#ebebeb"/>
      <path id="Path_14574" data-name="Path 14574" d="M304.128,125.594h-48.2a1.428,1.428,0,0,1-1.425-1.425V56.413A1.428,1.428,0,0,1,255.925,55h48.2a1.425,1.425,0,0,1,1.42,1.413v67.755A1.425,1.425,0,0,1,304.128,125.594Zm-48.2-70.544a1.365,1.365,0,0,0-1.363,1.363v67.755a1.365,1.365,0,0,0,1.363,1.363h48.2a1.365,1.365,0,0,0,1.363-1.363V56.413a1.365,1.365,0,0,0-1.363-1.363Z" transform="translate(-169.685 -55)" fill="#ebebeb"/>
      <rect id="Rectangle_5870" data-name="Rectangle 5870" width="57.723" height="37.112" transform="translate(114.534 41.5) rotate(180)" fill="#f0f0f0"/>
      <rect id="Rectangle_5871" data-name="Rectangle 5871" width="0.519" height="37.112" transform="translate(49.908 4.388)" fill="#e6e6e6"/>
      <rect id="Rectangle_5872" data-name="Rectangle 5872" width="34.116" height="54.728" transform="translate(112.906 5.886) rotate(90)" fill="#fafafa"/>
      <rect id="Rectangle_5873" data-name="Rectangle 5873" width="7.252" height="31.989" transform="translate(72.175 49.738)" fill="#e6e6e6"/>
      <path id="Path_14575" data-name="Path 14575" d="M257.374,369.126h2.3V364.71H254.96Z" transform="translate(-180.035 -287.399)" fill="#fafafa"/>
      <rect id="Rectangle_5874" data-name="Rectangle 5874" width="7.252" height="31.989" transform="translate(12.623 49.738)" fill="#e6e6e6"/>
      <rect id="Rectangle_5875" data-name="Rectangle 5875" width="50.494" height="30.469" transform="translate(17.868 49.738)" fill="#fafafa"/>
      <path id="Path_14576" data-name="Path 14576" d="M73.882,369.126h-2.3V364.71H76.3Z" transform="translate(-53.712 -287.399)" fill="#fafafa"/>
      <rect id="Rectangle_5876" data-name="Rectangle 5876" width="46.922" height="7.626" transform="translate(25.024 61.093)" fill="#f0f0f0"/>
      <rect id="Rectangle_5877" data-name="Rectangle 5877" width="46.922" height="7.626" transform="translate(25.024 70.347)" fill="#f0f0f0"/>
      <path id="Path_14577" data-name="Path 14577" d="M92.55,297.09h40.022v.477a1,1,0,0,1-1,1H93.551a1,1,0,0,1-1-1v-.477Z" transform="translate(-63.648 -236.658)" fill="#fafafa"/>
      <rect id="Rectangle_5878" data-name="Rectangle 5878" width="46.922" height="7.626" transform="translate(25.024 51.837)" fill="#f0f0f0"/>
      <path id="Path_14578" data-name="Path 14578" d="M92.55,260h40.022v.477a1,1,0,0,1-1,1H93.551a1,1,0,0,1-1-1V260Z" transform="translate(-63.648 -208.827)" fill="#fafafa"/>
      <path id="Path_14579" data-name="Path 14579" d="M92.55,334.16h40.022v.477a1,1,0,0,1-1,1H93.551a1,1,0,0,1-1-1v-.477Z" transform="translate(-63.648 -264.475)" fill="#fafafa"/>
      <path id="Path_14580" data-name="Path 14580" d="M393.922,198.7c2.032-3.258,8.313-12.152,18.772-16.825.147-.065.027-.227-.132-.177a15.206,15.206,0,0,0-1.555.592c-.13.057-.28-.052-.192-.142a24.634,24.634,0,0,1,2.6-2.277c.115-.087-.05-.22-.19-.15a14.055,14.055,0,0,0-2.786,1.812c-.112.095-.322,0-.232-.115.272-.324.577-.669.914-1.023.095-.1-.095-.21-.217-.127a10.851,10.851,0,0,0-3.684,4.084H407.2a21.488,21.488,0,0,1,2.666-4.543c.077-.1-.12-.2-.23-.115A13.952,13.952,0,0,0,407.6,181.6c-.092.1-.322.02-.25-.095s.18-.285.277-.427-.13-.195-.25-.11a14.578,14.578,0,0,0-2.474,2.556c-.085.11-.317.037-.25-.08a31.012,31.012,0,0,1,1.77-3.118c.07-.1-.132-.2-.237-.107a16.073,16.073,0,0,0-5.072,8.672h0a33.9,33.9,0,0,1,2.484-7.8c.052-.11-.162-.185-.25-.087a14.534,14.534,0,0,0-2.469,3.517c-.057.117-.31.067-.272-.055.167-.529.357-1.068.572-1.608.045-.112-.17-.18-.25-.082a16.9,16.9,0,0,0-3.068,5.242c-.045.122-.31.08-.275-.045a17.409,17.409,0,0,1,.789-2.317c.045-.107-.157-.177-.25-.087a9.3,9.3,0,0,0-2.264,3.45c-.047.12-.3.085-.28-.04.11-.619.25-1.248.429-1.9.03-.11-.18-.167-.262-.07a9.546,9.546,0,0,0-2.047,4.463c-.022.125-.282.112-.282-.012a18.808,18.808,0,0,1,.212-2.776c.017-.112-.2-.157-.27-.055-2.733,3.9-.914,9.486-.879,9.583h0l.175.422A.79.79,0,0,0,393.922,198.7Z" transform="translate(-272.759 -148.539)" fill="#f5f5f5"/>
      <path id="Path_14581" data-name="Path 14581" d="M339.616,222.73c-1.56-2-6.268-7.394-13.185-9.356-.1-.03-.037-.155.067-.14a8.553,8.553,0,0,1,1.018.22c.085.025.167-.07.1-.12a14.615,14.615,0,0,0-1.82-1.248c-.08-.047,0-.157.1-.125a8.077,8.077,0,0,1,1.895.914c.08.052.2-.045.135-.107-.2-.192-.419-.392-.661-.6-.067-.055.04-.157.125-.115a6.775,6.775,0,0,1,2.659,2.379h0a14.2,14.2,0,0,0-2.064-2.826c-.057-.062.055-.155.132-.11a8.489,8.489,0,0,1,1.448,1.076c.067.062.2-.025.147-.095s-.137-.175-.21-.262.062-.152.137-.1a9.106,9.106,0,0,1,1.77,1.468c.06.065.2-.012.152-.087a20.916,20.916,0,0,0-1.383-1.94c-.052-.065.062-.152.137-.1a10.768,10.768,0,0,1,3.939,5.382h0a24.279,24.279,0,0,0-2.247-5.092c-.04-.07.085-.147.15-.09A9.369,9.369,0,0,1,334,213.781c.047.075.2,0,.162-.07-.152-.344-.317-.694-.5-1.043-.037-.07.087-.142.152-.085a11.205,11.205,0,0,1,2.379,3.245c.042.08.2.02.17-.065a12.81,12.81,0,0,0-.7-1.5c-.037-.067.08-.142.147-.09a6.073,6.073,0,0,1,1.72,2.109c.04.077.195.022.17-.06-.125-.414-.27-.841-.439-1.266-.03-.072.095-.137.155-.08a6.531,6.531,0,0,1,1.677,2.838c.027.082.187.042.175-.045a14.543,14.543,0,0,0-.384-1.892c-.02-.075.11-.132.162-.072,2.052,2.366,1.43,6.443,1.418,6.52h0l-.067.312a.479.479,0,0,1-.781.19Z" transform="translate(-228.716 -172.386)" fill="#fafafa"/>
      <path id="Path_14582" data-name="Path 14582" d="M330.478,196.428c-1.722-2.656-7.027-9.9-15.689-13.642-.122-.052-.027-.185.1-.145a12.217,12.217,0,0,1,1.286.469c.11.047.23-.045.155-.117a20.388,20.388,0,0,0-2.172-1.845c-.095-.072.037-.18.152-.125a11.622,11.622,0,0,1,2.319,1.463c.092.077.25,0,.187-.095-.23-.265-.484-.544-.766-.831-.08-.082.072-.175.175-.107a9.024,9.024,0,0,1,3.093,3.318h.013a17.821,17.821,0,0,0-2.247-3.714c-.065-.082.092-.165.187-.095a11.781,11.781,0,0,1,1.7,1.55c.077.085.265.015.2-.08s-.152-.23-.235-.347.1-.162.192-.092a12.054,12.054,0,0,1,2.074,2.074c.07.09.25.027.212-.067a26.911,26.911,0,0,0-1.5-2.541c-.06-.087.1-.162.192-.09a13.328,13.328,0,0,1,4.309,7.069h0a28.006,28.006,0,0,0-2.172-6.375c-.042-.09.13-.152.207-.075a12.041,12.041,0,0,1,2.064,2.861c.05.1.25.055.222-.047-.147-.432-.312-.871-.5-1.313-.037-.09.137-.147.21-.067a14.017,14.017,0,0,1,2.606,4.271c.04.1.25.065.227-.037a14.823,14.823,0,0,0-.689-1.892c-.037-.09.125-.15.2-.075a7.739,7.739,0,0,1,1.92,2.808c.037.1.25.067.227-.032-.1-.5-.227-1.031-.384-1.56-.027-.09.145-.137.212-.06a7.906,7.906,0,0,1,1.747,3.645c.02.1.235.09.232,0a15.561,15.561,0,0,0-.222-2.277c-.017-.092.16-.13.22-.047,2.309,3.178.914,7.768.886,7.853h0l-.135.347A.648.648,0,0,1,330.478,196.428Z" transform="translate(-220.095 -149.498)" fill="#e6e6e6"/>
      <path id="Path_14583" data-name="Path 14583" d="M407.736,223.292a28.625,28.625,0,0,1,11.87-5.861c.08-.015.057-.1-.027-.092a7.331,7.331,0,0,0-.824.117c-.072.013-.12-.052-.06-.082a15.515,15.515,0,0,1,1.633-.789c.07-.03.02-.1-.057-.087a8.793,8.793,0,0,0-1.628.557c-.07.032-.145-.035-.085-.075.19-.12.394-.25.619-.377.062-.037,0-.1-.075-.08a6.941,6.941,0,0,0-2.481,1.5h0a13.963,13.963,0,0,1,2.1-1.822c.055-.04-.015-.1-.082-.075a8.9,8.9,0,0,0-1.3.676c-.065.04-.152-.022-.1-.067s.137-.112.21-.17-.02-.1-.087-.072a9.419,9.419,0,0,0-1.63.929c-.06.04-.152-.015-.1-.062a18.575,18.575,0,0,1,1.418-1.248c.052-.042-.022-.1-.087-.072a10.269,10.269,0,0,0-4.024,3.48h0a20.991,20.991,0,0,1,2.661-3.32c.045-.047-.037-.1-.1-.065a9.428,9.428,0,0,0-1.8,1.368c-.05.047-.155,0-.112-.052.18-.225.369-.452.574-.679.042-.047-.042-.1-.1-.062a10.905,10.905,0,0,0-2.426,2.1c-.045.052-.157,0-.117-.047a11.408,11.408,0,0,1,.814-.981c.042-.045-.037-.1-.1-.065a5.99,5.99,0,0,0-1.71,1.355c-.045.05-.155,0-.12-.045.172-.272.362-.549.569-.829.035-.047-.05-.092-.107-.057a6.013,6.013,0,0,0-1.807,1.842c-.035.052-.152.022-.127-.035a10.96,10.96,0,0,1,.639-1.248c.03-.05-.06-.09-.11-.05a6.613,6.613,0,0,0-2.277,4.294h0v.21C407.169,223.355,407.541,223.452,407.736,223.292Z" transform="translate(-284.252 -175.831)" fill="#e6e6e6"/>
      <path id="Path_14584" data-name="Path 14584" d="M383.021,191.049c-.349-3.038-.749-11.545,4.436-18.068.072-.092-.11-.18-.2-.095a7.988,7.988,0,0,0-.831.889c-.065.082-.25.042-.227-.05a13.411,13.411,0,0,1,.647-2.464c.035-.1-.162-.15-.227-.057a7.279,7.279,0,0,0-1.056,2.164c-.03.1-.25.087-.25-.02.017-.322.05-.669.1-1.031.015-.1-.195-.132-.237-.035a6.535,6.535,0,0,0-.419,4.136h0a15.423,15.423,0,0,1-.629-4.2c0-.1-.2-.117-.25-.02a7.737,7.737,0,0,0-.429,2.024c0,.107-.232.107-.25,0s-.027-.267-.04-.4-.21-.11-.25,0a8.338,8.338,0,0,0-.384,2.639c0,.1-.22.117-.25.012a22.558,22.558,0,0,1-.449-2.863c0-.1-.212-.11-.25-.012-.976,3.313.6,6.85,1.183,7.988h0a30.237,30.237,0,0,1-2.631-6.59c-.025-.1-.227-.092-.25,0a9.5,9.5,0,0,0,.187,3.347c.022.107-.195.14-.25.037q-.27-.67-.5-1.375c-.032-.1-.232-.087-.25,0a12.037,12.037,0,0,0,.714,4.83c.037.107-.187.15-.235.045a15.7,15.7,0,0,1-.749-1.97c-.027-.095-.22-.09-.25,0a6.293,6.293,0,0,0,.285,3.245c.035.1-.177.152-.232.052-.275-.5-.539-1.021-.776-1.56-.042-.092-.232-.072-.25.022a7.524,7.524,0,0,0,1.036,3.954c.052.1-.15.165-.222.07a20.886,20.886,0,0,1-1.443-2.154c-.052-.087-.25-.06-.235.037.192,3.724,4.783,7.4,4.87,7.474h0l.374.27C382.4,191.635,383.051,191.425,383.021,191.049Z" transform="translate(-265.121 -142.16)" fill="#e0e0e0"/>
      <path id="Path_14585" data-name="Path 14585" d="M372.231,235.43a2.329,2.329,0,0,1,2.326,2.431c-.31,6.8-1.85,9.151-9.428,9.151s-9.119-2.351-9.426-9.151a2.326,2.326,0,0,1,2.327-2.431Z" transform="translate(-245.624 -190.39)" fill="#ebebeb"/>
      <path id="Path_14586" data-name="Path 14586" d="M53.236,202.911c-.934-2.009-3.817-7.5-8.62-10.384a.062.062,0,0,1,.062-.107,5.381,5.381,0,0,1,.714.364.065.065,0,0,0,.087-.09,13.37,13.37,0,0,0-1.193-1.405c-.052-.052.022-.135.085-.092a6.6,6.6,0,0,1,1.281,1.121.065.065,0,0,0,.107-.072c-.125-.2-.265-.412-.419-.632-.045-.06.042-.13.1-.077a6.52,6.52,0,0,1,1.69,2.521h0a15.085,15.085,0,0,0-1.218-2.811c-.037-.062.052-.125.1-.07a7.739,7.739,0,0,1,.931,1.188c.042.067.15.012.117-.057l-.117-.27c-.032-.062.057-.12.107-.065a8.4,8.4,0,0,1,1.141,1.575c.037.067.145.025.117-.047-.222-.6-.5-1.248-.811-1.925a.065.065,0,0,1,.107-.067,11.2,11.2,0,0,1,2.329,5.354h0A26.5,26.5,0,0,0,48.8,192.05a.065.065,0,0,1,.115-.055,9.436,9.436,0,0,1,1.121,2.169c.027.072.145.042.127-.032-.077-.327-.165-.659-.262-1-.022-.067.077-.11.117-.05a11.7,11.7,0,0,1,1.408,3.245c.022.075.142.05.127-.027a14.308,14.308,0,0,0-.359-1.44c-.022-.065.07-.11.115-.052a6.168,6.168,0,0,1,1.038,2.127.067.067,0,0,0,.13-.022c-.052-.382-.115-.776-.2-1.176a.065.065,0,0,1,.12-.045,6.99,6.99,0,0,1,.939,2.746.065.065,0,0,0,.13,0,15.081,15.081,0,0,0-.095-1.715.065.065,0,0,1,.122-.032c1.248,2.406.419,5.849.4,5.914h0l-.077.25a.315.315,0,0,1-.584.057Z" transform="translate(-33.219 -157.168)" fill="#f5f5f5"/>
      <path id="Path_14587" data-name="Path 14587" d="M88.069,214.608c.559-1.375,2.3-5.122,5.29-6.989a.045.045,0,0,0-.04-.077,3.075,3.075,0,0,0-.447.232c-.037.025-.082-.025-.057-.062a8.364,8.364,0,0,1,.734-.946c.032-.037-.015-.095-.055-.067a3.959,3.959,0,0,0-.794.749c-.03.04-.092,0-.067-.052.075-.135.16-.28.25-.427.027-.042-.03-.092-.062-.057a4.189,4.189,0,0,0-1.031,1.71h0a10.234,10.234,0,0,1,.729-1.925c.02-.042-.037-.087-.07-.052a4.878,4.878,0,0,0-.572.8c-.025.045-.092,0-.075-.042l.077-.182c.017-.042-.04-.085-.07-.047a5.362,5.362,0,0,0-.694,1.066c-.022.047-.092.012-.077-.037.132-.412.292-.861.484-1.318.02-.045-.04-.087-.07-.05a7.7,7.7,0,0,0-1.388,3.667h0a19.13,19.13,0,0,1,.649-3.325c.012-.047-.05-.08-.075-.04a6.323,6.323,0,0,0-.676,1.48c-.015.05-.09.025-.08-.027.045-.225.095-.454.152-.684,0-.047-.052-.08-.077-.037a8.008,8.008,0,0,0-.839,2.214c-.012.055-.09.032-.082-.022.052-.317.12-.649.207-1,0-.045-.047-.077-.072-.04a4.2,4.2,0,0,0-.632,1.453c0,.05-.085.032-.08-.02.025-.265.06-.539.107-.816,0-.045-.055-.072-.077-.032a4.905,4.905,0,0,0-.552,1.895.042.042,0,0,1-.082,0,11.379,11.379,0,0,1,.035-1.193c0-.047-.06-.07-.077-.027a7.578,7.578,0,0,0-.167,4.111h0l.052.185a.195.195,0,0,0,.372.04Z" transform="translate(-61.689 -168.779)" fill="#f5f5f5"/>
      <path id="Path_14588" data-name="Path 14588" d="M87.4,201.575c.791-1.64,3.225-6.111,7.2-8.42a.051.051,0,1,0-.047-.09,4.728,4.728,0,0,0-.589.29.052.052,0,0,1-.072-.072,10.758,10.758,0,0,1,1-1.138.052.052,0,0,0-.07-.077,5.431,5.431,0,0,0-1.066.9.052.052,0,0,1-.085-.06,5.7,5.7,0,0,1,.352-.5.055.055,0,0,0-.082-.067,5.362,5.362,0,0,0-1.418,2.049h0a12.482,12.482,0,0,1,1.036-2.292c.032-.052-.042-.1-.085-.06A6.447,6.447,0,0,0,92.7,193c-.035.055-.122,0-.095-.047s.07-.145.107-.215a.052.052,0,0,0-.087-.057,6.9,6.9,0,0,0-.954,1.281.053.053,0,1,1-.1-.042,16.793,16.793,0,0,1,.691-1.568.052.052,0,0,0-.087-.057,9.205,9.205,0,0,0-1.98,4.366h0a21.655,21.655,0,0,1,1-3.934.055.055,0,0,0-.095-.047,7.871,7.871,0,0,0-.946,1.767.053.053,0,1,1-.1-.03c.067-.267.142-.537.227-.811a.052.052,0,0,0-.095-.042,9.608,9.608,0,0,0-1.2,2.639.053.053,0,0,1-.1-.025,11.058,11.058,0,0,1,.315-1.168.052.052,0,0,0-.095-.045,5.08,5.08,0,0,0-.879,1.732.053.053,0,1,1-.1-.02c.045-.312.1-.637.177-.961a.055.055,0,0,0-.1-.037,5.741,5.741,0,0,0-.806,2.247.052.052,0,0,1-.1,0,12.569,12.569,0,0,1,.1-1.405.052.052,0,0,0-.1-.03c-1.061,1.962-.419,4.8-.407,4.848h0l.062.215a.25.25,0,0,0,.464.027Z" transform="translate(-61.088 -157.821)" fill="#e6e6e6"/>
      <path id="Path_14589" data-name="Path 14589" d="M58.475,218.122a12.406,12.406,0,0,0-5.449-3.62c-.037,0-.025-.06,0-.057a3.168,3.168,0,0,1,.379.075.03.03,0,0,0,.027-.052,6.417,6.417,0,0,0-.749-.487.03.03,0,0,1,.027-.052,3.357,3.357,0,0,1,.749.342c.032.02.067-.02.04-.045-.087-.075-.182-.155-.285-.235-.03-.022,0-.065.035-.047a3.22,3.22,0,0,1,1.138.931h0a7.571,7.571,0,0,0-.966-1.123.03.03,0,0,1,.037-.047,4.068,4.068,0,0,1,.6.417c.027.025.07-.012.045-.04l-.1-.1c-.025-.025,0-.062.04-.045a4.244,4.244,0,0,1,.749.572c.027.025.07,0,.047-.037a10.037,10.037,0,0,0-.652-.774c-.025-.025,0-.062.04-.045a5.551,5.551,0,0,1,1.842,2.142h0a13.135,13.135,0,0,0-1.223-2.049.03.03,0,1,1,.045-.04,4.722,4.722,0,0,1,.854.844c.022.03.072,0,.052-.03-.082-.14-.17-.28-.265-.419a.032.032,0,0,1,.047-.04,5.816,5.816,0,0,1,1.113,1.3c.022.03.072,0,.055-.03-.11-.2-.232-.4-.374-.607-.02-.027.017-.06.045-.04a3.15,3.15,0,0,1,.786.836.03.03,0,0,0,.037-.03c-.08-.167-.167-.339-.25-.5-.017-.027.022-.057.047-.035a3.425,3.425,0,0,1,.831,1.136c.017.035.07.015.057-.02a7.516,7.516,0,0,0-.292-.769.03.03,0,0,1,.05-.032,4.758,4.758,0,0,1,1.046,2.649h0v.13a.15.15,0,0,1-.262.085Z" transform="translate(-39.523 -174.041)" fill="#e6e6e6"/>
      <path id="Path_14590" data-name="Path 14590" d="M73.2,198.209c.16-1.877.344-7.127-2.037-11.153-.035-.057.05-.11.092-.057a4.571,4.571,0,0,1,.382.549.055.055,0,0,0,.1-.032,10.693,10.693,0,0,0-.295-1.52c-.017-.06.075-.092.1-.035a5.355,5.355,0,0,1,.484,1.335.055.055,0,0,0,.11-.012,4.827,4.827,0,0,0-.045-.637.057.057,0,0,1,.11-.022,5.352,5.352,0,0,1,.192,2.554h0a12.505,12.505,0,0,0,.287-2.589.055.055,0,1,1,.11,0,6.328,6.328,0,0,1,.2,1.248.057.057,0,0,0,.112,0c0-.082.012-.165.017-.25a.057.057,0,0,1,.112,0,6.822,6.822,0,0,1,.177,1.628.057.057,0,0,0,.112,0c.09-.539.17-1.138.212-1.765a.057.057,0,0,1,.112,0,9.415,9.415,0,0,1-.544,4.933h0a22.494,22.494,0,0,0,1.208-4.066.055.055,0,0,1,.11,0,7.9,7.9,0,0,1-.085,2.067c0,.065.09.085.107.022.082-.277.16-.559.23-.849a.055.055,0,0,1,.11,0,9.765,9.765,0,0,1-.327,2.98c-.017.067.085.092.107.03a12.307,12.307,0,0,0,.342-1.213.057.057,0,0,1,.11,0,5.127,5.127,0,0,1-.13,2,.056.056,0,0,0,.107.03c.125-.307.25-.629.357-.961a.057.057,0,0,1,.11.012,5.929,5.929,0,0,1-.477,2.441c-.025.06.07.1.1.042a13.432,13.432,0,0,0,.661-1.328.055.055,0,0,1,.107.022c-.087,2.3-2.194,4.571-2.247,4.613h0l-.17.165a.265.265,0,0,1-.442-.18Z" transform="translate(-53.394 -153.247)" fill="#e0e0e0"/>
      <path id="Path_14591" data-name="Path 14591" d="M61.8,225.6a1.435,1.435,0,0,0-1.435,1.5c.19,4.2,1.141,5.646,5.819,5.646s5.627-1.45,5.816-5.646a1.435,1.435,0,0,0-1.435-1.5Z" transform="translate(-45.296 -183.014)" fill="#ebebeb"/>
      <rect id="Rectangle_5879" data-name="Rectangle 5879" width="30.766" height="1.273" transform="translate(132.426 57.893) rotate(180)" fill="#f5f5f5"/>
      <rect id="Rectangle_5880" data-name="Rectangle 5880" width="6.445" height="1.273" transform="translate(87.226 56.622)" fill="#e0e0e0"/>
      <path id="Path_14592" data-name="Path 14592" d="M309.08,286.93h.27l3.118,23.832h-.27Z" transform="translate(-218.401 -229.035)" fill="#e0e0e0"/>
      <path id="Path_14593" data-name="Path 14593" d="M298.9,286.93h-.27l-3.118,23.832h.27Z" transform="translate(-208.812 -229.035)" fill="#e0e0e0"/>
      <path id="Path_14594" data-name="Path 14594" d="M432.33,286.93h.27l3.115,23.832h-.27Z" transform="translate(-303.124 -229.035)" fill="#e0e0e0"/>
      <path id="Path_14595" data-name="Path 14595" d="M422.147,286.93h-.27l-3.118,23.832h.27Z" transform="translate(-292.942 -229.035)" fill="#e0e0e0"/>
    </g>
    <g id="undraw_shopping_app_flsj" transform="translate(511.075 482.199)">
      <path id="Path_13862" data-name="Path 13862" d="M199.513,100.213h-.479V87.078a7.6,7.6,0,0,0-7.6-7.6H163.6a7.6,7.6,0,0,0-7.6,7.6v72.061a7.6,7.6,0,0,0,7.6,7.6h27.829a7.6,7.6,0,0,0,7.6-7.6V109.563h.479Z" transform="translate(-91.984 -79.476)" fill="#e6e6e6"/>
      <path id="Path_13863" data-name="Path 13863" d="M207.28,96.107h-3.633a2.7,2.7,0,0,1-2.5,3.716H185.208a2.7,2.7,0,0,1-2.5-3.716h-3.393a5.677,5.677,0,0,0-5.677,5.677V173.74a5.677,5.677,0,0,0,5.677,5.677H207.28a5.677,5.677,0,0,0,5.677-5.677V101.785a5.677,5.677,0,0,0-5.677-5.677Z" transform="translate(-107.526 -94.13)" fill="#fff"/>
      <circle id="Ellipse_1270" data-name="Ellipse 1270" cx="2.398" cy="2.398" r="2.398" transform="translate(93.661 69.666)" fill="#fff"/>
      <path id="Path_13885" data-name="Path 13885" d="M615.778,536.554h-.892a.118.118,0,0,0-.118.118v.391a.118.118,0,0,0,.118.118h.148v.587h.6v-.587h.148a.118.118,0,0,0,.118-.118v-.391A.118.118,0,0,0,615.778,536.554Z" transform="translate(-558.917 -482.197)" fill="#e6e6e6"/>
      <path id="Path_13887" data-name="Path 13887" d="M617.919,537.627a.255.255,0,0,1-.51,0" transform="translate(-561.243 -483.143)" opacity="0.2"/>
      <path id="Path_13891" data-name="Path 13891" d="M840.995,714.273h-3.471a.356.356,0,0,0-.352.411l.525,3.41h3.012l.637-3.4a.356.356,0,0,0-.35-.422Z" transform="translate(-754.867 -638.782)" fill="#fff"/>
      <circle id="Ellipse_1271" data-name="Ellipse 1271" cx="2.398" cy="2.398" r="2.398" transform="translate(73.008 71.219)" fill="#fff"/>
      <path id="Path_13893" data-name="Path 13893" d="M322.243,290.846l2.234-.2,1.422-3.453-2.539-1.422Z" transform="translate(-282.628 -251.784)" fill="#ffb8b8"/>
      <path id="Path_13894" data-name="Path 13894" d="M613.067,473.327h0a1.26,1.26,0,0,0-1.094-1.726l-3.469-.207-.511,1.7,3.571.981A1.26,1.26,0,0,0,613.067,473.327Z" transform="translate(-552.948 -424.786)" fill="#ffb8b8"/>
      <path id="Path_13895" data-name="Path 13895" d="M492.744,406.066l-.038-3.187L485,401.65l-5.936-6.808a1.943,1.943,0,0,0-2.532-.346h0a1.943,1.943,0,0,0-.338,2.964l4.9,6.027Z" transform="translate(-436.349 -356.751)" fill="#407bff"/>
      <path id="Path_13896" data-name="Path 13896" d="M463.726,541.328h2.031l5.038-22.778,5.219,7.036,3.047,15.233h1.93l-.406-16.35L473.78,507h-6.7c-1.832,3.315-3.268,6.732-1.625,10.257Z" transform="translate(-425.837 -456.16)" fill="#2f2e41"/>
      <path id="Path_13897" data-name="Path 13897" d="M582.025,789.882a.53.53,0,0,0,.413.68l4.97.882a.818.818,0,0,0,.928-.56h0a.813.813,0,0,0-.4-.966,7.6,7.6,0,0,1-2.741-2.383,1.393,1.393,0,0,1-1.805.086l-.688.086Z" transform="translate(-530.047 -703.33)" fill="#2f2e41"/>
      <path id="Path_13898" data-name="Path 13898" d="M455.639,789.882a.53.53,0,0,0,.413.68l4.97.882a.818.818,0,0,0,.928-.56h0a.813.813,0,0,0-.4-.966,7.6,7.6,0,0,1-2.741-2.383,1.393,1.393,0,0,1-1.805.086l-.688.086Z" transform="translate(-418.691 -703.33)" fill="#2f2e41"/>
      <circle id="Ellipse_1272" data-name="Ellipse 1272" cx="2.844" cy="2.844" r="2.844" transform="translate(40.479 30.988)" fill="#ffb8b8"/>
      <path id="Path_13899" data-name="Path 13899" d="M471.231,403.931l7.413-.2-2.177-6.852c1.353-2.169-.009-4.336-1.936-6.5l-1.523-1.016-2.437-.2h0a5.983,5.983,0,0,0-1.611,4.168A26.851,26.851,0,0,0,471.231,403.931Z" transform="translate(-430.448 -352.327)" fill="#407bff"/>
      <path id="Path_13900" data-name="Path 13900" d="M597.414,525.724h0a1.26,1.26,0,0,0-.327-2.018l-3.108-1.555-1.138,1.361,2.9,2.306A1.26,1.26,0,0,0,597.414,525.724Z" transform="translate(-539.598 -469.507)" fill="#ffb8b8"/>
      <path id="Path_13901" data-name="Path 13901" d="M511.378,419.565l1.219-2.945-6.6-4.162-2.779-8.594a1.943,1.943,0,0,0-2.192-1.315h0a1.943,1.943,0,0,0-1.477,2.592l2.132,7.467Z" transform="translate(-457.291 -364.102)" fill="#407bff"/>
      <path id="Path_13902" data-name="Path 13902" d="M470.13,329.469a5.384,5.384,0,0,0,1.625,3.554c.61.494,1.416.473,1.726-.2a8.048,8.048,0,0,1,3.351-3.351c2.578-1.368-.914-3.708-3.351-3.351A3.552,3.552,0,0,0,470.13,329.469Z" transform="translate(-431.479 -296.754)" fill="#2f2e41"/>
      <circle id="Ellipse_1273" data-name="Ellipse 1273" cx="2.031" cy="2.031" r="2.031" transform="translate(38.346 27.129)" fill="#2f2e41"/>
      <path id="Path_13903" data-name="Path 13903" d="M490.369,303.655a2.03,2.03,0,0,0-1.879-2.023c.05,0,.1-.008.152-.008a2.031,2.031,0,1,1,0,4.062c-.051,0-.1,0-.152-.008A2.03,2.03,0,0,0,490.369,303.655Z" transform="translate(-447.657 -275.206)" fill="#2f2e41"/>
      <ellipse id="Ellipse_1274" data-name="Ellipse 1274" cx="0.457" cy="0.609" rx="0.457" ry="0.609" transform="translate(42.916 33.629)" fill="#ffb8b8"/>
      <path id="Path_13904" data-name="Path 13904" d="M511.557,439.823H479.939l-6.7-31.651h-5.714v-1.42h6.865l6.7,31.651h30.467Z" transform="translate(-410.636 -358.38)" fill="#3f3d56"/>
      <circle id="Ellipse_1275" data-name="Ellipse 1275" cx="3.043" cy="3.043" r="3.043" transform="translate(70.893 81.139)" fill="#3f3d56"/>
      <circle id="Ellipse_1276" data-name="Ellipse 1276" cx="3.043" cy="3.043" r="3.043" transform="translate(93.617 81.139)" fill="#3f3d56"/>
      <path id="Path_13905" data-name="Path 13905" d="M720.774,559.968H690.012l-5.428-26.823h41.284a1.459,1.459,0,0,1,1.441,1.685l-5.094,23.906a1.451,1.451,0,0,1-1.441,1.232Zm-30.429-.406h30.429a1.047,1.047,0,0,0,1.04-.889l5.094-23.906a1.053,1.053,0,0,0-1.04-1.216H685.077Z" transform="translate(-620.43 -479.194)" fill="#3f3d56"/>
      <path id="Path_13906" data-name="Path 13906" d="M598.178,481.664l-3.555-26.5.4-.066,3.555,26.5Z" transform="translate(-522.616 -400.976)" fill="#3f3d56"/>
      <path id="Path_13907" data-name="Path 13907" d="M787.744,481.465l-.4-.065,3.451-26.3.4.065Z" transform="translate(-692.417 -400.98)" fill="#3f3d56"/>
      <rect id="Rectangle_5665" data-name="Rectangle 5665" width="0.406" height="26.501" transform="translate(85.504 54.154)" fill="#3f3d56"/>
      <rect id="Rectangle_5666" data-name="Rectangle 5666" width="0.406" height="39.279" transform="translate(66.226 61.661) rotate(-89.861)" fill="#3f3d56"/>
      <rect id="Rectangle_5667" data-name="Rectangle 5667" width="34.509" height="0.406" transform="translate(68.227 74.026) rotate(-0.392)" fill="#3f3d56"/>
      <ellipse id="Ellipse_1277" data-name="Ellipse 1277" cx="2.232" cy="1.217" rx="2.232" ry="1.217" transform="translate(55.27 47.662)" fill="#3f3d56"/>
    </g>
  </g>
</svg>
