<svg xmlns="http://www.w3.org/2000/svg" width="126.578" height="94.316" viewBox="0 0 126.578 94.316">
  <g id="Group_8346" data-name="Group 8346" transform="translate(-618 -282)">
    <g id="Notes-rafiki" transform="translate(618 227)">
      <g id="freepik--background-complete--inject-387" transform="translate(0 55)">
        <rect id="Rectangle_6150" data-name="Rectangle 6150" width="126.578" height="0.063" transform="translate(0 82.883)" fill="#ebebeb"/>
        <rect id="Rectangle_6151" data-name="Rectangle 6151" width="8.385" height="0.063" transform="translate(105.51 86.956)" fill="#ebebeb"/>
        <rect id="Rectangle_6152" data-name="Rectangle 6152" width="2.2" height="0.063" transform="translate(81.65 87.645)" fill="#ebebeb"/>
        <rect id="Rectangle_6153" data-name="Rectangle 6153" width="4.858" height="0.063" transform="translate(100.399 84.607)" fill="#ebebeb"/>
        <rect id="Rectangle_6154" data-name="Rectangle 6154" width="10.934" height="0.063" transform="translate(13.281 85.032)" fill="#ebebeb"/>
        <rect id="Rectangle_6155" data-name="Rectangle 6155" width="1.602" height="0.063" transform="translate(26.47 85.032)" fill="#ebebeb"/>
        <rect id="Rectangle_6156" data-name="Rectangle 6156" width="23.716" height="0.063" transform="translate(33.282 86.101)" fill="#ebebeb"/>
        <path id="Path_15924" data-name="Path 15924" d="M88.535,126.592H39.653a1.446,1.446,0,0,1-1.443-1.446V56.433A1.446,1.446,0,0,1,39.653,55H88.535a1.446,1.446,0,0,1,1.446,1.446v68.7A1.446,1.446,0,0,1,88.535,126.592ZM39.653,55.051a1.382,1.382,0,0,0-1.38,1.382v68.714a1.382,1.382,0,0,0,1.38,1.382H88.535a1.385,1.385,0,0,0,1.382-1.382V56.433a1.385,1.385,0,0,0-1.382-1.382Z" transform="translate(-28.537 -55)" fill="#ebebeb"/>
        <path id="Path_15925" data-name="Path 15925" d="M304.83,126.592H255.945a1.448,1.448,0,0,1-1.445-1.446V56.433A1.448,1.448,0,0,1,255.945,55H304.83a1.445,1.445,0,0,1,1.44,1.433v68.714A1.446,1.446,0,0,1,304.83,126.592ZM255.945,55.051a1.385,1.385,0,0,0-1.382,1.382v68.714a1.385,1.385,0,0,0,1.382,1.382H304.83a1.385,1.385,0,0,0,1.382-1.382V56.433a1.385,1.385,0,0,0-1.382-1.382Z" transform="translate(-190.072 -55)" fill="#ebebeb"/>
        <rect id="Rectangle_6157" data-name="Rectangle 6157" width="30.267" height="66.937" transform="translate(24.521 15.946)" fill="#f0f0f0"/>
        <rect id="Rectangle_6158" data-name="Rectangle 6158" width="28.832" height="66.937" transform="translate(25.956 15.946)" fill="#f5f5f5"/>
        <rect id="Rectangle_6159" data-name="Rectangle 6159" width="63.899" height="25.794" transform="translate(53.266 17.463) rotate(90)" fill="#f0f0f0"/>
        <path id="Path_15926" data-name="Path 15926" d="M185.073,239.837h2.142a1.076,1.076,0,0,0,1.071-1.073h0a1.076,1.076,0,0,0-1.071-1.073h-2.142A1.078,1.078,0,0,0,184,238.763h0A1.078,1.078,0,0,0,185.073,239.837Z" transform="translate(-137.419 -191.441)" fill="#fff"/>
        <rect id="Rectangle_6160" data-name="Rectangle 6160" width="63.899" height="0.395" transform="translate(53.269 17.465) rotate(90)" fill="#f0f0f0"/>
        <rect id="Rectangle_6161" data-name="Rectangle 6161" width="6.881" height="27.596" transform="translate(72.03 54.12)" fill="#f0f0f0"/>
        <rect id="Rectangle_6162" data-name="Rectangle 6162" width="33.93" height="1.167" transform="translate(73.349 81.716)" fill="#f0f0f0"/>
        <rect id="Rectangle_6163" data-name="Rectangle 6163" width="29.693" height="27.596" transform="translate(108.604 81.716) rotate(180)" fill="#f5f5f5"/>
        <rect id="Rectangle_6164" data-name="Rectangle 6164" width="24.283" height="6.035" transform="translate(105.897 62.42) rotate(180)" fill="#f0f0f0"/>
        <rect id="Rectangle_6165" data-name="Rectangle 6165" width="24.283" height="15.23" transform="translate(105.897 79.453) rotate(180)" fill="#f0f0f0"/>
        <rect id="Rectangle_6166" data-name="Rectangle 6166" width="6.795" height="0.828" rx="0.414" transform="translate(90.359 58.988)" fill="#f5f5f5"/>
        <rect id="Rectangle_6167" data-name="Rectangle 6167" width="6.795" height="0.828" rx="0.414" transform="translate(90.359 71.116)" fill="#f5f5f5"/>
        <rect id="Rectangle_6168" data-name="Rectangle 6168" width="9.709" height="18.303" transform="translate(98.829 18.761)" fill="#e6e6e6"/>
        <rect id="Rectangle_6169" data-name="Rectangle 6169" width="11.402" height="18.303" transform="translate(99.31 18.761)" fill="#f5f5f5"/>
        <rect id="Rectangle_6170" data-name="Rectangle 6170" width="15.05" height="7.931" transform="translate(108.978 20.384) rotate(90)" fill="#fff"/>
        <rect id="Rectangle_6171" data-name="Rectangle 6171" width="9.709" height="18.303" transform="translate(82.772 13.41)" fill="#e6e6e6"/>
        <rect id="Rectangle_6172" data-name="Rectangle 6172" width="11.402" height="18.303" transform="translate(83.25 13.41)" fill="#f5f5f5"/>
        <rect id="Rectangle_6173" data-name="Rectangle 6173" width="15.05" height="7.931" transform="translate(92.918 15.035) rotate(90)" fill="#fff"/>
        <rect id="Rectangle_6174" data-name="Rectangle 6174" width="9.709" height="18.303" transform="translate(68.068 25.237)" fill="#e6e6e6"/>
        <rect id="Rectangle_6175" data-name="Rectangle 6175" width="11.405" height="18.303" transform="translate(68.549 25.237)" fill="#f5f5f5"/>
        <rect id="Rectangle_6176" data-name="Rectangle 6176" width="15.05" height="7.931" transform="translate(78.217 26.86) rotate(90)" fill="#fff"/>
      </g>
      <g id="freepik--Shadow--inject-387" transform="translate(14.205 143.584)">
        <ellipse id="freepik--path--inject-387" cx="49.084" cy="2.866" rx="49.084" ry="2.866" fill="#f5f5f5"/>
      </g>
      <g id="freepik--Character--inject-393" transform="translate(-197 -21.946)">
        <path id="Path_15877" data-name="Path 15877" d="M353.69,139.285c.152-.077.341-.171.5-.268s.341-.191.512-.294c.333-.207.671-.41.99-.635a13.135,13.135,0,0,0,1.8-1.478c.07-.065.131-.137.2-.207l.1-.1.048-.051.024-.027h0c-.024.046,0,.032,0-.012a.9.9,0,0,0,.026-.186,5.225,5.225,0,0,0-.125-1.079c-.152-.765-.382-1.553-.609-2.325l.662-.29a13.882,13.882,0,0,1,1.043,2.321,5.405,5.405,0,0,1,.294,1.347,2.048,2.048,0,0,1-.014.428,1.316,1.316,0,0,1-.208.562l-.029.039-.022.027-.026.032-.053.065-.106.128c-.07.084-.138.171-.213.251a12.265,12.265,0,0,1-1.942,1.741,12.88,12.88,0,0,1-1.074.715c-.183.111-.369.217-.558.321s-.374.2-.592.3Z" transform="translate(-54.962 -16.037)" fill="#ffb573"/>
        <path id="Path_15878" data-name="Path 15878" d="M343.178,406.418a1.748,1.748,0,0,0,.379-.051.037.037,0,0,0,.026-.027.036.036,0,0,0-.015-.034c-.049-.032-.483-.312-.65-.237a.116.116,0,0,0-.067.1.193.193,0,0,0,.056.179A.4.4,0,0,0,343.178,406.418Zm.282-.1a.689.689,0,0,1-.512-.026.131.131,0,0,1-.034-.121.051.051,0,0,1,.029-.043C343.033,406.09,343.284,406.217,343.46,406.319Z" transform="translate(-45.969 -243.043)" fill="#407bff"/>
        <path id="Path_15879" data-name="Path 15879" d="M345.137,404.753h.017a.036.036,0,0,0,.017-.029c0-.019,0-.43-.157-.567a.171.171,0,0,0-.143-.046.118.118,0,0,0-.114.094c-.032.171.227.469.364.548A.031.031,0,0,0,345.137,404.753Zm-.244-.579a.113.113,0,0,1,.075.029.773.773,0,0,1,.133.451c-.137-.109-.3-.341-.278-.439,0-.015.012-.036.055-.041Z" transform="translate(-47.55 -241.429)" fill="#407bff"/>
        <path id="Path_15880" data-name="Path 15880" d="M332.638,148.07c-.171.853-.512,2.56.077,3.132,0,0-.232.853-1.808.853-1.734,0-.828-.853-.828-.853.946-.225.92-.927.756-1.587Z" transform="translate(-35.185 -29.09)" fill="#ffb573"/>
        <path id="Path_15881" data-name="Path 15881" d="M328.664,163.725c-.271.038-.039-.667.07-.741.256-.171,3.56-.408,3.538,0a1.077,1.077,0,0,1-.239.625A17.271,17.271,0,0,0,328.664,163.725Z" transform="translate(-34.102 -41.272)" fill="#263238"/>
        <path id="Path_15882" data-name="Path 15882" d="M331.6,160.512c-.217.073-.2-.637-.123-.722.171-.2,2.845-.884,2.924-.5a1.087,1.087,0,0,1-.046.633A12.543,12.543,0,0,0,331.6,160.512Z" transform="translate(-36.494 -38.302)" fill="#263238"/>
        <path id="Path_15883" data-name="Path 15883" d="M323.822,137.314a.068.068,0,0,1-.056-.026.543.543,0,0,0-.442-.21.067.067,0,0,1-.075-.06.068.068,0,0,1,.06-.073.667.667,0,0,1,.561.258.068.068,0,0,1-.009.1A.085.085,0,0,1,323.822,137.314Z" transform="translate(-29.716 -19.864)" fill="#263238"/>
        <path id="Path_15884" data-name="Path 15884" d="M323.011,144a3.055,3.055,0,0,1-.341.773.5.5,0,0,0,.417.036Z" transform="translate(-29.236 -25.715)" fill="#ff5652"/>
        <path id="Path_15885" data-name="Path 15885" d="M323.835,141.843c.012.114-.041.213-.116.22s-.145-.079-.155-.195.041-.213.114-.22S323.823,141.727,323.835,141.843Z" transform="translate(-29.976 -23.764)" fill="#263238"/>
        <path id="Path_15886" data-name="Path 15886" d="M323.063,141.413l-.283-.053S322.942,141.561,323.063,141.413Z" transform="translate(-29.327 -23.525)" fill="#263238"/>
        <path id="Path_15887" data-name="Path 15887" d="M349.75,391.6h-1.43l.113-3.311h1.43Z" transform="translate(-50.508 -228.31)" fill="#ffb573"/>
        <path id="Path_15888" data-name="Path 15888" d="M337.648,406.72h1.606a.113.113,0,0,1,.114.1l.183,1.27a.229.229,0,0,1-.229.254c-.56-.009-.829-.043-1.536-.043-.435,0-1.07.046-1.669.046s-.633-.594-.382-.647a2.8,2.8,0,0,0,1.674-.891A.377.377,0,0,1,337.648,406.72Z" transform="translate(-39.949 -243.594)" fill="#263238"/>
        <g id="Group_8338" data-name="Group 8338" transform="translate(297.867 159.98)" opacity="0.2">
          <path id="Path_15889" data-name="Path 15889" d="M350.128,388.29H348.7L348.64,390h1.43Z" transform="translate(-348.64 -388.29)"/>
        </g>
        <path id="Path_15890" data-name="Path 15890" d="M293.553,143.16a27.738,27.738,0,0,1-2.569-1.152,15.571,15.571,0,0,1-2.458-1.5,5.858,5.858,0,0,1-.584-.524c-.048-.051-.1-.1-.142-.159a1.935,1.935,0,0,1-.15-.193,1.347,1.347,0,0,1-.229-.616,1.4,1.4,0,0,1,.084-.618,1.815,1.815,0,0,1,.241-.444,3.1,3.1,0,0,1,.579-.6,7.17,7.17,0,0,1,1.246-.8c.212-.113.427-.213.645-.307s.434-.183.667-.263l.3.657a11.765,11.765,0,0,0-2.082,1.563,2.365,2.365,0,0,0-.333.425c-.082.135-.08.236-.067.227s0,0,.024.017l.068.073c.026.031.061.061.094.094a4.369,4.369,0,0,0,.459.369,10.733,10.733,0,0,0,1.1.683c.384.215.78.418,1.183.613.806.386,1.639.756,2.456,1.094Z" transform="translate(0 -19.072)" fill="#ffb573"/>
        <path id="Path_15891" data-name="Path 15891" d="M307.249,132.879l.236-.512L306.406,132s-.341,1.009.063,1.473h0A1.033,1.033,0,0,0,307.249,132.879Z" transform="translate(-15.636 -15.763)" fill="#ffb573"/>
        <path id="Path_15892" data-name="Path 15892" d="M308.134,126.449l-.859-.249-.215.983,1.074.374Z" transform="translate(-16.29 -10.953)" fill="#ffb573"/>
        <path id="Path_15893" data-name="Path 15893" d="M373.581,128.635l.125-1.195-1.106.266s-.017,1.123.568,1.3Z" transform="translate(-70.644 -11.981)" fill="#ffb573"/>
        <path id="Path_15894" data-name="Path 15894" d="M372.452,122.51l-.722.336.148.763,1.106-.261Z" transform="translate(-69.922 -7.893)" fill="#ffb573"/>
        <path id="Path_15895" data-name="Path 15895" d="M328.178,129.088c.053,1.418.1,2.017-.536,2.811a1.813,1.813,0,0,1-3.192-.427c-.427-1.236-.44-3.347.884-4.043a1.935,1.935,0,0,1,2.844,1.659Z" transform="translate(-30.499 -11.784)" fill="#ffb573"/>
        <path id="Path_15896" data-name="Path 15896" d="M326.912,126.945a3.205,3.205,0,0,0,1.922-3.854c-.37-1.9-1.65-2.084-2.18-1.691s-1.848-.193-2.64.473c-1.365,1.156-.075,2.39.6,3.135C325.018,125.837,325.547,127.534,326.912,126.945Z" transform="translate(-29.852 -6.832)" fill="#263238"/>
        <path id="Path_15897" data-name="Path 15897" d="M339.16,119.038a1.415,1.415,0,1,0,.312-2.034A1.456,1.456,0,0,0,339.16,119.038Z" transform="translate(-42.678 -3.118)" fill="#407bff"/>
        <path id="Path_15898" data-name="Path 15898" d="M342.534,114.7c-.2-1.144.881-2.024,2.328-1.6s.683,1.707.384,2.731.483,2,.807,1.22-.222-1.024-.222-1.024,1.536.4.109,2.13-2.719-.181-2.369-1.309C343.855,115.943,342.724,115.781,342.534,114.7Z" transform="translate(-45.69 0)" fill="#263238"/>
        <path id="Path_15899" data-name="Path 15899" d="M321.442,124.036a1.7,1.7,0,0,0-2.415.449,2.017,2.017,0,0,0-.184,1.195l1.944.128Z" transform="translate(-26.044 -8.904)" fill="#263238"/>
        <path id="Path_15900" data-name="Path 15900" d="M317.411,124.972h0a.044.044,0,0,1-.041-.046,2.009,2.009,0,0,1,.464-1.145,1.775,1.775,0,0,1,2.511.111.043.043,0,0,1-.055.065,1.687,1.687,0,0,0-2.39-.118,1.974,1.974,0,0,0-.44,1.092.043.043,0,0,1-.049.041Z" transform="translate(-24.84 -8.533)" fill="#263238"/>
        <path id="Path_15901" data-name="Path 15901" d="M327.625,140.986a1.176,1.176,0,0,1-.282.731c-.236.276-.512.14-.568-.171a.906.906,0,0,1,.3-.917A.362.362,0,0,1,327.625,140.986Z" transform="translate(-32.625 -22.871)" fill="#ffb573"/>
        <path id="Path_15902" data-name="Path 15902" d="M330.05,219.12A143.032,143.032,0,0,0,331,234.575c.7,4.467,1.982,14.8,1.982,14.8h1.951s.189-9.973-.171-14.39c-.893-11.179,1.413-13.27-.447-15.861Z" transform="translate(-35.356 -88.013)" fill="#263238"/>
        <path id="Path_15903" data-name="Path 15903" d="M330.05,219.12A143.032,143.032,0,0,0,331,234.575c.7,4.467,1.982,14.8,1.982,14.8h1.951s.189-9.973-.171-14.39c-.893-11.179,1.413-13.27-.447-15.861Z" transform="translate(-35.356 -88.013)" fill="#fff" opacity="0.1"/>
        <path id="Path_15904" data-name="Path 15904" d="M331.54,241.39c.683,3,.138,7.713-.236,9.79-.4-3.154-.6-7.242-.695-10.241C330.963,240.369,331.3,240.332,331.54,241.39Z" transform="translate(-35.821 -105.781)" opacity="0.3"/>
        <path id="Path_15905" data-name="Path 15905" d="M345.614,391.919H348.1l.13-.87-2.627-.089Z" transform="translate(-48.252 -230.524)" fill="#407bff"/>
        <path id="Path_15906" data-name="Path 15906" d="M348.916,166.334c.234-.464,1.49-.756,2.176-.754l.512,2.28s-1.365,2.029-1.936,1.814C349,169.427,348.416,167.336,348.916,166.334Z" transform="translate(-50.846 -43.612)" fill="#407bff"/>
        <path id="Path_15907" data-name="Path 15907" d="M348.916,166.334c.234-.464,1.49-.756,2.176-.754l.512,2.28s-1.365,2.029-1.936,1.814C349,169.427,348.416,167.336,348.916,166.334Z" transform="translate(-50.846 -43.612)" opacity="0.4"/>
        <path id="Path_15908" data-name="Path 15908" d="M337.277,393.059a.032.032,0,0,0,0-.032.034.034,0,0,0-.036-.019c-.072.012-.7.111-.789.292a.111.111,0,0,0,0,.107.188.188,0,0,0,.147.1c.207.021.512-.266.666-.44Zm-.758.263a1.339,1.339,0,0,1,.635-.23c-.225.229-.423.357-.539.341a.121.121,0,0,1-.1-.065.043.043,0,0,1,0-.043A0,0,0,0,1,336.519,393.322Z" transform="translate(-40.655 -232.222)" fill="#407bff"/>
        <path id="Path_15909" data-name="Path 15909" d="M337.754,391.6a.032.032,0,0,0,0-.032.952.952,0,0,0-.5-.319.246.246,0,0,0-.186.063c-.07.063-.063.118-.046.152.073.147.527.2.71.159A.031.031,0,0,0,337.754,391.6Zm-.667-.215a.136.136,0,0,1,.027-.031.171.171,0,0,1,.135-.046.785.785,0,0,1,.408.251c-.2.017-.531-.044-.575-.133A.041.041,0,0,1,337.086,391.382Z" transform="translate(-41.131 -230.76)" fill="#407bff"/>
        <path id="Path_15910" data-name="Path 15910" d="M336.761,375.255l-1.307.582-.582-1.214-.761-1.587-.09-.184,1.307-.582.1.208.737,1.538Z" transform="translate(-38.649 -215.024)" fill="#ffb573"/>
        <path id="Path_15911" data-name="Path 15911" d="M336.6,375.028l-1.294.608-.761-1.587,1.318-.558Z" transform="translate(-39.088 -216.036)" opacity="0.2"/>
        <path id="Path_15912" data-name="Path 15912" d="M305.33,219.12s-4.177,10.391-3.045,15.272c1.024,4.419,5.547,12.787,5.547,12.787l1.753-.877s-2.8-10.1-3.1-12.3c-.591-4.267,3.2-10.3,3.2-14.885Z" transform="translate(-12.169 -88.013)" fill="#263238"/>
        <path id="Path_15913" data-name="Path 15913" d="M305.33,219.12s-4.177,10.391-3.045,15.272c1.024,4.419,5.547,12.787,5.547,12.787l1.753-.877s-2.8-10.1-3.1-12.3c-.591-4.267,3.2-10.3,3.2-14.885Z" transform="translate(-12.169 -88.013)" fill="#fff" opacity="0.1"/>
        <path id="Path_15914" data-name="Path 15914" d="M335.132,387.4l1.3-.944a.113.113,0,0,1,.15.01l.9.92a.23.23,0,0,1-.036.341c-.459.321-.7.454-1.266.869-.352.256-1.051.821-1.536,1.174s-.853-.108-.683-.3A3.876,3.876,0,0,0,335,387.609a.37.37,0,0,1,.133-.212Z" transform="translate(-38.559 -226.767)" fill="#263238"/>
        <path id="Path_15915" data-name="Path 15915" d="M332.889,376.2l2.258-1.033-.288-.92-2.419,1.1Z" transform="translate(-37.338 -216.666)" fill="#407bff"/>
        <path id="Path_15916" data-name="Path 15916" d="M313,163.555c-.186-.485-1.818-1.024-2.637-1.195l-.36,2.683s1.338,1.922,1.924,1.763C312.617,166.618,313.4,164.594,313,163.555Z" transform="translate(-18.728 -40.941)" fill="#407bff"/>
        <path id="Path_15917" data-name="Path 15917" d="M313,163.555c-.186-.485-1.818-1.024-2.637-1.195l-.36,2.683s1.338,1.922,1.924,1.763C312.617,166.618,313.4,164.594,313,163.555Z" transform="translate(-18.728 -40.941)" opacity="0.4"/>
        <path id="Path_15918" data-name="Path 15918" d="M316.241,166.557s-.683.239.683,8.628h5.8c-.1-2.362-.1-3.82,1.024-8.671a17.118,17.118,0,0,0-2.466-.324,18.328,18.328,0,0,0-2.635,0A24.336,24.336,0,0,0,316.241,166.557Z" transform="translate(-23.762 -44.078)" fill="#407bff"/>
        <path id="Path_15919" data-name="Path 15919" d="M316.241,166.557s-.683.239.683,8.628h5.8c-.1-2.362-.1-3.82,1.024-8.671a17.118,17.118,0,0,0-2.466-.324,18.328,18.328,0,0,0-2.635,0A24.336,24.336,0,0,0,316.241,166.557Z" transform="translate(-23.762 -44.078)" opacity="0.4"/>
        <path id="Path_15920" data-name="Path 15920" d="M326.084,216.908l.261.512c.02.041-.027.082-.094.082h-6.09c-.053,0-.1-.026-.1-.06l-.053-.512c0-.036.043-.067.1-.067h5.873A.1.1,0,0,1,326.084,216.908Z" transform="translate(-27.03 -86.141)" fill="#407bff"/>
        <path id="Path_15921" data-name="Path 15921" d="M326.084,216.908l.261.512c.02.041-.027.082-.094.082h-6.09c-.053,0-.1-.026-.1-.06l-.053-.512c0-.036.043-.067.1-.067h5.873A.1.1,0,0,1,326.084,216.908Z" transform="translate(-27.03 -86.141)" fill="#fff" opacity="0.3"/>
        <path id="Path_15922" data-name="Path 15922" d="M350.344,217.334h.157c.032,0,.056-.017.053-.036l-.073-.683c0-.02-.029-.036-.06-.036h-.159c-.031,0-.055.015-.053.036l.073.683C350.281,217.314,350.309,217.334,350.344,217.334Z" transform="translate(-52.075 -85.907)" fill="#263238"/>
        <path id="Path_15923" data-name="Path 15923" d="M327.954,217.334h.157c.031,0,.055-.017.053-.036l-.073-.683c0-.02-.029-.036-.061-.036h-.157c-.032,0-.055.015-.053.036l.073.683C327.895,217.314,327.922,217.334,327.954,217.334Z" transform="translate(-33.507 -85.907)" fill="#263238"/>
      </g>
    </g>
    <g id="Group_8345" data-name="Group 8345" transform="translate(-20 8)">
      <g id="Rectangle_4823" data-name="Rectangle 4823" transform="translate(662 295)" fill="#fff" stroke="#f90000" stroke-width="2" opacity="0.65">
        <rect width="62" height="62" rx="31" stroke="none"/>
        <rect x="1" y="1" width="60" height="60" rx="30" fill="none"/>
      </g>
      <g id="_002-cancel" data-name="002-cancel" transform="translate(681.375 314.375)">
        <g id="Group_7174" data-name="Group 7174" transform="translate(0 0)">
          <path id="Path_11617" data-name="Path 11617" d="M14.682,12.047l9-9a1.318,1.318,0,0,0,0-1.861L22.89.4a1.319,1.319,0,0,0-1.861,0l-9,9-9-9A1.319,1.319,0,0,0,1.174.4l-.789.788a1.317,1.317,0,0,0,0,1.861l9,9-9,9a1.32,1.32,0,0,0,0,1.861l.789.788a1.319,1.319,0,0,0,1.861,0l9-9,9,9a1.306,1.306,0,0,0,.93.384h0a1.306,1.306,0,0,0,.931-.384l.788-.788a1.32,1.32,0,0,0,0-1.861Z" transform="translate(0 -0.016)" fill="#f90000"/>
        </g>
      </g>
    </g>
  </g>
</svg>
