<svg xmlns="http://www.w3.org/2000/svg" width="121.457" height="96.5" viewBox="0 0 121.457 96.5">
  <g id="Group_8324" data-name="Group 8324" transform="translate(-419 -276)">
    <g id="Group_8311" data-name="Group 8311">
      <g id="Online_Groceries-rafiki" data-name="Online Groceries-rafiki" transform="translate(419 221)">
        <g id="freepik--background-complete--inject-135" transform="translate(0 55)">
          <rect id="Rectangle_5802" data-name="Rectangle 5802" width="121.457" height="0.061" transform="translate(0 79.53)" fill="#ebebeb"/>
          <rect id="Rectangle_5803" data-name="Rectangle 5803" width="5.152" height="0.061" transform="translate(12.743 81.843)" fill="#ebebeb"/>
          <rect id="Rectangle_5804" data-name="Rectangle 5804" width="20.64" height="0.061" transform="translate(41.572 81.184)" fill="#ebebeb"/>
          <rect id="Rectangle_5805" data-name="Rectangle 5805" width="9.257" height="0.061" transform="translate(16.438 84.099)" fill="#ebebeb"/>
          <rect id="Rectangle_5806" data-name="Rectangle 5806" width="10.491" height="0.061" transform="translate(98.796 83.691)" fill="#ebebeb"/>
          <rect id="Rectangle_5807" data-name="Rectangle 5807" width="2.908" height="0.061" transform="translate(95.094 83.691)" fill="#ebebeb"/>
          <rect id="Rectangle_5808" data-name="Rectangle 5808" width="5.587" height="0.061" transform="translate(84.507 82.666)" fill="#ebebeb"/>
          <rect id="Rectangle_5809" data-name="Rectangle 5809" width="11.767" height="0.061" transform="translate(69.932 82.666)" fill="#ebebeb"/>
          <path id="Path_14409" data-name="Path 14409" d="M86.5,123.7h-46.9a1.387,1.387,0,0,1-1.385-1.387V56.375A1.387,1.387,0,0,1,39.595,55H86.5a1.387,1.387,0,0,1,1.387,1.387v65.922A1.387,1.387,0,0,1,86.5,123.7Zm-46.9-68.647a1.326,1.326,0,0,0-1.324,1.326v65.934a1.326,1.326,0,0,0,1.324,1.326H86.5a1.329,1.329,0,0,0,1.326-1.326V56.375A1.329,1.329,0,0,0,86.5,55.049Z" transform="translate(-28.928 -55)" fill="#ebebeb"/>
          <path id="Path_14410" data-name="Path 14410" d="M302.794,123.7H255.887a1.389,1.389,0,0,1-1.387-1.387V56.375A1.389,1.389,0,0,1,255.887,55h46.907a1.387,1.387,0,0,1,1.382,1.375v65.934A1.387,1.387,0,0,1,302.794,123.7ZM255.887,55.049a1.329,1.329,0,0,0-1.326,1.326v65.934a1.329,1.329,0,0,0,1.326,1.326h46.907a1.329,1.329,0,0,0,1.326-1.326V56.375a1.329,1.329,0,0,0-1.326-1.326Z" transform="translate(-192.678 -55)" fill="#ebebeb"/>
          <rect id="Rectangle_5810" data-name="Rectangle 5810" width="8.201" height="34.246" transform="translate(21.226 79.53) rotate(180)" fill="#e6e6e6"/>
          <path id="Path_14411" data-name="Path 14411" d="M54.975,372.793H53.61V369.71h2.8Z" transform="translate(-40.587 -293.263)" fill="#f0f0f0"/>
          <rect id="Rectangle_5811" data-name="Rectangle 5811" width="8.201" height="34.246" transform="translate(75.534 79.53) rotate(180)" fill="#e6e6e6"/>
          <rect id="Rectangle_5812" data-name="Rectangle 5812" width="55.499" height="33.063" transform="translate(68.524 78.347) rotate(180)" fill="#f0f0f0"/>
          <rect id="Rectangle_5813" data-name="Rectangle 5813" width="53.38" height="9.068" transform="translate(67.464 55.817) rotate(180)" fill="#e6e6e6"/>
          <rect id="Rectangle_5814" data-name="Rectangle 5814" width="53.38" height="1.234" transform="translate(67.464 47.985) rotate(180)" fill="#e0e0e0"/>
          <path id="Path_14412" data-name="Path 14412" d="M272,372.793h1.365V369.71h-2.8Z" transform="translate(-204.845 -293.263)" fill="#f0f0f0"/>
          <rect id="Rectangle_5815" data-name="Rectangle 5815" width="53.38" height="9.068" transform="translate(67.464 66.35) rotate(180)" fill="#e6e6e6"/>
          <rect id="Rectangle_5816" data-name="Rectangle 5816" width="53.38" height="1.234" transform="translate(67.464 58.518) rotate(180)" fill="#e0e0e0"/>
          <rect id="Rectangle_5817" data-name="Rectangle 5817" width="53.38" height="9.068" transform="translate(67.464 76.88) rotate(180)" fill="#e6e6e6"/>
          <rect id="Rectangle_5818" data-name="Rectangle 5818" width="53.38" height="1.234" transform="translate(67.464 69.048) rotate(180)" fill="#e0e0e0"/>
          <path id="Path_14413" data-name="Path 14413" d="M358.02,196.248h19.015l1.688-59.728H359.708Z" transform="translate(-271.052 -116.718)" fill="#e6e6e6"/>
          <path id="Path_14414" data-name="Path 14414" d="M355.63,196.248h19.015l1.688-59.728H357.318Z" transform="translate(-269.243 -116.718)" fill="#f0f0f0"/>
          <path id="Path_14415" data-name="Path 14415" d="M377.36,199.842l1.591-56.332h-16.64l-1.591,56.332Z" transform="translate(-273.096 -122.01)" fill="#fafafa"/>
          <rect id="Rectangle_5819" data-name="Rectangle 5819" width="54.845" height="30.588" transform="translate(74.56 35.988) rotate(180)" fill="#f0f0f0"/>
          <rect id="Rectangle_5820" data-name="Rectangle 5820" width="55.897" height="30.588" transform="translate(73.639 35.988) rotate(180)" fill="#f5f5f5"/>
          <rect id="Rectangle_5821" data-name="Rectangle 5821" width="25.501" height="50.366" transform="translate(70.87 7.941) rotate(90)" fill="#fff"/>
          <circle id="Ellipse_1314" data-name="Ellipse 1314" cx="1.89" cy="1.89" r="1.89" transform="translate(18.488 40.134)" fill="#f0f0f0"/>
          <circle id="Ellipse_1315" data-name="Ellipse 1315" cx="1.89" cy="1.89" r="1.89" transform="translate(21.153 44.298) rotate(-76.72)" fill="#e6e6e6"/>
          <circle id="Ellipse_1316" data-name="Ellipse 1316" cx="1.89" cy="1.89" r="1.89" transform="translate(23.798 42.989) rotate(-76.72)" fill="#f0f0f0"/>
          <path id="Path_14416" data-name="Path 14416" d="M79.657,230.9s-.165,2.555-6.559,2.555S66.54,230.9,66.54,230.9Z" transform="translate(-50.377 -188.171)" fill="#e6e6e6"/>
        </g>
        <g id="freepik--Shadow--inject-135" transform="translate(13.63 146)">
          <ellipse id="freepik--path--inject-135" cx="47.099" cy="2.75" rx="47.099" ry="2.75" fill="#f5f5f5"/>
        </g>
      </g>
    </g>
    <g id="undraw_web_shopping_dd4l" transform="translate(-11.07 220.5)">
      <path id="Path_15742" data-name="Path 15742" d="M482.535,531.531l-11.813,2.418-.269-.027-10.381-1.048V519.717l12.708-2.148L482,518.644l0,.058v.028Z" transform="translate(0 -385.975)" fill="#e6e6e6"/>
      <path id="Path_15743" data-name="Path 15743" d="M542.828,538.113l-11.813,2.418-.269-.027V527.017l11.549-1.732Z" transform="translate(-60.293 -392.558)" opacity="0.1"/>
      <path id="Path_15744" data-name="Path 15744" d="M482,518.73l0,0-11.546,1.7-10.381-.717,12.708-2.148L482,518.644l0,.058Z" transform="translate(0 -385.975)" opacity="0.05"/>
      <rect id="Rectangle_6063" data-name="Rectangle 6063" width="7.198" height="3.378" transform="matrix(0.998, 0.065, -0.065, 0.998, 461.5, 138.334)" fill="#fff"/>
      <rect id="Rectangle_6064" data-name="Rectangle 6064" width="3.819" height="1.175" transform="matrix(0.998, 0.065, -0.065, 0.998, 463.114, 139.544)" fill="#407bff"/>
      <path id="Path_15745" data-name="Path 15745" d="M591.535,531.531l-11.813,2.418-.269-.027-10.381-1.048V519.717l12.708-2.148L591,518.644l0,.058v.028Z" transform="translate(-92.989 -385.975)" fill="#407bff"/>
      <path id="Path_15746" data-name="Path 15746" d="M651.828,538.113l-11.813,2.418-.269-.027V527.017l11.549-1.732Z" transform="translate(-153.281 -392.558)" fill="#0a53f6"/>
      <path id="Path_15747" data-name="Path 15747" d="M591,518.73l0,0-11.546,1.7-10.381-.717,12.708-2.148L591,518.644l0,.058Z" transform="translate(-92.989 -385.975)" opacity="0.05"/>
      <rect id="Rectangle_6065" data-name="Rectangle 6065" width="7.198" height="3.378" transform="matrix(0.998, 0.065, -0.065, 0.998, 477.511, 138.334)" fill="#fff"/>
      <rect id="Rectangle_6066" data-name="Rectangle 6066" width="3.819" height="1.175" transform="matrix(0.998, 0.065, -0.065, 0.998, 479.125, 139.544)" fill="#407bff"/>
      <path id="Path_15748" data-name="Path 15748" d="M926.535,295.884s2.084,5.385-1.737,5.385,5.906,5.384,9.727,2.258,1.563-3.3,1.563-3.3-5.037.521-4.863-3.995Z" transform="translate(-419.44 -215.988)" fill="#ffb8b8"/>
      <circle id="Ellipse_1465" data-name="Ellipse 1465" cx="6.143" cy="6.143" r="6.143" transform="translate(503.667 69.231)" fill="#2f2e41"/>
      <path id="Path_15749" data-name="Path 15749" d="M882.6,448.422,876,465.444s-3.3,5.211-2.084,10.422,4.557,14.694,4.557,14.694,2.524.642,2.35-1.616.108-13.205-2.5-16.158l10.527-12.032.347,13.722a77.583,77.583,0,0,0-.521,9.032c.174,2.779.521,7.469.521,7.469l2.084-.347s2.812-12.793,2.464-16.962c0,0,6.453-20.255-.147-25.118Z" transform="translate(-376.547 -346.12)" fill="#2f2e41"/>
      <path id="Path_15750" data-name="Path 15750" d="M900.908,724.427s-.85-.216-.948.563-1.885,4.246-.019,4.419,2.512-1.572,2.824-2.8.431-1.3.692-1.533.882-1.524.1-1.622a1.725,1.725,0,0,1-1.179-.865S902.136,724.739,900.908,724.427Z" transform="translate(-398.258 -580.015)" fill="#2f2e41"/>
      <path id="Path_15751" data-name="Path 15751" d="M979.837,730.391s-1.576-.225-1.464.338-.225,2.927,0,3.152.676.675.676,1.013.113,1.463,2.026,1.126a1.6,1.6,0,0,0,1.351-2.252c-.112-.225-1.464-1.351-1.351-2.026S980.512,729.94,979.837,730.391Z" transform="translate(-465.824 -586.582)" fill="#2f2e41"/>
      <circle id="Ellipse_1466" data-name="Ellipse 1466" cx="4.255" cy="4.255" r="4.255" transform="translate(505.63 73.681)" fill="#ffb8b8"/>
      <path id="Path_15752" data-name="Path 15752" d="M919.348,321.59s1.484,2.936-2.989,3.019a4.6,4.6,0,0,1-3.686-2.175c-.4-.706-.5.269-1.141.2a6.664,6.664,0,0,0-3.683.989.734.734,0,0,0-.359.862c.883,2.93,3.4,17.022,3.794,17.789.994,1.959,11.751-1.322,11.751-1.322.147-5.331-1.788-12.79,1.616-18.215a6.483,6.483,0,0,0-5.3-1.145Z" transform="translate(-405.393 -237.786)" fill="#407bff"/>
      <path id="Path_15753" data-name="Path 15753" d="M778,120.519l-3.117-1.633-4.3.668-.891,3.934,2.217-.085.619-1.445v1.421l1.023-.039.594-2.3.371,2.449,3.637-.074Z" transform="translate(-264.139 -45.855)" fill="#2f2e41"/>
      <circle id="Ellipse_1467" data-name="Ellipse 1467" cx="2.479" cy="2.479" r="2.479" transform="translate(507.654 65.89)" fill="#2f2e41"/>
      <path id="Path_15754" data-name="Path 15754" d="M936.735,197.877a2.479,2.479,0,0,1,2.1-2.45,2.479,2.479,0,1,0,0,4.9A2.479,2.479,0,0,1,936.735,197.877Z" transform="translate(-429.727 -130.263)" fill="#2f2e41"/>
      <path id="Path_15755" data-name="Path 15755" d="M746.535,402.531l-11.813,2.418-.269-.027-10.381-1.048V390.718l12.708-2.149L746,389.644l0,.058v.027Z" transform="translate(-225.221 -275.924)" fill="#e6e6e6"/>
      <path id="Path_15756" data-name="Path 15756" d="M806.828,409.113l-11.813,2.418-.269-.027V398.017l11.549-1.732Z" transform="translate(-285.513 -282.507)" opacity="0.1"/>
      <path id="Path_15757" data-name="Path 15757" d="M746,389.73l0,0-11.546,1.7-10.381-.717,12.708-2.149L746,389.644l0,.058Z" transform="translate(-225.221 -275.924)" opacity="0.05"/>
      <rect id="Rectangle_6067" data-name="Rectangle 6067" width="7.198" height="3.378" transform="matrix(0.998, 0.065, -0.065, 0.998, 500.28, 119.385)" fill="#fff"/>
      <rect id="Rectangle_6068" data-name="Rectangle 6068" width="3.819" height="1.175" transform="matrix(0.998, 0.065, -0.065, 0.998, 501.894, 120.595)" fill="#407bff"/>
      <path id="Path_15758" data-name="Path 15758" d="M896.277,510.457s-4.342,3.474-2.432,4.69,4.169-4.69,4.169-4.69Z" transform="translate(-393.365 -399.042)" fill="#ffb8b8"/>
      <path id="Path_15759" data-name="Path 15759" d="M898.9,335.119c-.225-.254-3.065,1.2-2.644,3.085l.2,13.093s-1.042,10.769,1.563,10.769,2.3.362,2.645-.506.441-8.226.441-8.226Z" transform="translate(-395.797 -249.436)" fill="#0a53f6"/>
      <path id="Path_15760" data-name="Path 15760" d="M1005.95,502.457s2.258,5.906,4.169,4.69-2.432-4.69-2.432-4.69Z" transform="translate(-489.417 -392.218)" fill="#ffb8b8"/>
      <path id="Path_15761" data-name="Path 15761" d="M1000.969,345.481s-1.082,7.211-.734,8.079.04.506,2.645.506,1.563-10.769,1.563-10.769l.2-13.093c.421-1.89-2.419-3.338-2.644-3.085l-2.5,8.52Z" transform="translate(-483.915 -242.611)" fill="#0a53f6"/>
    </g>
  </g>
</svg>
