<svg xmlns="http://www.w3.org/2000/svg" width="126.578" height="94.085" viewBox="0 0 126.578 94.085">
  <g id="Group_8347" data-name="Group 8347" transform="translate(-421 -281.646)">
    <g id="Group_8342" data-name="Group 8342" transform="translate(-2)">
      <g id="Notes-rafiki" transform="translate(423 226.646)">
        <g id="freepik--background-complete--inject-387" transform="translate(0 55)">
          <rect id="Rectangle_6150" data-name="Rectangle 6150" width="126.578" height="0.063" transform="translate(0 82.883)" fill="#ebebeb"/>
          <rect id="Rectangle_6151" data-name="Rectangle 6151" width="8.385" height="0.063" transform="translate(105.51 86.956)" fill="#ebebeb"/>
          <rect id="Rectangle_6152" data-name="Rectangle 6152" width="2.2" height="0.063" transform="translate(81.65 87.645)" fill="#ebebeb"/>
          <rect id="Rectangle_6153" data-name="Rectangle 6153" width="4.858" height="0.063" transform="translate(100.399 84.607)" fill="#ebebeb"/>
          <rect id="Rectangle_6154" data-name="Rectangle 6154" width="10.934" height="0.063" transform="translate(13.281 85.032)" fill="#ebebeb"/>
          <rect id="Rectangle_6155" data-name="Rectangle 6155" width="1.602" height="0.063" transform="translate(26.47 85.032)" fill="#ebebeb"/>
          <rect id="Rectangle_6156" data-name="Rectangle 6156" width="23.716" height="0.063" transform="translate(33.282 86.101)" fill="#ebebeb"/>
          <path id="Path_15924" data-name="Path 15924" d="M88.535,126.592H39.653a1.446,1.446,0,0,1-1.443-1.446V56.433A1.446,1.446,0,0,1,39.653,55H88.535a1.446,1.446,0,0,1,1.446,1.446v68.7A1.446,1.446,0,0,1,88.535,126.592ZM39.653,55.051a1.382,1.382,0,0,0-1.38,1.382v68.714a1.382,1.382,0,0,0,1.38,1.382H88.535a1.385,1.385,0,0,0,1.382-1.382V56.433a1.385,1.385,0,0,0-1.382-1.382Z" transform="translate(-28.537 -55)" fill="#ebebeb"/>
          <path id="Path_15925" data-name="Path 15925" d="M304.83,126.592H255.945a1.448,1.448,0,0,1-1.445-1.446V56.433A1.448,1.448,0,0,1,255.945,55H304.83a1.445,1.445,0,0,1,1.44,1.433v68.714A1.446,1.446,0,0,1,304.83,126.592ZM255.945,55.051a1.385,1.385,0,0,0-1.382,1.382v68.714a1.385,1.385,0,0,0,1.382,1.382H304.83a1.385,1.385,0,0,0,1.382-1.382V56.433a1.385,1.385,0,0,0-1.382-1.382Z" transform="translate(-190.072 -55)" fill="#ebebeb"/>
          <rect id="Rectangle_6157" data-name="Rectangle 6157" width="30.267" height="66.937" transform="translate(24.521 15.946)" fill="#f0f0f0"/>
          <rect id="Rectangle_6158" data-name="Rectangle 6158" width="28.832" height="66.937" transform="translate(25.956 15.946)" fill="#f5f5f5"/>
          <rect id="Rectangle_6159" data-name="Rectangle 6159" width="63.899" height="25.794" transform="translate(53.266 17.463) rotate(90)" fill="#f0f0f0"/>
          <path id="Path_15926" data-name="Path 15926" d="M185.073,239.837h2.142a1.076,1.076,0,0,0,1.071-1.073h0a1.076,1.076,0,0,0-1.071-1.073h-2.142A1.078,1.078,0,0,0,184,238.763h0A1.078,1.078,0,0,0,185.073,239.837Z" transform="translate(-137.419 -191.441)" fill="#fff"/>
          <rect id="Rectangle_6160" data-name="Rectangle 6160" width="63.899" height="0.395" transform="translate(53.269 17.465) rotate(90)" fill="#f0f0f0"/>
          <rect id="Rectangle_6161" data-name="Rectangle 6161" width="6.881" height="27.596" transform="translate(72.03 54.12)" fill="#f0f0f0"/>
          <rect id="Rectangle_6162" data-name="Rectangle 6162" width="33.93" height="1.167" transform="translate(73.349 81.716)" fill="#f0f0f0"/>
          <rect id="Rectangle_6163" data-name="Rectangle 6163" width="29.693" height="27.596" transform="translate(108.604 81.716) rotate(180)" fill="#f5f5f5"/>
          <rect id="Rectangle_6164" data-name="Rectangle 6164" width="24.283" height="6.035" transform="translate(105.897 62.42) rotate(180)" fill="#f0f0f0"/>
          <rect id="Rectangle_6165" data-name="Rectangle 6165" width="24.283" height="15.23" transform="translate(105.897 79.453) rotate(180)" fill="#f0f0f0"/>
          <rect id="Rectangle_6166" data-name="Rectangle 6166" width="6.795" height="0.828" rx="0.414" transform="translate(90.359 58.988)" fill="#f5f5f5"/>
          <rect id="Rectangle_6167" data-name="Rectangle 6167" width="6.795" height="0.828" rx="0.414" transform="translate(90.359 71.116)" fill="#f5f5f5"/>
          <rect id="Rectangle_6168" data-name="Rectangle 6168" width="9.709" height="18.303" transform="translate(98.829 18.761)" fill="#e6e6e6"/>
          <rect id="Rectangle_6169" data-name="Rectangle 6169" width="11.402" height="18.303" transform="translate(99.31 18.761)" fill="#f5f5f5"/>
          <rect id="Rectangle_6170" data-name="Rectangle 6170" width="15.05" height="7.931" transform="translate(108.978 20.384) rotate(90)" fill="#fff"/>
          <rect id="Rectangle_6171" data-name="Rectangle 6171" width="9.709" height="18.303" transform="translate(82.772 13.41)" fill="#e6e6e6"/>
          <rect id="Rectangle_6172" data-name="Rectangle 6172" width="11.402" height="18.303" transform="translate(83.25 13.41)" fill="#f5f5f5"/>
          <rect id="Rectangle_6173" data-name="Rectangle 6173" width="15.05" height="7.931" transform="translate(92.918 15.035) rotate(90)" fill="#fff"/>
          <rect id="Rectangle_6174" data-name="Rectangle 6174" width="9.709" height="18.303" transform="translate(68.068 25.237)" fill="#e6e6e6"/>
          <rect id="Rectangle_6175" data-name="Rectangle 6175" width="11.405" height="18.303" transform="translate(68.549 25.237)" fill="#f5f5f5"/>
          <rect id="Rectangle_6176" data-name="Rectangle 6176" width="15.05" height="7.931" transform="translate(78.217 26.86) rotate(90)" fill="#fff"/>
        </g>
        <g id="freepik--Shadow--inject-387" transform="translate(14.205 143.584)">
          <ellipse id="freepik--path--inject-387" cx="49.084" cy="2.866" rx="49.084" ry="2.866" transform="translate(0 -0.23)" fill="#f5f5f5"/>
        </g>
        <g id="freepik--Character--inject-387" transform="translate(21.063 80.795)">
          <path id="Path_15936" data-name="Path 15936" d="M269.841,384.837l1.66-.445-.591-3.962-1.66.445Z" transform="translate(-252.129 -322.444)" fill="#ff8b7b"/>
          <path id="Path_15937" data-name="Path 15937" d="M334.41,393.431h1.72l1.338-3.981h-1.72Z" transform="translate(-332.05 -329.533)" fill="#ff8b7b"/>
          <path id="Path_15938" data-name="Path 15938" d="M327.327,407.11h-2.1a.15.15,0,0,0-.146.118l-.34,1.529a.253.253,0,0,0,.253.3c.675-.011,1.165-.051,2.015-.051.523,0,2.1.056,2.818.056s.816-.713.52-.779a6.773,6.773,0,0,1-2.745-1.071A.428.428,0,0,0,327.327,407.11Z" transform="translate(-323.019 -343.411)" fill="#263238"/>
          <path id="Path_15939" data-name="Path 15939" d="M251.028,397.974l-1.812.486a.152.152,0,0,0-.111.152l.069,1.563a.248.248,0,0,0,.317.231c.642-.186,1.587-.48,2.409-.7.961-.257,1.805-.428,2.932-.73.681-.182.685-.923.383-.908a10.347,10.347,0,0,1-3.752-.073A.79.79,0,0,0,251.028,397.974Z" transform="translate(-231.721 -336.215)" fill="#263238"/>
          <path id="Path_15940" data-name="Path 15940" d="M279.4,162.56c.567.713,1.156,1.48,1.713,2.231s1.092,1.529,1.585,2.308c.246.388.471.782.687,1.174l.591,1.163.049.1c0,.011.013.019.015.017a.346.346,0,0,0,0-.077.95.95,0,0,1,.021-.2.783.783,0,0,1,.03-.1.194.194,0,0,1,.024-.064.634.634,0,0,1,.039-.088,1.121,1.121,0,0,1,.137-.2,1.07,1.07,0,0,1,.259-.214,1.046,1.046,0,0,1,.317-.12,1.1,1.1,0,0,1,.253-.017.88.88,0,0,1,.281.06.658.658,0,0,1,.176.092c.054.041.051.047.054.051s-.013,0-.026,0a1.663,1.663,0,0,1-.214-.173c-.081-.071-.163-.148-.244-.229-.332-.319-.675-.67-1.032-1l-1.081.7a10.322,10.322,0,0,0,.625,1.4,4.563,4.563,0,0,0,.467.728,1.561,1.561,0,0,0,.1.118,1.288,1.288,0,0,0,.195.167,1.182,1.182,0,0,0,.257.135,1.126,1.126,0,0,0,.326.069,1.172,1.172,0,0,0,.274-.019,1.071,1.071,0,0,0,.338-.128,1.127,1.127,0,0,0,.276-.227,1.221,1.221,0,0,0,.15-.214c.015-.032.032-.066.045-.1l.028-.075c.017-.056.026-.09.034-.128a1.283,1.283,0,0,0,.026-.287,1.877,1.877,0,0,0-.021-.257.792.792,0,0,0-.026-.158c-.019-.094-.036-.171-.054-.246-.071-.293-.146-.54-.231-.788s-.2-.5-.306-.735c-.214-.48-.45-.942-.7-1.388a28.977,28.977,0,0,0-1.615-2.57c-.287-.409-.582-.814-.887-1.21s-.612-.779-.953-1.178Z" transform="translate(-268.978 -149.917)" fill="#ff8b7b"/>
          <path id="Path_15941" data-name="Path 15941" d="M286.027,157.488c-.368,1.6,3.146,5.7,3.146,5.7l3.152-2.308a21.011,21.011,0,0,0-2.505-3.724C288.376,155.52,286.432,155.73,286.027,157.488Z" transform="translate(-276.54 -146.106)" fill="#407bff"/>
          <path id="Path_15942" data-name="Path 15942" d="M286.027,157.488c-.368,1.6,3.146,5.7,3.146,5.7l3.152-2.308a21.011,21.011,0,0,0-2.505-3.724C288.376,155.52,286.432,155.73,286.027,157.488Z" transform="translate(-276.54 -146.106)" opacity="0.2"/>
          <path id="Path_15943" data-name="Path 15943" d="M272.24,380.43l.306,2.043-1.662.445-.3-2.043Z" transform="translate(-253.459 -322.444)" opacity="0.2"/>
          <path id="Path_15944" data-name="Path 15944" d="M335.1,389.46h1.72l-.692,2.051h-1.72Z" transform="translate(-331.403 -329.54)" opacity="0.2"/>
          <path id="Path_15945" data-name="Path 15945" d="M296.533,156.8c2.238,6.407,2.278,13.345,2.529,14.737,1.336-.178,6.369-.857,9.112-1.227.617-9.838-2.086-14.712-2.086-14.712s-.6-.079-1.4-.114c-.253,0-.525-.017-.807-.015-.156,0-.315,0-.475.011a34.072,34.072,0,0,0-3.874.531c-.242.045-.488.1-.726.15s-.428.1-.642.159C297.244,156.553,296.533,156.8,296.533,156.8Z" transform="translate(-294.736 -145.657)" fill="#407bff"/>
          <path id="Path_15946" data-name="Path 15946" d="M296.533,156.8c2.238,6.407,2.278,13.345,2.529,14.737,1.336-.178,6.369-.857,9.112-1.227.617-9.838-2.086-14.712-2.086-14.712s-.6-.079-1.4-.114c-.253,0-.525-.017-.807-.015-.156,0-.315,0-.475.011a34.072,34.072,0,0,0-3.874.531c-.242.045-.488.1-.726.15s-.428.1-.642.159C297.244,156.553,296.533,156.8,296.533,156.8Z" transform="translate(-294.736 -145.657)" opacity="0.2"/>
          <path id="Path_15947" data-name="Path 15947" d="M341.611,175.46a9.279,9.279,0,0,1-.317,4.553c-.141-.955-.315-1.957-.533-2.985Z" transform="translate(-337.72 -161.367)" opacity="0.2"/>
          <path id="Path_15948" data-name="Path 15948" d="M291.368,185.425l-1.362-1.285-.887,2.009a1.653,1.653,0,0,0,1.927.321Z" transform="translate(-276.252 -168.188)" fill="#ff8b7b"/>
          <path id="Path_15949" data-name="Path 15949" d="M296.161,181.02l-.681,1.777.794.889.887-2.009Z" transform="translate(-283.406 -165.737)" fill="#ff8b7b"/>
          <path id="Path_15950" data-name="Path 15950" d="M317.27,137.35c.413,1.214.964,3.465.2,4.413a4.382,4.382,0,0,0,3.246,1.092c1.486-.148,1.09-1.131.627-1.615-1.435-.143-1.538-1.18-1.426-2.182Z" transform="translate(-312.679 -131.418)" fill="#ff8b7b"/>
          <path id="Path_15951" data-name="Path 15951" d="M320.553,152.376c0-.338-1.392-.623-1.445-.3s.428.428.276.857-1.555.471-2.116-.135c-.373-.4-.49-.812-.964-.544s-1.043.642-.73,1.231a4.076,4.076,0,0,0,3.683,1.623c1.606-.358,2.054-1.221,1.741-1.6A1.857,1.857,0,0,1,320.553,152.376Z" transform="translate(-311.621 -142.879)" fill="#407bff"/>
          <path id="Path_15952" data-name="Path 15952" d="M326.013,140.61l1.57,1.011a3.9,3.9,0,0,0-.028.7,1.908,1.908,0,0,1-1.552-.917C325.823,141.062,325.883,140.67,326.013,140.61Z" transform="translate(-320.34 -133.98)" opacity="0.2"/>
          <path id="Path_15953" data-name="Path 15953" d="M316.513,117.95c.152,1.7.156,2.7,1.041,3.553a2.267,2.267,0,0,0,3.767-1.272c.321-1.54.017-4.069-1.666-4.69a2.326,2.326,0,0,0-3.142,2.409Z" transform="translate(-312.181 -114.16)" fill="#ff8b7b"/>
          <path id="Path_15954" data-name="Path 15954" d="M336.709,120.989c1.251-.094,1.356,2.077.321,3.011C335.78,123.51,334.032,121.18,336.709,120.989Z" transform="translate(-332.507 -118.559)" fill="#263238"/>
          <path id="Path_15955" data-name="Path 15955" d="M315.057,112.419c.732-1.156,2.141.677,2.837-.587.418-.76,1.131.064,1.565-.392s-.238-1.681-.692-1.79c.255.276.3,1.263-.46.775s-1.313-.994-2.249-.173-1.914-.829-2.773.428C312.532,111.772,314.189,113.794,315.057,112.419Z" transform="translate(-309.617 -109.65)" fill="#263238"/>
          <path id="Path_15956" data-name="Path 15956" d="M338.972,116.151a1.9,1.9,0,0,0,.591-.1.08.08,0,0,0-.047-.152,1.23,1.23,0,0,1-1.326-.227.79.79,0,0,1,.036-.927.08.08,0,1,0-.137-.081.948.948,0,0,0-.026,1.107A1.128,1.128,0,0,0,338.972,116.151Z" transform="translate(-334.948 -113.562)" fill="#263238"/>
          <path id="Path_15957" data-name="Path 15957" d="M335.056,131.935a1.629,1.629,0,0,0,1.03.687c.559.1.79-.4.6-.908-.176-.452-.679-1.051-1.221-.932A.725.725,0,0,0,335.056,131.935Z" transform="translate(-331.439 -126.245)" fill="#ff8b7b"/>
          <path id="Path_15958" data-name="Path 15958" d="M279.971,259.521l-2.81.754s-2.675-9.906-3.521-15.2a55.935,55.935,0,0,0-1.525-6.21c-.874-3-1.938-6.227-2.8-8.756-.912-2.664-1.6-4.546-1.6-4.546l6-.807s4.563,13.99,5.077,19.211C279.322,249.394,279.971,259.521,279.971,259.521Z" transform="translate(-260.272 -200.102)" fill="#263238"/>
          <path id="Path_15959" data-name="Path 15959" d="M307.161,253.442c-.874-3-1.938-6.227-2.8-8.756l.531-1.385C306.5,244.979,307.26,250.442,307.161,253.442Z" transform="translate(-295.317 -214.68)" opacity="0.2"/>
          <path id="Path_15960" data-name="Path 15960" d="M319.38,226.81s.3,14.727-.107,19.746c-.443,5.5-4.563,16.737-4.563,16.737h-3.148s2.1-10.279,2.743-15.632c.735-6.082-.805-20.065-.805-20.065Z" transform="translate(-309.174 -201.721)" fill="#263238"/>
          <path id="Path_15961" data-name="Path 15961" d="M333.767,393.17H330.06v-1.107l4.144-.073Z" transform="translate(-327.854 -331.529)" fill="#407bff"/>
          <path id="Path_15962" data-name="Path 15962" d="M269.63,382.611l-3.349.9-.291-1.081,3.542-1.009Z" transform="translate(-249.561 -323.222)" fill="#407bff"/>
          <path id="Path_15963" data-name="Path 15963" d="M325.829,128.3c0,.137.079.248.171.246s.161-.118.156-.257-.081-.248-.171-.246S325.825,128.158,325.829,128.3Z" transform="translate(-318.901 -124.102)" fill="#263238"/>
          <path id="Path_15964" data-name="Path 15964" d="M318.51,128.064c0,.139.081.248.171.246s.161-.118.158-.255-.081-.251-.171-.246S318.508,127.932,318.51,128.064Z" transform="translate(-310.017 -123.921)" fill="#263238"/>
          <path id="Path_15965" data-name="Path 15965" d="M319.11,129.42a4.874,4.874,0,0,0,.7,1.165.794.794,0,0,1-.66.143Z" transform="translate(-311.111 -125.186)" fill="#ff5652"/>
          <path id="Path_15966" data-name="Path 15966" d="M324.605,135.536a1.133,1.133,0,0,1-.795-.428.037.037,0,1,1,.058-.045,1.1,1.1,0,0,0,.923.4.041.041,0,0,1,0,.081A1.262,1.262,0,0,1,324.605,135.536Z" transform="translate(-317.144 -129.606)" fill="#263238"/>
          <path id="Path_15967" data-name="Path 15967" d="M326.612,125.164a.077.077,0,0,1-.039-.015.081.081,0,0,1-.019-.113.812.812,0,0,1,.653-.355.081.081,0,0,1,.077.086.079.079,0,0,1-.084.077h0a.642.642,0,0,0-.514.287A.084.084,0,0,1,326.612,125.164Z" transform="translate(-320.181 -121.461)" fill="#263238"/>
          <path id="Path_15968" data-name="Path 15968" d="M317.17,124.369a.077.077,0,0,1-.062-.043.642.642,0,0,0-.471-.355.081.081,0,0,1,.017-.161.8.8,0,0,1,.6.441.079.079,0,0,1-.034.109A.073.073,0,0,1,317.17,124.369Z" transform="translate(-308.024 -120.778)" fill="#263238"/>
          <path id="Path_15969" data-name="Path 15969" d="M335.474,406.917a2.091,2.091,0,0,1-.45-.062.041.041,0,0,1-.03-.034.043.043,0,0,1,.017-.041c.064-.039.619-.379.807-.283a.133.133,0,0,1,.071.116.251.251,0,0,1-.083.214A.534.534,0,0,1,335.474,406.917Zm-.332-.12a.829.829,0,0,0,.61-.032.158.158,0,0,0,.056-.146.054.054,0,0,0-.026-.049c-.107-.051-.415.1-.64.236Z" transform="translate(-330.597 -342.916)" fill="#407bff"/>
          <path id="Path_15970" data-name="Path 15970" d="M336.678,405.4a.044.044,0,0,1-.023,0,.036.036,0,0,1-.017-.036c0-.021.043-.518.242-.681a.214.214,0,0,1,.173-.051h0a.13.13,0,0,1,.128.1c.036.193-.306.57-.484.666Zm.349-.692a.138.138,0,0,0-.094.036.961.961,0,0,0-.2.538c.178-.135.4-.428.375-.531,0-.011,0-.036-.06-.043Z" transform="translate(-332.243 -341.461)" fill="#407bff"/>
          <path id="Path_15971" data-name="Path 15971" d="M264.058,396.734a.043.043,0,0,1-.034-.026.041.041,0,0,1,.011-.045c.064-.06.642-.578.874-.52a.131.131,0,0,1,.092.088h0a.231.231,0,0,1-.021.214c-.139.214-.632.272-.914.291Zm.814-.514a1.759,1.759,0,0,0-.692.428,1.107,1.107,0,0,0,.73-.244.145.145,0,0,0,.013-.139.047.047,0,0,0-.034-.036Z" transform="translate(-244.526 -334.789)" fill="#407bff"/>
          <path id="Path_15972" data-name="Path 15972" d="M266.5,395.731h-.011a.041.041,0,0,1-.026-.03,1.185,1.185,0,0,1,.086-.709.3.3,0,0,1,.2-.126h0c.111-.017.156.028.176.071.081.18-.214.642-.4.788A.051.051,0,0,1,266.5,395.731Zm.306-.792h-.043a.214.214,0,0,0-.148.094.97.97,0,0,0-.081.57c.171-.178.366-.531.317-.642A.052.052,0,0,0,266.807,394.939ZM266.758,394.9Z" transform="translate(-246.968 -333.786)" fill="#407bff"/>
          <path id="Path_15973" data-name="Path 15973" d="M328,167.88c-.248,1.116-.458,2.225-.642,3.347s-.349,2.246-.478,3.386l-.045.428-.026.266a1.7,1.7,0,0,0,.056.619,1.54,1.54,0,0,0,.443.728,1.591,1.591,0,0,0,.621.345,2.142,2.142,0,0,0,.824.066,4.737,4.737,0,0,0,1.054-.24,7.435,7.435,0,0,0,.857-.345,16.725,16.725,0,0,0,1.57-.82c.5-.3.985-.6,1.465-.953l-.61-1.137c-1.039.36-2.1.745-3.112,1.024-.253.071-.5.131-.741.173a2.57,2.57,0,0,1-.606.064c-.062,0-.111-.028-.013-.011a.567.567,0,0,1,.255.143.8.8,0,0,1,.236.368.909.909,0,0,1,.032.2c0,.036,0-.021.011-.051l.019-.1.077-.407q.315-1.632.642-3.274c.214-1.094.441-2.195.642-3.285Z" transform="translate(-326.649 -155.41)" fill="#ff8b7b"/>
          <path id="Path_15974" data-name="Path 15974" d="M340.681,161.567c-1.122,1.2-1.223,4.891-1.223,4.891l3.249,1.531a13.426,13.426,0,0,0,1.088-4.467C343.829,161.115,341.8,160.357,340.681,161.567Z" transform="translate(-339.458 -150.004)" fill="#407bff"/>
          <path id="Path_15975" data-name="Path 15975" d="M340.681,161.567c-1.122,1.2-1.223,4.891-1.223,4.891l3.249,1.531a13.426,13.426,0,0,0,1.088-4.467C343.829,161.115,341.8,160.357,340.681,161.567Z" transform="translate(-339.458 -150.004)" opacity="0.2"/>
          <path id="Path_15976" data-name="Path 15976" d="M300.938,172.986a.122.122,0,0,0,.054-.013.109.109,0,0,0,.039-.148l-1.713-2.957a.107.107,0,0,0-.184.107l1.7,2.957A.109.109,0,0,0,300.938,172.986Z" transform="translate(-288.069 -156.938)" fill="#263238"/>
          <path id="Path_15977" data-name="Path 15977" d="M290.281,183.286l6.474-.942a.606.606,0,0,0,.512-.538l.428-8.936a.385.385,0,0,0-.471-.4l-6.474.94a.615.615,0,0,0-.514.54l-.418,8.936a.386.386,0,0,0,.463.4Z" transform="translate(-282.727 -159.013)" fill="#fff"/>
          <path id="Path_15978" data-name="Path 15978" d="M289.658,183.69l6.474-.947a.608.608,0,0,0,.514-.538l.418-8.936a.383.383,0,0,0-.469-.4l-6.474.94a.608.608,0,0,0-.514.54l-.428,8.934a.383.383,0,0,0,.48.4Z" transform="translate(-281.959 -159.327)" fill="#263238"/>
          <path id="Path_15979" data-name="Path 15979" d="M322.365,191.457l1.523-.857.178,2.189s-1.456.441-1.775-.306Z" transform="translate(-316.052 -173.265)" fill="#ff8b7b"/>
          <path id="Path_15980" data-name="Path 15980" d="M316.9,191l-.214,1.636-1.3.163-.178-2.189Z" transform="translate(-307.364 -173.273)" fill="#ff8b7b"/>
        </g>
      </g>
      <g id="Group_7736" data-name="Group 7736" transform="translate(-18.369 6.631)">
        <g id="Path_16271" data-name="Path 16271" transform="translate(495.836 298.369)" fill="#fff">
          <path d="M 29.45556640625 57.91113662719727 C 25.61364555358887 57.91113662719727 21.88718605041504 57.15891647338867 18.37968635559082 55.67536544799805 C 14.99133682250977 54.24221801757813 11.94807624816895 52.19032669067383 9.334436416625977 49.57669830322266 C 6.72080659866333 46.96305465698242 4.66891622543335 43.91979598999023 3.235766410827637 40.53144454956055 C 1.752216458320618 37.02394485473633 0.9999964237213135 33.2974853515625 0.9999964237213135 29.45556640625 C 0.9999964237213135 25.61364555358887 1.752216458320618 21.88718605041504 3.235766410827637 18.37968635559082 C 4.66891622543335 14.99133682250977 6.72080659866333 11.94807624816895 9.334436416625977 9.334436416625977 C 11.94807624816895 6.72080659866333 14.99133682250977 4.66891622543335 18.37968635559082 3.235766410827637 C 21.88718605041504 1.752216458320618 25.61364555358887 0.9999964237213135 29.45556640625 0.9999964237213135 C 33.2974853515625 0.9999964237213135 37.02394485473633 1.752216458320618 40.53144454956055 3.235766410827637 C 43.91979598999023 4.66891622543335 46.96305465698242 6.72080659866333 49.57669830322266 9.334436416625977 C 52.19032669067383 11.94807624816895 54.24221801757813 14.99133682250977 55.67536544799805 18.37968635559082 C 57.15891647338867 21.88718605041504 57.91113662719727 25.61364555358887 57.91113662719727 29.45556640625 C 57.91113662719727 33.2974853515625 57.15891647338867 37.02394485473633 55.67536544799805 40.53144454956055 C 54.24221801757813 43.91979598999023 52.19032669067383 46.96305465698242 49.57669830322266 49.57669830322266 C 46.96305465698242 52.19032669067383 43.91979598999023 54.24221801757813 40.53144454956055 55.67536544799805 C 37.02394485473633 57.15891647338867 33.2974853515625 57.91113662719727 29.45556640625 57.91113662719727 Z" stroke="none"/>
          <path d="M 29.45556640625 1.999996185302734 C 25.74820709228516 1.999996185302734 22.15280532836914 2.725635528564453 18.76923751831055 4.156764984130859 C 15.50008773803711 5.539505004882813 12.56366729736328 7.519428253173828 10.04154586791992 10.04154586791992 C 7.519428253173828 12.56366729736328 5.539505004882813 15.50008773803711 4.156764984130859 18.76923751831055 C 2.725635528564453 22.15280532836914 1.999996185302734 25.74820709228516 1.999996185302734 29.45556640625 C 1.999996185302734 33.16292572021484 2.725635528564453 36.75832366943359 4.156764984130859 40.14189910888672 C 5.539505004882813 43.41104507446289 7.519428253173828 46.34746551513672 10.04154586791992 48.86958694458008 C 12.56366729736328 51.39170837402344 15.50008773803711 53.37162780761719 18.76923751831055 54.75436782836914 C 22.15280532836914 56.18549728393555 25.74820709228516 56.91113662719727 29.45556640625 56.91113662719727 C 33.16292572021484 56.91113662719727 36.75832366943359 56.18549728393555 40.14189910888672 54.75436782836914 C 43.41104507446289 53.37162780761719 46.34746551513672 51.39170837402344 48.86958694458008 48.86958694458008 C 51.39170837402344 46.34746551513672 53.37162780761719 43.41104507446289 54.75436782836914 40.14189910888672 C 56.18549728393555 36.75832366943359 56.91113662719727 33.16292572021484 56.91113662719727 29.45556640625 C 56.91113662719727 25.74820709228516 56.18549728393555 22.15280532836914 54.75436782836914 18.76923751831055 C 53.37162780761719 15.50008773803711 51.39170837402344 12.56366729736328 48.86958694458008 10.04154586791992 C 46.34746551513672 7.519428253173828 43.41104507446289 5.539505004882813 40.14189910888672 4.156764984130859 C 36.75832366943359 2.725635528564453 33.16292572021484 1.999996185302734 29.45556640625 1.999996185302734 M 29.45556640625 -3.814697265625e-06 C 45.72342681884766 -3.814697265625e-06 58.91113662719727 13.18770599365234 58.91113662719727 29.45556640625 C 58.91113662719727 45.72342681884766 45.72342681884766 58.91113662719727 29.45556640625 58.91113662719727 C 13.18770599365234 58.91113662719727 -3.814697265625e-06 45.72342681884766 -3.814697265625e-06 29.45556640625 C -3.814697265625e-06 13.18770599365234 13.18770599365234 -3.814697265625e-06 29.45556640625 -3.814697265625e-06 Z" stroke="none" fill="#36cf92"/>
        </g>
        <path id="check-mark_1_" data-name="check-mark (1)" d="M32.532,13.469a1.9,1.9,0,0,1,0,2.688L19.784,28.905a1.9,1.9,0,0,1-2.688,0l-6.069-6.069a1.9,1.9,0,0,1,2.687-2.687l4.725,4.725,11.4-11.405a1.9,1.9,0,0,1,2.688,0Z" transform="translate(503.633 306.21)" fill="#36cf92"/>
      </g>
    </g>
  </g>
</svg>
