<svg xmlns="http://www.w3.org/2000/svg" width="136.586" height="88.137" viewBox="0 0 136.586 88.137">
  <g id="undraw_researching_22gp" transform="translate(15.203 -0.001)">
    <rect id="Rectangle_5622" data-name="Rectangle 5622" width="50.282" height="1.475" transform="translate(71.1 32.636)" fill="#e6e6e6"/>
    <rect id="Rectangle_5623" data-name="Rectangle 5623" width="12.738" height="12.738" transform="translate(75.257 20.3)" fill="#e6e6e6"/>
    <rect id="Rectangle_5624" data-name="Rectangle 5624" width="7.643" height="7.643" transform="translate(77.805 22.848)" fill="#ccc"/>
    <rect id="Rectangle_5625" data-name="Rectangle 5625" width="3.218" height="12.738" transform="translate(103.817 20.3)" fill="#e6e6e6"/>
    <rect id="Rectangle_5626" data-name="Rectangle 5626" width="3.218" height="1.475" transform="translate(103.817 22.312)" fill="#ccc"/>
    <rect id="Rectangle_5627" data-name="Rectangle 5627" width="3.218" height="1.475" transform="translate(103.817 28.748)" fill="#ccc"/>
    <rect id="Rectangle_5628" data-name="Rectangle 5628" width="3.218" height="12.738" transform="translate(98.856 20.3)" fill="#e6e6e6"/>
    <rect id="Rectangle_5629" data-name="Rectangle 5629" width="3.218" height="1.475" transform="translate(98.856 22.312)" fill="#ccc"/>
    <rect id="Rectangle_5630" data-name="Rectangle 5630" width="3.218" height="1.475" transform="translate(98.856 28.748)" fill="#ccc"/>
    <rect id="Rectangle_5631" data-name="Rectangle 5631" width="3.218" height="12.738" transform="matrix(0.896, -0.444, 0.444, 0.896, 106.924, 21.676)" fill="#e6e6e6"/>
    <rect id="Rectangle_5632" data-name="Rectangle 5632" width="3.218" height="1.475" transform="matrix(0.896, -0.444, 0.444, 0.896, 107.817, 23.478)" fill="#ccc"/>
    <rect id="Rectangle_5633" data-name="Rectangle 5633" width="3.218" height="1.475" transform="matrix(0.896, -0.444, 0.444, 0.896, 110.672, 29.246)" fill="#ccc"/>
    <path id="Path_13832" data-name="Path 13832" d="M506.2,170.382l1.621,2.807L509.44,176h-6.482l1.621-2.807Z" transform="translate(-426.182 -144.968)" fill="#e6e6e6"/>
    <path id="Path_13833" data-name="Path 13833" d="M525.078,173.978l1.621,2.807,1.621,2.807h-6.482l1.621-2.807Z" transform="translate(-442.245 -148.028)" fill="#e6e6e6"/>
    <circle id="Ellipse_1258" data-name="Ellipse 1258" cx="0.939" cy="0.939" r="0.939" transform="translate(83.034 23.25)" fill="#e6e6e6"/>
    <rect id="Rectangle_5634" data-name="Rectangle 5634" width="50.282" height="1.475" transform="translate(121.383 13.864) rotate(180)" fill="#e6e6e6"/>
    <rect id="Rectangle_5635" data-name="Rectangle 5635" width="12.738" height="12.738" transform="translate(117.226 12.792) rotate(180)" fill="#e6e6e6"/>
    <rect id="Rectangle_5636" data-name="Rectangle 5636" width="7.643" height="7.643" transform="translate(114.679 10.244) rotate(180)" fill="#ccc"/>
    <rect id="Rectangle_5637" data-name="Rectangle 5637" width="3.218" height="12.738" transform="translate(88.666 12.792) rotate(180)" fill="#e6e6e6"/>
    <rect id="Rectangle_5638" data-name="Rectangle 5638" width="3.218" height="1.475" transform="translate(88.666 3.54) rotate(180)" fill="#ccc"/>
    <rect id="Rectangle_5639" data-name="Rectangle 5639" width="3.218" height="1.475" transform="translate(88.666 9.976) rotate(180)" fill="#ccc"/>
    <rect id="Rectangle_5640" data-name="Rectangle 5640" width="3.218" height="12.738" transform="translate(93.627 12.792) rotate(180)" fill="#e6e6e6"/>
    <rect id="Rectangle_5641" data-name="Rectangle 5641" width="3.218" height="1.475" transform="translate(93.627 3.54) rotate(180)" fill="#ccc"/>
    <rect id="Rectangle_5642" data-name="Rectangle 5642" width="3.218" height="1.475" transform="translate(93.627 9.976) rotate(180)" fill="#ccc"/>
    <rect id="Rectangle_5643" data-name="Rectangle 5643" width="3.218" height="12.738" transform="matrix(-0.896, -0.444, 0.444, -0.896, 79.907, 12.844)" fill="#e6e6e6"/>
    <rect id="Rectangle_5644" data-name="Rectangle 5644" width="3.218" height="1.475" transform="matrix(-0.896, -0.444, 0.444, -0.896, 84.012, 4.553)" fill="#ccc"/>
    <rect id="Rectangle_5645" data-name="Rectangle 5645" width="3.218" height="1.475" transform="matrix(-0.896, -0.444, 0.444, -0.896, 81.156, 10.321)" fill="#ccc"/>
    <path id="Path_13834" data-name="Path 13834" d="M723.755,34.634l-1.62,2.807-1.621,2.807H727l-1.621-2.807Z" transform="translate(-611.289 -29.468)" fill="#e6e6e6"/>
    <path id="Path_13835" data-name="Path 13835" d="M704.876,38.23l-1.621,2.807-1.621,2.807h6.482L706.5,41.037Z" transform="translate(-595.226 -32.527)" fill="#e6e6e6"/>
    <circle id="Ellipse_1259" data-name="Ellipse 1259" cx="0.939" cy="0.939" r="0.939" transform="translate(107.572 3.003)" fill="#e6e6e6"/>
    <rect id="Rectangle_5646" data-name="Rectangle 5646" width="50.282" height="1.475" transform="translate(121.383 54.358) rotate(180)" fill="#e6e6e6"/>
    <rect id="Rectangle_5647" data-name="Rectangle 5647" width="12.738" height="12.738" transform="translate(117.226 53.286) rotate(180)" fill="#e6e6e6"/>
    <rect id="Rectangle_5648" data-name="Rectangle 5648" width="7.643" height="7.643" transform="translate(114.679 50.738) rotate(180)" fill="#ccc"/>
    <rect id="Rectangle_5649" data-name="Rectangle 5649" width="3.218" height="12.738" transform="translate(88.666 53.286) rotate(180)" fill="#e6e6e6"/>
    <rect id="Rectangle_5650" data-name="Rectangle 5650" width="3.218" height="1.475" transform="translate(88.666 44.034) rotate(180)" fill="#ccc"/>
    <rect id="Rectangle_5651" data-name="Rectangle 5651" width="3.218" height="1.475" transform="translate(88.666 50.47) rotate(180)" fill="#ccc"/>
    <rect id="Rectangle_5652" data-name="Rectangle 5652" width="3.218" height="12.738" transform="translate(93.627 53.286) rotate(180)" fill="#e6e6e6"/>
    <rect id="Rectangle_5653" data-name="Rectangle 5653" width="3.218" height="1.475" transform="translate(93.627 44.034) rotate(180)" fill="#ccc"/>
    <rect id="Rectangle_5654" data-name="Rectangle 5654" width="3.218" height="1.475" transform="translate(93.627 50.47) rotate(180)" fill="#ccc"/>
    <rect id="Rectangle_5655" data-name="Rectangle 5655" width="3.218" height="12.738" transform="matrix(-0.896, -0.444, 0.444, -0.896, 79.907, 53.339)" fill="#e6e6e6"/>
    <rect id="Rectangle_5656" data-name="Rectangle 5656" width="3.218" height="1.475" transform="matrix(-0.896, -0.444, 0.444, -0.896, 84.012, 45.047)" fill="#ccc"/>
    <rect id="Rectangle_5657" data-name="Rectangle 5657" width="3.218" height="1.475" transform="matrix(-0.896, -0.444, 0.444, -0.896, 81.156, 50.815)" fill="#ccc"/>
    <path id="Path_13836" data-name="Path 13836" d="M723.755,306.129l-1.62,2.807-1.621,2.807H727l-1.621-2.807Z" transform="translate(-611.289 -260.468)" fill="#e6e6e6"/>
    <path id="Path_13837" data-name="Path 13837" d="M704.876,309.725l-1.621,2.807-1.621,2.807h6.482l-1.621-2.807Z" transform="translate(-595.226 -263.528)" fill="#e6e6e6"/>
    <circle id="Ellipse_1260" data-name="Ellipse 1260" cx="0.939" cy="0.939" r="0.939" transform="translate(107.572 43.497)" fill="#e6e6e6"/>
    <ellipse id="Ellipse_1261" data-name="Ellipse 1261" cx="67.713" cy="4.809" rx="67.713" ry="4.809" transform="translate(-15.203 78.519)" fill="#e6e6e6"/>
    <path id="Path_13838" data-name="Path 13838" d="M732.306,661.924c-11.041-1.965-23.115-1.638-35.78,0,5.773-4.873,10.755-9.747,4.982-14.62,11.26,2.323,12.837,2.088,25.363,0C723.966,652.177,729.4,657.051,732.306,661.924Z" transform="translate(-626.895 -575.902)" fill="#00b0ff"/>
    <path id="Path_13839" data-name="Path 13839" d="M732.306,661.924c-11.041-1.965-23.115-1.638-35.78,0,5.773-4.873,10.755-9.747,4.982-14.62,11.26,2.323,12.837,2.088,25.363,0C723.966,652.177,729.4,657.051,732.306,661.924Z" transform="translate(-626.895 -575.902)" fill="#c9c9c9"/>
    <path id="Path_13840" data-name="Path 13840" d="M742.715,664.082c-9.379-1.569-19.635-1.308-30.394,0,4.9-3.89,9.136-7.78,4.232-11.67,9.565,1.854,10.9,1.667,21.545,0C735.63,656.3,740.247,660.192,742.715,664.082Z" transform="translate(-639.997 -580.14)" fill="#fff"/>
    <ellipse id="Ellipse_1262" data-name="Ellipse 1262" cx="4.997" cy="4.997" rx="4.997" ry="4.997" transform="translate(94.148 67.678)" fill="#2f2e41"/>
    <path id="Path_13841" data-name="Path 13841" d="M510.452,466.249l3.463.577,1.731,5-5,3.078-5.771-8.657h5.579Z" transform="translate(-433.992 -399.369)" fill="#a0616a"/>
    <circle id="Ellipse_1263" data-name="Ellipse 1263" cx="8.079" cy="8.079" r="8.079" transform="translate(78.191 58.417)" fill="#a0616a"/>
    <path id="Path_13842" data-name="Path 13842" d="M388.552,445.919s-19.621,2.116-23.084,1.731a42.87,42.87,0,0,1-5-.77s-2.308,3.078-1.154,4.424a8.324,8.324,0,0,0,2.308,1.924,7.079,7.079,0,0,1,3.655,0c1.539.577,17.121,3.078,19.814.77S388.552,445.919,388.552,445.919Z" transform="translate(-346.911 -408.856)" fill="#2f2e41"/>
    <path id="Path_13843" data-name="Path 13843" d="M399.893,523.547S387,519.891,384.7,503.733v-1.539a48.827,48.827,0,0,1-3.463,5.386c-1.058,1.058-4.809,10.58-4.617,11.542a2.3,2.3,0,0,1,0,1.346l-5.579-.577V518.16s2.982-8.945,3.174-11.061,7.406-16.832,7.406-16.832,2.693-5.579,7.31,0,5,9.426,5,9.426l5.963,11.542Z" transform="translate(-356.905 -443.586)" fill="#2f2e41"/>
    <path id="Path_13844" data-name="Path 13844" d="M318.576,428.73l-6.156-2.116s-5.771-4.232-4.424,0,7.5,13.466,9.234,12.5,3.813-3.349,3.349-3.695A5.715,5.715,0,0,1,318.576,428.73Z" transform="translate(-304.443 -391.283)" fill="#2f2e41"/>
    <path id="Path_13845" data-name="Path 13845" d="M333.352,659.259l-4.969,2.427s-6.009.924-2.658,2.658,12.6,3.582,13.059,1.965.279-4.3-.207-4.232A4.855,4.855,0,0,1,333.352,659.259Z" transform="translate(-318.475 -585.82)" fill="#2f2e41"/>
    <path id="Path_13846" data-name="Path 13846" d="M522.034,597.78s-2.5,10.773,1.731,13.081,33.857,2.693,36.165-1.539,1.154-4.232,1.154-4.232l-6.156-6.925,5-.385a1.8,1.8,0,0,0-1.731-1.731c-1.731-.192-7.118-2.116-11.734-.769s-7.31-2.693-7.31-2.693Z" transform="translate(-481.546 -530.515)" fill="#407bff"/>
    <path id="Path_13847" data-name="Path 13847" d="M291.527,266.39l-3.27,17.89,22.507-2.693,4.04-16.159Z" transform="translate(-254.31 -232.79)" fill="#3f3d56"/>
    <path id="Path_13848" data-name="Path 13848" d="M298.284,270.339l-2.693,15.966,20.487-2.4,3.943-14.524Z" transform="translate(-260.393 -236.065)" fill="#fff"/>
    <path id="Path_13849" data-name="Path 13849" d="M287.155,376.185l-.77-.192-.385.769,6.156,17.121.579-.221.19-1.125Z" transform="translate(-252.439 -324.503)" fill="#b3b3b3"/>
    <path id="Path_13850" data-name="Path 13850" d="M288.257,362.7l6.156,17.89,23.276-3.463L310.764,360.2Z" transform="translate(-254.31 -311.401)" fill="#d0cde1"/>
    <path id="Path_13851" data-name="Path 13851" d="M306.309,362.122v.962l17.121-1.924-.192-.962Z" transform="translate(-269.284 -311.401)" fill="#3f3d56"/>
    <path id="Path_13852" data-name="Path 13852" d="M308.565,374.339l2.693,7.5,17.505-2.116-3.078-7.118Z" transform="translate(-271.156 -321.693)" fill="#3f3d56"/>
    <path id="Path_13853" data-name="Path 13853" d="M598.364,560.931l-.577-1.539s-4.424-7.695-6.733-6.156,4.809,9.041,4.809,9.041h2.308Z" transform="translate(-539.024 -497.705)" fill="#a0616a"/>
    <path id="Path_13854" data-name="Path 13854" d="M545.487,562.066l-.577-2.308s-1.539-7.117,1.154-6.733,3.463,7.118,3.463,7.118l-.192,1.539Z" transform="translate(-500.767 -497.687)" fill="#a0616a"/>
    <path id="Path_13855" data-name="Path 13855" d="M551.226,599.261s-5-.77-5.194.385-1.154,18.467,3.655,19.044,28.663,3.078,26.162-2.885-6.348-5.194-6.348-5.194l-16.351,1.731Z" transform="translate(-501.889 -535.843)" fill="#407bff"/>
    <path id="Path_13856" data-name="Path 13856" d="M425.9,441.6l-5.1-3.559-3.366,2.6,4.232,4.617Z" transform="translate(-361.464 -375.972)" fill="#407bff"/>
    <path id="Path_13857" data-name="Path 13857" d="M386.976,479.224l.769,7.31,13.273-.769-11.542-.192Z" transform="translate(-336.197 -410.132)" opacity="0.2"/>
    <circle id="Ellipse_1264" data-name="Ellipse 1264" cx="9.618" cy="9.618" r="9.618" transform="translate(80.641 58.345)" fill="#2f2e41"/>
    <path id="Path_13858" data-name="Path 13858" d="M328.309,284.34l11.927-.415,1.154-4.394-12.311.372Z" transform="translate(-287.534 -244.488)" fill="#00b0ff"/>
    <path id="Path_13859" data-name="Path 13859" d="M310.258,315.852l18.082-.577.192-.77-18.082.637Z" transform="translate(-272.559 -273.499)" fill="#e6e6e6"/>
    <path id="Path_13860" data-name="Path 13860" d="M308,327.134l18.083-.577.192-.77-18.083.637Z" transform="translate(-270.687 -282.857)" fill="#e6e6e6"/>
    <path id="Path_13861" data-name="Path 13861" d="M306.873,336.16l18.082-.577.192-.77-18.083.637Z" transform="translate(-269.753 -290.343)" fill="#e6e6e6"/>
  </g>
</svg>
