<svg xmlns="http://www.w3.org/2000/svg" width="142.186" height="98.523" viewBox="0 0 142.186 98.523">
  <g id="Group_8336" data-name="Group 8336" transform="translate(-612 -279)">
    <g id="Closed_Stores-rafiki" data-name="Closed Stores-rafiki" transform="translate(612 224)">
      <g id="freepik--background-complete--inject-52" transform="translate(0 55)" opacity="0.79">
        <rect id="Rectangle_5750" data-name="Rectangle 5750" width="142.186" height="0.071" transform="translate(0 93.103)" fill="#ebebeb"/>
        <rect id="Rectangle_5751" data-name="Rectangle 5751" width="2.471" height="0.071" transform="translate(91.718 98.452)" fill="#ebebeb"/>
        <rect id="Rectangle_5752" data-name="Rectangle 5752" width="6.592" height="0.071" transform="translate(42.667 94.917)" fill="#ebebeb"/>
        <rect id="Rectangle_5753" data-name="Rectangle 5753" width="16.115" height="0.071" transform="translate(114.346 96.442)" fill="#ebebeb"/>
        <rect id="Rectangle_5754" data-name="Rectangle 5754" width="16.115" height="0.071" transform="translate(12.148 96.442)" fill="#ebebeb"/>
        <path id="Path_14220" data-name="Path 14220" d="M94.74,135.42H39.831A1.624,1.624,0,0,1,38.21,133.8V56.61A1.624,1.624,0,0,1,39.831,55H94.74a1.624,1.624,0,0,1,1.624,1.624V133.8A1.624,1.624,0,0,1,94.74,135.42ZM39.831,55.057a1.553,1.553,0,0,0-1.55,1.553V133.8a1.553,1.553,0,0,0,1.55,1.553H94.74a1.556,1.556,0,0,0,1.553-1.553V56.61a1.556,1.556,0,0,0-1.553-1.553Z" transform="translate(-27.344 -55)" fill="#ebebeb"/>
        <path id="Path_14221" data-name="Path 14221" d="M311.036,135.42H256.124A1.627,1.627,0,0,1,254.5,133.8V56.61A1.627,1.627,0,0,1,256.124,55h54.912a1.624,1.624,0,0,1,1.618,1.61V133.8A1.624,1.624,0,0,1,311.036,135.42ZM256.124,55.057a1.556,1.556,0,0,0-1.553,1.553V133.8a1.556,1.556,0,0,0,1.553,1.553h54.912a1.556,1.556,0,0,0,1.553-1.553V56.61a1.556,1.556,0,0,0-1.553-1.553Z" transform="translate(-182.128 -55)" fill="#ebebeb"/>
        <path id="Path_14222" data-name="Path 14222" d="M360.339,69.951a3.3,3.3,0,0,0-2.844-3.569,3.181,3.181,0,0,0-2.733-1.322A6.136,6.136,0,0,0,349.829,68a5.54,5.54,0,0,0-3.72,2.275,1.88,1.88,0,0,0-.6-.091,3.04,3.04,0,0,0-2.724,2.138,2.011,2.011,0,0,0-.063.87h18.535a3.082,3.082,0,0,0,.409-.87A1.769,1.769,0,0,0,360.339,69.951Z" transform="translate(-245.249 -62.199)" fill="#f5f5f5"/>
        <path id="Path_14223" data-name="Path 14223" d="M66.58,89.3a2.844,2.844,0,0,0-2.465-3.088,2.75,2.75,0,0,0-2.363-1.137,5.285,5.285,0,0,0-4.266,2.559,4.8,4.8,0,0,0-3.216,1.991,1.661,1.661,0,0,0-.518-.08,2.633,2.633,0,0,0-2.366,1.84,1.72,1.72,0,0,0-.054.751H67.368a2.633,2.633,0,0,0,.355-.751A1.526,1.526,0,0,0,66.58,89.3Z" transform="translate(-36.721 -76.518)" fill="#f5f5f5"/>
        <path id="Path_14224" data-name="Path 14224" d="M185.44,86.461a6.407,6.407,0,0,0-1.934.31,7.092,7.092,0,0,0-4.493-1.652C178.04,82.053,175.268,80,171.429,80a14.508,14.508,0,0,0-10.152,4.732c-.216-.02-.435-.028-.663-.028-4.428,0-9.037,3.589-10.3,8.016a8.141,8.141,0,0,0-.3,1.723h38.333a7.419,7.419,0,0,0,1.137-2.306C190.388,89,188.576,86.461,185.44,86.461Z" transform="translate(-107.351 -72.891)" fill="#fafafa"/>
        <rect id="Rectangle_5755" data-name="Rectangle 5755" width="13.465" height="25.155" transform="translate(14.597 67.945)" fill="#e0e0e0"/>
        <rect id="Rectangle_5756" data-name="Rectangle 5756" width="10.337" height="5.821" transform="translate(16.161 62.471)" fill="#e0e0e0"/>
        <rect id="Rectangle_5757" data-name="Rectangle 5757" width="11.787" height="0.904" transform="translate(15.436 62.087)" fill="#e0e0e0"/>
        <path id="Path_14225" data-name="Path 14225" d="M378.7,242.58l16.894,5.727v34.034H378.7Z" transform="translate(-271.009 -189.238)" fill="#e0e0e0"/>
        <path id="Path_14226" data-name="Path 14226" d="M390.07,222.28l10.428,3.538v21.006H390.07Z" transform="translate(-279.145 -174.71)" fill="#e0e0e0"/>
        <rect id="Rectangle_5758" data-name="Rectangle 5758" width="43.381" height="48.289" transform="translate(73.754 44.851)" fill="#f5f5f5"/>
        <rect id="Rectangle_5759" data-name="Rectangle 5759" width="49.466" height="2.906" transform="translate(70.715 42.764)" fill="#f5f5f5"/>
        <rect id="Rectangle_5760" data-name="Rectangle 5760" width="45.514" height="2.906" transform="translate(72.688 58.43)" fill="#f5f5f5"/>
        <rect id="Rectangle_5761" data-name="Rectangle 5761" width="45.514" height="2.906" transform="translate(72.688 73.632)" fill="#f5f5f5"/>
        <path id="Path_14227" data-name="Path 14227" d="M196.92,149.96l23.554,9.524v56.576H196.92Z" transform="translate(-140.922 -122.956)" fill="#ebebeb"/>
        <path id="Path_14228" data-name="Path 14228" d="M212.77,116.22l14.54,5.878v34.924H212.77Z" transform="translate(-152.264 -98.811)" fill="#ebebeb"/>
        <path id="Path_14229" data-name="Path 14229" d="M227.34,95.76l1.055.427v12.441H227.34Z" transform="translate(-162.691 -84.169)" fill="#ebebeb"/>
        <path id="Path_14230" data-name="Path 14230" d="M102.333,212.11,71.57,219.086v41.45h30.763Z" transform="translate(-51.218 -167.432)" fill="#f0f0f0"/>
        <path id="Path_14231" data-name="Path 14231" d="M111.257,152.06,92.27,156.368V192h18.987Z" transform="translate(-66.031 -124.459)" fill="#f0f0f0"/>
        <path id="Path_14232" data-name="Path 14232" d="M137.706,114.11l-.916.529v25.474h.916Z" transform="translate(-97.891 -97.301)" fill="#f0f0f0"/>
        <path id="Path_14233" data-name="Path 14233" d="M107.256,126.39l-.916.529V152.4h.916Z" transform="translate(-76.1 -106.089)" fill="#f0f0f0"/>
        <rect id="Rectangle_5762" data-name="Rectangle 5762" width="27.678" height="34.921" transform="translate(36.59 58.182)" fill="#f5f5f5"/>
        <rect id="Rectangle_5763" data-name="Rectangle 5763" width="21.251" height="8.082" transform="translate(39.803 50.581)" fill="#f5f5f5"/>
        <rect id="Rectangle_5764" data-name="Rectangle 5764" width="24.231" height="1.257" transform="translate(38.313 50.049)" fill="#f5f5f5"/>
        <rect id="Rectangle_5765" data-name="Rectangle 5765" width="17.355" height="53.615" transform="translate(87.959 39.488)" fill="#f0f0f0"/>
        <rect id="Rectangle_5766" data-name="Rectangle 5766" width="13.326" height="12.407" transform="translate(89.972 27.823)" fill="#f0f0f0"/>
        <rect id="Rectangle_5767" data-name="Rectangle 5767" width="15.194" height="1.928" transform="translate(89.039 27.004)" fill="#f0f0f0"/>
      </g>
    </g>
    <g id="Group_8329" data-name="Group 8329" transform="translate(-6.001)">
      <g id="freepik--store-2--inject-52" transform="translate(646.943 309.955)">
        <rect id="Rectangle_5778" data-name="Rectangle 5778" width="67.538" height="55.704" transform="translate(6.246 6.389)" fill="#407bff"/>
        <path id="Path_14953" data-name="Path 14953" d="M0,0H67.538V55.7H0Z" transform="translate(6.246 6.389)" fill="#fff"/>
        <path id="Path_14265" data-name="Path 14265" d="M213.594,360.554h66.729a.964.964,0,0,1,.964.964v8.191H212.63v-8.2a.964.964,0,0,1,.964-.964Z" transform="translate(-206.941 -307.617)" fill="#c5d7ff"/>
        <rect id="Rectangle_5780" data-name="Rectangle 5780" width="8.455" height="2.029" transform="translate(11.49 20.21)" fill="#407bff"/>
        <rect id="Rectangle_5781" data-name="Rectangle 5781" width="8.455" height="2.029" transform="translate(63.099 20.21)" fill="#407bff"/>
        <rect id="Rectangle_5782" data-name="Rectangle 5782" width="8.455" height="2.029" transform="translate(15.72 22.239)" fill="#407bff"/>
        <rect id="Rectangle_5783" data-name="Rectangle 5783" width="8.455" height="2.029" transform="translate(56.966 49.034) rotate(180)" fill="#407bff"/>
        <rect id="Rectangle_5784" data-name="Rectangle 5784" width="8.455" height="2.029" transform="translate(52.74 51.059) rotate(180)" fill="#407bff"/>
        <rect id="Rectangle_5786" data-name="Rectangle 5786" width="30.577" height="29.431" transform="translate(38.345 23.283)" fill="#fff"/>
        <rect id="Rectangle_5789" data-name="Rectangle 5789" width="19.824" height="2.893" transform="translate(14.207 41.241)" fill="#fff"/>
        <path id="Path_14266" data-name="Path 14266" d="M248.367,295.36l-8.242,34.165H238.65l8.242-34.165Z" transform="translate(-222.054 -269.755)" fill="#fff" opacity="0.4"/>
        <path id="Path_14267" data-name="Path 14267" d="M256.754,295.36l-8.242,34.165H245.62l8.242-34.165Z" transform="translate(-226.102 -269.755)" fill="#fff" opacity="0.4"/>
        <path id="Path_14269" data-name="Path 14269" d="M334.334,293.1,329.1,314.79H323.33l5.232-21.69Z" transform="translate(-271.235 -268.442)" fill="#fff" opacity="0.4"/>
        <path id="Path_14270" data-name="Path 14270" d="M207.976,243.356H199.06l10.489-9.076h6.586Z" transform="translate(-199.06 -234.28)" fill="#407bff"/>
        <path id="Path_14271" data-name="Path 14271" d="M229.246,243.356H220.33l8.158-9.076h6.586Z" transform="translate(-211.414 -234.28)" fill="#c5d7ff"/>
        <path id="Path_14272" data-name="Path 14272" d="M250.516,243.356H241.6l5.827-9.076h6.586Z" transform="translate(-223.767 -234.28)" fill="#407bff"/>
        <path id="Path_14273" data-name="Path 14273" d="M271.786,243.356H262.87l3.5-9.076h6.586Z" transform="translate(-236.121 -234.28)" fill="#c5d7ff"/>
        <path id="Path_14274" data-name="Path 14274" d="M293.056,243.356H284.14l1.165-9.076h6.586Z" transform="translate(-248.474 -234.28)" fill="#407bff"/>
        <path id="Path_14275" data-name="Path 14275" d="M312.716,243.356H303.8l-1.165-9.076h6.586Z" transform="translate(-259.213 -234.28)" fill="#c5d7ff"/>
        <path id="Path_14276" data-name="Path 14276" d="M330.757,243.356H321.84l-3.5-9.076h6.586Z" transform="translate(-268.337 -234.28)" fill="#407bff"/>
        <path id="Path_14277" data-name="Path 14277" d="M366.838,243.356h-8.917l-8.162-9.076h6.59Z" transform="translate(-286.586 -234.28)" fill="#407bff"/>
        <path id="Path_14278" data-name="Path 14278" d="M348.8,243.356h-8.917l-5.831-9.076h6.586Z" transform="translate(-277.462 -234.28)" fill="#c5d7ff"/>
      </g>
      <g id="Group_8327" data-name="Group 8327" transform="translate(633.001 328.094)">
        <path id="Path_15762" data-name="Path 15762" d="M482.535,531.531l-11.813,2.418-.269-.027-10.381-1.048V519.717l12.708-2.148L482,518.644l0,.058v.028Z" transform="translate(-458.071 -488.569)" fill="#e6e6e6"/>
        <path id="Path_15763" data-name="Path 15763" d="M542.828,538.113l-11.813,2.418-.269-.027V527.017l11.549-1.732Z" transform="translate(-518.364 -495.153)" opacity="0.1"/>
        <rect id="Rectangle_6069" data-name="Rectangle 6069" width="7.198" height="3.378" transform="matrix(0.998, 0.065, -0.065, 0.998, 3.429, 35.74)" fill="#fff"/>
        <rect id="Rectangle_6070" data-name="Rectangle 6070" width="3.819" height="1.175" transform="matrix(0.998, 0.065, -0.065, 0.998, 5.043, 36.949)" fill="#00b0ff"/>
        <path id="Path_15764" data-name="Path 15764" d="M591.535,531.531l-11.813,2.418-.269-.027-10.381-1.048V519.717l12.708-2.148L591,518.644l0,.058v.028Z" transform="translate(-551.06 -488.569)" fill="#00b0ff"/>
        <path id="Path_15765" data-name="Path 15765" d="M651.828,538.113l-11.813,2.418-.269-.027V527.017l11.549-1.732Z" transform="translate(-611.352 -495.153)" fill="#407bff" opacity="0.5"/>
        <rect id="Rectangle_6071" data-name="Rectangle 6071" width="7.198" height="3.378" transform="matrix(0.998, 0.065, -0.065, 0.998, 19.44, 35.74)" fill="#fff"/>
        <rect id="Rectangle_6072" data-name="Rectangle 6072" width="3.819" height="1.175" transform="matrix(0.998, 0.065, -0.065, 0.998, 21.054, 36.949)" fill="#00b0ff"/>
        <g id="Group_8325" data-name="Group 8325" transform="translate(0 14)">
          <path id="Path_15766" data-name="Path 15766" d="M460.071,531.532l11.813,2.418.269-.027,10.382-1.048V519.718l-12.709-2.149-9.219,1.075,0,.058v.028Z" transform="translate(-444.06 -517.569)" fill="#e6e6e6"/>
          <path id="Path_15767" data-name="Path 15767" d="M530.745,538.114l11.813,2.418.269-.027V527.017l-11.549-1.732Z" transform="translate(-514.733 -524.153)" opacity="0.1"/>
          <rect id="Rectangle_6073" data-name="Rectangle 6073" width="7.198" height="3.379" transform="translate(37.267 10.111) rotate(176.266)" fill="#fff"/>
          <rect id="Rectangle_6074" data-name="Rectangle 6074" width="3.819" height="1.175" transform="translate(35.509 9.122) rotate(176.266)" fill="#00b0ff"/>
          <path id="Path_15768" data-name="Path 15768" d="M569.071,531.532l11.813,2.418.269-.027,10.382-1.048V519.718l-12.708-2.149-9.219,1.075,0,.058v.028Z" transform="translate(-569.07 -517.569)" fill="#00b0ff"/>
          <path id="Path_15769" data-name="Path 15769" d="M639.745,538.114l11.813,2.418.269-.027V527.017l-11.549-1.732Z" transform="translate(-639.745 -524.153)" fill="#407bff" opacity="0.46"/>
          <rect id="Rectangle_6075" data-name="Rectangle 6075" width="7.198" height="3.379" transform="translate(21.254 10.111) rotate(176.266)" fill="#fff"/>
          <rect id="Rectangle_6076" data-name="Rectangle 6076" width="3.819" height="1.175" transform="translate(19.498 9.122) rotate(176.266)" fill="#00b0ff"/>
        </g>
        <g id="Group_8326" data-name="Group 8326" transform="translate(2)">
          <path id="Path_15766-2" data-name="Path 15766" d="M460.071,531.532l11.813,2.418.269-.027,10.382-1.048V519.718l-12.709-2.149-9.219,1.075,0,.058v.028Z" transform="translate(-444.06 -517.569)" fill="#e6e6e6"/>
          <path id="Path_15767-2" data-name="Path 15767" d="M530.745,538.114l11.813,2.418.269-.027V527.017l-11.549-1.732Z" transform="translate(-514.733 -524.153)" opacity="0.1"/>
          <rect id="Rectangle_6073-2" data-name="Rectangle 6073" width="7.198" height="3.379" transform="translate(37.267 10.111) rotate(176.266)" fill="#fff"/>
          <rect id="Rectangle_6074-2" data-name="Rectangle 6074" width="3.819" height="1.175" transform="translate(35.509 9.122) rotate(176.266)" fill="#00b0ff"/>
          <path id="Path_15768-2" data-name="Path 15768" d="M569.071,531.532l11.813,2.418.269-.027,10.382-1.048V519.718l-12.708-2.149-9.219,1.075,0,.058v.028Z" transform="translate(-569.07 -517.569)" fill="#407bff"/>
          <path id="Path_15769-2" data-name="Path 15769" d="M639.745,538.114l11.813,2.418.269-.027V527.017l-11.549-1.732Z" transform="translate(-639.745 -524.153)" fill="#407bff"/>
          <rect id="Rectangle_6075-2" data-name="Rectangle 6075" width="7.198" height="3.379" transform="translate(21.254 10.111) rotate(176.266)" fill="#fff"/>
          <rect id="Rectangle_6076-2" data-name="Rectangle 6076" width="3.819" height="1.175" transform="translate(19.498 9.122) rotate(176.266)" fill="#00b0ff"/>
        </g>
      </g>
      <g id="Group_8328" data-name="Group 8328" transform="translate(704.022 328.094)">
        <path id="Path_15762-2" data-name="Path 15762" d="M460.071,531.531l11.813,2.418.269-.027,10.381-1.048V519.718l-12.708-2.149-9.219,1.075,0,.058v.028Z" transform="translate(-444.059 -488.568)" fill="#e6e6e6"/>
        <path id="Path_15763-2" data-name="Path 15763" d="M530.745,538.114l11.813,2.418.269-.027V527.017l-11.549-1.732Z" transform="translate(-514.733 -495.152)" opacity="0.1"/>
        <rect id="Rectangle_6069-2" data-name="Rectangle 6069" width="7.198" height="3.379" transform="translate(37.267 39.112) rotate(176.266)" fill="#fff"/>
        <rect id="Rectangle_6070-2" data-name="Rectangle 6070" width="3.819" height="1.175" transform="translate(35.509 38.122) rotate(176.266)" fill="#00b0ff"/>
        <path id="Path_15764-2" data-name="Path 15764" d="M569.071,531.531l11.813,2.418.269-.027,10.381-1.048V519.718l-12.708-2.149-9.219,1.075,0,.058v.028Z" transform="translate(-569.07 -488.568)" fill="#00b0ff"/>
        <path id="Path_15765-2" data-name="Path 15765" d="M639.745,538.114l11.813,2.418.269-.027V527.017l-11.549-1.732Z" transform="translate(-639.744 -495.152)" fill="#407bff" opacity="0.49"/>
        <rect id="Rectangle_6071-2" data-name="Rectangle 6071" width="7.198" height="3.379" transform="translate(21.255 39.112) rotate(176.266)" fill="#fff"/>
        <rect id="Rectangle_6072-2" data-name="Rectangle 6072" width="3.819" height="1.175" transform="translate(19.498 38.122) rotate(176.266)" fill="#00b0ff"/>
        <g id="Group_8325-2" data-name="Group 8325" transform="translate(2 14)">
          <path id="Path_15766-3" data-name="Path 15766" d="M482.535,531.532l-11.813,2.418-.269-.027-10.381-1.048V519.718l12.709-2.149L482,518.644l0,.058v.028Z" transform="translate(-460.071 -517.569)" fill="#e6e6e6"/>
          <path id="Path_15767-3" data-name="Path 15767" d="M542.828,538.115l-11.813,2.418-.269-.027V527.017l11.549-1.732Z" transform="translate(-520.364 -524.153)" opacity="0.1"/>
          <rect id="Rectangle_6073-3" data-name="Rectangle 6073" width="7.198" height="3.379" transform="translate(1.429 6.739) rotate(3.734)" fill="#fff"/>
          <rect id="Rectangle_6074-3" data-name="Rectangle 6074" width="3.819" height="1.175" transform="translate(3.043 7.95) rotate(3.734)" fill="#00b0ff"/>
          <path id="Path_15768-3" data-name="Path 15768" d="M591.535,531.532l-11.813,2.418-.269-.027-10.382-1.048V519.718l12.708-2.149L591,518.644l0,.058v.028Z" transform="translate(-553.06 -517.569)" fill="#00b0ff"/>
          <path id="Path_15769-3" data-name="Path 15769" d="M651.828,538.115l-11.813,2.418-.269-.027V527.017l11.549-1.732Z" transform="translate(-613.352 -524.153)" fill="#407bff" opacity="0.46"/>
          <rect id="Rectangle_6075-3" data-name="Rectangle 6075" width="7.198" height="3.379" transform="translate(17.441 6.739) rotate(3.734)" fill="#fff"/>
          <rect id="Rectangle_6076-3" data-name="Rectangle 6076" width="3.819" height="1.175" transform="translate(19.055 7.95) rotate(3.734)" fill="#00b0ff"/>
        </g>
        <g id="Group_8326-2" data-name="Group 8326" transform="translate(0)">
          <path id="Path_15766-4" data-name="Path 15766" d="M482.535,531.532l-11.813,2.418-.269-.027-10.381-1.048V519.718l12.709-2.149L482,518.644l0,.058v.028Z" transform="translate(-460.071 -517.569)" fill="#e6e6e6"/>
          <path id="Path_15767-4" data-name="Path 15767" d="M542.828,538.115l-11.813,2.418-.269-.027V527.017l11.549-1.732Z" transform="translate(-520.364 -524.153)" opacity="0.1"/>
          <rect id="Rectangle_6073-4" data-name="Rectangle 6073" width="7.198" height="3.379" transform="translate(1.429 6.739) rotate(3.734)" fill="#fff"/>
          <rect id="Rectangle_6074-4" data-name="Rectangle 6074" width="3.819" height="1.175" transform="translate(3.043 7.95) rotate(3.734)" fill="#00b0ff"/>
          <path id="Path_15768-4" data-name="Path 15768" d="M591.535,531.532l-11.813,2.418-.269-.027-10.382-1.048V519.718l12.708-2.149L591,518.644l0,.058v.028Z" transform="translate(-553.06 -517.569)" fill="#407bff"/>
          <path id="Path_15769-4" data-name="Path 15769" d="M651.828,538.115l-11.813,2.418-.269-.027V527.017l11.549-1.732Z" transform="translate(-613.352 -524.153)" fill="#407bff"/>
          <rect id="Rectangle_6075-4" data-name="Rectangle 6075" width="7.198" height="3.379" transform="translate(17.441 6.739) rotate(3.734)" fill="#fff"/>
          <rect id="Rectangle_6076-4" data-name="Rectangle 6076" width="3.819" height="1.175" transform="translate(19.055 7.95) rotate(3.734)" fill="#00b0ff"/>
        </g>
      </g>
      <g id="Group_8330" data-name="Group 8330" transform="translate(665.941 310.266)">
        <rect id="Rectangle_5785" data-name="Rectangle 5785" width="22.954" height="43.949" transform="translate(10.146 17.828)" fill="#fff"/>
        <rect id="Rectangle_5788" data-name="Rectangle 5788" width="19.742" height="35.225" transform="translate(11.753 20.694)" fill="#407bff" opacity="0.3"/>
        <rect id="Rectangle_5789-2" data-name="Rectangle 5789" width="20.919" height="3.052" transform="translate(11.16 36.781)" fill="#fff"/>
        <path id="Path_14266-2" data-name="Path 14266" d="M248.9,295.36l-8.7,36.052H238.65l8.7-36.052Z" transform="translate(-224.969 -275.079)" fill="#fff" opacity="0.4"/>
        <path id="Path_14267-2" data-name="Path 14267" d="M257.369,295.36l-8.7,36.052H245.62l8.7-36.052Z" transform="translate(-228.856 -275.079)" fill="#fff" opacity="0.4"/>
        <circle id="Ellipse_1311" data-name="Ellipse 1311" cx="1.336" cy="1.336" r="1.336" transform="translate(29.544 35.368)" fill="#407bff"/>
      </g>
    </g>
  </g>
</svg>
