<svg xmlns="http://www.w3.org/2000/svg" width="142.186" height="98.523" viewBox="0 0 142.186 98.523">
  <g id="Closed_Stores-rafiki" data-name="Closed Stores-rafiki" transform="translate(0 -55)">
    <g id="freepik--background-complete--inject-52" transform="translate(0 55)">
      <rect id="Rectangle_5750" data-name="Rectangle 5750" width="142.186" height="0.071" transform="translate(0 93.103)" fill="#ebebeb"/>
      <rect id="Rectangle_5751" data-name="Rectangle 5751" width="2.471" height="0.071" transform="translate(91.718 98.452)" fill="#ebebeb"/>
      <rect id="Rectangle_5752" data-name="Rectangle 5752" width="6.592" height="0.071" transform="translate(42.667 94.917)" fill="#ebebeb"/>
      <rect id="Rectangle_5753" data-name="Rectangle 5753" width="16.115" height="0.071" transform="translate(114.346 96.442)" fill="#ebebeb"/>
      <rect id="Rectangle_5754" data-name="Rectangle 5754" width="16.115" height="0.071" transform="translate(12.148 96.442)" fill="#ebebeb"/>
      <path id="Path_14220" data-name="Path 14220" d="M94.74,135.42H39.831A1.624,1.624,0,0,1,38.21,133.8V56.61A1.624,1.624,0,0,1,39.831,55H94.74a1.624,1.624,0,0,1,1.624,1.624V133.8A1.624,1.624,0,0,1,94.74,135.42ZM39.831,55.057a1.553,1.553,0,0,0-1.55,1.553V133.8a1.553,1.553,0,0,0,1.55,1.553H94.74a1.556,1.556,0,0,0,1.553-1.553V56.61a1.556,1.556,0,0,0-1.553-1.553Z" transform="translate(-27.344 -55)" fill="#ebebeb"/>
      <path id="Path_14221" data-name="Path 14221" d="M311.036,135.42H256.124A1.627,1.627,0,0,1,254.5,133.8V56.61A1.627,1.627,0,0,1,256.124,55h54.912a1.624,1.624,0,0,1,1.618,1.61V133.8A1.624,1.624,0,0,1,311.036,135.42ZM256.124,55.057a1.556,1.556,0,0,0-1.553,1.553V133.8a1.556,1.556,0,0,0,1.553,1.553h54.912a1.556,1.556,0,0,0,1.553-1.553V56.61a1.556,1.556,0,0,0-1.553-1.553Z" transform="translate(-182.128 -55)" fill="#ebebeb"/>
      <path id="Path_14222" data-name="Path 14222" d="M360.339,69.951a3.3,3.3,0,0,0-2.844-3.569,3.181,3.181,0,0,0-2.733-1.322A6.136,6.136,0,0,0,349.829,68a5.54,5.54,0,0,0-3.72,2.275,1.88,1.88,0,0,0-.6-.091,3.04,3.04,0,0,0-2.724,2.138,2.011,2.011,0,0,0-.063.87h18.535a3.082,3.082,0,0,0,.409-.87A1.769,1.769,0,0,0,360.339,69.951Z" transform="translate(-245.249 -62.199)" fill="#f5f5f5"/>
      <path id="Path_14223" data-name="Path 14223" d="M66.58,89.3a2.844,2.844,0,0,0-2.465-3.088,2.75,2.75,0,0,0-2.363-1.137,5.285,5.285,0,0,0-4.266,2.559,4.8,4.8,0,0,0-3.216,1.991,1.661,1.661,0,0,0-.518-.08,2.633,2.633,0,0,0-2.366,1.84,1.72,1.72,0,0,0-.054.751H67.368a2.633,2.633,0,0,0,.355-.751A1.526,1.526,0,0,0,66.58,89.3Z" transform="translate(-36.721 -76.518)" fill="#f5f5f5"/>
      <path id="Path_14224" data-name="Path 14224" d="M185.44,86.461a6.407,6.407,0,0,0-1.934.31,7.092,7.092,0,0,0-4.493-1.652C178.04,82.053,175.268,80,171.429,80a14.508,14.508,0,0,0-10.152,4.732c-.216-.02-.435-.028-.663-.028-4.428,0-9.037,3.589-10.3,8.016a8.141,8.141,0,0,0-.3,1.723h38.333a7.419,7.419,0,0,0,1.137-2.306C190.388,89,188.576,86.461,185.44,86.461Z" transform="translate(-107.351 -72.891)" fill="#fafafa"/>
      <rect id="Rectangle_5755" data-name="Rectangle 5755" width="13.465" height="25.155" transform="translate(14.597 67.945)" fill="#e0e0e0"/>
      <rect id="Rectangle_5756" data-name="Rectangle 5756" width="10.337" height="5.821" transform="translate(16.161 62.471)" fill="#e0e0e0"/>
      <rect id="Rectangle_5757" data-name="Rectangle 5757" width="11.787" height="0.904" transform="translate(15.436 62.087)" fill="#e0e0e0"/>
      <path id="Path_14225" data-name="Path 14225" d="M378.7,242.58l16.894,5.727v34.034H378.7Z" transform="translate(-271.009 -189.238)" fill="#e0e0e0"/>
      <path id="Path_14226" data-name="Path 14226" d="M390.07,222.28l10.428,3.538v21.006H390.07Z" transform="translate(-279.145 -174.71)" fill="#e0e0e0"/>
      <rect id="Rectangle_5758" data-name="Rectangle 5758" width="43.381" height="48.289" transform="translate(73.754 44.851)" fill="#f5f5f5"/>
      <rect id="Rectangle_5759" data-name="Rectangle 5759" width="49.466" height="2.906" transform="translate(70.715 42.764)" fill="#f5f5f5"/>
      <rect id="Rectangle_5760" data-name="Rectangle 5760" width="45.514" height="2.906" transform="translate(72.688 58.43)" fill="#f5f5f5"/>
      <rect id="Rectangle_5761" data-name="Rectangle 5761" width="45.514" height="2.906" transform="translate(72.688 73.632)" fill="#f5f5f5"/>
      <path id="Path_14227" data-name="Path 14227" d="M196.92,149.96l23.554,9.524v56.576H196.92Z" transform="translate(-140.922 -122.956)" fill="#ebebeb"/>
      <path id="Path_14228" data-name="Path 14228" d="M212.77,116.22l14.54,5.878v34.924H212.77Z" transform="translate(-152.264 -98.811)" fill="#ebebeb"/>
      <path id="Path_14229" data-name="Path 14229" d="M227.34,95.76l1.055.427v12.441H227.34Z" transform="translate(-162.691 -84.169)" fill="#ebebeb"/>
      <path id="Path_14230" data-name="Path 14230" d="M102.333,212.11,71.57,219.086v41.45h30.763Z" transform="translate(-51.218 -167.432)" fill="#f0f0f0"/>
      <path id="Path_14231" data-name="Path 14231" d="M111.257,152.06,92.27,156.368V192h18.987Z" transform="translate(-66.031 -124.459)" fill="#f0f0f0"/>
      <path id="Path_14232" data-name="Path 14232" d="M137.706,114.11l-.916.529v25.474h.916Z" transform="translate(-97.891 -97.301)" fill="#f0f0f0"/>
      <path id="Path_14233" data-name="Path 14233" d="M107.256,126.39l-.916.529V152.4h.916Z" transform="translate(-76.1 -106.089)" fill="#f0f0f0"/>
      <rect id="Rectangle_5762" data-name="Rectangle 5762" width="27.678" height="34.921" transform="translate(36.59 58.182)" fill="#f5f5f5"/>
      <rect id="Rectangle_5763" data-name="Rectangle 5763" width="21.251" height="8.082" transform="translate(39.803 50.581)" fill="#f5f5f5"/>
      <rect id="Rectangle_5764" data-name="Rectangle 5764" width="24.231" height="1.257" transform="translate(38.313 50.049)" fill="#f5f5f5"/>
      <rect id="Rectangle_5765" data-name="Rectangle 5765" width="17.355" height="53.615" transform="translate(87.959 39.488)" fill="#f0f0f0"/>
      <rect id="Rectangle_5766" data-name="Rectangle 5766" width="13.326" height="12.407" transform="translate(89.972 27.823)" fill="#f0f0f0"/>
      <rect id="Rectangle_5767" data-name="Rectangle 5767" width="15.194" height="1.928" transform="translate(89.039 27.004)" fill="#f0f0f0"/>
    </g>
    <g id="freepik--Tree--inject-52" transform="translate(114.314 119.693)">
      <rect id="Rectangle_5791" data-name="Rectangle 5791" width="1.28" height="16.312" transform="translate(5.097 7.611)" fill="#263238"/>
      <path id="Path_14296" data-name="Path 14296" d="M413.916,351h-9.433a.4.4,0,0,0-.429.444l1.464,8.153a.424.424,0,0,0,.432.324h6.5a.421.421,0,0,0,.429-.324l1.467-8.153a.4.4,0,0,0-.432-.444Z" transform="translate(-403.465 -331.516)" fill="#407bff"/>
      <path id="Path_14297" data-name="Path 14297" d="M413.916,351h-9.433a.4.4,0,0,0-.429.444l1.464,8.153a.424.424,0,0,0,.432.324h6.5a.421.421,0,0,0,.429-.324l1.467-8.153a.4.4,0,0,0-.432-.444Z" transform="translate(-403.465 -331.516)" fill="#fff" opacity="0.5"/>
      <path id="Path_14298" data-name="Path 14298" d="M413.9,288.31h0a.506.506,0,0,0-.23-.427.483.483,0,0,0-.142-.1h0a.177.177,0,1,1-.165-.313h0a.512.512,0,0,0-.142-.284.52.52,0,0,0,0-.492.5.5,0,0,0-.216-.213,4.251,4.251,0,0,0-.626-.978h0a.509.509,0,0,0,.114-.31.518.518,0,0,0-.321-.486.506.506,0,0,0,.048-.387.515.515,0,0,0-.631-.364h0a.487.487,0,0,0-.168.082l-.031-.02a.532.532,0,0,0-.284-.04.526.526,0,0,0-.208-.139h-.023a.526.526,0,0,0,.108-.128.515.515,0,0,0-.179-.705h0a.512.512,0,0,0-.651.105l-.048-.014a.5.5,0,0,0-.259.02,1.352,1.352,0,0,1-.827-.615.515.515,0,0,0-.543.254h0a.389.389,0,0,0-.043.108.5.5,0,0,0-.159-.054h0a.515.515,0,0,0-.327.057.5.5,0,0,0-.247-.213h0a.515.515,0,0,0-.671.284.445.445,0,0,0-.02.065.512.512,0,0,0-.5-.136.284.284,0,0,1-.506.057q-.546.138-1.089.284a.5.5,0,0,0-.117.313.484.484,0,0,0-.128,0,.515.515,0,0,0-.41.432.5.5,0,0,0-.213.02.517.517,0,0,0-.284.242.284.284,0,0,0-.085-.04.512.512,0,0,0-.657.313h0a.52.52,0,0,0,.117.529v.014a.509.509,0,0,0-.031.25l-.037.026a.535.535,0,0,0-.137.2h-.04a.518.518,0,0,0-.569.452.436.436,0,0,0,0,.122.515.515,0,0,0-.168.7.486.486,0,0,0,.27.219.509.509,0,0,0-.026.225l-.054.034h0q-.148.567-.284,1.137a.569.569,0,0,0,.108.179.548.548,0,0,0-.131.2.515.515,0,0,0,.173.569.319.319,0,0,0-.082.054h0a.506.506,0,0,0,.452.853.5.5,0,0,0,.028.054.515.515,0,0,0-.085.367.411.411,0,0,0,.034.119.509.509,0,0,0-.134.375.515.515,0,0,0,.546.483h.06a.512.512,0,0,0,.475.338.824.824,0,0,0-.014.094h0a.52.52,0,0,0,.5.535h.06a.544.544,0,0,0-.065.142.515.515,0,0,0,.353.637h0a.523.523,0,0,0,.486-.114.99.99,0,0,1,.771.392h0a.506.506,0,0,0,.506-.085.531.531,0,0,0,.108.233h0a.515.515,0,0,0,.725.068h0a.521.521,0,0,0,.441.034.5.5,0,0,0,.063.131h0a.518.518,0,0,0,.719.128.534.534,0,0,0,.148-.162.509.509,0,0,0,.717-.247,1.911,1.911,0,0,1,1.2-.284.506.506,0,0,0,.122-.284.515.515,0,0,0,.424-.284.487.487,0,0,0,.043-.173.5.5,0,0,0,.284-.188.518.518,0,0,0,.967-.284.526.526,0,0,0-.159-.318.5.5,0,0,0,.2-.151h0a.5.5,0,0,0,.1-.225l.034.02a.512.512,0,0,0,.7-.208h0a1.044,1.044,0,0,1,.148-.933.52.52,0,0,0-.171-.367c0-.017,0-.034,0-.054a.53.53,0,0,0,.1-.108.509.509,0,0,0,.063-.449.434.434,0,0,0,.1-.02h0a6.5,6.5,0,0,1,.722-1.106ZM402.9,290.627Z" transform="translate(-401.988 -282.496)" fill="#407bff"/>
    </g>
    <g id="freepik--store-2--inject-52" transform="translate(34.939 92.195)">
      <rect id="Rectangle_5778" data-name="Rectangle 5778" width="60.751" height="50.106" transform="translate(5.622 5.747)" fill="#407bff"/>
      <path id="Path_14953" data-name="Path 14953" d="M0,0H60.751V50.106H0Z" transform="translate(5.622 5.747)" fill="#c6d8ff"/>
      <path id="Path_14265" data-name="Path 14265" d="M213.5,360.554H273.52a.867.867,0,0,1,.867.867v7.368H212.63v-7.372a.867.867,0,0,1,.867-.867Z" transform="translate(-207.509 -312.937)" fill="#407bff"/>
      <rect id="Rectangle_5780" data-name="Rectangle 5780" width="7.606" height="1.825" transform="translate(10.339 18.179)" fill="#407bff"/>
      <rect id="Rectangle_5781" data-name="Rectangle 5781" width="7.606" height="1.825" transform="translate(56.761 18.179)" fill="#407bff"/>
      <rect id="Rectangle_5782" data-name="Rectangle 5782" width="7.606" height="1.825" transform="translate(14.144 20.004)" fill="#407bff"/>
      <rect id="Rectangle_5783" data-name="Rectangle 5783" width="7.606" height="1.825" transform="translate(51.245 44.107) rotate(180)" fill="#407bff"/>
      <rect id="Rectangle_5784" data-name="Rectangle 5784" width="7.606" height="1.825" transform="translate(47.444 45.928) rotate(180)" fill="#407bff"/>
      <rect id="Rectangle_5785" data-name="Rectangle 5785" width="19.567" height="34.906" transform="translate(11.919 20.943)" fill="#fff"/>
      <rect id="Rectangle_5786" data-name="Rectangle 5786" width="27.504" height="21.976" transform="translate(34.495 20.943)" fill="#fff"/>
      <rect id="Rectangle_5787" data-name="Rectangle 5787" width="19.514" height="25.042" transform="translate(35.724 41.69) rotate(-90)" fill="#407bff" opacity="0.3"/>
      <rect id="Rectangle_5788" data-name="Rectangle 5788" width="16.829" height="30.027" transform="translate(13.288 23.386)" fill="#407bff" opacity="0.3"/>
      <rect id="Rectangle_5789" data-name="Rectangle 5789" width="17.832" height="2.602" transform="translate(12.783 37.097)" fill="#fff"/>
      <path id="Path_14266" data-name="Path 14266" d="M247.391,295.36l-7.413,30.732H238.65l7.413-30.732Z" transform="translate(-223.718 -272.328)" fill="#fff" opacity="0.4"/>
      <path id="Path_14267" data-name="Path 14267" d="M255.635,295.36l-7.413,30.732h-2.6l7.413-30.732Z" transform="translate(-228.059 -272.328)" fill="#fff" opacity="0.4"/>
      <path id="Path_14268" data-name="Path 14268" d="M317.757,293.1l-4.706,19.51H311.4l4.706-19.51Z" transform="translate(-269.035 -270.92)" fill="#fff" opacity="0.4"/>
      <path id="Path_14269" data-name="Path 14269" d="M333.228,293.1l-4.706,19.51H323.33l4.706-19.51Z" transform="translate(-276.467 -270.92)" fill="#fff" opacity="0.4"/>
      <path id="Path_14270" data-name="Path 14270" d="M207.08,242.444h-8.02l9.434-8.164h5.924Z" transform="translate(-199.056 -234.28)" fill="#407bff"/>
      <path id="Path_14271" data-name="Path 14271" d="M228.35,242.444h-8.02l7.338-8.164h5.924Z" transform="translate(-212.306 -234.28)" fill="#fff"/>
      <path id="Path_14272" data-name="Path 14272" d="M249.62,242.444H241.6l5.241-8.164h5.924Z" transform="translate(-225.555 -234.28)" fill="#407bff"/>
      <path id="Path_14273" data-name="Path 14273" d="M270.89,242.444h-8.02l3.145-8.164h5.924Z" transform="translate(-238.805 -234.28)" fill="#fff"/>
      <path id="Path_14274" data-name="Path 14274" d="M292.16,242.444h-8.02l1.048-8.164h5.924Z" transform="translate(-252.055 -234.28)" fill="#407bff"/>
      <path id="Path_14275" data-name="Path 14275" d="M311.7,242.444h-8.024l-1.048-8.164h5.924Z" transform="translate(-263.572 -234.28)" fill="#fff"/>
      <path id="Path_14276" data-name="Path 14276" d="M329.509,242.444h-8.02l-3.149-8.164h5.924Z" transform="translate(-273.358 -234.28)" fill="#407bff"/>
      <path id="Path_14277" data-name="Path 14277" d="M365.122,242.444H357.1l-7.342-8.164h5.928Z" transform="translate(-292.931 -234.28)" fill="#407bff"/>
      <path id="Path_14278" data-name="Path 14278" d="M347.316,242.444H339.3l-5.245-8.164h5.924Z" transform="translate(-283.145 -234.28)" fill="#fff"/>
      <path id="Path_14279" data-name="Path 14279" d="M203.062,263.407h0a4.012,4.012,0,0,1-4.012-4.008V255.93h8.024V259.4a4.012,4.012,0,0,1-4.012,4.008Z" transform="translate(-199.05 -247.766)" fill="#407bff"/>
      <path id="Path_14280" data-name="Path 14280" d="M224.378,263.407h0a4.008,4.008,0,0,1-4.008-4.008V255.93h8.005V259.4a4.008,4.008,0,0,1-4,4.008Z" transform="translate(-212.331 -247.766)" fill="#fff"/>
      <path id="Path_14281" data-name="Path 14281" d="M245.608,263.407h0A4.008,4.008,0,0,1,241.6,259.4V255.93h8.02V259.4A4.008,4.008,0,0,1,245.608,263.407Z" transform="translate(-225.555 -247.766)" fill="#407bff"/>
      <path id="Path_14282" data-name="Path 14282" d="M262.864,255.93h8.02V259.4a4.012,4.012,0,0,1-4.012,4.012h0a4.012,4.012,0,0,1-4.012-4.012V255.93Z" transform="translate(-238.799 -247.766)" fill="#fff"/>
      <path id="Path_14283" data-name="Path 14283" d="M288.152,263.407h0a4.008,4.008,0,0,1-4.012-4.008V255.93h8.021V259.4A4.008,4.008,0,0,1,288.152,263.407Z" transform="translate(-252.054 -247.766)" fill="#407bff"/>
      <path id="Path_14284" data-name="Path 14284" d="M305.379,255.924h8.02v3.469a4.012,4.012,0,0,1-4.027,4.008h0a4.012,4.012,0,0,1-4.012-4.012V255.92Z" transform="translate(-265.273 -247.76)" fill="#fff"/>
      <path id="Path_14285" data-name="Path 14285" d="M330.7,263.407h0a4.008,4.008,0,0,1-4.008-4.008V255.93h8.035V259.4a4.008,4.008,0,0,1-4.027,4.008Z" transform="translate(-278.56 -247.766)" fill="#407bff"/>
      <path id="Path_14286" data-name="Path 14286" d="M373.238,263.407h0a4.008,4.008,0,0,1-4.008-4.008V255.93h8.02V259.4A4.008,4.008,0,0,1,373.238,263.407Z" transform="translate(-305.059 -247.766)" fill="#407bff"/>
      <path id="Path_14287" data-name="Path 14287" d="M348,255.93h8.02V259.4a4.012,4.012,0,0,1-4.012,4.012h0A4.012,4.012,0,0,1,348,259.4Z" transform="translate(-291.834 -247.766)" fill="#fff"/>
      <circle id="Ellipse_1311" data-name="Ellipse 1311" cx="1.139" cy="1.139" r="1.139" transform="translate(28.454 35.894)" fill="#407bff"/>
    </g>
  </g>
</svg>
