<svg xmlns="http://www.w3.org/2000/svg" width="140.559" height="102.15" viewBox="0 0 140.559 102.15">
  <g id="Social_Dashboard-rafiki" data-name="Social Dashboard-rafiki" transform="translate(0.648 -45.85)">
    <g id="freepik--background-complete--inject-243" transform="translate(1.184 45.85)">
      <rect id="Rectangle_5864" data-name="Rectangle 5864" width="138.727" height="0.069" transform="translate(0 90.838)" fill="#ebebeb"/>
      <rect id="Rectangle_5865" data-name="Rectangle 5865" width="9.189" height="0.069" transform="translate(115.638 95.303)" fill="#ebebeb"/>
      <rect id="Rectangle_5866" data-name="Rectangle 5866" width="8.385" height="0.069" transform="translate(66.489 94.456)" fill="#ebebeb"/>
      <rect id="Rectangle_5867" data-name="Rectangle 5867" width="19.391" height="0.069" transform="translate(95.969 92.728)" fill="#ebebeb"/>
      <rect id="Rectangle_5868" data-name="Rectangle 5868" width="46.374" height="0.069" transform="translate(14.555 93.194)" fill="#ebebeb"/>
      <rect id="Rectangle_5869" data-name="Rectangle 5869" width="1.756" height="0.069" transform="translate(63.398 93.194)" fill="#ebebeb"/>
      <path id="Path_14573" data-name="Path 14573" d="M93.365,133.464H39.791a1.584,1.584,0,0,1-1.581-1.584V56.57A1.584,1.584,0,0,1,39.791,55H93.365a1.584,1.584,0,0,1,1.584,1.584v75.3A1.584,1.584,0,0,1,93.365,133.464ZM39.791,55.055a1.515,1.515,0,0,0-1.512,1.515V131.88a1.515,1.515,0,0,0,1.512,1.515H93.365a1.518,1.518,0,0,0,1.515-1.515V56.57a1.518,1.518,0,0,0-1.515-1.515Z" transform="translate(-27.608 -55)" fill="#ebebeb"/>
      <path id="Path_14574" data-name="Path 14574" d="M309.661,133.464H256.084a1.587,1.587,0,0,1-1.584-1.584V56.57A1.587,1.587,0,0,1,256.084,55h53.576a1.584,1.584,0,0,1,1.579,1.57V131.88A1.584,1.584,0,0,1,309.661,133.464ZM256.084,55.055a1.518,1.518,0,0,0-1.515,1.515V131.88a1.518,1.518,0,0,0,1.515,1.515h53.576a1.518,1.518,0,0,0,1.515-1.515V56.57a1.518,1.518,0,0,0-1.515-1.515Z" transform="translate(-183.888 -55)" fill="#ebebeb"/>
      <rect id="Rectangle_5870" data-name="Rectangle 5870" width="64.159" height="41.249" transform="translate(112.094 46.127) rotate(180)" fill="#f0f0f0"/>
      <rect id="Rectangle_5871" data-name="Rectangle 5871" width="0.577" height="41.249" transform="translate(47.362 4.878)" fill="#e6e6e6"/>
      <rect id="Rectangle_5872" data-name="Rectangle 5872" width="37.92" height="60.829" transform="translate(110.43 6.542) rotate(90)" fill="#fafafa"/>
      <rect id="Rectangle_5873" data-name="Rectangle 5873" width="8.06" height="35.556" transform="translate(67.924 55.283)" fill="#e6e6e6"/>
      <path id="Path_14575" data-name="Path 14575" d="M257.643,369.618H260.2V364.71H254.96Z" transform="translate(-184.22 -278.78)" fill="#fafafa"/>
      <rect id="Rectangle_5874" data-name="Rectangle 5874" width="8.06" height="35.556" transform="translate(14.031 55.283)" fill="#e6e6e6"/>
      <rect id="Rectangle_5875" data-name="Rectangle 5875" width="56.124" height="33.866" transform="translate(19.86 55.283)" fill="#fafafa"/>
      <path id="Path_14576" data-name="Path 14576" d="M74.138,369.618H71.58V364.71h5.241Z" transform="translate(-51.72 -278.78)" fill="#fafafa"/>
      <rect id="Rectangle_5876" data-name="Rectangle 5876" width="52.153" height="8.476" transform="translate(21.844 67.904)" fill="#f0f0f0"/>
      <rect id="Rectangle_5877" data-name="Rectangle 5877" width="52.153" height="8.476" transform="translate(21.844 78.189)" fill="#f0f0f0"/>
      <path id="Path_14577" data-name="Path 14577" d="M92.55,297.09h44.484v.53a1.11,1.11,0,0,1-1.11,1.11H93.663a1.11,1.11,0,0,1-1.11-1.11v-.53Z" transform="translate(-66.872 -229.921)" fill="#fafafa"/>
      <rect id="Rectangle_5878" data-name="Rectangle 5878" width="52.153" height="8.476" transform="translate(21.844 57.616)" fill="#f0f0f0"/>
      <path id="Path_14578" data-name="Path 14578" d="M92.55,260h44.484v.53a1.11,1.11,0,0,1-1.11,1.11H93.663a1.11,1.11,0,0,1-1.11-1.11V260Z" transform="translate(-66.872 -203.122)" fill="#fafafa"/>
      <path id="Path_14579" data-name="Path 14579" d="M92.55,334.16h44.484v.53a1.11,1.11,0,0,1-1.11,1.11H93.663a1.11,1.11,0,0,1-1.11-1.11v-.53Z" transform="translate(-66.872 -256.706)" fill="#fafafa"/>
      <path id="Path_14580" data-name="Path 14580" d="M394.151,200.818c2.258-3.621,9.239-13.506,20.865-18.7.164-.072.031-.252-.147-.2a16.9,16.9,0,0,0-1.729.658c-.144.064-.311-.058-.214-.158a27.382,27.382,0,0,1,2.891-2.53c.128-.1-.055-.244-.211-.166a15.623,15.623,0,0,0-3.1,2.014c-.125.105-.358,0-.258-.128.3-.361.641-.744,1.016-1.138.105-.108-.105-.233-.241-.141a12.06,12.06,0,0,0-4.1,4.539h-.017a23.885,23.885,0,0,1,2.963-5.05c.086-.114-.133-.225-.255-.128a15.508,15.508,0,0,0-2.264,2.125c-.1.117-.358.022-.277-.105s.2-.316.308-.474-.144-.216-.277-.122a16.2,16.2,0,0,0-2.75,2.841c-.094.122-.352.042-.277-.089a34.473,34.473,0,0,1,1.967-3.465c.078-.117-.147-.219-.264-.119a17.865,17.865,0,0,0-5.638,9.639h0a37.678,37.678,0,0,1,2.761-8.668c.058-.122-.18-.205-.277-.1a16.155,16.155,0,0,0-2.744,3.909c-.064.13-.344.075-.3-.061.186-.588.4-1.187.635-1.787.05-.125-.189-.2-.277-.092a18.786,18.786,0,0,0-3.41,5.827c-.05.136-.344.089-.305-.05a19.35,19.35,0,0,1,.877-2.575c.05-.119-.175-.2-.277-.1a10.338,10.338,0,0,0-2.517,3.834c-.053.133-.333.094-.311-.044.122-.688.277-1.387.477-2.117.033-.122-.2-.186-.291-.078a10.61,10.61,0,0,0-2.275,4.961c-.025.139-.314.125-.314-.014a20.9,20.9,0,0,1,.236-3.085c.019-.125-.222-.175-.3-.061-3.038,4.334-1.015,10.543-.977,10.651h0l.194.469A.878.878,0,0,0,394.151,200.818Z" transform="translate(-283.139 -145.07)" fill="#f5f5f5"/>
      <path id="Path_14581" data-name="Path 14581" d="M341.16,223.989c-1.734-2.22-6.967-8.218-14.655-10.4-.108-.033-.042-.172.075-.155a9.512,9.512,0,0,1,1.132.244c.094.028.186-.078.117-.133a16.241,16.241,0,0,0-2.023-1.387c-.089-.053,0-.175.114-.139a8.978,8.978,0,0,1,2.106,1.015c.089.058.222-.05.15-.119-.222-.214-.466-.436-.735-.663-.075-.061.044-.175.139-.128a7.53,7.53,0,0,1,2.955,2.644h0a15.785,15.785,0,0,0-2.295-3.141c-.064-.069.061-.172.147-.122A9.435,9.435,0,0,1,330,212.7c.075.069.225-.028.164-.105s-.153-.194-.233-.291.069-.169.153-.117a10.121,10.121,0,0,1,1.967,1.631c.067.072.222-.014.169-.1a23.245,23.245,0,0,0-1.537-2.156c-.058-.072.069-.169.153-.117a11.969,11.969,0,0,1,4.378,5.982h0a26.986,26.986,0,0,0-2.5-5.66c-.044-.078.094-.164.166-.1a10.413,10.413,0,0,1,2.042,2.369c.053.083.219,0,.18-.078-.169-.383-.352-.771-.555-1.16-.042-.078.1-.158.169-.094a12.454,12.454,0,0,1,2.644,3.607c.047.089.225.022.189-.072a14.237,14.237,0,0,0-.78-1.665c-.042-.075.089-.158.164-.1a6.75,6.75,0,0,1,1.912,2.345c.044.086.216.025.189-.067-.139-.461-.3-.935-.488-1.407-.033-.08.105-.153.172-.089a7.258,7.258,0,0,1,1.864,3.155c.03.092.208.047.194-.05a16.16,16.16,0,0,0-.427-2.1c-.022-.083.122-.147.18-.08,2.281,2.63,1.59,7.161,1.576,7.247h0l-.075.347a.533.533,0,0,1-.868.211Z" transform="translate(-235.383 -168.032)" fill="#fafafa"/>
      <path id="Path_14582" data-name="Path 14582" d="M332.3,198.155c-1.914-2.952-7.81-11-17.438-15.163-.136-.058-.031-.205.117-.161a13.575,13.575,0,0,1,1.429.522c.122.053.255-.05.172-.13a22.669,22.669,0,0,0-2.414-2.05c-.105-.08.042-.2.169-.139a12.918,12.918,0,0,1,2.578,1.626c.1.086.277,0,.208-.105-.255-.294-.538-.6-.852-.924-.089-.092.08-.194.194-.119A10.03,10.03,0,0,1,319.9,185.2h.014a19.808,19.808,0,0,0-2.5-4.129c-.072-.092.1-.183.208-.105a13.1,13.1,0,0,1,1.892,1.723c.086.094.294.017.228-.089s-.169-.255-.261-.386.114-.18.214-.1A13.4,13.4,0,0,1,322,184.415c.078.1.277.031.236-.075a29.908,29.908,0,0,0-1.665-2.824c-.067-.1.114-.18.214-.1a14.814,14.814,0,0,1,4.789,7.857h0a31.128,31.128,0,0,0-2.414-7.086c-.047-.1.144-.169.23-.083a13.384,13.384,0,0,1,2.295,3.18c.055.108.277.061.247-.053-.164-.48-.347-.968-.555-1.459-.042-.1.153-.164.233-.075a15.58,15.58,0,0,1,2.9,4.747c.044.114.277.072.252-.042a16.473,16.473,0,0,0-.766-2.1c-.042-.1.139-.166.228-.083a8.6,8.6,0,0,1,2.134,3.121c.042.108.277.075.253-.036-.114-.555-.253-1.146-.427-1.734-.03-.1.161-.153.236-.067a8.787,8.787,0,0,1,1.942,4.051c.022.114.261.1.258,0a17.3,17.3,0,0,0-.247-2.53c-.019-.1.178-.144.244-.053,2.566,3.532,1.016,8.634.985,8.729h0l-.15.386A.721.721,0,0,1,332.3,198.155Z" transform="translate(-226.973 -145.994)" fill="#e6e6e6"/>
      <path id="Path_14583" data-name="Path 14583" d="M407.8,224.1a31.817,31.817,0,0,1,13.193-6.515c.089-.017.064-.111-.031-.1a8.15,8.15,0,0,0-.916.13c-.08.014-.133-.058-.067-.092a17.243,17.243,0,0,1,1.815-.877c.078-.033.022-.117-.064-.1a9.774,9.774,0,0,0-1.809.619c-.078.036-.161-.039-.094-.083.211-.133.438-.277.688-.419.069-.042,0-.117-.083-.089a7.716,7.716,0,0,0-2.758,1.665h0a15.519,15.519,0,0,1,2.339-2.025c.061-.044-.017-.114-.092-.083a9.887,9.887,0,0,0-1.448.752c-.072.044-.169-.025-.108-.075s.153-.125.233-.189-.022-.111-.1-.08a10.469,10.469,0,0,0-1.812,1.032c-.067.044-.169-.017-.114-.069a20.65,20.65,0,0,1,1.576-1.387c.058-.047-.025-.114-.1-.08a11.414,11.414,0,0,0-4.473,3.868h0a23.332,23.332,0,0,1,2.958-3.69c.05-.053-.042-.111-.108-.072a10.48,10.48,0,0,0-2.006,1.52c-.055.053-.172,0-.125-.058.2-.25.411-.5.638-.755.047-.053-.047-.108-.114-.069a12.121,12.121,0,0,0-2.7,2.331c-.05.058-.175,0-.13-.053a12.677,12.677,0,0,1,.9-1.09c.047-.05-.042-.108-.108-.072a6.659,6.659,0,0,0-1.9,1.507c-.05.055-.172,0-.133-.05.191-.3.4-.61.633-.921.039-.053-.056-.1-.119-.064a6.684,6.684,0,0,0-2.009,2.048c-.039.058-.169.025-.141-.039a12.179,12.179,0,0,1,.71-1.387c.033-.055-.067-.1-.122-.055a7.35,7.35,0,0,0-2.53,4.772h0v.233C407.168,224.172,407.582,224.28,407.8,224.1Z" transform="translate(-294.205 -171.35)" fill="#e6e6e6"/>
      <path id="Path_14584" data-name="Path 14584" d="M383.724,193.266c-.388-3.377-.832-12.832,4.93-20.082.08-.1-.122-.2-.225-.105a8.878,8.878,0,0,0-.924.988c-.072.092-.277.047-.253-.055a14.906,14.906,0,0,1,.719-2.738c.039-.111-.18-.166-.253-.064a8.092,8.092,0,0,0-1.174,2.406c-.033.117-.277.1-.277-.022.019-.358.055-.744.111-1.146.017-.114-.216-.147-.264-.039a7.264,7.264,0,0,0-.466,4.6h0a17.143,17.143,0,0,1-.7-4.664c0-.111-.228-.13-.277-.022a8.6,8.6,0,0,0-.477,2.25c0,.119-.258.119-.277,0s-.031-.3-.044-.447-.233-.122-.277,0a9.267,9.267,0,0,0-.427,2.933c0,.117-.244.13-.277.014a25.075,25.075,0,0,1-.5-3.182c0-.111-.236-.122-.277-.014-1.085,3.682.666,7.613,1.315,8.879h0a33.608,33.608,0,0,1-2.924-7.325c-.028-.111-.253-.1-.277,0a10.56,10.56,0,0,0,.208,3.721c.025.119-.216.155-.277.042q-.3-.745-.555-1.529c-.036-.108-.258-.1-.277,0a13.379,13.379,0,0,0,.794,5.369c.042.119-.208.166-.261.05a17.449,17.449,0,0,1-.832-2.189c-.03-.105-.244-.1-.277,0a7,7,0,0,0,.316,3.607c.039.117-.2.169-.258.058-.305-.555-.6-1.135-.863-1.734-.047-.1-.258-.08-.277.025a8.364,8.364,0,0,0,1.151,4.395c.058.111-.166.183-.247.078a23.219,23.219,0,0,1-1.6-2.394c-.058-.1-.277-.067-.261.042.214,4.14,5.316,8.229,5.413,8.307h0l.416.3C383.036,193.918,383.758,193.685,383.724,193.266Z" transform="translate(-272.188 -138.927)" fill="#e0e0e0"/>
      <path id="Path_14585" data-name="Path 14585" d="M374.073,235.43a2.589,2.589,0,0,1,2.586,2.7c-.344,7.558-2.056,10.171-10.479,10.171s-10.135-2.614-10.477-10.171a2.586,2.586,0,0,1,2.586-2.7Z" transform="translate(-257.01 -185.369)" fill="#ebebeb"/>
      <path id="Path_14586" data-name="Path 14586" d="M54.236,204.222c-1.038-2.233-4.242-8.337-9.581-11.542a.069.069,0,0,1,.069-.119,5.982,5.982,0,0,1,.794.405.072.072,0,0,0,.1-.1,14.86,14.86,0,0,0-1.326-1.562c-.058-.058.025-.15.094-.1a7.336,7.336,0,0,1,1.423,1.246.072.072,0,0,0,.119-.08c-.139-.222-.294-.458-.466-.7-.05-.067.047-.144.111-.086a7.247,7.247,0,0,1,1.878,2.8h0a16.767,16.767,0,0,0-1.354-3.124c-.042-.069.058-.139.117-.078a8.6,8.6,0,0,1,1.035,1.321c.047.075.166.014.13-.064l-.13-.3c-.036-.069.064-.133.119-.072a9.339,9.339,0,0,1,1.268,1.751c.042.075.161.028.13-.053-.247-.669-.555-1.387-.9-2.139a.072.072,0,0,1,.119-.075A12.445,12.445,0,0,1,50.57,197.5h0A29.45,29.45,0,0,0,49.3,192.15a.072.072,0,0,1,.128-.061,10.488,10.488,0,0,1,1.246,2.411c.031.08.161.047.141-.036-.086-.363-.183-.732-.291-1.11-.025-.075.086-.122.13-.055a13,13,0,0,1,1.565,3.607c.025.083.158.056.142-.031a15.9,15.9,0,0,0-.4-1.6c-.025-.072.078-.122.128-.058a6.856,6.856,0,0,1,1.154,2.364.075.075,0,0,0,.144-.025c-.058-.424-.128-.863-.219-1.307a.072.072,0,0,1,.133-.05,7.769,7.769,0,0,1,1.043,3.052.072.072,0,0,0,.144,0,16.763,16.763,0,0,0-.105-1.906.072.072,0,0,1,.136-.036c1.387,2.675.466,6.5.449,6.573h0l-.086.277a.35.35,0,0,1-.649.064Z" transform="translate(-31.986 -153.379)" fill="#f5f5f5"/>
      <path id="Path_14587" data-name="Path 14587" d="M88.14,215.5c.621-1.529,2.553-5.693,5.879-7.769a.05.05,0,0,0-.044-.086,3.417,3.417,0,0,0-.5.258c-.042.028-.092-.028-.064-.069a9.3,9.3,0,0,1,.816-1.052c.036-.042-.017-.105-.061-.075a4.4,4.4,0,0,0-.882.832c-.033.044-.1,0-.075-.058.083-.15.178-.311.277-.474.031-.047-.033-.1-.069-.064a4.655,4.655,0,0,0-1.146,1.9h0a11.375,11.375,0,0,1,.81-2.139c.022-.047-.042-.1-.078-.058a5.422,5.422,0,0,0-.635.885c-.028.05-.1,0-.083-.047l.086-.2c.019-.047-.044-.094-.078-.053a5.96,5.96,0,0,0-.771,1.185c-.025.053-.1.014-.086-.042.147-.458.325-.957.538-1.465.022-.05-.044-.1-.078-.055a8.558,8.558,0,0,0-1.543,4.076h0a21.264,21.264,0,0,1,.721-3.7c.014-.053-.055-.089-.083-.044a7.028,7.028,0,0,0-.752,1.645c-.017.055-.1.028-.089-.031.05-.25.105-.5.169-.76,0-.053-.058-.089-.086-.042a8.9,8.9,0,0,0-.932,2.461c-.014.061-.1.036-.092-.025.058-.352.133-.721.23-1.11,0-.05-.053-.086-.08-.044a4.664,4.664,0,0,0-.7,1.615c0,.055-.094.036-.089-.022.028-.294.067-.6.119-.907,0-.05-.061-.08-.086-.036a5.452,5.452,0,0,0-.613,2.106.047.047,0,0,1-.092,0,12.648,12.648,0,0,1,.039-1.326c0-.053-.067-.078-.086-.03a8.423,8.423,0,0,0-.186,4.57h0l.058.205a.216.216,0,0,0,.413.044Z" transform="translate(-63.17 -164.56)" fill="#f5f5f5"/>
      <path id="Path_14588" data-name="Path 14588" d="M87.486,202.64c.88-1.823,3.585-6.792,8-9.359a.056.056,0,1,0-.053-.1,5.254,5.254,0,0,0-.655.322.058.058,0,0,1-.08-.08,11.957,11.957,0,0,1,1.11-1.265.058.058,0,0,0-.078-.086,6.037,6.037,0,0,0-1.185,1,.058.058,0,0,1-.094-.067,6.332,6.332,0,0,1,.391-.555.061.061,0,0,0-.092-.075,5.96,5.96,0,0,0-1.576,2.278h0a13.874,13.874,0,0,1,1.151-2.547c.036-.058-.047-.114-.094-.067a7.165,7.165,0,0,0-.868,1.063c-.039.061-.136,0-.105-.053s.078-.161.119-.239a.058.058,0,0,0-.1-.064,7.664,7.664,0,0,0-1.06,1.423.059.059,0,1,1-.108-.047,18.667,18.667,0,0,1,.769-1.742.058.058,0,0,0-.1-.064,10.231,10.231,0,0,0-2.2,4.853h0A24.068,24.068,0,0,1,91.7,192.8a.061.061,0,0,0-.105-.053,8.748,8.748,0,0,0-1.052,1.964.059.059,0,1,1-.114-.033c.075-.3.158-.6.252-.9a.058.058,0,0,0-.105-.047,10.679,10.679,0,0,0-1.332,2.933.059.059,0,0,1-.114-.028,12.291,12.291,0,0,1,.35-1.3.058.058,0,0,0-.105-.05,5.646,5.646,0,0,0-.977,1.926.059.059,0,1,1-.117-.022c.05-.347.117-.708.2-1.068a.061.061,0,0,0-.111-.042,6.381,6.381,0,0,0-.9,2.5.058.058,0,0,1-.117,0,13.97,13.97,0,0,1,.111-1.562.058.058,0,0,0-.111-.033c-1.179,2.181-.466,5.33-.452,5.388h0l.069.239a.277.277,0,0,0,.516.031Z" transform="translate(-62.626 -154.008)" fill="#e6e6e6"/>
      <path id="Path_14589" data-name="Path 14589" d="M59.122,218.622a13.789,13.789,0,0,0-6.057-4.023c-.042,0-.028-.067,0-.064a3.518,3.518,0,0,1,.422.083.033.033,0,0,0,.031-.058,7.131,7.131,0,0,0-.832-.541.033.033,0,0,1,.031-.058,3.731,3.731,0,0,1,.832.38c.036.022.075-.022.044-.05-.1-.083-.2-.172-.316-.261-.033-.025,0-.072.039-.053a3.579,3.579,0,0,1,1.265,1.035h0a8.415,8.415,0,0,0-1.074-1.249.034.034,0,1,1,.042-.053,4.521,4.521,0,0,1,.666.463c.031.028.078-.014.05-.044l-.108-.117c-.028-.028,0-.069.044-.05a4.717,4.717,0,0,1,.832.635c.031.028.078,0,.053-.042a11.158,11.158,0,0,0-.724-.86c-.028-.028,0-.069.044-.05a6.17,6.17,0,0,1,2.048,2.381h0a14.6,14.6,0,0,0-1.36-2.278.033.033,0,1,1,.05-.044,5.249,5.249,0,0,1,.949.938c.025.033.08,0,.058-.033-.092-.155-.189-.311-.294-.466a.036.036,0,0,1,.053-.044,6.465,6.465,0,0,1,1.237,1.44c.025.033.08,0,.061-.033-.122-.219-.258-.447-.416-.674-.022-.031.019-.067.05-.044a3.5,3.5,0,0,1,.874.929.033.033,0,0,0,.042-.033c-.089-.186-.186-.377-.277-.555-.019-.031.025-.064.053-.039a3.807,3.807,0,0,1,.924,1.262c.019.039.078.017.064-.022a8.353,8.353,0,0,0-.325-.855.033.033,0,0,1,.055-.036,5.288,5.288,0,0,1,1.163,2.944h0v.144a.166.166,0,0,1-.291.094Z" transform="translate(-38.058 -169.626)" fill="#e6e6e6"/>
      <path id="Path_14590" data-name="Path 14590" d="M73.43,199.578c.178-2.086.383-7.921-2.264-12.4-.039-.064.055-.122.1-.064a5.079,5.079,0,0,1,.424.61.061.061,0,0,0,.114-.036A11.885,11.885,0,0,0,71.48,186c-.019-.067.083-.1.117-.039a5.952,5.952,0,0,1,.538,1.484.061.061,0,1,0,.122-.014,5.365,5.365,0,0,0-.05-.708.064.064,0,0,1,.122-.025,5.949,5.949,0,0,1,.214,2.838h0a13.9,13.9,0,0,0,.319-2.877.061.061,0,1,1,.122,0,7.034,7.034,0,0,1,.219,1.387.064.064,0,0,0,.125,0c0-.092.014-.183.019-.277a.064.064,0,0,1,.125,0,7.583,7.583,0,0,1,.2,1.809.064.064,0,0,0,.125,0c.1-.6.189-1.265.236-1.962a.064.064,0,0,1,.125,0,10.465,10.465,0,0,1-.6,5.482h0a25,25,0,0,0,1.343-4.52.061.061,0,0,1,.122,0,8.785,8.785,0,0,1-.094,2.3c0,.072.1.094.119.025.092-.308.178-.621.255-.943a.061.061,0,0,1,.122,0,10.853,10.853,0,0,1-.363,3.313c-.019.075.094.1.119.033a13.679,13.679,0,0,0,.38-1.348.064.064,0,0,1,.122,0,5.7,5.7,0,0,1-.144,2.22.062.062,0,1,0,.119.033c.139-.341.277-.7.4-1.068a.064.064,0,0,1,.122.014,6.59,6.59,0,0,1-.53,2.714c-.028.067.078.114.114.047a14.93,14.93,0,0,0,.735-1.476.061.061,0,0,1,.119.025c-.1,2.555-2.439,5.08-2.5,5.127h0l-.189.183a.294.294,0,0,1-.491-.2Z" transform="translate(-51.414 -149.603)" fill="#e0e0e0"/>
      <path id="Path_14591" data-name="Path 14591" d="M61.961,225.6a1.6,1.6,0,0,0-1.6,1.665c.211,4.664,1.268,6.276,6.467,6.276s6.254-1.612,6.465-6.276a1.6,1.6,0,0,0-1.6-1.665Z" transform="translate(-43.616 -178.266)" fill="#ebebeb"/>
      <rect id="Rectangle_5879" data-name="Rectangle 5879" width="34.196" height="1.415" transform="translate(123.531 64.347) rotate(180)" fill="#f5f5f5"/>
      <rect id="Rectangle_5880" data-name="Rectangle 5880" width="7.164" height="1.415" transform="translate(82.174 62.935)" fill="#e0e0e0"/>
      <path id="Path_14592" data-name="Path 14592" d="M309.08,286.93h.3l3.465,26.488h-.3Z" transform="translate(-223.324 -222.58)" fill="#e0e0e0"/>
      <path id="Path_14593" data-name="Path 14593" d="M299.275,286.93h-.3l-3.465,26.488h.3Z" transform="translate(-213.519 -222.58)" fill="#e0e0e0"/>
      <path id="Path_14594" data-name="Path 14594" d="M432.33,286.93h.3l3.463,26.488h-.3Z" transform="translate(-312.378 -222.58)" fill="#e0e0e0"/>
      <path id="Path_14595" data-name="Path 14595" d="M422.525,286.93h-.3l-3.465,26.488h.3Z" transform="translate(-302.573 -222.58)" fill="#e0e0e0"/>
    </g>
    <g id="freepik--Shadow--inject-243" transform="translate(14.006 142.349)">
      <ellipse id="freepik--path--inject-243" cx="48.4" cy="2.826" rx="48.4" ry="2.826" transform="translate(0 0)" fill="#f5f5f5"/>
    </g>
    <g id="freepik--Character--inject-243" transform="translate(93.418 64.003)">
      <path id="Path_14596" data-name="Path 14596" d="M384.973,140.814c-.694-.927-2.883-1.734-4.012-.369-1.507,1.823.316,2.514-.4,4.181a3.25,3.25,0,0,0-.069,3.218c.391.788-.23.88-.277,2.22s1.318,1.665,2.406,1.434c-.6-.627.486-.7,1.479-1.573S387.053,142.639,384.973,140.814Z" transform="translate(-366.877 -134.365)" fill="#263238"/>
      <path id="Path_14597" data-name="Path 14597" d="M378.463,411.988a11.057,11.057,0,0,0-2.4.519,10.4,10.4,0,0,1-2.522.6c-.954.125-.913,1.021.763,1.021s2.755-.175,3.438-.175,1.11.022,1.165-.438S379.043,411.9,378.463,411.988Z" transform="translate(-361.683 -331.09)" fill="#263238"/>
      <path id="Path_14598" data-name="Path 14598" d="M379.14,238.23s.785,17.266.935,24.258c.158,7.275,1.268,24.261,1.268,24.261h1.834s1.889-14.117,1.021-24.261c1.312-7.788,2.2-24.258,2.2-24.258Z" transform="translate(-366.18 -205.545)" fill="#ffc3bd"/>
      <path id="Path_14599" data-name="Path 14599" d="M380.565,412.5c-.966.488-2.05.674-2.475.893s4.309-.291,4.309-.727Z" transform="translate(-365.402 -331.463)" fill="#ffc3bd"/>
      <path id="Path_14600" data-name="Path 14600" d="M427.435,408.427c-.5.333-.741.191-1.187.7a4.127,4.127,0,0,1-1.729,1.534c-.666.208-.7.88.5.852a6.4,6.4,0,0,0,3.01-1.232c.394-.289.591-.436.394-.855S427.785,408.2,427.435,408.427Z" transform="translate(-398.635 -328.492)" fill="#263238"/>
      <path id="Path_14601" data-name="Path 14601" d="M430.759,409.947c0,.205-.752.977-.277.893.852-.153,1.923-1.11,1.762-1.49Z" transform="translate(-403.163 -329.187)" fill="#ffc3bd"/>
      <path id="Path_14602" data-name="Path 14602" d="M387.91,238.23s4.373,18.082,6.159,24.843c1.878,7.1,5.827,22.782,6.057,23.262l1.459-.627s-1-17.5-3.513-23.806c0-7.9-3.285-23.672-3.285-23.672Z" transform="translate(-372.517 -205.545)" fill="#ffc3bd"/>
      <path id="Path_14603" data-name="Path 14603" d="M354.169,196.118c-.083.81-.211,1.57-.347,2.35s-.314,1.543-.5,2.311a21,21,0,0,1-1.643,4.545l-.017.033a1.013,1.013,0,0,1-.277.341,2.167,2.167,0,0,1-.866.372,2.552,2.552,0,0,1-.774.028,4.464,4.464,0,0,1-1.2-.322,9.829,9.829,0,0,1-1.845-1.046c-.555-.4-1.077-.816-1.579-1.249a17.753,17.753,0,0,1-1.434-1.387.583.583,0,0,1,.76-.877h0c.51.355,1.038.719,1.568,1.052s1.063.666,1.6.949a9.275,9.275,0,0,0,1.6.7,2.306,2.306,0,0,0,.677.125.635.635,0,0,0,.186-.022c.031,0,.022-.022,0-.017l-.305.372a18.21,18.21,0,0,0,.732-2.014c.208-.7.386-1.412.555-2.134s.3-1.457.43-2.189.244-1.484.341-2.195v-.019a1.174,1.174,0,0,1,2.328.277Z" transform="translate(-340.446 -174.201)" fill="#ffc3bd"/>
      <path id="Path_14604" data-name="Path 14604" d="M371.873,187.766c-2.65,1.11-2.206,4.9-2.206,4.9a18.964,18.964,0,0,0,4.126,2.081C375.041,192.7,374.883,186.509,371.873,187.766Z" transform="translate(-359.315 -168.962)" fill="#263238"/>
      <path id="Path_14605" data-name="Path 14605" d="M340.4,218.122l-2.314.108,1.421-1.851s1.454.222,1.773,1.11Z" transform="translate(-336.519 -189.757)" fill="#ffc3bd"/>
      <path id="Path_14606" data-name="Path 14606" d="M332.43,215.164l1.271-1.484,1.717.749L334,216.28Z" transform="translate(-332.43 -187.806)" fill="#ffc3bd"/>
      <path id="Path_14607" data-name="Path 14607" d="M374.151,189.217c-.094,1.665.067,5.3,1.235,12.485h9.736a45.576,45.576,0,0,1,1.323-12.646,2.367,2.367,0,0,0-2.014-2.847c-.621-.078-1.285-.144-1.9-.175a29.83,29.83,0,0,0-4.228,0c-.913.083-1.487.175-2.22.291C374.7,186.542,374.22,187.974,374.151,189.217Z" transform="translate(-362.559 -167.777)" fill="#407bff"/>
      <path id="Path_14608" data-name="Path 14608" d="M387.694,186.23h4.228a50.6,50.6,0,0,1-4.273,3.352A2.869,2.869,0,0,1,387.694,186.23Z" transform="translate(-371.954 -167.973)" fill="#fff"/>
      <path id="Path_14609" data-name="Path 14609" d="M391.561,169.07c-.277,1.36-.533,3.854.419,4.761a10.048,10.048,0,0,1-4.145,2.594c-1.354-.832-.083-2.594-.083-2.594,1.515-.363,1.476-1.487,1.212-2.544Z" transform="translate(-372.011 -155.574)" fill="#ffc3bd"/>
      <path id="Path_14610" data-name="Path 14610" d="M395.074,172.33l-1.534,1.31a4.8,4.8,0,0,1,.13.752,1.883,1.883,0,0,0,1.437-1.329,2,2,0,0,0-.033-.732Z" transform="translate(-376.585 -157.929)" opacity="0.2"/>
      <path id="Path_14611" data-name="Path 14611" d="M390.35,150c-.533,2.22-.713,3.16-2.045,4.109a2.911,2.911,0,0,1-4.745-2.042c-.125-2.095.769-5.36,3.116-5.863a3.1,3.1,0,0,1,3.674,3.8Z" transform="translate(-369.366 -138.999)" fill="#ffc3bd"/>
      <path id="Path_14612" data-name="Path 14612" d="M404.758,161.809a1.692,1.692,0,0,1-.9.9c-.541.216-.877-.252-.78-.8.089-.488.474-1.193,1.043-1.179a.749.749,0,0,1,.638,1.079Z" transform="translate(-383.463 -149.547)" fill="#ffc3bd"/>
      <path id="Path_14613" data-name="Path 14613" d="M404.265,123.358c-.022-1.34-1.6-1.276-1.6-1.276s.533-.458-.979-1.337-2.9.233-2.184,1.135c-1.479-.164-1.368,1.848-.305,2.012,0,0-.877,1.224.832,2.1l1.942,1.185c2.428-.341,1.712-2.086,1.712-2.086S404.29,124.7,404.265,123.358Z" transform="translate(-380.096 -120.425)" fill="#263238"/>
      <path id="Path_14614" data-name="Path 14614" d="M400.171,137.391c-.405-.66.785-1.04,2.161-.522s2.125,2.5.855,2.614A15.055,15.055,0,0,1,400.171,137.391Z" transform="translate(-381.318 -132.132)" fill="#407bff"/>
      <path id="Path_14615" data-name="Path 14615" d="M390.2,138.481c-2.6.9.671,3.171,2.708,3.468-1.387,1.06,0,2.361-.769,3.3s-.375,2.647,1.665,1.906,3.329-3.7,2.6-4.855-.036-1.568-.91-3.352C394.551,137.024,387.506,135.59,390.2,138.481Z" transform="translate(-373.475 -132.287)" fill="#263238"/>
      <path id="Path_14616" data-name="Path 14616" d="M392.843,159.221c-.031.183-.153.314-.277.291s-.191-.186-.158-.369.155-.311.277-.277S392.863,159.038,392.843,159.221Z" transform="translate(-375.76 -148.197)" fill="#263238"/>
      <path id="Path_14617" data-name="Path 14617" d="M385.373,157.909c-.03.18-.153.311-.277.291s-.191-.186-.158-.369.155-.314.277-.277S385.407,157.726,385.373,157.909Z" transform="translate(-370.363 -147.249)" fill="#263238"/>
      <path id="Path_14618" data-name="Path 14618" d="M385.066,157.063l-.416-.2S384.816,157.24,385.066,157.063Z" transform="translate(-370.161 -146.751)" fill="#263238"/>
      <path id="Path_14619" data-name="Path 14619" d="M386.067,160.32a4.979,4.979,0,0,1-.857,1.049.8.8,0,0,0,.63.236Z" transform="translate(-370.566 -149.251)" fill="#ed847e"/>
      <path id="Path_14620" data-name="Path 14620" d="M390.473,166.684a1.768,1.768,0,0,1-.311-.028.053.053,0,0,1-.044-.061.055.055,0,0,1,.064-.044,1.473,1.473,0,0,0,1.276-.355.053.053,0,0,1,.078.072A1.507,1.507,0,0,1,390.473,166.684Z" transform="translate(-374.112 -153.485)" fill="#263238"/>
      <path id="Path_14621" data-name="Path 14621" d="M394.914,155.58a.108.108,0,0,1-.061-.047.866.866,0,0,0-.7-.347.108.108,0,0,1-.119-.1.111.111,0,0,1,.1-.119,1.088,1.088,0,0,1,.893.43.108.108,0,0,1-.017.153A.111.111,0,0,1,394.914,155.58Z" transform="translate(-376.938 -145.385)" fill="#263238"/>
      <path id="Path_14622" data-name="Path 14622" d="M384.977,153.906a.108.108,0,0,1,0-.2,1.079,1.079,0,0,1,.99,0,.109.109,0,1,1-.111.189.855.855,0,0,0-.785,0A.1.1,0,0,1,384.977,153.906Z" transform="translate(-370.349 -144.386)" fill="#263238"/>
      <path id="Path_14623" data-name="Path 14623" d="M392.486,158.373l-.416-.2S392.237,158.55,392.486,158.373Z" transform="translate(-375.522 -147.698)" fill="#263238"/>
      <path id="Path_14624" data-name="Path 14624" d="M378.66,242.7l.4,24.269,12.893-2.314c.5-12.691-1.687-19.266-3.557-21.955Z" transform="translate(-365.833 -208.775)" fill="#263238"/>
      <path id="Path_14625" data-name="Path 14625" d="M393.47,272.36l1.537-5.005-1.332-3.784Z" transform="translate(-376.534 -223.854)" opacity="0.2"/>
      <path id="Path_14626" data-name="Path 14626" d="M412.08,192.205c.277.591.51,1.16.744,1.748s.455,1.171.658,1.767a29.572,29.572,0,0,1,1.046,3.673c.058.325.133.635.172.968l.069.491.042.508.019.255a2.2,2.2,0,0,1-.3,1.215,3.455,3.455,0,0,1-.857.952,7.231,7.231,0,0,1-1.828.985,11.049,11.049,0,0,1-1.884.533.585.585,0,0,1-.383-1.093h.028c.51-.277,1.04-.555,1.523-.874a6.769,6.769,0,0,0,1.273-.988,1.368,1.368,0,0,0,.319-.455.153.153,0,0,0,0-.1v-.014l-.028-.205a15.066,15.066,0,0,0-.33-1.665c-.294-1.126-.669-2.261-1.082-3.385s-.868-2.253-1.332-3.329h0a1.174,1.174,0,0,1,2.139-.96Z" transform="translate(-387.944 -171.845)" fill="#ffc3bd"/>
      <path id="Path_14627" data-name="Path 14627" d="M407.4,186.936c2.813.394,3.607,4.062,3.607,4.062a16.413,16.413,0,0,1-3.052,3.16C406.091,192.463,404.21,186.481,407.4,186.936Z" transform="translate(-385.357 -168.465)" fill="#263238"/>
      <path id="Path_14628" data-name="Path 14628" d="M404.932,236.72l-2.472.164,1.618,1.679s1.423-.383,1.64-1.31Z" transform="translate(-383.03 -204.454)" fill="#ffc3bd"/>
      <path id="Path_14629" data-name="Path 14629" d="M399.365,238.618l.7.982a.427.427,0,0,0,.555.125l1.515-.849-1.97-1.557-.746.744A.43.43,0,0,0,399.365,238.618Z" transform="translate(-380.736 -204.887)" fill="#ffc3bd"/>
    </g>
    <g id="freepik--Dashboard--inject-243" transform="translate(-0.648 58.235)">
      <path id="Path_14630" data-name="Path 14630" d="M342.874,104.626a5.027,5.027,0,0,0-4.944-4.642V99.64a5.378,5.378,0,0,1,5.289,4.965Z" transform="translate(-243.769 -99.639)" fill="#407bff"/>
      <rect id="Rectangle_5881" data-name="Rectangle 5881" width="0.345" height="2.265" transform="matrix(0.998, -0.06, 0.06, 0.998, 99.384, 8.762)" fill="#407bff"/>
      <path id="Path_14631" data-name="Path 14631" d="M162.219,161.994H71.657a4.167,4.167,0,0,1-4.084-3.85L64.28,106.98a3.568,3.568,0,0,1,3.592-3.84h90.558a4.167,4.167,0,0,1,4.088,3.84l3.293,51.164a3.568,3.568,0,0,1-3.592,3.85Z" transform="translate(-64.269 -101.935)" fill="#407bff"/>
      <path id="Path_14632" data-name="Path 14632" d="M192.641,175.625H118.77a3.441,3.441,0,0,1-3.358-3.155l-2.729-42.415a2.932,2.932,0,0,1,2.952-3.155h73.881a3.42,3.42,0,0,1,3.358,3.155l2.729,42.415a2.928,2.928,0,0,1-2.963,3.155Z" transform="translate(-96.019 -117.519)" fill="#fff"/>
      <path id="Path_14633" data-name="Path 14633" d="M122.966,113.2H112.541a1.314,1.314,0,0,1-1.287-1.208h0a1.125,1.125,0,0,1,1.132-1.211H122.8a1.311,1.311,0,0,1,1.287,1.211h0a1.122,1.122,0,0,1-1.118,1.208Z" transform="translate(-95.085 -106.946)" fill="#fff"/>
      <path id="Path_14634" data-name="Path 14634" d="M169.959,113.2h-6.913a1.308,1.308,0,0,1-1.283-1.208h0a1.122,1.122,0,0,1,1.129-1.211H169.8a1.308,1.308,0,0,1,1.283,1.211h0a1.118,1.118,0,0,1-1.129,1.208Z" transform="translate(-128.215 -106.946)" fill="#fff"/>
      <path id="Path_14635" data-name="Path 14635" d="M210.24,113.2h-6.909a1.314,1.314,0,0,1-1.287-1.208h0a1.125,1.125,0,0,1,1.132-1.211h6.909a1.314,1.314,0,0,1,1.287,1.211h0a1.125,1.125,0,0,1-1.132,1.208Z" transform="translate(-154.636 -106.946)" fill="#fff"/>
      <path id="Path_14636" data-name="Path 14636" d="M69.926,164.8H69.9a.774.774,0,0,1-.76-.719l-3.3-51.237a.661.661,0,0,1,.688-.716h.021a.774.774,0,0,1,.764.716l3.3,51.237a.667.667,0,0,1-.688.719Z" transform="translate(-65.301 -107.83)" fill="#fff" opacity="0.2"/>
      <path id="Path_14637" data-name="Path 14637" d="M324.813,112.638a1.972,1.972,0,0,1-1.941-1.817,1.72,1.72,0,0,1,1.72-1.841,1.972,1.972,0,0,1,1.937,1.817h0a1.705,1.705,0,0,1-1.717,1.841ZM324.6,109.3a1.376,1.376,0,0,0-1.4,1.5,1.648,1.648,0,0,0,1.621,1.521,1.376,1.376,0,0,0,1.4-1.5h0A1.641,1.641,0,0,0,324.6,109.3Z" transform="translate(-233.889 -105.766)" fill="#fff"/>
      <path id="Path_14638" data-name="Path 14638" d="M310.639,112.638a1.972,1.972,0,0,1-1.937-1.817,1.72,1.72,0,0,1,1.72-1.841,1.972,1.972,0,0,1,1.937,1.817h0a1.72,1.72,0,0,1-1.72,1.841Zm-.213-3.338a1.376,1.376,0,0,0-1.4,1.5,1.648,1.648,0,0,0,1.617,1.521,1.376,1.376,0,0,0,1.4-1.5h0A1.648,1.648,0,0,0,310.426,109.3Z" transform="translate(-224.595 -105.766)" fill="#fff"/>
      <path id="Path_14639" data-name="Path 14639" d="M85.284,111.1a1.067,1.067,0,0,1,1.032.974L89.644,163.8a.86.86,0,0,1-.871.932H82.366a1.067,1.067,0,0,1-1.032-.974L78,112.032a.86.86,0,0,1,.871-.932h6.41m0-.32h-6.41a1.184,1.184,0,0,0-1.191,1.273l3.327,51.725a1.376,1.376,0,0,0,1.356,1.273h6.41a1.18,1.18,0,0,0,1.191-1.273L86.64,112.053A1.376,1.376,0,0,0,85.284,110.78Z" transform="translate(-73.066 -106.946)" fill="#fff" opacity="0.2"/>
      <path id="Path_14640" data-name="Path 14640" d="M149.282,171.753H129.345a2.605,2.605,0,0,1-2.636-2.275l-1.594-22.838a2.028,2.028,0,0,1,.618-1.608,2.4,2.4,0,0,1,1.7-.672h19.908a2.61,2.61,0,0,1,2.636,2.28l1.594,22.838a2.018,2.018,0,0,1-.606,1.6A2.391,2.391,0,0,1,149.282,171.753Z" transform="translate(-104.175 -128.972)" fill="#407bff"/>
      <path id="Path_14641" data-name="Path 14641" d="M148.7,161.44h1.782l-.174-2.719c-.278,0-.575-.071-.865-.084-.543,0-1.079-.052-1.614-.039a3.72,3.72,0,0,0-2.228.7,3.132,3.132,0,0,0-1.221,2.267,8.824,8.824,0,0,0,0,1.169c0,.646.077,1.221.116,1.834v.226H141.91l.2,3.042h2.583l.484,7.5h3.177l-.5-7.491h2.583c.071-1.007.136-2.008.207-3.048h-3s-.09-1.511-.116-2.163C147.47,161.744,147.981,161.473,148.7,161.44Z" transform="translate(-112.438 -137.164)" fill="#fff" fill-rule="evenodd"/>
      <path id="Path_14644" data-name="Path 14644" d="M259.964,172.465h-20.4a2.668,2.668,0,0,1-2.7-2.334L235.235,146.7a2.084,2.084,0,0,1,.632-1.65,2.458,2.458,0,0,1,1.741-.69H258a2.667,2.667,0,0,1,2.7,2.339l1.631,23.432a2.069,2.069,0,0,1-.626,1.649A2.441,2.441,0,0,1,259.964,172.465Z" transform="translate(-187.159 -128.972)" fill="#407bff" opacity="0.9"/>
      <path id="Path_14645" data-name="Path 14645" d="M262.333,162.64A4.489,4.489,0,0,0,260.9,160a4.627,4.627,0,0,0-2.942-1.163,56.251,56.251,0,0,0-7.728.086,3.629,3.629,0,0,0-3.186,3.034,43.453,43.453,0,0,0,.483,8.779,4.31,4.31,0,0,0,3.358,3.385,46.168,46.168,0,0,0,8.66.053,3.636,3.636,0,0,0,3.219-3.127C263.034,169.68,262.538,163.869,262.333,162.64Zm-.939,7.807a2.446,2.446,0,0,1-2.334,2.367,46.935,46.935,0,0,1-8.071-.112,2.8,2.8,0,0,1-2.089-2.215,52.947,52.947,0,0,1-.509-7.886,2.439,2.439,0,0,1,2.327-2.353,55.419,55.419,0,0,1,7.7,0,2.869,2.869,0,0,1,2.512,2.492A55.546,55.546,0,0,1,261.395,170.447Zm-6.756-7.933a3.715,3.715,0,0,0-3.755,4.006,4.337,4.337,0,0,0,4.264,4.013,3.715,3.715,0,0,0,3.755-4.006,4.336,4.336,0,0,0-4.264-4.006Zm.4,6.611a2.8,2.8,0,0,1-2.737-2.611,2.4,2.4,0,0,1,2.446-2.572,2.8,2.8,0,0,1,2.737,2.644,2.4,2.4,0,0,1-2.446,2.532Zm4.693-6.749a.872.872,0,0,1-.879.939,1.018,1.018,0,0,1-1-.939.873.873,0,0,1,.879-.939,1.011,1.011,0,0,1,1,.932Z" transform="translate(-193.092 -137.025)" fill="#fff"/>
      <path id="Path_14648" data-name="Path 14648" d="M180.077,209.523c1.222.011,2.228.582,2.322,1.318l.815,7.652a.988.988,0,0,1-.533.915,2.759,2.759,0,0,1-1.469.378H132.922c-1.221-.011-2.227-.582-2.319-1.318l-.815-7.652a.969.969,0,0,1,.528-.914,2.739,2.739,0,0,1,1.474-.379h48.287m0-.193H131.79a3.183,3.183,0,0,0-1.707.441,1.129,1.129,0,0,0-.616,1.058l.815,7.652c.108.836,1.251,1.485,2.639,1.5h48.291a3.181,3.181,0,0,0,1.7-.442,1.129,1.129,0,0,0,.615-1.057l-.812-7.652C182.61,209.992,181.465,209.343,180.077,209.33Z" transform="translate(-107.028 -164.61)" fill="#407bff"/>
      <g id="Group_8291" data-name="Group 8291" transform="translate(31.025 44.832)" opacity="0.2">
        <path id="Path_15826" data-name="Path 15826" d="M0,0,.275.007.722,10.4l-.275-.007Z" transform="translate(0 0.048) rotate(-3.68)" fill="#407bff"/>
        <path id="Path_15827" data-name="Path 15827" d="M0,0,.275.007.722,10.4l-.275-.007Z" transform="translate(8.873 0.046) rotate(-3.68)" fill="#407bff"/>
        <path id="Path_15828" data-name="Path 15828" d="M0,0,.275.007.722,10.4l-.275-.007Z" transform="translate(17.752 0.048) rotate(-3.68)" fill="#407bff"/>
        <path id="Path_15829" data-name="Path 15829" d="M0,0,.275.007.722,10.4l-.275-.007Z" transform="translate(26.625 0.049) rotate(-3.68)" fill="#407bff"/>
        <path id="Path_15830" data-name="Path 15830" d="M0,0,.275.007.722,10.4l-.275-.007Z" transform="translate(35.501 0.047) rotate(-3.68)" fill="#407bff"/>
      </g>
      <path id="Path_14649" data-name="Path 14649" d="M135.457,222.335a7.066,7.066,0,0,1-1.944-.288c-.262-.078-.509-.16-.754-.239-.387-.137-.809-.262-1.259-.373l.179-.093c.464.116.9.244,1.3.385.237.08.482.161.736.239a5.876,5.876,0,0,0,2.274.227c.74-.108.974-.412,1.063-.587a1.562,1.562,0,0,0,.1-.257,1.056,1.056,0,0,1,.31-.53,3.24,3.24,0,0,1,1.741-.552,5.783,5.783,0,0,1,2.34.246,2.567,2.567,0,0,1,.8.512,1.971,1.971,0,0,0,1.259.575,2.865,2.865,0,0,0,.884-.042,1.566,1.566,0,0,0,1.032-.571,1.717,1.717,0,0,0,.189-.681,1.532,1.532,0,0,1,.31-.855,3.088,3.088,0,0,1,1.72-.742,5.946,5.946,0,0,1,1.758-.041,3.122,3.122,0,0,1,1.72.663,2.863,2.863,0,0,1,.427.478,3.111,3.111,0,0,0,.3.359,4.949,4.949,0,0,0,1.947,1.026,3.994,3.994,0,0,0,.774.177,3.881,3.881,0,0,0,2.209-.461,4.45,4.45,0,0,1,2.381-.624,4.572,4.572,0,0,1,1.858.441c.124.059.237.12.344.181a4.8,4.8,0,0,0,.957.412,3.586,3.586,0,0,0,1.741.078c.245-.1.394-.219.427-.348l.093-.173a2.079,2.079,0,0,1,1.228-1.167,3.234,3.234,0,0,1,1.72-.155,1.288,1.288,0,0,1,.551.264c.093.072.182.142.272.214a5.7,5.7,0,0,0,1.3.837,6.6,6.6,0,0,0,2.794.5c.373-.022.737-.06,1.084-.112a7.806,7.806,0,0,1,1.82-.1,5.606,5.606,0,0,1,1.376.33c.141.048.286.1.434.14a4.332,4.332,0,0,0,1.252.17,1.359,1.359,0,0,0,.458-.078c.17-.1.246-.207.217-.319a1.63,1.63,0,0,1,1.142-1.418,7.07,7.07,0,0,1,3.895-.259l-.182.092a6.245,6.245,0,0,0-3.461.239,1.534,1.534,0,0,0-1.074,1.352c.029.137-.074.273-.292.387a1.973,1.973,0,0,1-.688.12,5.084,5.084,0,0,1-1.483-.195c-.155-.045-.3-.1-.451-.146a5.187,5.187,0,0,0-1.242-.3,7.2,7.2,0,0,0-1.627.1c-.37.057-.76.1-1.16.12a7.433,7.433,0,0,1-3.1-.543,5.73,5.73,0,0,1-1.338-.864l-.268-.212a1.041,1.041,0,0,0-.437-.219,2.457,2.457,0,0,0-1.294.136,2.007,2.007,0,0,0-1.156,1.113c-.031.059-.058.12-.093.175-.042.153-.225.3-.523.411a4.427,4.427,0,0,1-2.164-.076,5.382,5.382,0,0,1-1.032-.436c-.114-.06-.224-.12-.344-.176a3.827,3.827,0,0,0-3.713.178,4.533,4.533,0,0,1-2.574.506,4.588,4.588,0,0,1-.895-.2,5.159,5.159,0,0,1-2.033-1.076,3.153,3.153,0,0,1-.31-.368,2.782,2.782,0,0,0-.413-.46,2.933,2.933,0,0,0-1.552-.6,5.083,5.083,0,0,0-1.5.036,2.814,2.814,0,0,0-1.545.674,1.5,1.5,0,0,0-.3.828,1.775,1.775,0,0,1-.2.7,1.726,1.726,0,0,1-1.135.641,3.775,3.775,0,0,1-1.142.053,2.289,2.289,0,0,1-1.466-.639,2.435,2.435,0,0,0-.736-.478,5.014,5.014,0,0,0-2.023-.212,2.837,2.837,0,0,0-1.524.485.973.973,0,0,0-.286.5,2.134,2.134,0,0,1-.1.264,1.6,1.6,0,0,1-1.256.671A4.7,4.7,0,0,1,135.457,222.335Z" transform="translate(-108.367 -170.705)" fill="#407bff"/>
      <path id="Path_14650" data-name="Path 14650" d="M309.5,228.71h-9.221a2.481,2.481,0,0,1-2.433-2.285l-.592-9.221a2.123,2.123,0,0,1,2.137-2.285h9.221a2.481,2.481,0,0,1,2.433,2.285l.592,9.221a2.123,2.123,0,0,1-2.137,2.285Z" transform="translate(-217.087 -172.497)" fill="#407bff" opacity="0.14"/>
      <path id="Path_15831" data-name="Path 15831" d="M309.5,228.71h-9.221a2.481,2.481,0,0,1-2.433-2.285l-.592-9.221a2.123,2.123,0,0,1,2.137-2.285h9.221a2.481,2.481,0,0,1,2.433,2.285l.592,9.221a2.123,2.123,0,0,1-2.137,2.285Z" transform="translate(-218.466 -187.659)" fill="#407bff" opacity="0.14"/>
      <path id="Path_15832" data-name="Path 15832" d="M309.5,228.71h-9.221a2.481,2.481,0,0,1-2.433-2.285l-.592-9.221a2.123,2.123,0,0,1,2.137-2.285h9.221a2.481,2.481,0,0,1,2.433,2.285l.592,9.221a2.123,2.123,0,0,1-2.137,2.285Z" transform="translate(-219.844 -202.821)" fill="#407bff" opacity="0.14"/>
      <path id="Path_14651" data-name="Path 14651" d="M313.267,226.222l.754,1.356a.344.344,0,0,0,.251.172l1.524.22a.344.344,0,0,1,.2.578l-.984,1.032a.344.344,0,0,0-.09.32l.344,1.418a.344.344,0,0,1-.492.385l-1.335-.688a.344.344,0,0,0-.32,0l-1.28.688a.344.344,0,0,1-.506-.344l.158-1.5a.344.344,0,0,0-.107-.289l-1.135-1.032a.344.344,0,0,1,.186-.6l1.4-.206a.344.344,0,0,0,.265-.2l.554-1.294a.344.344,0,0,1,.612-.021Z" transform="translate(-225.537 -179.794)" fill="#fff"/>
      <path id="Path_14647" data-name="Path 14647" d="M303.1,168.363a1.108,1.108,0,0,1-.712-.65c-.344-.8-.643-4.129-.127-4.8a1,1,0,0,1,.688-.389,40.647,40.647,0,0,1,6.71.055,1.132,1.132,0,0,1,.688.633,10.523,10.523,0,0,1,.255,4.628.932.932,0,0,1-.44.478A30.952,30.952,0,0,1,303.1,168.363Zm2.3-1.566,2.625-1.407-2.808-1.418c.062.943.12,1.879.182,2.825Z" transform="translate(-220.191 -131.166)" fill="#fff" fill-rule="evenodd"/>
      <path id="Path_14643" data-name="Path 14643" d="M195.587,166.444a1.693,1.693,0,0,1-1.517-1.077,1.5,1.5,0,0,0,.668-.021h.021a1.679,1.679,0,0,1-1.056-.712,1.614,1.614,0,0,1-.279-.826,1.6,1.6,0,0,0,.688.189,1.693,1.693,0,0,1-.688-.943,1.5,1.5,0,0,1,.093-1.125,4.783,4.783,0,0,0,3.31,1.624.9.9,0,0,0-.038-.172,1.456,1.456,0,0,1,.162-1.015,1.376,1.376,0,0,1,1.008-.688,1.593,1.593,0,0,1,1.376.434.083.083,0,0,0,.086.024,2.873,2.873,0,0,0,.881-.344h.021a1.459,1.459,0,0,1-.575.809,2.858,2.858,0,0,0,.85-.234h0c-.055.079-.107.158-.162.234a2.8,2.8,0,0,1-.53.537.045.045,0,0,0-.024.048,4.189,4.189,0,0,1,0,.688,4.279,4.279,0,0,1-.31,1.376,4.067,4.067,0,0,1-.76,1.225,3.847,3.847,0,0,1-2.064,1.191,4.776,4.776,0,0,1-.86.1,4.631,4.631,0,0,1-2.526-.668l-.041-.024a3.063,3.063,0,0,0,1.541-.213A2.863,2.863,0,0,0,195.587,166.444Z" transform="translate(-111.7 -145.831)" fill="#fff" fill-rule="evenodd"/>
    </g>
  </g>
</svg>
