<svg xmlns="http://www.w3.org/2000/svg" width="136.091" height="101.404" viewBox="0 0 136.091 101.404">
  <g id="Responsive-rafiki" transform="translate(0 -55)">
    <g id="freepik--background-complete--inject-223" transform="translate(0 55)">
      <rect id="Rectangle_5826" data-name="Rectangle 5826" width="136.091" height="0.068" transform="translate(0 89.113)" fill="#ebebeb"/>
      <rect id="Rectangle_5827" data-name="Rectangle 5827" width="21.113" height="0.068" transform="translate(101.342 93.492)" fill="#ebebeb"/>
      <rect id="Rectangle_5828" data-name="Rectangle 5828" width="15.06" height="0.068" transform="translate(75.667 92.539)" fill="#ebebeb"/>
      <rect id="Rectangle_5829" data-name="Rectangle 5829" width="16.064" height="0.068" transform="translate(97.104 90.966)" fill="#ebebeb"/>
      <rect id="Rectangle_5830" data-name="Rectangle 5830" width="3.454" height="0.068" transform="translate(14.279 91.423)" fill="#ebebeb"/>
      <rect id="Rectangle_5831" data-name="Rectangle 5831" width="19.491" height="0.068" transform="translate(20.158 91.423)" fill="#ebebeb"/>
      <rect id="Rectangle_5832" data-name="Rectangle 5832" width="12.749" height="0.068" transform="translate(47.131 92.572)" fill="#ebebeb"/>
      <path id="Path_14501" data-name="Path 14501" d="M92.317,131.973H39.761a1.554,1.554,0,0,1-1.551-1.554V56.541A1.554,1.554,0,0,1,39.761,55H92.317a1.554,1.554,0,0,1,1.554,1.554v73.865A1.554,1.554,0,0,1,92.317,131.973ZM39.761,55.054a1.486,1.486,0,0,0-1.483,1.486v73.878a1.486,1.486,0,0,0,1.483,1.486H92.317a1.489,1.489,0,0,0,1.486-1.486V56.541a1.489,1.489,0,0,0-1.486-1.486Z" transform="translate(-27.81 -55)" fill="#ebebeb"/>
      <path id="Path_14502" data-name="Path 14502" d="M308.613,131.973H256.054a1.557,1.557,0,0,1-1.554-1.554V56.541A1.557,1.557,0,0,1,256.054,55h52.558a1.554,1.554,0,0,1,1.549,1.541v73.878A1.554,1.554,0,0,1,308.613,131.973ZM256.054,55.054a1.489,1.489,0,0,0-1.486,1.486v73.878a1.489,1.489,0,0,0,1.486,1.486h52.558a1.489,1.489,0,0,0,1.486-1.486V56.541a1.489,1.489,0,0,0-1.486-1.486Z" transform="translate(-185.23 -55)" fill="#ebebeb"/>
      <rect id="Rectangle_5833" data-name="Rectangle 5833" width="36.089" height="58.895" transform="translate(15.335 11.372)" fill="#e6e6e6"/>
      <rect id="Rectangle_5834" data-name="Rectangle 5834" width="36.677" height="58.895" transform="translate(15.849 11.372)" fill="#f0f0f0"/>
      <rect id="Rectangle_5835" data-name="Rectangle 5835" width="36.089" height="1.668" transform="translate(15.335 70.267)" fill="#e6e6e6"/>
      <rect id="Rectangle_5836" data-name="Rectangle 5836" width="36.677" height="1.668" transform="translate(17.684 70.267)" fill="#f0f0f0"/>
      <rect id="Rectangle_5837" data-name="Rectangle 5837" width="55.811" height="33.593" transform="translate(50.983 12.912) rotate(90)" fill="#fafafa"/>
      <path id="Path_14503" data-name="Path 14503" d="M91.72,158.251l4.292-55.811h6.7l-4.292,55.811Z" transform="translate(-66.755 -89.528)" fill="#fff"/>
      <path id="Path_14504" data-name="Path 14504" d="M66.218,159.057a.109.109,0,0,1-.112-.109V105.785a.112.112,0,1,1,.22,0v53.163A.109.109,0,0,1,66.218,159.057Z" transform="translate(-48.112 -91.868)" fill="#f0f0f0"/>
      <path id="Path_14505" data-name="Path 14505" d="M121.61,158.251l4.29-55.811h2.61l-4.29,55.811Z" transform="translate(-88.51 -89.528)" fill="#fff"/>
      <rect id="Rectangle_5838" data-name="Rectangle 5838" width="55.811" height="0.196" transform="translate(50.983 12.912) rotate(90)" fill="#e6e6e6"/>
      <path id="Path_14506" data-name="Path 14506" d="M97.433,106.366H61.344L61.2,104.64H97.291Z" transform="translate(-44.542 -91.129)" fill="#ebebeb" opacity="0.6"/>
      <path id="Path_14507" data-name="Path 14507" d="M97.433,116.766H61.344L61.2,115.04H97.291Z" transform="translate(-44.542 -98.698)" fill="#ebebeb" opacity="0.6"/>
      <path id="Path_14508" data-name="Path 14508" d="M97.433,127.156H61.344L61.2,125.43H97.291Z" transform="translate(-44.542 -106.26)" fill="#ebebeb" opacity="0.6"/>
      <path id="Path_14509" data-name="Path 14509" d="M97.433,137.556H61.344L61.2,135.83H97.291Z" transform="translate(-44.542 -113.829)" fill="#ebebeb" opacity="0.6"/>
      <path id="Path_14510" data-name="Path 14510" d="M97.433,147.946H61.344L61.2,146.22H97.291Z" transform="translate(-44.542 -121.392)" fill="#ebebeb" opacity="0.6"/>
      <path id="Path_14511" data-name="Path 14511" d="M97.433,158.346H61.344L61.2,156.62H97.291Z" transform="translate(-44.542 -128.961)" fill="#ebebeb" opacity="0.6"/>
      <rect id="Rectangle_5839" data-name="Rectangle 5839" width="34.584" height="77.741" transform="translate(74.51 11.372)" fill="#f0f0f0"/>
      <rect id="Rectangle_5840" data-name="Rectangle 5840" width="33.854" height="77.741" transform="translate(75.242 11.372)" fill="#f5f5f5"/>
      <rect id="Rectangle_5841" data-name="Rectangle 5841" width="74.213" height="29.728" transform="translate(107.03 13.136) rotate(90)" fill="#f0f0f0"/>
      <path id="Path_14512" data-name="Path 14512" d="M294.75,132.326h0a8.106,8.106,0,0,1,8.106-8.106h7.676a8.1,8.1,0,0,1,8.1,8.106Z" transform="translate(-214.524 -105.38)" fill="#fafafa"/>
      <rect id="Rectangle_5842" data-name="Rectangle 5842" width="17.73" height="23.884" transform="translate(104.113 65.005) rotate(90)" fill="#f5f5f5"/>
      <rect id="Rectangle_5843" data-name="Rectangle 5843" width="10.536" height="30.781" transform="translate(90.759 62.719) rotate(180)" fill="#f5f5f5"/>
      <rect id="Rectangle_5844" data-name="Rectangle 5844" width="10.536" height="30.781" transform="translate(104.11 62.719) rotate(180)" fill="#f5f5f5"/>
      <path id="Path_14513" data-name="Path 14513" d="M366.677,224.789h4.317a.67.67,0,0,0,.67-.67h0a.672.672,0,0,0-.67-.67h-4.317a.67.67,0,0,0-.667.67h0a.67.67,0,0,0,.667.67Z" transform="translate(-266.389 -177.601)" fill="#e0e0e0"/>
      <rect id="Rectangle_5845" data-name="Rectangle 5845" width="74.213" height="0.536" transform="translate(107.03 13.136) rotate(90)" fill="#f0f0f0"/>
      <path id="Path_14514" data-name="Path 14514" d="M424.276,196.562H411.96l1.091-14.412h10.133Z" transform="translate(-299.832 -147.542)" fill="#ebebeb"/>
      <path id="Path_14515" data-name="Path 14515" d="M440.417,196.562H438.3l-.449-14.412H439.8Z" transform="translate(-318.675 -147.542)" fill="#f5f5f5"/>
      <rect id="Rectangle_5846" data-name="Rectangle 5846" width="1.233" height="40.092" transform="translate(117.67 49.02)" fill="#f0f0f0"/>
      <rect id="Rectangle_5847" data-name="Rectangle 5847" width="2.3" height="2.3" rx="1.15" transform="translate(117.136 66.973)" fill="#f0f0f0"/>
      <rect id="Rectangle_5848" data-name="Rectangle 5848" width="2.3" height="2.3" rx="1.15" transform="translate(117.136 70.659)" fill="#f0f0f0"/>
      <path id="Path_14516" data-name="Path 14516" d="M431.32,380.173h-3.9a.833.833,0,0,1,.83-.833h2.237A.833.833,0,0,1,431.32,380.173Z" transform="translate(-311.084 -291.06)" fill="#f0f0f0"/>
      <rect id="Rectangle_5849" data-name="Rectangle 5849" width="1.233" height="0.754" transform="translate(117.67 49.02)" fill="#e0e0e0"/>
      <path id="Path_14517" data-name="Path 14517" d="M227.936,196.562H215.62l1.091-14.412h10.133Z" transform="translate(-156.932 -147.542)" fill="#ebebeb"/>
      <path id="Path_14518" data-name="Path 14518" d="M244.077,196.562h-2.118l-.449-14.412h1.954Z" transform="translate(-175.775 -147.542)" fill="#f5f5f5"/>
      <rect id="Rectangle_5850" data-name="Rectangle 5850" width="1.233" height="40.092" transform="translate(64.23 49.02)" fill="#f0f0f0"/>
      <rect id="Rectangle_5851" data-name="Rectangle 5851" width="2.3" height="2.3" rx="1.15" transform="translate(63.696 66.973)" fill="#f0f0f0"/>
      <rect id="Rectangle_5852" data-name="Rectangle 5852" width="2.3" height="2.3" rx="1.15" transform="translate(63.696 70.659)" fill="#f0f0f0"/>
      <path id="Path_14519" data-name="Path 14519" d="M234.98,380.173h-3.9a.833.833,0,0,1,.817-.833h2.24a.833.833,0,0,1,.817.833Z" transform="translate(-168.184 -291.06)" fill="#f0f0f0"/>
      <rect id="Rectangle_5853" data-name="Rectangle 5853" width="1.233" height="0.754" transform="translate(64.23 49.02)" fill="#e0e0e0"/>
    </g>
    <g id="freepik--Shadow--inject-223" transform="translate(15.272 150.242)">
      <ellipse id="freepik--path--inject-223" cx="52.773" cy="3.081" rx="52.773" ry="3.081" fill="#f5f5f5"/>
    </g>
    <g id="freepik--Responsive--inject-223" transform="translate(22.673 66.312)">
      <path id="Path_14520" data-name="Path 14520" d="M285.242,103.8l-.512,15.716,12.322-.852Z" transform="translate(-229.904 -101.829)" fill="#407bff" opacity="0.1"/>
      <path id="Path_14521" data-name="Path 14521" d="M131.928,250.345l.318-11.625-46.157.626Z" transform="translate(-85.331 -200.027)" fill="#407bff" opacity="0.1"/>
      <path id="Path_14522" data-name="Path 14522" d="M83.3,108.95h55.8v35.112a.855.855,0,0,1-.855.855H84.155a.855.855,0,0,1-.855-.855Z" transform="translate(-83.3 -105.578)" fill="#407bff"/>
      <path id="Path_14523" data-name="Path 14523" d="M83.3,108.95h55.8v35.112a.855.855,0,0,1-.855.855H84.155a.855.855,0,0,1-.855-.855Z" transform="translate(-83.3 -105.578)" fill="#fff" opacity="0.7"/>
      <rect id="Rectangle_5854" data-name="Rectangle 5854" width="46.116" height="14.069" rx="2.83" transform="translate(4.837 5.719)" fill="#fff" opacity="0.9"/>
      <rect id="Rectangle_5855" data-name="Rectangle 5855" width="13.966" height="4.105" rx="2.052" transform="translate(4.837 21.943)" fill="#407bff" opacity="0.7"/>
      <rect id="Rectangle_5856" data-name="Rectangle 5856" width="13.966" height="4.105" rx="2.052" transform="translate(20.912 21.943)" fill="#407bff" opacity="0.7"/>
      <rect id="Rectangle_5857" data-name="Rectangle 5857" width="13.966" height="4.105" rx="2.052" transform="translate(36.984 21.943)" fill="#407bff" opacity="0.7"/>
      <path id="Path_14524" data-name="Path 14524" d="M101.84,198.36h12.425a.77.77,0,0,1,.77.77v10.836H101.07V199.13A.77.77,0,0,1,101.84,198.36Z" transform="translate(-96.233 -170.652)" fill="#407bff" opacity="0.3"/>
      <path id="Path_14525" data-name="Path 14525" d="M160.911,198.36h12.425a.77.77,0,0,1,.77.77v10.836H160.13V199.13a.77.77,0,0,1,.781-.77Z" transform="translate(-139.218 -170.652)" fill="#407bff" opacity="0.3"/>
      <path id="Path_14526" data-name="Path 14526" d="M219.948,198.36h12.425a.77.77,0,0,1,.77.77v10.836H219.18V199.13A.77.77,0,0,1,219.948,198.36Z" transform="translate(-182.196 -170.652)" fill="#407bff" opacity="0.3"/>
      <rect id="Rectangle_5858" data-name="Rectangle 5858" width="1.361" height="0.272" transform="translate(15.645 0)" fill="#407bff"/>
      <rect id="Rectangle_5859" data-name="Rectangle 5859" width="3.334" height="0.272" transform="translate(11.108 0)" fill="#407bff"/>
      <path id="Path_14527" data-name="Path 14527" d="M136.669,100.06H85.72a2.42,2.42,0,0,0-2.42,2.433h55.8a2.42,2.42,0,0,0-2.428-2.433Z" transform="translate(-83.3 -99.107)" fill="#407bff"/>
      <path id="Path_14528" data-name="Path 14528" d="M93.3,103.212a.484.484,0,1,1-.482-.482A.484.484,0,0,1,93.3,103.212Z" transform="translate(-89.872 -101.051)" fill="#fff"/>
      <path id="Path_14529" data-name="Path 14529" d="M99.034,103.122a.482.482,0,1,1-.482-.482.482.482,0,0,1,.482.482Z" transform="translate(-94.05 -100.985)" fill="#fff"/>
      <path id="Path_14530" data-name="Path 14530" d="M104.754,103.122a.482.482,0,1,1-.482-.482A.482.482,0,0,1,104.754,103.122Z" transform="translate(-98.213 -100.985)" fill="#fff"/>
      <path id="Path_14531" data-name="Path 14531" d="M252.854,168.38h21.5v29.9a1.089,1.089,0,0,1-1.089,1.089H253.929a1.089,1.089,0,0,1-1.089-1.089v-29.9Z" transform="translate(-206.694 -148.832)" fill="#407bff"/>
      <path id="Path_14532" data-name="Path 14532" d="M252.854,168.38h21.5v29.9a1.089,1.089,0,0,1-1.089,1.089H253.929a1.089,1.089,0,0,1-1.089-1.089v-29.9Z" transform="translate(-206.694 -148.832)" fill="#fff" opacity="0.8"/>
      <rect id="Rectangle_5860" data-name="Rectangle 5860" width="17.575" height="6.739" rx="1.96" transform="translate(48.119 21.165)" fill="#fff" opacity="0.9"/>
      <rect id="Rectangle_5861" data-name="Rectangle 5861" width="17.575" height="5.163" rx="2.582" transform="translate(48.119 29.238)" fill="#407bff" opacity="0.7"/>
      <rect id="Rectangle_5862" data-name="Rectangle 5862" width="17.575" height="5.163" rx="2.582" transform="translate(48.119 36.11)" fill="#407bff" opacity="0.7"/>
      <rect id="Rectangle_5863" data-name="Rectangle 5863" width="17.575" height="5.163" rx="2.582" transform="translate(48.119 42.983)" fill="#407bff" opacity="0.7"/>
      <path id="Path_14533" data-name="Path 14533" d="M254.281,157.2h18.666a1.415,1.415,0,0,1,1.415,1.415v1.633h-21.5v-1.633a1.415,1.415,0,0,1,1.421-1.415Z" transform="translate(-206.709 -140.695)" fill="#407bff"/>
    </g>
    <g id="freepik--Character--inject-223" transform="translate(83.786 71.625)">
      <path id="Path_14534" data-name="Path 14534" d="M357.792,397.879H355.8l0-4.619h2Z" transform="translate(-342.743 -317.816)" fill="#ffb573"/>
      <path id="Path_14535" data-name="Path 14535" d="M411.259,385.019l-1.908.577-2.1-4.189,1.908-.577Z" transform="translate(-380.19 -308.77)" fill="#ffb573"/>
      <path id="Path_14536" data-name="Path 14536" d="M410.778,398.477a.6.6,0,0,1-.395.014.272.272,0,0,1-.155-.215.158.158,0,0,1,.046-.152c.18-.171.9.025.977.046a.048.048,0,0,1,.008.087A2.329,2.329,0,0,1,410.778,398.477Zm-.387-.313a.115.115,0,0,0-.057.03.057.057,0,0,0-.014.06.185.185,0,0,0,.1.15.944.944,0,0,0,.686-.171A1.851,1.851,0,0,0,410.392,398.164Z" transform="translate(-382.354 -321.305)" fill="#407bff"/>
      <path id="Path_14537" data-name="Path 14537" d="M411.983,396.756h-.024c-.223-.049-.713-.357-.729-.585a.163.163,0,0,1,.114-.163.239.239,0,0,1,.207,0c.272.114.457.659.465.683a.054.054,0,0,1,0,.049Zm-.585-.667a.035.035,0,0,0-.022,0c-.054.025-.054.052-.054.065,0,.133.335.381.569.474-.063-.158-.207-.465-.378-.544a.166.166,0,0,0-.117.005Z" transform="translate(-383.086 -319.799)" fill="#407bff"/>
      <path id="Path_14538" data-name="Path 14538" d="M405.541,395.918l2.145-.648a.166.166,0,0,1,.2.082l.817,1.606a.31.31,0,0,1-.191.43c-.751.212-1.127.272-2.071.563-.58.174-2.45,1.116-3.239,1.361s-1.111-.528-.8-.7a9.026,9.026,0,0,0,2.866-2.477A.506.506,0,0,1,405.541,395.918Z" transform="translate(-376.573 -319.274)" fill="#263238"/>
      <path id="Path_14539" data-name="Path 14539" d="M351.278,409.312a.724.724,0,0,1-.479-.122.248.248,0,0,1-.079-.229.15.15,0,0,1,.084-.125c.248-.136,1.032.272,1.119.318a.044.044,0,0,1,.024.049.049.049,0,0,1-.041.038A3.27,3.27,0,0,1,351.278,409.312Zm-.343-.411a.2.2,0,0,0-.09.016.071.071,0,0,0-.033.052.18.18,0,0,0,.052.152,1.263,1.263,0,0,0,.887.052A2.511,2.511,0,0,0,350.935,408.9Z" transform="translate(-339.043 -329.133)" fill="#407bff"/>
      <path id="Path_14540" data-name="Path 14540" d="M353.268,408h-.019c-.237-.109-.694-.544-.648-.765,0-.052.052-.12.182-.131a.324.324,0,0,1,.272.079,1.3,1.3,0,0,1,.272.77.049.049,0,0,1-.022.041A.057.057,0,0,1,353.268,408Zm-.452-.817h-.027c-.087,0-.093.044-.1.054-.027.133.272.474.52.621a1.062,1.062,0,0,0-.237-.615.237.237,0,0,0-.161-.052Z" transform="translate(-340.413 -327.891)" fill="#407bff"/>
      <path id="Path_14541" data-name="Path 14541" d="M342.815,409.38h2.177a.163.163,0,0,1,.163.136l.316,1.775a.3.3,0,0,1-.3.354c-.784-.014-1.905-.06-2.9-.06-1.154,0-2.156.063-3.508.063-.817,0-1.01-.817-.664-.9,1.576-.343,2.85-.378,4.235-1.211A.964.964,0,0,1,342.815,409.38Z" transform="translate(-329.737 -329.549)" fill="#263238"/>
      <path id="Path_14542" data-name="Path 14542" d="M369.982,142.92c-.351,1.459-.572,3.266.406,4.241,0,0-.651,1.481-3.361,1.481-2.477,0-1.173-1.481-1.173-1.481,1.633-.387,1.647-2.4,1.415-3.538Z" transform="translate(-349.811 -135.614)" fill="#ffb573"/>
      <path id="Path_14543" data-name="Path 14543" d="M355.8,393.27l0,2.379h2l0-2.379Z" transform="translate(-342.743 -317.824)" opacity="0.2"/>
      <path id="Path_14544" data-name="Path 14544" d="M409.158,380.83l-1.908.58,1.083,2.158,1.911-.577Z" transform="translate(-380.19 -308.77)" opacity="0.2"/>
      <path id="Path_14545" data-name="Path 14545" d="M391.238,165.2l-2.559,1.47s2.684,6.26,2.42,7.273c-.362,1.361-.544,4.14-1.1,5.944a2.644,2.644,0,0,0,1.266.68c1.089-2.177,2.863-5.893,2.76-7.153C393.789,170.535,391.238,165.2,391.238,165.2Z" transform="translate(-366.674 -151.83)" fill="#ffb573"/>
      <path id="Path_14546" data-name="Path 14546" d="M388.833,219.16l-1.753.724,1.758,1.462s1.513-.683,1.236-1.968Z" transform="translate(-365.51 -191.103)" fill="#ffb573"/>
      <path id="Path_14547" data-name="Path 14547" d="M383.48,223.388l1.658,1.244,1.081-1.35-1.758-1.462Z" transform="translate(-362.889 -193.039)" fill="#ffb573"/>
      <path id="Path_14548" data-name="Path 14548" d="M388.368,159.977c1.856.378,3.364,7.009,3.364,7.009L387.551,169a46.6,46.6,0,0,1-2.063-5.542C384.829,160.995,386.375,159.571,388.368,159.977Z" transform="translate(-364.239 -147.979)" fill="#407bff"/>
      <path id="Path_14549" data-name="Path 14549" d="M389.713,168.2c-.778-.817-.425,2.433-.229,4.594.166.43.327.817.465,1.146A5.339,5.339,0,0,0,389.713,168.2Z" transform="translate(-367.076 -153.917)" opacity="0.2"/>
      <path id="Path_14550" data-name="Path 14550" d="M366.926,156.178c0-.708-.1-1.042.09-1.3a12.569,12.569,0,0,1,4.687-.272c.226.1.357,1.119.073,1.573C371.363,156.834,366.926,156.178,366.926,156.178Z" transform="translate(-350.821 -144.027)" fill="#407bff"/>
      <path id="Path_14551" data-name="Path 14551" d="M366.926,156.178c0-.708-.1-1.042.09-1.3a12.569,12.569,0,0,1,4.687-.272c.226.1.357,1.119.073,1.573C371.363,156.834,366.926,156.178,366.926,156.178Z" transform="translate(-350.821 -144.027)" opacity="0.2"/>
      <path id="Path_14552" data-name="Path 14552" d="M351.467,158.88s-2.618,6.021-.876,17.235h10.667c.144-1.633-.544-9.624,1.388-17.338a27.349,27.349,0,0,0-3.552-.452,39.356,39.356,0,0,0-4.535,0,20.377,20.377,0,0,0-3.092.555Z" transform="translate(-338.517 -146.779)" fill="#407bff"/>
      <path id="Path_14553" data-name="Path 14553" d="M329.813,167.974l-2.643-1.064s-3.571,6.064-4.317,6.573c-1.728-.947-2.308-.563-3.653-1.557a2.174,2.174,0,0,0-1.051.751c1.089,2.1,4.706,4.69,6.494,3.108C326.857,173.829,329.813,167.974,329.813,167.974Z" transform="translate(-315.341 -153.075)" fill="#ffb573"/>
      <path id="Path_14554" data-name="Path 14554" d="M353.348,164.623a1.878,1.878,0,0,0-2.131-1.3,29.875,29.875,0,0,0-1.187,8.165l1.034.234S354.031,166.373,353.348,164.623Z" transform="translate(-338.544 -150.442)" opacity="0.2"/>
      <path id="Path_14555" data-name="Path 14555" d="M345.345,161.743c.593,1.786-3.043,7.039-3.043,7.039L338.41,166.6a25.637,25.637,0,0,1,2.51-4.668C342.425,159.843,344.695,159.786,345.345,161.743Z" transform="translate(-330.087 -148.278)" fill="#407bff"/>
      <path id="Path_14556" data-name="Path 14556" d="M314.717,182.806l-1.777-1.026-1.04,2.069a7,7,0,0,0,2.226.351Z" transform="translate(-310.792 -163.897)" fill="#ffb573"/>
      <path id="Path_14557" data-name="Path 14557" d="M309.1,181.78l-1.271,1.208,1.108.86,1.04-2.069Z" transform="translate(-307.83 -163.897)" fill="#ffb573"/>
      <path id="Path_14558" data-name="Path 14558" d="M364.682,134.4c-.016.161-.114.272-.218.272s-.177-.142-.161-.3.114-.272.22-.272S364.7,134.242,364.682,134.4Z" transform="translate(-348.931 -129.195)" fill="#263238"/>
      <path id="Path_14559" data-name="Path 14559" d="M363.8,135.26a6.046,6.046,0,0,1-.9,1.328.9.9,0,0,0,.751.188Z" transform="translate(-347.911 -130.039)" fill="#ed893e"/>
      <path id="Path_14560" data-name="Path 14560" d="M364.785,131.591l-.041-.016a.093.093,0,0,1-.022-.131,1,1,0,0,1,.77-.444.093.093,0,0,1,.09.1.1.1,0,0,1-.1.1h0a.784.784,0,0,0-.6.359A.1.1,0,0,1,364.785,131.591Z" transform="translate(-349.224 -126.939)" fill="#263238"/>
      <path id="Path_14561" data-name="Path 14561" d="M370.062,126.519c-.324,1.965-.411,3.127-1.508,4.083A2.556,2.556,0,0,1,364.3,129c-.242-1.8.324-4.706,2.33-5.381a2.586,2.586,0,0,1,3.432,2.9Z" transform="translate(-348.891 -121.45)" fill="#ffb573"/>
      <path id="Path_14562" data-name="Path 14562" d="M369.38,126.355c-.408-1.293-.939-3.291.512-4.031s2.594.289,4.175,1.241c1.783,1.072.694,4.475-1.456,5.275A2.306,2.306,0,0,1,369.38,126.355Z" transform="translate(-352.306 -120.44)" fill="#263238"/>
      <path id="Path_14563" data-name="Path 14563" d="M366.49,123.178c-1.279.346-2.161-.476-1.53-1.424.8-1.206,3.947-.89,5.125.414S367.378,124.095,366.49,123.178Z" transform="translate(-349.259 -119.661)" fill="#263238"/>
      <path id="Path_14564" data-name="Path 14564" d="M368.658,118.644c-1.562-.289-2.2-1.562-.893-2.352,1.236-.743,4.709.544,5.289,2.6S369.132,120.1,368.658,118.644Z" transform="translate(-350.939 -116.079)" fill="#263238"/>
      <path id="Path_14565" data-name="Path 14565" d="M388.23,128.611a.774.774,0,0,1,1.285.591A2.028,2.028,0,0,0,388.23,128.611Z" transform="translate(-366.347 -125.07)" fill="#263238"/>
      <path id="Path_14566" data-name="Path 14566" d="M389.1,124.27a.775.775,0,0,1-.6,1.282,2.041,2.041,0,0,0,.6-1.282Z" transform="translate(-366.543 -122.041)" fill="#263238"/>
      <path id="Path_14567" data-name="Path 14567" d="M370.25,134.773a1.758,1.758,0,0,1-.836.991c-.523.272-.885-.158-.817-.713.057-.5.4-1.244.961-1.287A.713.713,0,0,1,370.25,134.773Z" transform="translate(-352.052 -128.948)" fill="#ffb573"/>
      <path id="Path_14568" data-name="Path 14568" d="M366.09,223.86s1.592,15.242,2.583,20.958c1.089,6.26,8.71,24.333,8.71,24.333l3.5-1.056s-5.444-16.617-5.958-22.806c-.544-6.72-1.938-21.421-1.938-21.421Z" transform="translate(-350.233 -194.524)" fill="#263238"/>
      <path id="Path_14569" data-name="Path 14569" d="M370.915,242.676c-.158-.24-.308-.321-.452-.272h-.027a.36.36,0,0,0-.093.054.734.734,0,0,0-.082.079c-.016.016-.03.035-.046.054s-.041.057-.063.09a2.31,2.31,0,0,0-.133.248c-.022.052-.046.106-.068.161s-.054.139-.082.215-.071.207-.1.318a.357.357,0,0,1-.027.087c-.008.03-.035.125-.054.188l-.041.163c-.03.109-.057.218-.084.332s-.054.248-.082.376a.586.586,0,0,1-.03.133c-.033.163-.065.332-.1.5h0c.438,3.794.964,8.144,1.421,11.179.033-.1.065-.2.1-.313a14.908,14.908,0,0,0,.34-1.535C371.887,250.822,371.938,244.235,370.915,242.676Z" transform="translate(-352.605 -208.01)" opacity="0.2"/>
      <path id="Path_14570" data-name="Path 14570" d="M349.558,223.86s-.931,14.91-.983,20.993c-.054,6.326,1.244,27.036,1.244,27.036H353.2s1.021-20.34,1.445-26.554c.46-6.772,1.927-21.475,1.927-21.475Z" transform="translate(-337.484 -194.524)" fill="#263238"/>
      <path id="Path_14571" data-name="Path 14571" d="M355.713,396.156c.014,0-.049,1.1-.049,1.1h-3.895l-.109-1.238Z" transform="translate(-339.73 -319.825)" fill="#407bff"/>
      <path id="Path_14572" data-name="Path 14572" d="M408.7,381.82c.087.171.457,1.247.457,1.247l-3.835,1.162-.629-1.034Z" transform="translate(-378.326 -309.49)" fill="#407bff"/>
    </g>
  </g>
</svg>
