<svg xmlns="http://www.w3.org/2000/svg" width="107.917" height="80.411" viewBox="0 0 107.917 80.411">
  <g id="Work_time-rafiki" data-name="Work time-rafiki" transform="translate(0 -55)">
    <g id="freepik--background-complete--inject-443" transform="translate(0 55)">
      <rect id="Rectangle_6240" data-name="Rectangle 6240" width="107.917" height="0.054" transform="translate(0 70.664)" fill="#ebebeb"/>
      <rect id="Rectangle_6241" data-name="Rectangle 6241" width="7.148" height="0.054" transform="translate(89.955 74.137)" fill="#ebebeb"/>
      <rect id="Rectangle_6242" data-name="Rectangle 6242" width="1.876" height="0.054" transform="translate(69.613 74.724)" fill="#ebebeb"/>
      <rect id="Rectangle_6243" data-name="Rectangle 6243" width="4.142" height="0.054" transform="translate(85.598 72.134)" fill="#ebebeb"/>
      <rect id="Rectangle_6244" data-name="Rectangle 6244" width="9.322" height="0.054" transform="translate(11.323 72.497)" fill="#ebebeb"/>
      <rect id="Rectangle_6245" data-name="Rectangle 6245" width="1.366" height="0.054" transform="translate(22.568 72.497)" fill="#ebebeb"/>
      <rect id="Rectangle_6246" data-name="Rectangle 6246" width="20.219" height="0.054" transform="translate(28.376 73.407)" fill="#ebebeb"/>
      <path id="Path_16179" data-name="Path 16179" d="M81.116,116.038H39.44a1.232,1.232,0,0,1-1.23-1.232V56.222A1.232,1.232,0,0,1,39.44,55H81.116a1.232,1.232,0,0,1,1.232,1.232v58.573A1.232,1.232,0,0,1,81.116,116.038ZM39.44,55.043a1.178,1.178,0,0,0-1.176,1.178v58.584a1.178,1.178,0,0,0,1.176,1.178H81.116a1.181,1.181,0,0,0,1.178-1.178V56.222a1.181,1.181,0,0,0-1.178-1.178Z" transform="translate(-29.963 -55)" fill="#ebebeb"/>
      <path id="Path_16180" data-name="Path 16180" d="M297.41,116.038H255.732a1.235,1.235,0,0,1-1.232-1.232V56.222A1.235,1.235,0,0,1,255.732,55H297.41a1.232,1.232,0,0,1,1.228,1.222v58.584A1.232,1.232,0,0,1,297.41,116.038ZM255.732,55.043a1.181,1.181,0,0,0-1.178,1.178v58.584a1.181,1.181,0,0,0,1.178,1.178H297.41a1.181,1.181,0,0,0,1.178-1.178V56.222a1.181,1.181,0,0,0-1.178-1.178Z" transform="translate(-199.57 -55)" fill="#ebebeb"/>
      <circle id="Ellipse_1470" data-name="Ellipse 1470" cx="11.314" cy="11.314" r="11.314" transform="translate(66.239 6.564)" fill="#e0e0e0"/>
      <circle id="Ellipse_1471" data-name="Ellipse 1471" cx="11.314" cy="11.314" r="11.314" transform="translate(65.38 6.564)" fill="#f5f5f5"/>
      <circle id="Ellipse_1472" data-name="Ellipse 1472" cx="10.457" cy="10.457" r="10.457" transform="translate(61.907 17.879) rotate(-45)" fill="#fff"/>
      <path id="Path_16181" data-name="Path 16181" d="M356.211,144.556a.252.252,0,0,1-.246-.194l-1.783-7.356a.255.255,0,0,1,.494-.121l1.781,7.358a.255.255,0,0,1-.188.306.268.268,0,0,1-.058.006Z" transform="translate(-277.734 -119.069)" fill="#f5f5f5"/>
      <path id="Path_16182" data-name="Path 16182" d="M331.269,114.262a.505.505,0,0,1-.358-.149l-6.119-6.119a.507.507,0,1,1,.719-.717l5.758,5.761,3.361-3.361a.507.507,0,0,1,.717.719l-3.719,3.717A.507.507,0,0,1,331.269,114.262Z" transform="translate(-254.575 -95.878)" fill="#ebebeb"/>
      <rect id="Rectangle_6247" data-name="Rectangle 6247" width="1.705" height="11.677" transform="translate(49.512 69.088) rotate(180)" fill="#f0f0f0"/>
      <rect id="Rectangle_6248" data-name="Rectangle 6248" width="35.069" height="1.576" transform="translate(48.388 70.664) rotate(180)" fill="#f0f0f0"/>
      <rect id="Rectangle_6249" data-name="Rectangle 6249" width="35.615" height="11.677" transform="translate(12.192 57.412)" fill="#f5f5f5"/>
      <rect id="Rectangle_6250" data-name="Rectangle 6250" width="31.007" height="6.669" transform="translate(14.495 59.445)" fill="#f0f0f0"/>
      <rect id="Rectangle_6251" data-name="Rectangle 6251" width="16.11" height="1.118" rx="0.559" transform="translate(38.056 60.336) rotate(180)" fill="#f5f5f5"/>
      <rect id="Rectangle_6252" data-name="Rectangle 6252" width="36.396" height="1.042" transform="translate(47.807 57.412) rotate(180)" fill="#f0f0f0"/>
      <rect id="Rectangle_6253" data-name="Rectangle 6253" width="2.523" height="1.042" transform="translate(47.807 56.369)" fill="#e6e6e6"/>
      <rect id="Rectangle_6254" data-name="Rectangle 6254" width="3.324" height="25.581" transform="translate(89.418 45.083)" fill="#f0f0f0"/>
      <rect id="Rectangle_6255" data-name="Rectangle 6255" width="29.092" height="25.581" transform="translate(89.418 70.664) rotate(180)" fill="#f5f5f5"/>
      <rect id="Rectangle_6256" data-name="Rectangle 6256" width="25.542" height="13.682" transform="translate(85.602 68.417) rotate(180)" fill="#fafafa"/>
      <rect id="Rectangle_6257" data-name="Rectangle 6257" width="25.542" height="4.504" transform="translate(85.602 53.285) rotate(180)" fill="#fafafa"/>
      <rect id="Rectangle_6258" data-name="Rectangle 6258" width="0.229" height="13.682" transform="translate(85.602 54.736)" fill="#e6e6e6" opacity="0.7"/>
      <rect id="Rectangle_6259" data-name="Rectangle 6259" width="0.229" height="4.504" transform="translate(85.602 48.781)" fill="#e6e6e6" opacity="0.7"/>
      <rect id="Rectangle_6260" data-name="Rectangle 6260" width="32.49" height="0.578" transform="translate(60.252 46.163)" fill="#e6e6e6" opacity="0.7"/>
      <rect id="Rectangle_6261" data-name="Rectangle 6261" width="3.712" height="1.673" transform="translate(89.418 44.734)" fill="#f0f0f0"/>
      <rect id="Rectangle_6262" data-name="Rectangle 6262" width="29.481" height="1.673" transform="translate(89.418 46.406) rotate(180)" fill="#f5f5f5"/>
      <path id="Path_16183" data-name="Path 16183" d="M327.294,210.316a2.688,2.688,0,0,1-.388-1.04,5.248,5.248,0,0,1-.056-1.118,7.372,7.372,0,0,1,.471-2.171,10.758,10.758,0,0,1,.432-1.014c.173-.324.345-.648.54-.956s.408-.606.628-.9a8.691,8.691,0,0,1,.725-.82,10.634,10.634,0,0,1-.432,1c-.158.328-.281.658-.432.978l-.419.971-.192.49-.1.244-.086.246a13.328,13.328,0,0,0-.585,1.994,7.481,7.481,0,0,0-.151,1.03A3.981,3.981,0,0,0,327.294,210.316Z" transform="translate(-256.297 -170.508)" fill="#e6e6e6"/>
      <path id="Path_16184" data-name="Path 16184" d="M297.391,226a5.559,5.559,0,0,0-.136-1.552,3.078,3.078,0,0,0-.632-1.26,4.258,4.258,0,0,0-1.14-.9c-.442-.257-.93-.458-1.433-.695a3.95,3.95,0,0,1,1.658.177,3.605,3.605,0,0,1,.786.367,3.166,3.166,0,0,1,.676.585,2.741,2.741,0,0,1,.647,1.647,2.787,2.787,0,0,1-.425,1.63Z" transform="translate(-230.584 -185.624)" fill="#e6e6e6"/>
      <path id="Path_16185" data-name="Path 16185" d="M299.782,219.634a14.307,14.307,0,0,0-.171-1.813,7.1,7.1,0,0,0-.473-1.664,5.238,5.238,0,0,0-.915-1.433,8.4,8.4,0,0,0-1.364-1.174,3.762,3.762,0,0,1,1.748.76,3.984,3.984,0,0,1,1.189,1.563,4.684,4.684,0,0,1,.373,1.906A4.5,4.5,0,0,1,299.782,219.634Z" transform="translate(-232.787 -179.33)" fill="#e6e6e6"/>
      <path id="Path_16186" data-name="Path 16186" d="M318.746,205.036a10.148,10.148,0,0,1-1.187-1.966,14.1,14.1,0,0,1-.8-2.158,12.239,12.239,0,0,1-.417-2.271,8.387,8.387,0,0,1,.106-2.3c.158.758.278,1.489.451,2.217s.345,1.444.55,2.158.412,1.429.635,2.143S318.532,204.3,318.746,205.036Z" transform="translate(-248.037 -165.834)" fill="#e6e6e6"/>
      <path id="Path_16187" data-name="Path 16187" d="M314.02,207.2a10.36,10.36,0,0,1-1.42-1.727,14.3,14.3,0,0,1-1.079-1.958,12.13,12.13,0,0,1-.742-2.117,8.259,8.259,0,0,1-.248-2.23c.272.7.507,1.386.786,2.057s.555,1.336.863,1.994.607,1.314.922,1.975S313.72,206.515,314.02,207.2Z" transform="translate(-243.505 -168.053)" fill="#e6e6e6"/>
      <path id="Path_16188" data-name="Path 16188" d="M313.272,216.3a8.093,8.093,0,0,1-1.673-1.178,10.91,10.91,0,0,1-1.388-1.511,9.438,9.438,0,0,1-1.079-1.753,6.637,6.637,0,0,1-.583-1.966c.371.581.7,1.148,1.079,1.69s.747,1.079,1.15,1.6.807,1.034,1.226,1.548S312.849,215.759,313.272,216.3Z" transform="translate(-241.954 -176.459)" fill="#e6e6e6"/>
      <path id="Path_16189" data-name="Path 16189" d="M309.364,215.031a5.918,5.918,0,0,1-1.614-.993,7.932,7.932,0,0,1-1.3-1.386,8.471,8.471,0,0,1-.527-.8,7.88,7.88,0,0,1-.417-.863,5.932,5.932,0,0,1-.451-1.843c.339.542.617,1.079.954,1.584.151.261.332.5.49.758a8.223,8.223,0,0,0,.527.73q.535.721,1.122,1.414C308.533,214.1,308.932,214.559,309.364,215.031Z" transform="translate(-239.218 -175.879)" fill="#e6e6e6"/>
      <path id="Path_16190" data-name="Path 16190" d="M325.52,211.542a1.971,1.971,0,0,1-.648-.773,3.628,3.628,0,0,1-.313-.976,5.428,5.428,0,0,1,.056-2.02,9.763,9.763,0,0,1,.259-.965c.123-.309.233-.622.38-.917a9.855,9.855,0,0,1,.477-.863,9.671,9.671,0,0,1,.581-.8c-.069.326-.166.635-.259.943s-.171.619-.272.919-.162.611-.255.911l-.106.455c-.037.151-.08.3-.1.455a8.709,8.709,0,0,0-.2,1.824,4.666,4.666,0,0,0,.082.913A2.775,2.775,0,0,0,325.52,211.542Z" transform="translate(-254.455 -172.021)" fill="#e6e6e6"/>
      <path id="Path_16191" data-name="Path 16191" d="M322.976,207.694a4.269,4.269,0,0,1-1-1.787,5.329,5.329,0,0,1-.188-2.081c.011-.175.054-.345.082-.518l.05-.259.076-.25c.056-.166.1-.332.166-.494s.145-.317.216-.473l.117-.231.14-.216.285-.432a7.886,7.886,0,0,1,.689-.753c-.112.326-.261.622-.382.928l-.171.46-.086.216-.069.233c-.045.153-.093.306-.142.458l-.106.464-.056.231-.032.233c-.019.155-.058.311-.067.466a8.017,8.017,0,0,0,.026,1.889A8.932,8.932,0,0,0,322.976,207.694Z" transform="translate(-252.312 -168.861)" fill="#e6e6e6"/>
      <path id="Path_16192" data-name="Path 16192" d="M311.943,223.7l-3.093-2.752.458,3.736Z" transform="translate(-242.19 -185.132)" fill="#e6e6e6"/>
      <path id="Path_16193" data-name="Path 16193" d="M295.56,231.37h8.974l-1.176,6.667h-6.622Z" transform="translate(-231.768 -193.303)" fill="#f5f5f5"/>
      <path id="Path_16194" data-name="Path 16194" d="M321.54,231.37h3.367l-1.176,6.667h-1.768Z" transform="translate(-252.141 -193.303)" fill="#ebebeb"/>
      <path id="Path_16195" data-name="Path 16195" d="M360.49,218.61a2.422,2.422,0,0,0-.037-.885,3.67,3.67,0,0,0-.265-.805,6.69,6.69,0,0,0-.913-1.437c-.082-.119-.188-.216-.281-.33s-.188-.216-.287-.33c-.216-.216-.4-.432-.615-.647s-.419-.432-.635-.648-.432-.432-.647-.667c.291.11.568.246.848.384a9.1,9.1,0,0,1,.792.49,4.336,4.336,0,0,1,.371.285c.121.1.24.2.358.3a7.553,7.553,0,0,1,.647.693,4.532,4.532,0,0,1,.887,1.707,2.942,2.942,0,0,1,.084.971A1.744,1.744,0,0,1,360.49,218.61Z" transform="translate(-279.798 -178.788)" fill="#e6e6e6"/>
      <path id="Path_16196" data-name="Path 16196" d="M395.111,218.38a1.612,1.612,0,0,1-.486-.738,2.012,2.012,0,0,1-.1-.455,2.169,2.169,0,0,1,0-.237.955.955,0,0,1,.022-.235,2.922,2.922,0,0,1,.915-1.589c.108-.106.231-.19.345-.285a2.749,2.749,0,0,1,.363-.255c.125-.073.25-.149.38-.216.063-.035.125-.073.192-.1l.2-.084c.134-.056.268-.108.4-.16a2.743,2.743,0,0,1,.41-.13,8.131,8.131,0,0,1,.844-.173,7.72,7.72,0,0,1-.7.492c-.119.071-.231.151-.343.233s-.216.155-.341.231c-.235.14-.432.319-.647.471a2.848,2.848,0,0,0-.306.248,3.53,3.53,0,0,0-.3.255,3.338,3.338,0,0,0-.863,1.2,2.674,2.674,0,0,0-.1.354,2.435,2.435,0,0,0-.03.378A2.375,2.375,0,0,0,395.111,218.38Z" transform="translate(-309.373 -179.463)" fill="#e6e6e6"/>
      <path id="Path_16197" data-name="Path 16197" d="M393.973,213.926a2.922,2.922,0,0,1-.6-1.77,3.669,3.669,0,0,1,.483-1.871l.259-.41c.1-.127.205-.248.311-.369l.162-.179.177-.155.363-.3a8.5,8.5,0,0,1,.8-.49,8.6,8.6,0,0,1,.863-.337,7.808,7.808,0,0,1-.663.626c-.231.194-.419.417-.622.622-.095.112-.188.216-.285.326l-.145.158-.123.173c-.082.114-.173.216-.253.337l-.216.356a4.606,4.606,0,0,0-.546,1.552,4.926,4.926,0,0,0,.041,1.737Z" transform="translate(-308.466 -175.009)" fill="#e6e6e6"/>
      <path id="Path_16198" data-name="Path 16198" d="M375.14,208.466c.179-.667.373-1.31.561-1.943s.371-1.278.54-1.917.309-1.282.432-1.943a19.5,19.5,0,0,0,.248-1.994,5.827,5.827,0,0,1,.315,2.05,9.677,9.677,0,0,1-.3,2.055,11.159,11.159,0,0,1-.71,1.943A8.487,8.487,0,0,1,375.14,208.466Z" transform="translate(-294.172 -169.229)" fill="#e6e6e6"/>
      <path id="Path_16199" data-name="Path 16199" d="M376.18,208.483c.281-.648.583-1.3.881-1.914s.6-1.25.885-1.876.563-1.254.82-1.891.477-1.295.693-1.973a6.551,6.551,0,0,1-.153,2.139,11.245,11.245,0,0,1-.706,2.025,13.425,13.425,0,0,1-1.051,1.856A9.781,9.781,0,0,1,376.18,208.483Z" transform="translate(-294.988 -169.355)" fill="#e6e6e6"/>
      <path id="Path_16200" data-name="Path 16200" d="M372.11,215.658c.421-.578.863-1.124,1.3-1.671s.863-1.079,1.282-1.63.829-1.1,1.222-1.662.751-1.148,1.116-1.766a6.566,6.566,0,0,1-.628,2.05,11.2,11.2,0,0,1-1.14,1.815,13.441,13.441,0,0,1-1.44,1.573A9.805,9.805,0,0,1,372.11,215.658Z" transform="translate(-291.796 -175.707)" fill="#e6e6e6"/>
      <path id="Path_16201" data-name="Path 16201" d="M378.23,213.321c.412-.516.824-1,1.23-1.5s.8-.984,1.183-1.483.74-1.012,1.079-1.537.647-1.079.98-1.653a5.735,5.735,0,0,1-.483,1.921,8.4,8.4,0,0,1-1.017,1.705,9.928,9.928,0,0,1-1.351,1.44A7.439,7.439,0,0,1,378.23,213.321Z" transform="translate(-296.595 -174.311)" fill="#e6e6e6"/>
      <path id="Path_16202" data-name="Path 16202" d="M366.965,217.953a3.123,3.123,0,0,0,.328-1.511,3.769,3.769,0,0,0-.376-1.437l-.073-.175-.093-.168-.181-.341c-.145-.216-.274-.447-.432-.669s-.3-.445-.46-.667a8.3,8.3,0,0,1-.468-.695,7.85,7.85,0,0,1,.721.449,7.408,7.408,0,0,1,.647.555,3.362,3.362,0,0,1,.287.319q.138.166.272.337l.231.373.11.19.091.2a3.112,3.112,0,0,1,.281,1.761A2.158,2.158,0,0,1,366.965,217.953Z" transform="translate(-286.385 -178.341)" fill="#e6e6e6"/>
      <path id="Path_16203" data-name="Path 16203" d="M369.468,214.018a8.141,8.141,0,0,0,.363-1.647,4.259,4.259,0,0,0-.114-1.558,3.605,3.605,0,0,0-.281-.723,4.368,4.368,0,0,0-.419-.676,11.369,11.369,0,0,0-1.127-1.265,3.854,3.854,0,0,1,1.548.889,3.4,3.4,0,0,1,.591.717,3.215,3.215,0,0,1,.38.863,3.416,3.416,0,0,1-.028,1.858A3.453,3.453,0,0,1,369.468,214.018Z" transform="translate(-288.487 -175.095)" fill="#e6e6e6"/>
      <path id="Path_16204" data-name="Path 16204" d="M380.09,221.192l3.376-3.242-.136,3.179Z" transform="translate(-298.054 -182.78)" fill="#e6e6e6"/>
      <path id="Path_16205" data-name="Path 16205" d="M362.98,231.37h8.974l-1.176,6.667h-6.622Z" transform="translate(-284.637 -193.303)" fill="#f5f5f5"/>
      <path id="Path_16206" data-name="Path 16206" d="M388.95,231.37h3.369l-1.176,6.667h-1.768Z" transform="translate(-305.001 -193.303)" fill="#ebebeb"/>
      <path id="Path_16207" data-name="Path 16207" d="M83.952,90.72v34.965a5.482,5.482,0,0,1-5.482,5.482h25.468a5.484,5.484,0,0,0,5.484-5.482V90.72Z" transform="translate(-61.533 -83.01)" fill="#f5f5f5"/>
      <rect id="Rectangle_6263" data-name="Rectangle 6263" width="16.457" height="16.457" transform="translate(27.435 16.561)" fill="#f0f0f0"/>
      <rect id="Rectangle_6264" data-name="Rectangle 6264" width="16.457" height="16.457" transform="translate(26.93 16.054)" fill="#fff"/>
      <rect id="Rectangle_6265" data-name="Rectangle 6265" width="4.185" height="4.185" transform="translate(26.785 34.948)" fill="#fff"/>
      <rect id="Rectangle_6266" data-name="Rectangle 6266" width="4.185" height="4.185" transform="translate(39.2 34.948)" fill="#fff"/>
      <rect id="Rectangle_6267" data-name="Rectangle 6267" width="4.185" height="4.185" transform="translate(32.992 34.948)" fill="#fff"/>
      <rect id="Rectangle_6268" data-name="Rectangle 6268" width="25.475" height="4.161" transform="translate(22.419 7.71)" fill="#f0f0f0"/>
      <path id="Path_16208" data-name="Path 16208" d="M111,81.825V84.5a.742.742,0,0,0,.745.745h0a.745.745,0,0,0,.745-.745V81.825a.747.747,0,0,0-.745-.745h0A.745.745,0,0,0,111,81.825Z" transform="translate(-87.042 -75.451)" fill="#e6e6e6"/>
      <path id="Path_16209" data-name="Path 16209" d="M207.92,81.825V84.5a.745.745,0,0,0,.745.745h0a.742.742,0,0,0,.745-.745V81.825a.745.745,0,0,0-.745-.745h0A.747.747,0,0,0,207.92,81.825Z" transform="translate(-163.044 -75.451)" fill="#e6e6e6"/>
      <path id="Path_16210" data-name="Path 16210" d="M188.53,81.825V84.5a.745.745,0,0,0,.745.745h0a.745.745,0,0,0,.745-.745V81.825a.747.747,0,0,0-.74-.745h0A.747.747,0,0,0,188.53,81.825Z" transform="translate(-147.839 -75.451)" fill="#e6e6e6"/>
      <path id="Path_16211" data-name="Path 16211" d="M169.14,81.825V84.5a.742.742,0,0,0,.745.745h0a.742.742,0,0,0,.736-.745V81.825a.745.745,0,0,0-.742-.745h0A.745.745,0,0,0,169.14,81.825Z" transform="translate(-132.634 -75.451)" fill="#e6e6e6"/>
      <path id="Path_16212" data-name="Path 16212" d="M149.75,81.825V84.5a.742.742,0,0,0,.742.745h0a.742.742,0,0,0,.745-.745V81.825a.745.745,0,0,0-.745-.745h0A.745.745,0,0,0,149.75,81.825Z" transform="translate(-117.429 -75.451)" fill="#e6e6e6"/>
      <path id="Path_16213" data-name="Path 16213" d="M130.35,81.825V84.5a.745.745,0,0,0,.745.745h0a.745.745,0,0,0,.745-.745V81.825a.747.747,0,0,0-.745-.745h0A.747.747,0,0,0,130.35,81.825Z" transform="translate(-102.216 -75.451)" fill="#e6e6e6"/>
      <path id="Path_16214" data-name="Path 16214" d="M81.725,267.44a2.294,2.294,0,0,0,2.294,2.294H55.354a2.294,2.294,0,0,1-2.294-2.294Z" transform="translate(-41.608 -221.588)" fill="#e6e6e6"/>
    </g>
    <g id="freepik--Shadow--inject-443" transform="translate(12.11 130.525)">
      <ellipse id="freepik--path--inject-443" cx="41.848" cy="2.443" rx="41.848" ry="2.443" fill="#f5f5f5"/>
    </g>
    <g id="freepik--Hourglass--inject-443" transform="translate(27.867 73.763)">
      <path id="Path_16215" data-name="Path 16215" d="M216.511,320.73S196.1,332.781,196.1,344.2h40.827C236.924,332.781,216.511,320.73,216.511,320.73Z" transform="translate(-191.987 -293.231)" fill="#407bff" opacity="0.2"/>
      <path id="Path_16216" data-name="Path 16216" d="M220.577,372.5s-18.847,4.669-18.847,9.09h37.694C239.424,377.169,220.577,372.5,220.577,372.5Z" transform="translate(-196.053 -330.623)" fill="#407bff" opacity="0.2"/>
      <path id="Path_16217" data-name="Path 16217" d="M278.51,332.71c3.833,3.769,11.282,12.12,11.282,20.141h-5.108C284.684,344.83,280.607,336.479,278.51,332.71Z" transform="translate(-251.509 -301.884)" fill="#fff" opacity="0.3"/>
      <path id="Path_16218" data-name="Path 16218" d="M216.511,259.7S196.1,247.648,196.1,236.23h40.827C236.924,247.648,216.511,259.7,216.511,259.7Z" transform="translate(-191.987 -232.2)" fill="#407bff" opacity="0.2"/>
      <path id="Path_16219" data-name="Path 16219" d="M242.491,291.418s-10.421-5-10.421-9.749h20.844C252.914,286.411,242.491,291.418,242.491,291.418Z" transform="translate(-217.967 -265.02)" fill="#407bff" opacity="0.2"/>
      <path id="Path_16220" data-name="Path 16220" d="M232.271,256.371C228.441,252.6,221,244.251,221,236.23h5.108C226.1,244.251,230.165,252.6,232.271,256.371Z" transform="translate(-209.971 -232.2)" fill="#fff" opacity="0.3"/>
      <path id="Path_16221" data-name="Path 16221" d="M278.51,256.371c3.833-3.769,11.1-13.087,11.282-20.141h-1.361C287.792,244.831,281.543,252.725,278.51,256.371Z" transform="translate(-251.509 -232.2)" fill="#fff" opacity="0.3"/>
      <rect id="Rectangle_6269" data-name="Rectangle 6269" width="2.314" height="0.278" transform="translate(39.852 0)" fill="#407bff"/>
      <path id="Path_16222" data-name="Path 16222" d="M345.125,225.536h-.278A3.541,3.541,0,0,0,341.311,222H338.87v-.278h2.441A3.822,3.822,0,0,1,345.125,225.536Z" transform="translate(-295.104 -221.72)" fill="#407bff"/>
      <rect id="Rectangle_6270" data-name="Rectangle 6270" width="49.048" height="6.116" rx="3.058" transform="translate(0 0.972)" fill="#407bff"/>
      <rect id="Rectangle_6271" data-name="Rectangle 6271" width="49.048" height="6.116" rx="3.058" transform="translate(0 47.909)" fill="#407bff"/>
    </g>
    <g id="freepik--Character--inject-443" transform="translate(17.387 57.025)">
      <path id="Path_16223" data-name="Path 16223" d="M134.74,283.553l-.8-.71,1.363-2.093.8.709Z" transform="translate(-132.126 -257.129)" fill="#ff8b7b"/>
      <path id="Path_16224" data-name="Path 16224" d="M120.537,290.115l1.017.708a.078.078,0,0,1,.025.107l-.509.84a.2.2,0,0,1-.27.051c-.354-.251-.485-.374-.908-.716a15.726,15.726,0,0,1-1.2-1.048c-.314-.325.018-.64.184-.528a3.033,3.033,0,0,0,1.471.537A.307.307,0,0,1,120.537,290.115Z" transform="translate(-118.557 -264.85)" fill="#263238"/>
      <path id="Path_16225" data-name="Path 16225" d="M141.385,281.46l-.8-.71-.656,1.008.82.68Z" transform="translate(-137.409 -257.129)" opacity="0.2"/>
      <path id="Path_16226" data-name="Path 16226" d="M150.1,197.873s-5.366-.367-6.031,1.452c-1.513,4.135-3.481,8.521-3.481,8.521l1.581,1.145s3.343-5.112,4.364-8.394c2.064.5,5.8.929,7-.451a1.847,1.847,0,0,0,.258-2.273Z" transform="translate(-137.992 -183.999)" fill="#263238"/>
      <path id="Path_16227" data-name="Path 16227" d="M179.043,225.35c-.125.5-.315,1.951-.433,2.909.261-.5.508-1.017.731-1.517Z" transform="translate(-171.528 -208.262)" opacity="0.3"/>
      <path id="Path_16228" data-name="Path 16228" d="M139.724,280.354l-1.794-1.406.367-.788,2,1.532Z" transform="translate(-135.645 -254.844)" fill="#407bff"/>
      <path id="Path_16229" data-name="Path 16229" d="M130.656,291.686a1.445,1.445,0,0,0,.264.136.026.026,0,0,0,.033-.033c-.015-.04-.15-.393-.29-.427a.1.1,0,0,0-.091.026.144.144,0,0,0-.053.133A.3.3,0,0,0,130.656,291.686Zm.228.065c-.185-.08-.3-.169-.314-.236a.092.092,0,0,1,.038-.086.045.045,0,0,1,.044-.013C130.727,291.435,130.824,291.61,130.883,291.751Z" transform="translate(-129.107 -266.487)" fill="#407bff"/>
      <path id="Path_16230" data-name="Path 16230" d="M133.555,291.337a.02.02,0,0,0,.012,0,.027.027,0,0,0,.024-.009c.008-.009.209-.256.179-.408a.13.13,0,0,0-.07-.091.1.1,0,0,0-.118.011.568.568,0,0,0-.033.484A.031.031,0,0,0,133.555,291.337Zm.131-.452a.077.077,0,0,1,.033.049c.018.09-.078.244-.14.329a.522.522,0,0,1,.035-.382c.012-.011.028-.021.063,0Z" transform="translate(-131.748 -266.005)" fill="#407bff"/>
      <path id="Path_16231" data-name="Path 16231" d="M191.353,295.887l-1.032.206-.191-2.763,1.048.033Z" transform="translate(-181.689 -268.225)" fill="#ff8b7b"/>
      <path id="Path_16232" data-name="Path 16232" d="M178.543,309.785l1.179-.5a.08.08,0,0,1,.108.039l.451.906a.2.2,0,0,1-.1.264c-.413.166-.618.224-1.136.443a14.7,14.7,0,0,1-1.639.638c-.46.114-.564-.347-.377-.436a4.18,4.18,0,0,0,1.369-1.217A.327.327,0,0,1,178.543,309.785Z" transform="translate(-170.052 -282.294)" fill="#263238"/>
      <path id="Path_16233" data-name="Path 16233" d="M185.756,314.653a1.448,1.448,0,0,0,.263-.156.026.026,0,0,0-.011-.047c-.042-.009-.425-.086-.532.018a.1.1,0,0,0-.027.093.145.145,0,0,0,.086.118A.309.309,0,0,0,185.756,314.653Zm.18-.163c-.171.118-.311.169-.381.142a.093.093,0,0,1-.054-.08.047.047,0,0,1,.012-.046C185.571,314.45,185.784,314.464,185.937,314.49Z" transform="translate(-177.559 -286.823)" fill="#407bff"/>
      <path id="Path_16234" data-name="Path 16234" d="M187.085,311.975a.037.037,0,0,0,.011-.008.027.027,0,0,0,0-.025c0-.013-.109-.324-.257-.382a.131.131,0,0,0-.118.011.1.1,0,0,0-.057.111c.024.118.272.277.4.295A.023.023,0,0,0,187.085,311.975Zm-.322-.364a.079.079,0,0,1,.061,0c.088.034.17.2.21.3-.118-.039-.3-.16-.314-.243a.054.054,0,0,1,.032-.054Z" transform="translate(-178.63 -284.297)" fill="#407bff"/>
      <path id="Path_16235" data-name="Path 16235" d="M191.18,293.364l-1.05-.034.1,1.443,1.045-.019Z" transform="translate(-181.689 -268.225)" opacity="0.2"/>
      <path id="Path_16236" data-name="Path 16236" d="M188.025,198.1s-7.666.725-7.39,3.033c.4,3.329.7,9.159.7,9.159l1.954.077a40.371,40.371,0,0,0,.3-8.535c1.985,0,6.3.1,7.055-.921a3.649,3.649,0,0,0,.484-2.813Z" transform="translate(-173.308 -184.226)" fill="#263238"/>
      <path id="Path_16237" data-name="Path 16237" d="M186.839,294.647l-2.346-.117-.084-1.02,2.572.177Z" transform="translate(-176.644 -268.384)" fill="#407bff"/>
      <path id="Path_16238" data-name="Path 16238" d="M182.175,134.387c-.017.211-.035.4-.061.6s-.051.389-.081.584c-.057.388-.134.774-.222,1.162a10.93,10.93,0,0,1-.329,1.165,6.209,6.209,0,0,1-.534,1.179,2.948,2.948,0,0,1-.472.6,1.815,1.815,0,0,1-.152.127c-.048.04-.1.074-.146.108a3.005,3.005,0,0,1-.294.183,5.71,5.71,0,0,1-1.179.48c-.195.06-.39.108-.59.152s-.389.081-.59.112a9.489,9.489,0,0,1-1.179.118.4.4,0,0,1-.142-.787l.015-.006a18.944,18.944,0,0,0,2.032-.774,5.544,5.544,0,0,0,.87-.493c.063-.045.118-.091.175-.137.026-.022.053-.045.075-.068a.667.667,0,0,0,.059-.06,1.619,1.619,0,0,0,.2-.308,5.073,5.073,0,0,0,.343-.907c.1-.331.178-.677.246-1.028s.13-.708.188-1.068.1-.729.142-1.071v-.02a.81.81,0,0,1,1.611.16Z" transform="translate(-169.16 -127.271)" fill="#407bff"/>
      <path id="Path_16239" data-name="Path 16239" d="M175.41,188l-.59.037.472,1.085s1.02-.022,1-.525l-.184-.236A.96.96,0,0,0,175.41,188Z" transform="translate(-168.185 -175.317)" fill="#ff8b7b"/>
      <path id="Path_16240" data-name="Path 16240" d="M169.34,188.417l.509,1h.607l-.472-1.085Z" transform="translate(-163.351 -175.608)" fill="#ff8b7b"/>
      <path id="Path_16241" data-name="Path 16241" d="M216.686,123.7l1.14-.236.908-.131a1.684,1.684,0,0,1,.393-.018,1.719,1.719,0,0,1,1.5,1.256c.228.826.433,1.839.59,2.736a33.623,33.623,0,0,1,.354,4.822h-5.4a33.074,33.074,0,0,0-1-6.3,1.724,1.724,0,0,1,.954-1.862Z" transform="translate(-203.756 -118.259)" fill="#407bff"/>
      <path id="Path_16242" data-name="Path 16242" d="M223.83,128.25a9.135,9.135,0,0,0,.662,3.342,26.9,26.9,0,0,1,1.238-3.892Z" transform="translate(-211.415 -122.128)" fill="#f5f5f5"/>
      <path id="Path_16243" data-name="Path 16243" d="M255.2,134.4h0a.159.159,0,0,0-.007-.057l-.011-.085c-.006-.046-.012-.092-.018-.136l-.018-.126-.018-.118a.691.691,0,0,0-.015-.1c-.012-.075-.024-.149-.037-.221-.039-.221-.08-.449-.125-.679v-.019c-.045-.236-.091-.463-.14-.693v-.015c-.02-.1-.041-.2-.064-.294l-.025-.109-.042-.187-.035-.146-.007-.031h0c-.047-.193-.1-.383-.145-.563l-.82-.432c.094.362.184.761.269,1.169a1.2,1.2,0,0,0-.269.192c-.2.175-.189.546.007.986a10.9,10.9,0,0,1,.884,3.976c.025.555.04,1.118.047,1.664h.826C255.419,137.024,255.343,135.566,255.2,134.4Z" transform="translate(-237.616 -124.501)" opacity="0.3"/>
      <path id="Path_16244" data-name="Path 16244" d="M224.76,107.34l-.464.708-.63.961a.984.984,0,0,1,.195.284c.118.236.21.406-.277.737a.271.271,0,0,0-.084.307c.028.151.118.309.642.216a2.424,2.424,0,0,0,1.318-.731c.175-.176.134-.307-.034-.488A3.328,3.328,0,0,1,224.76,107.34Z" transform="translate(-211.114 -104.17)" fill="#ff8b7b"/>
      <path id="Path_16245" data-name="Path 16245" d="M224.83,132.737l.334.21.542-.23a.876.876,0,0,0-.472-.246A.934.934,0,0,0,224.83,132.737Z" transform="translate(-212.297 -126.336)" fill="#263238"/>
      <path id="Path_16246" data-name="Path 16246" d="M228.21,124.478a.993.993,0,0,1,.487.6s1.192-.9,1.217-1.5c-.064-.2-.362-.167-.362-.167A2.985,2.985,0,0,1,228.21,124.478Z" transform="translate(-215.278 -118.344)" fill="#fff"/>
      <path id="Path_16247" data-name="Path 16247" d="M223.381,127.672a.6.6,0,0,0-.377.59s-.531-.623-.1-1.093a1.567,1.567,0,0,1,.37-.138A.687.687,0,0,0,223.381,127.672Z" transform="translate(-210.45 -121.537)" fill="#fff"/>
      <path id="Path_16248" data-name="Path 16248" d="M226.327,135.68h-.152a16.076,16.076,0,0,0-.145,1.78,5.268,5.268,0,0,0,.32,1,.049.049,0,0,0,0,.012c.008.019.017.037.026.054.017.035.033.071.052.1a6.654,6.654,0,0,1,.254-1.077C226.525,136.872,226.327,135.68,226.327,135.68Z" transform="translate(-213.355 -129.167)" fill="#263238"/>
      <path id="Path_16249" data-name="Path 16249" d="M225.164,114.355l.387-.685c.007.017.017.037.026.055a1.876,1.876,0,0,1,.083.263,1.1,1.1,0,0,1-.426.943c-.011-.019-.02-.039-.031-.059a1.179,1.179,0,0,0-.178-.274l-.015-.012Z" transform="translate(-212.456 -109.753)" opacity="0.2"/>
      <path id="Path_16250" data-name="Path 16250" d="M207.39,97.482c-.093-.419.573-1,.573-1l-.789-.275C206.818,96.466,207.049,97.2,207.39,97.482Z" transform="translate(-196.566 -94.352)" fill="#263238"/>
      <path id="Path_16251" data-name="Path 16251" d="M211.382,87.933c.186,1.047.354,1.651-.04,2.32a1.381,1.381,0,0,1-2.445-.071c-.442-.863-.672-2.429.228-3.117a1.4,1.4,0,0,1,2.257.868Z" transform="translate(-197.899 -86.012)" fill="#ff8b7b"/>
      <path id="Path_16252" data-name="Path 16252" d="M225.259,88.4l-.5-.136v-.637s-.626-.354-.53-.8a4.837,4.837,0,0,1,.2-.731,4.869,4.869,0,0,1,1.3.064,2.157,2.157,0,0,1-.256.236,2.258,2.258,0,0,1,.6.616.826.826,0,0,0-.34.164S225.869,88.054,225.259,88.4Z" transform="translate(-211.762 -85.421)" fill="#263238"/>
      <path id="Path_16253" data-name="Path 16253" d="M223.34,80.457a.5.5,0,0,1,.153.649l.975.02C224.417,80.817,223.571,80.441,223.34,80.457Z" transform="translate(-210.983 -80.456)" fill="#263238"/>
      <path id="Path_16254" data-name="Path 16254" d="M201.017,82.376c-.07.2-.86.436-1.58.46a3.269,3.269,0,0,1-1.052-.2,1.2,1.2,0,0,1,.354-.251,2.012,2.012,0,0,1-1.138-.8,1.8,1.8,0,0,1,.991-.064,1.061,1.061,0,0,1-.374-.732s1.844.731,2.554.428c.771-.33,1.357.289.85.761S201.017,82.376,201.017,82.376Z" transform="translate(-188.278 -80.751)" fill="#263238"/>
      <path id="Path_16255" data-name="Path 16255" d="M231.771,100.115a.944.944,0,0,1-.211.637c-.191.228-.488.046-.557-.236a.724.724,0,0,1,.27-.774C231.524,99.619,231.758,99.828,231.771,100.115Z" transform="translate(-217.725 -97.436)" fill="#ff8b7b"/>
      <path id="Path_16256" data-name="Path 16256" d="M217.842,104.085a.152.152,0,0,1-.047.184c-.047.02-.118-.032-.145-.118a.149.149,0,0,1,.047-.184C217.744,103.947,217.814,104,217.842,104.085Z" transform="translate(-205.954 -101.191)" fill="#263238"/>
      <path id="Path_16257" data-name="Path 16257" d="M210.092,106.89c.026.081,0,.164-.047.183s-.118-.031-.145-.118,0-.164.047-.183S210.064,106.807,210.092,106.89Z" transform="translate(-199.118 -103.665)" fill="#263238"/>
      <path id="Path_16258" data-name="Path 16258" d="M213.625,107.43a2.759,2.759,0,0,1-.085.724.414.414,0,0,0,.344-.081Z" transform="translate(-202.338 -104.249)" fill="#a02724"/>
      <path id="Path_16259" data-name="Path 16259" d="M218.05,112.411a.749.749,0,0,0,.436-.384.026.026,0,0,0-.014-.033.025.025,0,0,0-.033.013.708.708,0,0,1-.5.382.025.025,0,0,0,.011.05A.771.771,0,0,0,218.05,112.411Z" transform="translate(-206.204 -108.272)" fill="#263238"/>
      <path id="Path_16260" data-name="Path 16260" d="M217.484,99.629a.051.051,0,0,0,.018-.018.05.05,0,0,0-.014-.07.489.489,0,0,0-.455-.047.051.051,0,1,0,.044.092.383.383,0,0,1,.354.04.051.051,0,0,0,.054,0Z" transform="translate(-205.393 -97.218)" fill="#263238"/>
      <path id="Path_16261" data-name="Path 16261" d="M207.353,103.173a.046.046,0,0,0,0-.025.051.051,0,0,0-.066-.027.484.484,0,0,0-.3.347.051.051,0,0,0,.1.017.388.388,0,0,1,.236-.27A.051.051,0,0,0,207.353,103.173Z" transform="translate(-196.561 -100.445)" fill="#263238"/>
      <path id="Path_16262" data-name="Path 16262" d="M248.666,127.394c.13.16.243.305.354.46s.226.308.335.465c.221.313.426.637.626.967a10.234,10.234,0,0,1,.554,1.039,6.4,6.4,0,0,1,.43,1.179,3.125,3.125,0,0,1,.092.722,2.776,2.776,0,0,1-.1.719,4.769,4.769,0,0,1-.509,1.16c-.1.173-.211.34-.326.5s-.236.316-.354.466a8.072,8.072,0,0,1-.8.847.4.4,0,0,1-.619-.5l.011-.018a13.66,13.66,0,0,0,.958-1.859,4.179,4.179,0,0,0,.264-.9,1.617,1.617,0,0,0,.015-.376,1.832,1.832,0,0,0-.08-.366,5.444,5.444,0,0,0-.383-.873c-.157-.3-.334-.59-.522-.888s-.387-.59-.59-.876l-.31-.432c-.1-.14-.212-.29-.31-.419l-.007-.009a.809.809,0,1,1,1.271-1Z" transform="translate(-232.043 -121.587)" fill="#407bff"/>
      <path id="Path_16263" data-name="Path 16263" d="M162.517,200.07l10.034-.454a.236.236,0,0,1,.251.229l-10.514.472a.236.236,0,0,1,.229-.246Z" transform="translate(-157.131 -185.563)" fill="#407bff"/>
      <g id="Group_8339" data-name="Group 8339" transform="translate(5.157 14.053)" opacity="0.6">
        <path id="Path_16264" data-name="Path 16264" d="M162.517,200.07l10.034-.454a.236.236,0,0,1,.251.229l-10.514.472a.236.236,0,0,1,.229-.246Z" transform="translate(-162.288 -199.616)" fill="#fff"/>
      </g>
      <path id="Path_16265" data-name="Path 16265" d="M149.812,161.583l7.138-.323a.223.223,0,0,1,.208.15l1.37,4.348a.118.118,0,0,1-.11.163l-7.139.323a.221.221,0,0,1-.206-.149l-1.37-4.349a.118.118,0,0,1,.108-.163Z" transform="translate(-146.023 -151.731)" fill="#407bff"/>
      <path id="Path_16266" data-name="Path 16266" d="M149.812,161.583l7.138-.323a.223.223,0,0,1,.208.15l1.37,4.348a.118.118,0,0,1-.11.163l-7.139.323a.221.221,0,0,1-.206-.149l-1.37-4.349a.118.118,0,0,1,.108-.163Z" transform="translate(-146.023 -151.731)" fill="#fff" opacity="0.6"/>
      <path id="Path_16267" data-name="Path 16267" d="M211.448,161.4l1.37,4.348a.118.118,0,0,1-.11.164l-1.468-4.662A.223.223,0,0,1,211.448,161.4Z" transform="translate(-200.31 -151.722)" fill="#407bff" opacity="0.5"/>
      <path id="Path_16268" data-name="Path 16268" d="M225.225,199.744l2.638-.118a.236.236,0,0,1,.251.229L225,200a.236.236,0,0,1,.229-.251Z" transform="translate(-212.443 -185.572)" fill="#407bff" opacity="0.5"/>
      <path id="Path_16269" data-name="Path 16269" d="M250.155,197.192l-.675.1.691.961s1.1-.176.971-.663l-.236-.2A.958.958,0,0,0,250.155,197.192Z" transform="translate(-234.04 -183.414)" fill="#ff8b7b"/>
      <path id="Path_16270" data-name="Path 16270" d="M242.48,198.4l.846.737.671-.064-.691-.961Z" transform="translate(-227.865 -184.235)" fill="#ff8b7b"/>
    </g>
  </g>
</svg>
