<svg xmlns="http://www.w3.org/2000/svg" width="80" height="80" viewBox="0 0 80 80">
  <g id="Group_7118" data-name="Group 7118" transform="translate(-400 -254)">
    <g id="Shipping" transform="translate(400 254)">
      <path id="Path_11444" data-name="Path 11444" d="M40,2.2A37.8,37.8,0,1,1,2.2,40,37.77,37.77,0,0,1,40,2.2M40,0A40,40,0,1,0,80,40,39.989,39.989,0,0,0,40,0Z" fill="#dfdbf2"/>
    </g>
    <g id="office-building" transform="translate(421 270)">
      <path id="Path_11461" data-name="Path 11461" d="M65.378,10.5H48.752V.875A.875.875,0,0,0,47.877,0h-21A.875.875,0,0,0,26,.875V43.929a.875.875,0,0,0,.875.875h38.5a.875.875,0,0,0,.875-.875V11.376A.875.875,0,0,0,65.378,10.5Zm-16.626,1.75H64.5V34.3H48.752Zm-14,30.8v-7H40v7ZM40.876,34.3h-7a.875.875,0,0,0-.875.875v7.876H27.75V1.75H47v41.3h-5.25V35.178A.875.875,0,0,0,40.876,34.3Zm7.876,8.751v-7H64.5v7Z" transform="translate(-26)" fill="#03a9f4"/>
      <path id="Path_11462" data-name="Path 11462" d="M136.874,43.5h1.75a.875.875,0,0,0,.875-.875v-1.75a.875.875,0,0,0-.875-.875h-1.75a.875.875,0,0,0-.875.875v1.75A.875.875,0,0,0,136.874,43.5Z" transform="translate(-126.373 -36.501)" fill="#03a9f4"/>
      <path id="Path_11463" data-name="Path 11463" d="M136.874,113.5h1.75a.875.875,0,0,0,.875-.875v-1.75a.875.875,0,0,0-.875-.875h-1.75a.875.875,0,0,0-.875.875v1.75A.875.875,0,0,0,136.874,113.5Z" transform="translate(-126.373 -100.375)" fill="#03a9f4"/>
      <path id="Path_11464" data-name="Path 11464" d="M136.874,183.5h1.75a.875.875,0,0,0,.875-.875v-1.75a.875.875,0,0,0-.875-.875h-1.75a.875.875,0,0,0-.875.875v1.75A.875.875,0,0,0,136.874,183.5Z" transform="translate(-126.373 -164.25)" fill="#03a9f4"/>
      <path id="Path_11465" data-name="Path 11465" d="M136.874,253.5h1.75a.875.875,0,0,0,.875-.875v-1.75a.875.875,0,0,0-.875-.875h-1.75a.875.875,0,0,0-.875.875v1.75A.875.875,0,0,0,136.874,253.5Z" transform="translate(-126.373 -228.123)" fill="#03a9f4"/>
      <path id="Path_11466" data-name="Path 11466" d="M136.874,323.5h1.75a.875.875,0,0,0,.875-.875v-1.75a.875.875,0,0,0-.875-.875h-1.75a.875.875,0,0,0-.875.875v1.75A.875.875,0,0,0,136.874,323.5Z" transform="translate(-126.373 -291.998)" fill="#03a9f4"/>
      <path id="Path_11467" data-name="Path 11467" d="M66.876,43.5h1.75a.875.875,0,0,0,.875-.875v-1.75A.875.875,0,0,0,68.626,40h-1.75a.875.875,0,0,0-.875.875v1.75A.875.875,0,0,0,66.876,43.5Z" transform="translate(-62.501 -36.501)" fill="#03a9f4"/>
      <path id="Path_11468" data-name="Path 11468" d="M66.876,113.5h1.75a.875.875,0,0,0,.875-.875v-1.75a.875.875,0,0,0-.875-.875h-1.75a.875.875,0,0,0-.875.875v1.75A.875.875,0,0,0,66.876,113.5Z" transform="translate(-62.501 -100.375)" fill="#03a9f4"/>
      <path id="Path_11469" data-name="Path 11469" d="M66.876,183.5h1.75a.875.875,0,0,0,.875-.875v-1.75a.875.875,0,0,0-.875-.875h-1.75a.875.875,0,0,0-.875.875v1.75A.875.875,0,0,0,66.876,183.5Z" transform="translate(-62.501 -164.25)" fill="#03a9f4"/>
      <path id="Path_11470" data-name="Path 11470" d="M66.876,253.5h1.75a.875.875,0,0,0,.875-.875v-1.75a.875.875,0,0,0-.875-.875h-1.75a.875.875,0,0,0-.875.875v1.75A.875.875,0,0,0,66.876,253.5Z" transform="translate(-62.501 -228.123)" fill="#03a9f4"/>
      <path id="Path_11471" data-name="Path 11471" d="M66.876,323.5h1.75a.875.875,0,0,0,.875-.875v-1.75a.875.875,0,0,0-.875-.875h-1.75a.875.875,0,0,0-.875.875v1.75A.875.875,0,0,0,66.876,323.5Z" transform="translate(-62.501 -291.998)" fill="#03a9f4"/>
      <path id="Path_11472" data-name="Path 11472" d="M208.626,40h-1.75a.875.875,0,0,0-.875.875v1.75a.875.875,0,0,0,.875.875h1.75a.875.875,0,0,0,.875-.875v-1.75A.875.875,0,0,0,208.626,40Z" transform="translate(-190.25 -36.501)" fill="#03a9f4"/>
      <path id="Path_11473" data-name="Path 11473" d="M208.626,110h-1.75a.875.875,0,0,0-.875.875v1.75a.875.875,0,0,0,.875.875h1.75a.875.875,0,0,0,.875-.875v-1.75A.875.875,0,0,0,208.626,110Z" transform="translate(-190.25 -100.374)" fill="#03a9f4"/>
      <path id="Path_11474" data-name="Path 11474" d="M208.626,180h-1.75a.875.875,0,0,0-.875.875v1.75a.875.875,0,0,0,.875.875h1.75a.875.875,0,0,0,.875-.875v-1.75A.875.875,0,0,0,208.626,180Z" transform="translate(-190.25 -164.249)" fill="#03a9f4"/>
      <path id="Path_11475" data-name="Path 11475" d="M208.626,250h-1.75a.875.875,0,0,0-.875.875v1.75a.875.875,0,0,0,.875.875h1.75a.875.875,0,0,0,.875-.875v-1.75A.875.875,0,0,0,208.626,250Z" transform="translate(-190.25 -228.123)" fill="#03a9f4"/>
      <path id="Path_11476" data-name="Path 11476" d="M208.626,320h-1.75a.875.875,0,0,0-.875.875v1.75a.875.875,0,0,0,.875.875h1.75a.875.875,0,0,0,.875-.875v-1.75A.875.875,0,0,0,208.626,320Z" transform="translate(-190.25 -291.998)" fill="#03a9f4"/>
      <path id="Path_11477" data-name="Path 11477" d="M393.625,180h-1.75a.875.875,0,0,0-.875.875v1.75a.875.875,0,0,0,.875.875h1.75a.875.875,0,0,0,.875-.875v-1.75A.875.875,0,0,0,393.625,180Z" transform="translate(-359.06 -164.249)" fill="#03a9f4"/>
      <path id="Path_11478" data-name="Path 11478" d="M393.625,250h-1.75a.875.875,0,0,0-.875.875v1.75a.875.875,0,0,0,.875.875h1.75a.875.875,0,0,0,.875-.875v-1.75A.875.875,0,0,0,393.625,250Z" transform="translate(-359.06 -228.123)" fill="#03a9f4"/>
      <path id="Path_11479" data-name="Path 11479" d="M393.625,320h-1.75a.875.875,0,0,0-.875.875v1.75a.875.875,0,0,0,.875.875h1.75a.875.875,0,0,0,.875-.875v-1.75A.875.875,0,0,0,393.625,320Z" transform="translate(-359.06 -291.998)" fill="#03a9f4"/>
      <path id="Path_11480" data-name="Path 11480" d="M323.627,180h-1.75a.875.875,0,0,0-.875.875v1.75a.875.875,0,0,0,.875.875h1.75a.875.875,0,0,0,.875-.875v-1.75A.875.875,0,0,0,323.627,180Z" transform="translate(-295.187 -164.249)" fill="#03a9f4"/>
      <path id="Path_11481" data-name="Path 11481" d="M323.627,250h-1.75a.875.875,0,0,0-.875.875v1.75a.875.875,0,0,0,.875.875h1.75a.875.875,0,0,0,.875-.875v-1.75A.875.875,0,0,0,323.627,250Z" transform="translate(-295.187 -228.123)" fill="#03a9f4"/>
      <path id="Path_11482" data-name="Path 11482" d="M323.627,320h-1.75a.875.875,0,0,0-.875.875v1.75a.875.875,0,0,0,.875.875h1.75a.875.875,0,0,0,.875-.875v-1.75A.875.875,0,0,0,323.627,320Z" transform="translate(-295.187 -291.998)" fill="#03a9f4"/>
    </g>
  </g>
</svg>
