<svg xmlns="http://www.w3.org/2000/svg" width="163.724" height="108.827" viewBox="0 0 163.724 108.827">
  <g id="Group_8547" data-name="Group 8547" transform="translate(-603.825 -269.5)">
    <g id="diamond" transform="translate(628.224 286.287)">
      <path id="Path_16500" data-name="Path 16500" d="M278.157,172.138,256,236l54.473-63.865Z" transform="translate(-201.527 -143.962)" fill="#ffbd08" opacity="0.52"/>
      <g id="Group_8545" data-name="Group 8545" transform="translate(0 0)">
        <path id="Path_16501" data-name="Path 16501" d="M22.54,39.724,0,67.9H32.316Z" transform="translate(0 -39.724)" fill="#ffcd73"/>
        <path id="Path_16502" data-name="Path 16502" d="M360.129,67.9h32.316L369.9,39.724Z" transform="translate(-283.499 -39.724)" fill="#ffcd73"/>
        <path id="Path_16503" data-name="Path 16503" d="M196.185,67.9,174.028,39.724,151.871,67.9Z" transform="translate(-119.555 -39.724)" fill="#ffcd73"/>
      </g>
      <path id="Path_16504" data-name="Path 16504" d="M137.863,39.724H105.931L115.706,67.9Z" transform="translate(-83.391 -39.724)" fill="#ff7d00" opacity="0.71"/>
      <path id="Path_16505" data-name="Path 16505" d="M287.932,39.724H256L278.157,67.9Z" transform="translate(-201.527 -39.724)" fill="#ffdc7e"/>
      <path id="Path_16506" data-name="Path 16506" d="M151.871,172.138,174.028,236l22.157-63.865Z" transform="translate(-119.555 -143.962)" fill="#ff7d00" opacity="0.63"/>
      <path id="Path_16507" data-name="Path 16507" d="M0,172.138,54.473,236,32.316,172.138Z" transform="translate(0 -143.962)" fill="#ff7d00"/>
    </g>
    <path id="star_1_" data-name="star (1)" d="M10.232,4.206a.544.544,0,0,0-.469-.375L6.8,3.563,5.631.822a.545.545,0,0,0-1,0L3.457,3.563.5,3.832a.546.546,0,0,0-.309.954L2.424,6.748l-.66,2.907a.544.544,0,0,0,.811.589L5.129,8.718l2.553,1.526a.545.545,0,0,0,.811-.589l-.66-2.907,2.238-1.962a.545.545,0,0,0,.16-.58Zm0,0" transform="translate(728.723 269.009)" fill="#ffa308"/>
    <path id="star_1_2" data-name="star (1)" d="M7.841,3.338a.417.417,0,0,0-.36-.287L5.212,2.845l-.9-2.1a.418.418,0,0,0-.768,0l-.9,2.1L.38,3.051a.418.418,0,0,0-.237.731l1.715,1.5L1.352,7.514a.417.417,0,0,0,.621.451L3.931,6.8l1.956,1.17a.418.418,0,0,0,.622-.451L6,5.286l1.715-1.5a.418.418,0,0,0,.123-.444Zm0,0" transform="translate(603.825 300.041)" fill="#ffa308"/>
    <path id="Path_16511" data-name="Path 16511" d="M312.958,301.542a7.676,7.676,0,0,1,7.667,7.667.958.958,0,1,0,1.917,0,7.676,7.676,0,0,1,7.667-7.667.958.958,0,0,0,0-1.917,7.676,7.676,0,0,1-7.667-7.667.958.958,0,1,0-1.917,0,7.676,7.676,0,0,1-7.667,7.667.958.958,0,0,0,0,1.917Zm8.625-5.408a9.648,9.648,0,0,0,4.45,4.45,9.648,9.648,0,0,0-4.45,4.45,9.648,9.648,0,0,0-4.45-4.45A9.647,9.647,0,0,0,321.584,296.134Z" transform="translate(436.382 3.85)" fill="#ffa308"/>
    <path id="Path_16512" data-name="Path 16512" d="M312.676,298.432a5.411,5.411,0,0,1,5.4,5.4.676.676,0,1,0,1.351,0,5.411,5.411,0,0,1,5.4-5.4.676.676,0,1,0,0-1.351,5.411,5.411,0,0,1-5.4-5.4.676.676,0,1,0-1.351,0,5.411,5.411,0,0,1-5.4,5.4.676.676,0,0,0,0,1.351Zm6.081-3.812a6.8,6.8,0,0,0,3.137,3.137,6.8,6.8,0,0,0-3.137,3.137,6.8,6.8,0,0,0-3.137-3.137A6.8,6.8,0,0,0,318.756,294.619Z" transform="translate(305.922 43.187)" fill="#ffa308"/>
  </g>
</svg>
