<svg id="image" xmlns="http://www.w3.org/2000/svg" width="47" height="47" viewBox="0 0 47 47">
  <g id="Group_7310" data-name="Group 7310">
    <g id="Group_7309" data-name="Group 7309">
      <path id="Path_12059" data-name="Path 12059" d="M131.25,96H98.937A2.938,2.938,0,0,0,96,98.937V131.25a2.938,2.938,0,0,0,2.938,2.938H131.25a2.938,2.938,0,0,0,2.938-2.937V98.937A2.938,2.938,0,0,0,131.25,96Zm0,35.25H98.937V98.937H131.25Z" transform="translate(-87.187 -87.187)" fill="#155ebc"/>
      <path id="Path_12060" data-name="Path 12060" d="M2.938,2.938H35.25V5.875h2.938V2.938A2.938,2.938,0,0,0,35.25,0H2.938A2.938,2.938,0,0,0,0,2.938V35.25a2.938,2.938,0,0,0,2.938,2.938H5.875V35.25H2.938Z" fill="#155ebc"/>
      <path id="Path_12061" data-name="Path 12061" d="M161.673,283.883h23.5a1.469,1.469,0,0,0,1.043-2.512l-5.875-5.875a1.469,1.469,0,0,0-2.071,0l-1.909,1.909-4.832-4.832a1.469,1.469,0,0,0-2.071,0l-8.812,8.813a1.469,1.469,0,0,0,1.028,2.5Z" transform="translate(-145.517 -247.165)" fill="#155ebc"/>
      <circle id="Ellipse_1114" data-name="Ellipse 1114" cx="3" cy="3" r="3" transform="translate(32 19)" fill="#155ebc"/>
    </g>
  </g>
</svg>
