<svg xmlns="http://www.w3.org/2000/svg" width="80" height="80" viewBox="0 0 80 80">
  <g id="Group_7119" data-name="Group 7119" transform="translate(-826 -254)">
    <g id="Shipping" transform="translate(826 254)">
      <path id="Path_11444" data-name="Path 11444" d="M40,2.2A37.8,37.8,0,1,1,2.2,40,37.77,37.77,0,0,1,40,2.2M40,0A40,40,0,1,0,80,40,39.989,39.989,0,0,0,40,0Z" fill="#dfdbf2"/>
    </g>
    <g id="user_10_" data-name="user (10)" transform="translate(847.2 270.471)">
      <path id="Path_11459" data-name="Path 11459" d="M97.71,21.356a10.332,10.332,0,0,0,7.55-3.128,10.333,10.333,0,0,0,3.128-7.55,10.333,10.333,0,0,0-3.128-7.55,10.675,10.675,0,0,0-15.1,0,10.332,10.332,0,0,0-3.128,7.549,10.332,10.332,0,0,0,3.128,7.55A10.335,10.335,0,0,0,97.71,21.356ZM92,4.965a8.077,8.077,0,0,1,11.425,0,7.72,7.72,0,0,1,2.367,5.712,7.719,7.719,0,0,1-2.367,5.713A8.076,8.076,0,0,1,92,16.39a7.718,7.718,0,0,1-2.368-5.713A7.719,7.719,0,0,1,92,4.965Zm0,0" transform="translate(-79.496 0)" fill="#03a9f4"/>
      <path id="Path_11460" data-name="Path 11460" d="M36.9,259.992a26.37,26.37,0,0,0-.359-2.8,22.075,22.075,0,0,0-.689-2.817,13.917,13.917,0,0,0-1.158-2.627,9.9,9.9,0,0,0-1.746-2.275,7.7,7.7,0,0,0-2.508-1.576,8.669,8.669,0,0,0-3.2-.579,3.249,3.249,0,0,0-1.735.736c-.52.339-1.129.732-1.808,1.166a10.362,10.362,0,0,1-2.339,1.031,9.083,9.083,0,0,1-5.722,0,10.324,10.324,0,0,1-2.338-1.03c-.673-.43-1.282-.822-1.81-1.166a3.246,3.246,0,0,0-1.735-.736,8.658,8.658,0,0,0-3.2.58,7.69,7.69,0,0,0-2.508,1.576,9.9,9.9,0,0,0-1.745,2.275,13.94,13.94,0,0,0-1.158,2.627,22.13,22.13,0,0,0-.689,2.816,26.19,26.19,0,0,0-.359,2.8C.03,260.839,0,261.72,0,262.611a7.361,7.361,0,0,0,2.186,5.569,7.87,7.87,0,0,0,5.634,2.055H29.167A7.87,7.87,0,0,0,34.8,268.18a7.359,7.359,0,0,0,2.187-5.57c0-.893-.03-1.774-.09-2.619ZM33.009,266.3a5.3,5.3,0,0,1-3.843,1.339H7.82A5.3,5.3,0,0,1,3.977,266.3a4.807,4.807,0,0,1-1.38-3.687c0-.831.027-1.651.082-2.438A23.623,23.623,0,0,1,3,257.649a19.509,19.509,0,0,1,.606-2.483,11.345,11.345,0,0,1,.942-2.136,7.339,7.339,0,0,1,1.283-1.681A5.106,5.106,0,0,1,7.5,250.312a5.98,5.98,0,0,1,2.046-.395c.091.048.253.141.515.312.534.348,1.15.745,1.83,1.18a12.871,12.871,0,0,0,2.936,1.312,11.68,11.68,0,0,0,7.32,0,12.886,12.886,0,0,0,2.938-1.313c.7-.445,1.295-.831,1.829-1.179.262-.171.424-.264.515-.312a5.983,5.983,0,0,1,2.047.395,5.114,5.114,0,0,1,1.668,1.037,7.32,7.32,0,0,1,1.283,1.682,11.307,11.307,0,0,1,.943,2.135,19.464,19.464,0,0,1,.606,2.483,23.829,23.829,0,0,1,.325,2.524h0c.055.784.083,1.6.083,2.437a4.807,4.807,0,0,1-1.38,3.687Zm0,0" transform="translate(0 -225.902)" fill="#03a9f4"/>
    </g>
  </g>
</svg>
