<svg id="lightbulb_1_" data-name="lightbulb (1)" xmlns="http://www.w3.org/2000/svg" width="24.65" height="29.568" viewBox="0 0 24.65 29.568">
  <g id="Group_189" data-name="Group 189" transform="translate(0)">
    <g id="Group_188" data-name="Group 188" transform="translate(0)">
      <path id="Path_82" data-name="Path 82" d="M112.933,93.2a7.616,7.616,0,0,0-5.033,13.321c1.2,1.2,1.094,3.775,1.067,3.8a.453.453,0,0,0,.137.356.5.5,0,0,0,.328.137h6.975a.453.453,0,0,0,.328-.137.52.52,0,0,0,.137-.356c0-.027-.137-2.6,1.067-3.8l.082-.082A7.593,7.593,0,0,0,112.933,93.2Zm4.376,12.61c-.027.027-.082.082-.082.109a6.387,6.387,0,0,0-1.286,3.939H109.9a6.356,6.356,0,0,0-1.368-4.048,6.66,6.66,0,1,1,8.78,0Z" transform="translate(-100.586 -86.827)" fill="#03a9f4"/>
      <path id="Path_83" data-name="Path 83" d="M209.794,121.6a.465.465,0,0,0,0,.93,4.979,4.979,0,0,1,4.978,4.978.465.465,0,0,0,.93,0A5.884,5.884,0,0,0,209.794,121.6Z" transform="translate(-197.474 -113.285)" fill="#03a9f4"/>
      <path id="Path_84" data-name="Path 84" d="M162.15,358.4h-6.072a1.149,1.149,0,1,0,0,2.3h6.045a1.18,1.18,0,0,0,1.176-1.149A1.156,1.156,0,0,0,162.15,358.4Zm0,1.34h-6.072a.216.216,0,0,1-.219-.219.2.2,0,0,1,.219-.219h6.045a.216.216,0,0,1,.219.219A.2.2,0,0,1,162.15,359.74Z" transform="translate(-146.794 -333.892)" fill="#03a9f4"/>
      <path id="Path_85" data-name="Path 85" d="M173.545,398.8h-4.267a1.149,1.149,0,1,0,0,2.3h4.267a1.156,1.156,0,0,0,1.149-1.149A1.138,1.138,0,0,0,173.545,398.8Zm0,1.34h-4.267a.216.216,0,0,1-.219-.219.2.2,0,0,1,.219-.219h4.267a.219.219,0,0,1,0,.438Z" transform="translate(-159.091 -371.529)" fill="#03a9f4"/>
      <path id="Path_86" data-name="Path 86" d="M209.794,4.1a.461.461,0,0,0,.465-.465V.465a.465.465,0,0,0-.93,0V3.638A.479.479,0,0,0,209.794,4.1Z" transform="translate(-197.474)" fill="#03a9f4"/>
      <path id="Path_87" data-name="Path 87" d="M295.609,33.2a.441.441,0,0,0-.629.109l-1.751,2.626a.451.451,0,0,0,.109.656.441.441,0,0,0,.246.082.436.436,0,0,0,.383-.219l1.751-2.626A.424.424,0,0,0,295.609,33.2Z" transform="translate(-275.548 -30.849)" fill="#03a9f4"/>
      <path id="Path_88" data-name="Path 88" d="M105.219,34.513a.441.441,0,0,0,.246-.082.479.479,0,0,0,.137-.656l-1.7-2.653a.474.474,0,0,0-.793.52l1.7,2.653A.454.454,0,0,0,105.219,34.513Z" transform="translate(-98.452 -28.796)" fill="#03a9f4"/>
      <path id="Path_89" data-name="Path 89" d="M39.423,104.847l-2.763-1.5a.482.482,0,0,0-.629.191.437.437,0,0,0,.191.629l2.763,1.5a.643.643,0,0,0,.219.055.451.451,0,0,0,.41-.246A.482.482,0,0,0,39.423,104.847Z" transform="translate(-35.966 -96.231)" fill="#03a9f4"/>
      <path id="Path_90" data-name="Path 90" d="M345.882,103.534a.482.482,0,0,0-.629-.191l-2.79,1.5a.482.482,0,0,0-.191.629.451.451,0,0,0,.41.246.515.515,0,0,0,.219-.055l2.79-1.5A.482.482,0,0,0,345.882,103.534Z" transform="translate(-321.281 -96.231)" fill="#03a9f4"/>
    </g>
  </g>
</svg>
