<svg xmlns="http://www.w3.org/2000/svg" width="47.729" height="35.412" viewBox="0 0 47.729 35.412">
  <g id="responsive" transform="translate(-8 -72)">
    <path id="Path_16531" data-name="Path 16531" d="M35.079,400H32.77a.77.77,0,1,0,0,1.54h2.309a.77.77,0,1,0,0-1.54Z" transform="translate(-21.691 -296.437)" fill="#b4afd3"/>
    <path id="Path_16532" data-name="Path 16532" d="M81.54,400h-.77a.77.77,0,1,0,0,1.54h.77a.77.77,0,1,0,0-1.54Z" transform="translate(-65.072 -296.437)" fill="#b4afd3"/>
    <path id="Path_16533" data-name="Path 16533" d="M52.65,81.238H51.11V75.079A3.083,3.083,0,0,0,48.031,72H15.7a3.083,3.083,0,0,0-3.079,3.079V88.936h-1.54A3.083,3.083,0,0,0,8,92.016v12.317a3.083,3.083,0,0,0,3.079,3.079h7.7a3.083,3.083,0,0,0,3.079-3.079v-2.309h6.712l-.385,1.54H25.706a.77.77,0,0,0-.77.77v2.309a.77.77,0,0,0,.77.77H52.65a3.083,3.083,0,0,0,3.079-3.079V84.317A3.083,3.083,0,0,0,52.65,81.238ZM20.317,104.333a1.542,1.542,0,0,1-1.54,1.54h-7.7a1.542,1.542,0,0,1-1.54-1.54V92.016a1.542,1.542,0,0,1,1.54-1.54h.984l.595,1.783a.77.77,0,0,0,.73.526h3.079a.77.77,0,0,0,.73-.526l.595-1.783h.984a1.542,1.542,0,0,1,1.54,1.54Zm-6.63-13.857H16.17l-.257.77H13.944Zm8.17,10.008V98.174H35.714v2.309Zm13.857,1.54v1.54h-.168l-.385-1.54Zm-1.756,1.54H29.772l.385-1.54h3.416Zm-7.482,2.309v-.77h9.335a3.077,3.077,0,0,0,.318.77Zm9.238-21.555V96.635H21.857V92.016a3.083,3.083,0,0,0-3.079-3.079H14.159V75.079a1.542,1.542,0,0,1,1.54-1.54H48.031a1.542,1.542,0,0,1,1.54,1.54v6.159H38.793A3.083,3.083,0,0,0,35.714,84.317ZM54.19,104.333a1.542,1.542,0,0,1-1.54,1.54H38.793a1.542,1.542,0,0,1-1.54-1.54V84.317a1.542,1.542,0,0,1,1.54-1.54H52.65a1.542,1.542,0,0,1,1.54,1.54Z" fill="#b4afd3"/>
    <path id="Path_16534" data-name="Path 16534" d="M334.627,192H320.77a.77.77,0,0,0-.77.77v17.706a.77.77,0,0,0,.77.77h13.857a.77.77,0,0,0,.77-.77V192.77A.77.77,0,0,0,334.627,192Zm-.77,17.706H321.54V193.54h12.317Z" transform="translate(-281.977 -108.453)" fill="#b4afd3"/>
    <ellipse id="Ellipse_1128" data-name="Ellipse 1128" cx="1" cy="0.5" rx="1" ry="0.5" transform="translate(44 104)" fill="#b4afd3"/>
  </g>
</svg>
