<svg xmlns="http://www.w3.org/2000/svg" width="56.385" height="52.546" viewBox="0 0 56.385 52.546">
  <g id="_001-box" data-name="001-box" transform="translate(-9 -25.634)">
    <path id="Path_13" data-name="Path 13" d="M61.951,48.275H59.108a2.8,2.8,0,0,0-2.673-2.055H53.4V38.8a.783.783,0,0,0-.382-.692L31.608,25.741a.791.791,0,0,0-.795,0L9.4,38.107A.8.8,0,0,0,9,38.8V63.531a.8.8,0,0,0,.4.692L30.818,76.589a.8.8,0,0,0,.4.107.84.84,0,0,0,.411-.107l11.271-6.5v4.7a3.383,3.383,0,0,0,3.412,3.392h15.64a3.4,3.4,0,0,0,3.434-3.392V51.72a3.447,3.447,0,0,0-3.434-3.445Zm-5.487-.457a1.16,1.16,0,0,1,1.16,1.16v.077a1.16,1.16,0,0,1-1.16,1.16H51.821a1.16,1.16,0,0,1-1.16-1.16v-.077a1.16,1.16,0,0,1,1.16-1.16ZM31.218,27.355l8.9,5.138L20.3,43.936,11.4,38.8Zm-.759,47.158L10.6,63.07V40.181l19.86,11.443Zm.759-24.273L21.9,44.859,41.715,33.416,51.037,38.8ZM42.9,51.72V68.243l-10.843,6.27V51.624L51.8,40.181v6.04h.025a2.8,2.8,0,0,0-2.673,2.055H46.311A3.428,3.428,0,0,0,42.9,51.72ZM63.787,74.788a1.8,1.8,0,0,1-1.836,1.794H46.311A1.784,1.784,0,0,1,44.5,74.788V51.72a1.829,1.829,0,0,1,1.814-1.847h2.874a2.733,2.733,0,0,0,2.642,1.94h4.608a2.733,2.733,0,0,0,2.642-1.94h2.874a1.847,1.847,0,0,1,1.836,1.847Z" transform="translate(0 0)" fill="#03a9f4"/>
    <path id="Path_14" data-name="Path 14" d="M337.793,283.365h.836a.8.8,0,1,0,0-1.6H338.6V279.6h2.2a.769.769,0,0,0,.76.54.8.8,0,0,0,.8-.8V278.8a.81.81,0,0,0-.808-.8h-3.764a.8.8,0,0,0-.793.8v3.764a.793.793,0,0,0,.793.8Z" transform="translate(-290.562 -223.561)" fill="#03a9f4"/>
    <path id="Path_15" data-name="Path 15" d="M337.8,347.365h3.767a.8.8,0,0,0,.8-.8V342.8a.8.8,0,0,0-.8-.8H337.8a.8.8,0,0,0-.8.8v3.767a.8.8,0,0,0,.8.8Zm.8-3.767h2.169v2.169H338.6Z" transform="translate(-290.562 -280.256)" fill="#03a9f4"/>
    <path id="Path_16" data-name="Path 16" d="M338.629,409.767H338.6V407.6h2.161a.8.8,0,1,0,1.606,0v-.77a.833.833,0,0,0-.808-.83h-3.764a.821.821,0,0,0-.793.83v3.764a.771.771,0,0,0,.793.771h.836a.8.8,0,1,0,0-1.6Z" transform="translate(-290.562 -336.951)" fill="#03a9f4"/>
    <path id="Path_17" data-name="Path 17" d="M358.77,284.773l-2.34,2.34-.712-.712a.8.8,0,1,0-1.13,1.13l1.277,1.277a.8.8,0,0,0,1.13,0L359.9,285.9a.8.8,0,0,0-1.13-1.13Z" transform="translate(-305.936 -229.354)" fill="#03a9f4"/>
    <path id="Path_18" data-name="Path 18" d="M358.77,414.022l-2.34,2.34-.712-.712a.8.8,0,0,0-1.13,1.13l1.277,1.277a.8.8,0,0,0,1.13,0l2.905-2.905a.8.8,0,1,0-1.13-1.13Z" transform="translate(-305.936 -343.85)" fill="#03a9f4"/>
    <path id="Path_19" data-name="Path 19" d="M419.708,295H414.69a.8.8,0,1,0,0,1.6h5.018a.8.8,0,0,0,0-1.6Z" transform="translate(-358.677 -238.621)" fill="#03a9f4"/>
    <path id="Path_20" data-name="Path 20" d="M419.708,359H414.69a.8.8,0,1,0,0,1.6h5.018a.8.8,0,0,0,0-1.6Z" transform="translate(-358.677 -295.316)" fill="#03a9f4"/>
    <path id="Path_21" data-name="Path 21" d="M419.708,423H414.69a.8.8,0,1,0,0,1.6h5.018a.8.8,0,0,0,0-1.6Z" transform="translate(-358.677 -352.011)" fill="#03a9f4"/>
  </g>
</svg>
