<svg xmlns="http://www.w3.org/2000/svg" width="58.52" height="58.501" viewBox="0 0 58.52 58.501">
  <g id="connectivity" transform="translate(0 -0.077)">
    <g id="Group_7292" data-name="Group 7292" transform="translate(0 0.077)">
      <path id="Path_11872" data-name="Path 11872" d="M46.819,30.342a5.841,5.841,0,1,0,0-1.947H39.868a10.658,10.658,0,0,0-2.409-5.845l12.3-11.426a5.894,5.894,0,1,0-1.537-1.23L36.084,21.17a10.654,10.654,0,0,0-5.9-2.46V11.758a5.84,5.84,0,1,0-1.947,0V18.71a10.655,10.655,0,0,0-5.9,2.46L10.193,9.895a5.8,5.8,0,1,0-1.537,1.23L20.96,22.55A10.657,10.657,0,0,0,18.551,28.4H11.6a5.84,5.84,0,1,0,0,1.947h6.951a10.662,10.662,0,0,0,2.9,6.383L9.765,48.411a5.786,5.786,0,1,0,1.217,1.536L22.916,38.012a10.633,10.633,0,0,0,5.321,2.015v6.951a5.84,5.84,0,1,0,1.947,0V40.027a10.656,10.656,0,0,0,5.9-2.46L48.226,48.842a5.8,5.8,0,1,0,1.537-1.23l-12.3-11.426a10.657,10.657,0,0,0,2.409-5.844Zm5.753-4.867a3.894,3.894,0,1,1-3.894,3.894A3.894,3.894,0,0,1,52.572,25.475Zm0-23.362a3.894,3.894,0,1,1-3.894,3.894A3.894,3.894,0,0,1,52.572,2.113ZM5.848,9.9A3.894,3.894,0,1,1,9.742,6.006,3.9,3.9,0,0,1,5.848,9.9Zm0,23.362a3.894,3.894,0,1,1,3.894-3.894A3.894,3.894,0,0,1,5.848,33.262Zm0,23.362a3.894,3.894,0,1,1,3.894-3.894A3.894,3.894,0,0,1,5.848,56.624Zm46.724-7.787a3.894,3.894,0,1,1-3.894,3.894A3.9,3.9,0,0,1,52.572,48.837ZM25.316,6.006A3.894,3.894,0,1,1,29.21,9.9h0A3.9,3.9,0,0,1,25.316,6.006ZM33.1,52.731a3.894,3.894,0,1,1-3.894-3.894A3.894,3.894,0,0,1,33.1,52.731Zm-3.894-14.6a8.761,8.761,0,1,1,8.761-8.761A8.761,8.761,0,0,1,29.21,38.129Z" transform="translate(0 -0.077)" fill="#155ebc"/>
    </g>
  </g>
</svg>
