<svg xmlns="http://www.w3.org/2000/svg" width="134.106" height="113.621" viewBox="0 0 134.106 113.621">
  <g id="Group_9266" data-name="Group 9266" transform="translate(13417.56 -11493.76)">
    <path id="Path_14863" data-name="Path 14863" d="M219.146,347.237c.649-.542,1.3-1.083,1.964-1.607.732,1.839,1.768,3.6,2.107,5.584a5.677,5.677,0,0,1-3.78,5.346c-3.3,1.316-6.7,2.381-10.013,3.667-2.173.762-4.619,1.774-6.887.75-2.536-1.072-3.119-4.054-4.548-6.131.631-.351,1.262-.7,1.9-1.042l1.054.947c.583,2.018,1.661,4.655,4.185,4.572,3.887-.435,7.417-2.339,11.126-3.476,1.589-.673,3.78-.857,4.572-2.637C221.676,351.083,220.188,348.987,219.146,347.237Z" transform="translate(-13556.29 11217.104)" fill="#fff"/>
    <path id="Path_14891" data-name="Path 14891" d="M175.705,275.729c4.822-5.762,9.721-11.459,14.483-17.269,1.232,1.8,2.578,3.518,3.982,5.185.613,3.846,3.155,6.935,4.768,10.382,1.828,3.78,4.738,7.233,5.227,11.519.381,3.1-1.839,5.637-4.292,7.173-15.471,9.78-30.859,19.7-46.39,29.395-2.816-3.869-5.56-7.786-8.173-11.792a6.347,6.347,0,0,0,2.482-3.2l.083-.06c.173-.119.506-.351.673-.47a21.64,21.64,0,0,0,3.536-3.387c4.643-5.274,9.334-10.513,13.787-15.954C169,283.283,172.663,279.771,175.705,275.729Z" transform="translate(-13534.969 11252.385)" fill="#f7fcff"/>
    <path id="Path_14899" data-name="Path 14899" d="M282.64,233.314c.286-1.322.589-2.881,1.923-3.554C285.021,231.332,283.9,232.588,282.64,233.314Z" transform="translate(-13590.549 11264)" fill="#03a9f4"/>
    <path id="Path_14900" data-name="Path 14900" d="M191.859,233.526c1.363-.976,2.911.214,3.548,1.452,4.09,6.358,8.518,12.477,12.953,18.591,8.143,11.685,16.352,23.335,24.329,35.139a1.847,1.847,0,0,1-.625,2.851,34.381,34.381,0,0,1-6.78,2.393c-1.56-.024-2.31-1.6-3.226-2.607-8.221,3.149-16.531,6.048-24.752,9.179a27.879,27.879,0,0,1,1.649,4.06,7.035,7.035,0,0,1-4.631,7.649c-3.8,1.393-7.632,2.679-11.417,4.113-2.232.851-4.846,1.339-7.054.143-2.566-1.226-3.345-4.179-4.572-6.5q-9.206,3.4-18.412,6.81a12.666,12.666,0,0,1,.012,2.072,19.25,19.25,0,0,1-5.661,2.149c-2.578-2.578-4.357-5.816-6.572-8.691-2.018-3.036-4.637-5.709-6.167-9.048a16.424,16.424,0,0,1,4.054-4.566c1.1-.53,1.81.661,2.393,1.369,2.613,4.006,5.358,7.923,8.173,11.793q1.384,1.947,2.78,3.905c6.518-2.47,13.066-4.863,19.555-7.423.286.315.571.637.851.97,1.429,2.078,2.012,5.06,4.548,6.131,2.268,1.024,4.715.012,6.887-.75,3.316-1.286,6.715-2.351,10.013-3.667a5.677,5.677,0,0,0,3.78-5.346c-.339-1.982-1.375-3.744-2.107-5.584a14.3,14.3,0,0,1,5.215-2.59c6.917-2.244,13.608-5.1,20.448-7.548q-10.947-15.715-21.912-31.425a24.415,24.415,0,0,1-3.084-5.6,94.19,94.19,0,0,1,7.352,9.721c6.733,9.536,13.566,19,20.323,28.514a10.044,10.044,0,0,0,1.155,1.316c2.548-.179,4.852-1.464,7.221-2.316-3.441-5.322-7.286-10.37-10.977-15.519-3.274-4.673-6.286-9.524-9.655-14.126-6.286-8.62-12.221-17.489-18.418-26.169a32.494,32.494,0,0,0-4.947,5.858c1.6,3.84,4.78,6.792,6.34,10.673a40.544,40.544,0,0,1-5.429-6.495q-1.607,1.911-3.232,3.81c-4.762,5.81-9.661,11.507-14.483,17.269-3.042,4.042-6.7,7.554-9.834,11.525-4.453,5.441-9.144,10.679-13.787,15.954a21.641,21.641,0,0,1-3.536,3.387c-.167.119-.5.351-.673.47a122.4,122.4,0,0,1,12.12-14.965c6.911-8.709,14.507-16.841,21.6-25.389,3.721-4.28,7.334-8.649,11.054-12.935-.655-1.339-2.03-2.875-1.066-4.4a33.424,33.424,0,0,1,4.655-5.613M135.8,303.293q5.822,8.411,11.7,16.775c1.322-.655,2.655-1.3,3.988-1.923-3.881-6.262-8.477-12.031-12.543-18.174Q137.361,301.614,135.8,303.293Z" transform="translate(-13530.586 11262.621)" fill="#03a9f4"/>
    <path id="Path_14901" data-name="Path 14901" d="M304.76,244.985c1.816-1.345,3.488-2.887,5.387-4.125-.119,1.714-1.756,2.637-2.863,3.726-2.256,1.738-4.387,3.738-7.024,4.881C301.248,247.527,303.07,246.271,304.76,244.985Z" transform="translate(-13597.681 11259.508)" fill="#03a9f4"/>
    <path id="Path_14902" data-name="Path 14902" d="M107.911,248.006c.958-2.113,2.6-4.346,5.161-4.363,2.054-.3,3.619,1.179,4.8,2.631,3.846.232,7.887-.679,11.59.661-4.1.982-8.346.726-12.525.893-.917-1.3-2.054-2.869-3.881-2.566-2.584.03-3.411,2.8-4.066,4.8-1.03-.173-2.066-.345-3.1-.5-.244.762-.488,1.53-.732,2.3-2.244.036-4.53.28-6.721-.333,1.637-.988,3.6-.863,5.429-1.012A3.782,3.782,0,0,1,107.911,248.006Z" transform="translate(-13516 11258.397)" fill="#03a9f4"/>
    <path id="Path_14903" data-name="Path 14903" d="M277.214,245.39c.208.131.625.381.839.512-.988,2.447-1.768,5.381-4.173,6.828C274.457,250.069,276.035,247.8,277.214,245.39Z" transform="translate(-13587.004 11257.675)" fill="#03a9f4"/>
    <path id="Path_14904" data-name="Path 14904" d="M281.41,265.077a16.893,16.893,0,0,1,7.084-5.227A12.341,12.341,0,0,1,281.41,265.077Z" transform="translate(-13590.052 11251.822)" fill="#03a9f4"/>
    <path id="Path_14905" data-name="Path 14905" d="M296.851,273.4c3.905-.6,7.715-1.75,11.644-2.2a2.859,2.859,0,0,1-1.673,1.185,92.475,92.475,0,0,1-11.215,2.506c-2.637.446-5.244,1.274-7.947,1.054C290.464,274.343,293.75,274.081,296.851,273.4Z" transform="translate(-13592.581 11247.228)" fill="#03a9f4"/>
    <path id="Path_14906" data-name="Path 14906" d="M210.111,350.367c3.435-1.25,6.792-2.709,10.257-3.887.2.274.589.827.786,1.1,1.042,1.75,2.53,3.846,1.679,5.971-.792,1.78-2.982,1.964-4.572,2.637-3.709,1.137-7.239,3.042-11.126,3.476-2.524.083-3.6-2.554-4.185-4.572.071-.179.214-.53.286-.7.9,1.393,1.5,3.375,3.274,3.869,3.881-.262,7.352-2.238,11.025-3.351,1.548-.613,3.613-.941,4.221-2.75a20.842,20.842,0,0,0-1.577-4.125c-5.441,1.774-10.65,4.334-16.293,5.429A20.741,20.741,0,0,1,210.111,350.367Z" transform="translate(-13558.297 11216.761)" fill="#03a9f4"/>
    <path id="Path_14907" data-name="Path 14907" d="M259.229,403.313a7.031,7.031,0,0,1,7.8-1.411,12.373,12.373,0,0,1,5.465,6.495c1.316-.071,2.738-.47,3.982.161,1.3.53,1.78,1.947,2.429,3.072,3.6.149,7.215-.179,10.81.036.274.119.821.363,1.1.482-4.328,1.024-8.8.321-13.191.655-.494-1.137-.56-3.072-2.131-3.268-1.393.018-2.738.441-4.113.583-.935-2.286-1.572-5.012-3.846-6.381-2.262-1.226-5.459-1.583-7.37.47-2.149,1.577-2.173,4.423-2.709,6.8-1.488-.75-2.81-2.078-4.56-2.1-1.458.637-1.53,2.441-1.953,3.75a43.973,43.973,0,0,1-8.536-.482,21.174,21.174,0,0,1,7.411-.821c.732-1.22,1.262-2.786,2.661-3.405,1.316-.6,2.649.244,3.869.691A11.687,11.687,0,0,1,259.229,403.313Z" transform="translate(-13574.263 11194.579)" fill="#03a9f4"/>
    <path id="Path_14908" data-name="Path 14908" d="M195.745,255.87q1.625-1.9,3.232-3.81a40.544,40.544,0,0,0,5.429,6.495c.542.679,1.077,1.357,1.607,2.048a24.417,24.417,0,0,0,3.084,5.6q10.992,15.7,21.912,31.425c-6.84,2.453-13.531,5.3-20.448,7.548a14.3,14.3,0,0,0-5.215,2.589c-.661.524-1.316,1.066-1.964,1.607-.2-.274-.589-.827-.786-1.1-3.465,1.179-6.822,2.637-10.257,3.887a20.741,20.741,0,0,0-6.227,3.1c-.161.232-.488.7-.649.929-.071.173-.214.524-.286.7l-1.054-.947c-.637.339-1.268.69-1.9,1.042-.28-.333-.566-.655-.851-.97-6.489,2.56-13.037,4.953-19.555,7.423q-1.393-1.956-2.78-3.905c15.531-9.7,30.919-19.615,46.39-29.395,2.453-1.536,4.673-4.078,4.292-7.173-.488-4.286-3.4-7.739-5.227-11.519-1.613-3.447-4.155-6.536-4.768-10.382C198.323,259.388,196.977,257.668,195.745,255.87Z" transform="translate(-13540.526 11254.975)" fill="#e3f2fb"/>
  </g>
</svg>