<svg id="LogoEC" xmlns="http://www.w3.org/2000/svg" width="137.075" height="25.843" viewBox="0 0 137.075 25.843">
  <g id="_3a3a3cff" data-name="#3a3a3cff" transform="translate(7.364 0)">
    <path id="Path_1110" data-name="Path 1110" d="M37.7,41.651a6.891,6.891,0,0,1,9.808,7.721,6.408,6.408,0,0,1,1.428,11.783c-2.128,1.215-4.654.673-6.978.8.275-.439.541-.881.8-1.329,1.1-.015,2.2.021,3.3-.012a5.062,5.062,0,0,0,2.69-9.214,8.287,8.287,0,0,0-2.848-1.095,6.786,6.786,0,0,0,.126-4.411,5.554,5.554,0,0,0-10.124-.746,14.141,14.141,0,0,0-.934,3.05c-1.22-.887-2.526-2-4.144-1.838a4.3,4.3,0,0,0-3.82,3.7c-.4-.234-.793-.46-1.2-.682A5.556,5.556,0,0,1,29,45.5a5.687,5.687,0,0,1,5.2.471A6.907,6.907,0,0,1,37.7,41.651Z" transform="translate(-25.82 -40.928)" fill="#3a3a3c"/>
    <path id="Path_1111" data-name="Path 1111" d="M133.763,70.956a1.12,1.12,0,0,1,1.226-1.194c2.6-.073,5.216-.012,7.823-.02q0,1.054,0,2.113c-2.172,0-4.343,0-6.515,0q0,1.352,0,2.7c1.639.012,3.278,0,4.917.009-.029.738.067,1.87-.887,2.055-1.335.176-2.69.015-4.033.073v3.284c2.172.012,4.34-.006,6.512.012q0,1.128,0,2.257c-3.026.015-6.05,0-9.076.006C133.76,78.484,133.7,74.717,133.763,70.956Z" transform="translate(-102.147 -61.297)" fill="#3a3a3c"/>
    <path id="Path_1112" data-name="Path 1112" d="M321.653,69.682c.858-.012,2.2-.149,2.423.96.152,1.747.015,3.509.061,5.262-.029,1.627.211,3.439-.749,4.867a4.6,4.6,0,0,1-4.01,1.566,4.257,4.257,0,0,1-3.685-1.867,7.349,7.349,0,0,1-.547-4.809,3.74,3.74,0,0,1,2.172-2.994,3.59,3.59,0,0,1,4.364,1.092c-.056-1.358-.029-2.719-.029-4.077m-2.778,4.891a2.249,2.249,0,0,0-1.253,1.914,4.514,4.514,0,0,0,.442,3.114,2.012,2.012,0,0,0,2.353.544,2.267,2.267,0,0,0,1.177-1.87,4.559,4.559,0,0,0-.515-3.155A1.951,1.951,0,0,0,318.875,74.573Z" transform="translate(-230.353 -61.258)" fill="#3a3a3c"/>
    <path id="Path_1113" data-name="Path 1113" d="M178,76.384a8.915,8.915,0,0,1,2.93-.193c-1.25,1.87-2.47,3.761-3.714,5.637,1.062,1.668,2.186,3.3,3.234,4.976-.972,0-1.941,0-2.909.009-.6-1.024-1.174-2.069-1.759-3.1-.591,1.027-1.168,2.063-1.75,3.094q-1.515,0-3.029,0c1.071-1.662,2.157-3.319,3.193-5-.992-1.583-2-3.152-2.988-4.741.94,0,1.882,0,2.821,0,.556.98,1.095,1.973,1.715,2.915A27.406,27.406,0,0,1,178,76.384Z" transform="translate(-128.508 -65.853)" fill="#3a3a3c"/>
    <path id="Path_1114" data-name="Path 1114" d="M211.37,79.16c2.022-.711,4.885-.562,6.044,1.522a7.88,7.88,0,0,1,.111,6.123,3.589,3.589,0,0,1-6.079.626,24.747,24.747,0,0,1-.091,4.516c-.536.776-1.572.445-2.359.515,0-3.085-.018-6.167.006-9.252-.009-1.63.717-3.468,2.368-4.051m1.244,1.85A2.441,2.441,0,0,0,211.49,83.2a4.375,4.375,0,0,0,.55,2.81,1.942,1.942,0,0,0,2.538.442,3.151,3.151,0,0,0,1-2.628,3.685,3.685,0,0,0-.547-2.26A1.971,1.971,0,0,0,212.614,81.01Z" transform="translate(-155.38 -67.698)" fill="#3a3a3c"/>
    <path id="Path_1115" data-name="Path 1115" d="M247.477,79.429a6.153,6.153,0,0,1,4.314-.495,2.629,2.629,0,0,1,2.315,1.981,32.583,32.583,0,0,1,.038,4.408,3.476,3.476,0,0,1-2.365,3.149,5.629,5.629,0,0,1-4.458-.149,3.038,3.038,0,0,1-.056-5c1.194-.735,2.655-.58,3.951-1,.588-.135.817-1.051.222-1.323a2.459,2.459,0,0,0-2.813.38q-1.19.035-2.38,0a3.3,3.3,0,0,1,1.229-1.958m1.431,5.28a1.181,1.181,0,0,0,.258,2.084,2.353,2.353,0,0,0,2.262-.743,4.045,4.045,0,0,0,.439-2.286A27.833,27.833,0,0,0,248.909,84.709Z" transform="translate(-181.545 -67.694)" fill="#3a3a3c"/>
    <path id="Path_1116" data-name="Path 1116" d="M282.847,79.129a5.755,5.755,0,0,1,4.677.278,3.724,3.724,0,0,1,1.528,3.237c.038,2-.006,4.007.015,6.012-.831-.041-2.031.2-2.432-.764-.176-1.923.044-3.863-.094-5.789-.2-1.633-3.085-1.668-3.3-.029-.082,2.189,0,4.379-.026,6.568H280.72c.05-2.186-.088-4.381.07-6.568A3.294,3.294,0,0,1,282.847,79.129Z" transform="translate(-206.109 -67.69)" fill="#3a3a3c"/>
  </g>
  <g id="_20a7dfff" data-name="#20a7dfff" transform="translate(0 8.219)">
    <path id="Path_1117" data-name="Path 1117" d="M353.2,71.477a5.179,5.179,0,0,1,3.922-2.4,5.993,5.993,0,0,1,5.052,1.323,5.3,5.3,0,0,1,1.3,2.994,9.568,9.568,0,0,1-2.148-.094c-.7-.483-.931-1.493-1.788-1.782a3.356,3.356,0,0,0-4.06,1.109,6.256,6.256,0,0,0-.562,4.244,3.287,3.287,0,0,0,1.8,2.54,3.246,3.246,0,0,0,3.577-.574,7.45,7.45,0,0,0,.717-1.422l2.479.006a4.91,4.91,0,0,1-2.344,3.808,6.945,6.945,0,0,1-5.813.2,5.182,5.182,0,0,1-2.883-3.849A8.822,8.822,0,0,1,353.2,71.477Z" transform="translate(-249.337 -69.01)" fill="#20a7df"/>
    <path id="Path_1118" data-name="Path 1118" d="M457.256,69.69a5.268,5.268,0,0,1,1.859.184c.878.571.562,1.741.635,2.617.237,0,.705,0,.94,0v1.542c-.319.105-.638.2-.957.3.041,1.8-.07,3.6.044,5.394-.018.495.6.468.913.656v1.759a8.124,8.124,0,0,1-2.742-.3c-.67-.322-.673-1.165-.7-1.8Q457.254,74.868,457.256,69.69Z" transform="translate(-323.614 -69.491)" fill="#20a7df"/>
    <path id="Path_1119" data-name="Path 1119" d="M13.517,73.263a1.085,1.085,0,0,1-.585-2.008c1.662-.2,4-.421,4.859,1.4.91,2.6,1.387,5.333,2.236,7.952.214.682.992.831,1.616.8,2.93-.012,5.862.012,8.792-.012.735.059.893-.758,1.077-1.294.348-1.323.8-2.622,1.033-3.972-4.2-.181-8.415.02-12.618-.1-1.057-.231-.849-2.06.249-2.008q6.462-.022,12.925,0a1.292,1.292,0,0,1,1.188,1.7c-.31,1.516-.755,3-1.1,4.513a5.267,5.267,0,0,1-1.141,2.716,4.486,4.486,0,0,1-1.384.553,3.084,3.084,0,0,0-3.214-.433,3.157,3.157,0,0,1-3.38.015,2.656,2.656,0,0,0-2.634.1c-1.259.793-2.871-.179-3.337-1.452-.828-2.564-1.361-5.219-2.189-7.782C15.58,72.932,14.307,73.412,13.517,73.263Z" transform="translate(-8.975 -70.505)" fill="#20a7df"/>
    <path id="Path_1120" data-name="Path 1120" d="M398.687,79.282a6.559,6.559,0,0,1,4.73-.181,2.377,2.377,0,0,1,1.744,2.286,34.282,34.282,0,0,1-.091,4.422,3.445,3.445,0,0,1-2.473,2.707,5.612,5.612,0,0,1-4.279-.2,3.03,3.03,0,0,1-.056-5c1.206-.74,2.681-.585,3.986-1.013a.774.774,0,0,0,.386-1.18,2.339,2.339,0,0,0-2.962.246c-.82.023-1.639.023-2.453-.009a3.259,3.259,0,0,1,1.466-2.072m1.226,5.388a1.192,1.192,0,0,0,.249,2.113,2.331,2.331,0,0,0,2.26-.758,3.969,3.969,0,0,0,.433-2.277C401.886,84.094,400.85,84.243,399.914,84.67Z" transform="translate(-280.976 -75.899)" fill="#20a7df"/>
    <path id="Path_1121" data-name="Path 1121" d="M432.163,81.572c.761-1.9,2.991-2.464,4.853-2.4q0,1.282,0,2.564a3.591,3.591,0,0,0-2.2.413,2.24,2.24,0,0,0-.659,1.929c0,1.616,0,3.234.006,4.853q-1.247,0-2.494,0C431.838,86.483,431.276,83.914,432.163,81.572Z" transform="translate(-305.504 -76.193)" fill="#20a7df"/>
    <path id="Path_1122" data-name="Path 1122" d="M5.31,87.252a31.229,31.229,0,0,1,3.738.038c0,.369,0,.74-.009,1.112a26.447,26.447,0,0,1-3.506.038C4.854,88.537,4.7,87.43,5.31,87.252Z" transform="translate(-3.68 -81.884)" fill="#20a7df"/>
    <path id="Path_1123" data-name="Path 1123" d="M37.879,89.511c3.539-.094,7.092-.038,10.633-.026,1.15.006,1.15,2,.006,2.02q-5.224.048-10.455,0C37.022,91.481,36.9,89.751,37.879,89.511Z" transform="translate(-26.512 -83.473)" fill="#20a7df"/>
    <path id="Path_1124" data-name="Path 1124" d="M1.149,95.473c1.112-.047,2.227-.05,3.34,0A.621.621,0,0,1,4.526,96.6,28.408,28.408,0,0,1,.66,96.55C.692,96.182.619,95.511,1.149,95.473Z" transform="translate(-0.66 -87.703)" fill="#20a7df"/>
    <path id="Path_1125" data-name="Path 1125" d="M39.313,99.96c-.98-.281-.849-1.551-.1-2.04,3.164.059,6.331,0,9.495.026.465-.082.758.313,1.083.568,0,.217-.015.65-.02.866-.146.149-.442.454-.588.606C45.9,99.975,42.6,100.036,39.313,99.96Z" transform="translate(-27.506 -89.458)" fill="#20a7df"/>
    <path id="Path_1126" data-name="Path 1126" d="M8.756,104.817c-.407-.328-.173-.752.006-1.127a38.48,38.48,0,0,1,3.942.123c-.082.322.143.948-.348,1.013A22.068,22.068,0,0,1,8.756,104.817Z" transform="translate(-6.227 -93.54)" fill="#20a7df"/>
    <path id="Path_1127" data-name="Path 1127" d="M41.705,112.006a2.575,2.575,0,0,1,2.687,3.173c-.38,2.189-3.855,2.532-4.744.547a2.578,2.578,0,0,1,2.058-3.72m-.325,1.812c-1.013.688.275,2.248,1.118,1.408C43.406,114.547,42.25,113.13,41.38,113.818Z" transform="translate(-28.034 -99.412)" fill="#20a7df"/>
    <path id="Path_1128" data-name="Path 1128" d="M61.53,112a2.579,2.579,0,0,1,2.538,3.559c-.743,2.046-4.212,1.932-4.774-.19A2.576,2.576,0,0,1,61.53,112m-.275,1.73c-.372.322-.676.94-.243,1.343a.836.836,0,0,0,1.414-.026C63.058,114.331,62.04,113.3,61.255,113.728Z" transform="translate(-42.035 -99.407)" fill="#20a7df"/>
  </g>
</svg>
