<svg xmlns="http://www.w3.org/2000/svg" width="57.416" height="43.923" viewBox="0 0 57.416 43.923">
  <g id="Group_8584" data-name="Group 8584" transform="translate(0 0)">
    <path id="Path_12479" data-name="Path 12479" d="M46.017,42.158A11.713,11.713,0,0,1,62.686,55.28a10.891,10.891,0,0,1,2.428,20.028c-3.616,2.064-7.91,1.144-11.859,1.368.468-.746.92-1.5,1.368-2.258,1.87-.025,3.746.035,5.616-.02a8.6,8.6,0,0,0,4.572-15.66,14.086,14.086,0,0,0-4.84-1.86c.706-2.428,1.179-5.069.214-7.5a9.441,9.441,0,0,0-17.207-1.269A24.034,24.034,0,0,0,41.39,53.3c-2.074-1.507-4.293-3.408-7.044-3.124a7.317,7.317,0,0,0-6.492,6.283c-.672-.4-1.348-.781-2.035-1.159a9.444,9.444,0,0,1,5.4-6.6,9.665,9.665,0,0,1,8.835.8A11.739,11.739,0,0,1,46.017,42.158Z" transform="translate(-13.304 -40.928)" fill="#3a3a3c"/>
    <path id="Path_12480" data-name="Path 12480" d="M14.288,74.759c-1.846.2-2.6-2.557-.995-3.413,2.826-.338,6.8-.716,8.258,2.383,1.547,4.412,2.358,9.064,3.8,13.516.363,1.159,1.686,1.413,2.746,1.363,4.98-.02,9.964.02,14.944-.02,1.249.1,1.517-1.288,1.831-2.2.592-2.248,1.353-4.457,1.756-6.75-7.138-.308-14.3.035-21.445-.174-1.8-.393-1.443-3.5.423-3.413q10.984-.037,21.968,0c1.522-.1,2.363,1.547,2.02,2.885-.527,2.577-1.283,5.1-1.87,7.671-.443,1.6-.642,3.437-1.94,4.616a7.624,7.624,0,0,1-2.353.94c-1.572-1.06-3.691-1.756-5.462-.736a5.366,5.366,0,0,1-5.746.025,4.513,4.513,0,0,0-4.477.169c-2.139,1.348-4.88-.3-5.671-2.467-1.408-4.358-2.313-8.87-3.721-13.227C17.795,74.2,15.631,75.012,14.288,74.759Z" transform="translate(-6.567 -56.103)" fill="#20a7df"/>
    <path id="Path_12481" data-name="Path 12481" d="M5.576,87.28a53.079,53.079,0,0,1,6.353.065c0,.627,0,1.259-.015,1.89a44.953,44.953,0,0,1-5.96.065C4.8,89.464,4.547,87.584,5.576,87.28Z" transform="translate(-2.806 -64.187)" fill="#20a7df"/>
    <path id="Path_12482" data-name="Path 12482" d="M38.349,89.548c6.014-.159,12.053-.065,18.073-.045,1.955.01,1.955,3.408.01,3.432q-8.88.082-17.769,0C36.891,92.9,36.682,89.956,38.349,89.548Z" transform="translate(-19.027 -65.316)" fill="#20a7df"/>
    <path id="Path_12483" data-name="Path 12483" d="M1.491,95.5c1.89-.08,3.786-.085,5.676,0a1.056,1.056,0,0,1,.065,1.915,48.285,48.285,0,0,1-6.571-.09C.715,96.7.59,95.563,1.491,95.5Z" transform="translate(-0.66 -68.321)" fill="#20a7df"/>
    <path id="Path_12484" data-name="Path 12484" d="M39.8,101.387c-1.666-.478-1.443-2.637-.164-3.467,5.377.1,10.76,0,16.137.045.791-.139,1.288.532,1.841.965,0,.368-.025,1.1-.035,1.473-.249.254-.751.771-1,1.03C50.989,101.412,45.393,101.517,39.8,101.387Z" transform="translate(-19.734 -69.569)" fill="#20a7df"/>
    <path id="Path_12485" data-name="Path 12485" d="M8.913,105.605c-.691-.557-.293-1.278.01-1.915a65.4,65.4,0,0,1,6.7.209c-.139.547.244,1.612-.592,1.721A37.505,37.505,0,0,1,8.913,105.605Z" transform="translate(-4.615 -72.469)" fill="#20a7df"/>
    <path id="Path_12486" data-name="Path 12486" d="M43.345,112.016a4.377,4.377,0,0,1,4.567,5.392c-.647,3.721-6.551,4.3-8.064.93a4.381,4.381,0,0,1,3.5-6.323m-.552,3.079c-1.721,1.169.468,3.82,1.9,2.393C46.235,116.334,44.271,113.926,42.793,115.1Z" transform="translate(-20.109 -76.641)" fill="#20a7df"/>
    <path id="Path_12487" data-name="Path 12487" d="M63.192,112.008a4.384,4.384,0,0,1,4.313,6.049c-1.264,3.477-7.158,3.283-8.114-.323a4.378,4.378,0,0,1,3.8-5.726m-.468,2.94c-.632.547-1.149,1.6-.413,2.283a1.42,1.42,0,0,0,2.4-.045C65.789,115.972,64.058,114.216,62.724,114.948Z" transform="translate(-30.056 -76.638)" fill="#20a7df"/>
  </g>
</svg>
