<svg xmlns="http://www.w3.org/2000/svg" width="51.179" height="51.18" viewBox="0 0 51.179 51.18">
  <path id="Path_22" data-name="Path 22" d="M-425.895,941.359a25.488,25.488,0,0,1-25.6,25.525A25.6,25.6,0,0,1-477.073,941.2a25.572,25.572,0,0,1,25.663-25.495A25.611,25.611,0,0,1-425.895,941.359Zm-8.862-17.645a24.244,24.244,0,0,0-34.554.988c-9.5,10.192-7.914,25.228.178,33.209l4.033-4.112c-.435-.233-.918-.537-1.436-.759a2.612,2.612,0,0,1-1.672-2.758c.052-5.62.044-11.24.005-16.859a2.563,2.563,0,0,1,1.542-2.555q7.256-3.768,14.468-7.62a2.668,2.668,0,0,1,2.758,0c3.053,1.639,6.13,3.233,9.2,4.849.363.192.658.424,1.073,0C-437.735,926.629-436.263,925.2-434.757,923.714Zm-3.537,5.392c1.116.6,2.144,1.216,3.229,1.709a2.58,2.58,0,0,1,1.648,2.677q-.065,8.432,0,16.865a2.678,2.678,0,0,1-1.641,2.687c-4.676,2.416-9.341,4.854-13.965,7.369a3.39,3.39,0,0,1-3.622-.028c-3.451-1.9-6.953-3.705-10.446-5.527-.266-.139-.765-.272-.908-.14-1.449,1.344-2.847,2.744-4.338,4.206,7.039,6.106,14.92,8.317,23.692,5.65,10.041-3.053,15.887-10.105,17.279-20.488,1-7.428-1.39-13.952-6.409-19.476Zm3.645,4.022c-.464.216-.775.352-1.078.5-4.555,2.3-9.1,4.619-13.672,6.891a1.221,1.221,0,0,0-.8,1.289c.028,5.589.018,11.178.022,16.767,0,.272.026.545.044.888a3.607,3.607,0,0,0,.4-.146c4.8-2.522,9.6-5.032,14.375-7.6a1.623,1.623,0,0,0,.672-1.184c.071-1.892.032-3.788.032-5.683C-434.649,941.007-434.649,937.156-434.649,933.128Zm-28.046,20.51,11.182,5.888v-17.1Zm-4.185-20.517a4.134,4.134,0,0,0-.084.511q0,8.468.007,16.935c0,.3.058.74.252.866a25.447,25.447,0,0,0,2.47,1.372c.11.056.373-.054.488-.166,1.952-1.912,3.893-3.836,5.853-5.775a11.409,11.409,0,0,1-1.122-.7c-.317-.255-.54-.642-.878-.852a1.943,1.943,0,0,0-1.141-.363c-1.232.162-1.833-.3-1.835-1.562,0-2.491.014-4.983-.015-7.474a1.223,1.223,0,0,0-.38-.92C-464.407,934.337-465.6,933.771-466.88,933.121Zm8.947,12.371c0-2.451.035-4.628-.013-6.8a2.572,2.572,0,0,1,1.6-2.614c4.538-2.258,9.051-4.567,13.572-6.86.3-.152.591-.321.97-.527-1.074-.571-2.033-1.115-3.028-1.585a1.223,1.223,0,0,0-.941.008c-5.04,2.522-10.064,5.076-15.1,7.606a1.328,1.328,0,0,0-.812,1.347c.021,2.4.01,4.8.016,7.2a.9.9,0,0,0,.05.278,7.028,7.028,0,0,1,2.046.363A8.548,8.548,0,0,1-457.933,945.492Zm11.274-19.36c-1.284-.684-2.343-1.312-3.46-1.809a1.8,1.8,0,0,0-1.377.005c-4.672,2.415-9.318,4.88-13.969,7.336-.206.109-.39.257-.656.435,1.219.619,2.332,1.209,3.473,1.74a1.1,1.1,0,0,0,.839-.046c2.961-1.474,5.908-2.974,8.858-4.469C-450.911,928.291-448.872,927.255-446.659,926.132Zm-9.253,11.134c1.6.809,3.005,1.5,4.385,2.236a.793.793,0,0,0,1.128-.173c1.717-1.762,3.465-3.494,5.215-5.224,1.4-1.386,2.822-2.755,4.234-4.131l-.162-.2Zm20.514-5.205c-1.145-.6-2.141-1.069-3.072-1.64a1.034,1.034,0,0,0-1.527.213c-1.637,1.7-3.327,3.358-5,5.032q-1.032,1.036-2.06,2.077l.121.152Zm-21.173,6.288v6.82l4.571-4.519Z" transform="translate(477.073 -915.705)" fill="#03a9f4"/>
</svg>
