<svg xmlns="http://www.w3.org/2000/svg" width="99.723" height="115.798" viewBox="0 0 99.723 115.798">
  <g id="fireworks_1_" data-name="fireworks (1)" transform="translate(-0.5)">
    <path id="Path_16533" data-name="Path 16533" d="M96.2,477.581a1.672,1.672,0,0,1-1.2-2.837l2.078-2.141a1.672,1.672,0,0,1,2.4,2.329L97.4,477.073A1.664,1.664,0,0,1,96.2,477.581Zm0,0" transform="translate(-72.763 -365.323)" fill="#ff4e61"/>
    <path id="Path_16534" data-name="Path 16534" d="M195.931,114.5a1.672,1.672,0,0,1-1.2-2.836l2.079-2.142a1.672,1.672,0,0,1,2.4,2.329l-2.079,2.142a1.667,1.667,0,0,1-1.2.507Zm0,0" transform="translate(-149.937 -84.356)" fill="#ff4e61"/>
    <path id="Path_16535" data-name="Path 16535" d="M408.085,81.627a1.672,1.672,0,0,1-1.2-2.836l2.079-2.142a1.672,1.672,0,0,1,2.4,2.329l-2.079,2.142a1.667,1.667,0,0,1-1.2.507Zm0,0" transform="translate(-314.108 -58.922)" fill="#5c73bc"/>
    <path id="Path_16536" data-name="Path 16536" d="M408.085,445.007a1.671,1.671,0,0,1-1.2-2.836l2.079-2.142a1.672,1.672,0,0,1,2.4,2.329l-2.079,2.142A1.667,1.667,0,0,1,408.085,445.007Zm0,0" transform="translate(-314.108 -340.116)" fill="#fa0"/>
    <path id="Path_16537" data-name="Path 16537" d="M57.353,94.146a1.672,1.672,0,0,1-1.2-2.836l2.079-2.142a1.672,1.672,0,1,1,2.4,2.329l-2.079,2.142A1.667,1.667,0,0,1,57.353,94.146Zm0,0" transform="translate(-42.701 -68.609)" fill="#fa0"/>
    <path id="Path_16538" data-name="Path 16538" d="M6.591,260.057a1.672,1.672,0,0,1-1.2-2.836L7.47,255.08a1.672,1.672,0,1,1,2.4,2.329L7.791,259.55a1.666,1.666,0,0,1-1.2.507Zm0,0" transform="translate(-3.42 -196.996)" fill="#2dc471"/>
    <path id="Path_16539" data-name="Path 16539" d="M172.846,197.559l-5.427,2.939a1.931,1.931,0,0,1-2.784-2.084l1.036-6.225a2.012,2.012,0,0,0-.551-1.749l-4.391-4.409a1.993,1.993,0,0,1,1.064-3.371l6.067-.908a1.921,1.921,0,0,0,1.444-1.081l2.714-5.664a1.9,1.9,0,0,1,3.441,0l2.713,5.664a1.924,1.924,0,0,0,1.444,1.081l6.068.908a1.993,1.993,0,0,1,1.063,3.371l-4.39,4.409a2.013,2.013,0,0,0-.552,1.749l1.036,6.225a1.931,1.931,0,0,1-2.783,2.084l-5.427-2.939a1.867,1.867,0,0,0-1.785,0Zm0,0" transform="translate(-123.54 -134.572)" fill="#ffd02f"/>
    <path id="Path_16540" data-name="Path 16540" d="M214.519,411.108a1.671,1.671,0,0,1-1.672-1.672V383.293a1.672,1.672,0,1,1,3.343,0v26.144A1.671,1.671,0,0,1,214.519,411.108Zm0,0" transform="translate(-164.321 -295.31)" fill="#5c73bc"/>
    <path id="Path_16541" data-name="Path 16541" d="M214.487,345.981h-.026a1.672,1.672,0,1,1,0-3.344h.026a1.672,1.672,0,0,1,0,3.344Zm0,0" transform="translate(-164.276 -265.143)" fill="#5c73bc"/>
    <path id="Path_16542" data-name="Path 16542" d="M214.487,320.558h-.034a1.672,1.672,0,0,1,.007-3.343h.034a1.672,1.672,0,0,1-.007,3.343Zm0,0" transform="translate(-164.276 -245.471)" fill="#fa0"/>
    <path id="Path_16543" data-name="Path 16543" d="M20.117,156.206a1.667,1.667,0,0,1-1.2-.507L.973,137.213a1.672,1.672,0,1,1,2.4-2.329L21.317,153.37a1.672,1.672,0,0,1-1.2,2.836Zm0,0" transform="translate(0 -103.985)" fill="#ff4e61"/>
    <path id="Path_16544" data-name="Path 16544" d="M108.233,247a1.672,1.672,0,0,1-1.2-2.84l.019-.019a1.672,1.672,0,1,1,2.392,2.337l-.018.019A1.669,1.669,0,0,1,108.233,247Zm0,0" transform="translate(-82.073 -188.534)" fill="#fa0"/>
    <path id="Path_16545" data-name="Path 16545" d="M125.684,264.976a1.672,1.672,0,0,1-1.2-2.836l.018-.019a1.672,1.672,0,0,1,2.4,2.33l-.019.019A1.667,1.667,0,0,1,125.684,264.976Zm0,0" transform="translate(-95.578 -202.444)" fill="#5c73bc"/>
    <path id="Path_16546" data-name="Path 16546" d="M347.525,153.3a1.672,1.672,0,0,1-1.2-2.836l17.944-18.486a1.672,1.672,0,1,1,2.4,2.329l-17.945,18.486a1.667,1.667,0,0,1-1.2.507Zm0,0" transform="translate(-267.245 -101.736)" fill="#fa0"/>
    <path id="Path_16547" data-name="Path 16547" d="M320.741,244.1a1.664,1.664,0,0,1-1.192-.5l-.019-.019a1.672,1.672,0,0,1,2.384-2.344l.019.019a1.672,1.672,0,0,1-1.193,2.844Zm0,0" transform="translate(-246.505 -186.289)" fill="#ff4e61"/>
    <path id="Path_16548" data-name="Path 16548" d="M303.291,262.075a1.667,1.667,0,0,1-1.2-.507l-.019-.018a1.672,1.672,0,0,1,2.4-2.33l.018.019a1.672,1.672,0,0,1-1.2,2.837Zm0,0" transform="translate(-233.001 -200.2)" fill="#fa0"/>
    <path id="Path_16549" data-name="Path 16549" d="M294.939,28.138a1.672,1.672,0,0,1-1.45-2.5L306.35,3.1a1.672,1.672,0,0,1,2.9,1.657L296.393,27.3a1.672,1.672,0,0,1-1.454.843Zm0,0" transform="translate(-226.553 -1.747)" fill="#62d38f"/>
    <path id="Path_16550" data-name="Path 16550" d="M275.732,138.843a1.665,1.665,0,0,1-.857-.237l-.022-.013a1.672,1.672,0,0,1,1.717-2.87l.022.013a1.672,1.672,0,0,1-.86,3.106Zm0,0" transform="translate(-211.673 -104.843)" fill="#fa0"/>
    <path id="Path_16551" data-name="Path 16551" d="M263.225,160.76a1.663,1.663,0,0,1-.861-.24l-.022-.013a1.672,1.672,0,1,1,1.726-2.863l.022.013a1.672,1.672,0,0,1-.865,3.1Zm0,0" transform="translate(-201.995 -121.803)" fill="#2dc471"/>
    <path id="Path_16552" data-name="Path 16552" d="M90.234,28.138a1.671,1.671,0,0,1-1.454-.844L75.919,4.757a1.672,1.672,0,0,1,2.9-1.657L91.684,25.637a1.672,1.672,0,0,1-1.45,2.5Zm0,0" transform="translate(-58.191 -1.746)" fill="#5c73bc"/>
    <path id="Path_16553" data-name="Path 16553" d="M153.368,138.843a1.672,1.672,0,0,1-.863-3.1l.023-.013a1.672,1.672,0,0,1,1.722,2.866l-.022.013A1.666,1.666,0,0,1,153.368,138.843Zm0,0" transform="translate(-116.999 -104.843)" fill="#ff4e61"/>
    <path id="Path_16554" data-name="Path 16554" d="M165.876,160.76a1.672,1.672,0,0,1-.868-3.1l.022-.013a1.672,1.672,0,1,1,1.733,2.86l-.022.013A1.663,1.663,0,0,1,165.876,160.76Zm0,0" transform="translate(-126.678 -121.803)" fill="#fa0"/>
    <path id="Path_16555" data-name="Path 16555" d="M367.327,300.242l-3.511,2.624a1.356,1.356,0,0,1-2.154-1.168l.114-4.467a1.415,1.415,0,0,0-.558-1.168l-3.507-2.628a1.415,1.415,0,0,1,.413-2.472l4.159-1.269a1.378,1.378,0,0,0,.9-.908l1.343-4.249a1.342,1.342,0,0,1,2.409-.36l2.457,3.683a1.347,1.347,0,0,0,1.118.606l4.338,0a1.4,1.4,0,0,1,1.076,2.25l-2.641,3.544a1.433,1.433,0,0,0-.215,1.283l1.338,4.251a1.378,1.378,0,0,1-1.745,1.749l-4.089-1.492a1.324,1.324,0,0,0-1.25.186Zm0,0" transform="translate(-275.988 -219.437)" fill="#ffd02f"/>
    <path id="Path_16556" data-name="Path 16556" d="M255.789,386.666a1.671,1.671,0,0,1-1.672-1.672,40.32,40.32,0,0,1,9.5-26.757,34.777,34.777,0,0,1,9.61-8.022,1.672,1.672,0,0,1,1.513,2.982,32.151,32.151,0,0,0-8.677,7.327c-5.705,6.721-8.6,14.955-8.6,24.47a1.671,1.671,0,0,1-1.672,1.672Zm0,0" transform="translate(-196.257 -270.868)" fill="#ff4e61"/>
    <path id="Path_16557" data-name="Path 16557" d="M79.183,343.862l2.661,3.529a1.343,1.343,0,0,0,2.385-.5l1.1-4.323a1.384,1.384,0,0,1,.853-.96l4.08-1.517a1.416,1.416,0,0,0,.273-2.491l-3.65-2.414a1.412,1.412,0,0,1-.624-1.132l-.14-4.467a1.352,1.352,0,0,0-2.216-1.037l-3.356,2.831a1.328,1.328,0,0,1-1.238.261L75.144,330.4a1.381,1.381,0,0,0-1.642,1.851l1.576,4.164a1.434,1.434,0,0,1-.141,1.293L72.5,341.4a1.4,1.4,0,0,0,1.2,2.181l4.33-.258a1.342,1.342,0,0,1,1.15.538Zm0,0" transform="translate(-55.533 -253.993)" fill="#ffd02f"/>
    <path id="Path_16558" data-name="Path 16558" d="M157.244,434.575a1.671,1.671,0,0,1-1.672-1.672,38.173,38.173,0,0,0-4.49-18.486,1.672,1.672,0,0,1,2.937-1.6,41.492,41.492,0,0,1,4.9,20.086,1.671,1.671,0,0,1-1.672,1.672Zm0,0" transform="translate(-116.368 -318.776)" fill="#fa0"/>
    <path id="Path_16559" data-name="Path 16559" d="M238.227,40.086a4.488,4.488,0,1,0-4.486,4.622A4.556,4.556,0,0,0,238.227,40.086Zm0,0" transform="translate(-177.017 -27.444)" fill="#ffd02f"/>
    <path id="Path_16560" data-name="Path 16560" d="M342.382,431a4.488,4.488,0,1,0-4.485,4.621A4.555,4.555,0,0,0,342.382,431Zm0,0" transform="translate(-257.616 -329.946)" fill="#5c73bc"/>
    <path id="Path_16561" data-name="Path 16561" d="M19.508,438.174a3.6,3.6,0,1,0-3.6,3.707A3.653,3.653,0,0,0,19.508,438.174Zm0,0" transform="translate(-9.141 -336.205)" fill="#62d38f"/>
    <path id="Path_16562" data-name="Path 16562" d="M63.551,275.671a3.6,3.6,0,1,0-3.6,3.707A3.653,3.653,0,0,0,63.551,275.671Zm0,0" transform="translate(-43.222 -210.455)" fill="#5c73bc"/>
    <g id="Group_8561" data-name="Group 8561" transform="translate(30.369)">
      <path id="Path_16563" data-name="Path 16563" d="M186.219,3.707a3.6,3.6,0,1,0-7.2,0,3.6,3.6,0,1,0,7.2,0Zm0,0" transform="translate(-168.516)" fill="#ff4e61"/>
      <path id="Path_16564" data-name="Path 16564" d="M340.6,140.2a3.6,3.6,0,1,0-3.6,3.706A3.654,3.654,0,0,0,340.6,140.2Zm0,0" transform="translate(-287.982 -105.622)" fill="#ff4e61"/>
      <path id="Path_16565" data-name="Path 16565" d="M134.237,13.979a1.672,1.672,0,0,1-1.2-2.836L135.116,9a1.672,1.672,0,1,1,2.4,2.329l-2.078,2.142a1.668,1.668,0,0,1-1.2.507Zm0,0" transform="translate(-132.565 -6.573)" fill="#ff4e61"/>
    </g>
  </g>
</svg>
