<svg viewBox="0 0 88 88" xmlns="http://www.w3.org/2000/svg"><g fill="#1b9aaa" fill-rule="evenodd"><path d="m3.816 44.533l-1.222-.063.004.053.999.32 2.355 1.177.021.38-2.211 1.502-.948.438.003.05 1.193-.25 3.183-.178.064 1.138-6.117.35-.061-1.1 2.704-1.79.682-.33-.002-.03-.731-.224-2.868-1.39-.06-1.084 6.117-.342.068 1.19z"/><path d="m4.11 40.31c.308.039.593.047.857.028.263-.02.495-.072.694-.156.199-.084.361-.203.486-.358.125-.155.202-.349.23-.581.053-.422-.071-.77-.373-1.043-.301-.273-.822-.456-1.563-.547-.296-.038-.574-.047-.835-.03-.261.018-.494.068-.698.148-.205.08-.37.198-.499.352-.127.155-.206.354-.237.596-.052.423.077.772.386 1.045.31.275.827.456 1.55.546m-.155 1.251c-1.013-.126-1.766-.446-2.258-.96-.491-.514-.686-1.185-.583-2.01.055-.434.177-.805.368-1.11.191-.305.439-.548.743-.728.305-.179.658-.298 1.059-.353.401-.056.838-.055 1.313.005 1.013.127 1.766.448 2.258.965.49.517.686 1.186.583 2.01-.056.44-.178.813-.369 1.118-.191.305-.439.548-.743.724-.305.177-.656.293-1.057.349-.401.056-.839.054-1.314-.005"/><path d="m5.285 33.19l-1.06.191-.012.042.963.14 3.062.912-.325 1.091-5.914-1.761.249-.839 3.792-1.292 1.03-.177.012-.042-.938-.135-3.087-.917.324-1.093 5.915 1.76-.246.842z"/><path d="m4.269 27.11l1.544-3.291.967.454-1.035 2.202 1.295.605.938-2 .967.452-.945 2 1.358.634 1.053-2.24.967.455-1.563 3.327z"/><path d="m10.906 22.772l-4.325-.432.783-1.19 2.541.325.608.253.024-.036-.487-.472-1.311-2.17.707-1.07 2.111 3.785 1.909 1.255-.658 1z"/><path d="m17.54 16.721c.103-.1.191-.209.263-.328.073-.118.121-.239.144-.362.025-.124.02-.247-.01-.37-.031-.122-.099-.238-.203-.346-.134-.138-.265-.219-.395-.246-.13-.027-.259-.02-.388.019-.129.04-.252.106-.371.197-.119.091-.232.189-.339.293l-.451.436 1.163 1.201c.028-.012.067-.037.116-.077.049-.039.101-.083.155-.131.053-.048.109-.097.166-.149.058-.052.107-.098.149-.137m-2.105-1.628c.058-.058.124-.125.198-.205.074-.079.131-.147.174-.204.111-.204.175-.412.195-.623.019-.211-.05-.398-.207-.559-.104-.109-.212-.177-.321-.207-.111-.03-.221-.032-.33-.007-.11.025-.216.073-.321.141-.104.069-.203.15-.299.244-.11.105-.209.204-.297.298-.088.094-.153.17-.196.226l1.127 1.164.277-.268m1.045-2.608c.106.109.197.231.276.366.078.135.13.278.155.429.025.151.021.309-.012.475-.034.166-.105.335-.214.505l.036.037c.145-.101.299-.18.46-.239.161-.058.327-.085.495-.077.169.008.338.051.508.13.169.08.337.205.504.377.22.227.361.47.425.728.064.259.066.52.006.781-.061.261-.169.516-.326.765-.157.249-.344.479-.562.691-.072.068-.163.157-.274.265-.111.107-.234.22-.367.338-.134.118-.273.233-.417.349-.145.115-.284.212-.417.293l-4.201-4.34c.067-.09.146-.191.237-.302.091-.112.19-.229.299-.351.109-.122.224-.245.343-.37.12-.124.241-.245.362-.362.205-.199.421-.377.646-.533.225-.158.453-.271.682-.34.23-.067.46-.076.691-.022.23.053.451.189.662.407"/><path d="m20.671 12.182l1.066-.767-1.168-.842-.712-.674-.036.025.419.896.431 1.362m1.842-.139l-1.528 1.1.417 1.372-.973.7-1.818-6.295.717-.518 5.397 3.718-1.023.736-1.189-.814"/><path d="m28.863 9.669c-.103.205-.269.4-.498.585-.229.186-.478.349-.746.49-.326.171-.66.284-1 .336-.344.053-.688.025-1.027-.083-.341-.109-.671-.307-.991-.596-.32-.29-.615-.691-.883-1.202-.281-.532-.44-1.015-.482-1.453-.041-.436-.002-.826.118-1.169.119-.343.299-.638.538-.886.239-.247.503-.447.792-.599.311-.163.584-.28.82-.351.236-.072.439-.116.607-.132l.263 1.01c-.148.005-.311.038-.488.098-.175.059-.38.15-.613.272-.428.226-.693.56-.794 1-.1.442.019.984.356 1.627.146.279.312.518.495.715.182.197.38.345.593.442.212.096.436.14.673.132.236-.008.478-.079.726-.208.233-.122.417-.248.552-.379.136-.131.245-.264.325-.399l.671.749"/><path d="m30.605 6.468l-.295.103.86 2.469-1.14.396-2.01-5.787 1.14-.393.89 2.563.22-.208.75-3 1.29-.448-.846 3.02-.334.469.572.162 2.871 2.052-1.403.484z"/><path d="m39.666 3.732l2.269-.265.317 2.713c-.22.231-.493.413-.822.545-.328.133-.657.218-.988.256-.389.045-.756.027-1.103-.056-.348-.082-.659-.238-.932-.468-.273-.229-.502-.536-.688-.919-.186-.384-.311-.851-.376-1.402-.067-.574-.041-1.072.077-1.494.118-.422.297-.775.538-1.058.24-.284.521-.502.844-.654.322-.152.658-.249 1.01-.29.347-.041.656-.05.926-.029.27.022.487.052.649.092l-.127 1.028c-.151-.041-.319-.067-.502-.077-.184-.011-.415 0-.694.032-.249.029-.473.093-.673.193-.2.1-.367.245-.5.434-.134.188-.227.422-.28.698-.053.276-.057.605-.013.988.043.365.121.675.232.929.112.255.251.458.416.612.164.154.349.261.553.319.203.058.416.075.636.049.15-.018.296-.053.437-.109.141-.054.255-.125.346-.212l-.135-1.148-1.329.014-.084-.722"/><path d="m47.14.599l1.138.043-.151 3.954c-.015.396-.08.735-.197 1.017-.115.282-.271.512-.463.691-.194.179-.427.308-.698.386-.271.078-.568.109-.889.098-1.551-.059-2.3-.797-2.246-2.214l.156-4.103 1.199.046-.147 3.866c-.009.239.005.442.042.611.037.167.1.305.191.41.089.105.203.182.341.232.139.049.302.077.488.084.367.014.636-.078.808-.276.171-.197.265-.524.283-.979l.146-3.866"/><path d="m51.34 4.941l1.289.251-.184-1.426.004-.981-.044-.007-.367.917-.698 1.247m1.362 1.247l-1.846-.361-.715 1.243-1.177-.229 3.347-5.634.867.169.983 6.479-1.237-.241-.221-1.425"/><path d="m58.51 3.915c-.115-.041-.23-.079-.344-.114-.114-.034-.205-.055-.271-.06l-.601 1.672.478.172c.314.112.589.13.827.055.238-.076.416-.279.534-.608.088-.247.081-.469-.022-.664-.104-.196-.304-.346-.601-.453m-1.42-1.486c.135.023.279.052.431.085.152.033.303.07.452.111.149.041.295.085.433.127.14.044.267.086.382.128.269.097.525.217.769.36.244.143.446.313.609.507.162.195.267.42.315.676.047.256.014.543-.1.862-.169.473-.418.817-.743 1.035-.326.218-.694.318-1.104.301l.313.401.527 2.672-1.3-.467-.5-2.728-.554-.32-.85 2.363-1.128-.404 2.049-5.709"/><path d="m62.41 8.655l1.159.617.24-1.419.29-.936-.039-.021-.619.771-1.031.988m.938 1.59l-1.661-.885-1.047.98-1.058-.564 4.846-4.41.78.415-.953 6.484-1.112-.592.205-1.428"/><path d="m68.15 11.143l.2-1.063-.04-.02-.468.851-1.928 2.547-.904-.687 3.72-4.92.7.529-.12 4-.2 1.026.04.027.45-.832 1.94-2.564.91.683-3.72 4.92-.7-.523z"/><path d="m76.48 16.198l-1.24-1.283-3.64 3.519-.829-.862 3.639-3.522-1.25-1.286.765-.744 3.325 3.435z"/><path d="m78.44 16.925l2.14 2.931-.86.631-1.43-1.963-1.15.843 1.3 1.783-.86.635-1.31-1.787-1.2.884 1.46 1.999-.86.631-2.17-2.966z"/><path d="m81.75 21.704l1.73 3.192-.94.51-1.16-2.138-1.25.681 1.06 1.946-.94.51-1.06-1.946-1.314.711 1.184 2.18-.94.51-1.76-3.229z"/><path d="m82.29 30.937c.189-.059.373-.078.55-.058.175.018.338.07.486.153.147.082.277.191.387.325.113.134.194.287.248.46.055.178.077.355.065.529-.01.175-.052.335-.127.483-.073.148-.179.28-.317.395-.139.116-.308.205-.509.266-.201.062-.39.083-.566.064-.177-.02-.337-.069-.481-.15-.143-.081-.269-.191-.376-.329-.106-.138-.187-.296-.241-.475-.053-.172-.074-.346-.062-.516.012-.172.053-.333.126-.484.073-.15.177-.283.313-.398.136-.116.304-.203.505-.265"/><path d="m84.92 42.98l1.226.05-.01-.055-1-.308-2.37-1.145-.02-.382 2.188-1.531.942-.449v-.04l-1.19.25-3.18.221-.08-1.134 6.11-.417.08 1.09-2.685 1.823-.675.337v.03l.732.217 2.888 1.354.07 1.083-6.11.416-.09-1.19z"/><path d="m84.68 47.23c-.308-.035-.593-.041-.858-.018-.263.023-.494.078-.691.164-.198.087-.359.208-.482.364-.124.156-.198.349-.225.582-.046.423.081.769.385 1.039.304.268.827.446 1.57.529.295.034.573.041.834.02.261-.02.492-.071.697-.154.203-.083.367-.203.493-.357.126-.157.203-.356.23-.6.049-.424-.085-.771-.397-1.041-.313-.27-.831-.446-1.556-.528m.141-1.253c1.015.116 1.771.427 2.269.935.497.509.7 1.178.606 2.01-.049.436-.168.806-.355 1.114-.188.308-.433.553-.735.736-.303.183-.654.305-1.055.366-.4.06-.838.063-1.314.009-1.014-.114-1.77-.427-2.267-.939-.496-.511-.7-1.178-.606-2 .05-.441.169-.815.356-1.122.188-.308.432-.553.734-.732.303-.181.653-.3 1.055-.361.4-.06.838-.065 1.313-.011"/><path d="m83.59 54.33l1.06-.2.01-.04-.96-.128-3.08-.872.317-1.097 5.933 1.688-.24.839-3.77 1.341-1.03.189-.01.04.94.12 3.1.89-.32 1.09-5.93-1.69.24-.839z"/><path d="m84.69 60.4l-1.51 3.307-.97-.447 1.01-2.21-1.302-.59-.918 2.02-.97-.45.916-2.01-1.366-.62-1.02 2.25-.97-.44 1.52-3.346z"/><path d="m78.09 64.836l4.33.384-.77 1.2-2.54-.3-.61-.244-.03.036.493.468 1.337 2.15-.69 1.08-2.16-3.759-1.92-1.231.64-1.01z"/><path d="m73.72 72.49c-.058.058-.121.129-.193.21-.071.082-.127.151-.167.21-.105.207-.163.417-.175.629-.011.212.063.396.225.553.108.103.218.169.328.195.112.027.221.026.329-.003.108-.029.214-.079.316-.152.102-.072.199-.157.292-.252.106-.109.202-.212.287-.309.086-.096.148-.172.189-.231l-1.165-1.126-.266.277m-2.158-1.56c-.1.103-.184.215-.254.335-.068.121-.112.243-.132.368-.02.124-.013.248.023.37.035.121.107.235.215.339.136.133.271.21.401.233.131.023.26.013.388-.031.127-.044.249-.114.365-.209.116-.095.225-.197.328-.303l.436-.451-1.201-1.163c-.028.013-.066.04-.115.081-.048.041-.097.087-.149.136-.052.05-.105.101-.162.154-.056.054-.103.101-.143.142m1.198 4.201c-.111-.106-.206-.225-.289-.358-.082-.133-.139-.274-.169-.424-.03-.15-.031-.309-.002-.475.028-.168.093-.338.197-.512l-.038-.037c-.142.105-.292.189-.452.253-.159.064-.323.095-.491.093-.169-.002-.34-.04-.512-.113-.172-.074-.344-.194-.517-.361-.226-.219-.375-.457-.447-.714-.072-.257-.083-.516-.031-.779.051-.262.151-.521.3-.775.148-.255.329-.49.539-.709.07-.071.157-.162.264-.274.109-.111.227-.227.357-.349.13-.122.266-.244.406-.363.14-.119.275-.223.406-.308l4.34 4.202c-.064.092-.14.194-.228.31-.085.115-.182.235-.287.36-.106.126-.216.253-.332.38-.115.127-.232.253-.349.374-.199.205-.408.389-.628.555-.221.164-.445.285-.673.361-.228.075-.458.09-.689.044-.232-.046-.457-.174-.674-.384"/><path d="m68.45 75.54l-1.055.78 1.177.829.72.665.035-.027-.429-.89-.447-1.357m-1.839.162l1.513-1.118-.433-1.367.965-.712 1.892 6.274-.711.526-5.44-3.655 1.013-.748 1.201.801"/><path d="m60.28 78.15c.102-.206.265-.404.491-.591.227-.189.474-.355.741-.499.322-.175.657-.291 1-.348.345-.056.687-.032 1.028.072.342.103.673.299.998.585.322.285.623.682.897 1.19.287.529.452 1.012.499 1.448.047.436.012.824-.105 1.169-.115.345-.291.642-.527.892-.236.251-.497.453-.786.608-.307.167-.578.287-.814.361-.235.073-.438.12-.606.139l-.275-1.01c.148-.006.311-.041.487-.103.175-.062.379-.155.61-.28.425-.231.687-.567.782-1.012.095-.443-.03-.985-.374-1.621-.151-.277-.319-.515-.504-.71-.184-.195-.385-.341-.598-.434-.213-.094-.438-.136-.674-.124-.236.011-.477.084-.724.217-.231.125-.413.253-.547.386-.135.132-.241.266-.32.402l-.68-.741"/><path d="m58.57 81.37l.299-.1-.888-2.47 1.129-.4 2.08 5.76-1.13.41-.92-2.55-.224.21-.716 3.01-1.281.46.809-3.03.332-.47-.58-.16-2.89-2.01 1.39-.51z"/><path d="m49.54 84.21l-2.267.291-.347-2.709c.217-.233.489-.419.816-.555.327-.136.656-.225.985-.267.388-.05.756-.035 1.105.043.348.079.661.232.937.458.276.226.508.531.699.911.19.382.32.847.391 1.397.074.573.053 1.071-.059 1.495-.114.424-.289.779-.526 1.065-.237.287-.515.508-.838.663-.32.157-.655.256-1 .301-.346.044-.655.058-.925.04-.27-.019-.486-.047-.65-.085l.115-1.029c.152.04.32.064.503.073.184.008.414-.005.692-.041.249-.032.472-.098.671-.201.199-.102.364-.248.496-.438.131-.191.221-.424.272-.701.05-.278.05-.607.002-.989-.047-.364-.127-.674-.242-.926-.116-.253-.255-.456-.422-.608-.167-.152-.352-.257-.557-.312-.205-.056-.417-.071-.636-.043-.151.019-.296.057-.436.114-.14.056-.255.127-.343.216l.147 1.146 1.329-.029.093.72"/><path d="m42.1 87.43l-1.138-.031.106-3.954c.011-.397.072-.738.184-1.021.113-.283.266-.514.457-.697.192-.181.422-.313.694-.393.271-.079.567-.115.887-.107 1.552.041 2.309.772 2.271 2.188l-.111 4.104-1.198-.032.103-3.868c.007-.239-.01-.443-.05-.61-.039-.167-.103-.303-.194-.408-.091-.105-.206-.181-.344-.228-.139-.048-.301-.074-.488-.079-.367-.009-.635.085-.805.284-.169.2-.259.527-.271.983l-.104 3.868"/><path d="m37.879 83.14l-1.291-.236.203 1.425.007.979.044.008.355-.922.683-1.255m-1.377-1.231l1.852.339.7-1.251 1.18.215-3.279 5.674-.87-.159-1.061-6.467 1.241.228.238 1.421"/><path d="m30.73 84.25c.116.04.231.077.346.11.116.034.206.053.272.058l.58-1.681-.479-.165c-.314-.109-.591-.124-.828-.046-.236.08-.412.284-.526.615-.085.249-.075.469.03.663.106.194.308.343.606.446m1.438 1.469c-.135-.022-.279-.048-.432-.079-.153-.032-.304-.067-.454-.106-.15-.041-.295-.08-.435-.123-.14-.043-.268-.082-.383-.123-.271-.094-.528-.21-.773-.35-.244-.14-.449-.306-.614-.499-.166-.194-.273-.418-.324-.673-.051-.255-.021-.543.089-.862.164-.475.408-.823.731-1.044.323-.221.69-.326 1.099-.315l-.317-.397-.559-2.665 1.306.451.532 2.721.559.314.82-2.375 1.133.392-1.979 5.734"/><path d="m26.761 79.56l-1.166-.604-.224 1.422-.279.94.039.019.61-.778 1.02-1m-.957-1.579l1.672.864 1.035-.992 1.064.55-4.793 4.469-.785-.406.875-6.495 1.12.579-.188 1.431"/><path d="m20.99 77.13l-.185 1.06.036.03.458-.86 1.901-2.57.91.68-3.663 4.96-.704-.517.073-4 .184-1.029-.035-.026-.444.837-1.914 2.59-.915-.67 3.666-4.97.702.52z"/><path d="m12.585 72.12l1.242 1.29 3.634-3.522.835.862-3.635 3.52 1.248 1.29-.769.74-3.323-3.434z"/><path d="m10.633 71.47l-2.181-2.9.855-.643 1.461 1.946 1.14-.853-1.329-1.77.854-.65 1.33 1.78 1.197-.9-1.488-1.98.855-.645 2.207 2.94z"/><path d="m7.263 66.73l-1.772-3.18.933-.52 1.186 2.13 1.246-.7-1.08-1.93.932-.52 1.08 1.931 1.302-.731-1.204-2.16.933-.52 1.793 3.208z"/><path d="m6.623 57.52c-.189.06-.372.082-.549.065-.177-.017-.34-.067-.489-.148-.148-.081-.278-.187-.391-.319-.112-.133-.197-.285-.252-.458-.056-.178-.081-.354-.073-.529.009-.174.049-.335.121-.484.072-.149.177-.281.314-.398.136-.118.305-.209.506-.273.199-.065.388-.088.566-.071.177.017.338.065.482.144.145.079.271.188.38.325.107.136.191.294.247.472.056.172.078.344.069.515-.01.172-.05.333-.121.485-.071.151-.174.284-.308.401-.134.116-.302.207-.501.272"/><path d="m40.839 55.901h-.073l-.303 1.609-.737 2.236h2.168l-.754-2.256z"/><path d="m32.679 56.16c-.208-.318-.489-.578-.846-.78-.356-.203-.809-.304-1.358-.304-.212 0-.427.005-.643.014-.217.01-.379.024-.485.044v6.779c.038.011.104.017.195.022.091.005.191.01.296.015.107.005.208.009.304.014.097.005.169.008.217.008.559 0 1.024-.098 1.395-.296.371-.198.665-.46.882-.788.217-.328.369-.706.455-1.135.087-.429.13-.87.13-1.323 0-.395-.039-.792-.116-1.192-.077-.401-.219-.76-.426-1.078"/><path d="m44 77c18.225 0 33-14.775 33-33 0-18.225-14.775-33-33-33-18.225 0-33 14.775-33 33 0 18.225 14.775 33 33 33m17.14-14.97c-.177.391-.426.716-.747.975-.32.261-.709.454-1.163.579-.455.125-.955.187-1.501.187-.719 0-1.35-.067-1.896-.202-.546-.135-.948-.269-1.207-.405l.632-1.691c.105.058.241.121.41.188.167.067.356.13.566.187.212.058.434.106.669.145.234.037.476.058.725.058.584 0 1.032-.099 1.343-.297.312-.197.467-.499.467-.903 0-.308-.113-.559-.338-.752-.226-.193-.508-.368-.848-.527-.34-.159-.709-.323-1.105-.491-.398-.169-.766-.376-1.106-.622-.34-.245-.623-.552-.848-.918-.225-.366-.337-.833-.337-1.401 0-.491.08-.918.244-1.279.163-.362.395-.663.696-.903.303-.241.659-.419 1.071-.535.411-.115.871-.174 1.379-.174.584 0 1.135.051 1.652.153.518.1.944.247 1.279.439l-.618 1.662c-.211-.134-.527-.257-.948-.368-.422-.11-.877-.166-1.365-.166-.46 0-.812.091-1.055.275-.245.183-.367.429-.367.736 0 .289.113.53.338.723.224.193.508.371.847.535.34.163.708.331 1.106.505.397.173.766.382 1.106.628.34.246.622.55.848.91.224.362.337.812.337 1.352 0 .54-.088 1-.266 1.394m-11.183-2.232v3.771h-1.968v-3.757l-3.305-6.358h2.343l1.839 3.8.2 1.07h.072l.215-1.098 1.782-3.771h2.111l-3.289 6.343m-7.07 3.771l-.805-2.239h-3.089l-.761 2.239h-1.968l3.62-10.187h1.451l3.62 10.187h-2.068m-8.05-3.165c-.172.636-.46 1.2-.862 1.691-.402.492-.932.887-1.588 1.185-.656.299-1.468.448-2.435.448-.154 0-.357-.005-.61-.014-.254-.01-.517-.022-.79-.036-.273-.015-.534-.028-.783-.043-.25-.014-.436-.031-.56-.05v-10.129c.201-.029.429-.053.682-.073.254-.019.515-.034.783-.043.268-.01.529-.017.783-.022.254-.004.481-.007.683-.007.891 0 1.652.125 2.284.376.632.251 1.144.602 1.537 1.055.393.453.68.992.862 1.619.182.626.273 1.315.273 2.066 0 .684-.086 1.343-.259 1.979m-7.213-16.364h5v-14.22l.54-2.448-1.728 2.124-3.204 2.196-1.98-2.7 8.208-6.624h2.628v21.672h4.896v3.96h-14.364v-3.96m34.684-3.06h-3.96v7.02h-4.356v-7.02h-10.908v-2.664l11.412-15.696h3.852v14.616h3.96v3.744m-8.316-9.252l.324-3.02h-.144l-1.224 2.592-3.744 4.86-1.8 1.368 2.304-.288h4.284v-5.508"/></g></svg>