<svg width="24" height="24" viewBox="0 0 24 24" fill="none" xmlns="http://www.w3.org/2000/svg">
<g clip-path="url(#clip0_301_40845)">
<path d="M12 3.73218C7.44107 3.73218 3.73218 7.44107 3.73218 12C3.73218 16.5589 7.44107 20.2678 12 20.2678C16.5589 20.2678 20.2678 16.5589 20.2678 12C20.2678 7.44107 16.5589 3.73218 12 3.73218ZM12 19.4903C7.86983 19.4903 4.50969 16.1302 4.50969 12C4.50969 7.86979 7.86983 4.50969 12 4.50969C16.1301 4.50969 19.4903 7.86983 19.4903 12C19.4903 16.1301 16.1301 19.4903 12 19.4903Z" fill="#2564AD"/>
<path d="M12.3888 11.7031V8.67209C13.659 8.77419 14.514 9.36514 14.514 9.90054C14.514 10.1152 14.6881 10.2893 14.9028 10.2893C15.1175 10.2893 15.2916 10.1153 15.2916 9.90054C15.2916 8.84792 14.0447 8.00754 12.3888 7.89279V7.43834C12.3888 7.22365 12.2147 7.04956 12 7.04956C11.7853 7.04956 11.6112 7.22361 11.6112 7.43834V7.89279C9.95529 8.00754 8.70837 8.84792 8.70837 9.90054C8.70837 11.3107 10.0492 11.861 11.6112 12.2967V15.3277C10.341 15.2255 9.48594 14.6346 9.48594 14.0992C9.48594 13.8845 9.31189 13.7105 9.09715 13.7105C8.88247 13.7105 8.70837 13.8845 8.70837 14.0992C8.70837 15.1519 9.95529 15.9922 11.6112 16.107V16.5614C11.6112 16.7761 11.7852 16.9502 12 16.9502C12.2147 16.9502 12.3888 16.7762 12.3888 16.5614V16.107C14.0447 15.9922 15.2916 15.1519 15.2916 14.0992C15.2915 12.689 13.9507 12.1388 12.3888 11.7031ZM11.6112 11.4869C10.0344 11.021 9.48594 10.5979 9.48594 9.90054C9.48594 9.36514 10.341 8.77419 11.6112 8.67209V11.4869ZM12.3888 15.3277V12.5128C13.9655 12.9787 14.514 13.4019 14.514 14.0992C14.514 14.6346 13.659 15.2256 12.3888 15.3277Z" fill="#2564AD"/>
<path d="M20.4853 3.51473C18.2188 1.24819 15.2053 0 12 0C8.54931 0 5.32736 1.45195 3.04881 4.00781L3.26177 2.51719C3.2921 2.30461 3.14439 2.10773 2.93186 2.07736C2.71924 2.04722 2.52241 2.19473 2.49203 2.40722L2.07733 5.31005C2.0583 5.44341 2.10967 5.57714 2.21308 5.66353C2.28405 5.72273 2.37246 5.75381 2.46227 5.75381C2.50342 5.75381 2.54496 5.7473 2.58517 5.73384L5.0733 4.90448C5.27702 4.83656 5.38708 4.61644 5.31921 4.41272C5.25124 4.209 5.03116 4.09884 4.82744 4.16681L3.57738 4.58353C5.71113 2.15723 8.74699 0.777516 12 0.777516C14.9976 0.777516 17.8158 1.94484 19.9355 4.06448C22.0552 6.18417 23.2225 9.00234 23.2225 12C23.2225 14.9977 22.0552 17.8158 19.9355 19.9355C17.8158 22.0552 14.9977 23.2225 12 23.2225C11.7853 23.2225 11.6112 23.3965 11.6112 23.6113C11.6112 23.826 11.7853 24 12 24C15.2053 24 18.2188 22.7519 20.4853 20.4853C22.7517 18.2188 24 15.2053 24 12C24 8.79469 22.7518 5.78119 20.4853 3.51473Z" fill="#2564AD"/>
<path d="M10.3964 23.1088C10.2642 23.0899 10.1311 23.0685 10.0007 23.0451C9.78929 23.0069 9.58725 23.1475 9.54924 23.3589C9.51122 23.5702 9.65171 23.7723 9.86307 23.8103C10.0026 23.8354 10.1449 23.8584 10.2863 23.8786C10.3049 23.8813 10.3235 23.8826 10.3418 23.8826C10.5321 23.8826 10.6984 23.7427 10.7262 23.5489C10.7565 23.3362 10.6089 23.1393 10.3964 23.1088Z" fill="#2564AD"/>
<path d="M8.49631 22.6647C8.25157 22.5844 8.00642 22.4943 7.76759 22.397C7.56884 22.3161 7.34192 22.4114 7.26082 22.6103C7.17982 22.8092 7.27535 23.0361 7.4742 23.1171C7.72971 23.2212 7.99198 23.3175 8.25382 23.4035C8.29409 23.4167 8.33497 23.423 8.37518 23.423C8.53859 23.423 8.6907 23.3191 8.74451 23.1554C8.8114 22.9513 8.70031 22.7317 8.49631 22.6647Z" fill="#2564AD"/>
<path d="M1.03557 14.4043C0.980683 14.1527 0.933902 13.8958 0.896543 13.6408C0.865371 13.4283 0.668121 13.2815 0.455589 13.3125C0.243105 13.3436 0.096105 13.541 0.127277 13.7534C0.167261 14.0261 0.21723 14.3009 0.275964 14.57C0.315668 14.7519 0.476636 14.876 0.655418 14.876C0.682886 14.876 0.710777 14.8731 0.738668 14.867C0.948386 14.8212 1.08137 14.614 1.03557 14.4043Z" fill="#2564AD"/>
<path d="M0.904635 8.54471C0.697776 8.4879 0.483698 8.60973 0.426885 8.81682C0.353948 9.08246 0.289448 9.35429 0.235166 9.62467C0.192885 9.83518 0.329244 10.0401 0.53976 10.0824C0.565635 10.0876 0.591323 10.0901 0.616729 10.0901C0.798088 10.0901 0.960416 9.96245 0.997447 9.77781C1.04821 9.52506 1.10854 9.2709 1.1767 9.02251C1.23346 8.81546 1.11173 8.60153 0.904635 8.54471Z" fill="#2564AD"/>
<path d="M1.76517 16.6104C1.65924 16.3757 1.56024 16.1342 1.47089 15.8927C1.39641 15.6913 1.17272 15.5884 0.971392 15.6629C0.770018 15.7374 0.667174 15.9611 0.741658 16.1624C0.837189 16.4207 0.94308 16.6791 1.05642 16.9303C1.1213 17.0741 1.26281 17.1592 1.41103 17.1592C1.46447 17.1592 1.5188 17.1481 1.57069 17.1247C1.76644 17.0364 1.85344 16.8061 1.76517 16.6104Z" fill="#2564AD"/>
<path d="M0.433172 10.9055C0.218578 10.8925 0.0346406 11.0559 0.0217969 11.2703C0.00735938 11.5118 0 11.7573 0 12.0004C0 12.0336 0.000140625 12.0667 0.000421875 12.0998C0.00210937 12.3134 0.175828 12.4854 0.389156 12.4854C0.390141 12.4854 0.391219 12.4854 0.39225 12.4854C0.606938 12.4838 0.779625 12.3083 0.777984 12.0936C0.77775 12.0623 0.777562 12.0311 0.777562 12.0001C0.777562 11.7728 0.784453 11.5429 0.798 11.3169C0.810891 11.1026 0.647531 10.9184 0.433172 10.9055Z" fill="#2564AD"/>
<path d="M6.3748 21.713C6.15214 21.5837 5.93089 21.4449 5.71714 21.3002C5.5393 21.1799 5.29766 21.2265 5.17728 21.4043C5.05691 21.5821 5.1035 21.8237 5.2813 21.9441C5.50977 22.0988 5.74639 22.2473 5.98447 22.3854C6.04588 22.4211 6.11295 22.438 6.17928 22.438C6.31335 22.438 6.44375 22.3686 6.51589 22.2443C6.62371 22.0587 6.56052 21.8208 6.3748 21.713Z" fill="#2564AD"/>
<path d="M2.93595 18.6186C2.78384 18.4106 2.63708 18.1947 2.49959 17.9767C2.38512 17.7951 2.14508 17.7406 1.96339 17.8552C1.78175 17.9697 1.72737 18.2097 1.84189 18.3914C1.98884 18.6245 2.14578 18.8553 2.30839 19.0777C2.38456 19.1818 2.50273 19.2369 2.62245 19.2369C2.70214 19.2369 2.78248 19.2125 2.85167 19.1619C3.02501 19.0351 3.06275 18.7919 2.93595 18.6186Z" fill="#2564AD"/>
<path d="M4.49506 20.344C4.30348 20.1716 4.11542 19.9903 3.93612 19.8051C3.78678 19.6509 3.54073 19.6469 3.38642 19.7963C3.23215 19.9456 3.22817 20.1917 3.37756 20.346C3.56918 20.5439 3.77018 20.7377 3.97493 20.922C4.04928 20.9889 4.14228 21.0218 4.2349 21.0218C4.34126 21.0218 4.4472 20.9784 4.52398 20.8931C4.6676 20.7335 4.65462 20.4877 4.49506 20.344Z" fill="#2564AD"/>
<path d="M1.67306 6.67244C1.47904 6.58033 1.24715 6.66293 1.15504 6.85676C1.09401 6.98519 1.03453 7.11644 0.978185 7.24694C0.89306 7.44401 0.983857 7.67285 1.18097 7.75798C1.23122 7.77963 1.28348 7.78994 1.3349 7.78994C1.48533 7.78994 1.62862 7.7021 1.692 7.55524C1.74469 7.43327 1.80028 7.31051 1.85737 7.19041C1.94948 6.99644 1.86698 6.7646 1.67306 6.67244Z" fill="#2564AD"/>
</g>
<defs>
<clipPath id="clip0_301_40845">
<rect width="24" height="24" fill="white"/>
</clipPath>
</defs>
</svg>
