<svg id="verified" xmlns="http://www.w3.org/2000/svg" width="81.724" height="81.724" viewBox="0 0 81.724 81.724">
  <g id="Group_8563" data-name="Group 8563">
    <g id="Group_8562" data-name="Group 8562">
      <path id="Path_16566" data-name="Path 16566" d="M69.755,11.968A40.862,40.862,0,0,0,11.968,69.755,40.862,40.862,0,1,0,69.755,11.968ZM40.862,76.935A36.073,36.073,0,1,1,76.935,40.862,36.114,36.114,0,0,1,40.862,76.935Z" fill="#36cf92"/>
    </g>
  </g>
  <g id="Group_8565" data-name="Group 8565" transform="translate(20.638 27.05)">
    <g id="Group_8564" data-name="Group 8564">
      <path id="Path_16567" data-name="Path 16567" d="M169.046,170.168a2.394,2.394,0,0,0-3.386,0l-21.143,21.143-11.13-11.13A2.394,2.394,0,1,0,130,183.567l12.822,12.822a2.394,2.394,0,0,0,3.386,0l22.836-22.836A2.394,2.394,0,0,0,169.046,170.168Z" transform="translate(-129.301 -169.467)" fill="#36cf92"/>
    </g>
  </g>
</svg>
