<svg xmlns="http://www.w3.org/2000/svg" xmlns:xlink="http://www.w3.org/1999/xlink" width="322.3" height="284.744" viewBox="0 0 322.3 284.744">
  <defs>
    <linearGradient id="linear-gradient" x1="0.5" x2="0.893" y2="2.113" gradientUnits="objectBoundingBox">
      <stop offset="0" stop-color="#2386dc"/>
      <stop offset="1" stop-color="#44b5ff"/>
    </linearGradient>
  </defs>
  <g id="Group_7201" data-name="Group 7201" transform="translate(-922.7 -257)">
    <circle id="Ellipse_1090" data-name="Ellipse 1090" cx="98.5" cy="98.5" r="98.5" transform="translate(1048 335)" fill="#eff5ff" opacity="0.72"/>
    <g id="pngtree-campaignsemailmarketingnewslettermail-line-icon-png-image_1226774" transform="translate(901.492 217.028)">
      <g id="_f8f8f8ff" data-name="#f8f8f8ff" transform="translate(181.633 137.669)">
        <path id="Path_11728" data-name="Path 11728" d="M162.44,129.27c.714,0,2.141,0,2.855.013-.852,2.492-1.728,4.971-2.5,7.488C162.528,134.279,162.465,131.774,162.44,129.27Z" transform="translate(-162.44 -129.27)" fill="#2386dc"/>
      </g>
      <g id="_050707ff" data-name="#050707ff" transform="translate(86.35 101.008)">
        <path id="Path_11733" data-name="Path 11733" d="M109.153,122.542c3.644-12.272,15.115-21.889,28.013-22.515,27.9-.063,55.8,0,83.713-.025,12.184.013,24.381-.013,36.578,0a27.979,27.979,0,0,1,15.666,4.533c11.208,7.451,16.83,21.15,16.63,34.324-.15,22.49.3,45.018-.225,67.5-3.519.714-7.138.463-10.707.463-19.623-.113-39.258.088-58.881-.063-.063,4.871-.025,9.742-.038,14.614-.088,19.585.175,39.17-.138,58.743-7.175.376-14.363.05-21.551.225a25.7,25.7,0,0,1-.589-6.336c.138-22.428-.113-44.855.113-67.283-9.5.175-19.009-.013-28.5.138-7.363,10.206-15.34,19.948-22.941,29.979-19.973-.213-39.959.15-59.945-.2a15.793,15.793,0,0,1,2.6-4.821c6.612-8.127,12.648-16.73,19.41-24.744-.376-15.227-.225-30.48-.075-45.707-7.2-.05-14.4.113-21.589-.138-.1-12.886-.2-25.784.05-38.669,7.463-.025,14.939-.013,22.4-.013m43.24-19.523c10.193,4.884,17.832,15.6,17.657,27.111.012,3.292.021,6.585.029,10.123.046,21.034.007,42.322,0,63.61,8.578.163,17.156.038,25.734.075,30.242.05,60.5-.1,90.738.075-.2-5.9-.188-11.8,0-17.682-31.444.075-62.9.238-94.344-.088.025-.651.075-1.966.1-2.617,31.356-.313,62.738-.2,94.094-.05,0-16.58.138-33.172-.075-49.764-.739-14.664-11.834-30.342-27.549-30.68-14.839-.113-29.691-.2-44.53.025-20.612-.263-41.236-.025-61.848-.138m-20.512.839c1.1,4.3,2.367,11.132,7.927,11.22,4.508-1.665,5.385-7.088,6.587-11.145a36.539,36.539,0,0,0-14.514-.075m-19.61,18.521c10.807.376,21.639.038,32.446.188.05,12.911.138,25.809-.05,38.719-11.208.113-22.428.15-33.648-.038-.175,14.225.05,28.438-.125,42.664,18.784.025,37.58.075,56.364-.025.1-24.181.038-48.362.038-72.543a29.046,29.046,0,0,0-18.421-26.685c-.363,5.485-2.88,12.5-9.154,13.324-6.925.138-9.742-7.388-10.469-13.1-8.039,2.793-13.963,9.667-16.98,17.494M91.7,125.2c7.852,7.977,15.816,15.878,24.056,23.442q11.815-11.683,23.868-23.116c-15.954-.476-31.957.138-47.923-.326m-1.916,2.292c-.225,9.855-.063,19.71-.1,29.553,5.835-3.719,11.583-7.6,17.444-11.3.739-1.54-1.49-2.392-2.2-3.469q-7.776-7.194-15.14-14.789m34.061,18.045c5.886,3.92,12.1,7.351,17.707,11.671.513-9.905-.012-19.836.3-29.753-6.011,5.973-12.5,11.759-18.007,18.082m-30.555,12.46c.626.113,1.891.351,2.517.476,14.175-.288,28.363-.05,42.551-.113-5.873-3.318-11.12-7.751-17.181-10.669-1.853,1.615-3.431,3.519-5.322,5.1a45.7,45.7,0,0,1-5.948-5.6,149.825,149.825,0,0,1-16.617,10.807m6.537,64.741c12.986.2,25.984,0,38.97.063-.088.814-.25,2.454-.338,3.268-13.737.163-27.5.05-41.236.038-2.041,2.592-4.07,5.184-6.011,7.852q26.786.094,53.546.013c6.737-9.279,14.226-17.995,20.8-27.387-17.744.6-35.514-.025-53.258.313-4.32,5.134-8.4,10.494-12.472,15.841m101.419-15.866c-.075.476-.25,1.428-.326,1.9.025,22.741.238,45.494-.1,68.222,5.385-.075,10.782-.15,16.167.113.188-19.084.075-38.181.05-57.278.05-4.333.063-8.666.075-13C211.825,206.918,206.528,206.655,201.244,206.868Z" transform="translate(-86.35 -99.994)" fill="url(#linear-gradient)"/>
        <path id="Path_11734" data-name="Path 11734" d="M160.065,127.1c2.317-.063,4.646-.1,6.975-.1,30.667.038,61.335-.075,92,.05.038,14.351,0,28.689.025,43.04-31.957.163-63.927.113-95.884.05l-3.143-.188c-.05-14.288-.088-28.564.025-42.852m2.993,2.742c.025,2.5.088,5.009.351,7.5-.451,9.918.013,19.861-.213,29.791,31.031-.138,62.074-.025,93.117-.063-.05-12.41.038-24.832-.05-37.242q-45.175.207-90.35.025C165.2,129.845,163.771,129.845,163.058,129.845Z" transform="translate(-67.774 -93.184)" fill="url(#linear-gradient)"/>
        <path id="Path_11735" data-name="Path 11735" d="M127.438,157.312c6.6-2.492,14.163,4.721,11.5,11.333-1.691,6.775-11.759,8.478-15.728,2.818-4.045-4.633-1.453-12.259,4.233-14.15m1.515,2.755c-5.472.977-6.048,9.467-1.052,11.458,3.732,2.041,8.741-1.478,8.227-5.66C136.617,162.083,132.334,159.1,128.953,160.067Z" transform="translate(-77.549 -85.663)" fill="url(#linear-gradient)"/>
        <path id="Path_11736" data-name="Path 11736" d="M263.589,187.174c.25-9.53-.689-19.147.451-28.614.614.063,1.866.213,2.479.288.5,7.739.113,15.515.25,23.267-.088,7.3.125,14.614-.15,21.914-8.19.326-16.392.075-24.582.175-7.9-.1-15.816.163-23.718-.213.338-.614,1.014-1.853,1.352-2.479,9.329-.8,18.746-.125,28.1-.288,5.3.025,10.594-.038,15.891-.013C263.539,196.528,263.589,191.845,263.589,187.174Z" transform="translate(-53.061 -85.221)" fill="url(#linear-gradient)"/>
        <path id="Path_11737" data-name="Path 11737" d="M144.45,218.988c6.061-8.077,12.247-16.066,18.408-24.068,6.1.163,12.2.075,18.283.1-.113.664-.338,1.991-.438,2.655-5.535.651-11.4-.714-16.73.626-6.925,8.853-13.449,18.107-20.725,26.66-8.415-.376-17.143,1.1-25.358-.852.376-.626,1.14-1.866,1.515-2.492,7.038.125,14.088.088,21.125.1C142.5,222.181,143.373,220.14,144.45,218.988Z" transform="translate(-78.394 -76.049)" fill="url(#linear-gradient)"/>
        <path id="Path_11738" data-name="Path 11738" d="M111.284,250.209c15.741-.363,31.532-.263,47.285-.05-.088.764-.263,2.279-.351,3.043-14.063.038-28.125-.05-42.2.05C113.864,253.176,109.506,253.69,111.284,250.209Z" transform="translate(-80.166 -62.164)" fill="url(#linear-gradient)"/>
        <path id="Path_11739" data-name="Path 11739" d="M179.105,250c32.27,0,64.541-.05,96.8.025-.125.651-.388,1.954-.526,2.6-32.108.25-64.228.038-96.348.113C179.055,252.057,179.093,250.692,179.105,250Z" transform="translate(-62.972 -62.159)" fill="url(#linear-gradient)"/>
        <path id="Path_11740" data-name="Path 11740" d="M261.43,250.124c4.959-.15,9.943-.3,14.914.013-.025.626-.075,1.853-.1,2.467a133.348,133.348,0,0,1-14.15.038C261.931,252.015,261.593,250.751,261.43,250.124Z" transform="translate(-42.187 -62.167)" fill="url(#linear-gradient)"/>
        <path id="Path_11741" data-name="Path 11741" d="M115.443,257.645c44.5-.213,89,.013,133.489-.113,2.342.175,6.674-.889,5.021,2.955-36.328.326-72.668.038-109,.138-9.918-.1-19.836.213-29.728-.2C115.28,259.724,115.393,258.346,115.443,257.645Z" transform="translate(-79.065 -60.258)" fill="url(#linear-gradient)"/>
      </g>
    </g>
    <g id="Group_7178" data-name="Group 7178" transform="translate(927.805 257)">
      <path id="Path_11662" data-name="Path 11662" d="M359.155,108.645c7.079-2.523,15.021,4.362,13.426,11.75-1.074,7.909-12.027,11.392-17.479,5.566-5.663-5.029-3.108-15.217,4.052-17.316m2.962,3.222c-4.378.26-8.137,5.354-5.745,9.439,1.806,4.15,7.73,5.257,10.725,1.758C371.394,119.142,367.667,111.59,362.117,111.867Z" transform="translate(-283.496 -108.114)" fill="#44b5ff" opacity="0.41"/>
      <path id="Path_11665" data-name="Path 11665" d="M487.039,219.354c5.7-3.955,10.725,5.989,4.475,8.316-5.126,2.8-9.634-5.663-4.475-8.316m1.758,1.611c-3.092.749-1.66,5.794,1.367,4.817C493.256,225.034,491.808,219.94,488.8,220.966Z" transform="translate(-200.204 -38.894)" fill="#44b5ff" opacity="0.41"/>
    </g>
    <path id="Path_11662-2" data-name="Path 11662" d="M3.707.275A5.459,5.459,0,0,1,10.67,6.369c-.557,4.1-6.237,5.908-9.065,2.887C-1.332,6.648-.007,1.364,3.707.275M5.243,1.947c-2.27.135-4.22,2.777-2.979,4.9a3.391,3.391,0,0,0,5.562.912C10.054,5.719,8.121,1.8,5.243,1.947Z" transform="matrix(-0.875, -0.485, 0.485, -0.875, 1027.625, 541.744)" fill="#44b5ff" opacity="0.41"/>
    <path id="Path_11665-2" data-name="Path 11665" d="M2.169.874c5.416-3.761,10.2,5.695,4.256,7.908C1.55,11.444-2.737,3.4,2.169.874M3.84,2.406C.9,3.118,2.261,7.915,5.14,6.987,8.08,6.275,6.7,1.431,3.84,2.406Z" transform="matrix(-0.875, -0.485, 0.485, -0.875, 930.717, 292.826)" fill="#44b5ff" opacity="0.41"/>
    <circle id="Ellipse_1095" data-name="Ellipse 1095" cx="6" cy="6" r="6" transform="translate(942 327)" fill="#b2e0ff"/>
  </g>
</svg>
