<svg xmlns="http://www.w3.org/2000/svg" width="294.875" height="275" viewBox="0 0 294.875 275">
  <g id="Group_7200" data-name="Group 7200" transform="translate(-950.125 -257)">
    <circle id="Ellipse_1090" data-name="Ellipse 1090" cx="98.5" cy="98.5" r="98.5" transform="translate(1048 335)" fill="#eff5ff" opacity="0.72"/>
    <g id="Group_7189" data-name="Group 7189" transform="translate(990.49 322.854)">
      <g id="Group_7185" data-name="Group 7185" transform="translate(2.472 0)">
        <g id="Group_7184" data-name="Group 7184" transform="translate(0 0)">
          <path id="Path_11725" data-name="Path 11725" d="M55.389,41.949a32.322,32.322,0,0,0-12.33-7.734,18.758,18.758,0,1,0-21.227,0A32.5,32.5,0,0,0,0,64.892H5.07a27.376,27.376,0,1,1,54.753,0h5.07A32.235,32.235,0,0,0,55.389,41.949Zm-22.943-9.5A13.688,13.688,0,1,1,46.134,18.758,13.7,13.7,0,0,1,32.446,32.446Z" transform="translate(108.398 16.862)" fill="#2386dc"/>
          <path id="Path_11726" data-name="Path 11726" d="M55.389,41.949a32.322,32.322,0,0,0-12.33-7.734,18.758,18.758,0,1,0-21.227,0A32.5,32.5,0,0,0,0,64.892H5.07a27.376,27.376,0,1,1,54.753,0h5.07A32.235,32.235,0,0,0,55.389,41.949Zm-22.943-9.5A13.688,13.688,0,1,1,46.134,18.758,13.7,13.7,0,0,1,32.446,32.446Z" transform="translate(54.601)" fill="#2386dc"/>
          <path id="Path_11727" data-name="Path 11727" d="M55.389,41.949a32.322,32.322,0,0,0-12.33-7.734,18.758,18.758,0,1,0-21.227,0A32.5,32.5,0,0,0,0,64.892H5.07a27.376,27.376,0,1,1,54.753,0h5.07A32.235,32.235,0,0,0,55.389,41.949Zm-22.943-9.5A13.688,13.688,0,1,1,46.134,18.758,13.7,13.7,0,0,1,32.446,32.446Z" transform="translate(0 16.862)" fill="#2386dc"/>
        </g>
      </g>
      <g id="Group_7188" data-name="Group 7188" transform="translate(0 5.448)" opacity="0.31">
        <g id="user_1_" data-name="user (1)" transform="translate(59.183 0)" opacity="0.1">
          <path id="Path_5995" data-name="Path 5995" d="M101.088,28.113a13.6,13.6,0,0,0,9.939-4.118,13.6,13.6,0,0,0,4.118-9.938,13.6,13.6,0,0,0-4.118-9.938,14.053,14.053,0,0,0-19.877,0,13.6,13.6,0,0,0-4.118,9.938,13.6,13.6,0,0,0,4.119,9.939A13.6,13.6,0,0,0,101.088,28.113Zm0,0" transform="translate(-77.111 0)" fill="#2386dc"/>
          <path id="Path_5996" data-name="Path 5996" d="M53.936,270.44c-.079-1.137-5.6-8.815-5.837-10.125a29.055,29.055,0,0,0-.907-3.708,18.31,18.31,0,0,0-1.524-3.458,13.046,13.046,0,0,0-2.3-3,10.132,10.132,0,0,0-3.3-2.074,11.41,11.41,0,0,0-4.215-.763,4.278,4.278,0,0,0-2.285.969c-.685.447-1.486.963-2.38,1.534a13.629,13.629,0,0,1-3.079,1.357,11.957,11.957,0,0,1-7.533,0A13.608,13.608,0,0,1,17.5,249.82c-.886-.566-1.687-1.082-2.382-1.535a4.273,4.273,0,0,0-2.284-.969,11.4,11.4,0,0,0-4.214.764,10.126,10.126,0,0,0-3.3,2.074,13.052,13.052,0,0,0-2.3,2.995A18.347,18.347,0,0,0,1.5,256.607a29.124,29.124,0,0,0-.907,3.707A34.6,34.6,0,0,0,.116,264C.039,265.12,0,266.279,0,267.45c0,3.047,6.333,11.95,8.243,13.769a10.361,10.361,0,0,0,7.417,2.705h28.1a10.358,10.358,0,0,0,7.416-2.705,9.686,9.686,0,0,0,2.879-7.332c0-1.176-.04-2.336-.118-3.447Zm0,0" transform="translate(0 -219.126)" fill="#2386dc"/>
        </g>
        <g id="user_1_2" data-name="user (1)" transform="translate(0 17.397)" opacity="0.1">
          <path id="Path_5995-2" data-name="Path 5995" d="M101.088,28.113a13.6,13.6,0,0,0,9.939-4.118,13.6,13.6,0,0,0,4.118-9.938,13.6,13.6,0,0,0-4.118-9.938,14.053,14.053,0,0,0-19.877,0,13.6,13.6,0,0,0-4.118,9.938,13.6,13.6,0,0,0,4.119,9.939A13.6,13.6,0,0,0,101.088,28.113Zm0,0" transform="translate(-77.111 0)" fill="#2386dc"/>
          <path id="Path_5996-2" data-name="Path 5996" d="M48.572,264a34.717,34.717,0,0,0-.473-3.687,29.055,29.055,0,0,0-.907-3.708,18.31,18.31,0,0,0-1.524-3.458,13.046,13.046,0,0,0-2.3-3,10.132,10.132,0,0,0-3.3-2.074,11.41,11.41,0,0,0-4.215-.763,4.278,4.278,0,0,0-2.285.969c-.685.447-1.486.963-2.38,1.534a13.629,13.629,0,0,1-3.079,1.357,11.957,11.957,0,0,1-7.533,0A13.608,13.608,0,0,1,17.5,249.82c-.886-.566-1.687-1.082-2.382-1.535a4.273,4.273,0,0,0-2.284-.969,11.4,11.4,0,0,0-4.214.764,10.126,10.126,0,0,0-3.3,2.074,13.052,13.052,0,0,0-2.3,2.995A18.347,18.347,0,0,0,1.5,256.607a29.124,29.124,0,0,0-.907,3.707A34.6,34.6,0,0,0,.116,264C.039,265.12,0,266.279,0,267.45a9.691,9.691,0,0,0,2.878,7.332,10.361,10.361,0,0,0,7.417,2.705H38.4a10.358,10.358,0,0,0,7.416-2.705,9.686,9.686,0,0,0,2.879-7.332c0-1.176-.04-2.336-.118-3.447Zm0,0" transform="translate(0 -219.126)" fill="#2386dc"/>
        </g>
        <g id="user_1_3" data-name="user (1)" transform="translate(125.693 17.397)" opacity="0.1">
          <path id="Path_5995-3" data-name="Path 5995" d="M101.088,28.113a13.6,13.6,0,0,0,9.939-4.118,13.6,13.6,0,0,0,4.118-9.938,13.6,13.6,0,0,0-4.118-9.938,14.053,14.053,0,0,0-19.877,0,13.6,13.6,0,0,0-4.118,9.938,13.6,13.6,0,0,0,4.119,9.939A13.6,13.6,0,0,0,101.088,28.113Zm0,0" transform="translate(-77.111 0)" fill="#2386dc"/>
          <path id="Path_5996-3" data-name="Path 5996" d="M48.572,264a34.717,34.717,0,0,0-.473-3.687,29.055,29.055,0,0,0-.907-3.708,18.31,18.31,0,0,0-1.524-3.458,13.046,13.046,0,0,0-2.3-3,10.132,10.132,0,0,0-3.3-2.074,11.41,11.41,0,0,0-4.215-.763,4.278,4.278,0,0,0-2.285.969c-.685.447-1.486.963-2.38,1.534a13.629,13.629,0,0,1-3.079,1.357,11.957,11.957,0,0,1-7.533,0A13.608,13.608,0,0,1,17.5,249.82c-.886-.566-1.687-1.082-2.382-1.535a4.273,4.273,0,0,0-2.284-.969,11.4,11.4,0,0,0-4.214.764,10.126,10.126,0,0,0-3.3,2.074,13.052,13.052,0,0,0-2.3,2.995A18.347,18.347,0,0,0,1.5,256.607a29.124,29.124,0,0,0-.907,3.707A34.6,34.6,0,0,0,.116,264C.039,265.12,0,266.279,0,267.45a9.691,9.691,0,0,0,2.878,7.332,10.361,10.361,0,0,0,7.417,2.705H38.4a10.358,10.358,0,0,0,7.416-2.705,9.686,9.686,0,0,0,2.879-7.332c0-1.176-.04-2.336-.118-3.447Zm0,0" transform="translate(0 -219.126)" fill="#2386dc"/>
        </g>
      </g>
    </g>
    <g id="Group_7192" data-name="Group 7192" transform="translate(950.125 413.899)">
      <g id="Group_7190" data-name="Group 7190" transform="translate(131.822 0.434)">
        <g id="user_1_4" data-name="user (1)" transform="translate(0 0)" opacity="0.1">
          <path id="Path_5995-4" data-name="Path 5995" d="M98.379,22.693a10.979,10.979,0,0,0,8.023-3.324,10.979,10.979,0,0,0,3.324-8.023A10.98,10.98,0,0,0,106.4,3.324a11.344,11.344,0,0,0-16.045,0,10.979,10.979,0,0,0-3.324,8.022,10.979,10.979,0,0,0,3.325,8.023A10.981,10.981,0,0,0,98.379,22.693Zm0,0" transform="translate(-79.024 0)" fill="#44b5ff"/>
          <path id="Path_5996-4" data-name="Path 5996" d="M39.209,260.786a28.02,28.02,0,0,0-.382-2.977,23.456,23.456,0,0,0-.732-2.993,14.781,14.781,0,0,0-1.23-2.791,10.53,10.53,0,0,0-1.855-2.418,8.179,8.179,0,0,0-2.665-1.675,9.21,9.21,0,0,0-3.4-.616,3.453,3.453,0,0,0-1.844.782c-.553.361-1.2.777-1.921,1.239a11,11,0,0,1-2.486,1.1,9.652,9.652,0,0,1-6.081,0,10.983,10.983,0,0,1-2.484-1.095c-.715-.457-1.362-.874-1.923-1.239a3.449,3.449,0,0,0-1.843-.782,9.2,9.2,0,0,0-3.4.616,8.175,8.175,0,0,0-2.665,1.675,10.536,10.536,0,0,0-1.855,2.418,14.811,14.811,0,0,0-1.23,2.792,23.509,23.509,0,0,0-.732,2.992,27.926,27.926,0,0,0-.382,2.978c-.063.9-.094,1.837-.094,2.782a7.823,7.823,0,0,0,2.323,5.918,8.364,8.364,0,0,0,5.987,2.184H30.994a8.361,8.361,0,0,0,5.987-2.184,7.819,7.819,0,0,0,2.324-5.919c0-.949-.032-1.885-.1-2.783Zm0,0" transform="translate(0 -224.56)" fill="#44b5ff"/>
        </g>
        <g id="user_1_5" data-name="user (1)" transform="translate(43.129 0)" opacity="0.1">
          <path id="Path_5995-5" data-name="Path 5995" d="M98.379,22.693a10.979,10.979,0,0,0,8.023-3.324,10.979,10.979,0,0,0,3.324-8.023A10.98,10.98,0,0,0,106.4,3.324a11.344,11.344,0,0,0-16.045,0,10.979,10.979,0,0,0-3.324,8.022,10.979,10.979,0,0,0,3.325,8.023A10.981,10.981,0,0,0,98.379,22.693Zm0,0" transform="translate(-79.024 0)" fill="#44b5ff"/>
          <path id="Path_5996-5" data-name="Path 5996" d="M39.209,260.786a28.02,28.02,0,0,0-.382-2.977,23.456,23.456,0,0,0-.732-2.993,14.781,14.781,0,0,0-1.23-2.791,10.53,10.53,0,0,0-1.855-2.418,8.179,8.179,0,0,0-2.665-1.675,9.21,9.21,0,0,0-3.4-.616,3.453,3.453,0,0,0-1.844.782c-.553.361-1.2.777-1.921,1.239a11,11,0,0,1-2.486,1.1,9.652,9.652,0,0,1-6.081,0,10.983,10.983,0,0,1-2.484-1.095c-.715-.457-1.362-.874-1.923-1.239a3.449,3.449,0,0,0-1.843-.782,9.2,9.2,0,0,0-3.4.616,8.175,8.175,0,0,0-2.665,1.675,10.536,10.536,0,0,0-1.855,2.418,14.811,14.811,0,0,0-1.23,2.792,23.509,23.509,0,0,0-.732,2.992,27.926,27.926,0,0,0-.382,2.978c-.063.9-.094,1.837-.094,2.782a7.823,7.823,0,0,0,2.323,5.918,8.364,8.364,0,0,0,5.987,2.184H30.994a8.361,8.361,0,0,0,5.987-2.184,7.819,7.819,0,0,0,2.324-5.919c0-.949-.032-1.885-.1-2.783Zm0,0" transform="translate(0 -224.56)" fill="#44b5ff"/>
        </g>
        <g id="user_1_6" data-name="user (1)" transform="translate(86.259 0)" opacity="0.1">
          <path id="Path_5995-6" data-name="Path 5995" d="M98.379,22.693a10.979,10.979,0,0,0,8.023-3.324,10.979,10.979,0,0,0,3.324-8.023A10.98,10.98,0,0,0,106.4,3.324a11.344,11.344,0,0,0-16.045,0,10.979,10.979,0,0,0-3.324,8.022,10.979,10.979,0,0,0,3.325,8.023A10.981,10.981,0,0,0,98.379,22.693Zm0,0" transform="translate(-79.024 0)" fill="#44b5ff"/>
          <path id="Path_5996-6" data-name="Path 5996" d="M39.209,260.786a28.02,28.02,0,0,0-.382-2.977,23.456,23.456,0,0,0-.732-2.993,14.781,14.781,0,0,0-1.23-2.791,10.53,10.53,0,0,0-1.855-2.418,8.179,8.179,0,0,0-2.665-1.675,9.21,9.21,0,0,0-3.4-.616,3.453,3.453,0,0,0-1.844.782c-.553.361-1.2.777-1.921,1.239a11,11,0,0,1-2.486,1.1,9.652,9.652,0,0,1-6.081,0,10.983,10.983,0,0,1-2.484-1.095c-.715-.457-1.362-.874-1.923-1.239a3.449,3.449,0,0,0-1.843-.782,9.2,9.2,0,0,0-3.4.616,8.175,8.175,0,0,0-2.665,1.675,10.536,10.536,0,0,0-1.855,2.418,14.811,14.811,0,0,0-1.23,2.792,23.509,23.509,0,0,0-.732,2.992,27.926,27.926,0,0,0-.382,2.978c-.063.9-.094,1.837-.094,2.782a7.823,7.823,0,0,0,2.323,5.918,8.364,8.364,0,0,0,5.987,2.184H30.994a8.361,8.361,0,0,0,5.987-2.184,7.819,7.819,0,0,0,2.324-5.919c0-.949-.032-1.885-.1-2.783Zm0,0" transform="translate(0 -224.56)" fill="#44b5ff"/>
        </g>
      </g>
      <g id="Group_7191" data-name="Group 7191" transform="translate(0 0)">
        <g id="user_1_7" data-name="user (1)" transform="translate(43.129 0)" opacity="0.1">
          <path id="Path_5995-7" data-name="Path 5995" d="M98.379,22.693a10.979,10.979,0,0,0,8.023-3.324,10.979,10.979,0,0,0,3.324-8.023A10.98,10.98,0,0,0,106.4,3.324a11.344,11.344,0,0,0-16.045,0,10.979,10.979,0,0,0-3.324,8.022,10.979,10.979,0,0,0,3.325,8.023A10.981,10.981,0,0,0,98.379,22.693Zm0,0" transform="translate(-79.024 0)" fill="#44b5ff"/>
          <path id="Path_5996-7" data-name="Path 5996" d="M39.209,260.786a28.02,28.02,0,0,0-.382-2.977,23.456,23.456,0,0,0-.732-2.993,14.781,14.781,0,0,0-1.23-2.791,10.53,10.53,0,0,0-1.855-2.418,8.179,8.179,0,0,0-2.665-1.675,9.21,9.21,0,0,0-3.4-.616,3.453,3.453,0,0,0-1.844.782c-.553.361-1.2.777-1.921,1.239a11,11,0,0,1-2.486,1.1,9.652,9.652,0,0,1-6.081,0,10.983,10.983,0,0,1-2.484-1.095c-.715-.457-1.362-.874-1.923-1.239a3.449,3.449,0,0,0-1.843-.782,9.2,9.2,0,0,0-3.4.616,8.175,8.175,0,0,0-2.665,1.675,10.536,10.536,0,0,0-1.855,2.418,14.811,14.811,0,0,0-1.23,2.792,23.509,23.509,0,0,0-.732,2.992,27.926,27.926,0,0,0-.382,2.978c-.063.9-.094,1.837-.094,2.782a7.823,7.823,0,0,0,2.323,5.918,8.364,8.364,0,0,0,5.987,2.184H30.994a8.361,8.361,0,0,0,5.987-2.184,7.819,7.819,0,0,0,2.324-5.919c0-.949-.032-1.885-.1-2.783Zm0,0" transform="translate(0 -224.56)" fill="#44b5ff"/>
        </g>
        <g id="user_1_8" data-name="user (1)" transform="translate(0 0)" opacity="0.1">
          <path id="Path_5995-8" data-name="Path 5995" d="M98.379,22.693a10.979,10.979,0,0,0,8.023-3.324,10.979,10.979,0,0,0,3.324-8.023A10.98,10.98,0,0,0,106.4,3.324a11.344,11.344,0,0,0-16.045,0,10.979,10.979,0,0,0-3.324,8.022,10.979,10.979,0,0,0,3.325,8.023A10.981,10.981,0,0,0,98.379,22.693Zm0,0" transform="translate(-79.024 0)" fill="#44b5ff"/>
          <path id="Path_5996-8" data-name="Path 5996" d="M39.209,260.786a28.02,28.02,0,0,0-.382-2.977,23.456,23.456,0,0,0-.732-2.993,14.781,14.781,0,0,0-1.23-2.791,10.53,10.53,0,0,0-1.855-2.418,8.179,8.179,0,0,0-2.665-1.675,9.21,9.21,0,0,0-3.4-.616,3.453,3.453,0,0,0-1.844.782c-.553.361-1.2.777-1.921,1.239a11,11,0,0,1-2.486,1.1,9.652,9.652,0,0,1-6.081,0,10.983,10.983,0,0,1-2.484-1.095c-.715-.457-1.362-.874-1.923-1.239a3.449,3.449,0,0,0-1.843-.782,9.2,9.2,0,0,0-3.4.616,8.175,8.175,0,0,0-2.665,1.675,10.536,10.536,0,0,0-1.855,2.418,14.811,14.811,0,0,0-1.23,2.792,23.509,23.509,0,0,0-.732,2.992,27.926,27.926,0,0,0-.382,2.978c-.063.9-.094,1.837-.094,2.782a7.823,7.823,0,0,0,2.323,5.918,8.364,8.364,0,0,0,5.987,2.184H30.994a8.361,8.361,0,0,0,5.987-2.184,7.819,7.819,0,0,0,2.324-5.919c0-.949-.032-1.885-.1-2.783Zm0,0" transform="translate(0 -224.56)" fill="#44b5ff"/>
        </g>
        <g id="user_1_9" data-name="user (1)" transform="translate(86.259 0)" opacity="0.1">
          <path id="Path_5995-9" data-name="Path 5995" d="M98.379,22.693a10.979,10.979,0,0,0,8.023-3.324,10.979,10.979,0,0,0,3.324-8.023A10.98,10.98,0,0,0,106.4,3.324a11.344,11.344,0,0,0-16.045,0,10.979,10.979,0,0,0-3.324,8.022,10.979,10.979,0,0,0,3.325,8.023A10.981,10.981,0,0,0,98.379,22.693Zm0,0" transform="translate(-79.024 0)" fill="#44b5ff"/>
          <path id="Path_5996-9" data-name="Path 5996" d="M39.209,260.786a28.02,28.02,0,0,0-.382-2.977,23.456,23.456,0,0,0-.732-2.993,14.781,14.781,0,0,0-1.23-2.791,10.53,10.53,0,0,0-1.855-2.418,8.179,8.179,0,0,0-2.665-1.675,9.21,9.21,0,0,0-3.4-.616,3.453,3.453,0,0,0-1.844.782c-.553.361-1.2.777-1.921,1.239a11,11,0,0,1-2.486,1.1,9.652,9.652,0,0,1-6.081,0,10.983,10.983,0,0,1-2.484-1.095c-.715-.457-1.362-.874-1.923-1.239a3.449,3.449,0,0,0-1.843-.782,9.2,9.2,0,0,0-3.4.616,8.175,8.175,0,0,0-2.665,1.675,10.536,10.536,0,0,0-1.855,2.418,14.811,14.811,0,0,0-1.23,2.792,23.509,23.509,0,0,0-.732,2.992,27.926,27.926,0,0,0-.382,2.978c-.063.9-.094,1.837-.094,2.782a7.823,7.823,0,0,0,2.323,5.918,8.364,8.364,0,0,0,5.987,2.184H30.994a8.361,8.361,0,0,0,5.987-2.184,7.819,7.819,0,0,0,2.324-5.919c0-.949-.032-1.885-.1-2.783Zm0,0" transform="translate(0 -224.56)" fill="#44b5ff"/>
        </g>
      </g>
    </g>
    <g id="Group_7193" data-name="Group 7193" transform="translate(984.057 257)">
      <path id="Path_11662" data-name="Path 11662" d="M357.829,108.546c5.766-2.054,12.233,3.552,10.935,9.569-.875,6.441-9.795,9.278-14.235,4.533-4.612-4.1-2.531-12.392,3.3-14.1m2.412,2.624c-3.565.212-6.627,4.361-4.679,7.687a5.324,5.324,0,0,0,8.734,1.431C367.8,117.095,364.761,110.945,360.241,111.17Z" transform="translate(-297.34 -108.114)" fill="#44b5ff" opacity="0.41"/>
      <path id="Path_11665" data-name="Path 11665" d="M486.616,219.184c4.639-3.221,8.734,4.877,3.645,6.773-4.175,2.28-7.846-4.612-3.645-6.773m1.431,1.312c-2.518.61-1.352,4.718,1.113,3.923C491.679,223.809,490.5,219.661,488.047,220.5Z" transform="translate(-254.144 -53.416)" fill="#44b5ff" opacity="0.41"/>
      <circle id="Ellipse_1093" data-name="Ellipse 1093" cx="4" cy="4" r="4" transform="translate(-0.057 72)" fill="#b2e0ff"/>
    </g>
    <path id="Path_11662-2" data-name="Path 11662" d="M5.821.433C11.586-1.622,18.054,3.985,16.755,10,15.88,16.443,6.96,19.28,2.52,14.535c-4.612-4.1-2.531-12.392,3.3-14.1M8.233,3.057c-3.565.212-6.627,4.361-4.679,7.687a5.324,5.324,0,0,0,8.734,1.431C15.788,8.981,12.752,2.832,8.233,3.057Z" transform="matrix(-0.875, -0.485, 0.485, -0.875, 1056.051, 511.709)" fill="#44b5ff" opacity="0.41"/>
    <path id="Path_11665-2" data-name="Path 11665" d="M1.857.749C6.5-2.472,10.592,5.626,5.5,7.521,1.327,9.8-2.344,2.909,1.857.749M3.289,2.061C.77,2.67,1.937,6.779,4.4,5.984,6.92,5.374,5.741,1.226,3.289,2.061Z" transform="matrix(-0.875, -0.485, 0.485, -0.875, 973.053, 298.522)" fill="#44b5ff" opacity="0.41"/>
    <ellipse id="Ellipse_1094" data-name="Ellipse 1094" cx="3.5" cy="4" rx="3.5" ry="4" transform="translate(1125.002 483)" fill="#b2e0ff"/>
  </g>
</svg>
