<svg xmlns="http://www.w3.org/2000/svg" width="311.552" height="279.129" viewBox="0 0 311.552 279.129">
  <g id="Group_7199" data-name="Group 7199" transform="translate(-934.448 -259.871)">
    <circle id="Ellipse_1090" data-name="Ellipse 1090" cx="99.5" cy="99.5" r="99.5" transform="translate(1046 316)" fill="#eff5ff" opacity="0.72"/>
    <g id="Group_7181" data-name="Group 7181" transform="translate(1014.697 263.646)">
      <path id="Path_11539" data-name="Path 11539" d="M692.065,348.778a48.085,48.085,0,0,1,47.22-8.94c18.519,6.295,31.985,24.851,32.021,44.447.6,19.377-11.987,37.477-29.5,45.213q-.027,59.609-.018,119.217c.657,7.681-6.021,15.144-13.921,14.2-42.713-.055-85.426.055-128.121-.055-7.59.456-13.556-7.061-12.845-14.341q-.027-63.878-.018-127.756c-.894-4.726,3.065-7.736,5.985-10.692,10.947-10.583,21.53-21.512,32.459-32.112q25.261,0,50.522,0c2.135-11.13,7.426-21.822,16.22-29.175m21.347-6.021c-16.239,3.8-29.7,17.662-32.587,34.138-1.168,9.086-.785,18.738,3.558,27,7.9,16.658,27.113,27.022,45.4,23.975,23.5-2.865,41.272-27.514,36.309-50.741-3.777-23.665-29.448-40.524-52.675-34.375M629.61,382.2c-.4,12.462-1,24.924-.73,37.4-12.462.912-24.96.529-37.422.748q.055,64.1.018,128.231a9.306,9.306,0,0,0,10.181,10.163c41.983.036,84,.109,125.987-.036a9.157,9.157,0,0,0,9.652-10.035c.073-39.21-.037-78.4.036-117.612-15.016,4.087-31.894,1.2-43.99-8.776-12.17-9.433-18.228-24.924-18.118-40.068q-22.825-.027-45.614-.018M594.341,415.74c10.072-.146,20.162-.146,30.233-.383.183-10.145.493-20.271.584-30.416C614.812,395.14,604.576,405.431,594.341,415.74Z" transform="translate(-586.75 -337.121)" fill="#2386dc"/>
      <path id="Path_11593" data-name="Path 11593" d="M606.125,396.758c28.3-1.113,56.744-.274,85.1-.42,4.762-1.368,7.152,5.839,1.624,6.039-27.9.42-55.868.146-83.784.128C605.669,403.2,602.458,398.929,606.125,396.758Z" transform="translate(-572.115 -288.435)" fill="#75b3ff"/>
      <path id="Path_11598" data-name="Path 11598" d="M604.74,414.913c30.105-.055,60.247-.547,90.334.219,2.208,3.43-.493,6.13-4.124,5.382q-43,.082-85.974-.037C604.923,419.073,604.795,416.3,604.74,414.913Z" transform="translate(-571.915 -273.146)" fill="#75b3ff"/>
      <path id="Path_11600" data-name="Path 11600" d="M604.81,433.894c30.051,0,60.12-.547,90.152.237,2.372,3.43-.438,6.076-4.051,5.383-28.7.036-57.419.109-86.1-.091Z" transform="translate(-571.858 -257.478)" fill="#75b3ff"/>
      <path id="Path_11619" data-name="Path 11619" d="M590.91,394.129c10.236-10.309,20.472-20.6,30.817-30.8-.091,10.145-.4,20.271-.584,30.416C611.072,393.983,600.982,393.983,590.91,394.129Z" transform="translate(-583.319 -315.51)" fill="#c7dfff"/>
      <path id="Path_11622" data-name="Path 11622" d="M604.72,403.3c22.132-.639,44.319-.675,66.451.018-.073,2.171-.146,4.361-.183,6.568-21.95.292-43.9.164-65.849.073C604.994,407.735,604.848,405.509,604.72,403.3Z" transform="translate(-571.932 -282.955)" fill="#c7dfff"/>
      <path id="Path_11626" data-name="Path 11626" d="M604.81,422.28c22.077-.183,44.173-.237,66.25.018-.091,2.153-.164,4.324-.219,6.5q-32.952.274-65.867,0C604.919,426.6,604.846,424.433,604.81,422.28Z" transform="translate(-571.858 -267.03)" fill="#c7dfff"/>
      <path id="Path_11628" data-name="Path 11628" d="M605.052,441.242q32.9-.356,65.812.018c.018,2.208.073,4.415.146,6.66-22.077.164-44.173.219-66.25-.036C604.851,445.658,604.942,443.45,605.052,441.242Z" transform="translate(-571.899 -251.417)" fill="#c7dfff"/>
    </g>
    <g id="user_1_" data-name="user (1)" transform="translate(1133.164 285.977)">
      <path id="Path_5995" data-name="Path 5995" d="M98.31,22.555a10.912,10.912,0,0,0,7.974-3.3,10.912,10.912,0,0,0,3.3-7.974,10.914,10.914,0,0,0-3.3-7.974,11.275,11.275,0,0,0-15.948,0,10.913,10.913,0,0,0-3.3,7.974,10.912,10.912,0,0,0,3.3,7.974A10.915,10.915,0,0,0,98.31,22.555Zm0,0" transform="translate(-79.072 0)" fill="none" stroke="#2386dc" stroke-width="4"/>
      <path id="Path_5996" data-name="Path 5996" d="M38.971,260.7a27.855,27.855,0,0,0-.379-2.958,23.308,23.308,0,0,0-.728-2.975A14.692,14.692,0,0,0,36.641,252a10.467,10.467,0,0,0-1.844-2.4,8.13,8.13,0,0,0-2.649-1.664,9.154,9.154,0,0,0-3.382-.612,3.432,3.432,0,0,0-1.833.777c-.549.358-1.192.773-1.909,1.231a10.937,10.937,0,0,1-2.471,1.089,9.594,9.594,0,0,1-6.044,0,10.92,10.92,0,0,1-2.469-1.088c-.711-.454-1.354-.868-1.911-1.232a3.428,3.428,0,0,0-1.832-.777,9.143,9.143,0,0,0-3.381.613,8.124,8.124,0,0,0-2.649,1.664A10.473,10.473,0,0,0,2.423,252,14.72,14.72,0,0,0,1.2,254.771a23.366,23.366,0,0,0-.727,2.974,27.76,27.76,0,0,0-.379,2.96C.031,261.6,0,262.531,0,263.47a7.775,7.775,0,0,0,2.309,5.882,8.313,8.313,0,0,0,5.951,2.171H30.805a8.311,8.311,0,0,0,5.95-2.171,7.772,7.772,0,0,0,2.31-5.883c0-.943-.032-1.874-.095-2.766Zm0,0" transform="translate(0 -224.699)" fill="none" stroke="#2386dc" stroke-width="4"/>
    </g>
    <g id="Group_7178" data-name="Group 7178" transform="translate(954.797 274.176)">
      <path id="Path_11661" data-name="Path 11661" d="M457.3,253.6c4.849-1.5,10.2,4.269,7.748,8.908-1.659,4.076-7.474,5.606-10.567,2.191C450.483,261.479,452.594,254.794,457.3,253.6Z" transform="translate(-222.881 -19.384)" fill="#fff"/>
      <path id="Path_11662" data-name="Path 11662" d="M359.083,108.639c7.007-2.5,14.869,4.317,13.29,11.631-1.063,7.829-11.9,11.276-17.3,5.509-5.606-4.978-3.077-15.062,4.011-17.14m2.932,3.19c-4.333.258-8.054,5.3-5.686,9.343,1.788,4.108,7.652,5.2,10.616,1.74C371.2,119.03,367.508,111.555,362.015,111.829Z" transform="translate(-284.193 -108.114)" fill="#44b5ff" opacity="0.41"/>
      <path id="Path_11665" data-name="Path 11665" d="M487.016,219.345c5.638-3.914,10.616,5.928,4.43,8.232-5.074,2.771-9.536-5.606-4.43-8.232m1.74,1.595c-3.061.741-1.643,5.735,1.353,4.768C493.17,224.967,491.736,219.925,488.756,220.94Z" transform="translate(-203.097 -40.72)" fill="#44b5ff" opacity="0.41"/>
    </g>
    <path id="Path_11661-2" data-name="Path 11661" d="M4.924.242c4.849-1.5,10.2,4.269,7.748,8.908C11.013,13.226,5.2,14.756,2.105,11.341-1.89,8.119.22,1.434,4.924.242Z" transform="matrix(-0.875, -0.485, 0.485, -0.875, 1015.697, 277.878)" fill="#fff"/>
    <path id="Path_11662-2" data-name="Path 11662" d="M7.074.526c7.007-2.5,14.869,4.317,13.29,11.631-1.063,7.829-11.9,11.276-17.3,5.509C-2.543,12.688-.013,2.6,7.074.526m2.932,3.19c-4.333.258-8.054,5.3-5.686,9.343,1.788,4.108,7.652,5.2,10.616,1.74C19.188,10.916,15.5,3.441,10.006,3.715Z" transform="matrix(-0.875, -0.485, 0.485, -0.875, 1043.67, 535.643)" fill="#44b5ff" opacity="0.41"/>
    <path id="Path_11665-2" data-name="Path 11665" d="M2.257.91C7.9-3,12.873,6.838,6.687,9.141,1.613,11.912-2.849,3.536,2.257.91M4,2.5C.936,3.246,2.354,8.239,5.35,7.273,8.411,6.532,6.977,1.49,4,2.5Z" transform="matrix(-0.875, -0.485, 0.485, -0.875, 942.793, 301.792)" fill="#44b5ff" opacity="0.41"/>
    <circle id="Ellipse_1091" data-name="Ellipse 1091" cx="6.5" cy="6.5" r="6.5" transform="translate(1132 526)" fill="#b2e0ff"/>
    <circle id="Ellipse_1092" data-name="Ellipse 1092" cx="6.5" cy="6.5" r="6.5" transform="translate(970 350)" fill="#b2e0ff"/>
  </g>
</svg>
