<svg xmlns="http://www.w3.org/2000/svg" width="55.04" height="55.065" viewBox="0 0 55.04 55.065">
  <g id="Group_9735" data-name="Group 9735" transform="translate(0.473 0.474)">
    <g id="percentage" transform="translate(0 0)">
      <path id="Path_17802" data-name="Path 17802" d="M35.437,56.092a3.191,3.191,0,0,0,.824-.106c1.492-.4,2.409-1.79,3.3-3.137a7.309,7.309,0,0,1,1.923-2.26,7.386,7.386,0,0,1,2.969-.555c1.594-.1,3.24-.2,4.311-1.27s1.173-2.718,1.271-4.311a7.4,7.4,0,0,1,.556-2.966,7.3,7.3,0,0,1,2.261-1.924c1.346-.887,2.738-1.8,3.136-3.3.386-1.431-.344-2.889-1.046-4.3a7.5,7.5,0,0,1-1.022-2.92,7.5,7.5,0,0,1,1.022-2.917c.7-1.41,1.429-2.869,1.046-4.3-.4-1.492-1.79-2.409-3.136-3.3a7.294,7.294,0,0,1-2.261-1.923,7.4,7.4,0,0,1-.555-2.969c-.1-1.593-.2-3.239-1.271-4.311S46.044,8.156,44.45,8.058A7.4,7.4,0,0,1,41.485,7.5a7.31,7.31,0,0,1-1.927-2.256c-.887-1.346-1.8-2.738-3.3-3.137-1.426-.379-2.889.344-4.3,1.046a7.5,7.5,0,0,1-2.916,1.018,7.5,7.5,0,0,1-2.916-1.022c-1.412-.7-2.875-1.426-4.3-1.046-1.492.4-2.409,1.79-3.3,3.137A7.309,7.309,0,0,1,16.6,7.5a7.386,7.386,0,0,1-2.969.555c-1.593.1-3.24.2-4.311,1.271s-1.169,2.718-1.267,4.311A7.4,7.4,0,0,1,7.5,16.6a7.294,7.294,0,0,1-2.261,1.924c-1.346.887-2.738,1.8-3.136,3.3-.383,1.431.344,2.889,1.046,4.3a7.5,7.5,0,0,1,1.022,2.92,7.5,7.5,0,0,1-1.022,2.917c-.7,1.411-1.429,2.869-1.046,4.3.4,1.492,1.79,2.409,3.136,3.3A7.294,7.294,0,0,1,7.5,41.487a7.4,7.4,0,0,1,.555,2.969c.1,1.593.2,3.239,1.271,4.311s2.718,1.169,4.311,1.267a7.4,7.4,0,0,1,2.969.556,7.31,7.31,0,0,1,1.924,2.26c.887,1.346,1.8,2.738,3.3,3.137,1.426.38,2.889-.344,4.3-1.046a7.5,7.5,0,0,1,2.916-1.022A7.5,7.5,0,0,1,31.96,54.94,8.287,8.287,0,0,0,35.437,56.092Zm0-52.546a1.647,1.647,0,0,1,.427.053c.927.247,1.677,1.391,2.406,2.494A8.25,8.25,0,0,0,40.71,8.84a8.374,8.374,0,0,0,3.647.76c1.366.084,2.656.164,3.314.821s.737,1.948.821,3.314a8.373,8.373,0,0,0,.76,3.647,8.257,8.257,0,0,0,2.742,2.439c1.105.729,2.246,1.481,2.494,2.406.232.866-.337,2.009-.937,3.212a8.5,8.5,0,0,0-1.181,3.606,8.5,8.5,0,0,0,1.185,3.606c.6,1.207,1.168,2.344.937,3.212-.248.927-1.391,1.677-2.494,2.406a8.261,8.261,0,0,0-2.748,2.44,8.374,8.374,0,0,0-.76,3.647c-.084,1.366-.164,2.656-.821,3.314s-1.948.737-3.314.821a8.363,8.363,0,0,0-3.647.76A8.257,8.257,0,0,0,38.268,52c-.729,1.1-1.481,2.246-2.406,2.494-.866.232-2.009-.335-3.213-.937a8.495,8.495,0,0,0-3.606-1.185,8.495,8.495,0,0,0-3.606,1.185c-1.207.6-2.348,1.168-3.213.937C21.3,54.246,20.548,53.1,19.819,52a8.25,8.25,0,0,0-2.439-2.748,8.374,8.374,0,0,0-3.647-.76c-1.366-.084-2.656-.164-3.314-.821s-.737-1.948-.821-3.314a8.373,8.373,0,0,0-.76-3.647A8.257,8.257,0,0,0,6.09,38.27c-1.105-.729-2.246-1.481-2.494-2.406-.232-.866.337-2.009.937-3.212a8.5,8.5,0,0,0,1.185-3.606,8.5,8.5,0,0,0-1.185-3.606c-.6-1.207-1.168-2.346-.937-3.212.248-.927,1.391-1.677,2.494-2.406a8.261,8.261,0,0,0,2.748-2.44,8.374,8.374,0,0,0,.76-3.647c.084-1.366.164-2.656.821-3.314s1.948-.737,3.314-.821a8.362,8.362,0,0,0,3.647-.76A8.257,8.257,0,0,0,19.819,6.1c.729-1.1,1.481-2.246,2.406-2.494.865-.232,2.005.335,3.213.937a8.495,8.495,0,0,0,3.606,1.181,8.495,8.495,0,0,0,3.606-1.185,7.225,7.225,0,0,1,2.786-.989Z" transform="translate(-1.997 -2.001)" fill="#5d8fff" stroke="#5d8fff" stroke-width="1"/>
      <path id="Path_17803" data-name="Path 17803" d="M43.656,48.408a4.459,4.459,0,1,0-3.318-7.434h0a4.456,4.456,0,0,0,3.318,7.434Zm0-7.37a2.912,2.912,0,1,1-2.171.967,2.912,2.912,0,0,1,2.171-.967Z" transform="translate(-22.77 -10.521)" fill="#5d8fff" stroke="#5d8fff" stroke-width="1"/>
      <path id="Path_17804" data-name="Path 17804" d="M27.717,31.882A4.459,4.459,0,1,0,24.4,24.449h0a4.456,4.456,0,0,0,3.318,7.434Zm0-7.37a2.912,2.912,0,1,1-2.171.967h0a2.911,2.911,0,0,1,2.174-.967Z" transform="translate(5.485 -6.765)" fill="#5d8fff" stroke="#5d8fff" stroke-width="1"/>
      <path id="Path_17805" data-name="Path 17805" d="M44.043,44.628a.773.773,0,0,0,.541-1.326l-20.6-20.066A.774.774,0,0,0,22.9,24.343L43.5,44.408A.773.773,0,0,0,44.043,44.628Z" transform="translate(-6.699 -6.776)" fill="#5d8fff" stroke="#5d8fff" stroke-width="1"/>
    </g>
  </g>
</svg>
