<svg xmlns="http://www.w3.org/2000/svg" xmlns:xlink="http://www.w3.org/1999/xlink" width="322.753" height="283.382" viewBox="0 0 322.753 283.382">
  <defs>
    <linearGradient id="linear-gradient" x1="0.5" x2="0.5" y2="1" gradientUnits="objectBoundingBox">
      <stop offset="0" stop-color="#2386dc"/>
      <stop offset="1" stop-color="#44b5ff"/>
    </linearGradient>
  </defs>
  <g id="Group_7202" data-name="Group 7202" transform="translate(-923 -255.618)">
    <g id="Group_7180" data-name="Group 7180" transform="translate(-125.008 21)">
      <g id="Group_7179" data-name="Group 7179" transform="translate(1047.886 234.717)">
        <circle id="Ellipse_1090" data-name="Ellipse 1090" cx="109" cy="109" r="109" transform="translate(104.122 65.283)" fill="#eff5ff" opacity="0.72"/>
        <path id="Path_11676" data-name="Path 11676" d="M676.011,272.62c1.19,1.54.88,3.519,1.074,5.33,1.669.065,3.351.155,5.046.285-1.345,1.553-3.377,1.6-5.24,1.824.039,1.035.1,3.105.142,4.14l-1.553.078c-.026-1.074-.1-3.221-.129-4.3-1.9-.453-3.778-.893-5.641-1.41,1.772-.285,3.545-.53,5.343-.75C675.338,276.074,675.648,274.341,676.011,272.62Z" transform="translate(-440.4 -272.254)" stroke="#2386dc" stroke-width="0.4" fill="url(#linear-gradient)"/>
        <path id="Path_11677" data-name="Path 11677" d="M609.26,307.684c1.358-1.022,2.717-2.031,4.179-2.924,2.626.556,5.719,2.29,5.693,5.356-.867,5.693-3.014,11.1-4.231,16.729,10.544,9.212,20.894,18.618,31.426,27.829,2.251,2.044,4.826,3.868,6.443,6.521.336,1.695-.349,3.377-.686,5.033-4.1,14.452-7.944,28.981-11.98,43.458-5.809,21.309-11.7,42.578-17.479,63.887-2.29,7.957-4.231,16.017-6.689,23.935-.789,1.747-2.9,3.053-4.787,2.238-22.279-5.964-44.48-12.239-66.746-18.2-5.783-1.811-11.76-2.963-17.453-5.007-2.82-.608-2.626-3.933-1.953-6.068q13.138-47.779,26.212-95.6c3.131-11.476,6.314-22.939,9.419-34.428.647-1.992,1.113-4.787,3.7-4.981,11.01-2.355,22.1-4.4,33.108-6.754,5.5-1.138,10.984-2.29,16.521-3.26,1.229-5.266,2.691-10.48,4.3-15.642-1.5-1.333-2.6-3.778-4.929-3.571-1.695.983-2.639,2.808-3.894,4.244-.207.181-.634.543-.854.724.22-1.177.453-2.355.686-3.519m-41.323,28.644c-2.29.5-5.421.88-5.512,3.855q-16.631,60.685-33.263,121.369c-1.126,4.36-2.808,8.617-2.963,13.171,26.341,7.426,52.786,14.439,79.153,21.8,2.872.828,5.809,1.747,8.862,1.462,12.407-45.425,24.944-90.823,37.287-136.274-12.032-11.256-24.763-21.761-36.743-33.082a55.751,55.751,0,0,0-2.963,9.1c3.454,1.979,5.6,6.792,2.678,10.156-2.73,4.218-9.885,2.885-11.165-1.889-1.63-4.567,2.769-8.63,7.142-8.707a103.378,103.378,0,0,0,2.769-10.066c-15.111,2.989-30.171,6.171-45.282,9.108m40.146,2.626a5.2,5.2,0,0,0-3.881,5.072c-.414,4.438,5.939,7.09,8.9,3.726C617.152,344.466,612.869,337.066,608.082,338.955Z" transform="translate(-483.038 -262.812)" fill="#2386dc" stroke="#2386dc" stroke-width="1.2"/>
        <path id="Path_11678" data-name="Path 11678" d="M647.96,352.974c.815-3.053,6-3.519,7.09-.4,1.876,4.606,2.406,9.639,3.635,14.439,5.537.686,11.088,1.281,16.638,1.954,4.075,1.164,10.117-.7,12.64,3.519,1.941,6.637,3.053,13.494,4.748,20.2,4.321,19.29,8.85,38.529,13.132,57.832.828,2.406-.091,5.589-2.95,5.964-15.9,3.661-31.814,7.31-47.753,10.829-2.562.919-4.787-1.035-5.111-3.506-2.95-12.174-5.537-24.427-8.384-36.614-2.316-10.092-4.567-20.2-6.9-30.287-.893-4.451-2.549-8.824-2.51-13.417,1.462-1.928,3.674-3.066,5.641-4.4,6.6-4.062,12.99-8.487,19.73-12.33-1.475-4.942-1.346-10.635-4.269-15.008-4.179-2.005-4.813,3.545-5.887,6.223a35.668,35.668,0,0,1,.5-4.994m-14.426,31.568c6.34,26.639,12.058,53.459,18.423,80.1l1.553,1.242c17.039-3.506,33.962-7.633,50.923-11.489a38.18,38.18,0,0,0-1.009-7.375c-5.835-24.97-11.256-50.03-17.194-74.975-9.069-1.333-18.19-2.277-27.3-3.273.531,1.876,1.074,3.765,1.643,5.654,3.014.621,6.288,2.7,5.68,6.249-.259,4.929-7.918,5.99-9.678,1.5-1.954-2.976,1.113-5.512,2.73-7.7a54.5,54.5,0,0,0-1.345-6.133c-8.177,5.33-16.884,9.988-24.427,16.2m26.975-8.8c-5.175.983-4.166,9.406,1.333,8.435C667.392,383.455,665.529,374.593,660.509,375.744Z" transform="translate(-451.408 -249.39)" fill="#2386dc" stroke="#2386dc" stroke-width="1.2"/>
        <path id="Path_11679" data-name="Path 11679" d="M559.9,355.193c3.571-.492,6.986.932,10.4,1.772,1.954.582,4.2.828,5.524,2.6A144.232,144.232,0,0,1,559.9,355.193Z" transform="translate(-472.66 -248.026)" fill="#2386dc" stroke="#2386dc" stroke-width="0.4"/>
        <path id="Path_11680" data-name="Path 11680" d="M576.55,359.19c8.578,1.63,16.858,4.528,25.345,6.637,4.3,1.41,9.069,1.747,12.912,4.321-9.341-1.617-18.32-4.839-27.493-7.129C583.7,361.829,579.629,361.6,576.55,359.19Z" transform="translate(-467.769 -246.822)" fill="#2386dc" stroke="#2386dc" stroke-width="0.4"/>
        <path id="Path_11689" data-name="Path 11689" d="M596.777,305.9c2.329-.207,3.429,2.238,4.93,3.571-1.6,5.162-3.066,10.376-4.3,15.642-5.538.97-11.023,2.122-16.522,3.26,2.51-6.4,5.512-13.261,11.14-17.5.22-.181.647-.543.854-.724C594.138,308.71,595.083,306.886,596.777,305.9Z" transform="translate(-466.494 -262.48)" fill="#f7fcff"/>
        <path id="Path_11693" data-name="Path 11693" d="M659.187,388.716c5.486-1.022,10.855-2.626,16.366-3.506-1.8,2.1-4.683,2.148-7.142,2.795-4.865.932-9.639,2.368-14.542,3.092A10.135,10.135,0,0,1,659.187,388.716Z" transform="translate(-445.054 -239.177)" fill="#44b5ff" opacity="0.6"/>
        <path id="Path_11696" data-name="Path 11696" d="M590.006,331.259c4.787-1.889,9.069,5.512,5.02,8.8-2.963,3.364-9.315.712-8.9-3.726A5.2,5.2,0,0,1,590.006,331.259Z" transform="translate(-464.962 -255.117)" fill="#44b5ff"/>
        <path id="Path_11697" data-name="Path 11697" d="M654.858,370.023c5.02-1.152,6.883,7.711,1.333,8.435C650.692,379.429,649.683,371.007,654.858,370.023Z" transform="translate(-445.758 -243.669)" fill="#44b5ff"/>
        <path id="Path_11698" data-name="Path 11698" d="M561.63,364.742c.3-.311.906-.932,1.2-1.242,4.748,1.32,10.117,1.708,14.141,4.774C571.67,368.093,566.65,366.243,561.63,364.742Z" transform="translate(-472.152 -245.555)" fill="#44b5ff" opacity="0.6"/>
        <path id="Path_11699" data-name="Path 11699" d="M577.53,367.85c9,1.358,17.544,4.735,26.406,6.779,3.752,1.268,8.2,1.255,11.2,4.153-8.8-.932-17.052-4.347-25.617-6.34C585.513,370.981,580.661,371.046,577.53,367.85Z" transform="translate(-467.481 -244.277)" fill="#44b5ff" opacity="0.6"/>
        <path id="Path_11700" data-name="Path 11700" d="M565.71,400.16c9.781,1.928,19.238,5.214,28.916,7.594,2.911.841,6.314,1.152,8.254,3.8-9.768-2.07-19.264-5.266-28.981-7.595C570.989,403.123,567.573,402.851,565.71,400.16Z" transform="translate(-470.954 -234.785)" fill="#44b5ff" opacity="0.6"/>
        <path id="Path_11701" data-name="Path 11701" d="M644.73,392.464c2.639-2.381,6.3-2.588,9.665-3.015C652.13,392.309,647.951,391.766,644.73,392.464Z" transform="translate(-447.739 -237.932)" fill="#44b5ff" opacity="0.6"/>
        <path id="Path_11720" data-name="Path 11720" d="M548.64,395.96c5.046-.052,9.794,1.734,14.594,3.066.272.5.815,1.514,1.087,2.005C559.094,399.389,553.3,399.052,548.64,395.96Z" transform="translate(-475.968 -236.02)" fill="#44b5ff" opacity="0.6"/>
        <path id="Path_11721" data-name="Path 11721" d="M654.43,417.269c6.353-3.351,13.844-3.778,20.778-5.369a7.457,7.457,0,0,1-4.593,2.523C665.272,415.652,659.954,417.243,654.43,417.269Z" transform="translate(-444.889 -231.337)" fill="#44b5ff" opacity="0.6"/>
        <path id="Path_11722" data-name="Path 11722" d="M656.79,402.7a212.773,212.773,0,0,1,21.619-4.813c-1.863,2.588-5.33,2.432-8.073,3.273C665.885,401.965,661.357,404.01,656.79,402.7Z" transform="translate(-444.196 -235.452)" fill="#44b5ff" opacity="0.6"/>
        <path id="Path_11723" data-name="Path 11723" d="M647.76,405.29c2.005-3.351,6.482-2.73,9.833-3.17C655.16,405.005,651.175,404.876,647.76,405.29Z" transform="translate(-446.849 -234.21)" fill="#44b5ff" opacity="0.6"/>
        <path id="Path_11724" data-name="Path 11724" d="M651.721,416.262c3.6.53-2.1,3.351-3.519,2.6C643.6,418.2,649.975,415.822,651.721,416.262Z" transform="translate(-447.201 -230.071)" fill="#44b5ff" opacity="0.6"/>
        <g id="Group_7178" data-name="Group 7178" transform="translate(26.536 0)">
          <path id="Path_11661" data-name="Path 11661" d="M457.384,253.606c4.934-1.525,10.377,4.344,7.885,9.065-1.689,4.147-7.606,5.7-10.754,2.229C450.45,261.622,452.6,254.819,457.384,253.606Z" transform="translate(-218.834 -15.258)" fill="#fff"/>
          <path id="Path_11662" data-name="Path 11662" d="M359.208,108.649c7.131-2.541,15.131,4.393,13.524,11.836-1.082,7.967-12.114,11.475-17.606,5.606-5.7-5.065-3.131-15.327,4.082-17.442m2.984,3.246c-4.41.262-8.2,5.393-5.787,9.508,1.82,4.18,7.787,5.295,10.8,1.77C371.535,119.222,367.781,111.616,362.191,111.894Z" transform="translate(-282.997 -108.114)" fill="#44b5ff" opacity="0.41"/>
          <path id="Path_11664" data-name="Path 11664" d="M312.566,148.79c2.721-2.229,5.8.836,8.36,1.852-.459,2.41-.918,4.82-1.344,7.246-2.82-.148-6.557,1.672-8.41-1.328A5.071,5.071,0,0,1,312.566,148.79Z" transform="translate(-309.91 -82.617)" fill="#44b5ff" opacity="0.41"/>
          <path id="Path_11665" data-name="Path 11665" d="M487.056,219.361c5.737-3.984,10.8,6.033,4.508,8.377-5.164,2.82-9.7-5.7-4.508-8.377m1.77,1.623c-3.115.754-1.672,5.836,1.377,4.852C493.318,225.082,491.859,219.951,488.826,220.984Z" transform="translate(-198.13 -37.585)" fill="#44b5ff" opacity="0.41"/>
        </g>
        <text id="_" data-name="+" transform="translate(41.123 43.283)" fill="#03a9f4" font-size="16" font-family="Montserrat-Medium, Montserrat" font-weight="500"><tspan x="-4.656" y="0">+</tspan></text>
        <text id="_2" data-name="+" transform="translate(208.123 254.283)" fill="#03a9f4" font-size="16" font-family="Montserrat-Medium, Montserrat" font-weight="500"><tspan x="-4.656" y="0">+</tspan></text>
      </g>
      <text id="_3" data-name="+" transform="translate(1053.008 394)" fill="#03a9f4" font-size="16" font-family="Montserrat-Medium, Montserrat" font-weight="500"><tspan x="-4.656" y="0">+</tspan></text>
    </g>
  </g>
</svg>
