<svg xmlns="http://www.w3.org/2000/svg" xmlns:xlink="http://www.w3.org/1999/xlink" width="72.873" height="83.046" viewBox="0 0 72.873 83.046">
  <defs>
    <clipPath id="clip-path">
      <rect x="19" width="72.873" height="83.046" fill="none"/>
    </clipPath>
  </defs>
  <g id="Scroll_Group_2" data-name="Scroll Group 2" transform="translate(-19)" clip-path="url(#clip-path)" style="isolation: isolate">
    <g id="Group_9734" data-name="Group 9734" transform="translate(-465.801 -227.477)">
      <g id="Group_9725" data-name="Group 9725" transform="translate(-507 55.944)">
        <g id="Group_9723" data-name="Group 9723" transform="translate(47.818 5.595)">
          <path id="Path_17797" data-name="Path 17797" d="M4797.409,6211.626l-3.123-5.936-4.253,1.227-3.488-1.227-.492-4.539h-6.335l-.958,4.539-3.8,1.8-3.8-1.8-3,4.993.364,2.668,2.64,2.046v3.8l-3,1.9,3,6.34,4.4-2.171,2.818,2.786.381,3.766h7.293l1.167-4.381,2.813-1.219,3.75.786,4.038-5.907-3.535-2.923v-3.408Z" transform="translate(-3785 -5999)" fill="#fff"/>
          <g id="Group_9722" data-name="Group 9722" transform="translate(874.655 -28.969)">
            <path id="Path_17792" data-name="Path 17792" d="M106.749,242.355v-.444c.086-.169.164-.342.259-.5q1.71-2.923,3.424-5.844a1.111,1.111,0,0,1,1.668-.525c1.04.463,2.082.923,3.119,1.393a.455.455,0,0,0,.489-.029c.647-.395,1.309-.766,1.974-1.131a.364.364,0,0,0,.231-.325c.113-1.187.24-2.373.365-3.559a1.036,1.036,0,0,1,1.117-1.009q3.58-.005,7.16,0a1.035,1.035,0,0,1,1.117,1.008c.125,1.186.251,2.372.364,3.559a.362.362,0,0,0,.23.325c.665.364,1.326.737,1.974,1.131a.453.453,0,0,0,.488.034c1.046-.476,2.1-.938,3.148-1.4a1.1,1.1,0,0,1,1.639.528q1.721,2.935,3.44,5.871a1.081,1.081,0,0,1-.347,1.659c-.946.673-1.892,1.346-2.844,2.011a.4.4,0,0,0-.19.389c.014.738.015,1.477,0,2.215a.423.423,0,0,0,.2.414q1.442,1,2.871,2.028a1.064,1.064,0,0,1,.333,1.59q-1.735,2.963-3.474,5.925a1.1,1.1,0,0,1-1.619.523c-1.059-.472-2.12-.941-3.176-1.42a.435.435,0,0,0-.461.036c-.66.4-1.336.762-2,1.154a.462.462,0,0,0-.2.3c-.127,1.112-.256,2.223-.343,3.338a1.324,1.324,0,0,1-.8,1.24h-7.86a1.323,1.323,0,0,1-.8-1.238c-.085-1.1-.224-2.2-.324-3.308a.417.417,0,0,0-.266-.372c-.647-.353-1.291-.713-1.92-1.1a.481.481,0,0,0-.515-.041c-1.055.48-2.116.949-3.176,1.418a1.078,1.078,0,0,1-1.575-.5c-.466-.79-.934-1.58-1.394-2.374q-1.165-2.011-2.322-4.027v-.444a1.67,1.67,0,0,1,.682-.8c.919-.635,1.823-1.292,2.739-1.93a.425.425,0,0,0,.2-.414q-.023-1.105,0-2.211a.424.424,0,0,0-.206-.413c-.917-.638-1.821-1.294-2.74-1.929A1.683,1.683,0,0,1,106.749,242.355Zm2.421,9.018,2.707,4.615c1.095-.488,2.155-.955,3.211-1.434a1.037,1.037,0,0,1,1.138.063,12.054,12.054,0,0,0,3.042,1.732.955.955,0,0,1,.616.819c.044.346.077.692.113,1.039q.131,1.256.26,2.514h5.435c.123-1.188.243-2.354.366-3.519a1,1,0,0,1,.676-.88,11.09,11.09,0,0,0,2.932-1.668,1.016,1.016,0,0,1,1.1-.134q.406.177.811.356l2.5,1.109,2.7-4.612c-.963-.682-1.9-1.351-2.84-2.008a1.093,1.093,0,0,1-.518-1.136,10.653,10.653,0,0,0,0-3.25,1.083,1.083,0,0,1,.514-1.137c.678-.468,1.346-.949,2.018-1.425l.824-.586-2.706-4.612c-1.105.492-2.174.966-3.242,1.445a1.036,1.036,0,0,1-1.136-.094,11.391,11.391,0,0,0-2.987-1.7.972.972,0,0,1-.644-.834c-.042-.335-.075-.671-.11-1.007q-.132-1.271-.262-2.546h-5.436c-.123,1.188-.243,2.354-.366,3.518a1,1,0,0,1-.676.88,11.152,11.152,0,0,0-2.932,1.668,1.017,1.017,0,0,1-1.1.133q-.55-.241-1.1-.486l-2.2-.98-2.7,4.613c.954.675,1.879,1.34,2.815,1.989a1.134,1.134,0,0,1,.539,1.189,9.681,9.681,0,0,0-.008,3.091,1.234,1.234,0,0,1-.606,1.343C111,250.062,110.1,250.715,109.17,251.373Z" fill="#3b90f4"/>
            <path id="Path_17793" data-name="Path 17793" d="M290.021,399.255l-1.174.712-1.089-1.767c.761-.47,1.5-.93,2.246-1.387,1.066-.654,1.2-.643,2.163.164l1.966,1.648a.342.342,0,0,1,.044.068l-1.312,1.572-.75-.615a7.576,7.576,0,0,1-8.714,6.241l.349-2.006a5.5,5.5,0,0,0,4.72-1.526A5.109,5.109,0,0,0,290.021,399.255Z" transform="translate(-161.694 -151.917)" fill="#3b90f4"/>
            <path id="Path_17794" data-name="Path 17794" d="M190.084,340.2l1.165-.71,1.078,1.747a1.817,1.817,0,0,1-.172.138c-.817.5-1.633,1.01-2.453,1.509a1.066,1.066,0,0,1-1.42-.111c-.787-.654-1.571-1.312-2.379-1.987l1.323-1.588.762.607a7.518,7.518,0,0,1,3.818-5.41,7.3,7.3,0,0,1,4.525-.906l-.244,2.038A5.473,5.473,0,0,0,190.084,340.2Z" transform="translate(-72.451 -94.34)" fill="#3b90f4"/>
            <path id="Path_17795" data-name="Path 17795" d="M326.228,341.414a7.5,7.5,0,0,1,2.444,1.781l-1.485,1.351L325.4,343.23Z" transform="translate(-200.134 -101.637)" fill="#3b90f4"/>
            <path id="Path_17796" data-name="Path 17796" d="M229.781,464.266l1.565-1.281,1.451,1.25-1.027,1.736A7.235,7.235,0,0,1,229.781,464.266Z" transform="translate(-112.614 -212.914)" fill="#3b90f4"/>
          </g>
        </g>
      </g>
      <g id="tag_1_" data-name="tag (1)" transform="translate(465.797 264.632) rotate(-39)">
        <g id="Group_9727" data-name="Group 9727" transform="translate(0 0.006)">
          <g id="Group_9726" data-name="Group 9726" transform="translate(0 0)">
            <path id="Path_17798" data-name="Path 17798" d="M59.047,4.028A4,4,0,0,0,55.025.006,4.031,4.031,0,0,0,52.175,1.2c-.323.323-.91,1.02-1.232,1.408a.957.957,0,0,0,1.472,1.222c.5-.606.919-1.083,1.112-1.277a2.13,2.13,0,0,1,1.505-.629h.009a2.087,2.087,0,0,1,2.092,2.1A2.13,2.13,0,0,1,56.5,5.525a34.18,34.18,0,0,1-3.38,2.588A6.061,6.061,0,0,0,47.892,5.1H33.884a7.033,7.033,0,0,0-5.006,2.073l-28,28a3,3,0,0,0,0,4.239l18.76,18.76a3,3,0,0,0,4.239,0l28-28a7.033,7.033,0,0,0,2.073-5.006V11.161a6.056,6.056,0,0,0-.121-1.207,36.612,36.612,0,0,0,4.028-3.076A4.03,4.03,0,0,0,59.047,4.028Zm-7.01,21.141a5.132,5.132,0,0,1-1.513,3.653l-28,28a1.085,1.085,0,0,1-1.533,0L2.231,38.062a1.084,1.084,0,0,1,0-1.533l28-28a5.132,5.132,0,0,1,3.653-1.513H47.892a4.149,4.149,0,0,1,3.646,2.175c-1.13.748-2.4,1.544-3.737,2.326-.042-.046-.085-.091-.129-.136A4.023,4.023,0,1,0,48.713,13.2c1.167-.68,2.289-1.374,3.323-2.046,0,0,0,.006,0,.009V25.169ZM43.976,14.652a.956.956,0,0,0,1.285.425q.841-.423,1.673-.876a2.105,2.105,0,1,1-.888-1.694q-.812.441-1.645.861A.956.956,0,0,0,43.976,14.652Z" transform="translate(0 -0.006)" fill="#3b90f4"/>
          </g>
        </g>
        <g id="Group_9729" data-name="Group 9729" transform="translate(27.548 19.491)">
          <g id="Group_9728" data-name="Group 9728">
            <path id="Path_17799" data-name="Path 17799" d="M239.824,168.962a.957.957,0,0,0-.957.957v20.2a.957.957,0,1,0,1.913,0v-20.2A.957.957,0,0,0,239.824,168.962Z" transform="translate(-238.867 -168.962)" fill="#3b90f4"/>
          </g>
        </g>
        <g id="Group_9731" data-name="Group 9731" transform="translate(17.273 26.533)">
          <g id="Group_9730" data-name="Group 9730">
            <path id="Path_17800" data-name="Path 17800" d="M156.632,231.2a4.017,4.017,0,1,0,1.177,2.841A4.022,4.022,0,0,0,156.632,231.2Zm-1.353,4.329a2.1,2.1,0,1,1,.617-1.488A2.107,2.107,0,0,1,155.279,235.528Z" transform="translate(-149.775 -230.024)" fill="#3b90f4"/>
          </g>
        </g>
        <g id="Group_9733" data-name="Group 9733" transform="translate(31.704 26.533)">
          <g id="Group_9732" data-name="Group 9732">
            <path id="Path_17801" data-name="Path 17801" d="M281.761,231.2a4.016,4.016,0,1,0,0,5.682A4.022,4.022,0,0,0,281.761,231.2Zm-1.353,4.329a2.1,2.1,0,1,1,0-2.976A2.107,2.107,0,0,1,280.408,235.528Z" transform="translate(-274.904 -230.024)" fill="#3b90f4"/>
          </g>
        </g>
      </g>
    </g>
  </g>
</svg>
