<svg xmlns="http://www.w3.org/2000/svg" width="336.161" height="281" viewBox="0 0 336.161 281">
  <g id="Group_7204" data-name="Group 7204" transform="translate(-908.839 -257)">
    <circle id="Ellipse_1090" data-name="Ellipse 1090" cx="107" cy="107" r="107" transform="translate(1031 324)" fill="#eff5ff" opacity="0.72"/>
    <g id="_010101ff" data-name="#010101ff" transform="translate(919.391 328.538)">
      <path id="Path_11792" data-name="Path 11792" d="M75.8,30.887a14.2,14.2,0,0,1,10.519-2.332A19.371,19.371,0,0,1,95.529,33.4a41.068,41.068,0,0,1,9.39,13.057c.12.555.558.051.624-.214a40.735,40.735,0,0,1,8.643-12.271c3.22-3.055,7.338-5.508,11.881-5.626a15.831,15.831,0,0,1,11.421,4.91,11.387,11.387,0,0,1,3.925,7.24,9.83,9.83,0,0,1-2.536,7.149c-2.832,3.347-6.743,5.5-10.626,7.4h30.985a23.874,23.874,0,0,1,3.894.128,7.766,7.766,0,0,1,6.188,6.487c.152,1.5.069,3,.074,4.5q.009,6.876,0,13.756a14.19,14.19,0,0,1-.475,5.262,7.869,7.869,0,0,1-5.635,4.9q-.009,28.367,0,56.729a7.732,7.732,0,0,1-7.631,7.628q-50.475.014-100.948,0a7.733,7.733,0,0,1-7.628-7.633q-.027-28.361-.011-56.727a7.788,7.788,0,0,1-6.1-7.484q-.027-10.008,0-20.016a7.725,7.725,0,0,1,7.461-7.532c11.214-.018,22.429,0,33.643-.011-4.245-2.1-8.624-4.488-11.392-8.445a8.988,8.988,0,0,1-1.242-8.371c1.1-3.148,3.7-5.472,6.367-7.326m2.177,5.988a8.592,8.592,0,0,0-2.888,3.619c-.415,1.523.7,2.879,1.643,3.942a28.322,28.322,0,0,0,8.628,5.4,73.452,73.452,0,0,0,16.181,4.851,40.758,40.758,0,0,0-7.589-14.073c-2.279-2.634-5.017-5.2-8.518-5.991a8.6,8.6,0,0,0-7.457,2.255m38.664,3.434a40.836,40.836,0,0,0-7.863,14.383,74.229,74.229,0,0,0,11.71-3.095A43.43,43.43,0,0,0,132.2,45.705a8.459,8.459,0,0,0,3.095-4.038c.266-1.75-1.132-3.139-2.29-4.237-2.078-1.951-4.928-3.447-7.852-2.87-3.476.689-6.246,3.166-8.514,5.745M47.062,62.869c-.009,5.983.011,11.964,0,17.946a9.1,9.1,0,0,0,.138,2.368,1.749,1.749,0,0,0,1.822.9q26.538-.009,53.083,0c.033-7.646,0-15.291.015-22.934q-26.683-.009-53.365,0a1.573,1.573,0,0,0-1.681,1.715m61.162-1.72c.015,7.649-.018,15.295.018,22.943q26.538-.027,53.077,0a2.08,2.08,0,0,0,1.425-.383c.606-.481.511-1.32.54-2.007-.02-6.272,0-12.546-.011-18.818a1.555,1.555,0,0,0-1.66-1.717q-26.7-.036-53.391-.011M53.178,90.218v56.287a1.606,1.606,0,0,0,1.8,1.807H102.11q-.014-29.047-.009-58.1-24.46-.014-48.922,0m55.045,0v58.1h47.11a1.614,1.614,0,0,0,1.819-1.8v-56.3q-24.465,0-48.929,0Z" transform="translate(-40.948 -28.34)" fill="#2386dc"/>
    </g>
    <path id="Rectangle_4792" data-name="Rectangle 4792" d="M0,0,152.5,11.06,99.169,188.094,0,185.119Z" transform="matrix(0.788, 0.616, -0.616, 0.788, 1102.229, 287.297)" fill="#fff"/>
    <rect id="Rectangle_4793" data-name="Rectangle 4793" width="103.411" height="60.004" transform="translate(1029.494 448.459) rotate(-33.007)" fill="#eef8ff"/>
    <path id="Path_11794" data-name="Path 11794" d="M0,0H109.795l2.257,34.118L63.777,24.441,47.69,17.761,16.56,19.054,0,26.81Z" transform="translate(1001.023 436.199) rotate(-45)" fill="#eef8ff"/>
    <g id="_000000ff" data-name="#000000ff" transform="translate(961.629 384.504) rotate(-35.025)">
      <path id="Path_11757" data-name="Path 11757" d="M0,16.649C16.922,11.359,33.683,5.552,50.525,0,53.009,7.421,55.376,14.882,58,22.263c-3.319,1.212-6.794,2.681-8.886,5.7-4.851,6.22-3.11,16.4,3.787,20.395,4.149,2.767,9.421,2.553,13.934.858C69.2,56.086,71.364,63.032,73.756,69.9q-2.045.712-4.085,1.423C67.814,65.813,65.956,60.3,64.2,54.757c-5.234.414-10.834-.333-15.044-3.725a18.512,18.512,0,0,1-5.13-23.061,20.441,20.441,0,0,1,8.532-8.33c-1.646-4.7-3.252-9.431-4.715-14.206Q24.594,13.223,1.306,20.883C.878,19.467.434,18.062,0,16.649Z" transform="translate(130.574 0)" fill="#2386dc"/>
      <path id="Path_11758" data-name="Path 11758" d="M0,1.413C1.413.928,2.827.474,4.25,0c.434,1.545.894,3.09,1.353,4.624C4.25,5.038,2.9,5.472,1.555,5.916,1.041,4.412.514,2.908,0,1.413Z" transform="translate(122.143 19.578)" fill="#2386dc"/>
      <path id="Path_11759" data-name="Path 11759" d="M0,22.365Q33.744,11.171,67.5,0c.434,1.374.878,2.736,1.323,4.1-22.485,7.38-44.91,14.923-67.4,22.293Q.726,24.378,0,22.365Z" transform="translate(49.851 21.213)" fill="#2386dc"/>
      <path id="Path_11760" data-name="Path 11760" d="M0,1.252C1.343.839,2.7.424,4.038,0c.455,1.5.929,3.009,1.413,4.513-1.393.454-2.787.919-4.17,1.383C.848,4.352.4,2.807,0,1.252Z" transform="translate(125.394 28.886)" fill="#2386dc"/>
      <path id="Path_11761" data-name="Path 11761" d="M0,1.363C1.383.919,2.767.47,4.14,0c3.332,10.349,6.835,20.658,10.228,30.986-1.374.4-2.746.8-4.11,1.212C6.8,21.927,3.453,11.629,0,1.363Z" transform="translate(151.696 30.384)" fill="#44b5ff"/>
      <path id="Path_11762" data-name="Path 11762" d="M0,1.423Q2.059.726,4.12,0C6.22,6.058,8.205,12.157,10.2,18.257c-1.343.465-2.681.938-4.019,1.434C4.038,13.615,2.252,7.435,0,1.423Z" transform="translate(143.71 33.063)" fill="#44b5ff"/>
      <path id="Path_11763" data-name="Path 11763" d="M0,1.4C1.363.929,2.736.466,4.11,0c.485,1.5,1,3.009,1.494,4.513q-2.03.712-4.085,1.413C1.02,4.413.515,2.91,0,1.4Z" transform="translate(128.322 38.114)" fill="#2386dc"/>
      <path id="Path_11764" data-name="Path 11764" d="M40.3,0c1.323.6,2.635,1.191,3.948,1.777C39.069,12.48,33.6,23.031,28.315,33.683c3.038.041,6.088.031,9.127.06-.894-3.554-.726-7.825,2.3-10.369a9.108,9.108,0,0,1,13.833,1.565c1.837,2.575,1.625,5.856.969,8.794,5.554-.031,11.116-.02,16.67-.01v4.26q-35.607.031-71.212.01c.01-1.444.02-2.9.031-4.341,7.815.111,15.63.091,23.445.01C29.11,22.454,34.784,11.268,40.307,0m3.114,25.891C40.029,27.607,40.6,34.372,45,33.757c1.878-.091,4.786.475,5.381-1.938C52.417,27.786,47.116,23.262,43.421,25.891Z" transform="translate(69.564 43.295)" fill="#2386dc"/>
      <path id="Path_11765" data-name="Path 11765" d="M0,1.323C1.374.889,2.756.444,4.13,0c.465,1.5.949,2.989,1.424,4.493-1.343.485-2.7.959-4.038,1.413C1.01,4.382.5,2.847,0,1.323Z" transform="translate(131.422 47.415)" fill="#2386dc"/>
      <path id="Path_11766" data-name="Path 11766" d="M4.64,1.151c5.937-3.575,14.337,1.7,13.419,8.633C17.938,16.7,8.867,20.75,3.6,16.327-1.634,12.753-1.054,3.943,4.641,1.151M6.63,5.008A4.786,4.786,0,0,0,6.758,13.3,4.836,4.836,0,0,0,13.8,9.622c.613-3.663-4.056-6.863-7.166-4.611Z" transform="translate(77.075 50.946)" fill="#2386dc"/>
      <path id="Path_11767" data-name="Path 11767" d="M0,7.572C7.615,5.109,15.221,2.63,22.771,0q.712,2.043,1.393,4.12c-6.21,2.1-12.42,4.19-18.669,6.169,3.857,11.369,7.331,22.879,11.49,34.137.282-6.654.051-13.317.121-19.971,8.229.031,16.478.192,24.706-.06,5.805-.626,8.4-7,8.794-12.116,1.292.02,2.575.031,3.867.031.333,5.554,3.413,11.753,9.561,12.4,0,1.232.01,2.474.01,3.715-5.947.969-9.33,6.714-9.521,12.368-1.292.031-2.585.06-3.877.1-.535-4.937-2.746-10.852-8.2-11.975-7.037-.354-14.1-.01-21.153-.152q-.015,33.652,0,67.305,59.732-.031,119.474,0v4.281q-61.837,0-123.685.01c.051-12.894-.01-25.789.041-38.683a13.3,13.3,0,0,0-.737-4.908C10.885,40.384,5.513,23.961,0,7.569M48.031,26.716a36.316,36.316,0,0,1,4.523,4.957,41.457,41.457,0,0,1,4.468-5.028,51.363,51.363,0,0,1-4.544-5.169,40.05,40.05,0,0,1-4.448,5.239Z" transform="translate(0 52.503)" fill="#2386dc"/>
      <path id="Path_11768" data-name="Path 11768" d="M0,1.277,4.2,0c.848,2.756,1.757,5.49,2.666,8.229-1.343.465-2.681.929-4.029,1.383C1.878,6.84.909,4.064,0,1.277Z" transform="translate(151.242 55.658)" fill="#44b5ff"/>
      <path id="Path_11769" data-name="Path 11769" d="M0,1.3Q2.075.664,4.149,0c.414,1.575.858,3.15,1.277,4.724q-2.061.546-4.12,1.08C.889,4.3.444,2.8,0,1.3Z" transform="translate(134.542 56.632)" fill="#2386dc"/>
      <path id="Path_11770" data-name="Path 11770" d="M0,1.121Q2.075.576,4.149,0c.455,1.532.919,3.064,1.383,4.6-1.413.374-2.809.757-4.213,1.149C.9,4.2.447,2.653,0,1.121Z" transform="translate(137.59 66.014)" fill="#2386dc"/>
      <path id="Path_11771" data-name="Path 11771" d="M.011,0Q26.577.212,53.151.01c.031,7.8-.02,15.61.031,23.414-6.29-.2-13,2.908-15.215,9.137C34.432,40.427,40.2,50.554,48.749,51.543c1.413.434,3.271-.212,4.392.929.07,7.815-.02,15.629.02,23.445-4.766.121-9.552-.232-14.3.162C33.628,77.343,31.188,83,30.916,87.913l-4.17.06c.091-5.675-3.464-11.348-9.269-12.459,0-1.191-.02-2.373-.041-3.554,6.018-.878,9.31-6.8,9.41-12.449,1.343,0,2.681.01,4.029.02C31.22,64.217,33.24,69.518,38,71.254c3.513.766,7.158.292,10.733.383V56.087c-8.673-1.212-16.024-8.895-16.064-17.78-.525-9.248,6.946-17.76,16.054-18.895q.015-7.532,0-15.055c-16.236.02-32.481-.01-48.727.01C0,2.913.01,1.459.01.005M28.9,68.662a41.457,41.457,0,0,1-4.468,5.13,51.637,51.637,0,0,1,4.453,5.058,44.239,44.239,0,0,1,4.544-5.079A35.144,35.144,0,0,1,28.9,68.657Z" transform="translate(154.633 76.928)" fill="#2386dc"/>
      <path id="Path_11772" data-name="Path 11772" d="M0,.031C1.413.031,2.827.02,4.251,0c-.01,1.625-.01,3.252-.01,4.877-1.413-.02-2.818-.041-4.221-.07C.02,3.211.01,1.625,0,.031Z" transform="translate(145.325 78.26)" fill="#2386dc"/>
      <path id="Path_11773" data-name="Path 11773" d="M.04,0c1.393.06,2.8.111,4.19.162,0,1.6.01,3.192.041,4.786q-2.136.015-4.27.06C.009,3.342.029,1.666.04,0Z" transform="translate(145.326 87.922)" fill="#2386dc"/>
      <path id="Path_11774" data-name="Path 11774" d="M6,.588c5.977-2.474,13.136,3.261,11.985,9.643C17.56,17.289,8.018,20.782,3,15.925-2.129,11.755-.391,2.456,6,.588M7.191,4.674C3.627,6.017,3.182,11.6,6.706,13.235c2.827,1.979,7.239-.586,6.987-4.019a4.733,4.733,0,0,0-6.5-4.539Z" transform="translate(89.751 94.916)" fill="#2386dc"/>
      <path id="Path_11775" data-name="Path 11775" d="M0,34.349C11.43,22.89,22.9,11.49,34.289,0l3.241,3.03q-17.189,17.1-34.3,34.279C2.16,36.3,1.09,35.322,0,34.349Z" transform="translate(92.337 95.572)" fill="#2386dc"/>
      <path id="Path_11776" data-name="Path 11776" d="M.082,0C1.495.02,2.918.031,4.352.041c-.06,1.6-.1,3.2-.152,4.807-1.049-.02-3.15-.07-4.2-.1C.027,3.16.061,1.586.082,0Z" transform="translate(145.294 97.808)" fill="#2386dc"/>
      <path id="Path_11777" data-name="Path 11777" d="M.019.031,4.382,0c.02,6.411-.01,12.823.02,19.234-1.464-.02-2.936-.041-4.4-.051C.029,12.805.009,6.412.019.031Z" transform="translate(161.884 97.868)" fill="#44b5ff"/>
      <path id="Path_11778" data-name="Path 11778" d="M0,0C1.454,0,2.918,0,4.371.01q-.015,16.251,0,32.522c-1.464-.01-2.918-.01-4.371-.01Z" transform="translate(169.901 97.888)" fill="#44b5ff"/>
      <path id="Path_11779" data-name="Path 11779" d="M0,0C1.7.01,3.382.041,5.068.07c-.01,1.393-.02,2.8-.031,4.2L.019,4.33C.01,2.888.01,1.444,0,0Z" transform="translate(30.252 101.078)" fill="#2386dc"/>
      <path id="Path_11780" data-name="Path 11780" d="M0,.014C13.177-.017,26.352.014,39.529,0c0,1.423-.01,2.847-.02,4.281H0Z" transform="translate(39.733 101.095)" fill="#2386dc"/>
      <path id="Path_11781" data-name="Path 11781" d="M0,.031C1.413.031,2.827.02,4.251,0c-.01,1.625-.01,3.252-.01,4.877C2.828,4.846,1.424,4.826.02,4.807.02,3.211.01,1.625,0,.031Z" transform="translate(145.325 107.54)" fill="#2386dc"/>
      <path id="Path_11782" data-name="Path 11782" d="M.031,0C12.874.041,25.707-.051,38.539.051c.02,1.454.041,2.918.07,4.382Q19.3,4.373,0,4.433C.01,2.948.02,1.475.031,0Z" transform="translate(30.252 113.204)" fill="#2386dc"/>
      <path id="Path_11783" data-name="Path 11783" d="M.041,0C2.262.02,4.494.06,6.724.091c0,1.444-.01,2.878,0,4.322-2.242.01-4.482.01-6.724.031C.01,2.958.02,1.468.041,0Z" transform="translate(72.537 113.194)" fill="#2386dc"/>
      <path id="Path_11784" data-name="Path 11784" d="M5.549.736a9.1,9.1,0,0,1,12.4,6.119c1.575,5.412-3.049,11.5-8.724,11.227-5.068.3-9.4-4.523-9.219-9.46A9.345,9.345,0,0,1,5.549.736M6.69,4.967A4.751,4.751,0,0,0,5.145,11.58c1.915,3.447,7.926,2.534,8.664-1.393,1.18-3.879-3.757-7.594-7.125-5.222Z" transform="translate(113.374 116.771)" fill="#2386dc"/>
      <path id="Path_11785" data-name="Path 11785" d="M.04,0c1.393.041,2.8.07,4.2.1q-.015,2.392.031,4.786Q2.135,4.9,0,4.947C.009,3.291.019,1.646.04,0Z" transform="translate(145.326 117.263)" fill="#2386dc"/>
      <path id="Path_11786" data-name="Path 11786" d="M.02.041C1.475.031,2.929.02,4.392,0c-.02,2.929-.01,5.866-.01,8.794-1.464-.01-2.918-.01-4.382-.01C.01,5.866,0,2.958.02.041Z" transform="translate(161.893 121.625)" fill="#44b5ff"/>
      <path id="Path_11787" data-name="Path 11787" d="M0,0Q17.083.121,34.168,0V4.29Q17.085,4.259,0,4.29C.01,2.857,0,1.424,0,0Z" transform="translate(30.252 125.503)" fill="#2386dc"/>
      <path id="Path_11788" data-name="Path 11788" d="M.082,0C1.495.02,2.918.041,4.352.051c-.06,1.6-.1,3.2-.152,4.8-1.049-.02-3.15-.07-4.2-.1C.027,3.16.061,1.586.082,0Z" transform="translate(145.294 127.088)" fill="#2386dc"/>
      <path id="Path_11789" data-name="Path 11789" d="M0,.031C1.413.031,2.827.02,4.251,0c-.01,1.625-.01,3.252-.01,4.877C2.828,4.846,1.424,4.826.02,4.807.02,3.211.01,1.615,0,.031Z" transform="translate(145.325 136.82)" fill="#2386dc"/>
      <path id="Path_11790" data-name="Path 11790" d="M.031,0c1.393.031,2.8.07,4.2.091-.01,1.6,0,3.192.02,4.8-1.413.01-2.837.041-4.251.07C.01,3.3.01,1.646.031,0Z" transform="translate(145.335 146.554)" fill="#2386dc"/>
      <path id="Path_11791" data-name="Path 11791" d="M0,.008q5.861-.015,11.733,0c-.01,1.423-.01,2.847-.02,4.281q-5.847-.015-11.7,0C0,2.856,0,1.427,0,.008Z" transform="translate(154.624 148.566)" fill="#2386dc"/>
    </g>
    <path id="Path_11793" data-name="Path 11793" d="M14.951.4,70.8,23.894c9.871,0,58.881-33.37,58.881-23.5L81.338,69.8c0,9.873,30.748,21.235,20.876,21.235l-82.54-3.183c-9.878,0-4.724-4.819-4.724-14.691v-54.9C14.951,8.4,5.079.4,14.951.4Z" transform="translate(911.727 363.881)" fill="#44b5ff" opacity="0.09"/>
    <g id="Group_7178" data-name="Group 7178" transform="translate(927.695 257)">
      <path id="Path_11661" data-name="Path 11661" d="M457.193,253.6c4.747-1.467,9.984,4.18,7.586,8.721-1.624,3.99-7.318,5.49-10.341,2.145C450.523,261.309,452.588,254.763,457.193,253.6Z" transform="translate(-284.322 -9.586)" fill="#b2e0ff"/>
      <path id="Path_11662" data-name="Path 11662" d="M358.934,108.629c6.861-2.445,14.554,4.227,13.011,11.387-1.04,7.66-11.655,11.039-16.938,5.394-5.49-4.873-3.012-14.746,3.927-16.781m2.87,3.123c-4.242.255-7.886,5.188-5.568,9.147a6.335,6.335,0,0,0,10.393,1.7c4.165-3.8.553-11.119-4.825-10.85Z" transform="translate(-284.476 -108.114)" fill="#44b5ff" opacity="0.41"/>
      <path id="Path_11665" data-name="Path 11665" d="M486.968,219.326c5.52-3.83,10.393,5.8,4.341,8.058-4.968,2.713-9.336-5.49-4.341-8.058m1.7,1.561c-3,.725-1.609,5.617,1.325,4.669C492.993,224.83,491.589,219.894,488.671,220.887Z" transform="translate(-207.863 -44.446)" fill="#44b5ff" opacity="0.41"/>
      <path id="Path_11661-2" data-name="Path 11661" d="M455.912,253.533c3.485-1.077,7.329,3.069,5.569,6.4-1.192,2.929-5.372,4.03-7.592,1.575C451.015,259.2,452.531,254.39,455.912,253.533Z" transform="translate(-452.373 -191.294)" fill="#b2e0ff"/>
    </g>
    <path id="Path_11662-2" data-name="Path 11662" d="M6.926.515C13.787-1.93,21.48,4.742,19.937,11.9,18.9,19.562,8.282,22.941,3,17.3-2.49,12.426-.013,2.558,6.926.515M9.8,3.641C5.554,3.9,1.91,8.83,4.228,12.789a6.335,6.335,0,0,0,10.393,1.7C18.786,10.691,15.175,3.373,9.8,3.641Z" transform="translate(1015.816 537.702) rotate(-151.001)" fill="#44b5ff" opacity="0.41"/>
    <path id="Path_11665-2" data-name="Path 11665" d="M2.21.89C7.73-2.94,12.6,6.694,6.551,8.948,1.579,11.659-2.79,3.457,2.21.89m1.7,1.559c-3,.725-1.609,5.617,1.325,4.669C8.235,6.391,6.831,1.454,3.913,2.449Z" transform="translate(917.014 283.916) rotate(-151.001)" fill="#44b5ff" opacity="0.41"/>
  </g>
</svg>
