<svg xmlns="http://www.w3.org/2000/svg" xmlns:xlink="http://www.w3.org/1999/xlink" width="216.797" height="190.63" viewBox="0 0 216.797 190.63">
  <defs>
    <linearGradient id="linear-gradient" x1="0.5" x2="0.5" y2="1" gradientUnits="objectBoundingBox">
      <stop offset="0" stop-color="#2386dc"/>
      <stop offset="1" stop-color="#44b5ff"/>
    </linearGradient>
  </defs>
  <g id="Group_9221" data-name="Group 9221" transform="translate(-984.465 -318.792)">
    <g id="chat" transform="translate(1118.465 331)">
      <g id="Group_9205" data-name="Group 9205" transform="translate(0 7.733)">
        <g id="Group_9204" data-name="Group 9204">
          <g id="Group_9203" data-name="Group 9203">
            <g id="Group_9202" data-name="Group 9202">
              <g id="Group_9197" data-name="Group 9197">
                <g id="Group_9196" data-name="Group 9196">
                  <g id="Group_9195" data-name="Group 9195">
                    <g id="Group_9194" data-name="Group 9194">
                      <g id="Group_9193" data-name="Group 9193">
                        <path id="Path_14799" data-name="Path 14799" d="M67.17,115.877V81.305a7.777,7.777,0,0,0-7.778-7.777H7.778A7.777,7.777,0,0,0,0,81.305v34.571a7.777,7.777,0,0,0,7.777,7.778h3.278a2.825,2.825,0,0,1,2.445,1.409l5.238,9.044h9.672l5.238-9.044a2.825,2.825,0,0,1,2.445-1.409h23.3a7.778,7.778,0,0,0,7.778-7.778Z" transform="translate(0 -73.528)" fill="#f7fcff"/>
                        <g id="Group_9192" data-name="Group 9192" transform="translate(18.739)">
                          <path id="Path_14800" data-name="Path 14800" d="M367.981,73.527H357.288a7.778,7.778,0,0,1,7.777,7.777v34.571a7.778,7.778,0,0,1-7.777,7.777h10.693a7.778,7.778,0,0,0,7.777-7.777V81.3a7.778,7.778,0,0,0-7.777-7.778Z" transform="translate(-317.454 -73.527)" fill="#f7fcff"/>
                          <path id="Path_14801" data-name="Path 14801" d="M119.542,380.7l-5.238,9.044,3.391,5.854a2.26,2.26,0,0,0,3.911,0l8.629-14.9a2.825,2.825,0,0,1,2.445-1.409H121.988A2.826,2.826,0,0,0,119.542,380.7Z" transform="translate(-114.304 -329.168)" fill="#f7fcff"/>
                        </g>
                      </g>
                    </g>
                  </g>
                </g>
              </g>
              <g id="Group_9201" data-name="Group 9201" transform="translate(7.842 11.826)">
                <g id="Group_9198" data-name="Group 9198" transform="translate(0 23.582)">
                  <path id="Path_14802" data-name="Path 14802" d="M106.712,292.047H49.1a1.267,1.267,0,0,1,0-2.533h57.607a1.267,1.267,0,0,1,0,2.533Z" transform="translate(-47.838 -289.514)" fill="#f0f7ff"/>
                </g>
                <g id="Group_9199" data-name="Group 9199" transform="translate(0 11.791)">
                  <path id="Path_14803" data-name="Path 14803" d="M84.161,220.122H49.1a1.267,1.267,0,1,1,0-2.533H84.161a1.267,1.267,0,1,1,0,2.533Z" transform="translate(-47.838 -217.589)" fill="#f0f7ff"/>
                </g>
                <g id="Group_9200" data-name="Group 9200" transform="translate(0)">
                  <path id="Path_14804" data-name="Path 14804" d="M84.161,148.2H49.1a1.267,1.267,0,1,1,0-2.533H84.161a1.267,1.267,0,1,1,0,2.533Z" transform="translate(-47.838 -145.664)" fill="#f0f7ff"/>
                </g>
              </g>
            </g>
          </g>
        </g>
      </g>
      <g id="Group_9217" data-name="Group 9217" transform="translate(65.142 1.732)">
        <g id="Group_9212" data-name="Group 9212">
          <g id="Group_9211" data-name="Group 9211">
            <g id="Group_9210" data-name="Group 9210">
              <g id="Group_9209" data-name="Group 9209">
                <g id="Group_9208" data-name="Group 9208">
                  <g id="Group_9207" data-name="Group 9207">
                    <g id="Group_9206" data-name="Group 9206">
                      <path id="Path_14805" data-name="Path 14805" d="M330.757,48.765a8.277,8.277,0,0,0-6.977-8.173l-.5.151a8.031,8.031,0,0,0,4.068,14.712A8.264,8.264,0,0,0,330.757,48.765Z" transform="translate(-319.695 -39.403)" fill="#03a9f4"/>
                      <path id="Path_14806" data-name="Path 14806" d="M367.109,26.355a7.993,7.993,0,0,0-4.441,1.34,8.031,8.031,0,0,1,3.563,14.673,8.031,8.031,0,1,0,.878-16.013Z" transform="translate(-359.079 -26.355)" fill="#03a9f4"/>
                    </g>
                  </g>
                </g>
              </g>
            </g>
          </g>
        </g>
        <g id="Group_9216" data-name="Group 9216" transform="translate(5.729 3.117)">
          <g id="Group_9215" data-name="Group 9215">
            <g id="Group_9214" data-name="Group 9214">
              <g id="Group_9213" data-name="Group 9213">
                <path id="Path_14807" data-name="Path 14807" d="M390.761,73.5a.645.645,0,0,1-.645-.645V64.966h-1.179a.645.645,0,1,1,0-1.291h1.825a.645.645,0,0,1,.645.645v8.537A.645.645,0,0,1,390.761,73.5Z" transform="translate(-388.291 -63.675)" fill="#f0f7ff"/>
              </g>
            </g>
          </g>
        </g>
      </g>
    </g>
    <g id="chat-2" data-name="chat" transform="translate(984.465 356)">
      <g id="Group_9205-2" data-name="Group 9205" transform="translate(0 7.733)">
        <g id="Group_9204-2" data-name="Group 9204">
          <g id="Group_9203-2" data-name="Group 9203">
            <g id="Group_9202-2" data-name="Group 9202">
              <g id="Group_9197-2" data-name="Group 9197">
                <g id="Group_9196-2" data-name="Group 9196">
                  <g id="Group_9195-2" data-name="Group 9195">
                    <g id="Group_9194-2" data-name="Group 9194">
                      <g id="Group_9193-2" data-name="Group 9193">
                        <path id="Path_14799-2" data-name="Path 14799" d="M67.17,115.877V81.305a7.777,7.777,0,0,0-7.778-7.777H7.778A7.777,7.777,0,0,0,0,81.305v34.571a7.777,7.777,0,0,0,7.777,7.778h3.278a2.825,2.825,0,0,1,2.445,1.409l5.238,9.044h9.672l5.238-9.044a2.825,2.825,0,0,1,2.445-1.409h23.3a7.778,7.778,0,0,0,7.778-7.778Z" transform="translate(0 -73.528)" fill="#f7fcff"/>
                        <g id="Group_9192-2" data-name="Group 9192" transform="translate(18.739)">
                          <path id="Path_14800-2" data-name="Path 14800" d="M367.981,73.527H357.288a7.778,7.778,0,0,1,7.777,7.777v34.571a7.778,7.778,0,0,1-7.777,7.777h10.693a7.778,7.778,0,0,0,7.777-7.777V81.3a7.778,7.778,0,0,0-7.777-7.778Z" transform="translate(-317.454 -73.527)" fill="#f7fcff"/>
                          <path id="Path_14801-2" data-name="Path 14801" d="M119.542,380.7l-5.238,9.044,3.391,5.854a2.26,2.26,0,0,0,3.911,0l8.629-14.9a2.825,2.825,0,0,1,2.445-1.409H121.988A2.826,2.826,0,0,0,119.542,380.7Z" transform="translate(-114.304 -329.168)" fill="#f7fcff"/>
                        </g>
                      </g>
                    </g>
                  </g>
                </g>
              </g>
              <g id="Group_9201-2" data-name="Group 9201" transform="translate(7.842 11.826)">
                <g id="Group_9198-2" data-name="Group 9198" transform="translate(0 23.582)">
                  <path id="Path_14802-2" data-name="Path 14802" d="M106.712,292.047H49.1a1.267,1.267,0,0,1,0-2.533h57.607a1.267,1.267,0,0,1,0,2.533Z" transform="translate(-47.838 -289.514)" fill="#f0f7ff"/>
                </g>
                <g id="Group_9199-2" data-name="Group 9199" transform="translate(0 11.791)">
                  <path id="Path_14803-2" data-name="Path 14803" d="M84.161,220.122H49.1a1.267,1.267,0,1,1,0-2.533H84.161a1.267,1.267,0,1,1,0,2.533Z" transform="translate(-47.838 -217.589)" fill="#f0f7ff"/>
                </g>
                <g id="Group_9200-2" data-name="Group 9200" transform="translate(0)">
                  <path id="Path_14804-2" data-name="Path 14804" d="M84.161,148.2H49.1a1.267,1.267,0,1,1,0-2.533H84.161a1.267,1.267,0,1,1,0,2.533Z" transform="translate(-47.838 -145.664)" fill="#f0f7ff"/>
                </g>
              </g>
            </g>
          </g>
        </g>
      </g>
      <g id="Group_9217-2" data-name="Group 9217" transform="translate(65.142 1.732)">
        <g id="Group_9212-2" data-name="Group 9212">
          <g id="Group_9211-2" data-name="Group 9211">
            <g id="Group_9210-2" data-name="Group 9210">
              <g id="Group_9209-2" data-name="Group 9209">
                <g id="Group_9208-2" data-name="Group 9208">
                  <g id="Group_9207-2" data-name="Group 9207">
                    <g id="Group_9206-2" data-name="Group 9206">
                      <path id="Path_14805-2" data-name="Path 14805" d="M330.757,48.765a8.277,8.277,0,0,0-6.977-8.173l-.5.151a8.031,8.031,0,0,0,4.068,14.712A8.264,8.264,0,0,0,330.757,48.765Z" transform="translate(-319.695 -39.403)" fill="#03a9f4"/>
                      <path id="Path_14806-2" data-name="Path 14806" d="M367.109,26.355a7.993,7.993,0,0,0-4.441,1.34,8.031,8.031,0,0,1,3.563,14.673,8.031,8.031,0,1,0,.878-16.013Z" transform="translate(-359.079 -26.355)" fill="#03a9f4"/>
                    </g>
                  </g>
                </g>
              </g>
            </g>
          </g>
        </g>
        <g id="Group_9216-2" data-name="Group 9216" transform="translate(5.729 3.117)">
          <g id="Group_9215-2" data-name="Group 9215">
            <g id="Group_9214-2" data-name="Group 9214">
              <g id="Group_9213-2" data-name="Group 9213">
                <path id="Path_14807-2" data-name="Path 14807" d="M390.761,73.5a.645.645,0,0,1-.645-.645V64.966h-1.179a.645.645,0,1,1,0-1.291h1.825a.645.645,0,0,1,.645.645v8.537A.645.645,0,0,1,390.761,73.5Z" transform="translate(-388.291 -63.675)" fill="#f0f7ff"/>
              </g>
            </g>
          </g>
        </g>
      </g>
    </g>
    <g id="Group_9220" data-name="Group 9220">
      <g id="Group_7180" data-name="Group 7180" transform="translate(978.719 319)">
        <g id="Group_7179" data-name="Group 7179" transform="translate(0)">
          <path id="Path_11676" data-name="Path 11676" d="M674.127,272.62c.834,1.079.617,2.467.753,3.737,1.17.045,2.349.109,3.538.2-.943,1.089-2.367,1.125-3.674,1.279.027.726.073,2.177.1,2.9l-1.089.054c-.018-.753-.073-2.259-.091-3.011-1.333-.317-2.649-.626-3.955-.989,1.243-.2,2.485-.372,3.746-.526C673.656,275.042,673.873,273.826,674.127,272.62Z" transform="translate(-490.626 -272.364)" stroke="#2386dc" stroke-width="0.4" fill="url(#linear-gradient)"/>
          <path id="Path_11681" data-name="Path 11681" d="M496.089,386.52c.9,1.025.771,2.395.9,3.655,1.224.2,2.776-.145,3.637,1.025-.88.018-2.658.045-3.547.063-.154,1.324-.127,2.794-1.143,3.819-.027-.943-.091-2.821-.127-3.764l-3.338.036.054-1.125c.78.036,2.358.118,3.148.154C495.772,389.087,495.917,387.8,496.089,386.52Z" transform="translate(-474.154 -282.949)" stroke="#2386dc" stroke-width="0.4" fill="url(#linear-gradient)"/>
          <path id="Path_11692" data-name="Path 11692" d="M522.877,296.97c.354.018,1.079.073,1.433.091-.009.735-.018,2.2-.027,2.939,1.243.127,2.794-.045,3.456,1.324-.826.045-2.476.127-3.311.172-.109,1.125-.254,2.249-.426,3.374-1.669.063-.825-2.349-1.306-3.356-.816-.045-2.449-.145-3.265-.19.49-1.578,2.15-1.206,3.429-1.27C522.859,299.283,522.868,297.741,522.877,296.97Z" transform="translate(-476.659 -274.627)" fill="url(#linear-gradient)"/>
          <path id="Path_11694" data-name="Path 11694" d="M651.924,463.6a6.658,6.658,0,0,1,1.179-3.728c.181,1.206.354,2.422.508,3.646,1.27.181,2.748.145,3.519,1.388-1.216.109-2.422.2-3.619.281-.018.834-.054,2.513-.073,3.347-1.732-.354-1.3-2.1-1.451-3.383-1.225-.218-2.721.064-3.438-1.2C649.393,463.861,651.081,463.68,651.924,463.6Z" transform="translate(-488.659 -289.766)" fill="url(#linear-gradient)"/>
          <path id="Path_11696" data-name="Path 11696" d="M588.84,331.168c3.356-1.324,6.359,3.864,3.519,6.168-2.077,2.358-6.531.5-6.241-2.612A3.644,3.644,0,0,1,588.84,331.168Z" transform="translate(-482.856 -277.785)" fill="#44b5ff"/>
          <path id="Path_11697" data-name="Path 11697" d="M653.847,369.993c3.519-.807,4.826,5.406.934,5.914C650.926,376.587,650.219,370.682,653.847,369.993Z" transform="translate(-488.931 -281.406)" fill="#44b5ff"/>
          <path id="Path_11698" data-name="Path 11698" d="M561.63,364.371c.209-.218.635-.653.844-.871,3.329.925,7.093,1.2,9.914,3.347C568.669,366.72,565.149,365.423,561.63,364.371Z" transform="translate(-480.581 -280.81)" fill="#44b5ff" opacity="0.6"/>
          <path id="Path_11699" data-name="Path 11699" d="M577.53,367.85c6.313.952,12.3,3.32,18.513,4.753,2.631.889,5.751.88,7.855,2.912-6.168-.653-11.955-3.048-17.96-4.445C583.127,370.045,579.725,370.09,577.53,367.85Z" transform="translate(-482.059 -281.214)" fill="#44b5ff" opacity="0.6"/>
          <path id="Path_11700" data-name="Path 11700" d="M565.71,400.16c6.857,1.352,13.488,3.655,20.273,5.324,2.041.59,4.426.807,5.787,2.667-6.848-1.451-13.506-3.692-20.318-5.324C569.411,402.237,567.016,402.047,565.71,400.16Z" transform="translate(-480.96 -284.217)" fill="#44b5ff" opacity="0.6"/>
          <path id="Path_11701" data-name="Path 11701" d="M644.73,391.563c1.85-1.669,4.417-1.814,6.776-2.113C649.918,391.455,646.989,391.074,644.73,391.563Z" transform="translate(-488.304 -283.222)" fill="#44b5ff" opacity="0.6"/>
          <path id="Path_11721" data-name="Path 11721" d="M654.43,415.664c4.454-2.349,9.706-2.649,14.567-3.764a5.228,5.228,0,0,1-3.22,1.769C662.031,414.53,658.3,415.646,654.43,415.664Z" transform="translate(-489.206 -285.308)" fill="#44b5ff" opacity="0.6"/>
          <path id="Path_11723" data-name="Path 11723" d="M647.76,404.342c1.406-2.349,4.544-1.914,6.894-2.222C652.948,404.143,650.155,404.052,647.76,404.342Z" transform="translate(-488.586 -284.399)" fill="#44b5ff" opacity="0.6"/>
          <path id="Path_11724" data-name="Path 11724" d="M650.179,416.246c2.522.372-1.469,2.349-2.467,1.823C644.483,417.607,648.955,415.938,650.179,416.246Z" transform="translate(-488.475 -285.708)" fill="#44b5ff" opacity="0.6"/>
        </g>
      </g>
      <rect id="Rectangle_5890" data-name="Rectangle 5890" width="112" height="67" rx="8" transform="matrix(1, 0.017, -0.017, 1, 1089.279, 440.477)" fill="#f7fcff"/>
      <g id="Group_9219" data-name="Group 9219">
        <path id="Path_14808" data-name="Path 14808" d="M6,0H57.684V11.707c1.1,0-6.921,8.588-9.95,15.512-2.6,5.947,15.164-1.655,14.145,3.83-1.1,5.938,6.525,5.693,6.525,6.883L79,33.115V48a6,6,0,0,1-6,6L26.5,56.684,7.746,73.334,6,54a6,6,0,0,1-6-6V6A6,6,0,0,1,6,0Z" transform="translate(1056 405)" fill="#fff"/>
        <g id="chat_1_" data-name="chat (1)" transform="translate(1051.48 391.939)">
          <g id="Group_9191" data-name="Group 9191" transform="translate(0 0)">
            <path id="Path_14794" data-name="Path 14794" d="M117.125,161.988a1.415,1.415,0,0,0-1.415-1.415H76.3a1.415,1.415,0,0,0,0,2.831H115.71A1.415,1.415,0,0,0,117.125,161.988Z" transform="translate(-60.75 -134.818)" fill="#03a9f4"/>
            <path id="Path_14795" data-name="Path 14795" d="M109.04,229.5H76.3a1.415,1.415,0,0,0,0,2.831H109.04a1.415,1.415,0,0,0,0-2.831Z" transform="translate(-60.75 -190.734)" fill="#03a9f4"/>
            <path id="Path_14796" data-name="Path 14796" d="M109.04,298.419H76.3a1.415,1.415,0,1,0,0,2.831H109.04a1.415,1.415,0,0,0,0-2.831Z" transform="translate(-60.75 -246.651)" fill="#03a9f4"/>
            <path id="Path_14797" data-name="Path 14797" d="M329.638,60.09a20.032,20.032,0,0,1-7.49-15.663V42.75a12.351,12.351,0,0,0-6.485-10.86V29.945a5.856,5.856,0,0,0-11.712,0V31.89a12.351,12.351,0,0,0-6.485,10.86v1.678a20.032,20.032,0,0,1-7.489,15.662,3.277,3.277,0,0,0,2.046,5.838h9.047a9.192,9.192,0,0,0,17.473,0h9.047a3.277,3.277,0,0,0,2.047-5.837ZM306.782,29.945a3.026,3.026,0,1,1,6.051,0v.84a12.344,12.344,0,0,0-6.051,0Zm3.026,39.487a6.364,6.364,0,0,1-5.684-3.5h11.367a6.363,6.363,0,0,1-5.684,3.5ZM327.592,63.1H292.024a.447.447,0,0,1-.27-.8A22.849,22.849,0,0,0,300.3,44.428V42.75a9.51,9.51,0,0,1,19.021,0v1.678a22.85,22.85,0,0,0,8.544,17.867.446.446,0,0,1-.27.8Z" transform="translate(-234.255 -24.089)" fill="#03a9f4"/>
            <path id="Path_14798" data-name="Path 14798" d="M84.087,112.265a1.415,1.415,0,0,0-1.415,1.415v12.112a8.5,8.5,0,0,1-8.494,8.494H31.256a4.609,4.609,0,0,0-3.186,1.271L12.753,150.1l2.256-12.526a2.791,2.791,0,0,0-2.747-3.286h-.938a8.5,8.5,0,0,1-8.494-8.494V87.111a8.5,8.5,0,0,1,8.494-8.494H60.538a1.415,1.415,0,1,0,0-2.831H11.325A11.338,11.338,0,0,0,0,87.111v38.682a11.338,11.338,0,0,0,11.325,11.325h.89l-2.433,13.51a2.487,2.487,0,0,0,4.16,2.245l16.077-15.261a1.789,1.789,0,0,1,1.237-.494H74.178A11.338,11.338,0,0,0,85.5,125.792V113.68a1.416,1.416,0,0,0-1.415-1.415Z" transform="translate(0 -66.03)" fill="#03a9f4"/>
          </g>
        </g>
      </g>
    </g>
  </g>
</svg>
