<svg xmlns="http://www.w3.org/2000/svg" xmlns:xlink="http://www.w3.org/1999/xlink" width="323.885" height="283" viewBox="0 0 323.885 283">
  <defs>
    <linearGradient id="linear-gradient" x1="0.5" x2="0.5" y2="1" gradientUnits="objectBoundingBox">
      <stop offset="0" stop-color="#2386dc"/>
      <stop offset="1" stop-color="#44b5ff"/>
    </linearGradient>
  </defs>
  <g id="Group_7197" data-name="Group 7197" transform="translate(-921.115 -256)">
    <circle id="Ellipse_1090" data-name="Ellipse 1090" cx="99.5" cy="99.5" r="99.5" transform="translate(1046 316)" fill="#eff5ff" opacity="0.72"/>
    <g id="Group_7137" data-name="Group 7137" transform="translate(921.115 256)">
      <g id="Group_7136" data-name="Group 7136" transform="translate(45.739 0)">
        <path id="Path_11531" data-name="Path 11531" d="M630.653,110.783c2.064-.994,4.129-1.969,6.212-2.963.879,3.574,1.758,7.129,2.657,10.7-3.077.765-6.155,1.529-9.194,2.294-.229-1.223-.669-3.651-.9-4.855.9-.44,2.7-1.281,3.594-1.7C632.431,113.382,631.246,111.662,630.653,110.783Z" transform="translate(-498.939 -107.82)" fill="#d9e9ff"/>
        <path id="Path_11532" data-name="Path 11532" d="M630.549,114.735c-3.976-.153-2.446-7.282,1.223-5.18.593.879,1.778,2.6,2.37,3.479C633.244,113.454,631.447,114.3,630.549,114.735Z" transform="translate(-500.058 -106.592)" fill="#92c1ff"/>
        <path id="Path_11533" data-name="Path 11533" d="M635.119,114.248c2.676-.631,3.612.363,2.771,3C635.176,117.879,634.259,116.885,635.119,114.248Z" transform="translate(-494.039 -102.129)" fill="#a0c9ff"/>
        <path id="Path_11536" data-name="Path 11536" d="M583.7,166.657c20.395-6.652,40.827-13.189,61.2-19.917,6.135,4.052,12.271,8.162,18.674,11.851,2.332-2.045,4.721-4.071,7.187-5.964-2.045,2.408-4.186,4.74-6.346,7.053,6.766,4.186,13.4,8.62,20.07,12.978q19.668-12.9,39.336-25.88c27.964,9.232,56.214,17.719,84.006,27.524-12.176,9.863-26.052,17.336-39.011,26.052-.784-.65-2.351-1.911-3.135-2.542,11.678-7.244,23.07-14.966,34.749-22.249-22.707-7.474-45.51-14.584-68.16-22.191-3.5-.917-7.569-3.058-10.838-.4-10.99,6.9-21.656,14.335-32.532,21.408,24.81,8.047,49.773,15.578,74.449,24.045a41.008,41.008,0,0,1-9.519,1.013c-22.306-7.856-44.975-14.6-67.453-21.866-.077,15.482-.038,30.965-.019,46.447-1.261.038-2.5.038-3.727-.019-.076-15.482.019-30.964-.076-46.466-22.631,7.359-45.4,14.24-67.931,21.847-2.905.325-5.792.554-8.678.726.688-.765,2.064-2.313,2.752-3.1,13.743-4.453,27.734-8.162,41.171-13.552,10.283-2.389,20.261-5.906,30.315-9.156-6.709-4.3-13.38-8.659-20.051-13.017q-3.5,2.838-7.034,5.639c1.854-2.255,3.727-4.473,5.619-6.69-4.645-2.963-9.041-6.461-14.144-8.6-3.918.1-7.607,1.682-11.3,2.81-21.522,7.206-43.178,14.049-64.758,21.121,11.889,7.588,23.758,15.176,35.456,23.032a39.873,39.873,0,0,0-3.8,1.988c-12.921-8.62-26.186-16.725-38.954-25.555C568.2,170.976,576.11,169.18,583.7,166.657Z" transform="translate(-561.105 -72.349)" fill="url(#linear-gradient)"/>
        <path id="Path_11537" data-name="Path 11537" d="M638.014,171.343c.631-.516,1.911-1.567,2.561-2.083,7.416,1.338,14.947,3.383,21.446,7.321,1.147,3.077-.573,7.4-4.281,7.244a78.039,78.039,0,0,1-17.451-5.314,4.613,4.613,0,0,1-2.274-7.168m1.892,1.548c5.046,5.218,12.844,5.906,19.592,7.321C654.089,175.51,646.691,174.306,639.906,172.892Z" transform="translate(-491.945 -51.824)" fill="#2491ff"/>
        <path id="Path_11566" data-name="Path 11566" d="M638.38,118.087c2.37-.917,4.606,2.905,3.441,4.874C639.431,123.859,637.175,120.036,638.38,118.087Z" transform="translate(-491.088 -98.59)" fill="#97c4ff"/>
        <path id="Path_11572" data-name="Path 11572" d="M641.319,123.252c3.1-1.185,5.677,6.059,2.351,6.9A5.155,5.155,0,0,1,641.319,123.252Z" transform="translate(-488.618 -93.874)" fill="#a6ccff"/>
        <path id="Path_11573" data-name="Path 11573" d="M642.877,129.245c3.689-1.835,5.1,6.537,1.586,7.282C641.73,135.534,641.29,131.386,642.877,129.245Z" transform="translate(-487.519 -88.532)" fill="#aed1ff"/>
        <path id="Path_11574" data-name="Path 11574" d="M643.307,135.556c4.262-2.332,3.8,6.537.287,6.957C640.593,141.73,641.606,137.2,643.307,135.556Z" transform="translate(-487.778 -82.897)" fill="#aed1ff"/>
        <path id="Path_11576" data-name="Path 11576" d="M616.992,133.679a5.826,5.826,0,0,1,6.136-.172C624.293,138.285,611.009,138.247,616.992,133.679Z" transform="translate(-511.694 -85.13)" fill="#afd2ff"/>
        <path id="Path_11583" data-name="Path 11583" d="M604.033,174.626c1.185-.4,3.555-1.185,4.721-1.586-.688.784-2.064,2.332-2.753,3.1,2.886-.172,5.772-.4,8.678-.726-.879.344-2.6,1.013-3.46,1.357,23.7,8.066,47.613,15.616,71.467,23.262,1.223.057,2.466.057,3.727.019,23.759-7.588,47.536-15.253,71.2-23.2-.917-.344-2.791-1.032-3.727-1.376a41.012,41.012,0,0,0,9.519-1.013,22.142,22.142,0,0,0,2.332-.612c.783.631,2.351,1.892,3.135,2.542,12.52,9.423,26.377,16.954,39.088,26.167-13.017,6.48-27.448,9.4-41.057,14.355-.153,21.6.076,43.2-.115,64.8C741.4,290,715.964,298.045,690.6,306.34c-8.3,3.574-16.476-2.083-24.466-4.033q-32-10.293-64.013-20.528-.373-32.341,0-64.72c-13.513-5.027-27.5-8.6-40.961-13.743,12.08-10.169,26.224-17.547,39.069-26.7a39.893,39.893,0,0,1,3.8-1.988m84.961,28.766c10.857,6.881,21.5,14.106,32.322,21.064,2.848,2.561,6.556.937,9.729.038,23.032-7.7,46.2-14.985,69.288-22.554Q782.5,190.5,764.8,178.87c-25.307,8.066-50.518,16.362-75.806,24.523m-120.207-1.472c25.249,8.162,50.48,16.342,75.767,24.351,11.7-7.76,23.7-15,35.227-23.013q-37.76-12.1-75.423-24.447c-11.927,7.607-23.663,15.5-35.571,23.109m76.207,28.652c-13.074-4.109-26.11-8.353-39.126-12.577-.057,20.242.038,40.5-.057,60.744q38.362,12.5,76.781,24.7.057-48.511.038-97.041c-12.6,8.009-25.02,16.247-37.635,24.179m41.5-24.179q.029,48.54.019,97.06c25.479-8.085,50.824-16.534,76.36-24.428.248-20.28.019-40.56.134-60.84-13.093,4.167-26.129,8.525-39.241,12.6C711.357,222.621,698.914,214.536,686.49,206.394Z" transform="translate(-561.16 -48.379)" fill="url(#linear-gradient)"/>
        <path id="Path_11604" data-name="Path 11604" d="M622.082,134.986c2.332-.822,4.759,2.829,3.593,4.855C623.305,140.644,620.878,136.993,622.082,134.986Z" transform="translate(-505.927 -83.169)" fill="#96c4ff"/>
        <path id="Path_11606" data-name="Path 11606" d="M615.471,136.23c3.058,1.281,1.567,6.862-.9,8.2C611.552,143.187,612.565,137.262,615.471,136.23Z" transform="translate(-514.149 -81.927)" fill="#b0d2ff"/>
        <path id="Path_11607" data-name="Path 11607" d="M624.434,140.494c4.855-2.752,3.192,8.773-.994,6.594A5.449,5.449,0,0,1,624.434,140.494Z" transform="translate(-505.029 -78.431)" fill="#acd0ff"/>
        <path id="Path_11608" data-name="Path 11608" d="M642.888,141.26c3.115.726-.019,7.187-2.733,6.461C638.988,145.408,640.8,142.388,642.888,141.26Z" transform="translate(-489.498 -77.343)" fill="#9bc7ff"/>
        <path id="Path_11609" data-name="Path 11609" d="M614.342,143.161c2.389-.8,4.473,3.1,3.192,5.008C615.107,148.972,612.985,145.053,614.342,143.161Z" transform="translate(-513.078 -75.708)" fill="#8fc0ff"/>
        <path id="Path_11613" data-name="Path 11613" d="M590.81,184.7c22.535-7.607,45.3-14.488,67.931-21.847.1,15.5,0,30.984.076,46.466-23.854-7.646-47.766-15.2-71.467-23.262.86-.344,2.58-1.013,3.46-1.357m37.96-6.957c-1.472,2.561,1.892,6.881,4.74,5.906,1.166-2.542-2.007-6.613-4.74-5.906m7.99,7.818c-1.376,2.408,2.752,4.549,4.224,2.427C642.322,185.576,638.193,183.436,636.76,185.557Z" transform="translate(-537.291 -57.666)" fill="#c7dfff"/>
        <path id="Path_11614" data-name="Path 11614" d="M626.722,162.87c22.478,7.263,45.147,14.01,67.453,21.866.937.344,2.81,1.032,3.727,1.376-23.663,7.951-47.441,15.616-71.2,23.2-.019-15.482-.057-30.964.019-46.447m20.8,14.3a4.613,4.613,0,0,0,2.274,7.168,78.038,78.038,0,0,0,17.451,5.314c3.708.153,5.428-4.167,4.281-7.244-6.5-3.937-14.03-5.983-21.446-7.321C649.429,175.6,648.148,176.651,647.518,177.167Z" transform="translate(-501.45 -57.648)" fill="#c7dfff"/>
        <path id="Path_11632" data-name="Path 11632" d="M622.2,149.664c1.988-1.491,3.995-2.963,6.021-4.434-1.414,3.173-2.791,6.346-4.186,9.519-2.428-1.644-4.893-3.288-7.263-4.912C618.548,149.779,620.364,149.722,622.2,149.664Z" transform="translate(-510.478 -73.725)" fill="#93c2ff"/>
        <path id="Path_11633" data-name="Path 11633" d="M623.633,150.684c1.376-1.7,5.944-1.281,5.772,1.376C627.972,153.743,623.442,153.322,623.633,150.684Z" transform="translate(-504.229 -69.68)" fill="#93c2ff"/>
        <path id="Path_11634" data-name="Path 11634" d="M641,146.27c2.963,1.969-3.039,6.938-5.543,5.371C635.036,148.812,638.515,146.633,641,146.27Z" transform="translate(-493.479 -72.777)" fill="#abcfff"/>
        <path id="Path_11636" data-name="Path 11636" d="M638.57,171.16c6.785,1.414,14.182,2.619,19.592,7.321C651.414,177.066,643.616,176.378,638.57,171.16Z" transform="translate(-490.609 -50.093)" fill="#ecf4ff"/>
        <path id="Path_11639" data-name="Path 11639" d="M630.45,152.088c.44-2.638,1.778-3.116,4.014-1.4C633.986,153.33,632.629,153.789,630.45,152.088Z" transform="translate(-498.011 -69.669)" fill="#8bbeff"/>
        <path id="Path_11640" data-name="Path 11640" d="M609.7,158.31c3.307.822.765,8.085-2.332,6.919A5.153,5.153,0,0,1,609.7,158.31Z" transform="translate(-519.575 -61.804)" fill="#a6cdff"/>
        <path id="Path_11642" data-name="Path 11642" d="M609.191,170.679c2.733-.707,5.906,3.364,4.74,5.906C611.083,177.56,607.719,173.24,609.191,170.679Z" transform="translate(-517.711 -50.605)" fill="#94c3ff"/>
        <path id="Path_11643" data-name="Path 11643" d="M613.332,175.144c1.434-2.122,5.562.019,4.224,2.427C616.084,179.693,611.956,177.552,613.332,175.144Z" transform="translate(-513.863 -47.253)" fill="#97c5ff"/>
      </g>
      <path id="Path_11660" data-name="Path 11660" d="M360.786,110.423c5.6-.279,9.368,7.347,5.029,11.308-3.024,3.534-9.007,2.416-10.831-1.775C352.569,115.83,356.365,110.686,360.786,110.423Z" transform="translate(-281.386 -79.508)" fill="#fff"/>
      <path id="Path_11661" data-name="Path 11661" d="M457.4,253.607c4.947-1.529,10.4,4.355,7.906,9.089-1.693,4.158-7.626,5.72-10.782,2.235C450.445,261.644,452.6,254.823,457.4,253.607Z" transform="translate(-218.224 12.488)" fill="#fff"/>
      <path id="Path_11662" data-name="Path 11662" d="M359.226,108.65c7.15-2.548,15.17,4.4,13.56,11.867-1.085,7.988-12.146,11.505-17.652,5.621-5.72-5.079-3.139-15.367,4.092-17.488m2.991,3.254c-4.421.263-8.218,5.407-5.8,9.533,1.824,4.191,7.807,5.309,10.831,1.775C371.586,119.251,367.822,111.625,362.218,111.9Z" transform="translate(-282.817 -80.99)" fill="#44b5ff" opacity="0.41"/>
      <path id="Path_11663" data-name="Path 11663" d="M457.08,251.755c7.61-3.139,16.3,5.227,13.444,12.935-1.923,7.265-12.2,9.829-17.29,4.323-5.522-5.029-3.221-15.022,3.846-17.258m1.742,3.32c-4.8,1.216-6.952,8.037-2.876,11.324,3.156,3.484,9.089,1.923,10.782-2.235C469.226,259.431,463.769,253.547,458.822,255.075Z" transform="translate(-219.649 11.019)" fill="#44b5ff" opacity="0.41"/>
      <path id="Path_11664" data-name="Path 11664" d="M312.573,148.792c2.728-2.235,5.818.838,8.382,1.857-.46,2.416-.92,4.832-1.348,7.265-2.827-.148-6.574,1.676-8.432-1.331A5.084,5.084,0,0,1,312.573,148.792Z" transform="translate(-309.911 -55.323)" fill="#44b5ff" opacity="0.41"/>
      <path id="Path_11665" data-name="Path 11665" d="M487.062,219.363c5.753-3.994,10.831,6.048,4.52,8.4-5.177,2.827-9.73-5.72-4.52-8.4m1.775,1.627c-3.123.756-1.676,5.851,1.381,4.865C493.34,225.1,491.878,219.955,488.837,220.991Z" transform="translate(-197.382 -9.989)" fill="#44b5ff" opacity="0.41"/>
      <path id="Path_11666" data-name="Path 11666" d="M487.923,220.044c3.041-1.035,4.5,4.109,1.381,4.865C486.247,225.895,484.8,220.8,487.923,220.044Z" transform="translate(-196.468 -9.042)" fill="#eff6ff"/>
    </g>
  </g>
</svg>
