<svg xmlns="http://www.w3.org/2000/svg" xmlns:xlink="http://www.w3.org/1999/xlink" width="374" height="301" viewBox="0 0 374 301">
  <defs>
    <filter id="Rectangle_4321" x="157" y="0" width="217" height="260" filterUnits="userSpaceOnUse">
      <feOffset dy="3" input="SourceAlpha"/>
      <feGaussianBlur stdDeviation="3" result="blur"/>
      <feFlood flood-opacity="0.161"/>
      <feComposite operator="in" in2="blur"/>
      <feComposite in="SourceGraphic"/>
    </filter>
    <filter id="Rectangle_4321-2" x="0" y="69" width="230" height="232" filterUnits="userSpaceOnUse">
      <feOffset dy="3" input="SourceAlpha"/>
      <feGaussianBlur stdDeviation="3" result="blur-2"/>
      <feFlood flood-opacity="0.161"/>
      <feComposite operator="in" in2="blur-2"/>
      <feComposite in="SourceGraphic"/>
    </filter>
  </defs>
  <g id="Group_7135" data-name="Group 7135" transform="translate(-1339 -342)">
    <g id="Group_3956" data-name="Group 3956" transform="translate(1317.999 348)">
      <g id="Group_3952" data-name="Group 3952" transform="translate(187.037 0)">
        <g transform="matrix(1, 0, 0, 1, -166.04, -6)" filter="url(#Rectangle_4321)">
          <rect id="Rectangle_4321-3" data-name="Rectangle 4321" width="199" height="242" rx="9" transform="translate(166 6)" fill="#fff"/>
        </g>
        <g id="ecfaf997462ea6abb59feb637a3119cf" transform="translate(0.132 0.827)">
          <g id="Group_3152" data-name="Group 3152" transform="translate(0 0.015)">
            <g id="Group_3151" data-name="Group 3151" transform="translate(0)">
              <path id="Path_6153" data-name="Path 6153" d="M57,44.539c0-.9,1.516-1.539,3.114-1.539l190.554.1c1.6,0,5.593,5.006,5.593,5.911l.066,147.139c0,.9-.737,1.539-2.336,1.539H60.111a5.627,5.627,0,0,1-2.336-.77c-.542-.307-.779-.335-.779-.77Z" transform="translate(-56.996 -43)" fill="#f8f7ff"/>
            </g>
            <path id="Path_6155" data-name="Path 6155" d="M152.477,142.425H71.668c-1.946,0-3.848,1.133-3.848,3.078a4.1,4.1,0,0,0,3.848,3.848h80.809a4.1,4.1,0,0,0,3.848-3.848C156.325,143.558,154.423,142.425,152.477,142.425Z" transform="translate(-48.581 32.276)" fill="#e0ddef"/>
            <path id="Path_6156" data-name="Path 6156" d="M129.389,157.1H77.056c-4.864,0-9.235,3.6-9.235,8.466a9.556,9.556,0,0,0,9.235,9.235h52.333a9.556,9.556,0,0,0,9.235-9.235C138.624,160.7,134.253,157.1,129.389,157.1Z" transform="translate(-48.581 43.772)" fill="#2386dc"/>
          </g>
          <path id="Path_6157" data-name="Path 6157" d="M122.949,43l74.159-.015a8.439,8.439,0,0,1,5.04,2.258,5.909,5.909,0,0,1,1.7,3.373l-.09,149.075H122.949Z" transform="translate(-4.43 -42.98)" fill="#03a9f4" opacity="0.08"/>
        </g>
        <path id="Path_6158" data-name="Path 6158" d="M129.892,71.856a2.9,2.9,0,0,1-.851-2.054V57.946a2.9,2.9,0,0,1,2.9-2.9H143.8a2.909,2.909,0,0,1,2.053.85L160.514,70.55a2.9,2.9,0,0,1,0,4.106L148.655,86.512a2.9,2.9,0,0,1-4.106,0L129.892,71.855Zm8.232-7.732a2.142,2.142,0,1,0-3.029,0,2.142,2.142,0,0,0,3.029,0Z" transform="translate(-122.849 -48.382)" fill="#2386dc" fill-rule="evenodd"/>
      </g>
      <g id="Group_3953" data-name="Group 3953" transform="translate(30 68.168)">
        <g transform="matrix(1, 0, 0, 1, -9, -74.17)" filter="url(#Rectangle_4321-2)">
          <rect id="Rectangle_4321-4" data-name="Rectangle 4321" width="212" height="214" rx="9" transform="translate(9 75)" fill="#fff"/>
        </g>
        <g id="ecfaf997462ea6abb59feb637a3119cf-2" data-name="ecfaf997462ea6abb59feb637a3119cf" transform="translate(0.33 0)">
          <g id="Group_3152-2" data-name="Group 3152" transform="translate(0)">
            <g id="Group_3151-2" data-name="Group 3151" transform="translate(0)">
              <path id="Path_6153-2" data-name="Path 6153" d="M57,44.229C57,43.507,58.6,43,60.295,43l203.109.048,4.911,4.666L268.108,165.3c0,.723-.781,1.229-2.474,1.229H60.295a7.366,7.366,0,0,1-2.474-.615c-.575-.245-.825-.268-.825-.615Z" transform="translate(-56.996 -43)" fill="#f8f7ff" opacity="0.36"/>
            </g>
            <path id="Path_6155-2" data-name="Path 6155" d="M135.425,142.425H70.893c-1.554,0-3.073.9-3.073,2.458a3.277,3.277,0,0,0,3.073,3.073h64.532a3.277,3.277,0,0,0,3.073-3.073C138.5,143.329,136.979,142.425,135.425,142.425Z" transform="translate(-52.456 -2.913)" fill="#d2d5d9"/>
            <path id="Path_6156-2" data-name="Path 6156" d="M116.988,157.1H75.2c-3.884,0-7.375,2.876-7.375,6.76a7.631,7.631,0,0,0,7.375,7.375h41.792a7.631,7.631,0,0,0,7.375-7.375C124.363,159.972,120.872,157.1,116.988,157.1Z" transform="translate(-52.456 3.313)" fill="#2386dc"/>
          </g>
          <path id="Path_6157-2" data-name="Path 6157" d="M122.949,43l60.388.042c1.554,0,4.407,3.143,4.407,4.7l-.263,118.794H122.949Z" transform="translate(23.63 -43)" fill="#e5f1ff" opacity="0.56"/>
        </g>
      </g>
    </g>
    <g id="Group_3964" data-name="Group 3964" transform="translate(1585.82 383.565)">
      <g id="_9bc4f0ff" data-name="#9bc4f0ff" transform="translate(6.384 13.804)">
        <path id="Path_6254" data-name="Path 6254" d="M443.443,329.69c5.226.354,10.475-.126,15.693.37,2.235,5.753,4.887,11.325,7.1,17.086-10.168.024-20.336.094-30.5-.047C438.233,341.267,440.956,335.53,443.443,329.69Z" transform="translate(-434.612 -329.69)" fill="#9bc4f0"/>
        <path id="Path_6255" data-name="Path 6255" d="M463.334,329.8l4.045.567c2.322,5.517,4.848,10.931,7.374,16.354-3.046.535-5.037,2.991-6.949,5.194-1.1,1.039-.818,2.668-.929,4.037.031,16.424.079,32.849-.008,49.273-10.853.024-21.713-.236-32.558.126q.165-26.939.016-53.877c10.719.063,21.445-.063,32.164.071,2.235.079,3.368-2.345,4.927-3.589C468.269,342.116,466.01,335.86,463.334,329.8Z" transform="translate(-434.31 -329.713)" fill="#9bc4f0"/>
      </g>
      <g id="_4691d2ff" data-name="#4691d2ff" transform="translate(0 0)">
        <path id="Path_6260" data-name="Path 6260" d="M436.084,313.6c.386-1.543,2.078-1.354,3.313-1.424q13.009.012,26.034-.024c1.369.181,3.589-.362,3.927,1.527.732,4.242-.889,8.861,1.2,12.844,2.6,5.58,5.045,11.238,7.626,16.826.992,2.007.756,4.3.787,6.461-.087,17.857.016,35.721-.039,53.57.228,1.9-1.739,2.589-3.274,2.416-12.6-.047-25.207-.024-37.815-.032-3.817-.039-7.665.268-11.435-.472-.425-8.932-.063-17.888-.189-26.836v-.921c-.008-10.018.016-20.029-.016-30.047a9.346,9.346,0,0,1,.913-4.454c2.668-5.761,5.21-11.577,7.854-17.345,1.9-3.77.464-8.09,1.11-12.088m4.2,2.928c.008,1.723.016,3.439.031,5.163.5.016,1.5.039,2.007.055,4.446-.031,8.9.11,13.347-.157-.008-1.621-.016-3.25-.008-4.872-4.415-.331-8.838-.157-13.261-.22l-2.117.032m19.643.024q.024,2.55.071,5.108c.976.031,1.96.071,2.951.11.559-.094,1.684-.291,2.243-.393-.016-1.542-.024-3.085-.031-4.62l-2.086-.315c-1.055.031-2.1.071-3.148.11m-20.336,9.908c-2.975,5.477-5.171,11.372-7.846,17.015.488-.031,1.464-.079,1.952-.11,10.168.142,20.336.071,30.5.047-2.211-5.761-4.864-11.333-7.1-17.086-5.218-.5-10.467-.016-15.693-.37-.456.126-1.369.378-1.818.5m22.012-.417c2.676,6.06,4.935,12.316,8.082,18.156-1.558,1.243-2.691,3.667-4.927,3.589-10.719-.134-21.445-.008-32.164-.071-.519.047-1.558.15-2.078.2.149,17.715-.126,35.446.134,53.153.48.134,1.448.393,1.928.527,10.845-.362,21.705-.1,32.558-.126.087-16.425.039-32.849.008-49.274.11-1.369-.173-3,.929-4.037,1.912-2.2,3.9-4.659,6.949-5.194-2.526-5.422-5.052-10.837-7.374-16.354l-4.045-.567m7.76,21.705c.331,17.92-.055,35.847.173,53.767,1.055.016,2.117.039,3.187.055.472-.047,1.432-.157,1.912-.2.047-.5.142-1.519.189-2.023-.472-17.227-.016-34.478-.252-51.721Q471.967,347.632,469.366,347.746Z" transform="translate(-426.198 -312.15)" fill="#4691d2"/>
      </g>
      <g id="_9cc4efff" data-name="#9cc4efff" transform="translate(16.127 4.344)">
        <path id="Path_6264" data-name="Path 6264" d="M446.769,317.67c4.423.063,8.846-.11,13.261.22-.008,1.621,0,3.25.008,4.872-4.446.268-8.9.126-13.347.157Q446.725,320.287,446.769,317.67Z" transform="translate(-446.69 -317.67)" fill="#9cc4ef"/>
      </g>
      <g id="_9ec4ebff" data-name="#9ec4ebff" transform="translate(33.732 4.289)">
        <path id="Path_6265" data-name="Path 6265" d="M469.06,317.71c1.047-.039,2.093-.079,3.148-.11q-.071,2.656-.126,5.328c-.992-.039-1.975-.079-2.951-.11Q469.084,320.256,469.06,317.71Z" transform="translate(-469.06 -317.6)" fill="#9ec4eb"/>
      </g>
      <g id="_76b0ebff" data-name="#76b0ebff" transform="translate(36.754 4.289)">
        <path id="Path_6266" data-name="Path 6266" d="M473.026,317.6l2.086.315c.008,1.535.016,3.077.031,4.62-.559.1-1.684.3-2.243.393Q472.959,320.26,473.026,317.6Z" transform="translate(-472.9 -317.6)" fill="#76b0eb"/>
      </g>
      <g id="_f7fefbff" data-name="#f7fefbff" transform="translate(5.55 13.804)">
        <path id="Path_6269" data-name="Path 6269" d="M441.1,330.194c.449-.126,1.361-.378,1.818-.5-2.487,5.839-5.21,11.577-7.712,17.408-.488.031-1.464.079-1.952.11C435.926,341.566,438.122,335.671,441.1,330.194Z" transform="translate(-433.25 -329.69)" fill="#f7fefb"/>
      </g>
      <g id="_f2fcfdff" data-name="#f2fcfdff" transform="translate(4.322 35.564)">
        <path id="Path_6278" data-name="Path 6278" d="M431.69,357.537c.519-.047,1.558-.15,2.078-.2q.106,26.939-.016,53.877c-.48-.134-1.448-.393-1.928-.527C431.564,392.983,431.84,375.252,431.69,357.537Z" transform="translate(-431.69 -357.34)" fill="#f2fcfd"/>
      </g>
      <g id="_73afeeff" data-name="#73afeeff" transform="translate(43.168 35.47)">
        <path id="Path_6279" data-name="Path 6279" d="M481.05,357.346q2.6-.118,5.21-.126c.236,17.243-.22,34.494.252,51.721-.047.5-.142,1.519-.189,2.023-.48.047-1.44.157-1.912.2-.693-17.707-.063-35.438-.378-53.153C483.033,357.787,482.034,357.566,481.05,357.346Z" transform="translate(-481.05 -357.22)" fill="#73afee"/>
      </g>
      <g id="_9dc4eaff" data-name="#9dc4eaff" transform="translate(43.168 35.596)">
        <path id="Path_6280" data-name="Path 6280" d="M481.05,357.38c.984.22,1.983.441,2.983.669.315,17.715-.315,35.446.378,53.153-1.07-.016-2.133-.039-3.187-.055C480.995,393.227,481.381,375.3,481.05,357.38Z" transform="translate(-481.05 -357.38)" fill="#9dc4ea"/>
      </g>
    </g>
    <g id="Group_3970" data-name="Group 3970" transform="translate(1426.748 432.894)">
      <g id="Group_3968" data-name="Group 3968" transform="translate(0 0)">
        <g id="Group_3965" data-name="Group 3965" transform="translate(0 0)">
          <g id="_4692cfff" data-name="#4692cfff" transform="translate(18.884 0)">
            <path id="Path_6216" data-name="Path 6216" d="M182.391,215.587c7.173-2.541,15.724,2.5,17.03,9.975a52.823,52.823,0,0,1,.153,11c-.045,2.316-4.478,2.424-4.623.081-.73-4.65,1.126-10.281-2.451-14.075a8.272,8.272,0,0,0-12.489.378c-3.406,3.947-1.234,9.47-2.181,14.111-.8,1.55-2.947,1.586-4.244.649-.937-3.271-.441-6.758-.423-10.11C173.191,222.156,177.264,217.173,182.391,215.587Z" transform="translate(-173.017 -214.921)" fill="#4692cf"/>
          </g>
          <g id="_4491d3ff" data-name="#4491d3ff" transform="translate(0 14.851)">
            <path id="Path_6218" data-name="Path 6218" d="M153.538,231.7c5-.595,10.074-.081,15.1-.225-.009,3.64-.784,7.7,1.874,10.66-1.478-1.559-2.027-3.676-2.658-5.668-2.847-.09-5.686-.162-8.524-.045-.559.036-1.658.117-2.208.153-.324,19.337-.018,38.674-.153,58.012.586.009,1.766.036,2.352.045,17.274.216,34.565.3,51.839-.036.369-17.265-.46-34.556.5-51.812,0-.577-.009-1.748-.009-2.334,1.054.541,2.118,1.081,3.172,1.631a25.485,25.485,0,0,1-3.01-6.154c1.379.982,3.55,1.5,4.046,3.352.73,3.514.369,7.137.406,10.7-.036,13.823-.1,27.654.072,41.477a69.218,69.218,0,0,1-.721,8.3c-16.093-.3-32.2-.054-48.289-.135-4.983-.108-10.02.415-14.949-.5-.207-2.271-.324-4.541-.324-6.821.036-18.9,0-37.818.018-56.723C152.312,234.257,151.691,232,153.538,231.7Z" transform="translate(-152.06 -231.403)" fill="#4491d3"/>
          </g>
          <g id="_4591cfff" data-name="#4591cfff" transform="translate(26.33 14.903)">
            <path id="Path_6219" data-name="Path 6219" d="M181.28,231.469q5.961-.014,11.93-.009c.072,3.631-.91,7.8,1.928,10.678-1.649-1.5-2.109-3.712-2.685-5.758q-5.542-.081-11.1.117C181.307,234.821,181.289,233.145,181.28,231.469Z" transform="translate(-181.28 -231.46)" fill="#4591cf"/>
          </g>
          <g id="_9bc4eeff" data-name="#9bc4eeff" transform="translate(7.263 14.393)">
            <path id="Path_6220" data-name="Path 6220" d="M200.588,231.089c5.28.234,10.777-.946,15.9.694-5.064.2-10.128.126-15.192.207.072,1.406.144,2.82.207,4.244,2.838.117,5.677.27,8.524.288-.153,1.225-.306,2.451-.469,3.685q-2.46.8-4.92,1.631a21.029,21.029,0,0,0,1.766,3.992,29.278,29.278,0,0,0,3.956,1.946c-.559,8.8-.027,17.643-.216,26.465-.036,6.551-.351,13.138.7,19.644-16.877,1.027-33.836-.378-50.722.694.108-19.4.036-38.81.009-58.21,2.838-.117,5.677-.045,8.524.045.631,1.991,1.18,4.109,2.658,5.668,2.451.667,5.352.442,7.028-1.7a29.711,29.711,0,0,0,.919-3.938q5.555-.2,11.1-.117c.577,2.045,1.036,4.262,2.685,5.758,2.55.676,5.875.36,7.227-2.226.586-2.874.2-5.848.315-8.767m-.757,17c-.73,2.568,1.82,4.992,4.334,4.587,1.649-.7,2.523-2.4,3.658-3.685-1.973.73-3.884,2.289-6.091,1.856-.144-.766-.424-2.307-.559-3.073.541.568,1.622,1.712,2.163,2.28.207-1.442.351-2.883.424-4.325-1.262.676-3.712.5-3.929,2.361m-9.245,4.289a52.791,52.791,0,0,0,5.47,6.145c-.766.856-1.316,2.208-2.649,2.244-2.172-.577-1.253-3.316-1.7-4.965-.712,1.189-1.73,2.46-1.054,3.929.964,2.685,5.334,2.9,6.317.117C197.046,256.166,193.379,254.012,190.586,252.381Z" transform="translate(-160.12 -230.895)" fill="#9bc4ee"/>
          </g>
          <g id="_468fd1ff" data-name="#468fd1ff" transform="translate(48.433 15.281)">
            <path id="Path_6225" data-name="Path 6225" d="M205.81,232.087c5.064-.081,10.128-.009,15.192-.207a42.052,42.052,0,0,1-6.461,4.74c-2.847-.018-5.686-.171-8.524-.288C205.954,234.908,205.882,233.493,205.81,232.087Z" transform="translate(-205.81 -231.88)" fill="#468fd1"/>
          </g>
          <g id="_85add6ff" data-name="#85add6ff" transform="translate(56.696 14.867)">
            <path id="Path_6226" data-name="Path 6226" d="M221.909,231.834l.5-.414c.973,4.641.514,9.389.577,14.084.036,16.805,0,33.6.018,50.4a6.936,6.936,0,0,1-1.153,3.857,69.213,69.213,0,0,0,.721-8.3c-.171-13.823-.108-27.654-.072-41.477-.036-3.568.324-7.191-.406-10.7-.5-1.856-2.667-2.37-4.046-3.352a25.485,25.485,0,0,0,3.01,6.154c-1.054-.55-2.118-1.09-3.172-1.631,0,.586.009,1.757.009,2.334l-.73-.351c-.748-.712-1.469-1.433-2.181-2.172.162-1.234.315-2.46.469-3.685a42.05,42.05,0,0,0,6.461-4.74m-1.126,2.316c-.919.811.333,2.6,1.379,1.838C223.081,235.178,221.819,233.384,220.783,234.15Z" transform="translate(-214.98 -231.42)" fill="#4491d3"/>
          </g>
          <g id="_5b94c3ff" data-name="#5b94c3ff" transform="translate(62.179 17.411)">
            <path id="Path_6232" data-name="Path 6232" d="M221.385,234.43c1.036-.766,2.3,1.027,1.379,1.838C221.718,237.025,220.466,235.241,221.385,234.43Z" transform="translate(-221.065 -234.243)" fill="#5b94c3"/>
          </g>
          <g id="_f2fffeff" data-name="#f2fffeff" transform="translate(4.909 19.868)">
            <path id="Path_6233" data-name="Path 6233" d="M157.663,237.123c.55-.036,1.649-.117,2.208-.153.027,19.4.1,38.81-.009,58.21-.586-.009-1.766-.036-2.352-.045C157.645,275.8,157.339,256.46,157.663,237.123Z" transform="translate(-157.508 -236.97)" fill="#f2fffe"/>
          </g>
          <g id="_afd2f7ff" data-name="#afd2f7ff" transform="translate(51.776 23.706)">
            <path id="Path_6237" data-name="Path 6237" d="M209.52,242.861q2.46-.838,4.92-1.631c.712.739,1.433,1.46,2.181,2.172-1.793-.054-3.884-.4-5.172,1.171a21.719,21.719,0,0,0,4.082,2.262c-.072.5-.216,1.469-.288,1.964a29.273,29.273,0,0,1-3.956-1.946A21.027,21.027,0,0,1,209.52,242.861Z" transform="translate(-209.52 -241.23)" fill="#9bc4ee"/>
          </g>
          <g id="_8bb4deff" data-name="#8bb4deff" transform="translate(7.263 25.809)">
            <path id="Path_6238" data-name="Path 6238" d="M206.562,244.8c1.289-1.568,3.379-1.225,5.172-1.171l.73.351c-.964,17.256-.135,34.547-.5,51.812-17.274.333-34.565.252-51.839.036,16.886-1.072,33.845.333,50.722-.694-1.054-6.506-.739-13.093-.7-19.644.189-8.822-.342-17.661.216-26.465.072-.5.216-1.469.288-1.964A21.719,21.719,0,0,1,206.562,244.8Z" transform="translate(-160.12 -243.564)" fill="#9bc4ee"/>
          </g>
          <g id="_b3d4f5ff" data-name="#b3d4f5ff" transform="translate(46.847 29.23)">
            <path id="Path_6239" data-name="Path 6239" d="M204.176,249.721c.216-1.865,2.667-1.685,3.929-2.361-.072,1.442-.216,2.883-.423,4.325-.541-.568-1.622-1.712-2.163-2.28.135.766.415,2.307.559,3.073,2.208.433,4.118-1.126,6.091-1.856-1.135,1.289-2.009,2.983-3.658,3.685C206,254.713,203.446,252.289,204.176,249.721Z" transform="translate(-204.049 -247.36)" fill="#9bc4ee"/>
          </g>
          <g id="_b3d7f9ff" data-name="#b3d7f9ff" transform="translate(37.57 35.88)">
            <path id="Path_6241" data-name="Path 6241" d="M193.913,254.74c2.793,1.631,6.461,3.785,6.38,7.47-.982,2.784-5.352,2.568-6.317-.117-.676-1.469.342-2.739,1.054-3.929.451,1.649-.469,4.388,1.7,4.965,1.334-.036,1.883-1.388,2.649-2.244A52.788,52.788,0,0,1,193.913,254.74Z" transform="translate(-193.754 -254.74)" fill="#9bc4ee"/>
          </g>
        </g>
        <g id="Group_3966" data-name="Group 3966" transform="translate(0 0)">
          <g id="_4692cfff-2" data-name="#4692cfff" transform="translate(18.884 0)">
            <path id="Path_6216-2" data-name="Path 6216" d="M182.391,215.587c7.173-2.541,15.724,2.5,17.03,9.975a52.823,52.823,0,0,1,.153,11c-.045,2.316-4.478,2.424-4.623.081-.73-4.65,1.126-10.281-2.451-14.075a8.272,8.272,0,0,0-12.489.378c-3.406,3.947-1.234,9.47-2.181,14.111-.8,1.55-2.947,1.586-4.244.649-.937-3.271-.441-6.758-.423-10.11C173.191,222.156,177.264,217.173,182.391,215.587Z" transform="translate(-173.017 -214.921)" fill="#4692cf"/>
          </g>
          <g id="_4491d3ff-2" data-name="#4491d3ff" transform="translate(0 14.851)">
            <path id="Path_6218-2" data-name="Path 6218" d="M153.538,231.7c5-.595,10.074-.081,15.1-.225-.009,3.64-.784,7.7,1.874,10.66-1.478-1.559-2.027-3.676-2.658-5.668-2.847-.09-5.686-.162-8.524-.045-.559.036-1.658.117-2.208.153-.324,19.337-.018,38.674-.153,58.012.586.009,1.766.036,2.352.045,17.274.216,34.565.3,51.839-.036.369-17.265-.46-34.556.5-51.812,0-.577-.009-1.748-.009-2.334,1.054.541,2.118,1.081,3.172,1.631a25.485,25.485,0,0,1-3.01-6.154c1.379.982,3.55,1.5,4.046,3.352.73,3.514.369,7.137.406,10.7-.036,13.823-.1,27.654.072,41.477a69.218,69.218,0,0,1-.721,8.3c-16.093-.3-32.2-.054-48.289-.135-4.983-.108-10.02.415-14.949-.5-.207-2.271-.324-4.541-.324-6.821.036-18.9,0-37.818.018-56.723C152.312,234.257,151.691,232,153.538,231.7Z" transform="translate(-152.06 -231.403)" fill="#4491d3"/>
          </g>
          <g id="_4591cfff-2" data-name="#4591cfff" transform="translate(26.33 14.903)">
            <path id="Path_6219-2" data-name="Path 6219" d="M181.28,231.469q5.961-.014,11.93-.009c.072,3.631-.91,7.8,1.928,10.678-1.649-1.5-2.109-3.712-2.685-5.758q-5.542-.081-11.1.117C181.307,234.821,181.289,233.145,181.28,231.469Z" transform="translate(-181.28 -231.46)" fill="#4591cf"/>
          </g>
          <g id="_9bc4eeff-2" data-name="#9bc4eeff" transform="translate(7.263 14.393)">
            <path id="Path_6220-2" data-name="Path 6220" d="M200.588,231.089c5.28.234,10.777-.946,15.9.694-5.064.2-10.128.126-15.192.207.072,1.406.144,2.82.207,4.244,2.838.117,5.677.27,8.524.288-.153,1.225-.306,2.451-.469,3.685q-2.46.8-4.92,1.631a21.029,21.029,0,0,0,1.766,3.992,29.278,29.278,0,0,0,3.956,1.946c-.559,8.8-.027,17.643-.216,26.465-.036,6.551-.351,13.138.7,19.644-16.877,1.027-33.836-.378-50.722.694.108-19.4.036-38.81.009-58.21,2.838-.117,5.677-.045,8.524.045.631,1.991,1.18,4.109,2.658,5.668,2.451.667,5.352.442,7.028-1.7a29.711,29.711,0,0,0,.919-3.938q5.555-.2,11.1-.117c.577,2.045,1.036,4.262,2.685,5.758,2.55.676,5.875.36,7.227-2.226.586-2.874.2-5.848.315-8.767m-.757,17c-.73,2.568,1.82,4.992,4.334,4.587,1.649-.7,2.523-2.4,3.658-3.685-1.973.73-3.884,2.289-6.091,1.856-.144-.766-.424-2.307-.559-3.073.541.568,1.622,1.712,2.163,2.28.207-1.442.351-2.883.424-4.325-1.262.676-3.712.5-3.929,2.361m-9.245,4.289a52.791,52.791,0,0,0,5.47,6.145c-.766.856-1.316,2.208-2.649,2.244-2.172-.577-1.253-3.316-1.7-4.965-.712,1.189-1.73,2.46-1.054,3.929.964,2.685,5.334,2.9,6.317.117C197.046,256.166,193.379,254.012,190.586,252.381Z" transform="translate(-160.12 -230.895)" fill="#9bc4ee"/>
          </g>
          <g id="_468fd1ff-2" data-name="#468fd1ff" transform="translate(48.433 15.281)">
            <path id="Path_6225-2" data-name="Path 6225" d="M205.81,232.087c5.064-.081,10.128-.009,15.192-.207a42.052,42.052,0,0,1-6.461,4.74c-2.847-.018-5.686-.171-8.524-.288C205.954,234.908,205.882,233.493,205.81,232.087Z" transform="translate(-205.81 -231.88)" fill="#468fd1"/>
          </g>
          <g id="_85add6ff-2" data-name="#85add6ff" transform="translate(56.696 14.867)">
            <path id="Path_6226-2" data-name="Path 6226" d="M221.909,231.834l.5-.414c.973,4.641.514,9.389.577,14.084.036,16.805,0,33.6.018,50.4a6.936,6.936,0,0,1-1.153,3.857,69.213,69.213,0,0,0,.721-8.3c-.171-13.823-.108-27.654-.072-41.477-.036-3.568.324-7.191-.406-10.7-.5-1.856-2.667-2.37-4.046-3.352a25.485,25.485,0,0,0,3.01,6.154c-1.054-.55-2.118-1.09-3.172-1.631,0,.586.009,1.757.009,2.334l-.73-.351c-.748-.712-1.469-1.433-2.181-2.172.162-1.234.315-2.46.469-3.685a42.05,42.05,0,0,0,6.461-4.74m-1.126,2.316c-.919.811.333,2.6,1.379,1.838C223.081,235.178,221.819,233.384,220.783,234.15Z" transform="translate(-214.98 -231.42)" fill="#4491d3"/>
          </g>
          <g id="_5b94c3ff-2" data-name="#5b94c3ff" transform="translate(62.179 17.411)">
            <path id="Path_6232-2" data-name="Path 6232" d="M221.385,234.43c1.036-.766,2.3,1.027,1.379,1.838C221.718,237.025,220.466,235.241,221.385,234.43Z" transform="translate(-221.065 -234.243)" fill="#5b94c3"/>
          </g>
          <g id="_f2fffeff-2" data-name="#f2fffeff" transform="translate(4.909 19.868)">
            <path id="Path_6233-2" data-name="Path 6233" d="M157.663,237.123c.55-.036,1.649-.117,2.208-.153.027,19.4.1,38.81-.009,58.21-.586-.009-1.766-.036-2.352-.045C157.645,275.8,157.339,256.46,157.663,237.123Z" transform="translate(-157.508 -236.97)" fill="#f2fffe"/>
          </g>
          <g id="_afd2f7ff-2" data-name="#afd2f7ff" transform="translate(51.776 23.706)">
            <path id="Path_6237-2" data-name="Path 6237" d="M209.52,242.861q2.46-.838,4.92-1.631c.712.739,1.433,1.46,2.181,2.172-1.793-.054-3.884-.4-5.172,1.171a21.719,21.719,0,0,0,4.082,2.262c-.072.5-.216,1.469-.288,1.964a29.273,29.273,0,0,1-3.956-1.946A21.027,21.027,0,0,1,209.52,242.861Z" transform="translate(-209.52 -241.23)" fill="#9bc4ee"/>
          </g>
          <g id="_8bb4deff-2" data-name="#8bb4deff" transform="translate(7.263 25.809)">
            <path id="Path_6238-2" data-name="Path 6238" d="M206.562,244.8c1.289-1.568,3.379-1.225,5.172-1.171l.73.351c-.964,17.256-.135,34.547-.5,51.812-17.274.333-34.565.252-51.839.036,16.886-1.072,33.845.333,50.722-.694-1.054-6.506-.739-13.093-.7-19.644.189-8.822-.342-17.661.216-26.465.072-.5.216-1.469.288-1.964A21.719,21.719,0,0,1,206.562,244.8Z" transform="translate(-160.12 -243.564)" fill="#9bc4ee"/>
          </g>
          <g id="_b3d4f5ff-2" data-name="#b3d4f5ff" transform="translate(46.847 29.23)">
            <path id="Path_6239-2" data-name="Path 6239" d="M204.176,249.721c.216-1.865,2.667-1.685,3.929-2.361-.072,1.442-.216,2.883-.423,4.325-.541-.568-1.622-1.712-2.163-2.28.135.766.415,2.307.559,3.073,2.208.433,4.118-1.126,6.091-1.856-1.135,1.289-2.009,2.983-3.658,3.685C206,254.713,203.446,252.289,204.176,249.721Z" transform="translate(-204.049 -247.36)" fill="#9bc4ee"/>
          </g>
          <g id="_b3d7f9ff-2" data-name="#b3d7f9ff" transform="translate(37.57 35.88)">
            <path id="Path_6241-2" data-name="Path 6241" d="M193.913,254.74c2.793,1.631,6.461,3.785,6.38,7.47-.982,2.784-5.352,2.568-6.317-.117-.676-1.469.342-2.739,1.054-3.929.451,1.649-.469,4.388,1.7,4.965,1.334-.036,1.883-1.388,2.649-2.244A52.788,52.788,0,0,1,193.913,254.74Z" transform="translate(-193.754 -254.74)" fill="#9bc4ee"/>
          </g>
        </g>
        <g id="Group_3967" data-name="Group 3967" transform="translate(0 0)">
          <g id="_4692cfff-3" data-name="#4692cfff" transform="translate(18.884 0)">
            <path id="Path_6216-3" data-name="Path 6216" d="M182.391,215.587c7.173-2.541,15.724,2.5,17.03,9.975a52.823,52.823,0,0,1,.153,11c-.045,2.316-4.478,2.424-4.623.081-.73-4.65,1.126-10.281-2.451-14.075a8.272,8.272,0,0,0-12.489.378c-3.406,3.947-1.234,9.47-2.181,14.111-.8,1.55-2.947,1.586-4.244.649-.937-3.271-.441-6.758-.423-10.11C173.191,222.156,177.264,217.173,182.391,215.587Z" transform="translate(-173.017 -214.921)" fill="#4692cf"/>
          </g>
          <g id="_4491d3ff-3" data-name="#4491d3ff" transform="translate(0 14.851)">
            <path id="Path_6218-3" data-name="Path 6218" d="M153.538,231.7c5-.595,10.074-.081,15.1-.225-.009,3.64-.784,7.7,1.874,10.66-1.478-1.559-2.027-3.676-2.658-5.668-2.847-.09-5.686-.162-8.524-.045-.559.036-1.658.117-2.208.153-.324,19.337-.018,38.674-.153,58.012.586.009,1.766.036,2.352.045,17.274.216,34.565.3,51.839-.036.369-17.265-.46-34.556.5-51.812,0-.577-.009-1.748-.009-2.334,1.054.541,2.118,1.081,3.172,1.631a25.485,25.485,0,0,1-3.01-6.154c1.379.982,3.55,1.5,4.046,3.352.73,3.514.369,7.137.406,10.7-.036,13.823-.1,27.654.072,41.477a69.218,69.218,0,0,1-.721,8.3c-16.093-.3-32.2-.054-48.289-.135-4.983-.108-10.02.415-14.949-.5-.207-2.271-.324-4.541-.324-6.821.036-18.9,0-37.818.018-56.723C152.312,234.257,151.691,232,153.538,231.7Z" transform="translate(-152.06 -231.403)" fill="#4491d3"/>
          </g>
          <g id="_4591cfff-3" data-name="#4591cfff" transform="translate(26.33 14.903)">
            <path id="Path_6219-3" data-name="Path 6219" d="M181.28,231.469q5.961-.014,11.93-.009c.072,3.631-.91,7.8,1.928,10.678-1.649-1.5-2.109-3.712-2.685-5.758q-5.542-.081-11.1.117C181.307,234.821,181.289,233.145,181.28,231.469Z" transform="translate(-181.28 -231.46)" fill="#4591cf"/>
          </g>
          <g id="_9bc4eeff-3" data-name="#9bc4eeff" transform="translate(7.263 14.393)">
            <path id="Path_6220-3" data-name="Path 6220" d="M200.588,231.089c5.28.234,10.777-.946,15.9.694-5.064.2-10.128.126-15.192.207.072,1.406.144,2.82.207,4.244,2.838.117,5.677.27,8.524.288-.153,1.225-.306,2.451-.469,3.685q-2.46.8-4.92,1.631a21.029,21.029,0,0,0,1.766,3.992,29.278,29.278,0,0,0,3.956,1.946c-.559,8.8-.027,17.643-.216,26.465-.036,6.551-.351,13.138.7,19.644-16.877,1.027-33.836-.378-50.722.694.108-19.4.036-38.81.009-58.21,2.838-.117,5.677-.045,8.524.045.631,1.991,1.18,4.109,2.658,5.668,2.451.667,5.352.442,7.028-1.7a29.711,29.711,0,0,0,.919-3.938q5.555-.2,11.1-.117c.577,2.045,1.036,4.262,2.685,5.758,2.55.676,5.875.36,7.227-2.226.586-2.874.2-5.848.315-8.767m-.757,17c-.73,2.568,1.82,4.992,4.334,4.587,1.649-.7,2.523-2.4,3.658-3.685-1.973.73-3.884,2.289-6.091,1.856-.144-.766-.424-2.307-.559-3.073.541.568,1.622,1.712,2.163,2.28.207-1.442.351-2.883.424-4.325-1.262.676-3.712.5-3.929,2.361m-9.245,4.289a52.791,52.791,0,0,0,5.47,6.145c-.766.856-1.316,2.208-2.649,2.244-2.172-.577-1.253-3.316-1.7-4.965-.712,1.189-1.73,2.46-1.054,3.929.964,2.685,5.334,2.9,6.317.117C197.046,256.166,193.379,254.012,190.586,252.381Z" transform="translate(-160.12 -230.895)" fill="#9bc4ee"/>
          </g>
          <g id="_468fd1ff-3" data-name="#468fd1ff" transform="translate(48.433 15.281)">
            <path id="Path_6225-3" data-name="Path 6225" d="M205.81,232.087c5.064-.081,10.128-.009,15.192-.207a42.052,42.052,0,0,1-6.461,4.74c-2.847-.018-5.686-.171-8.524-.288C205.954,234.908,205.882,233.493,205.81,232.087Z" transform="translate(-205.81 -231.88)" fill="#468fd1"/>
          </g>
          <g id="_85add6ff-3" data-name="#85add6ff" transform="translate(56.696 14.867)">
            <path id="Path_6226-3" data-name="Path 6226" d="M221.909,231.834l.5-.414c.973,4.641.514,9.389.577,14.084.036,16.805,0,33.6.018,50.4a6.936,6.936,0,0,1-1.153,3.857,69.213,69.213,0,0,0,.721-8.3c-.171-13.823-.108-27.654-.072-41.477-.036-3.568.324-7.191-.406-10.7-.5-1.856-2.667-2.37-4.046-3.352a25.485,25.485,0,0,0,3.01,6.154c-1.054-.55-2.118-1.09-3.172-1.631,0,.586.009,1.757.009,2.334l-.73-.351c-.748-.712-1.469-1.433-2.181-2.172.162-1.234.315-2.46.469-3.685a42.05,42.05,0,0,0,6.461-4.74m-1.126,2.316c-.919.811.333,2.6,1.379,1.838C223.081,235.178,221.819,233.384,220.783,234.15Z" transform="translate(-214.98 -231.42)" fill="#4491d3"/>
          </g>
          <g id="_5b94c3ff-3" data-name="#5b94c3ff" transform="translate(62.179 17.411)">
            <path id="Path_6232-3" data-name="Path 6232" d="M221.385,234.43c1.036-.766,2.3,1.027,1.379,1.838C221.718,237.025,220.466,235.241,221.385,234.43Z" transform="translate(-221.065 -234.243)" fill="#5b94c3"/>
          </g>
          <g id="_f2fffeff-3" data-name="#f2fffeff" transform="translate(4.909 19.868)">
            <path id="Path_6233-3" data-name="Path 6233" d="M157.663,237.123c.55-.036,1.649-.117,2.208-.153.027,19.4.1,38.81-.009,58.21-.586-.009-1.766-.036-2.352-.045C157.645,275.8,157.339,256.46,157.663,237.123Z" transform="translate(-157.508 -236.97)" fill="#f2fffe"/>
          </g>
          <g id="_afd2f7ff-3" data-name="#afd2f7ff" transform="translate(51.776 23.706)">
            <path id="Path_6237-3" data-name="Path 6237" d="M209.52,242.861q2.46-.838,4.92-1.631c.712.739,1.433,1.46,2.181,2.172-1.793-.054-3.884-.4-5.172,1.171a21.719,21.719,0,0,0,4.082,2.262c-.072.5-.216,1.469-.288,1.964a29.273,29.273,0,0,1-3.956-1.946A21.027,21.027,0,0,1,209.52,242.861Z" transform="translate(-209.52 -241.23)" fill="#9bc4ee"/>
          </g>
          <g id="_8bb4deff-3" data-name="#8bb4deff" transform="translate(7.263 25.809)">
            <path id="Path_6238-3" data-name="Path 6238" d="M206.562,244.8c1.289-1.568,3.379-1.225,5.172-1.171l.73.351c-.964,17.256-.135,34.547-.5,51.812-17.274.333-34.565.252-51.839.036,16.886-1.072,33.845.333,50.722-.694-1.054-6.506-.739-13.093-.7-19.644.189-8.822-.342-17.661.216-26.465.072-.5.216-1.469.288-1.964A21.719,21.719,0,0,1,206.562,244.8Z" transform="translate(-160.12 -243.564)" fill="#9bc4ee"/>
          </g>
          <g id="_b3d4f5ff-3" data-name="#b3d4f5ff" transform="translate(46.847 29.23)">
            <path id="Path_6239-3" data-name="Path 6239" d="M204.176,249.721c.216-1.865,2.667-1.685,3.929-2.361-.072,1.442-.216,2.883-.423,4.325-.541-.568-1.622-1.712-2.163-2.28.135.766.415,2.307.559,3.073,2.208.433,4.118-1.126,6.091-1.856-1.135,1.289-2.009,2.983-3.658,3.685C206,254.713,203.446,252.289,204.176,249.721Z" transform="translate(-204.049 -247.36)" fill="#9bc4ee"/>
          </g>
          <g id="_b3d7f9ff-3" data-name="#b3d7f9ff" transform="translate(37.57 35.88)">
            <path id="Path_6241-3" data-name="Path 6241" d="M193.913,254.74c2.793,1.631,6.461,3.785,6.38,7.47-.982,2.784-5.352,2.568-6.317-.117-.676-1.469.342-2.739,1.054-3.929.451,1.649-.469,4.388,1.7,4.965,1.334-.036,1.883-1.388,2.649-2.244A52.788,52.788,0,0,1,193.913,254.74Z" transform="translate(-193.754 -254.74)" fill="#9bc4ee"/>
          </g>
        </g>
      </g>
      <g id="Group_3969" data-name="Group 3969" transform="translate(0 0)">
        <g id="Group_3965-2" data-name="Group 3965" transform="translate(0 0)">
          <g id="_4692cfff-4" data-name="#4692cfff" transform="translate(18.884 0)">
            <path id="Path_6216-4" data-name="Path 6216" d="M182.391,215.587c7.173-2.541,15.724,2.5,17.03,9.975a52.823,52.823,0,0,1,.153,11c-.045,2.316-4.478,2.424-4.623.081-.73-4.65,1.126-10.281-2.451-14.075a8.272,8.272,0,0,0-12.489.378c-3.406,3.947-1.234,9.47-2.181,14.111-.8,1.55-2.947,1.586-4.244.649-.937-3.271-.441-6.758-.423-10.11C173.191,222.156,177.264,217.173,182.391,215.587Z" transform="translate(-173.017 -214.921)" fill="#4692cf"/>
          </g>
          <g id="_4491d3ff-4" data-name="#4491d3ff" transform="translate(0 14.851)">
            <path id="Path_6218-4" data-name="Path 6218" d="M153.538,231.7c5-.595,10.074-.081,15.1-.225-.009,3.64-.784,7.7,1.874,10.66-1.478-1.559-2.027-3.676-2.658-5.668-2.847-.09-5.686-.162-8.524-.045-.559.036-1.658.117-2.208.153-.324,19.337-.018,38.674-.153,58.012.586.009,1.766.036,2.352.045,17.274.216,34.565.3,51.839-.036.369-17.265-.46-34.556.5-51.812,0-.577-.009-1.748-.009-2.334,1.054.541,2.118,1.081,3.172,1.631a25.485,25.485,0,0,1-3.01-6.154c1.379.982,3.55,1.5,4.046,3.352.73,3.514.369,7.137.406,10.7-.036,13.823-.1,27.654.072,41.477a69.218,69.218,0,0,1-.721,8.3c-16.093-.3-32.2-.054-48.289-.135-4.983-.108-10.02.415-14.949-.5-.207-2.271-.324-4.541-.324-6.821.036-18.9,0-37.818.018-56.723C152.312,234.257,151.691,232,153.538,231.7Z" transform="translate(-152.06 -231.403)" fill="#4491d3"/>
          </g>
          <g id="_4591cfff-4" data-name="#4591cfff" transform="translate(26.33 14.903)">
            <path id="Path_6219-4" data-name="Path 6219" d="M181.28,231.469q5.961-.014,11.93-.009c.072,3.631-.91,7.8,1.928,10.678-1.649-1.5-2.109-3.712-2.685-5.758q-5.542-.081-11.1.117C181.307,234.821,181.289,233.145,181.28,231.469Z" transform="translate(-181.28 -231.46)" fill="#4591cf"/>
          </g>
          <g id="_9bc4eeff-4" data-name="#9bc4eeff" transform="translate(7.263 14.393)">
            <path id="Path_6220-4" data-name="Path 6220" d="M200.588,231.089c5.28.234,10.777-.946,15.9.694-5.064.2-10.128.126-15.192.207.072,1.406.144,2.82.207,4.244,2.838.117,5.677.27,8.524.288-.153,1.225-.306,2.451-.469,3.685q-2.46.8-4.92,1.631a21.029,21.029,0,0,0,1.766,3.992,29.278,29.278,0,0,0,3.956,1.946c-.559,8.8-.027,17.643-.216,26.465-.036,6.551-.351,13.138.7,19.644-16.877,1.027-33.836-.378-50.722.694.108-19.4.036-38.81.009-58.21,2.838-.117,5.677-.045,8.524.045.631,1.991,1.18,4.109,2.658,5.668,2.451.667,5.352.442,7.028-1.7a29.711,29.711,0,0,0,.919-3.938q5.555-.2,11.1-.117c.577,2.045,1.036,4.262,2.685,5.758,2.55.676,5.875.36,7.227-2.226.586-2.874.2-5.848.315-8.767m-.757,17c-.73,2.568,1.82,4.992,4.334,4.587,1.649-.7,2.523-2.4,3.658-3.685-1.973.73-3.884,2.289-6.091,1.856-.144-.766-.424-2.307-.559-3.073.541.568,1.622,1.712,2.163,2.28.207-1.442.351-2.883.424-4.325-1.262.676-3.712.5-3.929,2.361m-9.245,4.289a52.791,52.791,0,0,0,5.47,6.145c-.766.856-1.316,2.208-2.649,2.244-2.172-.577-1.253-3.316-1.7-4.965-.712,1.189-1.73,2.46-1.054,3.929.964,2.685,5.334,2.9,6.317.117C197.046,256.166,193.379,254.012,190.586,252.381Z" transform="translate(-160.12 -230.895)" fill="#9bc4ee"/>
          </g>
          <g id="_468fd1ff-4" data-name="#468fd1ff" transform="translate(48.433 15.281)">
            <path id="Path_6225-4" data-name="Path 6225" d="M205.81,232.087c5.064-.081,10.128-.009,15.192-.207a42.052,42.052,0,0,1-6.461,4.74c-2.847-.018-5.686-.171-8.524-.288C205.954,234.908,205.882,233.493,205.81,232.087Z" transform="translate(-205.81 -231.88)" fill="#468fd1"/>
          </g>
          <g id="_85add6ff-4" data-name="#85add6ff" transform="translate(56.696 14.867)">
            <path id="Path_6226-4" data-name="Path 6226" d="M221.909,231.834l.5-.414c.973,4.641.514,9.389.577,14.084.036,16.805,0,33.6.018,50.4a6.936,6.936,0,0,1-1.153,3.857,69.213,69.213,0,0,0,.721-8.3c-.171-13.823-.108-27.654-.072-41.477-.036-3.568.324-7.191-.406-10.7-.5-1.856-2.667-2.37-4.046-3.352a25.485,25.485,0,0,0,3.01,6.154c-1.054-.55-2.118-1.09-3.172-1.631,0,.586.009,1.757.009,2.334l-.73-.351c-.748-.712-1.469-1.433-2.181-2.172.162-1.234.315-2.46.469-3.685a42.05,42.05,0,0,0,6.461-4.74m-1.126,2.316c-.919.811.333,2.6,1.379,1.838C223.081,235.178,221.819,233.384,220.783,234.15Z" transform="translate(-214.98 -231.42)" fill="#4491d3"/>
          </g>
          <g id="_5b94c3ff-4" data-name="#5b94c3ff" transform="translate(62.179 17.411)">
            <path id="Path_6232-4" data-name="Path 6232" d="M221.385,234.43c1.036-.766,2.3,1.027,1.379,1.838C221.718,237.025,220.466,235.241,221.385,234.43Z" transform="translate(-221.065 -234.243)" fill="#5b94c3"/>
          </g>
          <g id="_f2fffeff-4" data-name="#f2fffeff" transform="translate(4.909 19.868)">
            <path id="Path_6233-4" data-name="Path 6233" d="M157.663,237.123c.55-.036,1.649-.117,2.208-.153.027,19.4.1,38.81-.009,58.21-.586-.009-1.766-.036-2.352-.045C157.645,275.8,157.339,256.46,157.663,237.123Z" transform="translate(-157.508 -236.97)" fill="#f2fffe"/>
          </g>
          <g id="_afd2f7ff-4" data-name="#afd2f7ff" transform="translate(51.776 23.706)">
            <path id="Path_6237-4" data-name="Path 6237" d="M209.52,242.861q2.46-.838,4.92-1.631c.712.739,1.433,1.46,2.181,2.172-1.793-.054-3.884-.4-5.172,1.171a21.719,21.719,0,0,0,4.082,2.262c-.072.5-.216,1.469-.288,1.964a29.273,29.273,0,0,1-3.956-1.946A21.027,21.027,0,0,1,209.52,242.861Z" transform="translate(-209.52 -241.23)" fill="#9bc4ee"/>
          </g>
          <g id="_8bb4deff-4" data-name="#8bb4deff" transform="translate(7.263 25.809)">
            <path id="Path_6238-4" data-name="Path 6238" d="M206.562,244.8c1.289-1.568,3.379-1.225,5.172-1.171l.73.351c-.964,17.256-.135,34.547-.5,51.812-17.274.333-34.565.252-51.839.036,16.886-1.072,33.845.333,50.722-.694-1.054-6.506-.739-13.093-.7-19.644.189-8.822-.342-17.661.216-26.465.072-.5.216-1.469.288-1.964A21.719,21.719,0,0,1,206.562,244.8Z" transform="translate(-160.12 -243.564)" fill="#9bc4ee"/>
          </g>
          <g id="_b3d4f5ff-4" data-name="#b3d4f5ff" transform="translate(46.847 29.23)">
            <path id="Path_6239-4" data-name="Path 6239" d="M204.176,249.721c.216-1.865,2.667-1.685,3.929-2.361-.072,1.442-.216,2.883-.423,4.325-.541-.568-1.622-1.712-2.163-2.28.135.766.415,2.307.559,3.073,2.208.433,4.118-1.126,6.091-1.856-1.135,1.289-2.009,2.983-3.658,3.685C206,254.713,203.446,252.289,204.176,249.721Z" transform="translate(-204.049 -247.36)" fill="#9bc4ee"/>
          </g>
          <g id="_b3d7f9ff-4" data-name="#b3d7f9ff" transform="translate(37.57 35.88)">
            <path id="Path_6241-4" data-name="Path 6241" d="M193.913,254.74c2.793,1.631,6.461,3.785,6.38,7.47-.982,2.784-5.352,2.568-6.317-.117-.676-1.469.342-2.739,1.054-3.929.451,1.649-.469,4.388,1.7,4.965,1.334-.036,1.883-1.388,2.649-2.244A52.788,52.788,0,0,1,193.913,254.74Z" transform="translate(-193.754 -254.74)" fill="#9bc4ee"/>
          </g>
        </g>
        <g id="Group_3966-2" data-name="Group 3966" transform="translate(0 0)">
          <g id="_4692cfff-5" data-name="#4692cfff" transform="translate(18.884 0)">
            <path id="Path_6216-5" data-name="Path 6216" d="M182.391,215.587c7.173-2.541,15.724,2.5,17.03,9.975a52.823,52.823,0,0,1,.153,11c-.045,2.316-4.478,2.424-4.623.081-.73-4.65,1.126-10.281-2.451-14.075a8.272,8.272,0,0,0-12.489.378c-3.406,3.947-1.234,9.47-2.181,14.111-.8,1.55-2.947,1.586-4.244.649-.937-3.271-.441-6.758-.423-10.11C173.191,222.156,177.264,217.173,182.391,215.587Z" transform="translate(-173.017 -214.921)" fill="#4692cf"/>
          </g>
          <g id="_4491d3ff-5" data-name="#4491d3ff" transform="translate(0 14.851)">
            <path id="Path_6218-5" data-name="Path 6218" d="M153.538,231.7c5-.595,10.074-.081,15.1-.225-.009,3.64-.784,7.7,1.874,10.66-1.478-1.559-2.027-3.676-2.658-5.668-2.847-.09-5.686-.162-8.524-.045-.559.036-1.658.117-2.208.153-.324,19.337-.018,38.674-.153,58.012.586.009,1.766.036,2.352.045,17.274.216,34.565.3,51.839-.036.369-17.265-.46-34.556.5-51.812,0-.577-.009-1.748-.009-2.334,1.054.541,2.118,1.081,3.172,1.631a25.485,25.485,0,0,1-3.01-6.154c1.379.982,3.55,1.5,4.046,3.352.73,3.514.369,7.137.406,10.7-.036,13.823-.1,27.654.072,41.477a69.218,69.218,0,0,1-.721,8.3c-16.093-.3-32.2-.054-48.289-.135-4.983-.108-10.02.415-14.949-.5-.207-2.271-.324-4.541-.324-6.821.036-18.9,0-37.818.018-56.723C152.312,234.257,151.691,232,153.538,231.7Z" transform="translate(-152.06 -231.403)" fill="#4491d3"/>
          </g>
          <g id="_4591cfff-5" data-name="#4591cfff" transform="translate(26.33 14.903)">
            <path id="Path_6219-5" data-name="Path 6219" d="M181.28,231.469q5.961-.014,11.93-.009c.072,3.631-.91,7.8,1.928,10.678-1.649-1.5-2.109-3.712-2.685-5.758q-5.542-.081-11.1.117C181.307,234.821,181.289,233.145,181.28,231.469Z" transform="translate(-181.28 -231.46)" fill="#4591cf"/>
          </g>
          <g id="_9bc4eeff-5" data-name="#9bc4eeff" transform="translate(7.263 14.393)">
            <path id="Path_6220-5" data-name="Path 6220" d="M200.588,231.089c5.28.234,10.777-.946,15.9.694-5.064.2-10.128.126-15.192.207.072,1.406.144,2.82.207,4.244,2.838.117,5.677.27,8.524.288-.153,1.225-.306,2.451-.469,3.685q-2.46.8-4.92,1.631a21.029,21.029,0,0,0,1.766,3.992,29.278,29.278,0,0,0,3.956,1.946c-.559,8.8-.027,17.643-.216,26.465-.036,6.551-.351,13.138.7,19.644-16.877,1.027-33.836-.378-50.722.694.108-19.4.036-38.81.009-58.21,2.838-.117,5.677-.045,8.524.045.631,1.991,1.18,4.109,2.658,5.668,2.451.667,5.352.442,7.028-1.7a29.711,29.711,0,0,0,.919-3.938q5.555-.2,11.1-.117c.577,2.045,1.036,4.262,2.685,5.758,2.55.676,5.875.36,7.227-2.226.586-2.874.2-5.848.315-8.767m-.757,17c-.73,2.568,1.82,4.992,4.334,4.587,1.649-.7,2.523-2.4,3.658-3.685-1.973.73-3.884,2.289-6.091,1.856-.144-.766-.424-2.307-.559-3.073.541.568,1.622,1.712,2.163,2.28.207-1.442.351-2.883.424-4.325-1.262.676-3.712.5-3.929,2.361m-9.245,4.289a52.791,52.791,0,0,0,5.47,6.145c-.766.856-1.316,2.208-2.649,2.244-2.172-.577-1.253-3.316-1.7-4.965-.712,1.189-1.73,2.46-1.054,3.929.964,2.685,5.334,2.9,6.317.117C197.046,256.166,193.379,254.012,190.586,252.381Z" transform="translate(-160.12 -230.895)" fill="#9bc4ee"/>
          </g>
          <g id="_468fd1ff-5" data-name="#468fd1ff" transform="translate(48.433 15.281)">
            <path id="Path_6225-5" data-name="Path 6225" d="M205.81,232.087c5.064-.081,10.128-.009,15.192-.207a42.052,42.052,0,0,1-6.461,4.74c-2.847-.018-5.686-.171-8.524-.288C205.954,234.908,205.882,233.493,205.81,232.087Z" transform="translate(-205.81 -231.88)" fill="#468fd1"/>
          </g>
          <g id="_85add6ff-5" data-name="#85add6ff" transform="translate(56.696 14.867)">
            <path id="Path_6226-5" data-name="Path 6226" d="M221.909,231.834l.5-.414c.973,4.641.514,9.389.577,14.084.036,16.805,0,33.6.018,50.4a6.936,6.936,0,0,1-1.153,3.857,69.213,69.213,0,0,0,.721-8.3c-.171-13.823-.108-27.654-.072-41.477-.036-3.568.324-7.191-.406-10.7-.5-1.856-2.667-2.37-4.046-3.352a25.485,25.485,0,0,0,3.01,6.154c-1.054-.55-2.118-1.09-3.172-1.631,0,.586.009,1.757.009,2.334l-.73-.351c-.748-.712-1.469-1.433-2.181-2.172.162-1.234.315-2.46.469-3.685a42.05,42.05,0,0,0,6.461-4.74m-1.126,2.316c-.919.811.333,2.6,1.379,1.838C223.081,235.178,221.819,233.384,220.783,234.15Z" transform="translate(-214.98 -231.42)" fill="#4491d3"/>
          </g>
          <g id="_5b94c3ff-5" data-name="#5b94c3ff" transform="translate(62.179 17.411)">
            <path id="Path_6232-5" data-name="Path 6232" d="M221.385,234.43c1.036-.766,2.3,1.027,1.379,1.838C221.718,237.025,220.466,235.241,221.385,234.43Z" transform="translate(-221.065 -234.243)" fill="#5b94c3"/>
          </g>
          <g id="_f2fffeff-5" data-name="#f2fffeff" transform="translate(4.909 19.868)">
            <path id="Path_6233-5" data-name="Path 6233" d="M157.663,237.123c.55-.036,1.649-.117,2.208-.153.027,19.4.1,38.81-.009,58.21-.586-.009-1.766-.036-2.352-.045C157.645,275.8,157.339,256.46,157.663,237.123Z" transform="translate(-157.508 -236.97)" fill="#f2fffe"/>
          </g>
          <g id="_afd2f7ff-5" data-name="#afd2f7ff" transform="translate(51.776 23.706)">
            <path id="Path_6237-5" data-name="Path 6237" d="M209.52,242.861q2.46-.838,4.92-1.631c.712.739,1.433,1.46,2.181,2.172-1.793-.054-3.884-.4-5.172,1.171a21.719,21.719,0,0,0,4.082,2.262c-.072.5-.216,1.469-.288,1.964a29.273,29.273,0,0,1-3.956-1.946A21.027,21.027,0,0,1,209.52,242.861Z" transform="translate(-209.52 -241.23)" fill="#9bc4ee"/>
          </g>
          <g id="_8bb4deff-5" data-name="#8bb4deff" transform="translate(7.263 25.809)">
            <path id="Path_6238-5" data-name="Path 6238" d="M206.562,244.8c1.289-1.568,3.379-1.225,5.172-1.171l.73.351c-.964,17.256-.135,34.547-.5,51.812-17.274.333-34.565.252-51.839.036,16.886-1.072,33.845.333,50.722-.694-1.054-6.506-.739-13.093-.7-19.644.189-8.822-.342-17.661.216-26.465.072-.5.216-1.469.288-1.964A21.719,21.719,0,0,1,206.562,244.8Z" transform="translate(-160.12 -243.564)" fill="#9bc4ee"/>
          </g>
          <g id="_b3d4f5ff-5" data-name="#b3d4f5ff" transform="translate(46.847 29.23)">
            <path id="Path_6239-5" data-name="Path 6239" d="M204.176,249.721c.216-1.865,2.667-1.685,3.929-2.361-.072,1.442-.216,2.883-.423,4.325-.541-.568-1.622-1.712-2.163-2.28.135.766.415,2.307.559,3.073,2.208.433,4.118-1.126,6.091-1.856-1.135,1.289-2.009,2.983-3.658,3.685C206,254.713,203.446,252.289,204.176,249.721Z" transform="translate(-204.049 -247.36)" fill="#9bc4ee"/>
          </g>
          <g id="_b3d7f9ff-5" data-name="#b3d7f9ff" transform="translate(37.57 35.88)">
            <path id="Path_6241-5" data-name="Path 6241" d="M193.913,254.74c2.793,1.631,6.461,3.785,6.38,7.47-.982,2.784-5.352,2.568-6.317-.117-.676-1.469.342-2.739,1.054-3.929.451,1.649-.469,4.388,1.7,4.965,1.334-.036,1.883-1.388,2.649-2.244A52.788,52.788,0,0,1,193.913,254.74Z" transform="translate(-193.754 -254.74)" fill="#9bc4ee"/>
          </g>
        </g>
        <g id="Group_3967-2" data-name="Group 3967" transform="translate(0 0)">
          <g id="_4692cfff-6" data-name="#4692cfff" transform="translate(18.884 0)">
            <path id="Path_6216-6" data-name="Path 6216" d="M182.391,215.587c7.173-2.541,15.724,2.5,17.03,9.975a52.823,52.823,0,0,1,.153,11c-.045,2.316-4.478,2.424-4.623.081-.73-4.65,1.126-10.281-2.451-14.075a8.272,8.272,0,0,0-12.489.378c-3.406,3.947-1.234,9.47-2.181,14.111-.8,1.55-2.947,1.586-4.244.649-.937-3.271-.441-6.758-.423-10.11C173.191,222.156,177.264,217.173,182.391,215.587Z" transform="translate(-173.017 -214.921)" fill="#4692cf"/>
          </g>
          <g id="_4491d3ff-6" data-name="#4491d3ff" transform="translate(0 14.851)">
            <path id="Path_6218-6" data-name="Path 6218" d="M153.538,231.7c5-.595,10.074-.081,15.1-.225-.009,3.64-.784,7.7,1.874,10.66-1.478-1.559-2.027-3.676-2.658-5.668-2.847-.09-5.686-.162-8.524-.045-.559.036-1.658.117-2.208.153-.324,19.337-.018,38.674-.153,58.012.586.009,1.766.036,2.352.045,17.274.216,34.565.3,51.839-.036.369-17.265-.46-34.556.5-51.812,0-.577-.009-1.748-.009-2.334,1.054.541,2.118,1.081,3.172,1.631a25.485,25.485,0,0,1-3.01-6.154c1.379.982,3.55,1.5,4.046,3.352.73,3.514.369,7.137.406,10.7-.036,13.823-.1,27.654.072,41.477a69.218,69.218,0,0,1-.721,8.3c-16.093-.3-32.2-.054-48.289-.135-4.983-.108-10.02.415-14.949-.5-.207-2.271-.324-4.541-.324-6.821.036-18.9,0-37.818.018-56.723C152.312,234.257,151.691,232,153.538,231.7Z" transform="translate(-152.06 -231.403)" fill="#4491d3"/>
          </g>
          <g id="_4591cfff-6" data-name="#4591cfff" transform="translate(26.33 14.903)">
            <path id="Path_6219-6" data-name="Path 6219" d="M181.28,231.469q5.961-.014,11.93-.009c.072,3.631-.91,7.8,1.928,10.678-1.649-1.5-2.109-3.712-2.685-5.758q-5.542-.081-11.1.117C181.307,234.821,181.289,233.145,181.28,231.469Z" transform="translate(-181.28 -231.46)" fill="#4591cf"/>
          </g>
          <g id="_9bc4eeff-6" data-name="#9bc4eeff" transform="translate(7.263 14.393)">
            <path id="Path_6220-6" data-name="Path 6220" d="M200.588,231.089c5.28.234,10.777-.946,15.9.694-5.064.2-10.128.126-15.192.207.072,1.406.144,2.82.207,4.244,2.838.117,5.677.27,8.524.288-.153,1.225-.306,2.451-.469,3.685q-2.46.8-4.92,1.631a21.029,21.029,0,0,0,1.766,3.992,29.278,29.278,0,0,0,3.956,1.946c-.559,8.8-.027,17.643-.216,26.465-.036,6.551-.351,13.138.7,19.644-16.877,1.027-33.836-.378-50.722.694.108-19.4.036-38.81.009-58.21,2.838-.117,5.677-.045,8.524.045.631,1.991,1.18,4.109,2.658,5.668,2.451.667,5.352.442,7.028-1.7a29.711,29.711,0,0,0,.919-3.938q5.555-.2,11.1-.117c.577,2.045,1.036,4.262,2.685,5.758,2.55.676,5.875.36,7.227-2.226.586-2.874.2-5.848.315-8.767m-.757,17c-.73,2.568,1.82,4.992,4.334,4.587,1.649-.7,2.523-2.4,3.658-3.685-1.973.73-3.884,2.289-6.091,1.856-.144-.766-.424-2.307-.559-3.073.541.568,1.622,1.712,2.163,2.28.207-1.442.351-2.883.424-4.325-1.262.676-3.712.5-3.929,2.361m-9.245,4.289a52.791,52.791,0,0,0,5.47,6.145c-.766.856-1.316,2.208-2.649,2.244-2.172-.577-1.253-3.316-1.7-4.965-.712,1.189-1.73,2.46-1.054,3.929.964,2.685,5.334,2.9,6.317.117C197.046,256.166,193.379,254.012,190.586,252.381Z" transform="translate(-160.12 -230.895)" fill="#9bc4ee"/>
          </g>
          <g id="_468fd1ff-6" data-name="#468fd1ff" transform="translate(48.433 15.281)">
            <path id="Path_6225-6" data-name="Path 6225" d="M205.81,232.087c5.064-.081,10.128-.009,15.192-.207a42.052,42.052,0,0,1-6.461,4.74c-2.847-.018-5.686-.171-8.524-.288C205.954,234.908,205.882,233.493,205.81,232.087Z" transform="translate(-205.81 -231.88)" fill="#468fd1"/>
          </g>
          <g id="_85add6ff-6" data-name="#85add6ff" transform="translate(56.696 14.867)">
            <path id="Path_6226-6" data-name="Path 6226" d="M221.909,231.834l.5-.414c.973,4.641.514,9.389.577,14.084.036,16.805,0,33.6.018,50.4a6.936,6.936,0,0,1-1.153,3.857,69.213,69.213,0,0,0,.721-8.3c-.171-13.823-.108-27.654-.072-41.477-.036-3.568.324-7.191-.406-10.7-.5-1.856-2.667-2.37-4.046-3.352a25.485,25.485,0,0,0,3.01,6.154c-1.054-.55-2.118-1.09-3.172-1.631,0,.586.009,1.757.009,2.334l-.73-.351c-.748-.712-1.469-1.433-2.181-2.172.162-1.234.315-2.46.469-3.685a42.05,42.05,0,0,0,6.461-4.74m-1.126,2.316c-.919.811.333,2.6,1.379,1.838C223.081,235.178,221.819,233.384,220.783,234.15Z" transform="translate(-214.98 -231.42)" fill="#4491d3"/>
          </g>
          <g id="_5b94c3ff-6" data-name="#5b94c3ff" transform="translate(62.179 17.411)">
            <path id="Path_6232-6" data-name="Path 6232" d="M221.385,234.43c1.036-.766,2.3,1.027,1.379,1.838C221.718,237.025,220.466,235.241,221.385,234.43Z" transform="translate(-221.065 -234.243)" fill="#5b94c3"/>
          </g>
          <g id="_f2fffeff-6" data-name="#f2fffeff" transform="translate(4.909 19.868)">
            <path id="Path_6233-6" data-name="Path 6233" d="M157.663,237.123c.55-.036,1.649-.117,2.208-.153.027,19.4.1,38.81-.009,58.21-.586-.009-1.766-.036-2.352-.045C157.645,275.8,157.339,256.46,157.663,237.123Z" transform="translate(-157.508 -236.97)" fill="#f2fffe"/>
          </g>
          <g id="_afd2f7ff-6" data-name="#afd2f7ff" transform="translate(51.776 23.706)">
            <path id="Path_6237-6" data-name="Path 6237" d="M209.52,242.861q2.46-.838,4.92-1.631c.712.739,1.433,1.46,2.181,2.172-1.793-.054-3.884-.4-5.172,1.171a21.719,21.719,0,0,0,4.082,2.262c-.072.5-.216,1.469-.288,1.964a29.273,29.273,0,0,1-3.956-1.946A21.027,21.027,0,0,1,209.52,242.861Z" transform="translate(-209.52 -241.23)" fill="#9bc4ee"/>
          </g>
          <g id="_8bb4deff-6" data-name="#8bb4deff" transform="translate(7.263 25.809)">
            <path id="Path_6238-6" data-name="Path 6238" d="M206.562,244.8c1.289-1.568,3.379-1.225,5.172-1.171l.73.351c-.964,17.256-.135,34.547-.5,51.812-17.274.333-34.565.252-51.839.036,16.886-1.072,33.845.333,50.722-.694-1.054-6.506-.739-13.093-.7-19.644.189-8.822-.342-17.661.216-26.465.072-.5.216-1.469.288-1.964A21.719,21.719,0,0,1,206.562,244.8Z" transform="translate(-160.12 -243.564)" fill="#9bc4ee"/>
          </g>
          <g id="_b3d4f5ff-6" data-name="#b3d4f5ff" transform="translate(46.847 29.23)">
            <path id="Path_6239-6" data-name="Path 6239" d="M204.176,249.721c.216-1.865,2.667-1.685,3.929-2.361-.072,1.442-.216,2.883-.423,4.325-.541-.568-1.622-1.712-2.163-2.28.135.766.415,2.307.559,3.073,2.208.433,4.118-1.126,6.091-1.856-1.135,1.289-2.009,2.983-3.658,3.685C206,254.713,203.446,252.289,204.176,249.721Z" transform="translate(-204.049 -247.36)" fill="#9bc4ee"/>
          </g>
          <g id="_b3d7f9ff-6" data-name="#b3d7f9ff" transform="translate(37.57 35.88)">
            <path id="Path_6241-6" data-name="Path 6241" d="M193.913,254.74c2.793,1.631,6.461,3.785,6.38,7.47-.982,2.784-5.352,2.568-6.317-.117-.676-1.469.342-2.739,1.054-3.929.451,1.649-.469,4.388,1.7,4.965,1.334-.036,1.883-1.388,2.649-2.244A52.788,52.788,0,0,1,193.913,254.74Z" transform="translate(-193.754 -254.74)" fill="#9bc4ee"/>
          </g>
        </g>
      </g>
    </g>
  </g>
</svg>
