<svg xmlns="http://www.w3.org/2000/svg" xmlns:xlink="http://www.w3.org/1999/xlink" width="322.289" height="292.127" viewBox="0 0 322.289 292.127">
  <defs>
    <linearGradient id="linear-gradient" x1="0.5" x2="0.5" y2="1" gradientUnits="objectBoundingBox">
      <stop offset="0" stop-color="#2386dc"/>
      <stop offset="1" stop-color="#44b5ff"/>
    </linearGradient>
  </defs>
  <g id="Group_7203" data-name="Group 7203" transform="translate(-922.711 -246.874)">
    <g id="Group_7198" data-name="Group 7198">
      <circle id="Ellipse_1090" data-name="Ellipse 1090" cx="99.5" cy="99.5" r="99.5" transform="translate(1046 316)" fill="#eff5ff" opacity="0.72"/>
      <g id="Group_7138" data-name="Group 7138" transform="translate(875.758 276.337)">
        <g id="Group_7136" data-name="Group 7136" transform="translate(46.953 48.521)">
          <path id="Path_11536" data-name="Path 11536" d="M584.294,167.185c20.936-6.828,41.91-13.538,62.826-20.445,6.3,4.16,12.6,8.378,19.17,12.165,2.394-2.1,4.846-4.179,7.378-6.122-2.1,2.472-4.3,4.866-6.514,7.24,6.946,4.3,13.754,8.849,20.6,13.323q20.19-13.244,40.38-26.567c28.706,9.477,57.705,18.189,86.234,28.254-12.5,10.124-26.743,17.8-40.046,26.743-.8-.667-2.413-1.962-3.218-2.61,11.988-7.436,23.682-15.363,35.671-22.839-23.31-7.672-46.718-14.971-69.968-22.78-3.591-.942-7.77-3.139-11.125-.412-11.282,7.083-22.23,14.716-33.395,21.975,25.468,8.26,51.093,15.991,76.424,24.683a42.1,42.1,0,0,1-9.771,1.04c-22.9-8.064-46.168-14.99-69.242-22.446-.079,15.893-.039,31.786-.02,47.679-1.295.039-2.57.039-3.826-.02-.078-15.893.02-31.786-.078-47.7-23.231,7.554-46.6,14.618-69.733,22.427-2.982.334-5.945.569-8.908.746.706-.785,2.119-2.374,2.825-3.179,14.107-4.572,28.47-8.378,42.263-13.911,10.556-2.453,20.8-6.063,31.119-9.4-6.887-4.415-13.735-8.888-20.582-13.362q-3.591,2.914-7.221,5.788c1.9-2.315,3.826-4.591,5.769-6.867-4.768-3.041-9.281-6.632-14.519-8.829-4.022.1-7.809,1.727-11.6,2.884-22.093,7.4-44.324,14.421-66.476,21.681,12.2,7.789,24.389,15.579,36.4,23.643a40.952,40.952,0,0,0-3.9,2.041c-13.264-8.849-26.881-17.168-39.987-26.233C568.382,171.619,576.5,169.775,584.294,167.185Z" transform="translate(-561.103 -146.74)" fill="url(#linear-gradient)"/>
          <path id="Path_11537" data-name="Path 11537" d="M638.038,171.4c.647-.53,1.962-1.609,2.629-2.139,7.613,1.373,15.344,3.473,22.015,7.515,1.177,3.159-.589,7.593-4.4,7.436a80.11,80.11,0,0,1-17.914-5.455,4.736,4.736,0,0,1-2.335-7.358m1.942,1.589c5.18,5.357,13.185,6.063,20.112,7.515C654.539,175.676,646.946,174.44,639.98,172.988Z" transform="translate(-488.095 -125.074)" fill="#2491ff"/>
          <path id="Path_11583" data-name="Path 11583" d="M605.17,174.669c1.216-.412,3.649-1.216,4.846-1.629-.706.8-2.119,2.394-2.826,3.179,2.963-.177,5.926-.412,8.908-.746-.9.353-2.668,1.04-3.551,1.393,24.33,8.28,48.876,16.03,73.363,23.879,1.256.059,2.531.059,3.826.02,24.389-7.79,48.8-15.657,73.088-23.82-.942-.353-2.865-1.06-3.826-1.413a42.1,42.1,0,0,0,9.771-1.04,22.74,22.74,0,0,0,2.394-.628c.8.647,2.413,1.942,3.218,2.61,12.852,9.673,27.077,17.4,40.125,26.861-13.362,6.651-28.176,9.654-42.146,14.735-.157,22.172.078,44.343-.118,66.515-26.057,8.516-52.172,16.776-78.209,25.291-8.516,3.669-16.913-2.139-25.115-4.14q-32.845-10.566-65.711-21.073-.383-33.2,0-66.436c-13.872-5.16-28.234-8.829-42.048-14.107,12.4-10.438,26.92-18.012,40.105-27.41a40.959,40.959,0,0,1,3.9-2.041m87.215,29.53c11.145,7.064,22.073,14.48,33.179,21.622,2.923,2.629,6.73.961,9.987.039,23.643-7.907,47.424-15.383,71.126-23.153q-18.306-11.743-36.475-23.683c-25.978,8.28-51.858,16.8-77.817,25.174m-123.4-1.511c25.919,8.378,51.819,16.776,77.777,25,12.008-7.966,24.33-15.4,36.161-23.624q-38.761-12.42-77.424-25.1c-12.243,7.809-24.291,15.913-36.514,23.722M647.217,232.1c-13.421-4.219-26.8-8.574-40.164-12.911-.059,20.779.039,41.577-.059,62.355q39.379,12.832,78.817,25.35.059-49.8.039-99.615c-12.93,8.221-25.684,16.678-38.634,24.82m42.6-24.82q.029,49.827.02,99.635c26.155-8.3,52.172-16.972,78.386-25.076.255-20.818.02-41.636.137-62.453-13.44,4.277-26.822,8.751-40.282,12.93C715.341,223.937,702.568,215.637,689.815,207.279Z" transform="translate(-561.16 -121.437)" fill="url(#linear-gradient)"/>
          <path id="Path_11613" data-name="Path 11613" d="M590.9,185.277c23.133-7.809,46.5-14.873,69.733-22.427.1,15.913,0,31.806.078,47.7-24.487-7.848-49.033-15.6-73.363-23.879.883-.353,2.649-1.04,3.551-1.393m38.967-7.142c-1.511,2.629,1.942,7.064,4.866,6.063,1.2-2.61-2.06-6.789-4.866-6.063m8.2,8.025c-1.413,2.472,2.825,4.67,4.336,2.492C643.78,186.179,639.542,183.982,638.07,186.16Z" transform="translate(-535.963 -131.241)" fill="#c7dfff"/>
          <path id="Path_11614" data-name="Path 11614" d="M626.723,162.87c23.074,7.456,46.345,14.382,69.242,22.446.961.353,2.884,1.06,3.826,1.413-24.291,8.162-48.7,16.03-73.088,23.82-.02-15.893-.059-31.786.02-47.679m21.348,14.676a4.736,4.736,0,0,0,2.335,7.358,80.11,80.11,0,0,0,17.914,5.455c3.807.157,5.572-4.277,4.4-7.436-6.671-4.042-14.4-6.141-22.015-7.515C650.033,175.938,648.718,177.017,648.071,177.546Z" transform="translate(-498.128 -131.222)" fill="#c7dfff"/>
          <path id="Path_11636" data-name="Path 11636" d="M638.57,171.16c6.965,1.452,14.559,2.688,20.111,7.515C651.755,177.223,643.75,176.517,638.57,171.16Z" transform="translate(-486.684 -123.246)" fill="#ecf4ff"/>
        </g>
        <path id="Path_11660" data-name="Path 11660" d="M360.96,110.423c5.753-.287,9.617,7.542,5.163,11.608-3.1,3.627-9.246,2.48-11.118-1.822C352.524,115.974,356.422,110.693,360.96,110.423Z" transform="translate(-279.453 -106.532)" fill="#fff"/>
        <path id="Path_11661" data-name="Path 11661" d="M457.531,253.613c5.078-1.569,10.68,4.471,8.115,9.33-1.738,4.268-7.828,5.871-11.068,2.294C450.394,261.863,452.6,254.862,457.531,253.613Z" transform="translate(-212.012 -8.303)" fill="#fff"/>
        <path id="Path_11662" data-name="Path 11662" d="M359.418,108.664c7.339-2.615,15.573,4.522,13.919,12.181-1.114,8.2-12.468,11.81-18.12,5.77-5.871-5.213-3.223-15.775,4.2-17.952M362.488,112c-4.539.27-8.436,5.551-5.956,9.786,1.873,4.3,8.014,5.45,11.118,1.822C372.105,119.547,368.242,111.718,362.488,112Z" transform="translate(-280.981 -108.114)" fill="#44b5ff" opacity="0.41"/>
        <path id="Path_11663" data-name="Path 11663" d="M457.263,251.773c7.812-3.223,16.737,5.365,13.8,13.278-1.974,7.457-12.519,10.089-17.749,4.437-5.669-5.163-3.307-15.421,3.948-17.715m1.788,3.408c-4.927,1.249-7.137,8.25-2.953,11.625,3.239,3.577,9.33,1.974,11.068-2.295C469.732,259.652,464.13,253.612,459.052,255.181Z" transform="translate(-213.533 -9.872)" fill="#44b5ff" opacity="0.41"/>
        <path id="Path_11665" data-name="Path 11665" d="M487.123,219.388c5.905-4.1,11.119,6.209,4.64,8.621-5.315,2.9-9.988-5.871-4.64-8.621m1.822,1.67c-3.206.776-1.721,6.006,1.417,4.994C493.568,225.276,492.066,220,488.945,221.058Z" transform="translate(-189.758 -32.303)" fill="#44b5ff" opacity="0.41"/>
        <path id="Path_11666" data-name="Path 11666" d="M487.969,220.047c3.121-1.063,4.623,4.218,1.417,4.994C486.248,226.054,484.764,220.823,487.969,220.047Z" transform="translate(-188.782 -31.292)" fill="#eff6ff"/>
      </g>
      <g id="return" transform="translate(1112.045 270.634) rotate(124)">
        <path id="Path_11667" data-name="Path 11667" d="M3.273,0A3.275,3.275,0,0,1,6.547,3.273a32.637,32.637,0,0,0,32.53,32.669,32.2,32.2,0,0,0,21.086-7.789h-3a3.273,3.273,0,1,1,0-6.547H67.906a3.275,3.275,0,0,1,3.273,3.273V35.669a3.273,3.273,0,0,1-6.547,0V32.941a38.676,38.676,0,0,1-25.556,9.549A39.191,39.191,0,0,1,0,3.273,3.275,3.275,0,0,1,3.273,0Z" transform="translate(0 0)" fill="#44b5ff"/>
      </g>
    </g>
  </g>
</svg>
