<svg xmlns="http://www.w3.org/2000/svg" width="44.705" height="39.285" viewBox="0 0 44.705 39.285">
  <g id="Group_8809" data-name="Group 8809" transform="translate(-372 -1058.449)">
    <g id="Wallet" transform="translate(307.52 834.449)">
      <path id="Path_17334" data-name="Path 17334" d="M102.2,225v6.991l-.428.916H78.452v4.154H99.837l-.59,1.255H73.317a2.209,2.209,0,0,1-.3-.013,8.154,8.154,0,0,1-6.066-2.786,5.928,5.928,0,0,1-1.476-3.866,1.317,1.317,0,0,1,.03-.339C65.7,227.786,69.125,225,73.317,225Z" transform="translate(0.039 0.039)" fill="#a1d0ff"/>
      <path id="Path_17335" data-name="Path 17335" d="M89.26,242.342c-2.247,0-4.068,1.378-4.068,3.077s1.821,3.079,4.068,3.079H98v-6.156Z" transform="translate(10.146 4.721)" fill="#a1d0ff"/>
      <path id="Path_17336" data-name="Path 17336" d="M103.193,230.507V224H73.568c-4.882,0-8.872,3.29-9.073,7.4H64.48v24.148c0,4.26,4.076,7.734,9.088,7.734h35.617V230.507Zm-29.626-4.051h26.745v4.051H75.7v6.519H73.568c-3.413,0-6.207-2.369-6.207-5.291S70.154,226.455,73.568,226.455ZM106.3,245.29H98.577c-3.147,0-5.706,2.182-5.706,4.864s2.559,4.863,5.706,4.863H106.3v5.813H73.568c-3.413,0-6.207-2.369-6.207-5.279V237.382a9.771,9.771,0,0,0,5.919,2.087v.012H106.3Zm-.007,2.455v4.816h-7.72a2.439,2.439,0,1,1,0-4.816Zm-7.424-10.72H78.58v-4.064H106.3v4.064Z" transform="translate(0 0)" fill="#3b90f4"/>
    </g>
  </g>
</svg>
