<svg xmlns="http://www.w3.org/2000/svg" width="111.939" height="98.734" viewBox="0 0 111.939 98.734">
  <g id="add_product" data-name="add product" transform="translate(-126.5 -140)">
    <g id="personal-computer" transform="translate(128 154.87)" opacity="0.5">
      <g id="Group_8798" data-name="Group 8798" transform="translate(0 0)">
        <g id="Group_8797" data-name="Group 8797">
          <path id="Path_17754" data-name="Path 17754" d="M103.042,94.838H5.9A5.69,5.69,0,0,0,0,100.269v66.082a5.69,5.69,0,0,0,5.9,5.431l33.83.026v6.217H31.761a2.586,2.586,0,1,0,0,5.173H77.178a2.586,2.586,0,1,0,0-5.173H69.212v-6.217h33.83a5.69,5.69,0,0,0,5.9-5.431V100.269A5.69,5.69,0,0,0,103.042,94.838ZM64.065,178.025H44.9v-6.217H64.065Zm39.7-11.7a.854.854,0,0,1-.724.285H5.9a.957.957,0,0,1-.724-.259V100.295a.854.854,0,0,1,.724-.31h97.145a.957.957,0,0,1,.724.259Z" transform="translate(0 -100.834)" fill="#77a1ff" stroke="#fff" stroke-width="3"/>
        </g>
      </g>
    </g>
    <g id="Rectangle_6739" data-name="Rectangle 6739" transform="translate(148 145)" fill="#fff" stroke="#cfddff" stroke-width="1" stroke-dasharray="4">
      <rect width="66" height="70" rx="3" stroke="none"/>
      <rect x="0.5" y="0.5" width="65" height="69" rx="2.5" fill="none"/>
    </g>
    <g id="Rectangle_6740" data-name="Rectangle 6740" transform="translate(142 140)" fill="#eef3ff" stroke="#77a1ff" stroke-width="2">
      <rect width="66" height="68" rx="3" stroke="none"/>
      <rect x="1" y="1" width="64" height="66" rx="2" fill="none"/>
    </g>
    <g id="freepik--product-2--inject-446" transform="translate(155.649 148.87)">
      <path id="Path_16672" data-name="Path 16672" d="M302.53,93.725a8.934,8.934,0,0,1,8.068-3v5.54a8.47,8.47,0,0,1,6.686,3.809s3.712-4.155,6.338-3.9V90.588A8.409,8.409,0,0,1,330.88,95.2l-4.607,3.824-2.748,8.646s4.244,7.5,4.7,21.084l-.113,12.675H305.871l-.092-8.887a46.844,46.844,0,0,1,.322-5.94c.647-5.441,2.264-15.985,5.3-18.937l-3.269-8.324Z" transform="translate(-302.53 -90.588)" fill="#407bff"/>
      <path id="Path_16673" data-name="Path 16673" d="M331.211,122.4c0,.076-2.716.156-6.06.173a57.707,57.707,0,0,1-6.06-.1,57.864,57.864,0,0,1,6.06-.173C328.495,122.278,331.211,122.313,331.211,122.4Z" transform="translate(-310.219 -105.313)" fill="#263238"/>
      <path id="Path_16674" data-name="Path 16674" d="M322.875,111.157a1.815,1.815,0,0,1-.831.467,3.79,3.79,0,0,1-4.2-1.257,1.765,1.765,0,0,1-.44-.847c.038,0,.2.3.589.718a4.156,4.156,0,0,0,1.827,1.163,4.108,4.108,0,0,0,2.143.033C322.548,111.3,322.852,111.121,322.875,111.157Z" transform="translate(-309.44 -99.379)" fill="#263238"/>
      <path id="Path_16675" data-name="Path 16675" d="M338.568,108.53a1.615,1.615,0,0,1-.273,1.013,3.347,3.347,0,0,1-2,1.522,4.675,4.675,0,0,1-2.524-.064,2.423,2.423,0,0,1-.947-.424,7.24,7.24,0,0,1,1,.23,5.164,5.164,0,0,0,2.4,0,3.433,3.433,0,0,0,1.913-1.361A7.511,7.511,0,0,0,338.568,108.53Z" transform="translate(-316.594 -98.921)" fill="#263238"/>
      <path id="Path_16676" data-name="Path 16676" d="M331,141.9c0,.028-.289.135-.783.424a12.317,12.317,0,0,0-1.9,1.473,12.5,12.5,0,0,1-2.909,2.143,5.076,5.076,0,0,1-2.11.467,8.271,8.271,0,0,1-2.287-.338c-1.527-.429-2.872-1.1-4.146-1.511a7.17,7.17,0,0,0-3.482-.386,4.345,4.345,0,0,0-2.143.959,8.252,8.252,0,0,0-.6.642,1.331,1.331,0,0,1,.107-.208,2.8,2.8,0,0,1,.424-.538,4.285,4.285,0,0,1,2.187-1.077,7.179,7.179,0,0,1,3.6.338c1.307.4,2.651,1.077,4.141,1.484a6.119,6.119,0,0,0,4.216-.1,12.96,12.96,0,0,0,2.888-2.067,10.949,10.949,0,0,1,1.974-1.42,4.462,4.462,0,0,1,.609-.261Z" transform="translate(-306.292 -114.417)" fill="#fafafa"/>
      <path id="Path_16677" data-name="Path 16677" d="M330.876,127.9a3.8,3.8,0,0,1-.627,0,3.7,3.7,0,0,0-1.544.653c-.609.386-1.269.97-2.143,1.435a8.235,8.235,0,0,1-3.037.916,8.035,8.035,0,0,1-3.161-.294,8.288,8.288,0,0,1-2.334-1.1,7.361,7.361,0,0,1-1.307-1.153,2.189,2.189,0,0,1-.386-.538,14.045,14.045,0,0,0,1.806,1.5,8.616,8.616,0,0,0,2.292,1.039,8.137,8.137,0,0,0,3.051.267,8.377,8.377,0,0,0,2.943-.866c.847-.429,1.517-1,2.143-1.371a3.606,3.606,0,0,1,1.645-.6,1.67,1.67,0,0,1,.478.038.436.436,0,0,0,.182.071Z" transform="translate(-308.945 -107.866)" fill="#fafafa"/>
      <path id="Path_16678" data-name="Path 16678" d="M330.963,116.566s0,.048-.092.113a1,1,0,0,1-.358.218,2.143,2.143,0,0,1-1.537-.125,7.117,7.117,0,0,0-2.078-.739,6.964,6.964,0,0,0-2.678.289c-.942.251-1.816.583-2.678.783a7.5,7.5,0,0,1-2.266.246,3.748,3.748,0,0,1-1.489-.391,1.712,1.712,0,0,1-.358-.218c-.076-.054-.112-.092-.107-.1a4.822,4.822,0,0,0,1.974.509,8.034,8.034,0,0,0,2.2-.294c.815-.208,1.681-.538,2.64-.8a6.925,6.925,0,0,1,2.786-.279,6.752,6.752,0,0,1,2.143.815,2.1,2.1,0,0,0,1.435.2A2.3,2.3,0,0,0,330.963,116.566Z" transform="translate(-309.384 -102.269)" fill="#fafafa"/>
      <path id="Path_16679" data-name="Path 16679" d="M331.71,105.1a2.843,2.843,0,0,0-.648-.412,3.669,3.669,0,0,0-2.024-.322,7.377,7.377,0,0,0-2.872,1.077,14.148,14.148,0,0,1-3.482,1.7,4.393,4.393,0,0,1-2.041.059,8.182,8.182,0,0,1-1.762-.67,8.418,8.418,0,0,0-2.893-1.077,3.009,3.009,0,0,0-1.993.4,3.674,3.674,0,0,0-.538.538.335.335,0,0,1,.092-.173,1.845,1.845,0,0,1,.4-.435,2.989,2.989,0,0,1,2.067-.5,4.746,4.746,0,0,1,1.453.346c.5.192,1,.45,1.537.706a8.207,8.207,0,0,0,1.709.632,4.128,4.128,0,0,0,1.913-.059,14.855,14.855,0,0,0,3.428-1.655,7.216,7.216,0,0,1,2.983-1.077,3.589,3.589,0,0,1,2.095.419,2.293,2.293,0,0,1,.467.358A.815.815,0,0,1,331.71,105.1Z" transform="translate(-307.595 -96.885)" fill="#fafafa"/>
      <path id="Path_16680" data-name="Path 16680" d="M347.874,95.444c0,.087-1.307-.322-2.943-.358s-2.943.274-2.969.173a8.163,8.163,0,0,1,5.916.173Z" transform="translate(-320.837 -92.547)" fill="#fafafa"/>
      <path id="Path_16681" data-name="Path 16681" d="M303.74,97.141a.52.52,0,0,1,.125-.284,1.257,1.257,0,0,1,.734-.407,4.285,4.285,0,0,1,1.212.038,13.479,13.479,0,0,0,1.435.076,21.541,21.541,0,0,0,3.689-.493,3.117,3.117,0,0,1-1.039.4,9.912,9.912,0,0,1-2.651.37,11.489,11.489,0,0,1-1.479-.1,4.692,4.692,0,0,0-1.158-.1,1.28,1.28,0,0,0-.693.289C303.8,97.049,303.756,97.146,303.74,97.141Z" transform="translate(-303.092 -93.135)" fill="#fafafa"/>
      <path id="Path_16682" data-name="Path 16682" d="M331,160.858a7.49,7.49,0,0,0-.926-.251,4.488,4.488,0,0,0-2.53.473,8.29,8.29,0,0,0-1.537.937c-.538.391-1.077.852-1.615,1.323a10.765,10.765,0,0,1-1.939,1.312,5.131,5.131,0,0,1-2.471.538,11.262,11.262,0,0,1-4.6-1.484L311.9,161.89l-2.334-1.257-.627-.358c-.145-.087-.213-.13-.208-.14a.771.771,0,0,1,.235.092l.653.3L312,161.7l3.509,1.762a11.216,11.216,0,0,0,4.488,1.435,4.865,4.865,0,0,0,2.334-.538,10.41,10.41,0,0,0,1.9-1.269c.578-.455,1.115-.916,1.65-1.307a8.437,8.437,0,0,1,1.615-.931,4.441,4.441,0,0,1,2.625-.4,2.77,2.77,0,0,1,.693.23.89.89,0,0,1,.173.161Z" transform="translate(-305.408 -122.888)" fill="#fafafa"/>
      <path id="Path_16683" data-name="Path 16683" d="M331.189,176.857a8.77,8.77,0,0,0-.921-.064,5.744,5.744,0,0,0-2.389.68c-.952.467-1.955,1.257-3.215,1.955a6.519,6.519,0,0,1-2.143.755,7.247,7.247,0,0,1-2.424-.087,30.943,30.943,0,0,1-4.4-1.435,9.562,9.562,0,0,0-3.636-.675,5.234,5.234,0,0,0-2.394.637,5.556,5.556,0,0,0-.755.538c-.016,0,.043-.069.156-.173a3.547,3.547,0,0,1,.538-.435,5.035,5.035,0,0,1,2.438-.744,9.554,9.554,0,0,1,3.75.627,33.156,33.156,0,0,0,4.365,1.4,6.961,6.961,0,0,0,2.334.087,6.183,6.183,0,0,0,2.046-.706c1.231-.665,2.251-1.458,3.246-1.9a5.447,5.447,0,0,1,2.476-.609,3.082,3.082,0,0,1,.692.092.732.732,0,0,1,.234.059Z" transform="translate(-305.496 -130.568)" fill="#fafafa"/>
    </g>
    <g id="freepik--Character--inject-367" transform="translate(184 153.443)">
      <circle id="Ellipse_1478" data-name="Ellipse 1478" cx="20.169" cy="20.169" r="20.169" transform="matrix(-0.16, -0.987, 0.987, -0.16, 6.454, 46.268)" fill="#407bff"/>
      <path id="Path_16622" data-name="Path 16622" d="M276.778,304.652h7.153V297.5a1.468,1.468,0,1,1,2.937,0v7.154h7.153a1.468,1.468,0,0,1,0,2.936h-7.154v7.152a1.468,1.468,0,1,1-2.936,0v-7.154h-7.153a1.468,1.468,0,0,1,0-2.937Z" transform="translate(-262.253 -283.009)" fill="#fff"/>
    </g>
  </g>
</svg>
