<svg xmlns="http://www.w3.org/2000/svg" width="60" height="60" viewBox="0 0 60 60">
  <g id="Group_8650" data-name="Group 8650" transform="translate(-1524 -1327)">
    <rect id="Rectangle_6610" data-name="Rectangle 6610" width="60" height="60" transform="translate(1524 1327)" fill="#fff" opacity="0"/>
    <g id="Bitcoin-rafiki" transform="translate(1482.322 1188.974)">
      <g id="freepik--background-simple--inject-42" transform="translate(42.629 150.29)">
        <path id="Path_16859" data-name="Path 16859" d="M87.569,95.686A19.227,19.227,0,0,0,99.2,92.3c15.813-11.924,37.215,3.535,18.449,18.44-9.257,7.8-18.752,7.595-28.191,6.164-19.174-2.018-17.418-16.412-14.473-20.092C77.976,93.224,83.642,95.481,87.569,95.686Z" transform="translate(-73.169 -88.055)" fill="#f7f7f7"/>
      </g>
      <g id="freepik--Shadow--inject-42" transform="translate(43.791 183.08)">
        <ellipse id="freepik--path--inject-42" cx="28.389" cy="1.657" rx="28.389" ry="1.657" transform="translate(0 0)" fill="#f5f5f5"/>
      </g>
      <g id="freepik--Bitcoin--inject-42" transform="translate(41.678 145.026)">
        <path id="Path_16860" data-name="Path 16860" d="M203.783,191.56H200.55v32.9h3.233a16.449,16.449,0,0,0,0-32.9Z" transform="translate(-177.288 -184.747)" fill="#407bff"/>
        <path id="Path_16861" data-name="Path 16861" d="M203.783,191.56H200.55v32.9h3.233a16.449,16.449,0,0,0,0-32.9Z" transform="translate(-177.288 -184.747)" opacity="0.1"/>
        <path id="Path_16862" data-name="Path 16862" d="M149.136,192.635l-.066-.13a16.837,16.837,0,0,1,3.59-1.3l.034.146A16.742,16.742,0,0,0,149.136,192.635Z" transform="translate(-133.346 -184.439)" fill="#407bff"/>
        <path id="Path_16863" data-name="Path 16863" d="M136.071,204.356l-.081-.122c.315-.211.64-.416.966-.6l.073.126C136.706,203.945,136.384,204.147,136.071,204.356Z" transform="translate(-122.181 -195.049)" fill="#407bff"/>
        <circle id="Ellipse_1485" data-name="Ellipse 1485" cx="16.449" cy="16.449" r="16.449" transform="translate(0 23.262) rotate(-45)" fill="#407bff"/>
        <path id="Path_16864" data-name="Path 16864" d="M132.524,216.955a13.4,13.4,0,0,0-18.917,18.907,13.4,13.4,0,1,1,18.917-18.907Z" transform="translate(-99.225 -202.569)" opacity="0.1"/>
        <g id="Group_8642" data-name="Group 8642" transform="translate(17.297 9.484)">
          <text id="_" data-name="$" transform="translate(1.023 21)" fill="#3a6fe5" font-size="21" font-family="Averta-Semibold, Averta ☞" font-weight="600" letter-spacing="0.16em"><tspan x="0" y="0">$</tspan></text>
          <text id="_2" data-name="$" transform="translate(0 21)" fill="#fff" font-size="21" font-family="Averta-Semibold, Averta ☞" font-weight="600" letter-spacing="0.16em"><tspan x="0" y="0">$</tspan></text>
        </g>
      </g>
    </g>
  </g>
</svg>
