<svg id="Design" xmlns="http://www.w3.org/2000/svg" width="40" height="40" viewBox="0 0 40 40">
  <path id="Path_11427" data-name="Path 11427" d="M20,1.1A18.9,18.9,0,1,1,1.2,20,18.97,18.97,0,0,1,20,1.1M20,0A20,20,0,1,0,40,20,20.059,20.059,0,0,0,20,0Z" fill="#dfdbf2"/>
  <g id="Group_7018" data-name="Group 7018" transform="translate(1.068 1.068)">
    <path id="Path_11428" data-name="Path 11428" d="M10.941,20.571H14.6a.626.626,0,0,0,.641-.641V16.541A.626.626,0,0,0,14.6,15.9H10.941a.626.626,0,0,0-.641.641V19.93A.626.626,0,0,0,10.941,20.571Zm.733-3.389h2.29V19.2h-2.29Z" transform="translate(-0.252 -0.723)" fill="#03a9f4" fill-rule="evenodd"/>
    <path id="Path_11429" data-name="Path 11429" d="M17.94,28.682h8.426a.641.641,0,1,0,0-1.282H17.94a.626.626,0,0,0-.641.641C17.207,28.316,17.573,28.682,17.94,28.682Z" transform="translate(-0.84 -1.69)" fill="#03a9f4" fill-rule="evenodd"/>
    <path id="Path_11430" data-name="Path 11430" d="M17.94,20.582h8.426a.641.641,0,1,0,0-1.282H17.94a.626.626,0,0,0-.641.641C17.207,20.216,17.573,20.582,17.94,20.582Z" transform="translate(-0.84 -1.009)" fill="#03a9f4" fill-rule="evenodd"/>
    <path id="Path_11431" data-name="Path 11431" d="M17.94,17.482h5.129a.641.641,0,0,0,0-1.282H17.94a.626.626,0,0,0-.641.641C17.207,17.208,17.573,17.482,17.94,17.482Z" transform="translate(-0.84 -0.748)" fill="#03a9f4" fill-rule="evenodd"/>
    <path id="Path_11432" data-name="Path 11432" d="M17.94,25.582h5.129a.641.641,0,0,0,0-1.282H17.94a.626.626,0,0,0-.641.641C17.207,25.308,17.573,25.582,17.94,25.582Z" transform="translate(-0.84 -1.43)" fill="#03a9f4" fill-rule="evenodd"/>
    <path id="Path_11433" data-name="Path 11433" d="M30.2,7.666A1.251,1.251,0,0,0,29.19,7.3H8.674a1.921,1.921,0,0,0-1.008.366A1.921,1.921,0,0,0,7.3,8.674V29.923a.626.626,0,0,0,.641.641H29.923a.626.626,0,0,0,.641-.641V8.674A1.921,1.921,0,0,0,30.2,7.666ZM29.19,29.19H8.674V13.162H29.19Zm0-20.516v3.114H8.674V8.674H29.19Z" transform="translate(0 0)" fill="#03a9f4" fill-rule="evenodd"/>
    <path id="Path_11434" data-name="Path 11434" d="M10.941,28.671H14.6a.626.626,0,0,0,.641-.641V24.641A.626.626,0,0,0,14.6,24H10.941a.626.626,0,0,0-.641.641V28.03A.626.626,0,0,0,10.941,28.671Zm.733-3.389h2.29V27.3h-2.29Z" transform="translate(-0.252 -1.404)" fill="#03a9f4" fill-rule="evenodd"/>
    <path id="Path_11435" data-name="Path 11435" d="M28.941,9.8a.641.641,0,1,0,.641.641A.626.626,0,0,0,28.941,9.8Z" transform="translate(-1.766 -0.21)" fill="#03a9f4" fill-rule="evenodd"/>
    <path id="Path_11436" data-name="Path 11436" d="M25.941,9.8a.641.641,0,1,0,.641.641C26.674,10.075,26.308,9.8,25.941,9.8Z" transform="translate(-1.514 -0.21)" fill="#03a9f4" fill-rule="evenodd"/>
    <path id="Path_11437" data-name="Path 11437" d="M22.941,9.8a.641.641,0,1,0,.641.641C23.674,10.075,23.308,9.8,22.941,9.8Z" transform="translate(-1.261 -0.21)" fill="#03a9f4" fill-rule="evenodd"/>
  </g>
</svg>
