<svg id="Domain_1_" data-name="Domain (1)" xmlns="http://www.w3.org/2000/svg" width="40" height="40" viewBox="0 0 40 40">
  <path id="Path_11425" data-name="Path 11425" d="M20,1.1A18.9,18.9,0,1,1,1.2,20,18.97,18.97,0,0,1,20,1.1M20,0A20,20,0,1,0,40,20,20.059,20.059,0,0,0,20,0Z" fill="#dfdbf2"/>
  <path id="Path_11426" data-name="Path 11426" d="M29.317,7.3H9.379A2.1,2.1,0,0,0,7.3,9.379V26.387a2.1,2.1,0,0,0,2.079,2.079h5.481a4.9,4.9,0,0,0,8.882,0h5.481A2.1,2.1,0,0,0,31.3,26.387V9.379A1.96,1.96,0,0,0,29.317,7.3ZM9.379,8.717H29.317a.646.646,0,0,1,.661.661v3.5H8.623v-3.5A.8.8,0,0,1,9.379,8.717ZM19.3,29.884a3.488,3.488,0,0,1-3.5-3.5,3.5,3.5,0,0,1,6.992,0A3.488,3.488,0,0,1,19.3,29.884Zm10.016-2.835H24.309a4.926,4.926,0,0,0-4.914-5.67,4.976,4.976,0,0,0-4.914,5.67H9.473a.646.646,0,0,1-.661-.661v-12H30.167v12A1.009,1.009,0,0,1,29.317,27.049ZM15.237,15.8a.676.676,0,0,0-.85.472L14.1,17.6l-.567-.756a.709.709,0,0,0-1.134,0l-.567.756-.283-1.323a.688.688,0,1,0-1.323.378l.661,2.835a.852.852,0,0,0,.567.567.784.784,0,0,0,.756-.283l.85-1.228.85,1.228a.673.673,0,0,0,.567.283.69.69,0,0,0,.661-.567l.661-2.835a.736.736,0,0,0-.567-.85Zm6.425,0a.676.676,0,0,0-.85.472L20.529,17.6l-.567-.756a.707.707,0,0,0-1.134,0l-.567.756-.283-1.323a.688.688,0,1,0-1.323.378l.661,2.835a.852.852,0,0,0,.567.567.784.784,0,0,0,.756-.283l.85-1.228.85,1.228a.673.673,0,0,0,.567.283.69.69,0,0,0,.661-.567l.661-2.835a.826.826,0,0,0-.567-.85Zm6.331,0a.676.676,0,0,0-.85.472L26.86,17.6l-.567-.756a.707.707,0,0,0-1.134,0l-.567.756-.283-1.323a.688.688,0,1,0-1.323.378l.661,2.835a.852.852,0,0,0,.567.567.784.784,0,0,0,.756-.283l.85-1.228.85,1.228a.784.784,0,0,0,.756.283.852.852,0,0,0,.567-.567l.661-2.835A.908.908,0,0,0,27.994,15.8Zm-7.465,9.355-1.8,1.8-.661-.661a.735.735,0,0,0-1.039,1.039l1.134,1.134a.741.741,0,0,0,1.039,0L21.474,26.2a.741.741,0,0,0,0-1.039A.629.629,0,0,0,20.529,25.159ZM10.891,10.135a.661.661,0,1,1-.661.661A.646.646,0,0,1,10.891,10.135Zm2.74,0a.661.661,0,1,1-.661.661A.646.646,0,0,1,13.631,10.135Zm2.835,0a.661.661,0,1,1-.661.661A.646.646,0,0,1,16.466,10.135Zm7.087,1.417H27.8a.661.661,0,1,0,0-1.323H23.553a.661.661,0,1,0,0,1.323Z" transform="translate(0.7 0.7)" fill="#03a9f4"/>
</svg>
