<svg xmlns="http://www.w3.org/2000/svg" width="200" height="150" viewBox="0 0 200 150">
  <g id="get_started" data-name="get started" transform="translate(-372 -713)">
    <g id="Group_8807" data-name="Group 8807">
      <rect id="Rectangle_6746" data-name="Rectangle 6746" width="200" height="150" transform="translate(372 713)" fill="#eef3ff"/>
      <g id="youtube" transform="translate(536.572 835.5)">
        <path id="Path_17755" data-name="Path 17755" d="M26.171,2.928A3.348,3.348,0,0,0,23.816.572C21.725,0,13.361,0,13.361,0S5,0,2.905.551A3.416,3.416,0,0,0,.55,2.928,35.278,35.278,0,0,0,0,9.355a35.148,35.148,0,0,0,.55,6.427,3.349,3.349,0,0,0,2.355,2.355c2.113.572,10.455.572,10.455.572s8.364,0,10.455-.55A3.348,3.348,0,0,0,26.172,15.8a35.279,35.279,0,0,0,.55-6.427,33.485,33.485,0,0,0-.55-6.449Zm0,0" fill="red"/>
        <path id="Path_17756" data-name="Path 17756" d="M204.969,110.5l6.956-4.006-6.956-4.006Zm0,0" transform="translate(-194.271 -97.136)" fill="#fff"/>
      </g>
      <g id="Group_8798" data-name="Group 8798" transform="translate(413.061 751)" opacity="0.53">
        <g id="Group_8797" data-name="Group 8797">
          <path id="Path_17754" data-name="Path 17754" d="M103.042,94.838H5.9A5.69,5.69,0,0,0,0,100.269v66.082a5.69,5.69,0,0,0,5.9,5.431l33.83.026v6.217H31.761a2.586,2.586,0,1,0,0,5.173H77.178a2.586,2.586,0,1,0,0-5.173H69.212v-6.217h33.83a5.69,5.69,0,0,0,5.9-5.431V100.269A5.69,5.69,0,0,0,103.042,94.838ZM64.065,178.025H44.9v-6.217H64.065Zm39.7-11.7a.854.854,0,0,1-.724.285H5.9a.957.957,0,0,1-.724-.259V100.295a.854.854,0,0,1,.724-.31h97.145a.957.957,0,0,1,.724.259Z" transform="translate(0 -100.834)" fill="#407bff" stroke="#eef3ff" stroke-width="3"/>
        </g>
      </g>
      <g id="online-course_1_" data-name="online-course (1)" transform="translate(412.846 746.318)">
        <path id="Path_16590" data-name="Path 16590" d="M40.614,29.995,18,19.353V33.764L40.614,45.072,63.228,33.764V19.353Z" transform="translate(12.187 14.629)" fill="#407bff" opacity="0.12"/>
        <path id="Path_16591" data-name="Path 16591" d="M45.037,9,13,24.076,45.037,39.152,77.073,24.076Z" transform="translate(7.765 5.47)" fill="#407bff" opacity="0.23"/>
        <g id="Group_8583" data-name="Group 8583" transform="translate(18.876 12.586)">
          <path id="Path_16592" data-name="Path 16592" d="M45.922,41.921a1.9,1.9,0,0,1-.8-.178L13.079,26.666a1.885,1.885,0,0,1,0-3.411L45.12,8.18a1.885,1.885,0,0,1,1.605,0L78.762,23.256a1.885,1.885,0,0,1,0,3.411L46.725,41.743A1.9,1.9,0,0,1,45.922,41.921Zm-27.61-16.96,27.61,12.994,27.61-12.994L45.922,11.967Z" transform="translate(-11.997 -8)" fill="#407bff"/>
          <path id="Path_16593" data-name="Path 16593" d="M41.5,47.84a1.888,1.888,0,0,1-.838-.2L18.042,36.335A1.887,1.887,0,0,1,17,34.649V20.238a1.884,1.884,0,0,1,2.686-1.708L41.5,28.795,63.311,18.53A1.887,1.887,0,0,1,66,20.235V34.649a1.887,1.887,0,0,1-1.042,1.687l-22.614,11.3A1.888,1.888,0,0,1,41.5,47.84ZM20.77,33.484,41.5,43.849l20.73-10.365V23.208L42.3,32.585a1.885,1.885,0,0,1-1.605,0L20.77,23.208Z" transform="translate(-7.573 1.156)" fill="#407bff"/>
          <path id="Path_16594" data-name="Path 16594" d="M62.921,19.77H30.884a1.885,1.885,0,0,1,0-3.77H62.921a1.885,1.885,0,0,1,0,3.77Z" transform="translate(3.041 -0.924)" fill="#407bff"/>
          <path id="Path_16595" data-name="Path 16595" d="M47.884,36.73A1.885,1.885,0,0,1,46,34.846V17.884a1.885,1.885,0,1,1,3.77,0V34.846a1.885,1.885,0,0,1-1.885,1.884Z" transform="translate(18.078 -0.925)" fill="#407bff"/>
          <path id="Path_16596" data-name="Path 16596" d="M30.884,25.308A1.885,1.885,0,0,1,29,23.422V15.884a1.885,1.885,0,1,1,3.77,0v7.538a1.885,1.885,0,0,1-1.885,1.885Z" transform="translate(3.041 -2.693)" fill="#407bff"/>
          <path id="Path_16597" data-name="Path 16597" d="M45.883,34.423a1.884,1.884,0,0,1-1.566-2.93l3.77-5.654a1.885,1.885,0,1,1,3.136,2.091l-3.77,5.654A1.883,1.883,0,0,1,45.883,34.423Z" transform="translate(16.309 7.036)" fill="#407bff"/>
          <path id="Path_16598" data-name="Path 16598" d="M51.655,34.423a1.883,1.883,0,0,1-1.57-.838l-3.77-5.654a1.886,1.886,0,1,1,3.137-2.093l3.77,5.654a1.884,1.884,0,0,1-1.566,2.93Z" transform="translate(18.078 7.036)" fill="#407bff"/>
          <path id="Path_16599" data-name="Path 16599" d="M30.884,33.422A1.885,1.885,0,0,1,29,31.538V25.884a1.885,1.885,0,1,1,3.77,0v5.654a1.885,1.885,0,0,1-1.885,1.884Z" transform="translate(3.041 6.153)" fill="#407bff"/>
        </g>
      </g>
    </g>
  </g>
</svg>
