<svg id="Payment" xmlns="http://www.w3.org/2000/svg" width="80" height="80" viewBox="0 0 80 80">
  <path id="Path_11440" data-name="Path 11440" d="M40,2.2A37.8,37.8,0,1,1,2.2,40,37.77,37.77,0,0,1,40,2.2M40,0A40,40,0,1,0,80,40,39.989,39.989,0,0,0,40,0Z" fill="#dfdbf2"/>
  <path id="Path_11441" data-name="Path 11441" d="M30.226,45.6A1.507,1.507,0,0,1,28.7,47.126H27.269a1.526,1.526,0,1,1,0-3.053H28.7A1.507,1.507,0,0,1,30.226,45.6Zm-9.254-1.526H19.541a1.526,1.526,0,1,0,0,3.053h1.431a1.526,1.526,0,1,0,0-3.053Zm4.77-4.865a1.507,1.507,0,0,1-1.526,1.526H19.541a1.507,1.507,0,0,1-1.526-1.526V34.724A1.507,1.507,0,0,1,19.541,33.2h4.675a1.507,1.507,0,0,1,1.526,1.526ZM22.594,36.25H21.068v1.336h1.526Zm29.1,7.823H50.261a1.526,1.526,0,0,0,0,3.053h1.431a1.526,1.526,0,0,0,0-3.053ZM65.239,23.848v26.14a3.176,3.176,0,0,1-3.148,3.148H58.942v1.24a3.176,3.176,0,0,1-3.148,3.148H15.248A3.176,3.176,0,0,1,12.1,54.377V30.049A3.176,3.176,0,0,1,15.248,26.9H18.4V23.848A3.176,3.176,0,0,1,21.545,20.7H62.186A3.1,3.1,0,0,1,65.239,23.848ZM55.985,49.8h0V30.049H15.344V54.472H55.985Zm6.2-2.385h0V23.848H21.449V27h34.44a3.176,3.176,0,0,1,3.148,3.148V49.988h3.148ZM44.059,44.073H42.533a1.526,1.526,0,0,0,0,3.053h1.431A1.507,1.507,0,0,0,45.49,45.6,1.378,1.378,0,0,0,44.059,44.073Zm-7.728,0H34.9a1.526,1.526,0,0,0,0,3.053h1.431A1.507,1.507,0,0,0,37.858,45.6,1.452,1.452,0,0,0,36.332,44.073Z" transform="translate(0.9 1.3)" fill="#03a9f4" fill-rule="evenodd"/>
</svg>
