<svg xmlns="http://www.w3.org/2000/svg" width="97.678" height="74.604" viewBox="0 0 97.678 74.604">
  <g id="Group_8621" data-name="Group 8621" transform="translate(-677.553 -325.731)">
    <g id="Group_8589" data-name="Group 8589" transform="translate(677.654 325.831)">
      <g id="Add_to_Cart-rafiki" data-name="Add to Cart-rafiki">
        <g id="Group_8588" data-name="Group 8588" transform="translate(0 0)">
          <g id="freepik--Responsive--inject-223">
            <g id="Group_8593" data-name="Group 8593" transform="translate(0 44.932)">
              <path id="Path_14202" data-name="Path 14202" d="M228.752,163.774l1.348-25.757a1.949,1.949,0,0,1,1.885-1.857h43.077a1.667,1.667,0,0,1,1.247.544,1.772,1.772,0,0,1,.459,1.313l-1.348,25.757a1.949,1.949,0,0,1-1.885,1.857H230.458a1.667,1.667,0,0,1-1.247-.544A1.772,1.772,0,0,1,228.752,163.774Z" transform="translate(-228.748 -136.16)" fill="#fff" stroke="#407bff" stroke-width="0.2" opacity="0.71"/>
              <text id="Aa" transform="translate(14.586 19.349)" fill="#407bff" font-size="12" font-family="Arvo-Bold, Arvo" font-weight="700"><tspan x="0" y="0">Aa</tspan></text>
            </g>
            <g id="Group_8620" data-name="Group 8620" transform="translate(51.625 44.932)">
              <path id="Path_14202-2" data-name="Path 14202" d="M228.751,163.774l1.239-25.757a1.872,1.872,0,0,1,1.733-1.857H271.33a1.479,1.479,0,0,1,1.147.544,1.869,1.869,0,0,1,.422,1.313l-1.239,25.757a1.872,1.872,0,0,1-1.733,1.857H230.32a1.478,1.478,0,0,1-1.147-.544A1.869,1.869,0,0,1,228.751,163.774Z" transform="translate(-228.748 -136.16)" fill="#fff" stroke="#407bff" stroke-width="0.2" opacity="0.71"/>
            </g>
            <g id="Group_8604" data-name="Group 8604" transform="translate(2.464)">
              <path id="Path_14202-3" data-name="Path 14202" d="M228.752,174.919l1.319-36.152c.061-1.447.864-2.581,1.845-2.607h42.153a1.463,1.463,0,0,1,1.221.764,3.208,3.208,0,0,1,.449,1.843l-1.319,36.152c-.061,1.447-.864,2.581-1.845,2.607H230.421a1.463,1.463,0,0,1-1.221-.764A3.208,3.208,0,0,1,228.752,174.919Z" transform="translate(-228.748 -136.16)" fill="rgba(216,227,255,0.09)" stroke="#407bff" stroke-width="0.2" opacity="0.71"/>
            </g>
            <g id="Group_8607" data-name="Group 8607" transform="translate(36.314 30.927) rotate(-164)">
              <path id="Path_14209" data-name="Path 14209" d="M0,1.482A6.6,6.6,0,0,0,.575,3.93c.958-.816,1.87-1.781,1.87-1.781a57.256,57.256,0,0,0,6.574-.8C8.815.667,8.668,0,8.668,0Z" transform="translate(16.393 11.251)" fill="#263238"/>
              <path id="Path_14210" data-name="Path 14210" d="M.364,0A1.994,1.994,0,0,1,.2.353a1.221,1.221,0,0,0-.2.711,1.142,1.142,0,0,0,.5.759,2.751,2.751,0,0,0,1.933.527,2.911,2.911,0,0,0,1.3-.47,1.465,1.465,0,0,0,.159.813,1.405,1.405,0,0,0,1.385.746,1.093,1.093,0,0,0,.53-.234v.119a1.3,1.3,0,0,0,.478,1.02,1.394,1.394,0,0,0,1.463-.087L7.863,4.2a3.93,3.93,0,0,0-.2,1.012.935.935,0,0,0,.358.848,1.694,1.694,0,0,0,1.44.087,1.2,1.2,0,0,0,.159.642,1.51,1.51,0,0,0,1.649.652L11.2,7.188a1.244,1.244,0,0,1-1.351-.53.928.928,0,0,1-.114-.612.831.831,0,0,0,.53-.769L10.251,5.1l-.167.067a1,1,0,0,0-.56.622l-.022.07h0a1.6,1.6,0,0,1-1.321,0,.677.677,0,0,1-.249-.622,4.014,4.014,0,0,1,.211-1.017c.02-.057.057-.137.095-.221s.07-.147.1-.219a.62.62,0,0,0,.07-.313H8.142a.5.5,0,0,1-.047.189,1.025,1.025,0,0,1-.465.373c-.53.264-.918.3-1.194.107a1.09,1.09,0,0,1-.351-.826,2.544,2.544,0,0,1,0-.435,1.02,1.02,0,0,0,.139-.6l-.042-.609-.214.572a2.677,2.677,0,0,0-.139.542.873.873,0,0,1-.6.4,1.147,1.147,0,0,1-1.112-.6,1.244,1.244,0,0,1-.077-.93c.047-.04.095-.082.139-.127a.3.3,0,0,0,.087-.281A.182.182,0,0,0,4.127,1.1l-.085-.017-.05.07a1.458,1.458,0,0,0-.177.331,2.682,2.682,0,0,1-1.413.6A2.5,2.5,0,0,1,.662,1.612a.935.935,0,0,1-.4-.575A1.035,1.035,0,0,1,.436.478,2.133,2.133,0,0,0,.615.072Z" transform="translate(4.941 4.091)" fill="#263238"/>
              <path id="Path_14211" data-name="Path 14211" d="M0,2.9c2.326.888,10.285,2.557,11.613,3.98a23.142,23.142,0,0,1,2.711,4.228.759.759,0,0,0,.8.4l8.086-1.321a.761.761,0,0,0,.637-.791L23.8,8.626,23.814.565,3.04,0Z" transform="translate(1.574 1.497)" fill="#407bff"/>
              <path id="Path_14212" data-name="Path 14212" d="M0,.331A12.318,12.318,0,0,0,.945,2.891C1.3,3.281,10.273,2.144,11.026.11A74.031,74.031,0,0,0,0,.331Z" transform="translate(0.633 1.504)" fill="#263238"/>
              <path id="Path_14213" data-name="Path 14213" d="M2.633,0C1.2,1.724-.076,3.059,0,3.865S.887,4.9,2.133,5.318,5.762,6.48,6.913,8.258s1.9.639,2.239-.167.776-2.9,7.512-.945C14.552,5.144,6.687,0,6.687,0Z" transform="translate(7.107 1.554)" fill="#263238"/>
              <path id="Path_14216" data-name="Path 14216" d="M7.863,0C5.321,0,2.694.052.119.189A.124.124,0,0,0,0,.318.127.127,0,0,0,.132.438,207.462,207.462,0,0,1,24.719.915a.125.125,0,0,0,.02-.249C23.043.53,15.9,0,7.863,0Z" transform="translate(0.641 1.84)" fill="#fff"/>
              <path id="Path_14217" data-name="Path 14217" d="M25.27,0H9.747A68.381,68.381,0,0,0,.492.719.58.58,0,0,0,.1.968a.6.6,0,0,0-.09.465l.326-.07a.261.261,0,0,1,.037-.2.249.249,0,0,1,.164-.1,67.937,67.937,0,0,1,9.2-.714H25.268a.3.3,0,0,1,.293.276L25.895.6A.637.637,0,0,0,25.27,0Z" transform="translate(0 0)" fill="#263238"/>
              <rect id="Rectangle_5749" data-name="Rectangle 5749" width="0.333" height="5.398" transform="translate(21.813 9.58) rotate(64.69)" fill="#263238"/>
            </g>
            <g id="sync_2_" data-name="sync (2)" transform="translate(41.893 15.27)">
              <path id="Path_16775" data-name="Path 16775" d="M32.766,30.348a.762.762,0,0,1-.734-.966,7.35,7.35,0,0,1,14.162,0,.762.762,0,0,1-1.467.409,5.888,5.888,0,0,0-2.06-3.057,5.824,5.824,0,0,0-7.107,0,5.887,5.887,0,0,0-2.06,3.057A.762.762,0,0,1,32.766,30.348Z" transform="translate(-31.75 -24)" fill="#407bff" opacity="0.55"/>
              <path id="Path_16776" data-name="Path 16776" d="M25.014,38.093a.762.762,0,0,1-.761-.719L24,32.8a.762.762,0,1,1,1.521-.084l.2,3.61,3.394-1a.762.762,0,1,1,.43,1.461l-4.316,1.269A.76.76,0,0,1,25.014,38.093Z" transform="translate(-23.998 -31.745)" fill="#407bff"/>
              <path id="Path_16777" data-name="Path 16777" d="M31.1,294.341a7.272,7.272,0,0,1-4.484-1.527,7.421,7.421,0,0,1-2.6-3.854.762.762,0,0,1,1.467-.409,5.888,5.888,0,0,0,2.06,3.057,5.824,5.824,0,0,0,7.107,0,5.888,5.888,0,0,0,2.06-3.057.762.762,0,0,1,1.467.409,7.42,7.42,0,0,1-2.6,3.854,7.272,7.272,0,0,1-4.484,1.527Z" transform="translate(-23.994 -279.615)" fill="#407bff" opacity="0.55"/>
              <path id="Path_16778" data-name="Path 16778" d="M293.33,294.093a.762.762,0,0,1-.76-.72l-.2-3.61-3.394,1a.762.762,0,1,1-.43-1.462l4.316-1.269a.762.762,0,0,1,.975.688l.254,4.57a.762.762,0,0,1-.718.8Z" transform="translate(-279.62 -279.621)" fill="#407bff"/>
            </g>
            <path id="Path_14202-4" data-name="Path 14202" d="M228.749,144.451l.31-7.733a.528.528,0,0,1,.434-.558h9.917a.35.35,0,0,1,.287.163.638.638,0,0,1,.106.394l-.31,7.733a.528.528,0,0,1-.434.558h-9.917a.35.35,0,0,1-.287-.163A.638.638,0,0,1,228.749,144.451Z" transform="translate(-165.942 -86.198)" fill="#d8e3ff" opacity="0.71"/>
            <path id="Path_14202-5" data-name="Path 14202" d="M228.749,144.451l.31-7.733a.528.528,0,0,1,.434-.558h9.917a.35.35,0,0,1,.287.163.638.638,0,0,1,.106.394l-.31,7.733a.528.528,0,0,1-.434.558h-9.917a.35.35,0,0,1-.287-.163A.638.638,0,0,1,228.749,144.451Z" transform="translate(-153.745 -86.198)" fill="#407bff" opacity="0.71"/>
            <path id="Path_14202-6" data-name="Path 14202" d="M228.749,144.451l.31-7.733a.528.528,0,0,1,.434-.558h9.917a.35.35,0,0,1,.287.163.638.638,0,0,1,.106.394l-.31,7.733a.528.528,0,0,1-.434.558h-9.917a.35.35,0,0,1-.287-.163A.638.638,0,0,1,228.749,144.451Z" transform="translate(-154.451 -75.976)" fill="#004fff" stroke="#407bff" stroke-width="0.2" opacity="0.71"/>
            <path id="Path_14202-7" data-name="Path 14202" d="M228.749,144.451l.31-7.733a.528.528,0,0,1,.434-.558h9.917a.35.35,0,0,1,.287.163.638.638,0,0,1,.106.394l-.31,7.733a.528.528,0,0,1-.434.558h-9.917a.35.35,0,0,1-.287-.163A.638.638,0,0,1,228.749,144.451Z" transform="translate(-166.377 -75.976)" fill="#76a0ff" stroke="#407bff" stroke-width="0.2" opacity="0.71"/>
          </g>
        </g>
      </g>
    </g>
    <g id="Group_8591" data-name="Group 8591" transform="translate(730.908 325.831)">
      <g id="Group_8334" data-name="Group 8334" transform="translate(0 0)">
        <path id="Path_14202-8" data-name="Path 14202" d="M228.752,174.7,230,138.752c.057-1.438.815-2.567,1.74-2.592h39.757a1.372,1.372,0,0,1,1.151.76,3.327,3.327,0,0,1,.423,1.832L271.823,174.7c-.057,1.438-.815,2.567-1.74,2.592H230.326a1.372,1.372,0,0,1-1.151-.76A3.327,3.327,0,0,1,228.752,174.7Z" transform="translate(-228.748 -136.16)" fill="#407bff" opacity="0.23"/>
        <path id="Path_14216-2" data-name="Path 14216" d="M259.416,228.236c-2.964,0-6.026-.061-9.027-.22a.145.145,0,0,1-.139-.151.148.148,0,0,1,.154-.139,241.88,241.88,0,0,0,28.665-.557.145.145,0,1,1,.023.29C277.114,227.618,268.783,228.236,259.416,228.236Z" transform="translate(-244.185 -186.06)" fill="#fff"/>
      </g>
      <g id="freepik--product-2--inject-446" transform="translate(14.875 9.15)">
        <path id="Path_16672" data-name="Path 16672" d="M302.53,92.064a4.2,4.2,0,0,1,3.788-1.411v2.6a3.977,3.977,0,0,1,3.139,1.786s1.743-1.95,2.976-1.831V90.588a3.949,3.949,0,0,1,3.408,2.166l-2.163,1.8-1.29,4.06s1.992,3.522,2.209,9.9l-.053,5.952H304.1l-.043-4.173a22.008,22.008,0,0,1,.151-2.79c.3-2.556,1.064-7.506,2.49-8.892L305.164,94.7Z" transform="translate(-302.53 -90.587)" fill="#407bff"/>
        <path id="Path_16673" data-name="Path 16673" d="M324.783,122.337c0,.035-1.275.073-2.845.086a27.106,27.106,0,0,1-2.848-.045,27.184,27.184,0,0,1,2.845-.086C323.507,122.282,324.783,122.3,324.783,122.337Z" transform="translate(-314.924 -114.314)" fill="#263238"/>
        <path id="Path_16674" data-name="Path 16674" d="M319.976,110.29a.854.854,0,0,1-.39.219,1.78,1.78,0,0,1-1.97-.591.828.828,0,0,1-.206-.4c.018,0,.1.141.277.337a1.953,1.953,0,0,0,.858.546,1.929,1.929,0,0,0,1.006.015C319.822,110.355,319.966,110.272,319.976,110.29Z" transform="translate(-313.667 -104.757)" fill="#263238"/>
        <path id="Path_16675" data-name="Path 16675" d="M335.519,108.53a.754.754,0,0,1-.128.475,1.572,1.572,0,0,1-.941.714,2.188,2.188,0,0,1-1.185-.03,1.137,1.137,0,0,1-.445-.2,3.4,3.4,0,0,1,.468.108,2.425,2.425,0,0,0,1.127,0,1.613,1.613,0,0,0,.9-.639A3.528,3.528,0,0,0,335.519,108.53Z" transform="translate(-325.201 -104.016)" fill="#263238"/>
        <path id="Path_16676" data-name="Path 16676" d="M320.194,141.9c0,.013-.136.063-.367.2a5.784,5.784,0,0,0-.893.692,5.871,5.871,0,0,1-1.366,1.006,2.385,2.385,0,0,1-.991.219,3.883,3.883,0,0,1-1.074-.158c-.717-.2-1.346-.518-1.947-.709a3.367,3.367,0,0,0-1.635-.181,2.04,2.04,0,0,0-1.006.45,3.878,3.878,0,0,0-.284.3.621.621,0,0,1,.05-.1,1.316,1.316,0,0,1,.2-.252,2.013,2.013,0,0,1,1.026-.5,3.369,3.369,0,0,1,1.69.158c.614.189,1.245.5,1.944.7a2.874,2.874,0,0,0,1.98-.045,6.09,6.09,0,0,0,1.356-.971,5.137,5.137,0,0,1,.928-.667,2.1,2.1,0,0,1,.287-.123C320.158,141.9,320.192,141.9,320.194,141.9Z" transform="translate(-308.592 -128.994)" fill="#fafafa"/>
        <path id="Path_16677" data-name="Path 16677" d="M323.165,127.845a1.783,1.783,0,0,1-.294,0,1.735,1.735,0,0,0-.725.307c-.287.181-.6.455-1.006.672a3.867,3.867,0,0,1-1.426.43,3.773,3.773,0,0,1-1.484-.138,3.892,3.892,0,0,1-1.094-.516,3.464,3.464,0,0,1-.614-.541,1.027,1.027,0,0,1-.181-.252,6.594,6.594,0,0,0,.848.7,4.045,4.045,0,0,0,1.077.49,3.818,3.818,0,0,0,1.436.126,3.934,3.934,0,0,0,1.384-.407c.4-.2.712-.468,1.006-.644a1.692,1.692,0,0,1,.772-.282.784.784,0,0,1,.224.018A.2.2,0,0,0,323.165,127.845Z" transform="translate(-312.866 -118.434)" fill="#fafafa"/>
        <path id="Path_16678" data-name="Path 16678" d="M323.721,116.128s0,.023-.043.053a.468.468,0,0,1-.171.1,1.006,1.006,0,0,1-.722-.058,3.342,3.342,0,0,0-.979-.347,3.27,3.27,0,0,0-1.258.136c-.443.118-.853.274-1.258.367a3.521,3.521,0,0,1-1.064.116,1.761,1.761,0,0,1-.7-.184.8.8,0,0,1-.169-.1c-.035-.025-.053-.043-.05-.045a2.263,2.263,0,0,0,.923.239,3.774,3.774,0,0,0,1.031-.138c.382-.1.79-.252,1.24-.377a3.249,3.249,0,0,1,1.308-.131,3.169,3.169,0,0,1,1.006.382.989.989,0,0,0,.672.093A1.074,1.074,0,0,0,323.721,116.128Z" transform="translate(-313.591 -109.413)" fill="#fafafa"/>
        <path id="Path_16679" data-name="Path 16679" d="M322.023,104.6a1.335,1.335,0,0,0-.3-.194,1.723,1.723,0,0,0-.951-.151,3.464,3.464,0,0,0-1.351.5,6.644,6.644,0,0,1-1.635.8,2.063,2.063,0,0,1-.958.028,3.848,3.848,0,0,1-.828-.314,3.952,3.952,0,0,0-1.358-.5,1.414,1.414,0,0,0-.936.186,1.726,1.726,0,0,0-.252.252.157.157,0,0,1,.043-.086.865.865,0,0,1,.189-.2,1.4,1.4,0,0,1,.971-.234,2.229,2.229,0,0,1,.682.161c.234.091.47.211.722.332a3.855,3.855,0,0,0,.8.3,1.942,1.942,0,0,0,.9-.028,6.974,6.974,0,0,0,1.61-.777,3.388,3.388,0,0,1,1.4-.5,1.688,1.688,0,0,1,.984.2,1.075,1.075,0,0,1,.219.166A.383.383,0,0,1,322.023,104.6Z" transform="translate(-310.703 -100.741)" fill="#fafafa"/>
        <path id="Path_16680" data-name="Path 16680" d="M344.737,95.1c0,.04-.614-.151-1.384-.171s-1.384.128-1.394.088A3.834,3.834,0,0,1,344.737,95.1Z" transform="translate(-332.041 -93.735)" fill="#fafafa"/>
        <path id="Path_16681" data-name="Path 16681" d="M303.74,96.573a.243.243,0,0,1,.058-.133.586.586,0,0,1,.345-.191,2.014,2.014,0,0,1,.571.018,6.33,6.33,0,0,0,.677.035,10.114,10.114,0,0,0,1.733-.231,1.462,1.462,0,0,1-.485.189,4.656,4.656,0,0,1-1.245.174,5.392,5.392,0,0,1-.694-.045,2.2,2.2,0,0,0-.543-.048.6.6,0,0,0-.322.136C303.77,96.53,303.748,96.576,303.74,96.573Z" transform="translate(-303.436 -94.691)" fill="#fafafa"/>
        <path id="Path_16682" data-name="Path 16682" d="M319.187,160.475a3.528,3.528,0,0,0-.435-.118,2.11,2.11,0,0,0-1.187.221,3.893,3.893,0,0,0-.722.44c-.251.184-.5.4-.755.621a5.057,5.057,0,0,1-.911.616,2.41,2.41,0,0,1-1.16.252,5.29,5.29,0,0,1-2.161-.7l-1.635-.853-1.1-.586-.294-.166c-.068-.04-.1-.06-.1-.065a.361.361,0,0,1,.111.043l.307.143,1.117.548,1.648.828a5.267,5.267,0,0,0,2.108.674,2.284,2.284,0,0,0,1.1-.252,4.886,4.886,0,0,0,.893-.6c.272-.214.523-.43.775-.614a3.959,3.959,0,0,1,.755-.438,2.086,2.086,0,0,1,1.233-.186,1.3,1.3,0,0,1,.325.108A.42.42,0,0,1,319.187,160.475Z" transform="translate(-307.17 -142.644)" fill="#fafafa"/>
        <path id="Path_16683" data-name="Path 16683" d="M319.373,176.776a4.128,4.128,0,0,0-.433-.03,2.7,2.7,0,0,0-1.122.319c-.448.219-.918.594-1.509.918a3.061,3.061,0,0,1-1.006.355,3.4,3.4,0,0,1-1.137-.04,14.535,14.535,0,0,1-2.065-.672,4.491,4.491,0,0,0-1.705-.317,2.458,2.458,0,0,0-1.125.3,2.607,2.607,0,0,0-.355.252c-.008,0,.02-.033.073-.085a1.665,1.665,0,0,1,.251-.2,2.365,2.365,0,0,1,1.145-.35,4.486,4.486,0,0,1,1.761.294,15.571,15.571,0,0,0,2.05.659,3.27,3.27,0,0,0,1.092.04,2.9,2.9,0,0,0,.961-.332c.579-.312,1.059-.684,1.524-.9a2.558,2.558,0,0,1,1.162-.287,1.446,1.446,0,0,1,.324.043A.345.345,0,0,1,319.373,176.776Z" transform="translate(-307.309 -155.038)" fill="#fafafa"/>
      </g>
      <g id="Group_8619" data-name="Group 8619" transform="translate(4.242 4.037)">
        <path id="Path_14202-9" data-name="Path 14202" d="M228.751,167.32l1.006-29.064c.046-1.163.659-2.075,1.407-2.1H263.31a1.11,1.11,0,0,1,.931.614,2.69,2.69,0,0,1,.342,1.482l-1.006,29.064c-.046,1.163-.659,2.075-1.407,2.1H230.024a1.11,1.11,0,0,1-.931-.614A2.69,2.69,0,0,1,228.751,167.32Z" transform="translate(-228.748 -136.16)" fill="#fff"/>
        <path id="Path_14216-3" data-name="Path 14216" d="M257.662,228.032c-2.4,0-4.872-.049-7.3-.178a.117.117,0,0,1-.113-.122.12.12,0,0,1,.124-.113,195.58,195.58,0,0,0,23.178-.45.118.118,0,1,1,.019.234C271.972,227.532,265.235,228.032,257.662,228.032Z" transform="translate(-245.346 -193.93)" fill="#fff"/>
      </g>
    </g>
    <g id="freepik--Plant--inject-294" transform="translate(746.461 334.641)">
      <path id="Path_14677" data-name="Path 14677" d="M590.77,323.419a2.82,2.82,0,0,0-1.208-.417.812.812,0,0,0-.573.106.121.121,0,0,0-.059.1.133.133,0,0,0,.056.071,1.731,1.731,0,0,0,1.787.136" transform="translate(-587.135 -314.049)" fill="#407bff"/>
      <path id="Path_14678" data-name="Path 14678" d="M596.038,308.028a5.868,5.868,0,0,1-.782-.688,1.962,1.962,0,0,1-.49-.906.365.365,0,0,1,.038-.3,3.038,3.038,0,0,1,1.233,1.9" transform="translate(-592.434 -298.694)" fill="#407bff"/>
      <path id="Path_14679" data-name="Path 14679" d="M609.038,308.613a2.809,2.809,0,0,1,.014-1.026,1.386,1.386,0,0,1,.547-.847,1.214,1.214,0,0,1-.014.8,3.9,3.9,0,0,1-.543,1.142" transform="translate(-605.409 -299.249)" fill="#407bff"/>
      <path id="Path_14680" data-name="Path 14680" d="M600.737,340a1.8,1.8,0,0,0-.972.492,1.836,1.836,0,0,0-.555.954,1.3,1.3,0,0,0,.894-.567c.221-.288.379-.6.625-.872" transform="translate(-596.496 -329.537)" fill="#407bff"/>
      <path id="Path_14681" data-name="Path 14681" d="M616.075,318.835a2.4,2.4,0,0,1,.276-2.265,2.881,2.881,0,0,1-.276,2.265" transform="translate(-611.702 -308.201)" fill="#407bff"/>
      <path id="Path_14682" data-name="Path 14682" d="M609.692,352.637a1.733,1.733,0,0,0-1.655.954.128.128,0,0,0-.011.13.123.123,0,0,0,.11.032,1.443,1.443,0,0,0,.854-.441,8.212,8.212,0,0,1,.711-.676" transform="translate(-604.512 -341.041)" fill="#407bff"/>
      <path id="Path_14683" data-name="Path 14683" d="M625.1,328.714a3.077,3.077,0,0,1-.031-1.723.844.844,0,0,1,.367-.559.075.075,0,0,1,.056-.01.078.078,0,0,1,.036.041,1.025,1.025,0,0,1,.089.494,3.06,3.06,0,0,1-.077.5,2.653,2.653,0,0,1-.268.9,1.773,1.773,0,0,0-.106.2c-.032.067-.032.089-.061.144" transform="translate(-619.948 -317.171)" fill="#407bff"/>
      <path id="Path_14684" data-name="Path 14684" d="M649.826,336.314a2.223,2.223,0,0,1,.39-1.827c.028-.036.064-.075.11-.071.071.006.089.1.089.17a3.3,3.3,0,0,1-.584,1.728" transform="translate(-642.534 -324.452)" fill="#407bff"/>
      <path id="Path_14685" data-name="Path 14685" d="M652.59,350.654a2.657,2.657,0,0,0,2.18-.447,1.769,1.769,0,0,0-1.18-.145,1.685,1.685,0,0,0-1,.588" transform="translate(-645.105 -338.661)" fill="#407bff"/>
      <path id="Path_14686" data-name="Path 14686" d="M654.4,340.974a2.523,2.523,0,0,1,1.978-1.144,1.21,1.21,0,0,1-.647.715,3.6,3.6,0,0,1-.95.283.669.669,0,0,0-.382.15" transform="translate(-646.754 -329.382)" fill="#407bff"/>
      <path id="Path_14687" data-name="Path 14687" d="M647.991,307.338a5.772,5.772,0,0,0,.253-1.162,1.93,1.93,0,0,0-.232-1.147,2.524,2.524,0,0,0-.033,2.345" transform="translate(-640.658 -297.692)" fill="#407bff"/>
      <path id="Path_14688" data-name="Path 14688" d="M665.31,307.734a3.1,3.1,0,0,1,2.285-1.554,2.547,2.547,0,0,1-2.285,1.554" transform="translate(-656.689 -298.739)" fill="#407bff"/>
      <path id="Path_14689" data-name="Path 14689" d="M662.15,323.993a8.421,8.421,0,0,1,1.86.786.833.833,0,0,0,.421.08.329.329,0,0,0,.206-.583.9.9,0,0,0-.3-.185,3.392,3.392,0,0,0-2.124-.119" transform="translate(-653.811 -314.838)" fill="#407bff"/>
      <path id="Path_14690" data-name="Path 14690" d="M657.83,330.263a.787.787,0,0,1,.323.223,3.476,3.476,0,0,0,1.411.725c.054.013.124.018.151-.03s-.006-.094-.037-.132a1.952,1.952,0,0,0-.852-.578,2.169,2.169,0,0,0-1-.236" transform="translate(-649.877 -320.64)" fill="#407bff"/>
      <path id="Path_14691" data-name="Path 14691" d="M652.964,298.263a2.671,2.671,0,0,0,2.048.7.137.137,0,0,0,.089-.033c.052-.056-.011-.143-.071-.189a2.357,2.357,0,0,0-2.07-.474" transform="translate(-645.442 -291.464)" fill="#407bff"/>
      <path id="Path_14692" data-name="Path 14692" d="M658.7,291.177a2.854,2.854,0,0,1,2.555-.421,2.034,2.034,0,0,1-1.217.536,3.863,3.863,0,0,1-1.341-.114" transform="translate(-650.67 -284.572)" fill="#407bff"/>
      <path id="Path_14693" data-name="Path 14693" d="M652.927,263.886c-.059-.6-.021-1.072-.062-1.678,0-.048-.014-.106-.059-.123-.062-.024-.115.053-.136.117a1.925,1.925,0,0,0,.256,1.671" transform="translate(-645.099 -258.58)" fill="#407bff"/>
      <path id="Path_14694" data-name="Path 14694" d="M656,263.767a3.521,3.521,0,0,0,.995-.967,1.341,1.341,0,0,0,.317-.92.952.952,0,0,0-.715.358,2,2,0,0,0-.366.735c-.079.268-.135.536-.229.8" transform="translate(-648.211 -258.398)" fill="#407bff"/>
      <path id="Path_14695" data-name="Path 14695" d="M666.763,264.666a8.014,8.014,0,0,0,2.449-1.444,1.249,1.249,0,0,0-.92.071,2.9,2.9,0,0,0-1.542,1.366" transform="translate(-658 -259.565)" fill="#407bff"/>
      <path id="Path_14696" data-name="Path 14696" d="M659,279.5a5.015,5.015,0,0,0,1.359.007,5.791,5.791,0,0,0,1.27-.422.146.146,0,0,0,.089-.066.1.1,0,0,0-.03-.108.265.265,0,0,0-.108-.051,2.354,2.354,0,0,0-1.372.082A6.362,6.362,0,0,0,659,279.5" transform="translate(-650.943 -273.795)" fill="#407bff"/>
      <path id="Path_14697" data-name="Path 14697" d="M627.84,278.9a2.406,2.406,0,0,1-.022-1.99,1.533,1.533,0,0,1,.179.989c-.032.34-.138.69-.144,1.032" transform="translate(-622.361 -272.085)" fill="#407bff"/>
      <path id="Path_14698" data-name="Path 14698" d="M595.343,292.227a2.771,2.771,0,0,0-2.063.879,1.925,1.925,0,0,0,1.13-.209,5.735,5.735,0,0,0,.968-.648" transform="translate(-591.096 -286.033)" fill="#407bff"/>
      <path id="Path_14699" data-name="Path 14699" d="M587.321,288.759a2.872,2.872,0,0,0-1.1.034,1.32,1.32,0,0,0-.839.715,1.99,1.99,0,0,0,1.032-.195,6.008,6.008,0,0,0,.909-.551" transform="translate(-583.902 -282.842)" fill="#407bff"/>
      <path id="Path_14700" data-name="Path 14700" d="M598.318,283.428a3.4,3.4,0,0,0-1.082-.536,1.2,1.2,0,0,0-1.127.268,2.1,2.1,0,0,0,1.072.21,3.749,3.749,0,0,1,1.173.119" transform="translate(-593.673 -277.498)" fill="#407bff"/>
      <path id="Path_14701" data-name="Path 14701" d="M614.141,265.338a2.515,2.515,0,0,1-.566-2.368,3.608,3.608,0,0,1,.566,2.368" transform="translate(-609.494 -259.391)" fill="#407bff"/>
      <path id="Path_14702" data-name="Path 14702" d="M638.67,252.425c.109-.254.186-.52.283-.778a2.248,2.248,0,0,1,.406-.715,1.065,1.065,0,0,1,.715-.372,2.894,2.894,0,0,1-1.394,1.877" transform="translate(-632.429 -248.09)" fill="#407bff"/>
      <path id="Path_14703" data-name="Path 14703" d="M620.169,264.788a3.678,3.678,0,0,0-.634-.772,1.062,1.062,0,0,0-.864-.227,2.011,2.011,0,0,0,1.5,1" transform="translate(-614.217 -260.117)" fill="#407bff"/>
      <path id="Path_14704" data-name="Path 14704" d="M632.929,252.647a4.249,4.249,0,0,1-.286-.926,1.443,1.443,0,0,1,.145-.941,2.144,2.144,0,0,1,.157,1.877" transform="translate(-626.919 -248.29)" fill="#407bff"/>
      <path id="Path_14705" data-name="Path 14705" d="M638.7,237.812a2.014,2.014,0,0,1,1.314-1.236.5.5,0,0,1,.231-.035.2.2,0,0,1,.17.142c.021.1-.062.192-.141.259a4.476,4.476,0,0,1-1.574.87" transform="translate(-632.457 -235.322)" fill="#407bff"/>
      <path id="Path_14706" data-name="Path 14706" d="M638.661,224.923a4.3,4.3,0,0,1,.172-1.139,1.435,1.435,0,0,1,.715-.864,1.682,1.682,0,0,1-.318,1.107,5.048,5.048,0,0,0-.579,1.021" transform="translate(-632.411 -222.92)" fill="#407bff"/>
      <path id="Path_14707" data-name="Path 14707" d="M627.337,227a5.633,5.633,0,0,0-.424-1.365c-.179-.268-.473-.447-.625-.725a1.107,1.107,0,0,0,.037.823,2.383,2.383,0,0,0,.481.688c.192.206.358.358.536.578" transform="translate(-621.097 -224.732)" fill="#407bff"/>
      <path id="Path_14708" data-name="Path 14708" d="M638.472,259.531c-.012,0-.022-2.9-.022-6.469s.008-6.471.02-6.471.021,2.9.022,6.471S638.483,259.531,638.472,259.531Z" transform="translate(-632.229 -244.475)" fill="#263238"/>
      <path id="Path_14709" data-name="Path 14709" d="M641.158,294.29a.661.661,0,0,1-.109.041l-.3.1c-.252.089-.6.211-.977.365a3.654,3.654,0,0,0-.925.464.682.682,0,0,0-.186.247c-.028.068-.034.109-.037.108s0-.01,0-.03a.469.469,0,0,1,.021-.084.647.647,0,0,1,.179-.262,1.612,1.612,0,0,1,.4-.25c.161-.074.339-.153.528-.231.378-.155.727-.275.983-.357.128-.039.232-.069.3-.089a.631.631,0,0,1,.117-.021Z" transform="translate(-632.386 -287.912)" fill="#263238"/>
      <path id="Path_14710" data-name="Path 14710" d="M644.092,271.48a.146.146,0,0,1-.03.032l-.089.089-.347.316-1.155,1.029c-.447.4-.84.785-1.11,1.072-.136.145-.242.264-.314.347l-.084.1a.192.192,0,0,1-.031.031.3.3,0,0,1,.025-.037c.018-.023.043-.058.078-.1.069-.089.172-.21.3-.357a14.693,14.693,0,0,1,1.1-1.085c.452-.4.864-.76,1.162-1.02l.357-.306c.04-.032.073-.059.1-.081A.2.2,0,0,1,644.092,271.48Z" transform="translate(-634.488 -267.14)" fill="#263238"/>
      <path id="Path_14711" data-name="Path 14711" d="M652.669,282.2c-.013,0,.082-.223.179-.5s.139-.507.151-.5a1.714,1.714,0,0,1-.112.518,3.338,3.338,0,0,1-.14.348A.568.568,0,0,1,652.669,282.2Z" transform="translate(-645.176 -275.992)" fill="#263238"/>
      <path id="Path_14712" data-name="Path 14712" d="M621.647,290.459a.51.51,0,0,1-.07-.081l-.179-.228c-.149-.193-.357-.46-.588-.752s-.447-.553-.6-.743l-.179-.225a.607.607,0,0,1-.062-.089.513.513,0,0,1,.075.075c.046.05.112.124.192.216.16.185.377.447.609.736s.435.563.578.761c.072.1.13.179.168.237A.548.548,0,0,1,621.647,290.459Z" transform="translate(-615.401 -282.494)" fill="#263238"/>
      <path id="Path_14713" data-name="Path 14713" d="M629.586,295.128a1.012,1.012,0,0,1-.233-.435,1.255,1.255,0,0,1-.053-.439h.019c-.008.033-.014.051-.018.05s0-.019,0-.054h.018a2.041,2.041,0,0,0,.074.427A3.134,3.134,0,0,0,629.586,295.128Z" transform="translate(-623.895 -287.875)" fill="#263238"/>
      <path id="Path_14714" data-name="Path 14714" d="M611.76,292.136a.81.81,0,0,0-.163-.094,1.087,1.087,0,0,0-.447-.036,2.737,2.737,0,0,0-.454.073,1.483,1.483,0,0,1-.187.045.616.616,0,0,1,.179-.073,2.073,2.073,0,0,1,.458-.089.984.984,0,0,1,.464.05A.289.289,0,0,1,611.76,292.136Z" transform="translate(-606.786 -285.784)" fill="#263238"/>
      <path id="Path_14715" data-name="Path 14715" d="M604.66,288.834c0,.006-.095-.038-.249-.089a2.5,2.5,0,0,0-1.251-.1c-.161.029-.257.058-.26.052a.249.249,0,0,1,.066-.029,1.649,1.649,0,0,1,.188-.053,2.222,2.222,0,0,1,1.27.1,1.513,1.513,0,0,1,.179.081A.226.226,0,0,1,604.66,288.834Z" transform="translate(-599.856 -282.702)" fill="#263238"/>
      <path id="Path_14716" data-name="Path 14716" d="M635.41,268.251a10.974,10.974,0,0,1-.32-1.271,5.265,5.265,0,0,1,.179.631A5.208,5.208,0,0,1,635.41,268.251Z" transform="translate(-629.169 -263.043)" fill="#263238"/>
      <path id="Path_14717" data-name="Path 14717" d="M633.728,274.243a3.211,3.211,0,0,0-.2-.377,1.689,1.689,0,0,0-.3-.306.281.281,0,0,1,.114.059.924.924,0,0,1,.216.222A.849.849,0,0,1,633.728,274.243Z" transform="translate(-627.476 -269.034)" fill="#263238"/>
      <path id="Path_14718" data-name="Path 14718" d="M611.654,331.028s-.014-.07-.046-.192a2.722,2.722,0,0,0-.194-.5,6.95,6.95,0,0,0-1.027-1.447c-.23-.262-.453-.509-.641-.745a5.252,5.252,0,0,1-.458-.661,3.268,3.268,0,0,1-.231-.49c-.021-.061-.037-.108-.045-.14a.269.269,0,0,1-.012-.05s.025.066.072.184a3.674,3.674,0,0,0,.242.482,5.644,5.644,0,0,0,.462.651c.19.234.413.48.643.742a6.59,6.59,0,0,1,1.022,1.462,2.456,2.456,0,0,1,.179.51,1.267,1.267,0,0,1,.026.146A.258.258,0,0,1,611.654,331.028Z" transform="translate(-605.411 -317.516)" fill="#263238"/>
      <path id="Path_14719" data-name="Path 14719" d="M641.024,345.2c-.037.026-.076.05-.116.071a2.656,2.656,0,0,0-.311.206,3.547,3.547,0,0,0-.409.373c-.144.152-.291.327-.442.516-.3.378-.583.715-.751.983a3.168,3.168,0,0,0-.189.323.949.949,0,0,1-.066.121.089.089,0,0,1,.011-.034c.011-.022.022-.054.04-.094a3.085,3.085,0,0,1,.179-.331,10.637,10.637,0,0,1,.744-.99c.151-.188.3-.365.447-.516a3.323,3.323,0,0,1,.419-.369,2.227,2.227,0,0,1,.321-.2c.04-.02.073-.032.089-.041A.379.379,0,0,1,641.024,345.2Z" transform="translate(-632.493 -334.27)" fill="#263238"/>
      <path id="Path_14720" data-name="Path 14720" d="M648.746,354.555a1.722,1.722,0,0,1-.25.037,3.36,3.36,0,0,0-.6.119,1.773,1.773,0,0,0-.536.282c-.124.1-.183.179-.189.17a.213.213,0,0,1,.038-.058.905.905,0,0,1,.132-.135,1.63,1.63,0,0,1,.543-.3,2.682,2.682,0,0,1,.611-.108A1.388,1.388,0,0,1,648.746,354.555Z" transform="translate(-640.17 -342.789)" fill="#263238"/>
      <path id="Path_14721" data-name="Path 14721" d="M647.929,351.607c-.013-.007.1-.179.189-.416s.1-.447.117-.441a.405.405,0,0,1,0,.136,1.516,1.516,0,0,1-.074.32,1.588,1.588,0,0,1-.147.294C647.966,351.569,647.934,351.61,647.929,351.607Z" transform="translate(-640.86 -339.325)" fill="#263238"/>
      <path id="Path_14722" data-name="Path 14722" d="M641.7,320a.3.3,0,0,1-.041.021l-.119.054c-.052.022-.115.051-.187.089s-.155.075-.242.128l-.138.079c-.047.027-.095.06-.146.089-.1.063-.2.139-.313.216a5.872,5.872,0,0,0-.654.575,5.95,5.95,0,0,0-.552.672c-.074.112-.147.216-.2.321-.029.051-.06.1-.089.148s-.05.1-.074.141c-.049.09-.084.173-.119.247s-.061.137-.082.19-.037.089-.05.121a.2.2,0,0,1-.02.041.159.159,0,0,1,.012-.044c.011-.033.025-.073.042-.124s.043-.119.076-.193.066-.16.113-.25l.072-.143c.025-.049.056-.1.09-.151.058-.106.129-.212.2-.325a5.642,5.642,0,0,1,.553-.68,5.8,5.8,0,0,1,.66-.576c.111-.078.214-.153.317-.214.052-.031.1-.064.148-.089l.14-.077c.09-.05.173-.089.246-.122a1.9,1.9,0,0,1,.19-.082l.122-.047A.131.131,0,0,1,641.7,320Z" transform="translate(-632.429 -311.324)" fill="#263238"/>
      <path id="Path_14723" data-name="Path 14723" d="M652.33,330.512a.287.287,0,0,1,.1-.148.631.631,0,0,1,.4-.154,1.1,1.1,0,0,1,.422.082.616.616,0,0,1,.16.078.914.914,0,0,1-.169-.049,1.262,1.262,0,0,0-.411-.069.649.649,0,0,0-.383.134A1.119,1.119,0,0,0,652.33,330.512Z" transform="translate(-644.869 -320.622)" fill="#263238"/>
      <path id="Path_14724" data-name="Path 14724" d="M649.3,329a1.074,1.074,0,0,0,.09-.757.249.249,0,0,1,.047.108.769.769,0,0,1,.02.283.754.754,0,0,1-.085.268C649.335,328.967,649.3,329,649.3,329Z" transform="translate(-642.109 -318.828)" fill="#263238"/>
      <path id="Path_14725" data-name="Path 14725" d="M616.31,378.76a31.688,31.688,0,0,0,3,11.144H626.7a32.01,32.01,0,0,0,2.828-11.144Z" transform="translate(-616.31 -365.348)" fill="#455a64"/>
      <path id="Path_14726" data-name="Path 14726" d="M623.553,398.59c0,.012-.736.021-1.642.021s-1.641-.01-1.641-.021.734-.02,1.641-.02S623.553,398.58,623.553,398.59Z" transform="translate(-615.674 -382.872)" fill="#fafafa"/>
      <path id="Path_14727" data-name="Path 14727" d="M625.067,403.081c0,.012-.689.021-1.539.021s-1.538-.01-1.538-.021.689-.021,1.538-.021S625.067,403.069,625.067,403.081Z" transform="translate(-617.24 -386.961)" fill="#fafafa"/>
    </g>
  </g>
</svg>
