<svg xmlns="http://www.w3.org/2000/svg" width="111.939" height="98.734" viewBox="0 0 111.939 98.734">
  <g id="template" transform="translate(-429.5 -143)">
    <g id="Group_8803" data-name="Group 8803" transform="translate(-673.061 -156.383)">
      <g id="personal-computer" transform="translate(1104.061 314.253)" opacity="0.5">
        <g id="Group_8798" data-name="Group 8798" transform="translate(0 0)">
          <g id="Group_8797" data-name="Group 8797">
            <path id="Path_17754" data-name="Path 17754" d="M103.042,94.838H5.9A5.69,5.69,0,0,0,0,100.269v66.082a5.69,5.69,0,0,0,5.9,5.431l33.83.026v6.217H31.761a2.586,2.586,0,1,0,0,5.173H77.178a2.586,2.586,0,1,0,0-5.173H69.212v-6.217h33.83a5.69,5.69,0,0,0,5.9-5.431V100.269A5.69,5.69,0,0,0,103.042,94.838ZM64.065,178.025H44.9v-6.217H64.065Zm39.7-11.7a.854.854,0,0,1-.724.285H5.9a.957.957,0,0,1-.724-.259V100.295a.854.854,0,0,1,.724-.31h97.145a.957.957,0,0,1,.724.259Z" transform="translate(0 -100.834)" fill="#77a1ff" stroke="#fff" stroke-width="3"/>
          </g>
        </g>
      </g>
      <rect id="Rectangle_6741" data-name="Rectangle 6741" width="66" height="70" rx="3" transform="translate(1124.061 304.383)" fill="#eef3ff" opacity="0.46"/>
      <g id="Rectangle_6742" data-name="Rectangle 6742" transform="translate(1118.061 299.383)" fill="#eef3ff" stroke="#77a1ff" stroke-width="2">
        <rect width="66" height="68" rx="3" stroke="none"/>
        <rect x="1" y="1" width="64" height="66" rx="2" fill="none"/>
      </g>
      <line id="Line_1335" data-name="Line 1335" x2="57" transform="translate(1122.561 310.883)" fill="none" stroke="#407bff" stroke-width="1"/>
      <circle id="Ellipse_1522" data-name="Ellipse 1522" cx="1.5" cy="1.5" r="1.5" transform="translate(1176.061 304.383)" fill="#407bff"/>
      <circle id="Ellipse_1523" data-name="Ellipse 1523" cx="1.5" cy="1.5" r="1.5" transform="translate(1172.061 304.383)" fill="#407bff"/>
      <circle id="Ellipse_1524" data-name="Ellipse 1524" cx="1.5" cy="1.5" r="1.5" transform="translate(1167.061 304.383)" fill="#407bff"/>
      <g id="Group_8801" data-name="Group 8801" transform="translate(1124.846 341.945) rotate(-66)">
        <path id="Path_16970" data-name="Path 16970" d="M3.686,42.948l.419-.183C4.043,42.62-2.107,37.6,1.7,20.9,5.493,4.258,13.4.454,13.481.417L13.291,0C12.959.151,5.1,3.908,1.253,20.8-2.588,37.654,3.622,42.8,3.686,42.948Z" transform="translate(6.455 0.048)" fill="#263238"/>
        <rect id="Rectangle_6651" data-name="Rectangle 6651" width="1.743" height="1.743" transform="matrix(-0.897, 0.442, -0.442, -0.897, 11.219, 14.021)" fill="#455a64"/>
        <rect id="Rectangle_6652" data-name="Rectangle 6652" width="1.308" height="1.308" transform="translate(18.9 0)" fill="#455a64"/>
        <rect id="Rectangle_6653" data-name="Rectangle 6653" width="1.308" height="1.308" transform="translate(9.502 42.361)" fill="#455a64"/>
        <path id="Path_16971" data-name="Path 16971" d="M.008,34.63,12.066.076a.115.115,0,0,1,.218.076L.226,34.706a.117.117,0,0,1-.11.078.1.1,0,0,1-.037,0,.117.117,0,0,1-.071-.153Z" transform="translate(1.291 3.8)" fill="#407bff"/>
        <path id="Path_16972" data-name="Path 16972" d="M0,.6A.589.589,0,1,0,.168.177.591.591,0,0,0,0,.6Z" transform="translate(12.876 3.324)" fill="#455a64"/>
        <path id="Path_16973" data-name="Path 16973" d="M0,.6A.587.587,0,1,0,.167.177.589.589,0,0,0,0,.6Z" transform="translate(0.82 37.998)" fill="#455a64"/>
        <path id="Path_16974" data-name="Path 16974" d="M0,8.524.566,14.69,7.41,17.056l4.251-4.5L10.473.786,8.2,0Z" transform="translate(0.257 14.056)" fill="#407bff"/>
        <path id="Path_16975" data-name="Path 16975" d="M0,2.46,6.62,4.875l.85-2.462L.852,0Z" transform="translate(0 28.675)" fill="#455a64"/>
        <rect id="Rectangle_6654" data-name="Rectangle 6654" width="0.509" height="12.278" transform="matrix(-0.945, -0.327, 0.327, -0.945, 5.957, 26.182)" fill="#fff"/>
        <path id="Path_16976" data-name="Path 16976" d="M.031.379A.561.561,0,1,0,.743.03.561.561,0,0,0,.031.379Z" transform="translate(5.155 25.538)" fill="#fff"/>
      </g>
      <g id="Group_8802" data-name="Group 8802" transform="translate(1203.591 326.732) rotate(101)">
        <g id="Group_8677" data-name="Group 8677" transform="translate(0 0)">
          <path id="Path_16965" data-name="Path 16965" d="M.353,2.983A5.006,5.006,0,0,1,1.6.9C3.109-.55,6.244-.244,7.751,1.788a3.888,3.888,0,0,1,.75,3.4A11.851,11.851,0,0,1,6.778,8a4.6,4.6,0,0,0-.787,3.9s-1.5-1.687-1.383-2.363c-.586,1.829-.09,2.743.875,4.458A6.846,6.846,0,0,0,3.72,12.356,8.666,8.666,0,0,1,2,10.742a2.019,2.019,0,0,0-.208-.326c-.105-.177-.206-.359-.3-.542A8.328,8.328,0,0,1,.8,6.837a4.019,4.019,0,0,0-.16,1.6A7.935,7.935,0,0,1,.353,2.983Z" transform="translate(0 50.717)" fill="#407bff"/>
          <path id="Path_16966" data-name="Path 16966" d="M.576,13.173a2.019,2.019,0,0,1-.547-1.879A5.362,5.362,0,0,1,.39,10.119,96.687,96.687,0,0,1,5.089,0,4.091,4.091,0,0,0,6.537,2.7C7.1,3.2,8.6,3.677,8.83,4.6,8.83,4.6,3.232,15.157.576,13.173Z" transform="translate(3.076 39.833)" fill="#d8e3ff"/>
          <path id="Path_16967" data-name="Path 16967" d="M16.228,27.311c-2.091,4.156-4.18,8.33-6.517,12.292A17.862,17.862,0,0,1,5.4,45.037,3.4,3.4,0,0,1,.463,44.4C-.29,43.175-.012,41.62.5,39.863a22.252,22.252,0,0,1,2.319-4.9C8.438,25.338,14.953,16.019,21.69,6.379A47.471,47.471,0,0,1,25.426,1.5c1.094-1.19,3.609-2.535,3.2-.269C28.5,1.9,26.636,5.67,26.155,6.753c-1.969,4.406-4.069,8.778-6.219,13.125Q18.094,23.605,16.228,27.311Z" transform="translate(5.936 0)" fill="#407bff"/>
          <path id="Path_16968" data-name="Path 16968" d="M2.85,40.058c-.6.75-1.332,1.531-2.538,1.07-.656-.875-.142-1.337.308-1.733C6.746,33.987,21.925,1.883,23.191,0,22.627.643,8.609,32.872,2.85,40.058Z" transform="translate(9.659 2.651)" fill="#fefeff"/>
        </g>
      </g>
    </g>
  </g>
</svg>
