<svg id="Products" xmlns="http://www.w3.org/2000/svg" width="40" height="40" viewBox="0 0 40 40">
  <path id="Path_11438" data-name="Path 11438" d="M20,1.1A18.9,18.9,0,1,1,1.2,20,18.97,18.97,0,0,1,20,1.1M20,0A20,20,0,1,0,40,20,20.059,20.059,0,0,0,20,0Z" fill="#dfdbf2"/>
  <path id="Path_11439" data-name="Path 11439" d="M25.388,16.76v-.844l4.124-3.093a.669.669,0,0,0,.094-1.031L25.2,7.481a.567.567,0,0,0-.562-.281H12.36a.81.81,0,0,0-.562.281L7.487,11.793a.664.664,0,0,0,.094,1.031L11.7,15.916v7.311a.641.641,0,0,0,.656.656h4.405a7.217,7.217,0,1,0,8.623-7.123Zm0-7.217,2.624,2.624-2.624,1.968ZM11.7,14.136,9.08,12.167,11.7,9.543Zm8.154-5.53L18.546,9.731,17.234,8.606ZM13.766,22.477h-.75V8.606h1.875l3.093,2.624a.851.851,0,0,0,.937,0l3.093-2.624h1.875v8.06a7.228,7.228,0,0,0-7.029,5.811A17.046,17.046,0,0,1,13.766,22.477Zm14.34,5.436a5.832,5.832,0,1,1,0-8.248A5.884,5.884,0,0,1,28.106,27.913Zm-.375-4.03a.641.641,0,0,1-.656.656H24.545V27.07a.656.656,0,1,1-1.312,0V24.539H20.7a.656.656,0,0,1,0-1.312h2.531V20.7a.656.656,0,0,1,1.312,0v2.531h2.531A.641.641,0,0,1,27.731,23.883Z" transform="translate(0.8 0.8)" fill="#03a9f4"/>
</svg>
