<svg xmlns="http://www.w3.org/2000/svg" width="20.055" height="20.055" viewBox="0 0 20.055 20.055">
  <g id="shuttle" transform="translate(0 0)">
    <path id="Path_16532" data-name="Path 16532" d="M8.688,132.521a.588.588,0,0,0-.549-.284l-4.775.369a1.551,1.551,0,0,0-1.181.7l-2,3.031a1.074,1.074,0,0,0,.731,1.654l3.872.6a.587.587,0,0,0,.585-.264l3.312-5.181A.588.588,0,0,0,8.688,132.521Z" transform="translate(0 -127.056)" fill="#e45a6e"/>
    <path id="Path_16533" data-name="Path 16533" d="M223.557,288.157a.588.588,0,0,0-.618.009l-5.181,3.312a.588.588,0,0,0-.264.585l.6,3.872a1.073,1.073,0,0,0,1.654.732l3.031-2a1.55,1.55,0,0,0,.7-1.181l.369-4.775A.588.588,0,0,0,223.557,288.157Z" transform="translate(-208.967 -276.79)" fill="#d82e44"/>
    <path id="Path_16534" data-name="Path 16534" d="M95.955,16.149a1.025,1.025,0,0,0,.892.289c4.783-.8,8.568-4.76,10.009-7.546A15.841,15.841,0,0,0,108.432,1a1.03,1.03,0,0,0-.973-.973,15.842,15.842,0,0,0-7.9,1.576c-2.786,1.441-6.746,5.226-7.546,10.009a1.025,1.025,0,0,0,.289.892Z" transform="translate(-88.4 0)" fill="#f1f1fb"/>
    <path id="Path_16535" data-name="Path 16535" d="M160.3,8.261l-14,14,1.824,1.824a1.025,1.025,0,0,0,.892.289c4.783-.8,8.568-4.76,10.009-7.546a15.841,15.841,0,0,0,1.576-7.9,1.028,1.028,0,0,0-.3-.673Z" transform="translate(-140.567 -7.938)" fill="#d7d6fb"/>
    <path id="Path_16536" data-name="Path 16536" d="M278.668,92.181a2.935,2.935,0,1,1,2.077-.859A2.928,2.928,0,0,1,278.668,92.181Zm-1.662-4.6h0Z" transform="translate(-264.929 -82.928)" fill="#466288"/>
    <path id="Path_16537" data-name="Path 16537" d="M92.018,223.585a1.025,1.025,0,0,0,.289.892l3.648,3.648a1.025,1.025,0,0,0,.892.289,11.744,11.744,0,0,0,2.967-.926l-6.87-6.87A11.745,11.745,0,0,0,92.018,223.585Z" transform="translate(-88.4 -211.977)" fill="#466288"/>
    <path id="Path_16538" data-name="Path 16538" d="M.892,346.058a.586.586,0,0,0,.415-.172l1.918-1.918a.588.588,0,1,0-.831-.831L.477,345.055a.588.588,0,0,0,.415,1Z" transform="translate(-0.292 -329.531)" fill="#fdb43a"/>
    <path id="Path_16539" data-name="Path 16539" d="M4.694,388.019a.588.588,0,0,0-.831,0L.176,391.707a.588.588,0,1,0,.831.831l3.688-3.688a.587.587,0,0,0,0-.831Z" transform="translate(-0.003 -372.656)" fill="#fdb43a"/>
    <path id="Path_16540" data-name="Path 16540" d="M92.988,432.9a.588.588,0,0,0-.831,0l-1.918,1.918a.588.588,0,1,0,.831.831l1.918-1.918A.587.587,0,0,0,92.988,432.9Z" transform="translate(-86.538 -415.779)" fill="#f57a21"/>
    <path id="Path_16541" data-name="Path 16541" d="M4.4,396.758a.588.588,0,0,0,.831,0l3.688-3.688a.588.588,0,0,0,0-.831Z" transform="translate(-4.224 -376.875)" fill="#f57a21"/>
    <path id="Path_16542" data-name="Path 16542" d="M146.3,310.555l1.824,1.824a1.025,1.025,0,0,0,.892.289,11.746,11.746,0,0,0,2.967-.926l-3.435-3.435Z" transform="translate(-140.567 -296.231)" fill="#354a67"/>
    <path id="Path_16543" data-name="Path 16543" d="M297.7,112.395a2.938,2.938,0,1,0,4.155-4.155Z" transform="translate(-286.037 -104.001)" fill="#354a67"/>
    <path id="Path_16544" data-name="Path 16544" d="M307.493,116.295a1.761,1.761,0,1,0,1.246.515A1.757,1.757,0,0,0,307.493,116.295Z" transform="translate(-293.754 -111.74)" fill="#4bbefd"/>
    <path id="Path_16545" data-name="Path 16545" d="M321.4,129.454l-2.493,2.493a1.763,1.763,0,1,0,2.493-2.493Z" transform="translate(-306.419 -124.384)" fill="#0590fb"/>
  </g>
</svg>
