<svg xmlns="http://www.w3.org/2000/svg" width="111.939" height="98.734" viewBox="0 0 111.939 98.734">
  <g id="domain" transform="translate(-732.5 -143)">
    <g id="personal-computer" transform="translate(734 157.87)" opacity="0.5">
      <g id="Group_8798" data-name="Group 8798" transform="translate(0 0)">
        <g id="Group_8797" data-name="Group 8797">
          <path id="Path_17754" data-name="Path 17754" d="M103.042,94.838H5.9A5.69,5.69,0,0,0,0,100.269v66.082a5.69,5.69,0,0,0,5.9,5.431l33.83.026v6.217H31.761a2.586,2.586,0,1,0,0,5.173H77.178a2.586,2.586,0,1,0,0-5.173H69.212v-6.217h33.83a5.69,5.69,0,0,0,5.9-5.431V100.269A5.69,5.69,0,0,0,103.042,94.838ZM64.065,178.025H44.9v-6.217H64.065Zm39.7-11.7a.854.854,0,0,1-.724.285H5.9a.957.957,0,0,1-.724-.259V100.295a.854.854,0,0,1,.724-.31h97.145a.957.957,0,0,1,.724.259Z" transform="translate(0 -100.834)" fill="#77a1ff" stroke="#fff" stroke-width="3"/>
        </g>
      </g>
    </g>
    <g id="Rectangle_6737" data-name="Rectangle 6737" transform="translate(754 148)" fill="#eef3ff" stroke="#fff" stroke-width="3">
      <rect width="66" height="70" rx="3" stroke="none"/>
      <rect x="1.5" y="1.5" width="63" height="67" rx="1.5" fill="none"/>
    </g>
    <g id="Rectangle_6738" data-name="Rectangle 6738" transform="translate(748 143)" fill="#eef3ff" stroke="#4981ff" stroke-width="2">
      <rect width="66" height="68" rx="3" stroke="none"/>
      <rect x="1" y="1" width="64" height="66" rx="2" fill="none"/>
    </g>
    <line id="Line_1333" data-name="Line 1333" x2="57" transform="translate(752.5 154.5)" fill="none" stroke="#4981ff" stroke-width="1"/>
    <circle id="Ellipse_1516" data-name="Ellipse 1516" cx="1.5" cy="1.5" r="1.5" transform="translate(806 148)" fill="#4981ff"/>
    <circle id="Ellipse_1517" data-name="Ellipse 1517" cx="1.5" cy="1.5" r="1.5" transform="translate(802 148)" fill="#4981ff"/>
    <circle id="Ellipse_1518" data-name="Ellipse 1518" cx="1.5" cy="1.5" r="1.5" transform="translate(797 148)" fill="#4981ff"/>
    <g id="_007-domain" data-name="007-domain" transform="translate(760.252 159.774)">
      <path id="Path_17742" data-name="Path 17742" d="M44.518,36.992a.618.618,0,0,0,.114-.2,21.3,21.3,0,0,0,0-21.341.618.618,0,0,0-.114-.2A21.464,21.464,0,0,0,32.063,5.6a.623.623,0,0,0-.167-.049,21.263,21.263,0,0,0-11.544,0,.635.635,0,0,0-.165.047A21.462,21.462,0,0,0,7.73,15.256a.618.618,0,0,0-.114.2,21.3,21.3,0,0,0,0,21.341.618.618,0,0,0,.114.2,21.462,21.462,0,0,0,12.446,9.658.636.636,0,0,0,.174.049,21.264,21.264,0,0,0,11.547,0,.63.63,0,0,0,.182-.052A21.464,21.464,0,0,0,44.518,36.992ZM26.755,46.219v-9h8.626a22.723,22.723,0,0,1-3.929,8.3,20.037,20.037,0,0,1-4.7.706Zm-5.96-.706a22.709,22.709,0,0,1-3.929-8.3h8.626v9a20.037,20.037,0,0,1-4.7-.706ZM6.028,26.754h2.78v4.961a.632.632,0,0,0,.631.631H14.6c.167,1.235.385,2.442.649,3.607H8.588a19.972,19.972,0,0,1-2.56-9.2ZM8.59,16.293h6.664c-.265,1.165-.482,2.373-.649,3.607H9.44a.632.632,0,0,0-.631.632v4.96H6.028a19.972,19.972,0,0,1,2.56-9.2Zm16.9-10.265v9H16.866a22.723,22.723,0,0,1,3.929-8.3,20.036,20.036,0,0,1,4.7-.706Zm5.96.706a22.709,22.709,0,0,1,3.929,8.3H26.755v-9a20.036,20.036,0,0,1,4.7.706ZM46.22,25.493H43.44V20.532a.632.632,0,0,0-.631-.631H37.644c-.167-1.235-.385-2.442-.649-3.607H43.66a19.972,19.972,0,0,1,2.56,9.2ZM43.658,35.955H36.995c.265-1.165.482-2.373.649-3.607h5.164a.632.632,0,0,0,.631-.632v-4.96h2.78a19.972,19.972,0,0,1-2.56,9.2Zm-16.9,0V32.347h9.615c-.173,1.238-.4,2.445-.672,3.607ZM10.071,31.084v-9.92H42.177v9.92ZM36.369,19.9H26.755V16.294H35.7C35.972,17.455,36.2,18.663,36.369,19.9ZM25.492,16.294V19.9H15.879c.173-1.238.4-2.445.672-3.607ZM15.879,32.347h9.614v3.607H16.549c-.274-1.162-.5-2.37-.671-3.607ZM33.5,44.828a26.731,26.731,0,0,0,3.185-7.612h6.2a20.219,20.219,0,0,1-9.387,7.61Zm9.386-29.8h-6.2A26.754,26.754,0,0,0,33.5,7.419a20.223,20.223,0,0,1,9.386,7.612ZM18.747,7.419a26.748,26.748,0,0,0-3.185,7.612H9.36A20.22,20.22,0,0,1,18.746,7.42ZM9.36,37.217h6.2a26.737,26.737,0,0,0,3.185,7.612A20.222,20.222,0,0,1,9.36,37.217Z" transform="translate(-4.75 -4.75)" fill="#4981ff"/>
      <path id="Path_17743" data-name="Path 17743" d="M35.564,60.436l-1.255-3.811H33.256l-1.262,3.811-1.139-3.811H29.794l1.689,5.321h.96L33.783,58l1.332,3.95h.968l1.68-5.321H36.7Z" transform="translate(-20.76 -37.911)" fill="#4981ff"/>
      <path id="Path_17744" data-name="Path 17744" d="M58.275,61.946h.968l1.681-5.321H59.862l-1.138,3.811-1.255-3.811H56.416l-1.263,3.811-1.138-3.811H52.954l1.688,5.321H55.6L56.943,58Z" transform="translate(-35.565 -37.911)" fill="#4981ff"/>
      <path id="Path_17745" data-name="Path 17745" d="M78.763,61.946,80.1,58l1.332,3.95H82.4l1.681-5.321H83.022l-1.139,3.811-1.255-3.811H79.576l-1.262,3.811-1.139-3.811H76.114L77.8,61.946Z" transform="translate(-50.37 -37.911)" fill="#4981ff"/>
    </g>
  </g>
</svg>
