<svg id="Shipping" xmlns="http://www.w3.org/2000/svg" width="80" height="80" viewBox="0 0 80 80">
  <path id="Path_11444" data-name="Path 11444" d="M40,2.2A37.8,37.8,0,1,1,2.2,40,37.77,37.77,0,0,1,40,2.2M40,0A40,40,0,1,0,80,40,39.989,39.989,0,0,0,40,0Z" fill="#dfdbf2"/>
  <path id="Path_11445" data-name="Path 11445" d="M44.584,23.988h6.254a4.582,4.582,0,0,1,3.92,2.24L60.079,35.1a4.23,4.23,0,0,1,4.014,4.294V49a4.382,4.382,0,0,1-4.387,4.387h-.373a6.879,6.879,0,0,1-6.814,6.627A6.753,6.753,0,0,1,45.7,53.391H30.956a6.963,6.963,0,0,1-6.908,6.627,6.753,6.753,0,0,1-6.814-6.627h-3.64A1.474,1.474,0,0,1,12.1,51.9v-33.6A1.474,1.474,0,0,1,13.594,16.8H43a1.474,1.474,0,0,1,1.494,1.494l.093,5.694ZM16.02,22.867a1.494,1.494,0,0,1,0,2.987h-.933V45.363h.933a1.494,1.494,0,1,1,0,2.987h-.933v1.96h2.707A6.826,6.826,0,0,1,28.9,48.257a7.985,7.985,0,0,1,1.4,2.054H41.41V19.787H15.087v3.08Zm36.5,28.75a1.494,1.494,0,1,0,1.494,1.494A1.474,1.474,0,0,0,52.518,51.618Zm-28.47,0a1.494,1.494,0,1,0,1.494,1.494A1.42,1.42,0,0,0,24.048,51.618Zm36.964-3.174h-.933a1.494,1.494,0,0,1,0-2.987h.933V39.483a.983.983,0,0,0-.373-.933,2.368,2.368,0,0,0-1.494-.373H49.251a1.474,1.474,0,0,1-1.494-1.494V31.548a1.494,1.494,0,1,1,2.987,0v3.64h5.6l-4.387-7.281a1.412,1.412,0,0,0-1.307-.653H44.4V50.591h1.68a6.826,6.826,0,0,1,11.108-2.054,7.985,7.985,0,0,1,1.4,2.054h.933a1.276,1.276,0,0,0,1.307-1.307v-.747h.187ZM55.225,50.4a3.828,3.828,0,1,0,0,5.414A3.831,3.831,0,0,0,55.225,50.4Zm-28.47,0a3.828,3.828,0,1,0,0,5.414A3.831,3.831,0,0,0,26.755,50.4Z" transform="translate(1.9 1.2)" fill="#03a9f4" fill-rule="evenodd"/>
</svg>
