<svg xmlns="http://www.w3.org/2000/svg" width="52.206" height="39.285" viewBox="0 0 52.206 39.285">
  <g id="Shipping" transform="translate(-184 -47.96)">
    <path id="Path_17332" data-name="Path 17332" d="M215.5,48.961,185,69.01V58.871l15.249-9.91Z" transform="translate(0.631 0.632)" fill="#a1d0ff"/>
    <path id="Path_17333" data-name="Path 17333" d="M236.206,69.56l-6.412-13.313h-12.04V47.96H184V82.3h5.922a6.556,6.556,0,0,0,12.709,0h16.055a6.539,6.539,0,0,0,12.681,0h4.839Zm-48.943-9.17,14.1-9.165h9.314L187.263,66.617Zm8.116-9.167L187.263,56.5V51.223Zm.905,32.759a3.3,3.3,0,1,1,0-6.607,3.3,3.3,0,0,1,0,6.607Zm18.207-4.943H202.631a6.561,6.561,0,0,0-12.709,0h-2.659V70.521l27.229-17.9V79.039Zm10.536,4.942a3.307,3.307,0,1,1,3.307-3.307A3.311,3.311,0,0,1,225.028,83.981Zm7.916-4.942h-1.578a6.539,6.539,0,0,0-12.678,0h-.933V59.511h9.984l5.2,10.784Z" fill="#3b90f4"/>
  </g>
</svg>
