<svg id="shop_1_" data-name="shop (1)" xmlns="http://www.w3.org/2000/svg" width="39.898" height="39.898" viewBox="0 0 39.898 39.898">
  <rect id="Rectangle_6544" data-name="Rectangle 6544" width="34.661" height="25.767" transform="translate(2.577 10.639)" fill="#ffd15c"/>
  <rect id="Rectangle_6545" data-name="Rectangle 6545" width="12.634" height="18.619" transform="translate(22.11 17.788)" fill="#415a6b"/>
  <rect id="Rectangle_6546" data-name="Rectangle 6546" width="10.141" height="16.125" transform="translate(23.357 19.035)" fill="#8ad7f8"/>
  <path id="Path_16558" data-name="Path 16558" d="M0,102.4v3.74a3.939,3.939,0,0,0,3.99,3.99,3.939,3.939,0,0,0,3.99-3.99V102.4Z" transform="translate(0 -94.42)" fill="#f05540"/>
  <path id="Path_16559" data-name="Path 16559" d="M102.4,102.4v3.74a3.99,3.99,0,1,0,7.98,0V102.4Z" transform="translate(-94.42 -94.42)" fill="#e8eae9"/>
  <path id="Path_16560" data-name="Path 16560" d="M204.8,102.4v3.74a3.99,3.99,0,1,0,7.98,0V102.4Z" transform="translate(-188.841 -94.42)" fill="#f05540"/>
  <path id="Path_16561" data-name="Path 16561" d="M307.2,102.4v3.74a3.99,3.99,0,0,0,7.98,0V102.4Z" transform="translate(-283.261 -94.42)" fill="#e8eae9"/>
  <path id="Path_16562" data-name="Path 16562" d="M409.6,102.4v3.74a3.99,3.99,0,1,0,7.98,0V102.4Z" transform="translate(-377.682 -94.42)" fill="#f05540"/>
  <path id="Path_16563" data-name="Path 16563" d="M9.725,0H2.909L0,7.98H7.98Z" fill="#f3705a"/>
  <path id="Path_16564" data-name="Path 16564" d="M110.961,0h-6.816L102.4,7.98h7.98Z" transform="translate(-94.42)" fill="#f3f3f3"/>
  <path id="Path_16565" data-name="Path 16565" d="M212.2,0h-6.816L204.8,7.98h7.98Z" transform="translate(-188.841)" fill="#f3705a"/>
  <path id="Path_16566" data-name="Path 16566" d="M306.549,0h-6.816l.582,7.98h7.98Z" transform="translate(-276.376)" fill="#f3f3f3"/>
  <path id="Path_16567" data-name="Path 16567" d="M394.016,0H387.2l1.746,7.98h7.98Z" transform="translate(-357.027)" fill="#f3705a"/>
  <rect id="Rectangle_6547" data-name="Rectangle 6547" width="39.898" height="3.491" transform="translate(0 36.407)" fill="#ced6e0"/>
  <g id="Group_8567" data-name="Group 8567" transform="translate(5.07 17.788)">
    <circle id="Ellipse_1473" data-name="Ellipse 1473" cx="1.081" cy="1.081" r="1.081" transform="translate(18.785 8.229)" fill="#415a6b"/>
    <rect id="Rectangle_6548" data-name="Rectangle 6548" width="14.047" height="12.634" fill="#415a6b"/>
  </g>
  <rect id="Rectangle_6549" data-name="Rectangle 6549" width="11.554" height="10.141" transform="translate(6.317 19.035)" fill="#8ad7f8"/>
  <g id="Group_8568" data-name="Group 8568" transform="translate(7.439 20.489)">
    <path id="Path_16568" data-name="Path 16568" d="M100.413,263.058a.624.624,0,0,0-.748,0l-4.073,4.073a.529.529,0,0,0,.748.748l4.073-4.073A.466.466,0,0,0,100.413,263.058Z" transform="translate(-95.467 -262.933)" fill="#55c0eb"/>
    <path id="Path_16569" data-name="Path 16569" d="M129.85,293.992a.624.624,0,0,0-.748,0l-2.577,2.577a.529.529,0,1,0,.748.748l2.577-2.577A.466.466,0,0,0,129.85,293.992Z" transform="translate(-123.99 -291.457)" fill="#55c0eb"/>
  </g>
</svg>
