<svg xmlns="http://www.w3.org/2000/svg" width="60" height="60" viewBox="0 0 60 60">
  <g id="Group_8649" data-name="Group 8649" transform="translate(-1462 -1327)">
    <rect id="Rectangle_6609" data-name="Rectangle 6609" width="60" height="60" transform="translate(1462 1327)" fill="#fff" opacity="0"/>
    <g id="Group_8646" data-name="Group 8646" transform="translate(646 298)">
      <g id="Group_8630" data-name="Group 8630" transform="translate(816 1041.197)">
        <g id="Group_8627" data-name="Group 8627" transform="translate(0 0)">
          <g id="Mobile_payments-rafiki" data-name="Mobile payments-rafiki" transform="translate(0 0)">
            <g id="freepik--background-simple--inject-494">
              <path id="Path_16844" data-name="Path 16844" d="M117.81,111.272c5.2,12.485-18.106,21.355-31.155,20.96-16.51-.5-26.688-8.293-28.016-21.96-1.317-13.544,13.018-23.05,25.152-18.679,5.98,2.154,10.711,6.765,16.69,9.037C107.581,103.324,114.559,103.47,117.81,111.272Z" transform="translate(-58.555 -90.518)" fill="#f7f7f7"/>
            </g>
          </g>
        </g>
      </g>
      <g id="language_1_" data-name="language (1)" transform="translate(824.214 1036)">
        <g id="Group_8632" data-name="Group 8632" transform="translate(9.649 10.99)">
          <g id="Group_8631" data-name="Group 8631">
            <path id="Path_16853" data-name="Path 16853" d="M121.77,137h-.515l-.962,4.813h2.44Z" transform="translate(-120.293 -137)" fill="#407bff"/>
          </g>
        </g>
        <g id="Group_8634" data-name="Group 8634" transform="translate(30.592 20.615)">
          <g id="Group_8633" data-name="Group 8633">
            <path id="Path_16854" data-name="Path 16854" d="M381.374,257a12.574,12.574,0,0,0,1.975,3.487A12.7,12.7,0,0,0,385.4,257Z" transform="translate(-381.374 -257)" fill="#407bff"/>
          </g>
        </g>
        <g id="Group_8636" data-name="Group 8636" transform="translate(19.465 7.3)">
          <g id="Group_8635" data-name="Group 8635">
            <path id="Path_16855" data-name="Path 16855" d="M260.658,91H245.715l3.116,25a3.735,3.735,0,0,1-.892,2.739l-5.276,6.03h18a3.614,3.614,0,0,0,3.61-3.61V94.69A3.683,3.683,0,0,0,260.658,91Zm0,13.316h-.321a15.267,15.267,0,0,1-2.9,5.27c.884.808,1.829,1.471,2.769,2.213a1.2,1.2,0,1,1-1.5,1.878c-1.021-.806-1.979-1.481-2.938-2.36-.958.879-1.837,1.554-2.858,2.36a1.2,1.2,0,0,1-1.5-1.878c.94-.742,1.8-1.405,2.689-2.213a15.186,15.186,0,0,1-2.818-5.27h-.321a1.2,1.2,0,1,1,0-2.406h3.61v-1.2a1.2,1.2,0,0,1,2.406,0v1.2h3.69a1.2,1.2,0,1,1,0,2.406Z" transform="translate(-242.663 -91)" fill="#407bff"/>
          </g>
        </g>
        <g id="Group_8638" data-name="Group 8638" transform="translate(0 0)">
          <g id="Group_8637" data-name="Group 8637">
            <path id="Path_16856" data-name="Path 16856" d="M19.586,3.162A3.615,3.615,0,0,0,16,0H3.61A3.614,3.614,0,0,0,0,3.61V30.241a3.614,3.614,0,0,0,3.61,3.61H22.585c.351-.4.645-.652.658-1.176C23.246,32.543,19.6,3.292,19.586,3.162ZM14.755,23a1.2,1.2,0,0,1-1.416-.944l-.769-3.846h-3.4L8.4,22.055a1.2,1.2,0,1,1-2.359-.472L8.446,9.55a1.2,1.2,0,0,1,1.18-.967h2.487a1.2,1.2,0,0,1,1.18.967L15.7,21.583A1.2,1.2,0,0,1,14.755,23Z" transform="translate(0 0)" fill="#407bff"/>
          </g>
        </g>
        <g id="Group_8640" data-name="Group 8640" transform="translate(14.059 36.257)">
          <g id="Group_8639" data-name="Group 8639">
            <path id="Path_16857" data-name="Path 16857" d="M175.261,452l.206,1.651a3.639,3.639,0,0,0,2.081,2.8l4.04-4.447Z" transform="translate(-175.261 -452)" fill="#407bff"/>
          </g>
        </g>
      </g>
    </g>
  </g>
</svg>
