<svg xmlns="http://www.w3.org/2000/svg" width="104.922" height="136.698">
    <defs>
        <style>
            .cls-1{fill:#2b5aa9}.cls-2{fill:#f4c243}
        </style>
    </defs>
    <g id="Char_neutral" transform="translate(-642.008 -543.9)">
        <g id="Group_153" data-name="Group 153" transform="translate(642.008 543.9)">
            <path id="Path_123" data-name="Path 123" class="cls-1" d="M665.01 642.483c-11.951-11.88-27.673-28.228-21.689-46.676 3.1-9.57 11.122-15.94 20.516-18.771a29.723 29.723 0 0 0 14.934-10.13c2.477-3.163 4.523-6.642 6.956-9.84 4.924-6.473 13.343-11.339 21.313-12.787 6.431-1.169 13.72.333 18.626 4.868 2.4 2.219 3.942 5.688 2.966 8.808-.894 2.856-3.558 4.7-5.742 6.749-1.729 1.62-3.59 3.952-3.282 6.466a5.257 5.257 0 0 0 2.835 4 8.588 8.588 0 0 0 4.852.514c2.607-.319 5.157-1.058 7.778-1.22 10.3-.639 15.008 12.284 9.585 19.9-3.506 4.924-11.356 7.9-17.227 5.795-3.45-1.239-7.39-1.985-10.968-1.011-2.359.642-4.583 1.705-6.925 2.411-7.543 2.271-14.207-1.231-21.634-1.757a17.169 17.169 0 0 0-9.827 1.934c-5.213 3.026-6.523 9.7-7.017 15.22-.693 7.74-.667 15.5-1.7 23.227-.346 2.561-2.06 4.577-4.35 2.3z" transform="translate(-642.008 -543.9)"/>
        </g>
        <g id="Group_154" data-name="Group 154" transform="translate(701.328 626.607)">
            <path id="Path_124" data-name="Path 124" class="cls-1" d="M834.943 828.237a.783.783 0 0 1-.7-1.14c1.237-2.426 2.484-5.4 2.428-6.182a68.011 68.011 0 0 0-2.469-8.063.784.784 0 1 1 1.478-.523c.25.707 2.446 6.947 2.555 8.474.115 1.6-2.142 6.117-2.6 7.006a.783.783 0 0 1-.692.428z" transform="translate(-834.16 -811.807)"/>
        </g>
        <g id="Group_155" data-name="Group 155" transform="translate(675.369 618.823)">
            <path id="Path_125" data-name="Path 125" class="cls-1" d="M750.857 794.463h-.028a.784.784 0 0 1-.756-.811c.168-4.789 2.548-6.8 2.649-6.88a.784.784 0 0 1 1 1.208c-.09.077-1.941 1.707-2.082 5.728a.783.783 0 0 1-.783.755z" transform="translate(-750.072 -786.593)"/>
        </g>
        <g id="Group_156" data-name="Group 156" transform="translate(701.328 605.871)">
            <path id="Path_126" data-name="Path 126" class="cls-1" d="M834.945 748.838a.784.784 0 0 1-.5-1.384c.181-.152 4.48-3.71 8.942-2.6a.784.784 0 0 1-.378 1.521c-3.694-.917-7.518 2.25-7.556 2.282a.78.78 0 0 1-.508.181z" transform="translate(-834.16 -744.639)"/>
        </g>
        <g id="Group_157" data-name="Group 157" transform="translate(689.295 660.601)">
            <path id="Path_127" data-name="Path 127" class="cls-1" d="M800.85 924.336a13.22 13.22 0 0 1-5.216-.921.784.784 0 0 1 .661-1.422 12.435 12.435 0 0 0 5.2.762.784.784 0 0 1 .063 1.566 15.56 15.56 0 0 1-.708.015z" transform="translate(-795.182 -921.92)"/>
        </g>
        <g id="Group_158" data-name="Group 158" transform="translate(651.488 637.798)">
            <path id="Path_128" data-name="Path 128" class="cls-1" d="M681.779 866.184a9.063 9.063 0 1 1 7.3-14.436 1.154 1.154 0 0 1-1.859 1.37 6.754 6.754 0 1 0-5.44 10.758 6.705 6.705 0 0 0 3.916-1.25 1.154 1.154 0 0 1 1.34 1.88 9 9 0 0 1-5.257 1.678z" transform="translate(-672.716 -848.058)"/>
        </g>
        <g id="Group_159" data-name="Group 159" transform="translate(671.839 610.952)">
            <path id="Path_129" data-name="Path 129" class="cls-2" d="M753.252 796.553c-8.057 0-14.613-7.953-14.613-17.729s6.555-17.729 14.613-17.729 14.613 7.953 14.613 17.729-6.555 17.729-14.613 17.729zm0-33.5c-6.977 0-12.653 7.074-12.653 15.769s5.676 15.77 12.653 15.77 12.654-7.074 12.654-15.77-5.677-15.767-12.654-15.767z" transform="translate(-738.639 -761.095)"/>
        </g>
        <g id="Group_160" data-name="Group 160" transform="translate(662.065 619.493)">
            <path id="Path_130" data-name="Path 130" class="cls-1" d="M750.568 849.867a39.834 39.834 0 0 1-9.3-1.226c-19.109-4.622-33.448-23.115-34.049-23.9a1.154 1.154 0 0 1 1.833-1.4c.142.186 14.455 18.633 32.758 23.06 8.871 2.146 15.58 1.316 19.94-2.466 6.557-5.687 6.081-16.413 5.779-19.565-1.276-13.315-5.659-34-5.7-34.21a1.154 1.154 0 1 1 2.258-.48c.044.209 4.455 21.023 5.744 34.47.328 3.429.826 15.118-6.565 21.529-3.226 2.788-7.475 4.188-12.698 4.188z" transform="translate(-706.977 -788.762)"/>
        </g>
        <g id="Group_161" data-name="Group 161" transform="translate(701.132 601.222)">
            <path id="Path_131" data-name="Path 131" class="cls-2" d="M849.436 766.224c-8.773 0-15.91-8.22-15.91-18.323s7.137-18.323 15.91-18.323 15.91 8.22 15.91 18.323-7.137 18.323-15.91 18.323zm0-34.686c-7.693 0-13.951 7.34-13.951 16.364s6.258 16.363 13.951 16.363 13.951-7.341 13.951-16.363-6.259-16.364-13.951-16.364z" transform="translate(-833.526 -729.578)"/>
        </g>
        <g id="Group_162" data-name="Group 162" transform="translate(684.976 625.973)">
            <circle id="Ellipse_15" data-name="Ellipse 15" class="cls-1" cx="2.707" cy="2.707" r="2.707"/>
        </g>
        <g id="Group_163" data-name="Group 163" transform="translate(706.237 617.343)">
            <circle id="Ellipse_16" data-name="Ellipse 16" class="cls-1" cx="2.707" cy="2.707" r="2.707"/>
        </g>
    </g>
</svg>
