<svg id="SvgjsSvg1038" width="288" height="288" xmlns="http://www.w3.org/2000/svg" version="1.1" xmlns:xlink="http://www.w3.org/1999/xlink" xmlns:svgjs="http://svgjs.com/svgjs"><defs id="SvgjsDefs1039"></defs><g id="SvgjsG1040"><svg xmlns="http://www.w3.org/2000/svg" width="288" height="288" enable-background="new 0 0 512.004 512.004" viewBox="0 0 512.004 512.004"><path d="M249.544 462.814c-4.143 0-7.5 3.357-7.5 7.5s3.357 7.5 7.5 7.5h12.916c4.143 0 7.5-3.357 7.5-7.5s-3.357-7.5-7.5-7.5zM408.276 441.891c0-19.135 0-386.013 0-401.044v-.001c0-3.952-2.922-7.367-6.679-8.159-.537-.113-1.091-.173-1.655-.173-9.477 0-272.912 0-287.881 0-4.517 0-8.334 3.814-8.334 8.332v.001 401.044c0 4.518 3.816 8.334 8.334 8.334h287.881c4.518 0 8.334-3.817 8.334-8.334zm-289.548-394.377h28.231v20.975h-28.231zm274.548 20.974h-119.774c-4.143 0-7.5 3.357-7.5 7.5s3.357 7.5 7.5 7.5h119.774v351.736h-274.548v-351.736h119.774c4.143 0 7.5-3.357 7.5-7.5s-3.357-7.5-7.5-7.5h-76.543v-20.974h231.317z" fill="#3398dc" class="color000 svgShape"></path><path d="M188.61 186.058h-32.322c-8.678 0-15.738 7.061-15.738 15.738v32.321c0 8.678 7.061 15.738 15.738 15.738h32.322c8.678 0 15.737-7.061 15.737-15.738v-32.321c.001-8.678-7.059-15.738-15.737-15.738zm.738 48.059c0 .407-.331.738-.737.738h-32.323c-.407 0-.738-.331-.738-.738v-32.321c0-.407.331-.738.738-.738h32.322c.406 0 .737.331.737.738v32.321zM363.953 196.804h-134.106c-4.143 0-7.5 3.357-7.5 7.5s3.357 7.5 7.5 7.5h134.106c4.143 0 7.5-3.357 7.5-7.5s-3.357-7.5-7.5-7.5zM363.953 224.108h-134.106c-4.143 0-7.5 3.357-7.5 7.5s3.357 7.5 7.5 7.5h134.106c4.143 0 7.5-3.357 7.5-7.5s-3.357-7.5-7.5-7.5zM188.61 102.356h-32.322c-8.678 0-15.738 7.061-15.738 15.738v32.321c0 8.678 7.061 15.738 15.738 15.738h32.322c8.678 0 15.737-7.061 15.737-15.738v-32.321c.001-8.677-7.059-15.738-15.737-15.738zm.738 48.06c0 .407-.331.738-.737.738h-32.323c-.407 0-.738-.331-.738-.738v-32.321c0-.407.331-.738.738-.738h32.322c.406 0 .737.331.737.738v32.321zM222.347 120.604c0 4.143 3.357 7.5 7.5 7.5h134.106c4.143 0 7.5-3.357 7.5-7.5s-3.357-7.5-7.5-7.5h-134.106c-4.143 0-7.5 3.357-7.5 7.5zM363.953 140.408h-134.106c-4.143 0-7.5 3.357-7.5 7.5s3.357 7.5 7.5 7.5h134.106c4.143 0 7.5-3.357 7.5-7.5s-3.357-7.5-7.5-7.5zM188.61 269.759h-32.322c-8.678 0-15.738 7.06-15.738 15.737v32.322c0 8.678 7.061 15.738 15.738 15.738h32.322c8.678 0 15.737-7.061 15.737-15.738v-32.322c.001-8.678-7.059-15.737-15.737-15.737zm.738 48.059c0 .407-.331.738-.737.738h-32.323c-.407 0-.738-.331-.738-.738v-32.322c0-.406.331-.737.738-.737h32.322c.406 0 .737.331.737.737v32.322zM363.953 280.505h-134.106c-4.143 0-7.5 3.357-7.5 7.5s3.357 7.5 7.5 7.5h134.106c4.143 0 7.5-3.357 7.5-7.5s-3.357-7.5-7.5-7.5zM363.953 307.81h-134.106c-4.143 0-7.5 3.357-7.5 7.5s3.357 7.5 7.5 7.5h134.106c4.143 0 7.5-3.357 7.5-7.5s-3.357-7.5-7.5-7.5zM188.61 353.46h-32.322c-8.678 0-15.738 7.06-15.738 15.737v32.322c0 8.678 7.061 15.738 15.738 15.738h32.322c8.678 0 15.737-7.061 15.737-15.738v-32.322c.001-8.677-7.059-15.737-15.737-15.737zm.738 48.06c0 .407-.331.738-.737.738h-32.323c-.407 0-.738-.331-.738-.738v-32.322c0-.406.331-.737.738-.737h32.322c.406 0 .737.331.737.737v32.322zM363.953 364.206h-134.106c-4.143 0-7.5 3.357-7.5 7.5s3.357 7.5 7.5 7.5h134.106c4.143 0 7.5-3.357 7.5-7.5s-3.357-7.5-7.5-7.5zM363.953 391.511h-134.106c-4.143 0-7.5 3.357-7.5 7.5s3.357 7.5 7.5 7.5h134.106c4.143 0 7.5-3.357 7.5-7.5s-3.357-7.5-7.5-7.5z" fill="#3398dc" class="color000 svgShape"></path><path d="m399.943 0h-287.882c-22.523 0-40.847 18.324-40.847 40.847v430.307c0 22.522 18.324 40.846 40.847 40.846h287.882c22.522 0 40.847-18.324 40.847-40.847v-197.653c0-4.143-3.357-7.5-7.5-7.5s-7.5 3.357-7.5 7.5v197.653c0 14.252-11.595 25.847-25.847 25.847h-287.882c-14.252 0-25.847-11.595-25.847-25.847v-430.306c0-14.252 11.595-25.847 25.847-25.847h287.882c14.252 0 25.847 11.595 25.847 25.847v197.653c0 4.143 3.357 7.5 7.5 7.5s7.5-3.357 7.5-7.5v-197.653c-.001-22.523-18.325-40.847-40.847-40.847z" fill="#3398dc" class="color000 svgShape"></path></svg></g></svg>