<svg xmlns="http://www.w3.org/2000/svg" width="334.481" height="260.567" viewBox="0 0 334.481 260.567">
  <g id="Group_181" data-name="Group 181" transform="translate(-8646.76 -1097.145)">
    <g id="web-search-engine" transform="translate(8646.76 1040.574)">
      <g id="Group_180" data-name="Group 180" transform="translate(0 56.571)">
        <path id="Path_739" data-name="Path 739" d="M422.248,244.065A16.77,16.77,0,0,0,446.9,258.873l4.495,4.495a4.9,4.9,0,1,0,6.929-6.929l-4.495-4.495a16.776,16.776,0,1,0-31.586-7.879Zm23.757,0a6.943,6.943,0,0,1-1.864,4.732c-.067.06-.137.118-.2.182s-.121.134-.182.2a6.969,6.969,0,1,1,2.247-5.116Z" transform="translate(-146.4 -115.761)" fill="#009cf5"/>
        <path id="Path_740" data-name="Path 740" d="M329.582,146.978H316.17a4.9,4.9,0,1,0,0,9.8h8.512v60.154H264.528V156.777H293.3a4.9,4.9,0,1,0,0-9.8H291.3A131.372,131.372,0,0,0,246.441,83.4a129.1,129.1,0,0,0-78.416-26.821c-.557-.013,0,0-1.567,0A130.177,130.177,0,0,0,100.314,75.05a4.9,4.9,0,0,0,5.04,8.4,119.746,119.746,0,0,1,29.219-12.582c-9.829,9.234-18.334,22.613-24.822,39.151H74.442a121.232,121.232,0,0,1,13.2-13.609,4.9,4.9,0,1,0-6.473-7.357,129.991,129.991,0,0,0-37.988,57.92H4.9a4.9,4.9,0,0,0-4.9,4.9v69.954a4.9,4.9,0,0,0,4.9,4.9H43.183a131.372,131.372,0,0,0,44.857,63.58,129.1,129.1,0,0,0,78.417,26.821c.254,0,.381.014,1.567,0a129.1,129.1,0,0,0,78.417-26.821,131.372,131.372,0,0,0,44.857-63.58h38.283a4.9,4.9,0,0,0,4.9-4.9V151.877A4.9,4.9,0,0,0,329.582,146.978Zm-69.954,0H234.795a198.862,198.862,0,0,0-6.577-27.156H267.3a118.949,118.949,0,0,1,13.659,27.156Zm-149.991,0a183.775,183.775,0,0,1,6.989-27.156h45.715v27.156Zm62.5-27.155h45.716a183.854,183.854,0,0,1,6.988,27.156h-52.7Zm0-53.049c16.444,2.684,31.556,18.773,41.958,43.25H172.14Zm87.793,43.25h-35.2c-6.46-16.473-14.922-29.809-24.7-39.04A121.957,121.957,0,0,1,259.933,110.023ZM162.341,66.779v43.245H120.384C130.782,85.564,145.886,69.481,162.341,66.779ZM67.115,119.823h39.149a198.838,198.838,0,0,0-6.578,27.156H53.53A119.8,119.8,0,0,1,67.115,119.823ZM58.7,216.932H9.8V156.778H254.729v60.154H81.569a4.9,4.9,0,1,0,0,9.8H99.687a198.862,198.862,0,0,0,6.577,27.156H67.178a118.949,118.949,0,0,1-13.659-27.156H58.7a4.9,4.9,0,0,0,0-9.8Zm103.637,46.754v43.25c-16.444-2.684-31.556-18.773-41.958-43.25Zm-45.716-9.8a183.857,183.857,0,0,1-6.988-27.156h52.7v27.156ZM172.14,306.93V263.686H214.1C203.7,288.145,188.6,304.228,172.14,306.93Zm0-53.044V226.731h52.7a183.775,183.775,0,0,1-6.989,27.156H172.14Zm-97.592,9.8h35.2c6.46,16.473,14.922,29.809,24.7,39.04a121.957,121.957,0,0,1-59.9-39.04Zm125.47,39.045c9.782-9.231,18.248-22.569,24.711-39.045h35.2A121.953,121.953,0,0,1,200.019,302.73ZM267.3,253.886H228.217a198.835,198.835,0,0,0,6.578-27.156h46.168A118.964,118.964,0,0,1,267.3,253.886Z" transform="translate(0 -56.571)" fill="#009cf5"/>
      </g>
    </g>
    <path id="Path_741" data-name="Path 741" d="M52.928-35.136,42.816,0H36.544L26.88-28.608,17.152,0H10.816L.832-35.136H6.72L14.208-5.568l9.728-29.568h6.08l9.792,29.5,7.552-29.5Zm55.616,0L98.432,0H92.16L82.5-28.608,72.768,0H66.432L56.448-35.136h5.888L69.824-5.568l9.728-29.568h6.08l9.792,29.5,7.552-29.5Zm55.616,0L154.048,0h-6.272l-9.664-28.608L128.384,0h-6.336l-9.984-35.136h5.888L125.44-5.568l9.728-29.568h6.08l9.792,29.5,7.552-29.5Z" transform="translate(8685 1246)" fill="#009cf5"/>
  </g>
</svg>
