<svg xmlns="http://www.w3.org/2000/svg" xmlns:xlink="http://www.w3.org/1999/xlink" width="20.515" height="21.882" viewBox="0 0 20.515 21.882">
  <defs>
    <linearGradient id="linear-gradient" x1="0.5" y1="1" x2="0.5" gradientUnits="objectBoundingBox">
      <stop offset="0" stop-color="#fd5900"/>
      <stop offset="1" stop-color="#ffde00"/>
    </linearGradient>
    <linearGradient id="linear-gradient-2" x1="0.5" y1="1" x2="0.5" gradientUnits="objectBoundingBox">
      <stop offset="0" stop-color="#ffe59a"/>
      <stop offset="1" stop-color="#ffffd5"/>
    </linearGradient>
  </defs>
  <g id="light-bulb" transform="translate(0)">
    <g id="Group_8685" data-name="Group 8685">
      <g id="Group_8684" data-name="Group 8684">
        <path id="Path_12181" data-name="Path 12181" d="M17.923,9.616H16.641a.641.641,0,1,0,0,1.282h1.282a.641.641,0,0,0,0-1.282Zm17.95,0H34.592a.641.641,0,0,0,0,1.282h1.282a.641.641,0,0,0,0-1.282ZM21.535,3.36a.641.641,0,1,0,1.11-.641L22,1.609a.641.641,0,0,0-1.11.641ZM19.36,5.535l-1.11-.641A.641.641,0,0,0,17.609,6l1.11.641a.641.641,0,1,0,.641-1.11ZM30.1,3.595a.641.641,0,0,0,.876-.235l.641-1.11a.641.641,0,1,0-1.11-.641l-.641,1.11A.641.641,0,0,0,30.1,3.595Zm5.037,1.534a.641.641,0,0,0-.876-.235l-1.11.641a.641.641,0,0,0,.641,1.11L34.906,6A.641.641,0,0,0,35.141,5.129ZM26.257,2.564a.641.641,0,0,0,.641-.641V.641a.641.641,0,0,0-1.282,0V1.923A.641.641,0,0,0,26.257,2.564Zm0,1.282a6.418,6.418,0,0,0-6.411,6.411,6.339,6.339,0,0,0,2.089,4.64,5.077,5.077,0,0,1,1.757,3.78l2.65.9,2.479-.9a5.077,5.077,0,0,1,1.757-3.78,6.339,6.339,0,0,0,2.089-4.64,6.418,6.418,0,0,0-6.411-6.411Z" transform="translate(-16 0)" fill="url(#linear-gradient)"/>
      </g>
    </g>
    <g id="Group_8687" data-name="Group 8687" transform="translate(7.686 18.677)">
      <g id="Group_8686" data-name="Group 8686" transform="translate(0 0)">
        <path id="Path_12182" data-name="Path 12182" d="M167.87,240.073a2.564,2.564,0,1,0,5.129,0v-.641H167.87Z" transform="translate(-167.87 -239.432)" fill="url(#linear-gradient-2)"/>
      </g>
    </g>
  </g>
</svg>
