<svg xmlns="http://www.w3.org/2000/svg" width="22.535" height="27.035" viewBox="0 0 22.535 27.035">
  <g id="lightbulb" transform="translate(0 0)">
    <path id="Path_16294" data-name="Path 16294" d="M135.153,122.248c-1.26,1.26-1.1,3.8-1.1,3.8h-6.388s.135-2.542-1.1-3.8a6.5,6.5,0,1,1,8.592,0Z" transform="translate(-119.572 -104.57)" fill="#ffa308"/>
    <g id="Group_8501" data-name="Group 8501" transform="translate(7.889 22.874)">
      <path id="Path_16295" data-name="Path 16295" d="M187.082,407.407a.6.6,0,0,1-.607.607h-5.556a.6.6,0,0,1-.607-.607h0a.6.6,0,0,1,.607-.607h5.533a.624.624,0,0,1,.63.607Z" transform="translate(-180.312 -406.8)" fill="#e5e5e5"/>
      <path id="Path_16296" data-name="Path 16296" d="M200.218,452.207a.6.6,0,0,1-.607.607h-3.891a.6.6,0,0,1-.607-.607h0a.6.6,0,0,1,.607-.607h3.891a.6.6,0,0,1,.607.607Z" transform="translate(-194.28 -449.081)" fill="#e5e5e5"/>
    </g>
    <g id="Group_8502" data-name="Group 8502" transform="translate(0 0)">
      <path id="Path_16297" data-name="Path 16297" d="M128.318,115.3a6.946,6.946,0,1,0-9.244.067c1.1,1.1.99,3.441.99,3.464a.537.537,0,0,0,.112.315.444.444,0,0,0,.315.135h6.365a.444.444,0,0,0,.315-.135.421.421,0,0,0,.112-.315c0-.023-.112-2.362.99-3.464C128.3,115.346,128.318,115.323,128.318,115.3Zm-.63-.562a.225.225,0,0,0-.09.112,5.758,5.758,0,0,0-1.17,3.6h-5.511a5.7,5.7,0,0,0-1.26-3.689,6.093,6.093,0,1,1,10.1-4.588A6.048,6.048,0,0,1,127.688,114.738Z" transform="translate(-112.399 -97.397)" fill="#210b20"/>
      <path id="Path_16298" data-name="Path 16298" d="M233.139,135.2a.427.427,0,1,0,0,.855,4.569,4.569,0,0,1,4.566,4.566.427.427,0,1,0,.855,0A5.423,5.423,0,0,0,233.139,135.2Z" transform="translate(-221.877 -127.598)" fill="#210b20"/>
      <path id="Path_16299" data-name="Path 16299" d="M180.337,400.235A1.032,1.032,0,0,0,179.3,399.2h-5.556a1.035,1.035,0,1,0,0,2.069h5.533A1.037,1.037,0,0,0,180.337,400.235Zm-1.057.18h-5.533a.18.18,0,1,1,0-.36h5.533a.177.177,0,0,1,.18.18C179.482,400.347,179.392,400.415,179.28,400.415Z" transform="translate(-165.251 -376.753)" fill="#210b20"/>
      <path id="Path_16300" data-name="Path 16300" d="M192.438,444h-3.891a1.035,1.035,0,0,0,0,2.069h3.891a1.032,1.032,0,0,0,1.035-1.035A1.047,1.047,0,0,0,192.438,444Zm0,1.215h-3.891a.18.18,0,1,1,0-.36h3.891a.177.177,0,0,1,.18.18A.166.166,0,0,1,192.438,445.215Z" transform="translate(-179.218 -419.034)" fill="#210b20"/>
      <path id="Path_16301" data-name="Path 16301" d="M233.567,3.306V.427a.427.427,0,0,0-.855,0v2.9a.427.427,0,0,0,.427.427A.447.447,0,0,0,233.567,3.306Z" transform="translate(-221.877)" fill="#210b20"/>
      <path id="Path_16302" data-name="Path 16302" d="M328.5,36.8a.428.428,0,0,0-.585.112l-1.6,2.407a.428.428,0,0,0,.112.585.434.434,0,0,0,.225.067.47.47,0,0,0,.36-.18l1.6-2.407A.432.432,0,0,0,328.5,36.8Z" transform="translate(-310.15 -34.667)" fill="#210b20"/>
      <path id="Path_16303" data-name="Path 16303" d="M116.813,37.805a.429.429,0,0,0,.36-.652l-1.552-2.429a.424.424,0,1,0-.72.45l1.552,2.429A.432.432,0,0,0,116.813,37.805Z" transform="translate(-110.633 -32.587)" fill="#210b20"/>
      <path id="Path_16304" data-name="Path 16304" d="M40.236,115.068l2.542,1.372a.334.334,0,0,0,.2.045.464.464,0,0,0,.382-.225.423.423,0,0,0-.18-.585L40.641,114.3a.423.423,0,0,0-.585.18A.458.458,0,0,0,40.236,115.068Z" transform="translate(-40.017 -107.826)" fill="#210b20"/>
      <path id="Path_16305" data-name="Path 16305" d="M380.672,116.959a.656.656,0,0,0,.2-.045l2.542-1.372a.433.433,0,1,0-.4-.765l-2.542,1.372a.429.429,0,0,0,.2.81Z" transform="translate(-361.11 -108.278)" fill="#210b20"/>
    </g>
  </g>
</svg>
