<svg id="SvgjsSvg1103" width="288" height="288" xmlns="http://www.w3.org/2000/svg" version="1.1" xmlns:xlink="http://www.w3.org/1999/xlink" xmlns:svgjs="http://svgjs.com/svgjs"><defs id="SvgjsDefs1104"></defs><g id="SvgjsG1105"><svg xmlns="http://www.w3.org/2000/svg" enable-background="new 0 0 512 512" viewBox="0 0 512 512" width="288" height="288"><path d="M448.949,23.787c-4.152,0-7.516,3.365-7.516,7.516v29.226c0,4.152,3.364,7.516,7.516,7.516
			c4.152,0,7.516-3.364,7.516-7.516V39.405c22.92,3.619,40.504,23.511,40.504,47.432v302.749c-1.26-1.477-2.587-2.908-3.991-4.28
			c-8.533-8.332-19.04-13.955-30.438-16.452c-0.059-0.013-0.117-0.027-0.176-0.039c-0.914-0.197-1.833-0.377-2.758-0.534
			c-0.059-0.01-0.117-0.022-0.176-0.032c-0.983-0.164-1.97-0.312-2.964-0.429V90.593c0-4.152-3.364-7.516-7.516-7.516
			c-4.152,0-7.516,3.364-7.516,7.516v21.313H70.567V31.303c0-4.151-3.365-7.516-7.516-7.516C28.284,23.787,0,52.072,0,86.838
			v343.591c0,0.569,0.069,1.122,0.189,1.656c0.01,0.139,0.028,0.278,0.039,0.417c0.06,0.726,0.13,1.45,0.216,2.173
			c0.045,0.389,0.1,0.776,0.153,1.162c0.065,0.472,0.133,0.943,0.209,1.414c0.074,0.464,0.154,0.926,0.239,1.387
			c0.041,0.218,0.086,0.437,0.13,0.655c0.209,1.067,0.446,2.126,0.711,3.178c0.011,0.043,0.021,0.086,0.032,0.129
			c2.729,10.699,8.335,20.488,16.421,28.375c11.397,11.115,26.442,17.237,42.366,17.237h390.586v0.001
			c0.86,0,1.719-0.025,2.575-0.062c0.269-0.011,0.538-0.024,0.807-0.039c0.656-0.037,1.312-0.084,1.966-0.142
			c0.526-0.046,1.049-0.103,1.573-0.162c0.37-0.042,0.74-0.085,1.108-0.134c0.542-0.071,1.082-0.15,1.621-0.235
			c0.035-0.006,0.07-0.012,0.106-0.018c12.242-1.973,23.574-7.632,32.609-16.444c10.673-10.411,17.054-24.13,18.152-38.891
			c0.12-0.533,0.188-1.085,0.188-1.655V86.838C512,52.072,483.715,23.787,448.949,23.787z M388.157,126.937h53.277v92.562h-53.277
			V126.937z M329.785,126.937v51.752l-51.75-51.752H329.785z M204.561,136.012l125.224,125.224v44.256H204.561V136.012z
			 M70.567,126.937h75.624v34.133H70.567V126.937z M15.031,86.838c0-23.921,17.584-43.814,40.504-47.432V367.82
			c-0.994,0.118-1.981,0.266-2.963,0.429c-0.059,0.01-0.117,0.022-0.176,0.032c-0.925,0.157-1.844,0.337-2.758,0.534
			c-0.059,0.013-0.117,0.026-0.176,0.039c-11.398,2.497-21.905,8.12-30.438,16.452c-1.405,1.372-2.733,2.803-3.992,4.28V86.838z
			 M146.191,473.182H60.707c-17.231,0-32.127-9.333-39.905-23.325h125.389V473.182z M329.785,473.182H204.561V363.863h125.224
			V473.182z M388.157,473.182v-16.538l16.538,16.538H388.157z M425.952,473.184l-39.996-39.997
			c-2.151-2.149-5.383-2.794-8.191-1.628c-2.809,1.162-4.64,3.904-4.64,6.943v34.682h-28.308V356.349
			c0-4.152-3.364-7.516-7.516-7.516H197.046c-4.151,0-7.516,3.364-7.516,7.516v116.835h-28.307v-30.841
			c0-4.152-3.365-7.516-7.516-7.516H15.636c-0.141-0.874-0.25-1.753-0.34-2.633c-0.015-0.153-0.034-0.306-0.048-0.459
			c-0.084-0.906-0.144-1.814-0.174-2.724c0-0.015-0.002-0.029-0.002-0.044c0.001-0.029,0.004-0.058,0.005-0.087
			c0.028-0.878,0.084-1.752,0.159-2.622c0.022-0.253,0.052-0.506,0.077-0.759c0.07-0.683,0.151-1.364,0.251-2.041
			c0.033-0.232,0.068-0.463,0.104-0.693c0.133-0.829,0.284-1.653,0.459-2.471c0.01-0.049,0.019-0.099,0.03-0.148
			c0.203-0.931,0.435-1.855,0.693-2.771c0.009-0.031,0.018-0.062,0.026-0.093c0.26-0.914,0.546-1.819,0.86-2.716
			c0.005-0.015,0.01-0.031,0.016-0.046c0.001-0.002,0.001-0.004,0.002-0.006c0.632-1.8,1.376-3.56,2.222-5.277
			c0.066-0.134,0.137-0.266,0.204-0.398c0.337-0.667,0.69-1.327,1.059-1.979c0.064-0.113,0.129-0.225,0.194-0.338h132.271
			c4.151,0,7.516-3.364,7.516-7.516V289.794c0-4.151-3.365-7.516-7.516-7.516s-7.516,3.365-7.516,7.516v101.692H35.007
			c5.373-3.88,11.57-6.685,18.283-8.077c0.04-0.008,0.08-0.018,0.12-0.026c0.677-0.138,1.363-0.258,2.05-0.367
			c0.115-0.018,0.229-0.041,0.346-0.059c0.623-0.095,1.253-0.169,1.883-0.24c0.175-0.02,0.349-0.046,0.525-0.063
			c0.607-0.061,1.221-0.102,1.834-0.14c0.194-0.012,0.387-0.032,0.581-0.042c0.803-0.04,1.61-0.061,2.422-0.061
			c4.151,0,7.516-3.364,7.516-7.516V219.439h75.624v40.291c0,4.152,3.365,7.516,7.516,7.516c4.151,0,7.516-3.364,7.516-7.516
			v-47.807c0-4.152-3.365-7.516-7.516-7.516H70.567v-28.307h83.14c4.151,0,7.516-3.364,7.516-7.516v-41.649h28.307v186.072
			c0,4.152,3.365,7.516,7.516,7.516h140.256c4.152,0,7.516-3.364,7.516-7.516v-54.885c0-1.993-0.792-3.904-2.201-5.315
			L216.743,126.937h40.034l75.209,75.211c2.151,2.148,5.381,2.793,8.191,1.628c2.809-1.162,4.64-3.904,4.64-6.944v-69.896h28.308
			v100.078c0,4.152,3.364,7.516,7.516,7.516h60.792v28.308h-60.792c-4.152,0-7.516,3.364-7.516,7.516v38.838
			c0,4.151,3.364,7.516,7.516,7.516c4.152,0,7.516-3.365,7.516-7.516V277.87h53.277v97.023c0,4.007,3.136,7.271,7.087,7.494
			l1.401,53.474l-61.764-61.764v-34.841c0-4.152-3.364-7.516-7.516-7.516c-4.152,0-7.516,3.364-7.516,7.516v37.954
			c0,1.993,0.792,3.905,2.201,5.315l75.167,75.167l0.406,15.491H425.952z M455.077,473.019c-0.323,0.026-0.644,0.051-0.968,0.071
			c-0.276,0.017-0.552,0.033-0.829,0.045c-0.659,0.028-1.321,0.048-1.987,0.048h-0.394l-0.406-15.491l13.645,13.644
			C461.188,472.202,458.149,472.763,455.077,473.019z M478.42,464.359l-28.498-28.498l-1.401-53.474
			c0.143,0.008,0.284,0.022,0.429,0.022c0.813,0,1.619,0.021,2.422,0.061c0.194,0.009,0.387,0.03,0.581,0.042
			c0.613,0.038,1.227,0.079,1.834,0.14c0.175,0.017,0.349,0.044,0.523,0.063c0.631,0.07,1.262,0.145,1.885,0.24
			c0.115,0.017,0.228,0.04,0.343,0.058c0.688,0.11,1.374,0.229,2.052,0.368c0.04,0.008,0.079,0.018,0.118,0.026
			c14.785,3.064,27.104,12.947,33.508,26.203c0.012,0.024,0.023,0.049,0.034,0.073c0.309,0.641,0.602,1.292,0.883,1.949
			c0.063,0.148,0.122,0.298,0.183,0.446c0.219,0.53,0.432,1.063,0.633,1.602c0.104,0.283,0.203,0.566,0.303,0.851
			c0.143,0.406,0.283,0.813,0.415,1.224c0.132,0.414,0.257,0.83,0.378,1.248c0.082,0.284,0.165,0.567,0.242,0.853
			c0.144,0.534,0.279,1.07,0.404,1.609c0.04,0.172,0.081,0.346,0.12,0.519c0.141,0.637,0.271,1.279,0.385,1.924
			c0.014,0.077,0.028,0.154,0.041,0.232c0.125,0.723,0.236,1.449,0.329,2.18c0,0.003,0.001,0.006,0.001,0.01
			c0.193,1.529,0.314,3.076,0.361,4.635C496.471,443.605,489.315,456.358,478.42,464.359z" fill="#3398dc" class="color000 svgShape"></path></svg></g></svg>