<svg id="SvgjsSvg1113" width="288" height="288" xmlns="http://www.w3.org/2000/svg" version="1.1" xmlns:xlink="http://www.w3.org/1999/xlink" xmlns:svgjs="http://svgjs.com/svgjs"><defs id="SvgjsDefs1114"></defs><g id="SvgjsG1115"><svg xmlns="http://www.w3.org/2000/svg" width="288" height="288" enable-background="new 0 0 512 512" viewBox="0 0 512 512"><path d="M127.742 400.807c-12.976 0-23.532 10.557-23.532 23.532s10.557 23.532 23.532 23.532c12.976 0 23.533-10.557 23.533-23.532s-10.557-23.532-23.533-23.532zm0 32.064c-4.705 0-8.532-3.828-8.532-8.532 0-4.705 3.828-8.532 8.532-8.532 4.705 0 8.533 3.827 8.533 8.532-.001 4.704-3.828 8.532-8.533 8.532zM127.742 224.452c-12.976 0-23.532 10.557-23.532 23.532s10.557 23.532 23.532 23.532c12.976 0 23.533-10.557 23.533-23.532s-10.557-23.532-23.533-23.532zm0 32.064c-4.705 0-8.532-3.828-8.532-8.532s3.828-8.532 8.532-8.532c4.705 0 8.533 3.828 8.533 8.532s-3.828 8.532-8.533 8.532zM143.774 328.661h-32.065c-4.142 0-7.5 3.358-7.5 7.5 0 4.143 3.358 7.5 7.5 7.5h32.065c4.142 0 7.5-3.357 7.5-7.5 0-4.141-3.357-7.5-7.5-7.5z" fill="#3398dc" class="color000 svgShape"></path><path d="m448.387 0h-256.516c-12.976 0-23.532 10.557-23.532 23.532v72.661h-56.629c-4.142 0-7.5 3.358-7.5 7.5v24.564h-24.565c-4.142 0-7.5 3.358-7.5 7.5v24.564h-24.564c-4.142 0-7.5 3.358-7.5 7.5v336.679c0 4.142 3.358 7.5 7.5 7.5h160.323c4.142 0 7.5-3.358 7.5-7.5v-24.564h24.564c4.142 0 7.5-3.358 7.5-7.5v-24.564h24.564c4.142 0 7.5-3.358 7.5-7.5v-56.629h168.855c12.976 0 23.532-10.557 23.532-23.532v-336.679c0-12.975-10.556-23.532-23.532-23.532zm-361.242 143.258h56.629c4.142 0 7.5-3.357 7.5-7.5 0-4.142-3.358-7.5-7.5-7.5h-24.565v-17.064h49.129v49.129h-81.193zm113.258 353.742h-145.322v-321.678h113.258v128.379c-10.154-9.295-24.592-15.121-40.597-15.121s-30.443 5.826-40.597 15.121v-96.314h56.629c4.142 0 7.5-3.358 7.5-7.5s-3.358-7.5-7.5-7.5h-64.129c-4.142 0-7.5 3.358-7.5 7.5v272.548c0 4.142 3.358 7.5 7.5 7.5h96.194c4.142 0 7.5-3.358 7.5-7.5v-64.129c0-4.143-3.358-7.5-7.5-7.5s-7.5 3.357-7.5 7.5v56.629h-81.194v-96.314c10.154 9.294 24.591 15.121 40.597 15.121 16.63 0 31.567-6.29 41.764-16.225 3.082 9.408 11.94 16.225 22.365 16.225h8.532zm-72.661-128.258c-22.385 0-40.597-14.616-40.597-32.581s18.211-32.581 40.597-32.581 40.597 14.616 40.597 32.581-18.212 32.581-40.597 32.581zm136.79 64.129h-17.064v-24.564c0-4.143-3.358-7.5-7.5-7.5s-7.5 3.357-7.5 7.5v56.629h-17.064v-81.193h49.129v49.128zm192.387-72.661c0 4.704-3.828 8.532-8.532 8.532h-256.516c-4.705 0-8.532-3.828-8.532-8.532v-336.678c0-4.705 3.828-8.532 8.532-8.532h256.516c4.705 0 8.532 3.828 8.532 8.532z" fill="#3398dc" class="color000 svgShape"></path><path d="M416.323 48.097h-16.031c-4.142 0-7.5 3.358-7.5 7.5s3.358 7.5 7.5 7.5h16.031c.285 0 .516.231.516.516v32.065c0 .284-.231.516-.516.516h-192.387c-.285 0-.516-.231-.516-.516v-32.065c0-.285.231-.516.516-.516h144.292c4.142 0 7.5-3.358 7.5-7.5s-3.358-7.5-7.5-7.5h-144.292c-8.556 0-15.516 6.96-15.516 15.516v32.065c0 8.556 6.96 15.516 15.516 15.516h192.387c8.556 0 15.516-6.96 15.516-15.516v-32.065c0-8.556-6.961-15.516-15.516-15.516zM247.984 144.29h-16.032c-12.976 0-23.532 10.557-23.532 23.532 0 12.976 10.557 23.532 23.532 23.532h16.032c12.976 0 23.532-10.556 23.532-23.532 0-12.975-10.557-23.532-23.532-23.532zm0 32.064h-16.032c-4.705 0-8.532-3.827-8.532-8.532 0-4.704 3.828-8.532 8.532-8.532h16.032c4.705 0 8.532 3.828 8.532 8.532 0 4.705-3.828 8.532-8.532 8.532zM328.145 144.29h-16.032c-12.976 0-23.532 10.557-23.532 23.532 0 12.976 10.557 23.532 23.532 23.532h16.032c12.976 0 23.532-10.556 23.532-23.532 0-12.975-10.556-23.532-23.532-23.532zm0 32.064h-16.032c-4.705 0-8.532-3.827-8.532-8.532 0-4.704 3.828-8.532 8.532-8.532h16.032c4.705 0 8.532 3.828 8.532 8.532 0 4.705-3.827 8.532-8.532 8.532zM408.307 144.29h-16.032c-12.976 0-23.533 10.557-23.533 23.532 0 12.976 10.557 23.532 23.533 23.532h16.032c12.976 0 23.532-10.556 23.532-23.532 0-12.975-10.557-23.532-23.532-23.532zm0 32.064h-16.032c-4.705 0-8.533-3.827-8.533-8.532 0-4.704 3.828-8.532 8.533-8.532h16.032c4.705 0 8.532 3.828 8.532 8.532 0 4.705-3.828 8.532-8.532 8.532zM247.984 208.419h-16.032c-12.976 0-23.532 10.556-23.532 23.532s10.557 23.532 23.532 23.532h16.032c12.976 0 23.532-10.556 23.532-23.532s-10.557-23.532-23.532-23.532zm0 32.065h-16.032c-4.705 0-8.532-3.828-8.532-8.532s3.828-8.532 8.532-8.532h16.032c4.705 0 8.532 3.828 8.532 8.532s-3.828 8.532-8.532 8.532zM328.145 208.419h-16.032c-12.976 0-23.532 10.556-23.532 23.532s10.557 23.532 23.532 23.532h16.032c12.976 0 23.532-10.556 23.532-23.532s-10.556-23.532-23.532-23.532zm0 32.065h-16.032c-4.705 0-8.532-3.828-8.532-8.532s3.828-8.532 8.532-8.532h16.032c4.705 0 8.532 3.828 8.532 8.532s-3.827 8.532-8.532 8.532zM408.307 208.419h-16.032c-12.976 0-23.533 10.556-23.533 23.532s10.557 23.532 23.533 23.532h16.032c12.976 0 23.532-10.556 23.532-23.532s-10.557-23.532-23.532-23.532zm0 32.065h-16.032c-4.705 0-8.533-3.828-8.533-8.532s3.828-8.532 8.533-8.532h16.032c4.705 0 8.532 3.828 8.532 8.532s-3.828 8.532-8.532 8.532zM247.984 272.548h-16.032c-12.976 0-23.532 10.556-23.532 23.532s10.557 23.532 23.532 23.532h16.032c12.976 0 23.532-10.556 23.532-23.532s-10.557-23.532-23.532-23.532zm0 32.065h-16.032c-4.705 0-8.532-3.828-8.532-8.532s3.828-8.532 8.532-8.532h16.032c4.705 0 8.532 3.828 8.532 8.532s-3.828 8.532-8.532 8.532zM328.145 272.548h-16.032c-12.976 0-23.532 10.556-23.532 23.532s10.557 23.532 23.532 23.532h16.032c12.976 0 23.532-10.556 23.532-23.532s-10.556-23.532-23.532-23.532zm0 32.065h-16.032c-4.705 0-8.532-3.828-8.532-8.532s3.828-8.532 8.532-8.532h16.032c4.705 0 8.532 3.828 8.532 8.532s-3.827 8.532-8.532 8.532zM408.307 272.548h-16.032c-12.976 0-23.533 10.556-23.533 23.532s10.557 23.532 23.533 23.532h16.032c12.976 0 23.532-10.556 23.532-23.532s-10.557-23.532-23.532-23.532zm0 32.065h-16.032c-4.705 0-8.533-3.828-8.533-8.532s3.828-8.532 8.533-8.532h16.032c4.705 0 8.532 3.828 8.532 8.532s-3.828 8.532-8.532 8.532z" fill="#3398dc" class="color000 svgShape"></path></svg></g></svg>