<svg id="SvgjsSvg1148" width="288" height="288" xmlns="http://www.w3.org/2000/svg" version="1.1" xmlns:xlink="http://www.w3.org/1999/xlink" xmlns:svgjs="http://svgjs.com/svgjs"><defs id="SvgjsDefs1149"></defs><g id="SvgjsG1150"><svg xmlns="http://www.w3.org/2000/svg" width="288" height="288" enable-background="new 0 0 510.616 510.616" viewBox="0 0 510.616 510.616"><path d="m461.031 286.142-102.05-70.568c.422-2.397.654-4.859.654-7.375v-14.222h5.914c21.715 0 42.502-8.065 58.533-22.71l12.151-11.1c8.915-8.145 9.542-22.024 1.397-30.94l-2.156-2.361c-3.945-4.319-9.337-6.843-15.181-7.108-5.838-.259-11.441 1.763-15.76 5.708l-8.026 7.332c-6.979 6.375-15.404 10.746-24.459 12.813v-51.096c0-6.641-.609-13.318-1.813-19.848-.751-4.074-4.666-6.769-8.734-6.017-4.074.75-6.768 4.661-6.018 8.735 1.038 5.635 1.564 11.398 1.564 17.13v52.461h-203.48v-52.461c0-26.431 11.174-51.834 30.657-69.697l2.757-2.527c8.301-7.611 20.248-9.428 30.438-4.633l29.913 14.079c5.07 2.386 10.883 2.386 15.953 0l29.913-14.079c10.188-4.795 22.138-2.977 30.438 4.633l2.757 2.527c7.743 7.099 14.213 15.391 19.229 24.645 1.974 3.642 6.525 4.996 10.168 3.02 3.642-1.974 4.993-6.526 3.02-10.167-5.811-10.721-13.307-20.328-22.279-28.554l-2.757-2.527c-12.809-11.742-31.241-14.548-46.964-7.149l-29.914 14.079c-1.008.476-2.168.476-3.176 0l-29.915-14.079c-15.722-7.398-34.153-4.593-46.961 7.149l-2.757 2.527c-22.574 20.696-35.521 50.129-35.521 80.753v51.749c-7.171-1.372-13.858-4.697-19.334-9.699l-12.151-11.1c-4.319-3.945-9.929-5.971-15.76-5.708-5.844.264-11.235 2.789-15.18 7.107l-2.158 2.363c-8.145 8.916-7.517 22.795 1.398 30.939l12.15 11.1c16.032 14.645 36.82 22.71 58.534 22.71h5.914v14.222c0 2.301.19 4.557.544 6.76l-56.5 39.072c-3.407 2.356-4.259 7.028-1.903 10.435 1.456 2.105 3.796 3.235 6.176 3.235 1.471 0 2.957-.432 4.259-1.332l53.217-36.8c1.883 3.22 4.171 6.175 6.804 8.784v48.501c0 17.952 8.296 34.887 22.323 45.916l55.246 153.683-130.957-92.256c-.287-.202-.391-.581-.246-.901l22.595-49.933c1.676-3.703.097-8.066-3.56-9.84l-71.891-34.871c-.019-.031-.024-.112.03-.172l19.715-13.633c3.407-2.356 4.259-7.028 1.903-10.435-2.355-3.406-7.026-4.259-10.435-1.903l-19.716 13.633c-4.469 3.091-6.888 8.171-6.472 13.588.417 5.417 3.584 10.067 8.473 12.438l65.274 31.663-19.584 43.279c-3.108 6.87-.891 15.007 5.273 19.349l143.854 101.341c2.663 1.877 5.783 2.815 8.904 2.814 3.12 0 6.242-.938 8.904-2.814l143.854-101.341c6.165-4.342 8.383-12.479 5.274-19.349l-19.584-43.28 65.273-31.663c4.89-2.371 8.057-7.021 8.474-12.438.419-5.415-2-10.495-6.469-13.586zm-116.396-77.943c0 15.15-12.325 27.475-27.476 27.475h-9.582c-15.15 0-27.476-12.325-27.476-27.475v-14.222h64.533v14.222zm-79.533-3.998c-6.148-1.244-12.466-1.208-18.588.109v-10.332h18.588zm-167.452-44.009-12.15-11.1c-2.81-2.566-3.007-6.939-.441-9.749l2.158-2.363c1.243-1.36 2.941-2.156 4.783-2.239.106-.005.213-.007.318-.007 1.726 0 3.365.635 4.646 1.806l12.151 11.099c10.121 9.246 23.243 14.337 36.951 14.337h213.896c17.31 0 33.882-6.43 46.663-18.104l8.026-7.332c1.36-1.242 3.12-1.88 4.965-1.798 1.842.083 3.54.878 4.783 2.24l2.157 2.361c2.566 2.809 2.368 7.183-.44 9.749l-12.151 11.1c-13.26 12.114-30.455 18.785-48.416 18.785h-219.482c-17.961 0-35.156-6.672-48.417-18.785zm133.864 33.785v14.222c0 15.15-12.325 27.475-27.476 27.475h-9.582c-15.15 0-27.476-12.325-27.476-27.475v-14.222zm-23.276 153.814c11.206 7.115 24.067 10.868 37.416 10.868h19.309c13.348 0 26.209-3.753 37.416-10.868l-47.07 130.94zm244.246-49.118-71.845 34.85c-3.656 1.774-5.235 6.137-3.56 9.84l22.595 49.933c.145.32.041.699-.246.902l-130.957 92.256 55.244-153.678c10.151-7.98 17.411-19.13 20.567-31.72 1.008-4.018-1.433-8.092-5.45-9.099-4.015-1.006-8.092 1.433-9.099 5.451-2.534 10.104-8.615 18.966-17.124 24.953l-16.059 11.3c-9.297 6.542-20.22 10-31.588 10h-19.309c-11.368 0-22.291-3.458-31.588-10l-16.059-11.3c-11.541-8.121-18.432-21.394-18.432-35.505v-38.876c4.634 1.739 9.647 2.697 14.881 2.697h9.582c19.142 0 35.361-12.731 40.651-30.168 7.116-2.846 14.976-2.942 22.166-.252 5.21 17.566 21.489 30.42 40.723 30.42h9.582c4.86 0 9.528-.831 13.881-2.341v18.936c0 4.142 3.357 7.5 7.5 7.5s7.5-3.358 7.5-7.5v-27.962c2.916-2.709 5.454-5.817 7.52-9.243l98.981 68.444c.013.029.007.11-.057.162z" fill="#3398dc" class="color000 svgShape"></path></svg></g></svg>