<svg id="SvgjsSvg1023" width="288" height="288" xmlns="http://www.w3.org/2000/svg" version="1.1" xmlns:xlink="http://www.w3.org/1999/xlink" xmlns:svgjs="http://svgjs.com/svgjs"><defs id="SvgjsDefs1024"></defs><g id="SvgjsG1025"><svg xmlns="http://www.w3.org/2000/svg" width="288" height="288" viewBox="0 0 64 64"><g data-name="Layer 7" fill="#3398dc" class="color000 svgShape"><path d="M11 11h3v12h2v-12h3v-2h-8zM25 9a4 4 0 00-4 4v10h2v-4h4v4h2v-10a4 4 0 00-4-4zm-2 8v-4a2 2 0 014 0v4zM37 9a8.57 8.57 0 01-2 5.54 7.85 7.85 0 01-2-5.23v-.31h-2v.31a9.82 9.82 0 002.63 6.69 10.54 10.54 0 00-2.63 7h2a8.57 8.57 0 012-5.54 7.85 7.85 0 012 5.23v.31h2v-.31a9.82 9.82 0 00-2.63-6.69 10.54 10.54 0 002.63-7z" fill="#3398dc" class="color000 svgShape"></path><path d="M8 27h34a1 1 0 001-1v-20a1 1 0 00-1-1h-34a1 1 0 00-1 1v20a1 1 0 001 1zm1-20h32v18h-32zM8 37h6a1 1 0 001-1v-6a1 1 0 00-1-1h-6a1 1 0 00-1 1v6a1 1 0 001 1zm1-6h4v4h-4zM14 49h-6a1 1 0 00-1 1v6a1 1 0 001 1h6a1 1 0 001-1v-6a1 1 0 00-1-1zm-1 6h-4v-4h4zM15.29 37.29l-1.7 1.71h-5.59a1 1 0 00-1 1v6a1 1 0 001 1h6a1 1 0 001-1v-5.59l1.71-1.7zm-3.7 3.71l-2.59 2.59v-2.59zm1.41 4h-2.59l2.59-2.59zM17 30h26v2h-26zM17 34h26v2h-26z" fill="#3398dc" class="color000 svgShape"></path><path d="m49 35v-33a1 1 0 0 0 -1-1h-46a1 1 0 0 0 -1 1v60a1 1 0 0 0 1 1h44a1 1 0 0 0 .6-.22 14.57 14.57 0 0 0 2.4.22 14 14 0 0 0 0-28zm-46 26v-58h44v32.16a14 14 0 0 0 -8.71 4.84h-21.29v2h19.89a14.1 14.1 0 0 0 -1 2h-18.89v2h18.33a14.14 14.14 0 0 0 -.33 3v1h-18v2h18.33a13.6 13.6 0 0 0 .61 2h-18.94v2h19.89a14.09 14.09 0 0 0 4.94 5zm46 0a12 12 0 1 1 12-12 12 12 0 0 1 -12 12z" fill="#3398dc" class="color000 svgShape"></path><path d="M54 49a3 3 0 103 3 3 3 0 00-3-3zm0 4a1 1 0 111-1 1 1 0 01-1 1zM47 46a3 3 0 10-3 3 3 3 0 003-3zm-3 1a1 1 0 111-1 1 1 0 01-1 1z" fill="#3398dc" class="color000 svgShape"></path><path d="m39.15 48h19.7v2h-19.7z" transform="rotate(-66.05 48.99 48.994)" fill="#3398dc" class="color000 svgShape"></path></g></svg></g></svg>