<svg id="SvgjsSvg1160" width="288" height="288" xmlns="http://www.w3.org/2000/svg" version="1.1" xmlns:xlink="http://www.w3.org/1999/xlink" xmlns:svgjs="http://svgjs.com/svgjs"><defs id="SvgjsDefs1161"></defs><g id="SvgjsG1162"><svg xmlns="http://www.w3.org/2000/svg" width="288" height="288" enable-background="new 0 0 512 512" viewBox="0 0 512 512"><path d="m128.584 199.399h42.409c10.965 0 19.885-8.92 19.885-19.885v-114.094c0-1.874-.758-3.866-2.196-5.304l-57.919-57.92c-1.344-1.343-3.261-2.196-5.304-2.196h-74.074c-10.965 0-19.885 8.921-19.885 19.886v159.629c0 10.965 8.92 19.885 19.885 19.885h42.199c4.143 0 7.5-3.357 7.5-7.5s-3.357-7.5-7.5-7.5h-42.199c-2.693 0-4.885-2.191-4.885-4.885v-159.629c0-2.694 2.191-4.886 4.885-4.886h66.574v38.034c0 10.965 8.921 19.886 19.886 19.886h38.033v106.595c0 2.693-2.191 4.885-4.885 4.885h-42.409c-4.143 0-7.5 3.357-7.5 7.5s3.357 7.499 7.5 7.499zm9.261-141.479c-2.694 0-4.886-2.191-4.886-4.886v-27.427c4.688 4.688 27.628 27.629 32.312 32.313z" fill="#3398dc" class="color000 svgShape"></path><path d="M71.119 89.247h-1.821c-4.143 0-7.5 3.357-7.5 7.5s3.357 7.5 7.5 7.5h1.821c4.143 0 7.5-3.357 7.5-7.5s-3.357-7.5-7.5-7.5zM71.119 118.644h-1.821c-4.143 0-7.5 3.357-7.5 7.5s3.357 7.5 7.5 7.5h1.821c4.143 0 7.5-3.357 7.5-7.5s-3.357-7.5-7.5-7.5zM71.119 148.039h-1.821c-4.143 0-7.5 3.357-7.5 7.5s3.357 7.5 7.5 7.5h1.821c4.143 0 7.5-3.357 7.5-7.5s-3.357-7.5-7.5-7.5zM100.625 104.247h52.456c4.143 0 7.5-3.357 7.5-7.5s-3.357-7.5-7.5-7.5h-52.456c-4.143 0-7.5 3.357-7.5 7.5s3.357 7.5 7.5 7.5zM100.625 133.644h52.456c4.143 0 7.5-3.357 7.5-7.5s-3.357-7.5-7.5-7.5h-52.456c-4.143 0-7.5 3.357-7.5 7.5s3.357 7.5 7.5 7.5zM100.625 163.039h52.456c4.143 0 7.5-3.357 7.5-7.5s-3.357-7.5-7.5-7.5h-52.456c-4.143 0-7.5 3.357-7.5 7.5s3.357 7.5 7.5 7.5zM480.5 179.515v-114.095c0-1.888-.733-3.84-2.196-5.304l-57.92-57.92c-1.329-1.327-3.243-2.196-5.304-2.196h-74.073c-10.965 0-19.886 8.921-19.886 19.886v159.629c0 10.965 8.921 19.885 19.886 19.885h119.607c10.965-.001 19.886-8.921 19.886-19.885zm-57.92-153.909l32.313 32.313h-27.428c-2.694 0-4.886-2.191-4.886-4.886v-27.427zm-86.459 153.909v-159.629c0-2.694 2.191-4.886 4.886-4.886h66.573v38.034c0 10.965 8.921 19.886 19.886 19.886h38.034v106.595c0 2.693-2.191 4.885-4.886 4.885h-119.607c-2.695-.001-4.886-2.192-4.886-4.885z" fill="#3398dc" class="color000 svgShape"></path><path d="M360.74 89.247h-1.821c-4.143 0-7.5 3.357-7.5 7.5s3.357 7.5 7.5 7.5h1.821c4.143 0 7.5-3.357 7.5-7.5s-3.357-7.5-7.5-7.5zM360.74 118.644h-1.821c-4.143 0-7.5 3.357-7.5 7.5s3.357 7.5 7.5 7.5h1.821c4.143 0 7.5-3.357 7.5-7.5s-3.357-7.5-7.5-7.5zM360.74 148.039h-1.821c-4.143 0-7.5 3.357-7.5 7.5s3.357 7.5 7.5 7.5h1.821c4.143 0 7.5-3.357 7.5-7.5s-3.357-7.5-7.5-7.5zM442.702 89.247h-52.456c-4.143 0-7.5 3.357-7.5 7.5s3.357 7.5 7.5 7.5h52.456c4.143 0 7.5-3.357 7.5-7.5s-3.357-7.5-7.5-7.5zM442.702 118.644h-52.456c-4.143 0-7.5 3.357-7.5 7.5s3.357 7.5 7.5 7.5h52.456c4.143 0 7.5-3.357 7.5-7.5s-3.357-7.5-7.5-7.5zM442.702 148.039h-52.456c-4.143 0-7.5 3.357-7.5 7.5s3.357 7.5 7.5 7.5h52.456c4.143 0 7.5-3.357 7.5-7.5s-3.357-7.5-7.5-7.5zM360.74 401.847h-1.821c-4.143 0-7.5 3.357-7.5 7.5s3.357 7.5 7.5 7.5h1.821c4.143 0 7.5-3.357 7.5-7.5s-3.357-7.5-7.5-7.5zM360.74 431.243h-1.821c-4.143 0-7.5 3.357-7.5 7.5s3.357 7.5 7.5 7.5h1.821c4.143 0 7.5-3.357 7.5-7.5s-3.357-7.5-7.5-7.5zM360.74 460.639h-1.821c-4.143 0-7.5 3.357-7.5 7.5s3.357 7.5 7.5 7.5h1.821c4.143 0 7.5-3.357 7.5-7.5s-3.357-7.5-7.5-7.5zM442.702 401.847h-52.456c-4.143 0-7.5 3.357-7.5 7.5s3.357 7.5 7.5 7.5h52.456c4.143 0 7.5-3.357 7.5-7.5s-3.357-7.5-7.5-7.5zM442.702 431.243h-52.456c-4.143 0-7.5 3.357-7.5 7.5s3.357 7.5 7.5 7.5h52.456c4.143 0 7.5-3.357 7.5-7.5s-3.357-7.5-7.5-7.5zM442.702 460.639h-52.456c-4.143 0-7.5 3.357-7.5 7.5s3.357 7.5 7.5 7.5h52.456c4.143 0 7.5-3.357 7.5-7.5s-3.357-7.5-7.5-7.5zM31.5 492.114c0 10.965 8.92 19.885 19.885 19.885h119.608c10.965 0 19.885-8.92 19.885-19.885v-114.094c0-1.88-.727-3.835-2.196-5.304l-57.919-57.919c-1.342-1.341-3.262-2.196-5.304-2.196h-74.074c-10.965 0-19.885 8.92-19.885 19.885zm101.459-153.907l32.312 32.312h-27.427c-2.694 0-4.886-2.191-4.886-4.885v-27.427zm-86.459-5.722c0-2.693 2.191-4.885 4.885-4.885h66.574v38.034c0 10.965 8.921 19.885 19.886 19.885h38.033v106.595c0 2.693-2.191 4.885-4.885 4.885h-119.608c-2.693 0-4.885-2.191-4.885-4.885z" fill="#3398dc" class="color000 svgShape"></path><path d="M69.298 416.847h1.821c4.143 0 7.5-3.357 7.5-7.5s-3.357-7.5-7.5-7.5h-1.821c-4.143 0-7.5 3.357-7.5 7.5s3.357 7.5 7.5 7.5zM69.298 446.243h1.821c4.143 0 7.5-3.357 7.5-7.5s-3.357-7.5-7.5-7.5h-1.821c-4.143 0-7.5 3.357-7.5 7.5s3.357 7.5 7.5 7.5zM69.298 475.639h1.821c4.143 0 7.5-3.357 7.5-7.5s-3.357-7.5-7.5-7.5h-1.821c-4.143 0-7.5 3.357-7.5 7.5s3.357 7.5 7.5 7.5zM100.625 416.847h52.456c4.143 0 7.5-3.357 7.5-7.5s-3.357-7.5-7.5-7.5h-52.456c-4.143 0-7.5 3.357-7.5 7.5s3.357 7.5 7.5 7.5zM100.625 446.243h52.456c4.143 0 7.5-3.357 7.5-7.5s-3.357-7.5-7.5-7.5h-52.456c-4.143 0-7.5 3.357-7.5 7.5s3.357 7.5 7.5 7.5zM100.625 475.639h52.456c4.143 0 7.5-3.357 7.5-7.5s-3.357-7.5-7.5-7.5h-52.456c-4.143 0-7.5 3.357-7.5 7.5s3.357 7.5 7.5 7.5zM402.144 212.45c-4.143 0-7.5 3.357-7.5 7.5v24.038h-14.734c-9.286 0-14.776 10.432-9.521 18.086l22.235 32.389c4.589 6.687 14.457 6.674 19.041.002.001-.001.001-.002.001-.002l22.235-32.39c5.254-7.656-.239-18.085-9.522-18.085h-14.734v-24.038c-.001-4.142-3.359-7.5-7.501-7.5zm15.68 46.538l-15.681 22.841-15.68-22.841zM262.099 131.456l32.388-22.234c6.679-4.583 6.677-14.458.001-19.043l-32.389-22.233c-7.654-5.257-18.086.237-18.086 9.521v14.733h-24.013c-4.143 0-7.5 3.357-7.5 7.5s3.357 7.5 7.5 7.5h24.013v14.734c0 9.338 10.478 14.744 18.086 9.522zm-3.086-47.435l22.84 15.68-22.84 15.68zM217.512 421.821l32.389 22.233c3.544 2.434 8.112 2.702 11.916.699 3.806-2.004 6.17-5.919 6.17-10.22v-14.733h24.013c4.143 0 7.5-3.357 7.5-7.5s-3.357-7.5-7.5-7.5h-24.014v-14.734c0-9.286-10.432-14.776-18.086-9.521l-32.389 22.234v.001c-6.675 4.582-6.675 14.457.001 19.041zm35.474-25.201v31.359l-22.84-15.68zM321.121 492.114c0 10.965 8.921 19.886 19.886 19.886h119.607c10.965 0 19.886-8.921 19.886-19.886v-35.871c0-4.143-3.357-7.5-7.5-7.5s-7.5 3.357-7.5 7.5v35.871c0 2.694-2.191 4.886-4.886 4.886h-119.607c-2.694 0-4.886-2.191-4.886-4.886v-159.629c0-2.693 2.191-4.885 4.886-4.885h66.573v38.034c0 10.965 8.921 19.885 19.886 19.885h38.034v35.724c0 4.143 3.357 7.5 7.5 7.5s7.5-3.357 7.5-7.5v-43.223c0-1.914-.777-3.885-2.196-5.304l-57.92-57.919c-1.33-1.329-3.245-2.196-5.304-2.196h-74.073c-10.965 0-19.886 8.92-19.886 19.885zm101.459-153.907c4.683 4.683 27.63 27.629 32.313 32.312h-27.428c-2.694 0-4.886-2.191-4.886-4.885v-27.427z" fill="#3398dc" class="color000 svgShape"></path></svg></g></svg>