<?xml version="1.0" encoding="UTF-8"?>
<svg enable-background="new 0 0 512 512" version="1.1" viewBox="0 0 512 512" xml:space="preserve" xmlns="http://www.w3.org/2000/svg">
<g xmlns="http://www.w3.org/2000/svg">
	
		<path d="m294.11 256 210-210c10.523-10.524 10.523-27.586 0-38.109-10.524-10.524-27.587-10.524-38.11 0l-210 210-210-210c-10.524-10.524-27.586-10.524-38.109 0s-10.524 27.586 0 38.109l210 210-210 210c-10.524 10.524-10.524 27.586 0 38.109 10.524 10.524 27.586 10.523 38.109 0l210-210 210 210c10.524 10.524 27.587 10.523 38.11 0 10.523-10.524 10.523-27.586 0-38.109l-210-210z" fill="#fff" style="" data-original="#000000"/>
	
</g>















</svg>
