<svg xmlns="http://www.w3.org/2000/svg" width="250.56" height="107.008" viewBox="0 0 250.56 107.008">
  <g id="Group_9704" data-name="Group 9704" transform="translate(-73.44 -916.539)">
    <path id="Background" d="M234.32,73.08a8.12,8.12,0,1,1,8.12,8.12A8.119,8.119,0,0,1,234.32,73.08ZM162.4,81.2a8.151,8.151,0,0,1-1.74-.186,8.151,8.151,0,0,1-1.74.186H53.36a8.12,8.12,0,1,1,0-16.24H8.12a8.12,8.12,0,0,1,0-16.241h46.4a8.12,8.12,0,1,0,0-16.24h-29a8.12,8.12,0,1,1,0-16.241h46.4A8.12,8.12,0,0,1,71.92,0h66.12a8.12,8.12,0,0,1,0,16.24h74.24a8.12,8.12,0,0,1,0,16.241H237.8a8.12,8.12,0,0,1,0,16.24H215.76a8.12,8.12,0,0,0,0,16.241h6.961a8.12,8.12,0,0,1,0,16.24Z" transform="translate(73.44 916.539)" fill="#f7fdff"/>
    <path id="Line" d="M0,.5H24.887" transform="translate(135.92 1012.861)" fill="#c1ccd5" stroke="#c1ccd5" stroke-linecap="round" stroke-linejoin="round" stroke-miterlimit="10" stroke-width="2.5"/>
    <path id="Line-2" data-name="Line" d="M.128.5H8.1" transform="translate(120.861 1012.861)" fill="#c1ccd5" stroke="#c1ccd5" stroke-linecap="round" stroke-linejoin="round" stroke-miterlimit="10" stroke-width="2.5"/>
    <path id="Line-3" data-name="Line" d="M.128.5H3.46" transform="translate(278.741 1012.861)" fill="#c1ccd5" stroke="#c1ccd5" stroke-linecap="round" stroke-linejoin="round" stroke-miterlimit="10" stroke-width="2.5"/>
    <path id="Line-4" data-name="Line" d="M0,.5H26.016" transform="translate(247.401 1012.861)" fill="#c1ccd5" stroke="#c1ccd5" stroke-linecap="round" stroke-linejoin="round" stroke-miterlimit="10" stroke-width="2.5"/>
    <path id="Path_17781" data-name="Path 17781" d="M4036.679,6876.521l21.14-27.236h21.866l8.459,13.114,9.027-13.114h22.352l13.386,16.479,8.407,10.757Z" transform="translate(-3885 -5854)" fill="#f5fafd"/>
    <path id="Path_17782" data-name="Path 17782" d="M4088.595,6862.381l-25.972-39.633-4.95-9.161-1.638-9.068,1.638-8.988,4.95-10.994,10.49-9.179,13.053-4.264,15.942,2.706,11.98,9.63,6.335,16.317-.667,13.389-16.1,26.607Z" transform="translate(-3885 -5854)" fill="#fff"/>
    <g id="Group_9703" data-name="Group 9703" transform="translate(144.087 910.539)">
      <g id="Group_9701" data-name="Group 9701" transform="translate(6.004 6)">
        <path id="Path_17776" data-name="Path 17776" d="M139.508,237.688Z" transform="translate(-110.936 -188.103)" fill="#c1ccd5"/>
        <path id="Path_17777" data-name="Path 17777" d="M295.386,398.635,290.121,392h-.713l-4.23,6.634Z" transform="translate(-225.431 -309.39)" fill="#c1ccd5"/>
        <path id="Path_17778" data-name="Path 17778" d="M91.424,84.654a.85.85,0,0,0-.67-.324H69.665l17.279-27.1a32.958,32.958,0,1,0-54.872,0l.015.022L49.35,84.33H28.261a.852.852,0,0,0-.671.325h0L6.189,111.62a.856.856,0,0,0,.67,1.388h105.3a.856.856,0,0,0,.671-1.387ZM90.34,86.042l9.342,11.771H83.463L74.12,86.042Zm-18.405,0,9.342,11.771H61.069l7.5-11.771ZM33.518,56.313l-.01-.016a31.246,31.246,0,1,1,52,0l-.016.024L60.59,95.378l-1.083,1.7-1.083-1.7ZM50.442,86.042l7.5,11.771H37.738L47.08,86.042Zm-21.767,0H44.894L35.553,97.813H19.333ZM8.632,111.3l9.342-11.771H34.193L24.852,111.3Zm18.405,0,9.342-11.771H82.636L91.977,111.3Zm67.127,0L84.821,99.525h16.22l9.342,11.771Z" transform="translate(-6.004 -6)" fill="#c1ccd5"/>
        <path id="Path_17779" data-name="Path 17779" d="M134.52,238.4l0,.006,1.064-.719h0Z" transform="translate(-107.015 -188.103)" fill="#c1ccd5"/>
      </g>
      <g id="Group_9702" data-name="Group 9702" transform="translate(39.39 18.841)">
        <path id="Path_17780" data-name="Path 17780" d="M182.117,66a20.117,20.117,0,1,0,20.117,20.117A20.14,20.14,0,0,0,182.117,66Zm0,38.523a18.405,18.405,0,1,1,18.405-18.405A18.426,18.426,0,0,1,182.117,104.523Z" transform="translate(-162 -66)" fill="#c1ccd5"/>
      </g>
    </g>
    <circle id="Ellipse_1507" data-name="Ellipse 1507" cx="18.5" cy="18.5" r="18.5" transform="translate(185 931)" fill="#f0faff"/>
    <text id="_" data-name="?" transform="translate(211 960)" fill="#c1ccd5" stroke="#c1ccd5" stroke-width="1" font-size="31" font-family="Nunito-Bold, Nunito" font-weight="700" letter-spacing="-0.018em"><tspan x="-14.229" y="0">?</tspan></text>
  </g>
</svg>
