<svg xmlns="http://www.w3.org/2000/svg" width="250.56" height="105.324" viewBox="0 0 250.56 105.324">
  <g id="Group_9705" data-name="Group 9705" transform="translate(-348.44 -908.038)">
    <path id="Background" d="M234.32,73.08a8.12,8.12,0,1,1,8.12,8.12A8.119,8.119,0,0,1,234.32,73.08ZM171.049,81.2,167.3,73.08c-.6,0-12.254-29.336-12.815-29.459-.561.122-35.674-3.021-36.272-3.021l-8.752,3.021L94.62,81.2H53.36a8.12,8.12,0,1,1,0-16.24H8.12a8.12,8.12,0,0,1,0-16.241h46.4a8.12,8.12,0,1,0,0-16.24h-29a8.12,8.12,0,1,1,0-16.241h46.4A8.12,8.12,0,0,1,71.92,0h66.12a8.12,8.12,0,0,1,0,16.24h74.24a8.12,8.12,0,0,1,0,16.241H237.8a8.12,8.12,0,0,1,0,16.24H215.76a8.12,8.12,0,0,0,0,16.241h6.961a8.12,8.12,0,0,1,0,16.24Z" transform="translate(348.44 908.038)" fill="#f7fdff"/>
    <path id="Path_17771" data-name="Path 17771" d="M4345.765,6844.8l-4.176-7.928h-11.865l-1.577,23.99,3.1,4.888h57.711l10.964-1.062,2.962-6.45v-21.366h-13.926l-6.732,12.594H4349.7Z" transform="translate(-3885 -5854)" fill="#fff"/>
    <path id="Line" d="M0,.5H24.887" transform="translate(417.92 1004.36)" fill="#c1ccd5" stroke="#c1ccd5" stroke-linecap="round" stroke-linejoin="round" stroke-miterlimit="10" stroke-width="2.5"/>
    <path id="Line-2" data-name="Line" d="M.128.5H8.1" transform="translate(402.861 1004.36)" fill="#c1ccd5" stroke="#c1ccd5" stroke-linecap="round" stroke-linejoin="round" stroke-miterlimit="10" stroke-width="2.5"/>
    <path id="Line-3" data-name="Line" d="M.128.5H3.46" transform="translate(550.741 1004.36)" fill="#c1ccd5" stroke="#c1ccd5" stroke-linecap="round" stroke-linejoin="round" stroke-miterlimit="10" stroke-width="2.5"/>
    <path id="Line-4" data-name="Line" d="M0,.5H26.016" transform="translate(519.4 1004.36)" fill="#c1ccd5" stroke="#c1ccd5" stroke-linecap="round" stroke-linejoin="round" stroke-miterlimit="10" stroke-width="2.5"/>
    <path id="lines" d="M60.436,4.991,47.56,19.436ZM30.16,0V0ZM0,4.991,12.875,19.436Z" transform="translate(450.5 913)" fill="none" stroke="#c1ccd5" stroke-linecap="round" stroke-linejoin="round" stroke-miterlimit="10" stroke-width="2.5" opacity="0.55"/>
    <path id="Path_17772" data-name="Path 17772" d="M4342.752,6837.959l5.153,11.327h33.39l5.626-8.494-21.069-6.583Z" transform="translate(-3885 -5854)" fill="#f7fdff"/>
    <g id="empty" transform="translate(442 946.638)">
      <path id="Path_17769" data-name="Path 17769" d="M69.578,66.724H8.091A8.1,8.1,0,0,1,0,58.634V35.98a1.619,1.619,0,0,1,.142-.663L12.987,6.773A8.111,8.111,0,0,1,20.365,2H57.3a8.111,8.111,0,0,1,7.379,4.773L77.527,35.317a1.619,1.619,0,0,1,.142.663V58.634a8.1,8.1,0,0,1-8.091,8.091ZM3.236,36.326V58.634a4.86,4.86,0,0,0,4.854,4.854H69.578a4.86,4.86,0,0,0,4.854-4.854V36.326L61.731,8.1A4.869,4.869,0,0,0,57.3,5.236H20.365A4.867,4.867,0,0,0,15.938,8.1Z" transform="translate(0 0)" fill="#c1ccd5"/>
      <path id="Path_17770" data-name="Path 17770" d="M53.832,28.181H22.719a4.873,4.873,0,0,1-4.544-3.149l-3.282-8.747a1.619,1.619,0,0,0-1.515-1.049H1.868a1.618,1.618,0,0,1,0-3.236H13.379a4.88,4.88,0,0,1,4.547,3.149L21.2,23.9a1.625,1.625,0,0,0,1.515,1.049h31.11A1.619,1.619,0,0,0,55.343,23.9l3.278-8.747A4.888,4.888,0,0,1,63.172,12h12.32a1.618,1.618,0,0,1,0,3.236H63.172a1.619,1.619,0,0,0-1.515,1.049l-3.278,8.747A4.884,4.884,0,0,1,53.832,28.181Z" transform="translate(0.559 22.362)" fill="#c1ccd5"/>
    </g>
    <g id="cloud-computing" transform="translate(463.001 937.139)">
      <path id="Path_17773" data-name="Path 17773" d="M41.8,25.426h-.063a9.634,9.634,0,0,0-19.142,0h-.063a6.423,6.423,0,1,0,0,12.845H41.8a6.423,6.423,0,1,0,0-12.845Zm0,0" transform="translate(-15.03 -15.297)" fill="#fff"/>
      <g id="Group_9700" data-name="Group 9700" transform="translate(-0.001 0.5)">
        <path id="Path_17774" data-name="Path 17774" d="M27.63,9.114A10.7,10.7,0,0,0,6.635,9.108,7.493,7.493,0,0,0,7.5,24.045H12.85a1.07,1.07,0,1,0,0-2.141H7.5a5.352,5.352,0,0,1,.063-10.7,1.071,1.071,0,0,0,1.064-.953,8.564,8.564,0,0,1,17.014,0,1.135,1.135,0,0,0,1.127.953,5.352,5.352,0,1,1,0,10.7H21.414a1.07,1.07,0,0,0,0,2.141h5.352A7.493,7.493,0,0,0,27.63,9.114Zm0,0" transform="translate(0.001 -0.5)" fill="#c1ccd5"/>
        <path id="Path_17775" data-name="Path 17775" d="M181.632,220.5l-2.714,2.715V209.742a1.07,1.07,0,1,0-2.141,0v13.472l-2.714-2.715a1.071,1.071,0,0,0-1.54,1.487l.026.026,4.54,4.541a1.073,1.073,0,0,0,1.516,0l4.54-4.541a1.07,1.07,0,1,0-1.487-1.54Zm0,0" transform="translate(-160.715 -194.761)" fill="#c1ccd5"/>
      </g>
    </g>
  </g>
</svg>
