<svg xmlns="http://www.w3.org/2000/svg" width="185.105" height="109.913" viewBox="0 0 185.105 109.913">
  <g id="Group_8561" data-name="Group 8561" transform="translate(-707 -349)">
    <g id="empty_cart" data-name="empty cart" transform="translate(707 353.729)">
      <path id="Rectangle-path_3" d="M37,154.778a.778.778,0,0,1,.778-.778H69.324a.778.778,0,0,1,.778.778v5.2a.778.778,0,0,1-.778.778H37.778a.778.778,0,0,1-.778-.778Z" transform="translate(-13.355 -68.879)" fill="#f9f9fc"/>
      <g id="Shape_6" transform="translate(4.729 99.984)">
        <path id="Path_12189" data-name="Path 12189" d="M9,176H9Z" transform="translate(-9 -176)" fill="#8e99a4"/>
      </g>
      <g id="Shape_21" transform="translate(181.727 98.984)">
        <path id="Path_12191" data-name="Path 12191" d="M271,176h0Z" transform="translate(-271 -176)" fill="#8e99a4"/>
      </g>
      <g id="Shape_22" transform="translate(0 99.984)">
        <path id="Path_12193" data-name="Path 12193" d="M3.351,176h0Z" transform="translate(-2 -176)" fill="#8e99a4"/>
      </g>
      <g id="Group_8583" data-name="Group 8583" transform="translate(33 4)">
        <g id="Shape_5" transform="translate(16.848 99.66)">
          <path id="Path_12187" data-name="Path 12187" d="M120,177h98.633" transform="translate(-120 -177.001)" fill="#8e99a4"/>
          <path id="Path_12188" data-name="Path 12188" d="M120,177h98.633" transform="translate(-120 -177.001)" fill="none" stroke="#c6cbdb" stroke-linecap="round" stroke-linejoin="round" stroke-width="2.4"/>
        </g>
        <path id="Path_12190" data-name="Path 12190" d="M9,176H94.8" transform="translate(-4.271 -76.016)" fill="none" stroke="#c6cbdb" stroke-linecap="round" stroke-linejoin="round" stroke-width="2.4"/>
        <path id="Path_12192" data-name="Path 12192" d="M271,176h3.378" transform="translate(-152.142 -77.016)" fill="none" stroke="#c6cbdb" stroke-linecap="round" stroke-linejoin="round" stroke-width="2.4"/>
        <path id="Path_12194" data-name="Path 12194" d="M3.351,176H2" transform="translate(-2 -76.016)" fill="none" stroke="#c6cbdb" stroke-linecap="round" stroke-linejoin="round" stroke-width="2.4"/>
      </g>
      <path id="Shape_24" d="M178.251,45.223v-.156a9.071,9.071,0,0,1,17.915-2.016,5.922,5.922,0,0,1,8.814,5.175v.4A6.384,6.384,0,0,1,202.76,61H179.982a7.982,7.982,0,0,1-1.731-15.773Z" transform="translate(-56.478 -36)" fill="#f4f6f8"/>
      <g id="love-letter_1_" data-name="love-letter (1)" transform="translate(66.316 15.716)">
        <path id="Path_12200" data-name="Path 12200" d="M.5,100.707v64.7a2.454,2.454,0,0,0,2.449,2.449H53.471a2.45,2.45,0,0,0,2.449-2.449V103.156a2.449,2.449,0,0,0-2.449-2.449ZM21.511,112a6.689,6.689,0,0,1,6.7,6.635,6.7,6.7,0,0,1,13.4.027c0,2.128-1.127,3.7-2.554,5.244h0L28.209,135.4,17.373,123.93c-1.2-1.447-2.561-3.119-2.561-5.25a6.689,6.689,0,0,1,6.7-6.679Zm16.36,34.61a2.449,2.449,0,0,1-2.449,2.449H21a2.449,2.449,0,0,1,0-4.9H35.422A2.449,2.449,0,0,1,37.871,146.61Zm-21.1,5.153H39.65a2.449,2.449,0,0,1,0,4.9H16.77a2.449,2.449,0,0,1,0-4.9Zm0,0" transform="translate(0 -84.265)" fill="#f7fdff" stroke="#c5d0d9" stroke-width="1"/>
      </g>
    </g>
    <g id="Group_8560" data-name="Group 8560" transform="translate(784.036 349)">
      <circle id="Ellipse_1475" data-name="Ellipse 1475" cx="16.363" cy="16.363" r="16.363" transform="translate(2.443)" fill="#03a9f4" opacity="0.06"/>
      <g id="sad" transform="translate(0 0)" opacity="0.19">
        <g id="Group_8559" data-name="Group 8559">
          <g id="Group_8558" data-name="Group 8558">
            <path id="Path_12195" data-name="Path 12195" d="M110.581,224a8.608,8.608,0,0,0-6.411,2.851.658.658,0,1,0,.98.878,7.319,7.319,0,0,1,10.861,0,.658.658,0,0,0,.98-.878A8.608,8.608,0,0,0,110.581,224Z" transform="translate(-95.45 -205.58)"/>
            <path id="Path_12196" data-name="Path 12196" d="M15.131,0A15.131,15.131,0,1,0,30.262,15.131,15.148,15.148,0,0,0,15.131,0Zm0,28.946A13.815,13.815,0,1,1,28.946,15.131,13.831,13.831,0,0,1,15.131,28.946Z"/>
            <path id="Path_12197" data-name="Path 12197" d="M213.921,128a.658.658,0,0,0-.658.658,1.974,1.974,0,0,1-3.947,0,.658.658,0,1,0-1.316,0,3.289,3.289,0,0,0,6.579,0A.658.658,0,0,0,213.921,128Z" transform="translate(-190.895 -117.474)"/>
            <path id="Path_12198" data-name="Path 12198" d="M86.579,128.658a.658.658,0,1,0-1.316,0,1.974,1.974,0,0,1-3.947,0,.658.658,0,1,0-1.316,0,3.289,3.289,0,0,0,6.579,0Z" transform="translate(-73.421 -117.474)"/>
          </g>
        </g>
      </g>
    </g>
  </g>
</svg>
