<svg xmlns="http://www.w3.org/2000/svg" width="187.505" height="128.427" viewBox="0 0 187.505 128.427">
  <g id="Group_8561" data-name="Group 8561" transform="translate(-705.8 -349)">
    <g id="empty_cart" data-name="empty cart" transform="translate(707 353.729)">
      <path id="Shape_2" d="M202,106.485h19.328L230.374,95H211.013Z" transform="translate(-103.367 -49.737)" fill="#e8eaf1"/>
      <path id="Rectangle-path" d="M158,112h48.641v42.561H158Z" transform="translate(-89.092 -55.253)" fill="#f4f6f8"/>
      <path id="Rectangle-path_2" d="M158,112h29.725v42.561H158Z" transform="translate(-89.092 -55.253)" fill="#e1e7ed"/>
      <path id="Shape_3" d="M154,106.485,145,95h29.553l8.954,11.485Z" transform="translate(-84.875 -49.737)" fill="#e8eaf1"/>
      <g id="Shape_5" transform="translate(79.717 100.659)">
        <path id="Path_12187" data-name="Path 12187" d="M120,177h98.633" transform="translate(-120 -177)" fill="#8e99a4"/>
        <path id="Path_12188" data-name="Path 12188" d="M120,177h98.633" transform="translate(-120 -177)" fill="none" stroke="#c6cbdb" stroke-linecap="round" stroke-linejoin="round" stroke-width="2.4"/>
      </g>
      <path id="Rectangle-path_3" d="M37,154.778a.778.778,0,0,1,.778-.778H69.324a.778.778,0,0,1,.778.778v5.2a.778.778,0,0,1-.778.778H37.778a.778.778,0,0,1-.778-.778Z" transform="translate(-13.355 -68.879)" fill="#f9f9fc"/>
      <g id="Shape_6" transform="translate(4.729 99.984)">
        <path id="Path_12189" data-name="Path 12189" d="M9,176H9Z" transform="translate(-9 -176)" fill="#8e99a4"/>
        <path id="Path_12190" data-name="Path 12190" d="M9,176H94.8" transform="translate(-9 -176)" fill="none" stroke="#c6cbdb" stroke-linecap="round" stroke-linejoin="round" stroke-width="2.4"/>
      </g>
      <g id="_Group_" transform="translate(54.045 33.567)">
        <path id="Shape_7" d="M162.189,90.021a.074.074,0,0,1,0,.094Z" transform="translate(-78.628 -78.775)" fill="#e8eaf1"/>
        <path id="Shape_8" d="M122.132,122.193v40.381a15.594,15.594,0,0,1-15.624,15.56H54.629a15.6,15.6,0,0,1-15.621-15.456l-.29-40.486Z" transform="translate(-38.57 -89.213)" fill="#f7fdff"/>
        <path id="Shape_9" d="M122.059,90.165V111.8H38.647L38.5,90.454l83.478-.271A.076.076,0,0,0,122.059,90.165Z" transform="translate(-38.498 -78.822)" fill="#f7fdff"/>
        <path id="Shape_10" d="M122.073,84.62v.094a.077.077,0,0,1-.058.022l-83.478.271,2.385-1.13,8.988-4.264-9.224-5.769a.108.108,0,0,1,.058-.2l78.059-.271a.083.083,0,0,1,.055.148l-.055.043-7.582,6.022,7.582,3.5,3.241,1.495A.048.048,0,0,1,122.073,84.62Z" transform="translate(-38.511 -73.374)" fill="#20a7df" opacity="0"/>
        <path id="Shape_11" d="M153.709,73.673V83.2l-7.582-3.5Z" transform="translate(-73.417 -73.471)" fill="#e8eaf1"/>
        <path id="Shape_12" d="M50.943,79.831l-8.988,4.26-.236-10.011Z" transform="translate(-39.543 -73.603)" fill="#e8eaf1"/>
        <path id="Shape_13" d="M41.719,74.079l.236,10.011" transform="translate(-39.543 -73.603)" fill="none" stroke="#c5d0d9" stroke-linecap="round" stroke-linejoin="round" stroke-width="2.4"/>
        <path id="Shape_14" d="M38.5,90.333l.149,21.348.29,40.486a15.6,15.6,0,0,0,15.621,15.456h51.878a15.593,15.593,0,0,0,15.628-15.56V89.791" transform="translate(-38.498 -78.7)" fill="none" stroke="#c5d0d9" stroke-linecap="round" stroke-linejoin="round" stroke-width="2.4"/>
        <path id="Shape_15" d="M40.686,73.843a.108.108,0,0,1,.058-.2l78.059-.271a.083.083,0,0,1,.055.148l-.055.043-7.582,6.022,7.582,3.5,3.241,1.495a.046.046,0,0,1,.025.022.069.069,0,0,1-.058.116l-83.474.285h0l2.385-1.13,8.988-4.264Z" transform="translate(-38.511 -73.374)" fill="none" stroke="#c5d0d9" stroke-linecap="round" stroke-linejoin="round" stroke-width="2.4" fill-rule="evenodd"/>
        <path id="Shape_16" d="M157.352,73.673V83.2" transform="translate(-77.058 -73.471)" fill="none" stroke="#c5d0d9" stroke-linecap="round" stroke-linejoin="round" stroke-width="2.4"/>
        <path id="Shape_17" d="M38.5,122.193h83.561" transform="translate(-38.498 -89.213)" fill="none" stroke="#c5d0d9" stroke-linecap="round" stroke-linejoin="round" stroke-width="2.4"/>
      </g>
      <g id="_Group_2" transform="translate(126.431 45.679)">
        <g id="Group" transform="translate(0)" opacity="0.13">
          <path id="Shape_18" d="M157.671,90.059H147.148s.615,76.982,1.491,76.809c1.942-.384,8.539-5,8.6-12.706l.313-40.546Z" transform="translate(-147.148 -90.059)" fill="#e8eaf1"/>
          <path id="Shape_19" d="M147.148,90.059s.615,76.982,1.491,76.809c1.942-.384,8.539-5,8.6-12.706l.313-40.546.112-23.556Z" transform="translate(-147.148 -90.059)" fill="none" stroke="#c5d0d9" stroke-linecap="round" stroke-linejoin="round" stroke-width="2.4" fill-rule="evenodd"/>
        </g>
      </g>
      <path id="Shape_20" d="M112.587,111c0,19.624-5.612,39.858-22.393,39.858-16.51,0-22.194-19.677-22.194-39.3" transform="translate(5.976 -52.014)" fill="none" stroke="#c5d0d9" stroke-linecap="round" stroke-linejoin="round" stroke-width="2.4"/>
      <path id="Oval" d="M66.378,108.756A3.378,3.378,0,1,0,63,105.378,3.378,3.378,0,0,0,66.378,108.756Z" transform="translate(7.598 -49.094)" fill="#e8eaf1" stroke="#c5d0d9" stroke-linecap="round" stroke-linejoin="round" stroke-width="2.4"/>
      <path id="Oval_2" d="M132.378,107.756A3.378,3.378,0,1,0,129,104.378,3.378,3.378,0,0,0,132.378,107.756Z" transform="translate(-13.815 -48.77)" fill="#e8eaf1" stroke="#c5d0d9" stroke-linecap="round" stroke-linejoin="round" stroke-width="2.4"/>
      <g id="Shape_21" transform="translate(181.727 99.984)">
        <path id="Path_12191" data-name="Path 12191" d="M271,176h0Z" transform="translate(-271 -176)" fill="#8e99a4"/>
        <path id="Path_12192" data-name="Path 12192" d="M271,176h3.378" transform="translate(-271 -176)" fill="none" stroke="#c6cbdb" stroke-linecap="round" stroke-linejoin="round" stroke-width="2.4"/>
      </g>
      <g id="Shape_22" transform="translate(0 99.984)">
        <path id="Path_12193" data-name="Path 12193" d="M3.351,176h0Z" transform="translate(-2 -176)" fill="#8e99a4"/>
        <path id="Path_12194" data-name="Path 12194" d="M3.351,176H2" transform="translate(-2 -176)" fill="none" stroke="#c6cbdb" stroke-linecap="round" stroke-linejoin="round" stroke-width="2.4"/>
      </g>
      <path id="Shape_24" d="M178.251,45.223v-.156a9.071,9.071,0,0,1,17.915-2.016,5.922,5.922,0,0,1,8.814,5.175v.4A6.384,6.384,0,0,1,202.76,61H179.982a7.982,7.982,0,0,1-1.731-15.773Z" transform="translate(-56.478 -36)" fill="#f4f6f8"/>
    </g>
    <g id="Group_8560" data-name="Group 8560" transform="translate(784.036 349)">
      <circle id="Ellipse_1475" data-name="Ellipse 1475" cx="16.363" cy="16.363" r="16.363" transform="translate(2.443)" fill="#03a9f4" opacity="0.06"/>
      <g id="sad" transform="translate(0 0)" opacity="0.19">
        <g id="Group_8559" data-name="Group 8559">
          <g id="Group_8558" data-name="Group 8558">
            <path id="Path_12195" data-name="Path 12195" d="M110.581,224a8.608,8.608,0,0,0-6.411,2.851.658.658,0,1,0,.98.878,7.319,7.319,0,0,1,10.861,0,.658.658,0,0,0,.98-.878A8.608,8.608,0,0,0,110.581,224Z" transform="translate(-95.45 -205.58)"/>
            <path id="Path_12196" data-name="Path 12196" d="M15.131,0A15.131,15.131,0,1,0,30.262,15.131,15.148,15.148,0,0,0,15.131,0Zm0,28.946A13.815,13.815,0,1,1,28.946,15.131,13.831,13.831,0,0,1,15.131,28.946Z"/>
            <path id="Path_12197" data-name="Path 12197" d="M213.921,128a.658.658,0,0,0-.658.658,1.974,1.974,0,0,1-3.947,0,.658.658,0,1,0-1.316,0,3.289,3.289,0,0,0,6.579,0A.658.658,0,0,0,213.921,128Z" transform="translate(-190.895 -117.474)"/>
            <path id="Path_12198" data-name="Path 12198" d="M86.579,128.658a.658.658,0,1,0-1.316,0,1.974,1.974,0,0,1-3.947,0,.658.658,0,1,0-1.316,0,3.289,3.289,0,0,0,6.579,0Z" transform="translate(-73.421 -117.474)"/>
          </g>
        </g>
      </g>
    </g>
  </g>
</svg>
