<svg xmlns="http://www.w3.org/2000/svg" width="250.56" height="144.738" viewBox="0 0 250.56 144.738">
  <g id="Group_9699" data-name="Group 9699" transform="translate(-648.44 -880.032)">
    <g id="ic_cart" transform="translate(648.44 882)">
      <path id="Background" d="M234.32,73.08a8.12,8.12,0,1,1,8.12,8.12A8.119,8.119,0,0,1,234.32,73.08ZM162.4,81.2a8.151,8.151,0,0,1-1.74-.186,8.151,8.151,0,0,1-1.74.186H53.36a8.12,8.12,0,1,1,0-16.24H8.12a8.12,8.12,0,0,1,0-16.241h46.4a8.12,8.12,0,1,0,0-16.24h-29a8.12,8.12,0,1,1,0-16.241h46.4A8.12,8.12,0,0,1,71.92,0h66.12a8.12,8.12,0,0,1,0,16.24h74.24a8.12,8.12,0,0,1,0,16.241H237.8a8.12,8.12,0,0,1,0,16.24H215.76a8.12,8.12,0,0,0,0,16.241h6.961a8.12,8.12,0,0,1,0,16.24Z" transform="translate(0 31.32)" fill="#f7fdff"/>
      <path id="Rectangle" d="M2.32,0H80.04L73.08,10.44l9.28,6.96H0l10.44-6.96Z" transform="translate(89.32 33.64)" fill="#f7fdff"/>
      <path id="Line" d="M0,.5H24.887" transform="translate(61.48 125.36)" fill="none" stroke="#c1ccd5" stroke-linecap="round" stroke-linejoin="round" stroke-miterlimit="10" stroke-width="2.5"/>
      <path id="Line-2" data-name="Line" d="M.128.5H8.1" transform="translate(46.42 125.36)" fill="none" stroke="#c1ccd5" stroke-linecap="round" stroke-linejoin="round" stroke-miterlimit="10" stroke-width="2.5"/>
      <path id="Line-3" data-name="Line" d="M.128.5H3.46" transform="translate(212.3 125.36)" fill="none" stroke="#c1ccd5" stroke-linecap="round" stroke-linejoin="round" stroke-miterlimit="10" stroke-width="2.5"/>
      <path id="Line-4" data-name="Line" d="M0,.5H26.016" transform="translate(180.96 125.36)" fill="none" stroke="#c1ccd5" stroke-linecap="round" stroke-linejoin="round" stroke-miterlimit="10" stroke-width="2.5"/>
      <path id="bag" d="M81.825,91.64H4.588A4.619,4.619,0,0,1,0,87V3.48A3.506,3.506,0,0,1,3.523,0h80.6a2.31,2.31,0,0,1,2.294,2.32V87A4.619,4.619,0,0,1,81.825,91.64Z" transform="translate(88.167 49.88)" fill="#fff" stroke="#c1ccd5" stroke-linecap="round" stroke-miterlimit="10" stroke-width="2.5"/>
      <path id="Rectangle-2" data-name="Rectangle" d="M81.2,0V13.92a2.211,2.211,0,0,1-2.082,2.32H2.082A2.211,2.211,0,0,1,0,13.92V0" transform="translate(171.68 49.88) rotate(180)" fill="none" stroke="#c1ccd5" stroke-miterlimit="10" stroke-width="2.5"/>
      <g id="Group_9698" data-name="Group 9698" transform="translate(262.16 158.92) rotate(180)">
        <circle id="Oval" cx="4.06" cy="4.06" r="4.06" transform="translate(107.88 66.12)" fill="#fff" stroke="#c1ccd5" stroke-miterlimit="10" stroke-width="2.5"/>
        <circle id="Oval-2" data-name="Oval" cx="4.06" cy="4.06" r="4.06" transform="translate(146.16 66.12)" fill="#fff" stroke="#c1ccd5" stroke-miterlimit="10" stroke-width="2.5"/>
        <path id="Oval-3" data-name="Oval" d="M37.12-16A18.56,18.56,0,0,1,18.56,2.56,18.56,18.56,0,0,1,0-16" transform="translate(112.52 90.24)" fill="none" stroke="#c1ccd5" stroke-linecap="round" stroke-miterlimit="10" stroke-width="2.5"/>
      </g>
      <path id="Path_3" data-name="Path 3" d="M1.231,0,9.475,8.138a1.16,1.16,0,0,1-.253,1.84L0,15.084" transform="translate(90.48 34.796)" fill="none" stroke="#c1ccd5" stroke-linecap="round" stroke-miterlimit="10" stroke-width="2.5"/>
      <path id="Path_3-2" data-name="Path 3" d="M-.393,0l-7.89,8.047a1.16,1.16,0,0,0,.273,1.83L1.378,15" transform="translate(171.039 34.88)" fill="none" stroke="#c1ccd5" stroke-linecap="round" stroke-miterlimit="10" stroke-width="2.5"/>
      <path id="Path_12165" data-name="Path 12165" d="M23.082,20.455l5.247-4.582a2.21,2.21,0,1,0-2.908-3.329l-9.667,8.438a2.211,2.211,0,0,0,0,3.329l9.667,8.435a2.209,2.209,0,0,0,2.905-3.329L23.15,24.9a14.519,14.519,0,0,1,13.945,14.62v5.625a2.211,2.211,0,0,0,4.422,0V39.521A18.953,18.953,0,0,0,23.082,20.455Z" transform="matrix(0.208, -0.978, 0.978, 0.208, 107.474, 36.147)" fill="#c3cbcf"/>
    </g>
  </g>
</svg>
