<svg id="Layer_1" data-name="Layer 1" xmlns="http://www.w3.org/2000/svg" viewBox="0 0 197.57 64.63"><defs><style>.cls-1{fill:#fff;}</style></defs><title>app-store-download-icon</title><rect width="197.57" height="64.63" rx="8.73" ry="8.73"/><path class="cls-1" d="M952.61,1010.13a32.11,32.11,0,0,1-2.89,5.4c-1.88,2.86-4.53,6.42-7.81,6.45-2.92,0-3.67-1.9-7.62-1.87s-4.78,1.91-7.7,1.88c-3.28,0-5.79-3.25-7.67-6.11-5.25-8-5.8-17.38-2.56-22.37,2.3-3.55,5.93-5.62,9.35-5.62s5.66,1.91,8.54,1.91,4.49-1.91,8.51-1.91a11.35,11.35,0,0,1,8.55,4.52C943.79,996.52,945,1007.26,952.61,1010.13Z" transform="translate(-901.09 -967.41)"/><path class="cls-1" d="M939.7,984.69a9.77,9.77,0,0,0,2.17-7.23,10.54,10.54,0,0,0-6.81,3.66,9.05,9.05,0,0,0-2.22,7.05A8.91,8.91,0,0,0,939.7,984.69Z" transform="translate(-901.09 -967.41)"/><path class="cls-1" d="M968.61,993.39l-7.53,22.16h3.45l2.25-6.8h7.29l2.31,6.8h3.54l-7.56-22.16ZM970.4,997c.25,1,.53,2,.88,3.13l2,5.87h-5.77l2-5.91C969.84,999.16,970.13,998.12,970.4,997Z" transform="translate(-901.09 -967.41)"/><path class="cls-1" d="M989.66,999.13a6.27,6.27,0,0,0-5.33,2.56l-.13-2.2h-3.07l0,.28c.09,1.37.13,2.88.13,5.05v17.08h3.35v-8a5.89,5.89,0,0,0,4.58,2,6.91,6.91,0,0,0,5.08-2.16,9.16,9.16,0,0,0,2.24-6.45,8.92,8.92,0,0,0-1.95-5.89A6.38,6.38,0,0,0,989.66,999.13Zm-.83,2.78c3,0,4.33,2.77,4.33,5.51,0,3.54-1.71,5.74-4.45,5.74a4.06,4.06,0,0,1-3.95-3.11,4.25,4.25,0,0,1-.12-1.09v-2.7a5,5,0,0,1,.11-.83l0-.27A4.25,4.25,0,0,1,988.83,1001.91Z" transform="translate(-901.09 -967.41)"/><path class="cls-1" d="M1006.92,999.13a6.28,6.28,0,0,0-5.33,2.56l-.13-2.2h-3.06l0,.28c.09,1.37.13,2.88.13,5.05v17.08h3.35v-8a5.88,5.88,0,0,0,4.58,2,6.92,6.92,0,0,0,5.08-2.16,9.16,9.16,0,0,0,2.24-6.45,8.91,8.91,0,0,0-1.95-5.89A6.37,6.37,0,0,0,1006.92,999.13Zm-.83,2.78c3,0,4.32,2.77,4.32,5.51,0,3.54-1.71,5.74-4.45,5.74A4.06,4.06,0,0,1,1002,1010a4.25,4.25,0,0,1-.12-1.09v-2.7a5,5,0,0,1,.11-.83c0-.09,0-.18,0-.27A4.24,4.24,0,0,1,1006.09,1001.91Z" transform="translate(-901.09 -967.41)"/><path class="cls-1" d="M1028.55,1002.78c-3.13-1.21-4.13-2.16-4.13-3.92,0-1.48,1.18-3,3.81-3a7.62,7.62,0,0,1,3.93,1l.29.17.95-2.8-.19-.11a9.71,9.71,0,0,0-4.88-1.09c-4.28,0-7.26,2.52-7.26,6.14,0,2.91,1.87,4.95,5.88,6.41,2.85,1.06,3.9,2.15,3.9,4,0,2.11-1.63,3.42-4.26,3.42a9.16,9.16,0,0,1-4.83-1.37l-.29-.19-.9,2.86.17.11a11.47,11.47,0,0,0,5.66,1.46c5.76,0,7.8-3.51,7.8-6.52S1032.56,1004.36,1028.55,1002.78Z" transform="translate(-901.09 -967.41)"/><path class="cls-1" d="M1040.23,995.67l-3.29,1v2.78h-2.41v2.68h2.41v8.21a6.27,6.27,0,0,0,1.16,4.25,4.3,4.3,0,0,0,3.24,1.27,7.9,7.9,0,0,0,2.59-.4l.19-.07-.16-2.68-.32.1a5.06,5.06,0,0,1-1.56.18c-1.3,0-1.85-.82-1.85-2.75v-8.11h4v-2.68h-4Z" transform="translate(-901.09 -967.41)"/><path class="cls-1" d="M1052.58,999.13c-4.69,0-8,3.5-8,8.51,0,4.86,3.17,8.25,7.71,8.25h0c3.84,0,8-2.67,8-8.54a8.47,8.47,0,0,0-2.14-5.93A7.46,7.46,0,0,0,1052.58,999.13Zm-.1,2.65c3,0,4.39,2.94,4.39,5.67,0,3.36-1.87,5.8-4.45,5.8h0c-2.54,0-4.39-2.4-4.39-5.7C1048,1004.67,1049.39,1001.78,1052.49,1001.78Z" transform="translate(-901.09 -967.41)"/><path class="cls-1" d="M1070.59,999.29l-.2-.05a3.24,3.24,0,0,0-.83-.1,4.78,4.78,0,0,0-4.2,2.7l-.1-2.35h-3l0,.28c.09,1.33.13,2.82.13,4.83l0,11h3.35V1007a8.66,8.66,0,0,1,.09-1.3c.38-2.05,1.76-3.38,3.53-3.38a8.48,8.48,0,0,1,.9.06l.36,0Z" transform="translate(-901.09 -967.41)"/><path class="cls-1" d="M1078.13,999.1c-4.46,0-7.58,3.57-7.58,8.67,0,4.92,3.1,8.09,7.9,8.09a12.84,12.84,0,0,0,5.31-1l.2-.09-.64-2.5-.28.11a10.37,10.37,0,0,1-4.2.75,4.66,4.66,0,0,1-5-4.86l10.82,0,0-.21a7.43,7.43,0,0,0,.1-1.4C1084.78,1003.18,1083,999.1,1078.13,999.1Zm-.22,2.55a3.31,3.31,0,0,1,2.46.94,4.77,4.77,0,0,1,1.15,3.12h-7.64C1074.19,1003.77,1075.4,1001.65,1077.9,1001.65Z" transform="translate(-901.09 -967.41)"/><path class="cls-1" d="M961.09,978.25a24.45,24.45,0,0,1,3.21-.22,7.18,7.18,0,0,1,4.72,1.29,4.59,4.59,0,0,1,1.66,3.78,5.31,5.31,0,0,1-1.68,4.08,7.78,7.78,0,0,1-5.17,1.51,23.27,23.27,0,0,1-2.75-.12Zm1.52,9.29a10.78,10.78,0,0,0,1.52.06c3.21,0,5-1.62,5-4.45,0-2.5-1.54-4-4.72-4a9.52,9.52,0,0,0-1.76.14Z" transform="translate(-901.09 -967.41)"/><path class="cls-1" d="M976.07,988.77a3.78,3.78,0,0,1-4-3.87,3.88,3.88,0,0,1,4.15-4,3.75,3.75,0,0,1,4,3.86,3.9,3.9,0,0,1-4.15,4Zm.05-1a2.68,2.68,0,0,0,2.54-2.94,2.56,2.56,0,1,0-2.56,2.94Z" transform="translate(-901.09 -967.41)"/><path class="cls-1" d="M982.65,981.07l1.12,3.81c.22.84.45,1.63.61,2.41h.05c.19-.76.47-1.57.74-2.4l1.37-3.83h1.28l1.3,3.76c.31.89.55,1.7.74,2.46h.05a21.06,21.06,0,0,1,.64-2.44l1.19-3.78h1.5l-2.7,7.53h-1.38L987.88,985a24.65,24.65,0,0,1-.74-2.49h0a20.53,20.53,0,0,1-.76,2.5L985,988.6h-1.38l-2.52-7.53Z" transform="translate(-901.09 -967.41)"/><path class="cls-1" d="M994.76,983.11c0-.79,0-1.41-.07-2H996l.09,1.23h0a3.17,3.17,0,0,1,2.77-1.4,2.86,2.86,0,0,1,3,3.2v4.5h-1.52v-4.34c0-1.21-.5-2.24-1.94-2.24a2.17,2.17,0,0,0-2,1.4,1.87,1.87,0,0,0-.1.64v4.54h-1.52Z" transform="translate(-901.09 -967.41)"/><path class="cls-1" d="M1004.36,977.55h1.52v11h-1.52Z" transform="translate(-901.09 -967.41)"/><path class="cls-1" d="M1011.81,988.77a3.78,3.78,0,0,1-4-3.87,3.88,3.88,0,0,1,4.15-4,3.75,3.75,0,0,1,4,3.86,3.9,3.9,0,0,1-4.15,4Zm.05-1a2.68,2.68,0,0,0,2.54-2.94,2.56,2.56,0,1,0-2.56,2.94Z" transform="translate(-901.09 -967.41)"/><path class="cls-1" d="M1023.79,986.79a11.43,11.43,0,0,0,.12,1.8h-1.37l-.14-.95h-.05a3.22,3.22,0,0,1-2.56,1.12,2.28,2.28,0,0,1-2.56-2.16c0-1.82,1.8-2.82,5-2.8v-.16c0-.62-.19-1.76-1.9-1.74a4.36,4.36,0,0,0-2.2.56l-.35-.92a5.89,5.89,0,0,1,2.77-.65c2.58,0,3.2,1.57,3.2,3.08Zm-1.49-2c-1.66,0-3.54.23-3.54,1.7a1.27,1.27,0,0,0,1.42,1.31,2.11,2.11,0,0,0,2.06-1.26,1.26,1.26,0,0,0,.07-.44Z" transform="translate(-901.09 -967.41)"/><path class="cls-1" d="M1033.45,977.55v9.1c0,.67,0,1.43.07,1.94h-1.37l-.07-1.31h0a3.13,3.13,0,0,1-2.83,1.48,3.59,3.59,0,0,1-3.6-3.83,3.75,3.75,0,0,1,3.75-4,2.88,2.88,0,0,1,2.53,1.14h0v-4.48Zm-1.52,6.58a2.26,2.26,0,0,0-.07-.59,2.2,2.2,0,0,0-2.2-1.57c-1.57,0-2.51,1.24-2.51,2.89a2.5,2.5,0,0,0,2.47,2.8,2.27,2.27,0,0,0,2.23-1.63,2.12,2.12,0,0,0,.07-.59Z" transform="translate(-901.09 -967.41)"/><path class="cls-1" d="M1043,988.77a3.78,3.78,0,0,1-4-3.87,3.88,3.88,0,0,1,4.15-4,3.75,3.75,0,0,1,4,3.86,3.9,3.9,0,0,1-4.15,4Zm.05-1a2.68,2.68,0,0,0,2.54-2.94,2.56,2.56,0,1,0-2.56,2.94Z" transform="translate(-901.09 -967.41)"/><path class="cls-1" d="M1049.13,983.11c0-.79,0-1.41-.07-2h1.35l.09,1.23h0a3.17,3.17,0,0,1,2.77-1.4,2.86,2.86,0,0,1,3,3.2v4.5h-1.52v-4.34c0-1.21-.5-2.24-1.94-2.24a2.17,2.17,0,0,0-2,1.4,1.87,1.87,0,0,0-.1.64v4.54h-1.52Z" transform="translate(-901.09 -967.41)"/><path class="cls-1" d="M1064.22,979.26v1.8h2.18v1h-2.18v4.06c0,.93.29,1.46,1.14,1.46a3.13,3.13,0,0,0,.88-.09l.07,1a4.54,4.54,0,0,1-1.35.19,2.3,2.3,0,0,1-1.64-.58,2.73,2.73,0,0,1-.59-2v-4.11h-1.3v-1h1.3v-1.38Z" transform="translate(-901.09 -967.41)"/><path class="cls-1" d="M1068.12,977.55h1.52v4.7h0a2.57,2.57,0,0,1,1.09-1,3.2,3.2,0,0,1,1.55-.39c1.12,0,2.92.62,2.92,3.22v4.48h-1.52v-4.32c0-1.23-.5-2.24-1.94-2.24a2.19,2.19,0,0,0-2,1.37,1.51,1.51,0,0,0-.1.65v4.54h-1.52Z" transform="translate(-901.09 -967.41)"/><path class="cls-1" d="M1078.57,985.07a2.55,2.55,0,0,0,2.85,2.61,6.35,6.35,0,0,0,2.32-.37l.28,1a7.49,7.49,0,0,1-2.8.48c-2.56,0-4.11-1.54-4.11-3.8a3.83,3.83,0,0,1,3.94-4.08,3.3,3.3,0,0,1,3.44,3.55,3.12,3.12,0,0,1-.05.65Zm4.44-1a2,2,0,0,0-2.09-2.22,2.37,2.37,0,0,0-2.33,2.22Z" transform="translate(-901.09 -967.41)"/></svg>