<svg id="Layer_1" data-name="Layer 1" xmlns="http://www.w3.org/2000/svg" xmlns:xlink="http://www.w3.org/1999/xlink" viewBox="0 0 198.07 63.36"><defs><style>.cls-1{fill:none;}.cls-2{fill:#231f20;}.cls-3{clip-path:url(#clip-path);}.cls-4{fill:url(#linear-gradient);}.cls-5{fill:url(#linear-gradient-2);}.cls-6{fill:url(#linear-gradient-3);}.cls-7{fill:url(#linear-gradient-4);}.cls-8{fill:#f9f9f9;}.cls-9{fill:#f9f9fa;}</style><clipPath id="clip-path" transform="translate(-900.67 -968.04)"><path id="SVGID" class="cls-1" d="M942.64,995.93l-8.73-5-16.85-9.73c-.94-.54-1.87-.21-1.87.92v39.63c0,.85.67,1.21,1.48.74l17.23-10,8.73-5,8.39-4.85c1-.57.89-1.35.06-1.8S942.64,995.93,942.64,995.93Z"/></clipPath><linearGradient id="linear-gradient" x1="25.35" y1="12.2" x2="25.35" y2="55.11" gradientUnits="userSpaceOnUse"><stop offset="0" stop-color="#287db0"/><stop offset="0.19" stop-color="#3d8fb3"/><stop offset="0.74" stop-color="#74bcb9"/><stop offset="1" stop-color="#8acebc"/></linearGradient><linearGradient id="linear-gradient-2" x1="14.53" y1="22.85" x2="41.98" y2="22.85" gradientUnits="userSpaceOnUse"><stop offset="0" stop-color="#53c0ac"/><stop offset="1" stop-color="#dee89a"/></linearGradient><linearGradient id="linear-gradient-3" x1="28.25" y1="33.65" x2="28.25" y2="55.26" gradientUnits="userSpaceOnUse"><stop offset="0" stop-color="#eb413d"/><stop offset="0.19" stop-color="#d64352"/><stop offset="0.74" stop-color="#9f4a89"/><stop offset="1" stop-color="#894c9e"/></linearGradient><linearGradient id="linear-gradient-4" x1="44.06" y1="27.89" x2="44.06" y2="39.41" gradientUnits="userSpaceOnUse"><stop offset="0" stop-color="#f58879"/><stop offset="0.61" stop-color="#fbb176"/><stop offset="1" stop-color="#fec774"/></linearGradient></defs><title>google-download-icon</title><rect class="cls-2" width="198.07" height="63.36" rx="8.56" ry="8.56"/><g id="PLAY"><g class="cls-3"><polygon class="cls-4" points="14.53 12.2 14.53 33.65 14.53 55.1 36.17 33.65 14.53 12.2"/><polygon class="cls-5" points="41.98 27.89 33.24 22.85 14.53 12.04 14.53 12.2 36.17 33.65 41.98 27.89"/><polygon class="cls-6" points="14.53 55.1 14.53 55.26 33.24 44.46 41.98 39.41 36.17 33.65 14.53 55.1"/><polygon class="cls-7" points="41.98 27.89 36.17 33.65 41.98 39.41 51.96 33.65 41.98 27.89"/></g></g><path class="cls-8" d="M1055.79,1010.08a5.4,5.4,0,0,1-2.22-.45,4.19,4.19,0,0,1-1.69-1.38h-.14a17,17,0,0,1,.14,2.07v5.13H1050V997.38h1.54l.26,1.71h.09a4.38,4.38,0,0,1,1.7-1.48,5.16,5.16,0,0,1,2.22-.46,4.62,4.62,0,0,1,3.83,1.7,9,9,0,0,1,0,9.54A4.63,4.63,0,0,1,1055.79,1010.08Zm-.27-11.33a3.35,3.35,0,0,0-2.77,1.06,5.44,5.44,0,0,0-.88,3.37v.42a6.24,6.24,0,0,0,.88,3.76,3.33,3.33,0,0,0,2.81,1.13,2.93,2.93,0,0,0,2.54-1.31,6.2,6.2,0,0,0,.92-3.61,6,6,0,0,0-.92-3.58A3,3,0,0,0,1055.51,998.76Z" transform="translate(-900.67 -968.04)"/><path class="cls-8" d="M1065.34,1009.86h-1.89V992.14h1.89Z" transform="translate(-900.67 -968.04)"/><path class="cls-8" d="M1076.21,1009.86l-.37-1.78h-.09a5.24,5.24,0,0,1-1.86,1.59,5.65,5.65,0,0,1-2.32.42,4.17,4.17,0,0,1-2.91-1,3.49,3.49,0,0,1-1.05-2.72q0-3.78,6-4l2.12-.07v-.77a3.16,3.16,0,0,0-.63-2.17,2.59,2.59,0,0,0-2-.7,8.23,8.23,0,0,0-3.53,1l-.58-1.45a8.88,8.88,0,0,1,2-.79,8.72,8.72,0,0,1,2.2-.29,4.75,4.75,0,0,1,3.31,1,4.14,4.14,0,0,1,1.08,3.18v8.52Zm-4.27-1.33a3.84,3.84,0,0,0,2.77-1,3.59,3.59,0,0,0,1-2.71v-1.13l-1.89.08a6.88,6.88,0,0,0-3.25.7,2.11,2.11,0,0,0-1,1.93,1.94,1.94,0,0,0,.62,1.56A2.57,2.57,0,0,0,1071.94,1008.52Z" transform="translate(-900.67 -968.04)"/><path class="cls-8" d="M1078.71,997.38h2l2.73,7.12a27.17,27.17,0,0,1,1.12,3.52h.09q.15-.58.62-2t3.09-8.65h2l-5.36,14.21a7.08,7.08,0,0,1-1.86,3,4,4,0,0,1-2.61.88,7.61,7.61,0,0,1-1.71-.19v-1.51a6.61,6.61,0,0,0,1.4.14,2.89,2.89,0,0,0,2.78-2.19l.69-1.78Z" transform="translate(-900.67 -968.04)"/><path class="cls-8" d="M1020.78,998.54a4.4,4.4,0,0,1,1.85,3.52c0,1.93-1.1,2.84-2.19,3.71a1.84,1.84,0,0,0-.73,1.28,1.43,1.43,0,0,0,.68,1.12l.94.73c1.15,1,2.19,1.85,2.19,3.66,0,2.45-2.38,4.93-6.86,4.93-3.79,0-5.61-1.8-5.61-3.73a3.76,3.76,0,0,1,2-3.18,11.26,11.26,0,0,1,5-1.2,2.73,2.73,0,0,1-.78-1.77,2.38,2.38,0,0,1,.26-1c-.29,0-.57.05-.84.05a4.13,4.13,0,0,1-4.33-4.1A4.7,4.7,0,0,1,1014,999a7.12,7.12,0,0,1,4.67-1.44h5.38l-1.67.94Zm-1.85,11.59a4,4,0,0,0-.6,0,10.43,10.43,0,0,0-2.74.42,2.93,2.93,0,0,0-2.25,2.69c0,1.85,1.8,3.19,4.6,3.19,2.5,0,3.84-1.2,3.84-2.82C1021.77,1012.24,1020.91,1011.54,1018.92,1010.13Zm.76-5a2.64,2.64,0,0,0,.65-1.91c0-1.88-1.12-4.8-3.29-4.8a2.44,2.44,0,0,0-1.83.86,3,3,0,0,0-.57,1.93c0,1.75,1,4.65,3.26,4.65A2.67,2.67,0,0,0,1019.68,1005.17Z" transform="translate(-900.67 -968.04)"/><path class="cls-8" d="M1004.35,1009.71a6.15,6.15,0,0,1-6.36-6.15,6.46,6.46,0,0,1,6.75-6.33,6.09,6.09,0,0,1,6.23,6.15A6.37,6.37,0,0,1,1004.35,1009.71Zm3.26-2.11a4.72,4.72,0,0,0,.78-2.89c0-2.29-1.1-6.67-4.33-6.67a3.63,3.63,0,0,0-2.35.89,3.94,3.94,0,0,0-1.2,3.18c0,2.58,1.28,6.82,4.43,6.82A3.33,3.33,0,0,0,1007.6,1007.6Z" transform="translate(-900.67 -968.04)"/><path class="cls-8" d="M990.22,1009.71a6.15,6.15,0,0,1-6.36-6.15,6.46,6.46,0,0,1,6.75-6.33,6.09,6.09,0,0,1,6.23,6.15A6.37,6.37,0,0,1,990.22,1009.71Zm3.26-2.11a4.72,4.72,0,0,0,.78-2.89c0-2.29-1.09-6.67-4.33-6.67a3.62,3.62,0,0,0-2.34.89,3.94,3.94,0,0,0-1.2,3.18c0,2.58,1.28,6.82,4.43,6.82A3.33,3.33,0,0,0,993.48,1007.6Z" transform="translate(-900.67 -968.04)"/><path class="cls-8" d="M981.87,1009.3l-3.75.87a27.74,27.74,0,0,1-4.32.44c-7.23,0-10-5.32-10-9.48,0-5.08,3.9-9.8,10.58-9.8a15.1,15.1,0,0,1,4,.55,10.19,10.19,0,0,1,3.46,1.62l-2.17,2.07-.92.21.66-1a7.49,7.49,0,0,0-5.61-2.46c-4.14,0-7.26,3.14-7.26,7.73a9.26,9.26,0,0,0,9.27,9.56,7.8,7.8,0,0,0,3.33-.66v-4.22l-4,.21,2.1-1.13h5.55l-.68.65a.62.62,0,0,0-.26.42c0,.24-.05,1-.05,1.26Z" transform="translate(-900.67 -968.04)"/><path class="cls-8" d="M1029.06,1008.55c-.86-.08-1-.24-1-1.26V992.46c0-.06,0-.11,0-.17.11-.92.37-1.07,1.18-1.55h-3.75l-2,.94h2v16.17c0,.52-.1.6-.71,1.39h4.64l1-.57C1029.95,1008.62,1029.5,1008.6,1029.06,1008.55Z" transform="translate(-900.67 -968.04)"/><path class="cls-8" d="M1039.72,1008.79c-.29.16-.57.34-.86.47a6.06,6.06,0,0,1-2.53.5,5.55,5.55,0,0,1-3.46-1,6.73,6.73,0,0,1-2.65-5.49,5.9,5.9,0,0,1,6-6,5.06,5.06,0,0,1,2.68.73,4.31,4.31,0,0,1,1.82,2.57l-6.11,2.47-2,.16c.65,3.3,2.89,5.23,5.36,5.23a6.73,6.73,0,0,0,3.17-.91Zm-2.44-7.75c.49-.18.75-.34.75-.7a2.58,2.58,0,0,0-2.58-2.24c-1,0-3,.81-3,3.62,0,.44.05.91.08,1.38Z" transform="translate(-900.67 -968.04)"/><path class="cls-8" d="M1042.23,997.41v1.72H1042v-1.72h-.57v-.18h1.34v.18Z" transform="translate(-900.67 -968.04)"/><path class="cls-8" d="M1044.57,999.13V997.4h0l-.53,1.73h-.16l-.53-1.73h0v1.73h-.19v-1.89h.32l.48,1.53h0l.47-1.53h.33v1.89Z" transform="translate(-900.67 -968.04)"/><path class="cls-9" d="M969,986.23h-1.3a8.62,8.62,0,0,0-.37-1.52h-1.88a7.88,7.88,0,0,0-.38,1.52h-1.22q0-.16.95-2.6a20.38,20.38,0,0,0,.95-2.69h1.54a22.52,22.52,0,0,0,.86,2.65A23.27,23.27,0,0,1,969,986.23Zm-1.88-2.3a22.94,22.94,0,0,1-.7-2.27h-.06q0,.16-.72,2.27Z" transform="translate(-900.67 -968.04)"/><path class="cls-9" d="M974.27,986.23h-1a9.94,9.94,0,0,0-1.12-1.76,9.66,9.66,0,0,1-1.33-2.3h-.06a14.66,14.66,0,0,1,.1,1.61q0,1,.06,2.45h-1q.06-1.26.06-2.77t-.06-2.53h1.21a7.68,7.68,0,0,0,1,1.72,10.21,10.21,0,0,1,1.23,2.17h.06a15.54,15.54,0,0,1-.1-1.63q0-1.1-.06-2.26h1q-.06,1-.06,2.53T974.27,986.23Z" transform="translate(-900.67 -968.04)"/><path class="cls-9" d="M980.17,983.4a3,3,0,0,1-.74,2,2.59,2.59,0,0,1-2.07.86c-.4,0-1,0-1.66,0q.05-1.23.05-2.77t-.05-2.53h1.69a2.74,2.74,0,0,1,2.13.73A2.54,2.54,0,0,1,980.17,983.4Zm-1.11.17a2,2,0,0,0-.46-1.32,1.73,1.73,0,0,0-1.39-.53l-.48,0q0,.81,0,1.7t0,1.93a2.68,2.68,0,0,0,.53.05,1.54,1.54,0,0,0,1.29-.54A2.09,2.09,0,0,0,979.06,983.57Z" transform="translate(-900.67 -968.04)"/><path class="cls-9" d="M985.61,986.23H984.4a8,8,0,0,0-.72-1.78,1,1,0,0,0-.81-.34h-.45q0,1,0,2.11h-1.13q.05-1.23.05-2.77t-.05-2.53h1.93q1.87,0,1.87,1.28a1.43,1.43,0,0,1-1.07,1.41v.06a1.28,1.28,0,0,1,.72.64A14.25,14.25,0,0,1,985.61,986.23Zm-1.53-3.74q0-.81-1-.81a3.56,3.56,0,0,0-.68.06q0,.63,0,1.64h.38Q984.08,983.38,984.08,982.49Z" transform="translate(-900.67 -968.04)"/><path class="cls-9" d="M991.44,983.48a2.92,2.92,0,0,1-.77,2.07,2.48,2.48,0,0,1-1.89.82,2.39,2.39,0,0,1-1.8-.75,2.66,2.66,0,0,1-.72-1.92,2.92,2.92,0,0,1,.77-2.07,2.48,2.48,0,0,1,1.89-.82,2.39,2.39,0,0,1,1.8.75A2.66,2.66,0,0,1,991.44,983.48Zm-1.12.12a2.11,2.11,0,0,0-.44-1.38,1.34,1.34,0,0,0-1.07-.53,1.24,1.24,0,0,0-1,.53,2.13,2.13,0,0,0-.41,1.35,2.1,2.1,0,0,0,.44,1.38,1.34,1.34,0,0,0,1.07.53,1.24,1.24,0,0,0,1-.53A2.13,2.13,0,0,0,990.31,983.6Z" transform="translate(-900.67 -968.04)"/><path class="cls-9" d="M993.74,986.23h-1.15q.05-1.26.05-2.77t-.05-2.53h1.15q-.05,1-.05,2.53T993.74,986.23Z" transform="translate(-900.67 -968.04)"/><path class="cls-9" d="M999.63,983.4a3,3,0,0,1-.74,2,2.59,2.59,0,0,1-2.07.86q-.6,0-1.66,0,.05-1.23.05-2.77t-.05-2.53h1.68a2.75,2.75,0,0,1,2.13.73A2.54,2.54,0,0,1,999.63,983.4Zm-1.11.17a2,2,0,0,0-.46-1.32,1.73,1.73,0,0,0-1.39-.53l-.48,0q0,.81,0,1.7t0,1.93a2.68,2.68,0,0,0,.53.05,1.54,1.54,0,0,0,1.3-.54A2.09,2.09,0,0,0,998.52,983.57Z" transform="translate(-900.67 -968.04)"/><path class="cls-9" d="M1007.46,986.23h-1.3a8.71,8.71,0,0,0-.37-1.52h-1.88a7.79,7.79,0,0,0-.38,1.52h-1.22q0-.16.95-2.6a20.24,20.24,0,0,0,1-2.69h1.54a22.5,22.5,0,0,0,.86,2.65A23.27,23.27,0,0,1,1007.46,986.23Zm-1.88-2.3a22.93,22.93,0,0,1-.7-2.27h-.06q0,.16-.72,2.27Z" transform="translate(-900.67 -968.04)"/><path class="cls-9" d="M1012.2,982.32a1.59,1.59,0,0,1-.72,1.44,3.21,3.21,0,0,1-1.77.46h-.27q0,.76,0,2h-1.14q.05-1.17.05-2.77t-.05-2.53h2a2.33,2.33,0,0,1,1.31.35A1.18,1.18,0,0,1,1012.2,982.32Zm-1.05.22q0-.87-1.15-.87a3.25,3.25,0,0,0-.61.06c0,.51,0,1.09,0,1.74h.24Q1011.15,983.48,1011.15,982.54Z" transform="translate(-900.67 -968.04)"/><path class="cls-9" d="M1017.08,982.32a1.59,1.59,0,0,1-.72,1.44,3.21,3.21,0,0,1-1.77.46h-.27q0,.76,0,2h-1.14q.05-1.17.05-2.77t-.05-2.53h2a2.33,2.33,0,0,1,1.31.35A1.18,1.18,0,0,1,1017.08,982.32Zm-1.05.22q0-.87-1.15-.87a3.25,3.25,0,0,0-.61.06c0,.51,0,1.09,0,1.74h.24Q1016,983.48,1016,982.54Z" transform="translate(-900.67 -968.04)"/><path class="cls-9" d="M1025.06,983.48a2.92,2.92,0,0,1-.77,2.07,2.48,2.48,0,0,1-1.89.82,2.39,2.39,0,0,1-1.8-.75,2.66,2.66,0,0,1-.72-1.92,2.92,2.92,0,0,1,.77-2.07,2.48,2.48,0,0,1,1.89-.82,2.39,2.39,0,0,1,1.8.75A2.66,2.66,0,0,1,1025.06,983.48Zm-1.12.12a2.1,2.1,0,0,0-.44-1.38,1.34,1.34,0,0,0-1.07-.53,1.24,1.24,0,0,0-1,.53,2.12,2.12,0,0,0-.42,1.35,2.1,2.1,0,0,0,.44,1.38,1.34,1.34,0,0,0,1.07.53,1.24,1.24,0,0,0,1-.53A2.14,2.14,0,0,0,1023.93,983.6Z" transform="translate(-900.67 -968.04)"/><path class="cls-9" d="M1030.57,986.23h-1a9.93,9.93,0,0,0-1.12-1.76,9.65,9.65,0,0,1-1.33-2.3H1027a14.2,14.2,0,0,1,.1,1.61q0,1,.06,2.45h-1q.06-1.26.06-2.77t-.06-2.53h1.21a7.61,7.61,0,0,0,1,1.72,10.12,10.12,0,0,1,1.23,2.17h.06a15.52,15.52,0,0,1-.1-1.63q0-1.1-.06-2.26h1q-.06,1-.06,2.53T1030.57,986.23Z" transform="translate(-900.67 -968.04)"/></svg>