<?xml version="1.0" encoding="UTF-8" standalone="no"?>
<!-- Generator: Adobe Illustrator 16.0.0, SVG Export Plug-In . SVG Version: 6.00 Build 0)  -->
<!DOCTYPE svg  PUBLIC '-//W3C//DTD SVG 1.1//EN'  'http://www.w3.org/Graphics/SVG/1.1/DTD/svg11.dtd'>
<svg id="Layer_1" xmlns="http://www.w3.org/2000/svg" xml:space="preserve" height="200px" viewBox="0 0 200 200" width="200px" version="1.1" y="0px" x="0px" xmlns:xlink="http://www.w3.org/1999/xlink" enable-background="new 0 0 200 200">
		<path opacity=".4" d="m200 99.998c0 55.232-44.77 100-100 100s-100-44.77-100-100c0-55.229 44.771-100 100-100s100 44.771 100 99.998z" fill="#79C4D2"/>
		<path d="m185.35 99.998c0 47.144-38.211 85.356-85.353 85.356s-85.354-38.213-85.354-85.356c0-47.139 38.213-85.353 85.354-85.353s85.353 38.218 85.353 85.357z" fill="#fff"/>
		<path d="m196.88 79.43h-6.124c-0.851 0-1.54-0.692-1.54-1.543s0.689-1.543 1.54-1.543h6.124c0.849 0 1.54 0.692 1.54 1.543s-0.69 1.543-1.54 1.543z" fill="#343846"/>
		<path d="m193.82 82.487c-0.851 0-1.54-0.688-1.54-1.541v-6.122c0-0.851 0.689-1.541 1.54-1.541 0.852 0 1.541 0.689 1.541 1.541v6.122c0 0.854-0.69 1.541-1.54 1.541z" fill="#343846"/>
		<path d="m67.934 37.33h-6.125c-0.852 0-1.541-0.691-1.541-1.545 0-0.847 0.689-1.543 1.541-1.543h6.125c0.85 0 1.539 0.696 1.539 1.543 0 0.853-0.69 1.545-1.539 1.545z" fill="#343846"/>
		<path d="m64.872 40.387c-0.854 0-1.545-0.688-1.545-1.539v-6.124c0-0.851 0.691-1.545 1.545-1.545 0.852 0 1.545 0.694 1.545 1.545v6.124c0 0.852-0.693 1.539-1.545 1.539z" fill="#343846"/>
		<path d="m171.18 96.94h-6.121c-0.852 0-1.545-0.692-1.545-1.543s0.693-1.542 1.545-1.542h6.121c0.854 0 1.541 0.691 1.541 1.542s-0.69 1.543-1.54 1.543z" fill="#343846"/>
		<path d="m168.12 100c-0.853 0-1.545-0.692-1.545-1.541v-6.124c0-0.851 0.692-1.543 1.545-1.543 0.849 0 1.541 0.692 1.541 1.543v6.124c0 0.849-0.69 1.541-1.54 1.541z" fill="#343846"/>
		<path d="m143.66 46.557h-4.556c-0.848 0-1.537-0.688-1.537-1.541 0-0.849 0.689-1.543 1.537-1.543h4.556c0.852 0 1.541 0.694 1.541 1.543 0 0.853-0.69 1.541-1.54 1.541z" fill="#343846"/>
		<path d="m159.84 175.57h-4.552c-0.848 0-1.541-0.689-1.541-1.541 0-0.851 0.693-1.543 1.541-1.543h4.552c0.851 0 1.545 0.692 1.545 1.543 0 0.85-0.69 1.54-1.54 1.54z" fill="#343846"/>
		<path d="m166.57 46.557h-16.336c-0.854 0-1.541-0.688-1.541-1.541 0-0.849 0.688-1.543 1.541-1.543h16.336c0.852 0 1.541 0.694 1.541 1.543 0.01 0.853-0.68 1.541-1.54 1.541z" fill="#343846"/>
		<path d="m174.78 169.55h-16.83c-0.852 0-1.545-0.686-1.545-1.541 0-0.849 0.693-1.54 1.545-1.54h16.832c0.853 0 1.538 0.691 1.538 1.54 0.01 0.85-0.67 1.54-1.53 1.54z" fill="#343846"/>
		<path d="m31.488 103.29h-12.671c-0.851 0-1.54-0.688-1.54-1.54s0.689-1.543 1.54-1.543h12.671c0.851 0 1.54 0.691 1.54 1.543 0 0.85-0.689 1.54-1.54 1.54z" fill="#343846"/>
		<path d="m28.494 108.97h-16.83c-0.851 0-1.54-0.689-1.54-1.541 0-0.851 0.689-1.543 1.54-1.543h16.83c0.853 0 1.54 0.692 1.54 1.543 0 0.85-0.687 1.54-1.54 1.54z" fill="#343846"/>
		<path d="m34.34 114.66h-7.645c-0.851 0-1.54-0.689-1.54-1.54 0-0.854 0.689-1.543 1.54-1.543h7.645c0.85 0 1.539 0.689 1.539 1.543 0 0.85-0.69 1.54-1.539 1.54z" fill="#343846"/>
		<path d="m80.642 170.99h-16.83c-0.855 0-1.545-0.687-1.545-1.54 0-0.852 0.689-1.543 1.545-1.543h16.83c0.851 0 1.536 0.691 1.536 1.543 0 0.85-0.686 1.54-1.536 1.54z" fill="#343846"/>
		<path d="m92.076 170.99h-4.928c-0.853 0-1.545-0.687-1.545-1.54 0-0.852 0.692-1.543 1.545-1.543h4.928c0.852 0 1.536 0.691 1.536 1.543 0 0.85-0.684 1.54-1.536 1.54z" fill="#343846"/>
		<path d="m49.107 55.812h-3.854c-0.854 0-1.545-0.69-1.545-1.541s0.691-1.542 1.545-1.542h3.854c0.852 0 1.541 0.691 1.541 1.542s-0.689 1.541-1.541 1.541z" fill="#343846"/>
		<path d="m39.853 55.812h-9.462c-0.854 0-1.539-0.69-1.539-1.541s0.686-1.542 1.539-1.542h9.462c0.854 0 1.543 0.691 1.543 1.542s-0.69 1.541-1.543 1.541z" fill="#343846"/>
		<path d="m185.35 112.71h-2.844c-0.851 0-1.54-0.69-1.54-1.541 0-0.855 0.689-1.543 1.54-1.543h2.844c0.854 0 1.543 0.688 1.543 1.543 0.01 0.85-0.68 1.54-1.54 1.54z" fill="#343846"/>
		<g id="XMLID_1_">
			<g fill="#79C4D2">
				<polygon points="86.39 97.735 45.86 139.29 45.86 60.71"/>
				<polygon points="154.14 60.71 154.14 139.29 113.62 97.735"/>
				<polygon opacity=".4" points="113.62 97.922 154.14 139.66 45.86 139.66 86.39 97.922 100 110.35"/>
				<polygon opacity=".4" points="154.14 61.453 113.62 98.106 100 110.35 86.39 98.197 45.86 61.453"/>
			</g>
				<rect y="61.453" x="152.83" height="78.212" width="2.234" fill="#18252F"/>
				<rect y="60.71" x="44.381" height="78.582" width="2.964" fill="#343846"/>
				<path d="m85.395 98.826l-40.535-37.024c-0.449-0.413-0.598-1.059-0.379-1.628 0.22-0.572 0.772-0.947 1.379-0.947h108.28c0.606 0 1.159 0.375 1.379 0.947 0.219 0.569 0.065 1.215-0.384 1.628l-40.521 37.024-1.999-2.187 37.706-34.451h-100.65l37.714 34.451-1.999 2.187z" fill="#343846"/>
				<path d="m154.14 140.77h-108.28c-0.594 0-1.128-0.355-1.361-0.908-0.231-0.545-0.114-1.181 0.303-1.608l40.531-41.559c0.561-0.572 1.476-0.596 2.061-0.059l12.606 11.528 12.615-11.523c0.59-0.537 1.502-0.513 2.062 0.059l40.521 41.559c0.417 0.428 0.532 1.063 0.304 1.608-0.23 0.55-0.77 0.9-1.36 0.9zm-104.76-2.96h101.25l-37.063-38.013-12.562 11.466c-0.567 0.513-1.432 0.513-1.996 0l-12.559-11.465-37.079 38.015z" fill="#343846"/>
				<rect y="120.73" x="103.56" height="2.961" width="22.264" fill="#343846"/>
				<rect y="127.85" x="112.1" height="2.962" width="13.716" fill="#343846"/>
		</g>
</svg>
