<svg id="Layer_1" data-name="Layer 1" xmlns="http://www.w3.org/2000/svg" viewBox="0 0 96.77 96.77"><defs><style>.cls-1{fill:#22252c;}.cls-2{fill:#f1f1f2;}.cls-3{fill:#87b45c;}.cls-4{fill:#4798c8;}.cls-5{fill:#24272b;}</style></defs><title>45x45</title><path class="cls-1" d="M354.35,431c0,7.89-6.76,14.29-15.12,14.29H272.7c-8.36,0-15.13-6.4-15.13-14.29V368.09c0-7.89,6.77-14.29,15.13-14.29h66.53c8.36,0,15.12,6.4,15.12,14.29Z" transform="translate(-257.57 -348.49)"/><path class="cls-2" d="M354.35,425.67c0,7.89-6.76,14.29-15.12,14.29H272.7c-8.36,0-15.13-6.4-15.13-14.29V362.79c0-7.89,6.77-14.3,15.13-14.3h66.53c8.36,0,15.12,6.4,15.12,14.3Z" transform="translate(-257.57 -348.49)"/><rect class="cls-3" x="7.93" y="51.23" width="34.73" height="11.57"/><rect class="cls-4" x="7.93" y="35.44" width="34.73" height="11.58"/><path class="cls-5" d="M335,408.93l-.15,0a4.94,4.94,0,0,1-1.13.14c-.9,0-2-.46-2-2.66,0-1.12.19-2.62,1.87-2.62h0a5,5,0,0,1,1.24.23l.14,0Zm.28-10.9-.28,0v4l-.24-.07-.07,0a5.81,5.81,0,0,0-1.54-.27c-3.38,0-4.09,2.56-4.09,4.7,0,2.94,1.65,4.63,4.53,4.63a9.28,9.28,0,0,0,3-.43,1.33,1.33,0,0,0,1.13-1.46V397.61l-2.46.42" transform="translate(-257.57 -348.49)"/><path class="cls-5" d="M345,409l-.14,0-.52.14a5.11,5.11,0,0,1-1.25.2c-.79,0-1.27-.4-1.27-1.06,0-.43.2-1.16,1.49-1.16H345Zm-1.18-7.29a11.36,11.36,0,0,0-3.45.6l-.87.26.29,2,.84-.28a9.92,9.92,0,0,1,2.81-.48c.38,0,1.51,0,1.51,1.23v.54H343.4c-2.87,0-4.21.92-4.21,2.88,0,1.68,1.23,2.69,3.29,2.69a10.2,10.2,0,0,0,2.29-.31h.08l.26,0,2.45.45v-6.44c0-2.08-1.25-3.14-3.73-3.14" transform="translate(-257.57 -348.49)"/><path class="cls-5" d="M325,409l-.14,0-.52.14a5.06,5.06,0,0,1-1.25.2c-.79,0-1.26-.4-1.26-1.06,0-.43.19-1.16,1.49-1.16H325Zm-1.18-7.29a11.42,11.42,0,0,0-3.45.6l-.86.26.29,2,.84-.28a9.88,9.88,0,0,1,2.82-.48c.37,0,1.51,0,1.51,1.23v.54h-1.58c-2.88,0-4.21.92-4.21,2.88,0,1.68,1.23,2.69,3.3,2.69a10.32,10.32,0,0,0,2.29-.31h.08l.25,0,2.45.45v-6.44c0-2.08-1.25-3.14-3.73-3.14" transform="translate(-257.57 -348.49)"/><path class="cls-5" d="M314.11,401.73a7,7,0,0,0-2.8.62l-.1.05-.09-.07a4.2,4.2,0,0,0-2.51-.6,10.2,10.2,0,0,0-3,.44c-.88.27-1.22.69-1.22,1.48V411h2.74v-6.79l.13,0a3.62,3.62,0,0,1,1.2-.22,1.08,1.08,0,0,1,1.2,1.25V411h2.7v-5.93a1.68,1.68,0,0,0-.08-.59l-.09-.18.18-.08a3.32,3.32,0,0,1,1.35-.27A1.09,1.09,0,0,1,315,405.2V411h2.7v-6.08c0-2.15-1.16-3.19-3.55-3.19" transform="translate(-257.57 -348.49)"/><path class="cls-5" d="M343,391.48a9.45,9.45,0,0,1-1.6-.14l-.16,0v-4a1.62,1.62,0,0,0-.08-.56l-.08-.17.17-.08.13,0,0,0,.18-.06.08,0a5.94,5.94,0,0,1,1.41-.17h0c1.68,0,1.87,1.5,1.87,2.62,0,2.19-1.08,2.65-2,2.65m0-7.55h-.07c-1.58,0-3.2.43-3.78,1.28a2.56,2.56,0,0,0-.5,1.54h0v4.09a1.07,1.07,0,0,1-.08.51l-.09.18h-5v-2.85h0c-.06-3-1.83-4.65-4.41-4.65h-2.51c-.11.74-.19,1.25-.29,2h2.5c1.31,0,2,1.12,2,2.83v2.87l-.18-.09a1.72,1.72,0,0,0-.59-.08h-4.31c-.08.55-.19,1.26-.3,2h13.25l1.43-.25a7.52,7.52,0,0,0,2.78.5c2.88,0,4.74-1.92,4.74-4.9s-1.8-4.86-4.61-4.92" transform="translate(-257.57 -348.49)"/><path class="cls-5" d="M319.75,394.7h.12c2.87,0,4.21-.95,4.21-3.29a3,3,0,0,0-3.29-3h-2.65a1.14,1.14,0,0,1-1.27-1.21c0-.51.2-1.16,1.49-1.16h5.79c.12-.76.19-1.23.3-2h-6c-2.81,0-4.21,1.17-4.21,3.14s1.23,2.95,3.29,2.95h2.65a1.25,1.25,0,0,1,1.26,1.29,1.3,1.3,0,0,1-1.49,1.33h-.45l-8.49,0h-1.54c-1.31,0-2.23-.75-2.23-2.46v-1.19c0-1.79.71-2.91,2.23-2.91H312l.29-2h-3.44c-2.57,0-4.35,1.72-4.41,4.72h0v1.34c.06,3,1.84,4.43,4.41,4.43h10.9Z" transform="translate(-257.57 -348.49)"/></svg>